M48
;Layer_Color=9474304
;FILE_FORMAT=2:4
INCH,TZ
;TYPE=PLATED
T1F00S00C0.0080
T2F00S00C0.0100
T3F00S00C0.0118
T4F00S00C0.0120
T5F00S00C0.0150
T7F00S00C0.0200
T9F00S00C0.0240
T10F00S00C0.0276
T11F00S00C0.0354
T12F00S00C0.0380
T13F00S00C0.0512
;TYPE=NON_PLATED
T14F00S00C0.1299
%
T01
X3840Y5530
Y6120
Y6710
Y7300
X4150Y7870
X5420Y7340
X5917Y6843
X6350
X6783
Y6410
X6350
Y5977
X6783
X5917
Y6410
X5410Y5440
X7320Y5480
X7165Y5058
X7530Y4850
X7320Y7340
X7474Y7817
X7860Y7820
X7464Y8700
X6653Y7627
X10310Y610
X8580Y11950
X8283Y11909
X8027Y12470
X7747Y12450
X7505Y12736
Y13041
X7507Y13232
X7259Y13228
Y12992
Y13484
X7515
X7767Y13490
Y14000
X7515Y14006
Y13760
X7259Y13750
Y14006
X7003
Y13740
X6737Y13750
X6481
Y13484
X6757
X6718Y13091
X6977Y12750
X6747Y12461
X6517Y12470
X6900Y11978
X7385Y12250
X7468Y11720
X8027Y12992
X8287Y12740
X8570Y12460
X8507Y14030
Y14290
X8037Y14020
X7737Y14480
X7367Y14470
X6847Y14450
X6987Y15010
X6568Y15170
X6228Y15330
X5998Y15440
X5807Y15290
X5977Y15030
X5927Y14480
X5991Y14248
X6235Y14250
X5990Y13270
X5247Y13970
X4964Y14253
X4822Y14394
X4537Y14680
X3727Y14710
Y14310
Y14110
Y13710
X3877Y13650
Y13250
Y13050
Y12650
X4277
X4477
X4877
X4757Y11850
Y11450
Y11250
Y10850
X5608Y15870
X6841Y15856
X6969Y15955
X8037Y15020
X8537Y15040
X10000Y14577
X10820Y15140
X10251Y23590
X9991Y23638
X9301Y23790
X9041
X8499Y23818
X8815Y24571
Y25004
Y25438
Y25871
X9248
X9681
X10114
X10547
Y25438
X10114
X9681
X9248
Y25004
X9681
X10114
X10547
Y24571
X10114
X9681
X9248
X8001Y25418
X7982Y25680
X11281Y24638
X11321Y24380
X2140Y13820
X960Y13840
Y13640
Y13370
Y13150
Y12900
Y12690
Y12421
Y12220
X955Y11952
X738Y11644
X651Y12220
Y12420
Y12690
Y12900
Y13150
Y13370
Y13640
Y13840
Y14120
Y14320
X970
Y14120
X965Y14600
X1680Y13030
X2756Y12766
X2707Y11959
X8815Y26304
X9248
X9681
X10114
X10547
X10761Y27048
X9091Y27068
X8600Y27070
T02
X660Y530
X600Y2400
X300Y3300
Y3600
X700Y5300
Y6500
Y7700
Y8900
X2700Y300
X3900
X5100
X5400Y600
X8700
X9900Y300
X11100
X12000Y600
X12090Y2200
X13860Y3610
X13580Y3940
X13640Y7290
X14626Y7302
X11350Y6990
X11340Y6690
X11080Y6590
X11320Y7660
X12540Y10120
X17251Y8800
X18340Y9800
X18500Y5850
X17100Y5730
X17400Y300
X16200
X15000
X8140Y3150
X8060Y3480
X7610Y3370
X7750Y2910
X7940Y4130
X7500Y4320
X7870Y4840
X9020Y5280
X6860Y8750
X4831Y8760
X4550Y8610
X4210Y2840
X19200Y2700
Y3900
Y5100
Y6300
Y7500
Y8700
Y9900
X18990Y620
X19200Y11100
Y12300
Y13500
Y14700
Y15900
Y17100
Y18300
Y18900
Y20100
Y21300
Y22500
Y23700
Y24900
Y26100
X15410Y25390
X15590Y24310
X16020Y24320
X15700Y22940
X15510Y21740
X14720Y21050
X13850Y20270
X12790Y20250
X11880Y19760
X11580Y21330
X12330Y23470
X13020Y24340
X12411Y25810
X12061Y25790
X7430Y25370
X8274Y24030
X5391Y23890
X5640Y24870
X5091Y24980
X4561Y24970
X3880Y25570
X3921Y23563
X6850Y22430
X6020Y21550
X5390Y20830
X6250Y20180
X6251Y19850
X6261Y19340
X6130Y19090
X6221Y18830
Y18340
X6520Y17520
X6911Y17570
X8530Y17530
X9247Y18238
X9470Y18020
X9261Y18839
Y19340
X9560Y19350
X10667Y17010
X10898Y16560
X11478Y16630
X10250Y16468
X10167Y14468
X11350Y15130
X11810Y11880
X13730Y11220
X17770Y11520
X17651Y13426
X16600Y18680
X15780Y19010
X5070Y15470
X300Y15300
Y16500
Y17700
Y18900
X720Y19610
X1031Y19621
X300Y20100
X400Y22000
Y22900
X300Y24900
Y26100
X1261Y24340
X1610Y24090
X2051Y24541
X2320Y24810
X2761Y25000
X3032Y24998
X2540Y23340
X2040Y20910
X700Y11300
X720Y27870
X3000Y28440
X4200
X5400
X6600
X7800
X9000
X10200
X11400
X12600
X13800
X15000
X16200
X17400
X18600
X14050Y26580
X10468Y27099
X8847Y27177
X8200Y27490
X7041Y27300
X8031Y26270
X19200Y27300
Y28140
T03
X13525Y15530
X14025
Y16030
X14525
Y15530
Y16530
X14025
X13525
Y16030
Y17030
X14025
X14525
T04
X1330Y8370
X1880
X5130Y9760
X5425Y9895
X7008Y10541
X12741Y9830
X12501Y9140
X13310Y7300
X15660Y7150
X16250
X18611Y9410
X12120Y5850
X11821Y3410
X5538Y4307
X4510Y5020
X3780Y2900
X6050Y11220
X6380Y11620
X7740Y11510
X7570Y10960
X7165Y10758
X12771Y10850
X13141Y10690
X13827Y13438
X12098Y14297
X12418Y16050
X12098Y17370
X11797Y17580
X10258Y17210
X9208Y16190
X8737Y15920
X8347Y15930
X8018
X8338Y16580
X9841Y19190
X11891Y20290
Y21470
X12151Y21270
X13041Y20768
X13521Y20510
X13599Y21090
X12261Y22880
X12121Y24130
X12091Y24450
X12751Y24530
X12531Y24140
X11261Y24050
X11331Y26230
X15100Y25460
X16411Y25150
X15910Y22450
X7671Y20870
X7739Y20512
X5671Y21070
X3921Y25260
X4161Y25650
X7671Y25130
X1361Y19268
X1530Y10709
X1831Y10669
X2165Y10660
X2539Y10659
X6041Y26670
X9231Y27540
X11571Y27300
X11561Y26980
X11861Y26480
X12561Y27030
X12520Y27370
T05
X1940Y754
Y2566
X2846Y1660
X1034
X2780Y8480
X5830Y8760
X6251Y8777
X7090Y8420
X4830Y10070
X5167Y4713
X5850Y3610
X6300Y3810
X6650Y1299
X6679Y640
X7446Y640
X9030Y627
X9847Y883
X13135Y630
X13913Y630
X13940Y1900
X13519Y1575
X12270Y2870
X12140Y3230
X12084Y5079
X11400Y5060
X12430Y6338
X13020Y6680
X13052Y4322
X13744Y4488
X15477Y623
X16258Y866
X16966Y1730
X17871Y824
Y2636
X18777Y1730
X18140Y6560
X18240Y7880
X17230Y7260
X15740Y11230
X15930Y15530
X15935Y16167
X16020Y18610
X17871Y18714
Y20526
X18777Y19620
X16966
X10761Y21738
X10738Y23198
X8739Y23050
Y22033
X9430Y21342
X8509Y20246
X7416Y20236
X5630Y21570
X3956Y21450
X3800Y20620
X3813Y19597
X5630Y23440
X5488Y25700
X13546Y25677
X14040Y26035
X2160Y26064
X2270Y23098
X2380Y22518
X3160
X2240Y21868
X2453Y17157
X3066Y26970
X2160Y27876
X1254Y26970
X4471Y27750
X5870Y27737
X6300Y27180
X6721Y27510
X7670Y27890
X13645Y26870
X13770Y26370
X14350Y26340
T07
X16188Y10388
X15906Y11671
X16211Y13010
X16172Y13482
T09
X15326Y5392
X17380Y5250
T10
X7061Y274
Y983
X13521Y973
Y264
T11
X13926Y2490
X14633Y3197
Y1783
X15340Y2490
T12
X12521Y18440
Y19440
X13521
Y18440
X14521
Y19440
T13
X1000Y4109
X2949Y4346
Y10054
X1000Y10291
T14
X1940Y1660
X17871Y1730
Y19620
X2160Y26970
M30
