M48
;Layer_Color=9474304
;FILE_FORMAT=2:4
INCH,TZ
;TYPE=PLATED
T1F00S00C0.0080
T2F00S00C0.0100
T3F00S00C0.0118
T4F00S00C0.0120
T5F00S00C0.0150
T7F00S00C0.0200
T9F00S00C0.0240
T10F00S00C0.0276
T11F00S00C0.0380
T12F00S00C0.0512
;TYPE=NON_PLATED
T13F00S00C0.1299
%
T01
X3840Y5530
Y6120
Y6710
Y7300
X4150Y7870
X5420Y7340
X5917Y6843
X6350
X6783
Y6410
X6350
Y5977
X6783
X5917
Y6410
X5410Y5440
X7320Y5480
X7165Y5058
X7530Y4850
X7320Y7340
X7474Y7817
X7860Y7820
X7464Y8700
X6653Y7627
X6997Y12010
X7385Y12250
X7747Y12450
X8027Y12470
Y12992
X8287Y12740
X8570Y12460
X8580Y11950
X8283Y11909
X7468Y11720
X7505Y12736
Y13041
X7507Y13232
X7259Y13228
Y12992
Y13484
X7515
X7767Y13490
Y14000
X7515Y14006
Y13760
X7259Y13750
Y14006
X7003
Y13740
X6737Y13750
X6481
Y13484
X6757
X6718Y13091
X6977Y12750
X6747Y12461
X6517Y12470
X5990Y13270
X5991Y14248
X6235Y14250
X5927Y14480
X5977Y15030
X5807Y15290
X5998Y15440
X6228Y15330
X6568Y15170
X6987Y15010
X6847Y14450
X7367Y14470
X7737Y14480
X8037Y14020
X8507Y14030
Y14290
X8537Y15040
X8037Y15020
X10820Y15140
X9247Y18238
X8530Y17530
X6911Y17570
X6221Y18340
Y18830
X6261Y19340
X6251Y19850
X5608Y15870
X4964Y14253
X4822Y14394
X4537Y14680
X3727Y14710
Y14310
Y14110
Y13710
X3877Y13650
Y13250
Y13050
Y12650
X4277
X4477
X4877
X4757Y11850
Y11450
Y11250
Y10850
X5247Y13970
X8499Y23818
X9041Y23790
X9301
X9248Y24571
Y25004
Y25438
Y25871
X8815
Y25438
Y25004
Y24571
X9681
Y25004
Y25438
Y25871
X10114
X10547
Y25438
X10114
Y25004
X10547
Y24571
X10114
X9991Y23638
X10251Y23590
X11321Y24380
X11281Y24638
X8001Y25418
X7982Y25680
X2140Y13820
X960Y13840
Y13640
Y13370
Y13150
Y12900
Y12690
Y12421
Y12220
X690
Y12420
Y12690
Y12900
Y13150
Y13370
Y13640
Y13840
Y14120
Y14320
X970
Y14120
X965Y14600
X1680Y13030
X2756Y12766
X2707Y11959
X955Y11952
X738Y11644
X8815Y26304
X9248
X9681
X10114
X10547
X10761Y27048
X9091Y27068
X8600Y27070
T02
X7610Y3370
X8140Y3150
X13580Y3940
X13640Y7290
X14626Y7302
X11350Y6990
X11340Y6690
X17100Y5730
X17251Y8800
X17651Y13426
X15780Y19010
X15510Y21740
X16020Y24320
X12411Y25810
X12061Y25790
X5640Y24870
X5091Y24980
X4561Y24970
X5391Y23890
X3921Y23563
X10667Y17010
X10898Y16560
X11478Y16630
X10250Y16468
X10190Y14470
X1031Y19621
X1261Y24340
X2321Y24850
X2761Y25000
X8031Y26270
X8370Y27410
X8847Y27177
X10468Y27099
X7041Y27300
T03
X13525Y15530
X14025
Y16030
X14525
Y15530
Y16530
X14025
X13525
Y16030
Y17030
X14025
X14525
T04
X1330Y8370
X1880
X5130Y9760
X5425Y9895
X7030Y10420
X12741Y9830
X12501Y9140
X13310Y7300
X15660Y7150
X16250
X18611Y9410
X12120Y5850
X11821Y3410
X5538Y4307
X4510Y5020
X3780Y2900
X6050Y11220
X6380Y11620
X7740Y11510
X7570Y10960
X7169Y10730
X6908Y15920
X8018Y15930
X8347
X8737Y15920
X9208Y16190
X8338Y16580
X10258Y17210
X11797Y17580
X12098Y17370
X12418Y16050
X12098Y14297
X13827Y13438
X13141Y10690
X12771Y10850
X13041Y20768
X13521Y20510
X13599Y21090
X12151Y21270
X11891Y21470
Y20290
X12261Y22880
X12121Y24130
X12091Y24450
X12751Y24530
X12531Y24140
X11261Y24050
X11331Y26230
X15100Y25460
X16411Y25150
X15910Y22450
X9841Y19190
X9261Y19340
Y18839
X7739Y20512
X7671Y20870
X5671Y21070
X3921Y25260
X4161Y25650
X7671Y25130
X1361Y19268
X1530Y10709
X1831Y10669
X2165Y10660
X2539Y10659
X6041Y26670
X9231Y27540
X11571Y27300
X11561Y26980
X11861Y26480
X12561Y27030
X12520Y27370
T05
X1034Y1660
X2846
X1940Y2566
Y754
X2780Y8480
X4831Y8760
X5830Y8760
X6251Y8777
X7093Y8467
X4830Y10070
X5167Y4713
X5850Y3610
X6300Y3810
X7500Y4320
X7446Y600
X6679Y600
X6650Y1260
X9030Y627
X9847Y883
X13135Y591
X13913Y591
X13940Y1900
X13519Y1535
X12270Y2870
X12140Y3230
X12084Y5079
X11400Y5060
X12430Y6338
X13020Y6680
X13052Y4322
X13744Y4488
X15477Y623
X16258Y866
X16966Y1730
X18777
X17871Y2636
Y824
X18140Y6560
X18240Y7880
X17230Y7260
X15740Y11230
X15930Y15530
X15935Y16167
X16020Y18610
X16966Y19620
X18777
X17871Y20526
Y18714
X10761Y21738
X10738Y23198
X8739Y23050
Y22033
X9430Y21342
X8509Y20246
X7416Y20236
X5630Y21570
X3956Y21450
X3800Y20620
X3813Y19597
X5630Y23440
X5488Y25700
X13546Y25677
X14040Y26035
X2160Y26064
X2270Y23098
X2380Y22518
X3160
X2240Y21868
X2453Y17157
X3066Y26970
X1254
X2160Y27876
X4471Y27750
X5870Y27737
X6300Y27180
X6721Y27510
X7670Y27930
X13645Y26870
X13770Y26370
X14350Y26340
T07
X16188Y10388
X15906Y11671
X16211Y13010
X16172Y13482
T09
X15326Y5392
X17380Y5250
T10
X7061Y235
Y943
X13521Y933
Y225
T11
X12521Y18440
Y19440
X13521
Y18440
X14521
Y19440
T12
X1000Y4109
X2949Y4346
Y10054
X1000Y10291
T13
X1940Y1660
X17871Y1730
Y19620
X2160Y26970
M30
