M48
;Layer_Color=9474304
;FILE_FORMAT=2:4
INCH,TZ
;TYPE=PLATED
T1F00S00C0.0080
T2F00S00C0.0118
T3F00S00C0.0150
T5F00S00C0.0200
T7F00S00C0.0240
T8F00S00C0.0276
T9F00S00C0.0380
T10F00S00C0.0512
;TYPE=NON_PLATED
T11F00S00C0.1299
%
T01
X3140Y12000
X3400Y12050
X3461Y11735
X4307
X5154
X5950Y11620
X5960Y12470
X6220Y12461
X6450Y12750
X6732Y12992
Y13228
Y13484
X6988
Y13760
Y14006
X6732
X6476
Y13740
X6732Y13750
X7224
X7431Y13228
X7500Y12992
X7760Y12740
X8020Y12730
X7500Y12470
X7220Y12450
X6978Y12736
Y13041
X6191Y13091
X6230Y13484
X5955
Y13750
X6211
X6063Y14203
X5709Y14250
X5300Y14160
X5450Y15030
X5610Y15220
X5890Y15270
X5950Y15050
X6460Y15010
X6693Y14409
X7210Y14480
X7510Y15020
X8010Y15040
X7980Y14290
Y14030
X8159Y11909
X7756
X6858Y12250
X5470Y13260
X4140Y13910
Y14110
X4160Y14390
X3920Y14320
X4300Y14647
X4830Y14730
X4870Y15000
X5080Y15150
X5290Y15320
X4290Y15493
X3520Y14710
X3370Y14110
Y13910
X3410Y13630
X3200
X3350Y13370
Y13170
X3180Y12510
Y12310
X2290Y13450
X2340Y14120
Y14320
X2240Y14560
X2490
X3150Y14320
X5945Y16880
X6132Y17067
X5758Y17077
X6368Y16778
X6417Y16516
X7496Y16430
X7690Y16700
X7900Y16916
X7670Y17129
X9852Y14705
X10148
X10374Y14862
X10540Y14470
X10955Y14872
X11337Y13953
X11770
Y13520
X11337
Y13087
X11770
X12203
Y13520
Y13953
X12710Y14490
X13020Y14560
X12559Y14862
X14243Y14403
X14240Y13810
Y13220
Y12630
X13850Y12170
X13080Y12450
X12700Y12590
X11467Y12303
X10646Y12113
X10260Y12110
X10590Y12620
X10656Y11230
X10250Y11227
X10423Y21043
X10250Y21250
X10640Y21230
X10526Y22014
Y22447
Y22880
Y23313
Y23746
X10093
X9660
X9227
X8794
Y23313
X9227
X9660
X10093
Y22880
X9660
X9227
X8794
Y22447
X9227
X9660
X10093
Y22014
X9660
X9227
X8794
X8580Y21270
X8012Y22884
X8060Y23680
X8375Y24390
X9100Y24780
X9350Y24680
X10250Y24530
X10502Y24539
X10817Y24528
X11349Y23308
X11340Y22900
X12008Y22683
X5886Y23386
X1575Y15276
X728Y15266
X590Y14700
X650Y14320
Y14120
X370
Y14320
Y13840
Y13640
X640
Y13840
Y13370
Y13150
Y12900
Y12690
Y12421
Y12220
X370
Y12420
Y12690
Y12900
Y13150
Y13370
X1180Y13520
Y13050
Y12550
Y12040
X807Y11132
X1634Y11142
X1180Y14000
X1190Y14510
T02
X9933Y17640
Y18140
Y18640
X10433
Y18140
Y17640
X10933
X11433
Y18140
Y18640
X10933
Y18140
T03
X1620Y754
Y2566
X714Y1660
X1565Y5778
X1400Y6917
X866Y6900
X1407Y8898
X1763Y7440
X2536Y6371
X2953Y5778
X6024Y6607
X7728Y3946
X8535Y4073
X10325Y4833
X10540Y5320
X10925Y3868
X11437Y1624
X12018Y1535
X12218Y1867
X12412Y591
X11634Y591
X16370Y824
Y2636
X17276Y1730
X15464
X14518Y4616
X14081Y4366
X14370Y5320
X14790Y9240
X15860Y9230
X13268Y9862
X11841Y8632
X6919Y10620
X5787Y1900
X5551Y1553
X4970Y1644
X5177Y600
X5945Y600
X2526Y1660
X17476Y19620
X17663Y23430
X16520Y23630
X15990Y23223
X15510Y24050
X14867Y24211
X14000Y24180
X13010Y23870
X12992Y23091
X11959
X12090Y21640
X12906Y21110
X11610Y20630
X11140Y20800
X10690Y20710
X10796Y20050
X11433Y19760
X10020Y20540
X9626Y20463
X8189Y20246
X7096Y20236
X7113Y20952
X6739Y20972
X6634Y22392
X7124Y22134
X7933Y21762
X8603Y25119
X12982Y24803
X14527Y25677
X15000Y26150
X15780
X15890Y25570
X15210Y25410
X15947Y24621
X16570Y20526
Y18714
X15664Y19620
X13032Y19154
X13414Y17116
X12126
X12260Y16330
X12670Y16350
X11670Y16390
X10827Y16220
X11350Y15580
X9940Y15830
X9560Y16220
X9488Y16673
X9252Y16988
X8888Y16398
X9026Y16043
X8796Y15400
X9600
X8210Y15920
X7820Y15930
X7430Y15920
X6467Y11860
X8010Y10966
X5020Y10650
X2580Y10980
X1993Y18177
X2403Y19867
X2093Y20517
X3353Y20617
X1840Y26064
X12953Y15217
X13289Y11170
X12290Y11170
X11869Y11153
X11027Y11463
X15340Y11450
X1012Y10708
X934Y26970
X1840Y27876
X2746Y26970
X7313Y26988
X8580Y26580
X13140Y27411
X14626Y26870
X15920Y26800
T05
X3747Y7857
X7886Y6279
X8358
X8880Y6269
X12293Y6624
X12254Y7096
X12559Y8435
T07
X3708Y5967
X3747Y6754
X4889Y8487
T08
X5560Y235
Y943
X12020Y933
Y225
T09
X4920Y26490
X5920
X6920
Y27490
X5920
X4920
T10
X15171Y9876
X17120Y9639
Y15821
X15171Y15584
T11
X1620Y1660
X16370Y1730
X16570Y19620
X1840Y26970
M30
