M48
;Layer_Color=9474304
;FILE_FORMAT=2:4
INCH,TZ
;TYPE=PLATED
T6F00S00C0.0197
T8F00S00C0.0217
;TYPE=NON_PLATED
%
G90
G05
T06
G00X482Y23539
M15
G01X738
M16
G00X482Y26295
M15
G01X738
M16
G00X20593Y26295
M15
G01X20849
M16
G00X20593Y23539
M15
G01X20849
M16
G00X40705Y23539
M15
G01X40961
M16
G00X40705Y26295
M15
G01X40961
M16
T08
G00X1673Y23992
M15
G01Y23874
M16
G00X1673Y25960
M15
G01Y25842
M16
G00X21784Y25960
M15
G01Y25842
M16
G00X21784Y23992
M15
G01Y23874
M16
G00X41896Y23992
M15
G01Y23874
M16
G00X41896Y25960
M15
G01Y25842
M16
M17
M30
