M48
;Layer_Color=9474304
;FILE_FORMAT=2:4
INCH,TZ
;TYPE=PLATED
T1F00S00C0.0080
T2F00S00C0.0100
T3F00S00C0.0118
T4F00S00C0.0120
T5F00S00C0.0150
T7F00S00C0.0200
T9F00S00C0.0240
T10F00S00C0.0276
T11F00S00C0.0354
T12F00S00C0.0380
T13F00S00C0.0512
;TYPE=NON_PLATED
T14F00S00C0.1181
T15F00S00C0.1299
%
T01
X10310Y3149
X30421
X50533
X47753Y7389
X47388Y7597
X47543Y8019
X47006Y8516
Y8949
X46573
Y8516
X46140
Y8949
Y9382
X46573
X47006
X46876Y10166
X47543Y9879
X47696Y10357
X48083Y10359
X47686Y11240
X47690Y14259
X47607Y14789
X47969Y14989
X48249Y15009
Y15532
X48509Y15279
X48793Y14999
X48803Y14489
X48505Y14449
X47122Y14518
X46970Y15000
X46739Y15009
X47199Y15289
X47482Y15532
Y15768
X47729Y15772
X47728Y15581
Y15276
X47738Y16024
X47482
Y16289
Y16545
X47226
Y16280
X46960Y16289
X46704
Y16024
X46980
X46940Y15630
X46213Y15809
X46214Y16787
X46458Y16789
X46149Y17019
X46199Y17569
X46029Y17829
X46220Y17979
X46450Y17869
X46790Y17709
X47209Y17549
X47069Y16989
X47589Y17009
X47959Y17019
X47989Y16539
X47738Y16545
Y16299
X47989Y16029
X48259Y16559
X48729Y16569
Y16829
X48760Y17579
X48259Y17559
X47191Y18494
X47063Y18396
X45830Y18409
X45187Y16792
X45045Y16934
X44759Y17219
X43949Y17249
Y16849
Y16649
Y16249
X44099Y16189
Y15789
Y15589
Y15189
X44499
X44699
X45099
X44979Y14389
Y13989
Y13789
Y13389
X42929Y14498
X42979Y15305
X41903Y15569
X41183Y15689
Y15909
Y16179
Y16379
X41193Y16659
Y16859
X41187Y17140
X40873Y16859
Y16659
Y16379
Y16179
Y15909
Y15689
Y15439
Y15229
Y14959
Y14759
X41183
Y14961
Y15229
Y15439
X41177Y14492
X40961Y14183
X42363Y16359
X45469Y16509
X50223Y17116
X51043Y17679
X45643Y9879
X44063Y9839
Y9249
Y8659
Y8069
X45633Y7979
X44373Y10409
X27971Y10359
X27585Y10357
X27431Y9879
X26765Y10166
X26894Y9382
X26461
X26028
Y8949
Y8516
X26461
Y8949
X26894
Y8516
X27431Y8019
X27277Y7597
X27641Y7389
X25521Y7979
X23951Y8069
Y8659
Y9249
Y9839
X24261Y10409
X25531Y9879
X27575Y11240
X27579Y14259
X27496Y14789
X27858Y14989
X28138Y15009
Y15532
X28398Y15279
X28681Y14999
X28691Y14489
X28394Y14449
X27011Y14518
X26859Y15000
X26628Y15009
X27088Y15289
X27370Y15532
Y15768
X27618Y15772
X27616Y15581
Y15276
X27626Y16024
X27370
Y16289
Y16545
X27114
Y16280
X26849Y16289
X26593
Y16024
X26868
X26829Y15630
X26101Y15809
X26102Y16787
X26347Y16789
X26038Y17019
X26088Y17569
X25918Y17829
X26109Y17979
X26339Y17869
X26679Y17709
X27098Y17549
X26958Y16989
X27478Y17009
X27848Y17019
X27878Y16539
X27626Y16545
Y16299
X27878Y16029
X28148Y16559
X28618Y16569
Y16829
X28648Y17579
X28148Y17559
X27080Y18494
X26952Y18396
X25719Y18409
X25075Y16792
X24934Y16934
X24648Y17219
X23838Y17249
Y16849
Y16649
Y16249
X23988Y16189
Y15789
Y15589
Y15189
X24388
X24588
X24988
X24868Y14389
Y13989
Y13789
Y13389
X22818Y14498
X22867Y15305
X22251Y16359
X25358Y16509
X30111Y17116
X30931Y17679
X21076Y17140
X21081Y16859
Y16659
X21071Y16379
Y16179
Y15909
Y15689
Y15439
Y15229
Y14961
Y14759
X21066Y14492
X20850Y14183
X20762Y14759
Y14959
Y15229
Y15439
Y15689
Y15909
Y16179
Y16379
Y16659
Y16859
X21791Y15569
X10820Y17679
X10000Y17116
X8507Y16829
Y16569
X8037Y16559
X7767Y16539
X7515Y16545
Y16299
X7259Y16289
Y16545
X7003
Y16280
X6737Y16289
X6481
Y16024
X6757
X6718Y15630
X6977Y15289
X6747Y15000
X6517Y15009
X6900Y14518
X7385Y14789
X7747Y14989
X8027Y15009
Y15532
X8287Y15279
X8570Y14999
X8580Y14489
X8283Y14449
X7468Y14259
X7505Y15276
Y15581
X7507Y15772
X7259Y15768
Y15532
Y16024
X7515
X7767Y16029
X7737Y17019
X7367Y17009
X6847Y16989
X6987Y17549
X6568Y17709
X6841Y18396
X6969Y18494
X8037Y17559
X8537Y17579
X7464Y11240
X7474Y10357
X7860Y10359
X7320Y9879
X6653Y10166
X6783Y9382
Y8949
Y8516
X7320Y8019
X7165Y7597
X7530Y7389
X6350Y8516
Y8949
Y9382
X5917
Y8949
Y8516
X5410Y7979
X3840Y8069
Y8659
Y9249
Y9839
X4150Y10409
X5420Y9879
X4757Y13389
Y13789
Y13989
Y14389
X4877Y15189
X4477
X4277
X3877
Y15589
Y15789
Y16189
X3727Y16249
Y16649
Y16849
Y17249
X4537Y17219
X4822Y16934
X4964Y16792
X5247Y16509
X5991Y16787
X6235Y16789
X5927Y17019
X5977Y17569
X5807Y17829
X5998Y17979
X6228Y17869
X5608Y18409
X5990Y15809
X2756Y15305
X2707Y14498
X955Y14492
X960Y14759
Y14961
Y15229
Y15439
Y15689
Y15909
Y16179
Y16379
X970Y16659
Y16859
X965Y17140
X651Y16859
Y16659
Y16379
Y16179
Y15909
Y15689
Y15439
Y15229
Y14959
Y14759
X738Y14183
X1680Y15569
X2140Y16359
X8499Y26357
X9041Y26329
X9301
X9248Y27111
Y27544
Y27977
Y28410
Y28843
X8815
Y28410
Y27977
Y27544
Y27111
X9681
Y27544
Y27977
Y28410
Y28843
X10114
X10547
Y28410
X10114
Y27977
X10547
Y27544
X10114
Y27111
X10547
X11281Y27177
X11321Y26919
X10251Y26129
X9991Y26177
X8001Y27957
X7982Y28219
X8600Y29609
X9091Y29607
X10761Y29587
X28711Y29609
X29202Y29607
X29359Y28843
X28926
Y28410
X29359
X29792
Y28843
X30226
X30659
Y28410
X30226
Y27977
X29792
X29359
X28926
Y27544
X29359
X29792
X30226
X30659
Y27977
Y27111
X30226
X29792
X29359
X28926
X29152Y26329
X29412
X28610Y26357
X30102Y26177
X30362Y26129
X31432Y26919
X31392Y27177
X30872Y29587
X28094Y28219
X28112Y27957
X48224
X48205Y28219
X49038Y28410
Y28843
X49471
X49904
X50337
X50770
Y28410
X50337
X49904
X49471
Y27977
X49038
Y27544
X49471
X49904
Y27977
X50337
X50770
Y27544
X50337
Y27111
X49904
X49471
X49038
X49264Y26329
X49524
X48721Y26357
X50214Y26177
X50474Y26129
X50770Y27111
X51504Y27177
X51544Y26919
X50984Y29587
X49314Y29607
X48823Y29609
T02
X660Y3070
X600Y4939
X300Y5839
Y6139
X4210Y5380
X3900Y2839
X5100
X5400Y3139
X2700Y2839
X8700Y3139
X9900Y2839
X11100
X12000Y3139
X12090Y4740
X13860Y6150
X15000Y2839
X16200
X17400
X18990Y3160
X20771Y3070
X20711Y4939
X20411Y5839
Y6139
X19200Y5239
X8140Y5689
X8060Y6020
X7610Y5909
X7750Y5450
X24321Y5380
X24011Y2839
X25211
X25511Y3139
X22811Y2839
X28811Y3139
X30011Y2839
X31211
X32111Y3139
X32201Y4740
X33971Y6150
X35111Y2839
X36311
X37511
X28251Y5689
X28171Y6020
X27721Y5909
X27861Y5450
X39311Y5239
X40523Y5839
Y6139
X40823Y4939
X40883Y3070
X39101Y3160
X42923Y2839
X44123
X45323
X45623Y3139
X48923
X50123Y2839
X51323
X52223Y3139
X52313Y4740
X48363Y5689
X48283Y6020
X47833Y5909
X47973Y5450
X44433Y5380
X54083Y6150
X55223Y2839
X56423
X57623
X59213Y3160
X59423Y5239
Y6439
Y7639
Y8839
X58723Y8390
X57323Y8269
X57474Y11339
X59423Y11239
Y12439
X58563Y12340
X59423Y13639
Y14839
Y16039
Y17239
Y18439
Y19639
Y20839
Y21439
X56823Y21220
X56003Y21549
X57874Y15966
X57993Y14060
X53953Y13760
X53863Y9829
X54849Y9841
X53803Y6479
X59423Y10039
X51543Y10200
X51573Y9529
X51563Y9229
X51303Y9130
X49243Y7820
X48093Y7380
X48163Y6670
X47723Y6859
X47083Y11290
X45054Y11299
X44773Y11150
X40923Y11439
Y10239
Y9039
Y7839
X39311Y7639
Y8839
X38611Y8390
X39311Y10039
Y11239
Y12439
X38451Y12340
X39311Y13639
Y14839
Y16039
Y17239
Y18439
Y19639
Y20839
Y21439
X40523
Y20239
Y19039
Y17839
X40923Y13839
X37881Y14060
X37762Y15966
X45293Y18010
X46743Y20060
X47134Y20109
X46444Y20879
Y21369
X46353Y21630
X46484Y21879
X49484
X49783Y21890
X49484Y21378
X49470Y20778
X49693Y20560
X48753Y20069
X50889Y19549
X51120Y19099
X51700Y19169
X50473Y19007
X50390Y17008
X51573Y17670
X52033Y14420
X52763Y12660
X39311Y6439
X37211Y8269
X37362Y11339
X34738Y9841
X33751Y9829
X31461Y9529
X31451Y9229
X31191Y9130
X31431Y10200
X32651Y12660
X33841Y13760
X31921Y14420
X31461Y17670
X31589Y19169
X31009Y19099
X30778Y19549
X30361Y19007
X30279Y17008
X29581Y20560
X29359Y20778
X29372Y21378
Y21879
X29671Y21890
X28641Y20069
X27022Y20109
X26631Y20060
X26332Y20879
Y21369
X26241Y21630
X26372Y21879
X25181Y18010
X24943Y11299
X24661Y11150
X26971Y11290
X27981Y7380
X28051Y6670
X27611Y6859
X29131Y7820
X33691Y6479
X35891Y21549
X36711Y21220
X20411Y21439
Y20239
Y19039
Y17839
X19200Y18439
Y19639
Y20839
Y21439
X16600Y21220
X15780Y21549
X9560Y21890
X9261Y21879
Y21378
X9247Y20778
X9470Y20560
X8530Y20069
X6911Y20109
X6520Y20060
X10667Y19549
X10898Y19099
X11478Y19169
X10250Y19007
X10167Y17008
X11350Y17670
X11810Y14420
X12540Y12660
X13730Y13760
X13640Y9829
X14626Y9841
X11350Y9529
X11340Y9229
X11080Y9130
X11320Y10200
X9020Y7820
X7870Y7380
X7940Y6670
X7500Y6859
X6860Y11290
X17251Y11339
X19200Y11239
Y12439
X18340Y12340
X19200Y13639
Y14839
Y16039
Y17239
X17651Y15966
X17770Y14060
X20811Y13839
Y11439
Y10239
Y9039
Y7839
X19200Y7639
Y8839
X18500Y8390
X17100Y8269
X19200Y10039
Y6439
X13580Y6479
X4831Y11299
X4550Y11150
X700Y11439
Y10239
Y9039
Y7839
Y13839
X300Y17839
Y19039
Y20239
Y21439
X6221Y21369
X6130Y21630
X6261Y21879
X6221Y20879
X5070Y18010
X6251Y22389
X6250Y22720
X5390Y23370
X6020Y24090
X5391Y26429
X5640Y27409
X5091Y27519
X4561Y27509
X3880Y28110
X3032Y27537
X2761Y27539
X2320Y27350
X2051Y27080
X1610Y26630
X1261Y26879
X300Y27439
Y28639
X720Y30410
X3000Y30980
X4200
X5400
X3921Y26102
X2540Y25880
X400Y25439
Y24539
X300Y22639
X720Y22150
X1031Y22160
X2040Y23450
X6850Y24970
X8274Y26569
X7430Y27910
X8031Y28809
X8200Y30030
X8847Y29716
X9000Y30980
X10200
X11400
X12600
X13800
X15000
X16200
X17400
X18600
X19200Y30680
Y29839
Y28639
Y27439
Y26239
Y25039
Y23839
Y22639
X20411
X20831Y22150
X21142Y22160
X20511Y24539
Y25439
X20411Y27439
Y28639
X20831Y30410
X21372Y26879
X21721Y26630
X16020Y26859
X15590Y26850
X15410Y27930
X14050Y29120
X12411Y28349
X12061Y28329
X13020Y26880
X12330Y26010
X11580Y23870
X11880Y22300
X12790Y22790
X13850Y22810
X14720Y23590
X15510Y24279
X15700Y25480
X10468Y29638
X7041Y29839
X6600Y30980
X7800
X23111
X24311
X25511
X26711
X27911
X29111
X30311
X31511
X32711
X33911
X35111
X36311
X37511
X35521Y27930
X35701Y26850
X36131Y26859
X35811Y25480
X35621Y24279
X34831Y23590
X33961Y22810
X32901Y22790
X31991Y22300
X31691Y23870
X32441Y26010
X33131Y26880
X32522Y28349
X32172Y28329
X34161Y29120
X30580Y29638
X28958Y29716
X28311Y30030
X27152Y29839
X28142Y28809
X27541Y27910
X28385Y26569
X25502Y26429
X25751Y27409
X25202Y27519
X24672Y27509
X23991Y28110
X23144Y27537
X22872Y27539
X22431Y27350
X22162Y27080
X22651Y25880
X24032Y26102
X26961Y24970
X26131Y24090
X25501Y23370
X26361Y22720
X26362Y22389
X22151Y23450
X39311Y23839
Y25039
Y26239
Y27439
Y28639
Y29839
Y30680
X38711Y30980
X40943Y30410
X40523Y28639
Y27439
X41484Y26879
X41833Y26630
X42274Y27080
X42543Y27350
X42984Y27539
X43255Y27537
X44103Y28110
X44784Y27509
X45314Y27519
X45863Y27409
X45614Y26429
X44144Y26102
X42763Y25880
X40623Y25439
Y24539
X40523Y22639
X40943Y22150
X41254Y22160
X42263Y23450
X45613Y23370
X46243Y24090
X46473Y22720
X46474Y22389
X47073Y24970
X48496Y26569
X47653Y27910
X48254Y28809
X48423Y30030
X49069Y29716
X49223Y30980
X50423
X51623
X52823
X52634Y28349
X52284Y28329
X52553Y26010
X51803Y23870
X52103Y22300
X53013Y22790
X50691Y29638
X47264Y29839
X46823Y30980
X48023
X45623
X44423
X43223
X39311Y22639
X54073Y22810
X54943Y23590
X55733Y24279
X55923Y25480
X55813Y26850
X56243Y26859
X55633Y27930
X54273Y29120
X54023Y30980
X55223
X56423
X57623
X58823
X59423Y30680
Y29839
Y28639
Y27439
Y26239
Y25039
Y23839
Y22639
X53243Y26880
T03
X53747Y18069
X54247
Y18569
X54747
Y18069
Y19069
X54247
X53747
Y18569
Y19569
X54247
X54747
X34636
Y19069
Y18569
X34136
Y18069
X34636
X33636
Y18569
Y19069
X34136
Y19569
X33636
X14525
Y19069
Y18569
X14025
Y18069
X14525
X13525
Y18569
Y19069
X14025
Y19569
X13525
T04
X3780Y5439
X11821Y5949
X23891Y5439
X31932Y5949
X44003Y5439
X52044Y5949
X53533Y9839
X55883Y9689
X56473
X58834Y11949
X53364Y13229
X54050Y15977
X52320Y16836
X52640Y18589
X52320Y19909
X52019Y20119
X50480Y19749
X49430Y18729
X48959Y18459
X48569Y18469
X48240
X48560Y19119
X50064Y21729
X41584Y21807
X41752Y13248
X42053Y13209
X42388Y13199
X42762Y13199
X42103Y10909
X41553
X38722Y11949
X45353Y12299
X45648Y12434
X46273Y13759
X46603Y14159
X47963Y14049
X47793Y13499
X47388Y13297
X47231Y13081
X52994Y13389
X52964Y12369
X52724Y11679
X52343Y8389
X45761Y6846
X44733Y7559
X36361Y9689
X35771
X33421Y9839
X32231Y8389
X32612Y11679
X32852Y12369
X32882Y13389
X33252Y13229
X33938Y15977
X32209Y16836
X32529Y18589
X32209Y19909
X31908Y20119
X30369Y19749
X29319Y18729
X28848Y18459
X28458Y18469
X28129
X28449Y19119
X29952Y21729
X27851Y14049
X27681Y13499
X27277Y13297
X27119Y13081
X26161Y13759
X26491Y14159
X25536Y12434
X25241Y12299
X22651Y13199
X22277Y13199
X21991Y10909
X24621Y7559
X25649Y6846
X21441Y10909
X21641Y13248
X21942Y13209
X18611Y11949
X16250Y9689
X15660
X13310Y9839
X12120Y8389
X12501Y11679
X12741Y12369
X12771Y13389
X13141Y13229
X13827Y15977
X12098Y16836
X12418Y18589
X12098Y19909
X11797Y20119
X10258Y19749
X9208Y18729
X8737Y18459
X8347Y18469
X8018
X8338Y19119
X9841Y21729
X7740Y14049
X7570Y13499
X7165Y13297
X7008Y13081
X6380Y14159
X21472Y21807
X1361
X1530Y13248
X1831Y13209
X2165Y13199
X2539Y13199
X1880Y10909
X1330
X5130Y12299
X5425Y12434
X6050Y13759
X5538Y6846
X4510Y7559
X5671Y23609
X3921Y27799
X4161Y28189
X6041Y29209
X7671Y27669
X9231Y30079
X11571Y29839
X11561Y29519
X11861Y29019
X11331Y28769
X12561Y29569
X12520Y29909
X12751Y27069
X12531Y26679
X12121Y26669
X12091Y26989
X11261Y26589
X12261Y25419
X12151Y23809
X11891Y24009
Y22829
X13041Y23307
X13521Y23049
X13599Y23629
X15910Y24989
X16411Y27689
X15100Y27999
X7671Y23409
X7739Y23051
X25782Y23609
X27782Y23409
X27851Y23051
X32002Y22829
Y24009
X32262Y23809
X33152Y23307
X33632Y23049
X33710Y23629
X32372Y25419
X32232Y26669
X32202Y26989
X32862Y27069
X32642Y26679
X31372Y26589
X31442Y28769
X31972Y29019
X31672Y29519
X31682Y29839
X32631Y29909
X32672Y29569
X29342Y30079
X27782Y27669
X26152Y29209
X24272Y28189
X24032Y27799
X35211Y27999
X36522Y27689
X36021Y24989
X44144Y27799
X44384Y28189
X46264Y29209
X47894Y27669
X49454Y30079
X51794Y29839
X51784Y29519
X52084Y29019
X51554Y28769
X52784Y29569
X52743Y29909
X52974Y27069
X52754Y26679
X52344Y26669
X52314Y26989
X51484Y26589
X52484Y25419
X52374Y23809
X52114Y24009
Y22829
X47962Y23051
X47894Y23409
X45894Y23609
X53264Y23307
X53744Y23049
X53821Y23629
X56133Y24989
X56634Y27689
X55323Y27999
T05
X1940Y3294
Y5105
X2846Y4199
X1034
X5850Y6149
X6300Y6349
X6650Y3839
X6679Y3179
X7446Y3179
X9030Y3167
X9847Y3423
X13135Y3169
X13913Y3169
X13940Y4439
X13519Y4114
X12270Y5409
X12140Y5769
X15477Y3162
X16258Y3405
X16966Y4269
X17871Y3364
Y5175
X18777Y4269
X21146Y4199
X22051Y3294
Y5105
X22957Y4199
X26761Y3839
X26790Y3179
X27557Y3179
X29141Y3167
X29958Y3423
X33246Y3169
X34024Y3169
X34051Y4439
X33631Y4114
X32381Y5409
X32251Y5769
X35588Y3162
X36369Y3405
X37077Y4269
X26411Y6349
X25961Y6149
X37982Y5175
Y3364
X38888Y4269
X41257Y4199
X42163Y3294
Y5105
X43068Y4199
X46873Y3839
X46901Y3179
X47669Y3179
X49253Y3167
X50070Y3423
X52493Y5409
X52363Y5769
X46523Y6349
X46073Y6149
X53742Y4114
X54163Y4439
X54136Y3169
X53358Y3169
X55700Y3162
X56481Y3405
X57188Y4269
X58094Y3364
Y5175
X58999Y4269
X58363Y9099
X58463Y10419
X57453Y9799
X53243Y9219
X53275Y6862
X53966Y7028
X55963Y13769
X56153Y18069
X56157Y18706
X56243Y21149
X58094Y21254
X42676Y19697
X37982Y21254
X38351Y10419
X38251Y9099
X43003Y11019
X46053Y11299
X46474Y11316
X47313Y10960
X45053Y12609
X45390Y7253
X51623Y7599
X52306Y7618
X52653Y8877
X37341Y9799
X33131Y9219
X32541Y8877
X32195Y7618
X31511Y7599
X33164Y6862
X33855Y7028
X35851Y13769
X36041Y18069
X36046Y18706
X36131Y21149
X22564Y19697
X22891Y11019
X25941Y11299
X26363Y11316
X27201Y10960
X24941Y12609
X25279Y7253
X18140Y9099
X18240Y10419
X17230Y9799
X13020Y9219
X12430Y8877
X12084Y7618
X11400Y7599
X13052Y6862
X13744Y7028
X15740Y13769
X15930Y18069
X15935Y18706
X16020Y21149
X17871Y21254
X7090Y10960
X6251Y11316
X5830Y11299
X4830Y12609
X2780Y11019
X5167Y7253
X2453Y19697
X3813Y22137
X3800Y23159
X3956Y23989
X5630Y24109
Y25979
X5488Y28239
X6300Y29719
X5870Y30276
X4471Y30289
X3066Y29509
X2160Y28604
Y30415
X1254Y29509
X2270Y25637
X2380Y25057
X3160
X2240Y24407
X8739Y24572
Y25589
X10738Y25738
X10761Y24277
X9430Y23881
X8509Y22785
X7416Y22776
X7670Y30430
X6721Y30049
X13645Y29409
X13770Y28909
X14040Y28574
X14350Y28879
X13546Y28216
X21366Y29509
X17871Y23065
X18777Y22159
X16966
X23924Y22137
X23911Y23159
X24067Y23989
X25741Y24109
Y25979
X25599Y28239
X26411Y29719
X26832Y30049
X25982Y30276
X24582Y30289
X23177Y29509
X22271Y28604
Y30415
X22381Y25637
X22491Y25057
X23271
X22351Y24407
X28851Y24572
Y25589
X30850Y25738
X30872Y24277
X29542Y23881
X28620Y22785
X27528Y22776
X27781Y30430
X33756Y29409
X33881Y28909
X34151Y28574
X34461Y28879
X33657Y28216
X37077Y22159
X37982Y23065
X38888Y22159
X44036Y22137
X44023Y23159
X44178Y23989
X45853Y24109
Y25979
X45710Y28239
X46523Y29719
X46944Y30049
X46093Y30276
X44694Y30289
X43288Y29509
X42383Y28604
Y30415
X41477Y29509
X42493Y25637
X42603Y25057
X43383
X42463Y24407
X48962Y24572
Y25589
X50961Y25738
X50984Y24277
X49653Y23881
X48732Y22785
X47639Y22776
X47893Y30430
X53868Y29409
X53993Y28909
X54263Y28574
X54573Y28879
X53769Y28216
X58094Y23065
X58999Y22159
X57188
T07
X56411Y12927
X56129Y14211
X56434Y15549
X56394Y16022
X36283
X36322Y15549
X36017Y14211
X36300Y12927
X16188
X15906Y14211
X16211Y15549
X16172Y16022
T09
X55549Y7931
X57603Y7789
X37491
X35438Y7931
X17380Y7789
X15326Y7931
T10
X7061Y2813
Y3522
X13521Y3512
Y2803
X27172Y2813
Y3522
X33632Y3512
Y2803
X47284Y2813
Y3522
X53744Y3512
Y2803
T11
X13926Y5029
X14633Y5736
Y4322
X15340Y5029
X34037
X34744Y5736
Y4322
X35451Y5029
X54148
X54856Y5736
Y4322
X55563Y5029
T12
X53744Y20979
X54744
X52744
X34632
X33632
X32632
X14521
X13521
X12521
Y21979
X13521
X14521
X32632
X33632
X34632
X52744
X53744
X54744
T13
X41223Y6649
X43172Y6885
Y12594
X41223Y12830
X23060Y12594
Y6885
X21111Y6649
Y12830
X2949Y12594
X1000Y12830
Y6649
X2949Y6885
T14
X1329Y1329
X58505Y1358
X1329Y32439
X58434Y32550
T15
X1940Y4199
X17871Y4269
X22051Y4199
X37982Y4269
X42163Y4199
X58094Y4269
X2160Y29509
X17871Y22159
X22271Y29509
X42383
X37982Y22159
X58094
M30
