G04 Layer_Physical_Order=1*
G04 Layer_Color=255*
%FSLAX24Y24*%
%MOIN*%
G70*
G01*
G75*
%ADD10C,0.0450*%
G04:AMPARAMS|DCode=11|XSize=22mil|YSize=24mil|CornerRadius=4.4mil|HoleSize=0mil|Usage=FLASHONLY|Rotation=270.000|XOffset=0mil|YOffset=0mil|HoleType=Round|Shape=RoundedRectangle|*
%AMROUNDEDRECTD11*
21,1,0.0220,0.0152,0,0,270.0*
21,1,0.0132,0.0240,0,0,270.0*
1,1,0.0088,-0.0076,-0.0066*
1,1,0.0088,-0.0076,0.0066*
1,1,0.0088,0.0076,0.0066*
1,1,0.0088,0.0076,-0.0066*
%
%ADD11ROUNDEDRECTD11*%
G04:AMPARAMS|DCode=12|XSize=29.1mil|YSize=39.4mil|CornerRadius=5.8mil|HoleSize=0mil|Usage=FLASHONLY|Rotation=180.000|XOffset=0mil|YOffset=0mil|HoleType=Round|Shape=RoundedRectangle|*
%AMROUNDEDRECTD12*
21,1,0.0291,0.0277,0,0,180.0*
21,1,0.0175,0.0394,0,0,180.0*
1,1,0.0117,-0.0087,0.0139*
1,1,0.0117,0.0087,0.0139*
1,1,0.0117,0.0087,-0.0139*
1,1,0.0117,-0.0087,-0.0139*
%
%ADD12ROUNDEDRECTD12*%
G04:AMPARAMS|DCode=13|XSize=29.1mil|YSize=39.4mil|CornerRadius=5.8mil|HoleSize=0mil|Usage=FLASHONLY|Rotation=90.000|XOffset=0mil|YOffset=0mil|HoleType=Round|Shape=RoundedRectangle|*
%AMROUNDEDRECTD13*
21,1,0.0291,0.0277,0,0,90.0*
21,1,0.0175,0.0394,0,0,90.0*
1,1,0.0117,0.0139,0.0087*
1,1,0.0117,0.0139,-0.0087*
1,1,0.0117,-0.0139,-0.0087*
1,1,0.0117,-0.0139,0.0087*
%
%ADD13ROUNDEDRECTD13*%
G04:AMPARAMS|DCode=14|XSize=22mil|YSize=24mil|CornerRadius=4.4mil|HoleSize=0mil|Usage=FLASHONLY|Rotation=0.000|XOffset=0mil|YOffset=0mil|HoleType=Round|Shape=RoundedRectangle|*
%AMROUNDEDRECTD14*
21,1,0.0220,0.0152,0,0,0.0*
21,1,0.0132,0.0240,0,0,0.0*
1,1,0.0088,0.0066,-0.0076*
1,1,0.0088,-0.0066,-0.0076*
1,1,0.0088,-0.0066,0.0076*
1,1,0.0088,0.0066,0.0076*
%
%ADD14ROUNDEDRECTD14*%
G04:AMPARAMS|DCode=15|XSize=40mil|YSize=40mil|CornerRadius=20mil|HoleSize=0mil|Usage=FLASHONLY|Rotation=90.000|XOffset=0mil|YOffset=0mil|HoleType=Round|Shape=RoundedRectangle|*
%AMROUNDEDRECTD15*
21,1,0.0400,0.0000,0,0,90.0*
21,1,0.0000,0.0400,0,0,90.0*
1,1,0.0400,0.0000,0.0000*
1,1,0.0400,0.0000,0.0000*
1,1,0.0400,0.0000,0.0000*
1,1,0.0400,0.0000,0.0000*
%
%ADD15ROUNDEDRECTD15*%
%ADD16O,0.0335X0.0098*%
%ADD17O,0.0098X0.0335*%
%ADD18R,0.2087X0.2087*%
%ADD19R,0.0335X0.0217*%
%ADD20O,0.0453X0.0098*%
%ADD21R,0.0610X0.1063*%
%ADD22R,0.0748X0.0118*%
G04:AMPARAMS|DCode=23|XSize=52mil|YSize=60mil|CornerRadius=13mil|HoleSize=0mil|Usage=FLASHONLY|Rotation=90.000|XOffset=0mil|YOffset=0mil|HoleType=Round|Shape=RoundedRectangle|*
%AMROUNDEDRECTD23*
21,1,0.0520,0.0340,0,0,90.0*
21,1,0.0260,0.0600,0,0,90.0*
1,1,0.0260,0.0170,0.0130*
1,1,0.0260,0.0170,-0.0130*
1,1,0.0260,-0.0170,-0.0130*
1,1,0.0260,-0.0170,0.0130*
%
%ADD23ROUNDEDRECTD23*%
%ADD24R,0.0280X0.0200*%
%ADD25R,0.0146X0.0197*%
%ADD26R,0.0138X0.0110*%
%ADD27O,0.0650X0.0295*%
%ADD28R,0.1260X0.1929*%
%ADD29C,0.0098*%
%ADD30R,0.0354X0.0157*%
%ADD31R,0.0128X0.0106*%
%ADD32R,0.0520X0.0420*%
%ADD33R,0.0532X0.0157*%
%ADD34R,0.0610X0.0591*%
G04:AMPARAMS|DCode=35|XSize=50mil|YSize=50mil|CornerRadius=25mil|HoleSize=0mil|Usage=FLASHONLY|Rotation=270.000|XOffset=0mil|YOffset=0mil|HoleType=Round|Shape=RoundedRectangle|*
%AMROUNDEDRECTD35*
21,1,0.0500,0.0000,0,0,270.0*
21,1,0.0000,0.0500,0,0,270.0*
1,1,0.0500,0.0000,0.0000*
1,1,0.0500,0.0000,0.0000*
1,1,0.0500,0.0000,0.0000*
1,1,0.0500,0.0000,0.0000*
%
%ADD35ROUNDEDRECTD35*%
%ADD36R,0.1417X0.1417*%
%ADD37O,0.0098X0.0295*%
%ADD38O,0.0295X0.0098*%
%ADD39C,0.0394*%
%ADD40R,0.0591X0.0669*%
%ADD41R,0.1102X0.0295*%
%ADD42R,0.0118X0.0157*%
G04:AMPARAMS|DCode=43|XSize=50mil|YSize=50mil|CornerRadius=25mil|HoleSize=0mil|Usage=FLASHONLY|Rotation=180.000|XOffset=0mil|YOffset=0mil|HoleType=Round|Shape=RoundedRectangle|*
%AMROUNDEDRECTD43*
21,1,0.0500,0.0000,0,0,180.0*
21,1,0.0000,0.0500,0,0,180.0*
1,1,0.0500,0.0000,0.0000*
1,1,0.0500,0.0000,0.0000*
1,1,0.0500,0.0000,0.0000*
1,1,0.0500,0.0000,0.0000*
%
%ADD43ROUNDEDRECTD43*%
%ADD44C,0.0080*%
%ADD45C,0.0120*%
%ADD46C,0.0240*%
%ADD47C,0.0400*%
%ADD48C,0.0050*%
%ADD49C,0.0100*%
%ADD50C,0.0060*%
%ADD51C,0.0300*%
%ADD52C,0.0081*%
%ADD53C,0.0070*%
%ADD54C,0.0040*%
%ADD55C,0.0160*%
%ADD56C,0.0140*%
%ADD57C,0.0200*%
%ADD58C,0.0700*%
%ADD59C,0.0360*%
%ADD60C,0.0480*%
%ADD61C,0.0260*%
%ADD62C,0.0700*%
G04:AMPARAMS|DCode=63|XSize=49.2mil|YSize=36.6mil|CornerRadius=14.6mil|HoleSize=0mil|Usage=FLASHONLY|Rotation=270.000|XOffset=0mil|YOffset=0mil|HoleType=Round|Shape=RoundedRectangle|*
%AMROUNDEDRECTD63*
21,1,0.0492,0.0073,0,0,270.0*
21,1,0.0199,0.0366,0,0,270.0*
1,1,0.0293,-0.0037,-0.0100*
1,1,0.0293,-0.0037,0.0100*
1,1,0.0293,0.0037,0.0100*
1,1,0.0293,0.0037,-0.0100*
%
%ADD63ROUNDEDRECTD63*%
G04:AMPARAMS|DCode=64|XSize=61mil|YSize=35mil|CornerRadius=14mil|HoleSize=0mil|Usage=FLASHONLY|Rotation=0.000|XOffset=0mil|YOffset=0mil|HoleType=Round|Shape=RoundedRectangle|*
%AMROUNDEDRECTD64*
21,1,0.0610,0.0070,0,0,0.0*
21,1,0.0330,0.0350,0,0,0.0*
1,1,0.0280,0.0165,-0.0035*
1,1,0.0280,-0.0165,-0.0035*
1,1,0.0280,-0.0165,0.0035*
1,1,0.0280,0.0165,0.0035*
%
%ADD64ROUNDEDRECTD64*%
%ADD65P,0.0671X8X202.5*%
%ADD66C,0.0197*%
%ADD67C,0.0260*%
%ADD68C,0.0290*%
%ADD69C,0.0240*%
%ADD70C,0.0200*%
%ADD71C,0.0180*%
%ADD72C,0.0300*%
%ADD73C,0.0160*%
%ADD74C,0.0250*%
%ADD75C,0.0400*%
%ADD76C,0.0270*%
%ADD77C,0.0320*%
%ADD78C,0.0360*%
G36*
X7844Y12520D02*
X7874Y12490D01*
X7874Y12362D01*
X7963Y12274D01*
X8228D01*
X8287Y12215D01*
Y12087D01*
X8246Y12045D01*
X8228Y12041D01*
X8182Y12010D01*
X8151Y11964D01*
X8140Y11909D01*
X8150Y11860D01*
Y11732D01*
X8100Y11683D01*
X7904D01*
X7795Y11791D01*
X7717D01*
X7697Y11811D01*
Y12484D01*
X7732Y12520D01*
X7844Y12520D01*
D02*
G37*
G36*
X3386Y10296D02*
X3336Y10289D01*
X3270Y10375D01*
X3176Y10447D01*
X3066Y10493D01*
X2999Y10502D01*
Y10054D01*
Y9607D01*
X3066Y9616D01*
X3176Y9661D01*
X3270Y9733D01*
X3336Y9819D01*
X3386Y9813D01*
Y9180D01*
X2661D01*
Y8653D01*
X2629Y8631D01*
X2582Y8561D01*
X2566Y8480D01*
X2582Y8398D01*
X2629Y8328D01*
X2661Y8306D01*
Y4980D01*
X3386D01*
Y4587D01*
X3336Y4581D01*
X3270Y4667D01*
X3176Y4739D01*
X3066Y4784D01*
X2999Y4793D01*
Y4346D01*
Y3898D01*
X3066Y3907D01*
X3176Y3953D01*
X3270Y4025D01*
X3336Y4111D01*
X3386Y4104D01*
Y3828D01*
X1408D01*
X1385Y3872D01*
X1393Y3883D01*
X1438Y3992D01*
X1447Y4059D01*
X1000D01*
Y4109D01*
X950D01*
Y4557D01*
X883Y4548D01*
X773Y4503D01*
X679Y4430D01*
X607Y4336D01*
X577Y4263D01*
X527Y4273D01*
Y10127D01*
X577Y10137D01*
X607Y10064D01*
X679Y9970D01*
X773Y9897D01*
X883Y9852D01*
X950Y9843D01*
Y10291D01*
X1000D01*
Y10341D01*
X1447D01*
X1438Y10408D01*
X1393Y10517D01*
X1384Y10530D01*
X1418Y10567D01*
X1460Y10539D01*
X1530Y10525D01*
X1600Y10539D01*
X1660Y10579D01*
X1675D01*
X1701Y10540D01*
X1760Y10500D01*
X1831Y10486D01*
X1901Y10500D01*
X1960Y10540D01*
X1965Y10546D01*
X2025D01*
X2036Y10530D01*
X2095Y10490D01*
X2165Y10476D01*
X2236Y10490D01*
X2295Y10530D01*
X2324Y10574D01*
X2329Y10575D01*
X2377Y10575D01*
X2380Y10574D01*
X2410Y10530D01*
X2469Y10490D01*
X2539Y10476D01*
X2610Y10490D01*
X2669Y10530D01*
X2709Y10589D01*
X2719Y10639D01*
X3386D01*
Y10296D01*
D02*
G37*
G36*
X1750Y14420D02*
Y12590D01*
Y12520D01*
Y11887D01*
X1430D01*
Y12060D01*
Y12120D01*
X1480D01*
Y12520D01*
X1410D01*
Y12590D01*
X1480D01*
Y13000D01*
X1410D01*
Y13060D01*
X1480D01*
Y13470D01*
X1410D01*
Y13540D01*
X1480D01*
Y13940D01*
X1410D01*
Y14010D01*
X1480D01*
Y14420D01*
X1396D01*
Y14500D01*
X1430D01*
Y14680D01*
X1360D01*
Y14750D01*
X1750D01*
Y14420D01*
D02*
G37*
G36*
X1792Y23028D02*
X1347D01*
Y22792D01*
X1327D01*
Y22475D01*
Y22219D01*
X1347D01*
Y21727D01*
X1792D01*
Y20802D01*
X287D01*
X286Y23918D01*
X321Y23953D01*
X1792D01*
Y23028D01*
D02*
G37*
G36*
X8622Y12490D02*
Y12441D01*
X8435Y12254D01*
X8415D01*
X8287Y12382D01*
Y12382D01*
Y12441D01*
X8297Y12451D01*
X8415D01*
X8504Y12539D01*
X8524Y12559D01*
X8553D01*
X8622Y12490D01*
D02*
G37*
%LPC*%
G36*
X2899Y4793D02*
X2831Y4784D01*
X2722Y4739D01*
X2628Y4667D01*
X2556Y4573D01*
X2510Y4463D01*
X2502Y4396D01*
X2899D01*
Y4793D01*
D02*
G37*
G36*
X1330Y8554D02*
X1260Y8540D01*
X1200Y8500D01*
X1160Y8440D01*
X1146Y8370D01*
X1160Y8300D01*
X1200Y8240D01*
X1260Y8200D01*
X1330Y8186D01*
X1400Y8200D01*
X1460Y8240D01*
X1500Y8300D01*
X1514Y8370D01*
X1500Y8440D01*
X1460Y8500D01*
X1400Y8540D01*
X1330Y8554D01*
D02*
G37*
G36*
X2899Y4296D02*
X2502D01*
X2510Y4228D01*
X2556Y4119D01*
X2628Y4025D01*
X2722Y3953D01*
X2831Y3907D01*
X2899Y3898D01*
Y4296D01*
D02*
G37*
G36*
X1050Y4557D02*
Y4159D01*
X1447D01*
X1438Y4227D01*
X1393Y4336D01*
X1321Y4430D01*
X1227Y4503D01*
X1117Y4548D01*
X1050Y4557D01*
D02*
G37*
G36*
X1447Y10241D02*
X1050D01*
Y9843D01*
X1117Y9852D01*
X1227Y9897D01*
X1321Y9970D01*
X1393Y10064D01*
X1438Y10173D01*
X1447Y10241D01*
D02*
G37*
G36*
X2899Y10502D02*
X2831Y10493D01*
X2722Y10447D01*
X2628Y10375D01*
X2556Y10281D01*
X2510Y10172D01*
X2502Y10104D01*
X2899D01*
Y10502D01*
D02*
G37*
G36*
X1880Y8554D02*
X1810Y8540D01*
X1750Y8500D01*
X1710Y8440D01*
X1696Y8370D01*
X1710Y8300D01*
X1750Y8240D01*
X1810Y8200D01*
X1880Y8186D01*
X1950Y8200D01*
X2010Y8240D01*
X2050Y8300D01*
X2064Y8370D01*
X2050Y8440D01*
X2010Y8500D01*
X1950Y8540D01*
X1880Y8554D01*
D02*
G37*
G36*
X2899Y10004D02*
X2502D01*
X2510Y9937D01*
X2556Y9827D01*
X2628Y9733D01*
X2722Y9661D01*
X2831Y9616D01*
X2899Y9607D01*
Y10004D01*
D02*
G37*
%LPD*%
D10*
X18831Y19620D02*
G03*
X18831Y19620I-960J0D01*
G01*
X3120Y26970D02*
G03*
X3120Y26970I-960J0D01*
G01*
X18831Y1730D02*
G03*
X18831Y1730I-960J0D01*
G01*
X2900Y1660D02*
G03*
X2900Y1660I-960J0D01*
G01*
D11*
X2990Y12007D02*
D03*
Y11630D02*
D03*
X2510Y12123D02*
D03*
Y12500D02*
D03*
Y12883D02*
D03*
Y13260D02*
D03*
X2500Y14017D02*
D03*
Y13640D02*
D03*
X6240Y8090D02*
D03*
Y8467D02*
D03*
X6290Y4520D02*
D03*
Y4143D02*
D03*
X5850Y3930D02*
D03*
Y4307D02*
D03*
X6750Y8090D02*
D03*
Y8467D02*
D03*
X781Y20090D02*
D03*
Y20467D02*
D03*
X1211Y20091D02*
D03*
Y20470D02*
D03*
X2321Y24163D02*
D03*
Y24540D02*
D03*
X10796Y22200D02*
D03*
Y22577D02*
D03*
X4831Y8469D02*
D03*
Y8092D02*
D03*
X7870Y8460D02*
D03*
Y8081D02*
D03*
X7470Y8460D02*
D03*
Y8081D02*
D03*
X3803Y20327D02*
D03*
Y19950D02*
D03*
X3813Y18920D02*
D03*
Y19297D02*
D03*
X4393Y17630D02*
D03*
Y18007D02*
D03*
X7169Y11417D02*
D03*
Y11040D02*
D03*
X12471Y25130D02*
D03*
Y25509D02*
D03*
X12061Y25130D02*
D03*
Y25509D02*
D03*
X11441Y19399D02*
D03*
Y19020D02*
D03*
X4671Y26800D02*
D03*
Y26423D02*
D03*
D12*
X5649Y26680D02*
D03*
X5113D02*
D03*
X8669Y16580D02*
D03*
X9204D02*
D03*
X11486Y17010D02*
D03*
X10950D02*
D03*
X5129Y25408D02*
D03*
X4593D02*
D03*
X18239Y9420D02*
D03*
X17703D02*
D03*
X16091Y11230D02*
D03*
X16626D02*
D03*
X10950Y17580D02*
D03*
X11486D02*
D03*
X4490Y10068D02*
D03*
X3955D02*
D03*
X5274Y8178D02*
D03*
X5809D02*
D03*
X3569Y21450D02*
D03*
X3033D02*
D03*
X2763Y24066D02*
D03*
X3299D02*
D03*
Y24626D02*
D03*
X2763D02*
D03*
X17703Y8280D02*
D03*
X18239D02*
D03*
X16091Y11908D02*
D03*
X16626D02*
D03*
X14713Y11671D02*
D03*
X15249D02*
D03*
X16170Y14664D02*
D03*
X16705D02*
D03*
X5099Y24567D02*
D03*
X4563D02*
D03*
X17703Y8860D02*
D03*
X18239D02*
D03*
D13*
X14130Y5028D02*
D03*
Y4492D02*
D03*
X5461Y27212D02*
D03*
Y27748D02*
D03*
X13455Y12428D02*
D03*
Y11892D02*
D03*
X13151Y8832D02*
D03*
Y9368D02*
D03*
X15728Y17512D02*
D03*
Y18048D02*
D03*
X4891Y27212D02*
D03*
Y27748D02*
D03*
X13455Y13438D02*
D03*
Y12902D02*
D03*
X13151Y9832D02*
D03*
Y10368D02*
D03*
X16251Y6839D02*
D03*
Y6304D02*
D03*
X3323Y18960D02*
D03*
Y19495D02*
D03*
X14643Y9953D02*
D03*
Y10488D02*
D03*
X15935Y17028D02*
D03*
Y16492D02*
D03*
X12105Y16489D02*
D03*
Y17024D02*
D03*
X14666Y12963D02*
D03*
Y12427D02*
D03*
X17658Y12388D02*
D03*
Y12923D02*
D03*
X15666Y6839D02*
D03*
Y6304D02*
D03*
X13860Y6838D02*
D03*
Y6302D02*
D03*
X15081Y6839D02*
D03*
Y6304D02*
D03*
X14496D02*
D03*
Y6839D02*
D03*
X17410Y6458D02*
D03*
Y5922D02*
D03*
X15549Y8260D02*
D03*
Y8795D02*
D03*
X14919Y8260D02*
D03*
Y8795D02*
D03*
X14289Y8260D02*
D03*
Y8795D02*
D03*
X16811Y8262D02*
D03*
Y8798D02*
D03*
X13191Y24722D02*
D03*
Y25258D02*
D03*
X16836Y6304D02*
D03*
Y6839D02*
D03*
D14*
X13963Y7300D02*
D03*
X14340D02*
D03*
X12132Y26260D02*
D03*
X12511D02*
D03*
X12250Y27310D02*
D03*
X11871D02*
D03*
X11872Y26920D02*
D03*
X12251D02*
D03*
X16627Y14034D02*
D03*
X16249D02*
D03*
X17310Y13994D02*
D03*
X17689D02*
D03*
X7071Y25738D02*
D03*
X7450D02*
D03*
X7071Y26130D02*
D03*
X7450D02*
D03*
X10278Y21652D02*
D03*
X9901D02*
D03*
X9301Y23348D02*
D03*
X9680D02*
D03*
X5856Y4723D02*
D03*
X5479D02*
D03*
X6377Y10540D02*
D03*
X6754D02*
D03*
X6757Y11330D02*
D03*
X6380D02*
D03*
X4883Y17197D02*
D03*
X4504D02*
D03*
X4883Y16807D02*
D03*
X4504D02*
D03*
X6374Y10936D02*
D03*
X6753D02*
D03*
X4721Y24040D02*
D03*
X5098D02*
D03*
X1001Y24730D02*
D03*
X624D02*
D03*
X1001Y24340D02*
D03*
X624D02*
D03*
D15*
X18171Y28060D02*
D03*
X18791Y3370D02*
D03*
X710Y2880D02*
D03*
D16*
X8352Y26422D02*
D03*
Y26225D02*
D03*
Y26028D02*
D03*
Y25831D02*
D03*
Y25634D02*
D03*
Y25438D02*
D03*
Y25241D02*
D03*
Y25044D02*
D03*
Y24847D02*
D03*
Y24650D02*
D03*
Y24453D02*
D03*
X11010D02*
D03*
Y24650D02*
D03*
Y24847D02*
D03*
Y25044D02*
D03*
Y25241D02*
D03*
Y25438D02*
D03*
Y25634D02*
D03*
Y25831D02*
D03*
Y26028D02*
D03*
Y26225D02*
D03*
Y26422D02*
D03*
D17*
X8697Y24109D02*
D03*
X8894D02*
D03*
X9091D02*
D03*
X9287D02*
D03*
X9484D02*
D03*
X9681D02*
D03*
X9878D02*
D03*
X10075D02*
D03*
X10272D02*
D03*
X10468D02*
D03*
X10665D02*
D03*
Y26766D02*
D03*
X10468D02*
D03*
X10272D02*
D03*
X10075D02*
D03*
X9878D02*
D03*
X9681D02*
D03*
X9484D02*
D03*
X9287D02*
D03*
X9091D02*
D03*
X8894D02*
D03*
X8697D02*
D03*
D18*
X9681Y25438D02*
D03*
D19*
X16792Y4983D02*
D03*
Y5357D02*
D03*
Y5731D02*
D03*
X15748D02*
D03*
Y4983D02*
D03*
D20*
X17058Y12538D02*
D03*
Y12734D02*
D03*
Y12931D02*
D03*
Y13128D02*
D03*
Y13325D02*
D03*
X15345Y12538D02*
D03*
Y12734D02*
D03*
Y12931D02*
D03*
Y13128D02*
D03*
Y13325D02*
D03*
X15322Y10260D02*
D03*
Y10063D02*
D03*
Y9866D02*
D03*
Y9669D02*
D03*
Y9472D02*
D03*
X17035Y10260D02*
D03*
Y10063D02*
D03*
Y9866D02*
D03*
Y9669D02*
D03*
Y9472D02*
D03*
D21*
X15847Y3821D02*
D03*
X16693D02*
D03*
D22*
X3343Y5724D02*
D03*
Y5330D02*
D03*
Y5527D02*
D03*
Y5920D02*
D03*
Y6117D02*
D03*
Y6314D02*
D03*
Y6511D02*
D03*
Y6708D02*
D03*
Y6905D02*
D03*
Y7102D02*
D03*
Y7298D02*
D03*
Y7495D02*
D03*
Y7692D02*
D03*
Y7889D02*
D03*
Y8086D02*
D03*
Y8283D02*
D03*
Y8480D02*
D03*
Y8676D02*
D03*
Y8873D02*
D03*
D23*
X17871Y10043D02*
D03*
Y10797D02*
D03*
X14806Y4788D02*
D03*
Y5542D02*
D03*
X13856Y9453D02*
D03*
Y10207D02*
D03*
X17930Y4506D02*
D03*
Y5260D02*
D03*
X3921Y24760D02*
D03*
Y24006D02*
D03*
D24*
X17372Y3821D02*
D03*
X17924D02*
D03*
D25*
X1928Y14724D02*
D03*
X1247Y11654D02*
D03*
Y14724D02*
D03*
X1928Y11654D02*
D03*
D26*
X1948Y14449D02*
D03*
Y14291D02*
D03*
Y14134D02*
D03*
Y13976D02*
D03*
Y13819D02*
D03*
Y13661D02*
D03*
Y13504D02*
D03*
Y13346D02*
D03*
Y13189D02*
D03*
Y13032D02*
D03*
Y12874D02*
D03*
Y12717D02*
D03*
Y12559D02*
D03*
Y12402D02*
D03*
Y12244D02*
D03*
Y12087D02*
D03*
Y11929D02*
D03*
X1227D02*
D03*
Y14449D02*
D03*
Y14291D02*
D03*
Y14134D02*
D03*
Y13976D02*
D03*
Y13819D02*
D03*
Y13661D02*
D03*
Y13504D02*
D03*
Y13346D02*
D03*
Y13189D02*
D03*
Y13032D02*
D03*
Y12874D02*
D03*
Y12717D02*
D03*
Y12559D02*
D03*
Y12402D02*
D03*
Y12244D02*
D03*
Y12087D02*
D03*
D27*
X12912Y17030D02*
D03*
Y16530D02*
D03*
Y16030D02*
D03*
Y15530D02*
D03*
X15137Y17030D02*
D03*
Y16530D02*
D03*
Y16030D02*
D03*
Y15530D02*
D03*
D28*
X14025Y16280D02*
D03*
D29*
X6105Y13366D02*
D03*
X6361D02*
D03*
X6873D02*
D03*
X7129D02*
D03*
X7385D02*
D03*
X7641D02*
D03*
X8152D02*
D03*
X8408D02*
D03*
X6361Y13110D02*
D03*
X8152D02*
D03*
X8408D02*
D03*
X6361Y12854D02*
D03*
X6617D02*
D03*
X6873D02*
D03*
X7129D02*
D03*
X7385D02*
D03*
X7641D02*
D03*
X7896D02*
D03*
X8152D02*
D03*
X8408D02*
D03*
X6105Y12598D02*
D03*
X6361D02*
D03*
X6617D02*
D03*
X6873D02*
D03*
X7129D02*
D03*
X7385D02*
D03*
X7641D02*
D03*
X7896D02*
D03*
X8152D02*
D03*
X8408D02*
D03*
Y13622D02*
D03*
X8152D02*
D03*
X7641D02*
D03*
X7385D02*
D03*
X7129D02*
D03*
X6873D02*
D03*
X8408Y13878D02*
D03*
X8152D02*
D03*
X7641D02*
D03*
X7385D02*
D03*
X7129D02*
D03*
X6873D02*
D03*
X6105D02*
D03*
X8408Y14134D02*
D03*
X8152D02*
D03*
X7641D02*
D03*
X7385D02*
D03*
X7129D02*
D03*
X6873D02*
D03*
X6361D02*
D03*
X6105D02*
D03*
X8408Y14390D02*
D03*
X8152D02*
D03*
X6361D02*
D03*
X6105D02*
D03*
X8408Y14646D02*
D03*
X8152D02*
D03*
X7896D02*
D03*
X7641D02*
D03*
X7385D02*
D03*
X7129D02*
D03*
X6873D02*
D03*
X6617D02*
D03*
X6361D02*
D03*
X6105D02*
D03*
X8408Y14902D02*
D03*
X8152D02*
D03*
X7896D02*
D03*
X7641D02*
D03*
X7385D02*
D03*
X7129D02*
D03*
X6873D02*
D03*
X6617D02*
D03*
X6361D02*
D03*
X6105D02*
D03*
Y12854D02*
D03*
Y13110D02*
D03*
X6361Y13622D02*
D03*
X6105D02*
D03*
X6361Y13878D02*
D03*
D30*
X4215Y22675D02*
D03*
Y22360D02*
D03*
X3545Y22675D02*
D03*
Y22360D02*
D03*
D31*
X2637Y22714D02*
D03*
X2903D02*
D03*
X2637Y22518D02*
D03*
Y22321D02*
D03*
X2903Y22518D02*
D03*
Y22321D02*
D03*
D32*
X10301Y22122D02*
D03*
X9389D02*
D03*
Y22856D02*
D03*
X10301D02*
D03*
D33*
X1673Y21866D02*
D03*
Y22122D02*
D03*
Y22378D02*
D03*
Y22633D02*
D03*
Y22889D02*
D03*
D34*
X610Y22771D02*
D03*
Y21984D02*
D03*
D35*
X3031Y20610D02*
D03*
X3281Y23430D02*
D03*
X8051Y2420D02*
D03*
X13451Y8240D02*
D03*
X14823Y14034D02*
D03*
X6251Y27670D02*
D03*
X5121Y23470D02*
D03*
X17910Y7120D02*
D03*
X15910Y22030D02*
D03*
X16410Y24770D02*
D03*
X7630Y3770D02*
D03*
X10161Y19510D02*
D03*
X10181Y18500D02*
D03*
X6091Y21080D02*
D03*
X13790Y5650D02*
D03*
X15310Y24760D02*
D03*
X14160D02*
D03*
X790Y18470D02*
D03*
X16101Y23140D02*
D03*
D36*
X6350Y6410D02*
D03*
D37*
X7039Y5475D02*
D03*
X6842D02*
D03*
X6645D02*
D03*
X6448D02*
D03*
X6252D02*
D03*
X6055D02*
D03*
X5858D02*
D03*
X5661D02*
D03*
Y7345D02*
D03*
X5858D02*
D03*
X6055D02*
D03*
X6252D02*
D03*
X6448D02*
D03*
X6645D02*
D03*
X6842D02*
D03*
X7039D02*
D03*
D38*
X5415Y5721D02*
D03*
Y5918D02*
D03*
Y6115D02*
D03*
Y6312D02*
D03*
Y6508D02*
D03*
Y6705D02*
D03*
Y6902D02*
D03*
Y7099D02*
D03*
X7285D02*
D03*
Y6902D02*
D03*
Y6705D02*
D03*
Y6508D02*
D03*
Y6312D02*
D03*
Y6115D02*
D03*
Y5918D02*
D03*
Y5721D02*
D03*
D39*
X17281Y18872D02*
D03*
X1569Y26222D02*
D03*
X17281Y982D02*
D03*
X1349Y912D02*
D03*
D40*
X3816Y18157D02*
D03*
Y17157D02*
D03*
X2950D02*
D03*
Y18157D02*
D03*
D41*
X13102Y23640D02*
D03*
X14700D02*
D03*
X13102Y23140D02*
D03*
X14700D02*
D03*
X13102Y22640D02*
D03*
X14700D02*
D03*
X13102Y22140D02*
D03*
X14700D02*
D03*
X13102Y21640D02*
D03*
X14700D02*
D03*
X8529Y17844D02*
D03*
X6931D02*
D03*
X8529Y18344D02*
D03*
X6931D02*
D03*
X8529Y18844D02*
D03*
X6931D02*
D03*
X8529Y19344D02*
D03*
X6931D02*
D03*
X8529Y19844D02*
D03*
X6931D02*
D03*
X10990Y1420D02*
D03*
X9392D02*
D03*
X10990Y1920D02*
D03*
X9392D02*
D03*
X10990Y2420D02*
D03*
X9392D02*
D03*
X10990Y2920D02*
D03*
X9392D02*
D03*
X10990Y3420D02*
D03*
X9392D02*
D03*
D42*
X2528Y21390D02*
D03*
X2174D02*
D03*
D43*
X12920Y3740D02*
D03*
D44*
X10940Y17020D02*
X10950Y17030D01*
X10757Y21720D02*
Y22160D01*
X10114Y25354D02*
X10547Y24921D01*
X10356Y22122D02*
X10757Y21720D01*
X12348Y16030D02*
X12912D01*
X10218Y22122D02*
X10356D01*
X8739Y23194D02*
X8780D01*
X18239Y7862D02*
Y8280D01*
X16251Y6839D02*
Y7177D01*
X4471Y27750D02*
X4893D01*
X2677Y11956D02*
X2707Y11985D01*
X9091Y23788D02*
Y24109D01*
X7470Y8460D02*
Y8707D01*
X6047Y4307D02*
X6290Y4550D01*
X16811Y8730D02*
X16871Y8790D01*
X5892Y8095D02*
X6251D01*
X6252Y7345D02*
Y8095D01*
X3810Y18157D02*
X3813Y18160D01*
X9653Y23339D02*
Y23349D01*
X17650Y12931D02*
X17658Y12923D01*
X17058Y12931D02*
X17650D01*
X17314Y12538D02*
X17370Y12481D01*
Y12449D02*
X17431Y12388D01*
X17370Y12449D02*
Y12481D01*
X9287Y23804D02*
Y24109D01*
Y23804D02*
X9301Y23790D01*
X8697Y26766D02*
Y26973D01*
X8600Y27070D02*
X8697Y26973D01*
X3960Y7870D02*
X4150D01*
X3782Y7692D02*
X3960Y7870D01*
X3343Y7692D02*
X3782D01*
X3343Y8086D02*
X4256D01*
X4631Y7710D01*
X6881Y10420D02*
X7030D01*
X6761Y10540D02*
X6881Y10420D01*
X15137Y15530D02*
X15930D01*
X9490Y4320D02*
X12051Y6881D01*
X7500Y4320D02*
X9490D01*
X12051Y6881D02*
Y10860D01*
X12630Y11439D01*
Y13350D01*
X11072Y14908D02*
X12630Y13350D01*
X2756Y12766D02*
Y12769D01*
X2749Y12776D02*
X2756Y12769D01*
X2749Y12776D02*
X2760Y12787D01*
X2664Y12883D02*
X2760Y12787D01*
X2707Y11959D02*
Y11985D01*
X2670Y11990D02*
X2677Y11956D01*
X2269Y13409D02*
X2500Y13640D01*
X2269Y13350D02*
Y13409D01*
X11872Y26920D02*
X11873D01*
X11711D02*
X11872D01*
X4893Y27750D02*
X4928Y27784D01*
X4891Y27748D02*
X4893Y27750D01*
X4271Y8283D02*
X4693Y7860D01*
X3343Y8283D02*
X4271D01*
X4693Y7860D02*
X5737D01*
X2510Y12883D02*
X2664D01*
X2500Y13260D02*
X2510D01*
X2230Y12990D02*
X2500Y13260D01*
X2141Y12990D02*
X2230D01*
X2269Y13270D02*
Y13350D01*
X2141D02*
X2269D01*
X1948Y13189D02*
X2188D01*
X2269Y13270D01*
X1948Y13032D02*
X2099D01*
X2141Y12990D01*
X1948Y12874D02*
X2070D01*
X2141Y12945D02*
Y12990D01*
X2070Y12874D02*
X2141Y12945D01*
X9204Y16857D02*
X9558Y17210D01*
X10258D01*
X2141Y13346D02*
Y13350D01*
X4492Y10070D02*
X4830D01*
X4490Y10068D02*
X4492Y10070D01*
X14352Y7302D02*
X14626D01*
Y7314D01*
X16250Y7150D02*
Y7175D01*
X16251Y7177D01*
X7947Y15310D02*
X8017Y15380D01*
X5661Y5188D02*
Y5475D01*
X5493Y5020D02*
X5661Y5188D01*
X4510Y5020D02*
X5493D01*
X6055Y5065D02*
X6290Y4830D01*
Y4550D02*
Y4830D01*
X6055Y5065D02*
Y5475D01*
X14350Y7300D02*
X14352Y7302D01*
X14616Y7324D02*
X14626Y7314D01*
X15935Y16167D02*
Y16492D01*
X11561Y26980D02*
X11651D01*
X7671Y25130D02*
X7761Y25220D01*
X7771D01*
X7779Y25228D01*
X8080D01*
X8093Y25241D02*
X8352D01*
X8080Y25228D02*
X8093Y25241D01*
X8076Y26225D02*
X8352D01*
X8031Y26270D02*
X8076Y26225D01*
X5461Y27748D02*
X5859D01*
X5483Y25704D02*
X5488Y25700D01*
X5217Y25704D02*
X5483D01*
X4671Y26250D02*
X5217Y25704D01*
X4671Y26250D02*
Y26423D01*
X5649Y26680D02*
X6031D01*
X6041Y26670D01*
X15677Y10338D02*
Y10528D01*
X15599Y10260D02*
X15677Y10338D01*
X15322Y10260D02*
X15599D01*
X5809Y8178D02*
X5892Y8095D01*
X17058Y12538D02*
X17314D01*
X17431Y12388D02*
X17658D01*
X17035Y9472D02*
X17212D01*
X15729Y13325D02*
X15808D01*
X9389Y22856D02*
X9484D01*
X10218Y22122D01*
X10347Y21720D02*
X10757D01*
X10278Y21652D02*
X10347Y21720D01*
X10757Y22160D02*
X10796Y22200D01*
X10581Y22577D02*
X10796D01*
X10301Y22856D02*
X10581Y22577D01*
X2380Y22518D02*
X2637D01*
X8021Y25438D02*
X8352D01*
X9681D02*
X10114Y25004D01*
X10251Y22856D02*
X10301D01*
X10301D01*
X11010Y24650D02*
X11279D01*
X9091Y26766D02*
Y27067D01*
X10749Y27048D02*
X10761D01*
X9681Y25438D02*
Y25782D01*
X9248Y25871D02*
X9681Y25438D01*
X8894Y26225D02*
X9248Y25871D01*
X9287Y25044D02*
X9681Y25438D01*
X10114Y25871D01*
X11279Y24650D02*
X11281Y24648D01*
Y24638D02*
Y24648D01*
X3816Y17157D02*
X3856Y17197D01*
X4504D01*
X14025Y16280D02*
X14275Y16530D01*
X14525D01*
X15137D01*
X14525Y16030D02*
X15137D01*
X14025Y16280D02*
X14275Y16030D01*
X14525D01*
X6251Y8095D02*
X6252Y8095D01*
X4831Y8092D02*
X5188D01*
X5274Y8178D01*
X6645Y7345D02*
Y7619D01*
X6653Y7627D01*
X6448Y7345D02*
Y7933D01*
X6511Y7996D01*
Y8885D01*
X6359Y9037D02*
X6511Y8885D01*
X5858Y7345D02*
Y7527D01*
X5675Y7710D02*
X5858Y7527D01*
X6055Y7345D02*
Y7542D01*
X5737Y7860D02*
X6055Y7542D01*
X5858Y4725D02*
Y5475D01*
X5856Y4723D02*
X5858Y4725D01*
X4883Y16807D02*
Y17197D01*
X2950Y18157D02*
X3810D01*
X9091Y27067D02*
X9091Y27068D01*
X8001Y25418D02*
X8021Y25438D01*
X17428Y10063D02*
X17447Y10043D01*
X17035Y10063D02*
X17428D01*
X17035Y9866D02*
X17312D01*
X17428Y9982D01*
Y10063D01*
X12912Y16030D02*
X13525D01*
X13775D01*
X13525Y15530D02*
Y15780D01*
X12912Y15530D02*
X13525D01*
X13775Y16030D02*
X14025Y16280D01*
X13525Y15780D02*
X13775Y16030D01*
X1948Y13346D02*
X2141D01*
X7169Y10730D02*
Y11040D01*
X6750Y8467D02*
X7093D01*
X5809Y8178D02*
Y8739D01*
X5830Y8760D01*
X6750Y7940D02*
Y8090D01*
X6653Y7843D02*
X6750Y7940D01*
X6653Y7627D02*
Y7843D01*
X7464Y8700D02*
X7470Y8707D01*
X17271Y9190D02*
Y9413D01*
X17212Y9472D02*
X17271Y9413D01*
X2528Y21390D02*
Y21579D01*
X2240Y21868D02*
X2528Y21579D01*
X16879Y8798D02*
X17271Y9190D01*
X1001Y24340D02*
X1261D01*
X5098Y24040D02*
X5242D01*
X5391Y23891D01*
X12105Y16273D02*
Y16489D01*
Y16273D02*
X12348Y16030D01*
X10950Y17030D02*
Y17580D01*
X5538Y4307D02*
X5850D01*
Y4307D02*
X6047D01*
X4631Y7710D02*
X5675D01*
X3343Y8676D02*
X4095D01*
X4679Y8092D01*
X4831D01*
X3343Y8873D02*
X4514D01*
X4678Y9037D01*
X6359D01*
X10665Y26766D02*
Y26964D01*
X10749Y27048D01*
X12889Y25258D02*
X13191D01*
X12751Y25120D02*
X12889Y25258D01*
X12751Y24960D02*
Y25120D01*
X12551Y24760D02*
X12751Y24960D01*
X12471Y24770D02*
Y25130D01*
X12461Y24760D02*
X12471Y24770D01*
X12461Y24760D02*
X12551D01*
X12061Y24890D02*
Y25130D01*
X12191Y24760D02*
X12461D01*
X12061Y24890D02*
X12191Y24760D01*
X9430Y22122D02*
X9901Y21652D01*
X9089Y23790D02*
X9091Y23788D01*
X9041Y23790D02*
X9089D01*
X9301Y23715D02*
Y23790D01*
X8780Y23194D02*
X9301Y23715D01*
X11651Y26980D02*
X11711Y26920D01*
X9204Y16580D02*
Y16857D01*
X8338Y16580D02*
X8669D01*
X17035Y10260D02*
X17321D01*
X17391Y10330D01*
Y10490D01*
X17308Y10573D02*
X17391Y10490D01*
X4504Y16550D02*
Y16807D01*
X6754Y10540D02*
X6761D01*
X6380Y11330D02*
Y11620D01*
X8017Y15380D02*
X10290D01*
X10762Y14908D01*
X11072D01*
D45*
X10930Y17010D02*
X10940Y17020D01*
X3180Y12530D02*
X3650Y12060D01*
Y11025D02*
Y12060D01*
Y11025D02*
X4025Y10650D01*
X2990Y12400D02*
X3450Y11940D01*
Y10881D02*
Y11940D01*
Y10881D02*
X3901Y10430D01*
X2990Y12400D02*
Y12860D01*
X3180Y12530D02*
Y12960D01*
X5859Y27748D02*
X5872Y27745D01*
X3436Y18927D02*
X3813D01*
X2321Y23930D02*
Y24163D01*
Y23670D02*
Y23930D01*
X2737D01*
X2141D02*
X2321D01*
X5425Y9895D02*
Y10145D01*
X1061Y20091D02*
X1211D01*
X1060Y20090D02*
X1061Y20091D01*
X781Y20090D02*
X1060D01*
X4504Y16550D02*
X5388D01*
X10697Y17940D02*
X14520D01*
X10258Y17501D02*
X10697Y17940D01*
X12241Y6791D02*
Y10751D01*
X9425Y3975D02*
X12241Y6791D01*
X8906Y3975D02*
X9425D01*
X12098Y14297D02*
X12840Y13554D01*
Y11350D02*
Y13554D01*
X12241Y10751D02*
X12840Y11350D01*
X12771Y10850D02*
X13075Y11154D01*
Y12340D01*
X1000Y10291D02*
X1992D01*
X2228Y10054D01*
X2949D01*
X2680Y13640D02*
X2830Y13490D01*
X2500Y13640D02*
X2680D01*
X2830Y13310D02*
Y13490D01*
X2510Y13260D02*
X2590D01*
X10258Y17210D02*
Y17501D01*
X4920Y10650D02*
X5425Y10145D01*
X5130Y9760D02*
Y10180D01*
X4880Y10430D02*
X5130Y10180D01*
X10667Y17010D02*
X10930D01*
X16340Y16170D02*
X18870Y13640D01*
Y7290D02*
Y13640D01*
X18140Y6560D02*
X18870Y7290D01*
X13451Y8240D02*
X13902D01*
X14350Y25700D02*
Y26340D01*
Y26690D01*
X13820Y27220D02*
X14350Y26690D01*
X13908Y25258D02*
X14350Y25700D01*
X14515Y5028D02*
X14755Y4788D01*
X14806D01*
X14130Y5028D02*
X14515D01*
X13322Y3051D02*
Y7288D01*
X16340Y16170D02*
Y18050D01*
X14870Y17940D02*
X15540Y18610D01*
X16020D01*
X5900Y24760D02*
Y25010D01*
X5770Y25140D02*
X5900Y25010D01*
X5770Y25140D02*
Y26020D01*
X5360Y24811D02*
Y24950D01*
Y24811D02*
X5441Y24729D01*
Y23940D02*
Y24729D01*
X5360Y24950D02*
X5441Y25031D01*
X11830Y2920D02*
X12140Y3230D01*
X10990Y2920D02*
X11830D01*
X8051Y2420D02*
X8530D01*
X8531Y3600D02*
X8906Y3975D01*
X8530Y2420D02*
X9392D01*
X8530D02*
X8531Y2421D01*
Y3600D01*
X13744Y4488D02*
X13748Y4492D01*
X14130D01*
X12191Y1920D02*
X13322Y3051D01*
X13310Y7300D02*
X13322Y7288D01*
X12458Y16627D02*
X12555Y16530D01*
X14520Y17940D02*
X14870D01*
X14520D02*
X14521Y17941D01*
Y18440D01*
X16340Y20610D02*
X17051Y21321D01*
X16340Y18050D02*
Y20610D01*
X17051Y21321D02*
Y25820D01*
X3803Y20327D02*
Y20617D01*
X3800Y20620D02*
X3803Y20617D01*
X3323Y19723D02*
X3550Y19950D01*
X3323Y19495D02*
Y19723D01*
X4010Y19950D02*
X5630Y21570D01*
Y23440D02*
X5641Y23451D01*
Y24501D01*
X5900Y24760D01*
X5129Y25408D02*
X5340D01*
X5441Y25031D02*
Y25306D01*
X5340Y25408D02*
X5441Y25306D01*
X9250Y28240D02*
X14631D01*
X4451D02*
X9250D01*
X2270Y23098D02*
Y23619D01*
X2321Y23670D01*
X2763Y23956D02*
Y24066D01*
X2737Y23930D02*
X2763Y23956D01*
X16338Y18048D02*
X16340Y18050D01*
X15728Y18048D02*
X16338D01*
X13191Y25258D02*
X13908D01*
X12751Y27220D02*
X13820D01*
X12561Y27030D02*
X12751Y27220D01*
X7670Y27461D02*
Y27930D01*
X7159Y26950D02*
X7670Y27461D01*
X6530Y26950D02*
X7159D01*
X6300Y27180D02*
X6530Y26950D01*
X5391Y23890D02*
X5441Y23940D01*
X5391Y23740D02*
Y23890D01*
X5121Y23470D02*
X5391Y23740D01*
X2950Y17157D02*
X3430Y16677D01*
X4211D01*
X1211Y20091D02*
X2512D01*
X3031Y20610D01*
X3033Y20612D01*
Y21450D01*
Y21798D01*
X2964Y21868D02*
X3033Y21798D01*
X2240Y21868D02*
X2964D01*
X4101Y26435D02*
Y27890D01*
Y26435D02*
X5129Y25408D01*
X5870Y27737D02*
X5872Y27745D01*
X3921Y24760D02*
Y25260D01*
X3299Y24626D02*
X3787D01*
X3921Y24760D01*
X2949Y10054D02*
X2962Y10068D01*
X3955D01*
X610Y22771D02*
Y23756D01*
Y21984D02*
Y22771D01*
Y21000D02*
Y21984D01*
X1673Y21866D02*
X2158D01*
X1673Y22889D02*
X2062D01*
X2270Y23098D01*
X781Y20467D02*
X931D01*
X934Y20470D02*
X1211D01*
X931Y20467D02*
X934Y20470D01*
X610Y23756D02*
Y24028D01*
X3813Y18920D02*
X3816Y18917D01*
X3323Y18960D02*
X3362Y18920D01*
X3813Y19297D02*
X3813Y19297D01*
X3813Y19297D02*
Y19597D01*
X3966Y18007D02*
X4393D01*
X3813Y18160D02*
X3816Y18157D01*
X3966Y18007D01*
X3423Y17630D02*
X4393D01*
X2950Y17157D02*
X3423Y17630D01*
X2453Y17157D02*
X2950D01*
X3813Y18920D02*
Y18927D01*
Y18160D02*
Y18920D01*
X1673Y21393D02*
X2171D01*
X2174Y21390D01*
X3299Y24066D02*
Y24626D01*
X624Y24042D02*
Y24340D01*
X610Y24028D02*
X624Y24042D01*
Y24340D02*
Y24730D01*
X1001D02*
X1341D01*
X2141Y23930D01*
X13455Y12428D02*
Y12902D01*
Y13438D02*
X13827D01*
X13151Y10368D02*
Y10680D01*
X13141Y10690D02*
X13151Y10680D01*
Y9368D02*
Y9832D01*
Y8540D02*
Y8832D01*
Y8540D02*
X13451Y8240D01*
X12105Y17024D02*
X12111Y17030D01*
X12555Y16530D02*
X12912D01*
X12458Y16627D02*
Y17030D01*
X12111D02*
X12458D01*
X12912D01*
X12743Y9832D02*
X13151D01*
X12741Y9830D02*
X12743Y9832D01*
X10990Y1920D02*
X12191D01*
X10191Y3700D02*
X10411Y3920D01*
X10191Y2990D02*
Y3700D01*
X10121Y2920D02*
X10191Y2990D01*
X9392Y2920D02*
X10121D01*
X10990Y3420D02*
X11811D01*
X11821Y3410D01*
X13162Y12428D02*
X13455D01*
X13075Y12340D02*
X13162Y12428D01*
X4101Y27890D02*
X4451Y28240D01*
X610Y21000D02*
X781Y20829D01*
Y20467D02*
Y20829D01*
X4211Y16677D02*
X4338Y16550D01*
X4504D01*
X14631Y28240D02*
X17051Y25820D01*
X5388Y16550D02*
X6443Y15495D01*
X10411Y3920D02*
X11710D01*
X12741Y4951D01*
Y9830D01*
X3550Y19950D02*
X3803D01*
X4010D01*
X4025Y10650D02*
X4920D01*
X3901Y10430D02*
X4880D01*
X2590Y13260D02*
X2990Y12860D01*
X2830Y13310D02*
X3180Y12960D01*
X5770Y26020D02*
X6530Y26780D01*
Y26950D01*
D46*
X10757Y21573D02*
X11106Y21922D01*
X10640Y23256D02*
X11106Y22790D01*
X17380Y5195D02*
X17445Y5260D01*
X14735Y5540D02*
X15065D01*
X15248Y5357D02*
X16792D01*
X15748Y4682D02*
Y4983D01*
Y4269D02*
Y4682D01*
X8739Y23050D02*
Y23194D01*
Y22033D02*
Y23050D01*
X13902Y8069D02*
Y8240D01*
X14930Y4786D02*
X15272D01*
X17268Y5362D02*
X17380Y5250D01*
X16796Y5362D02*
X17268D01*
X17380Y5195D02*
Y5250D01*
X17445Y5260D02*
X17930D01*
X16705Y14034D02*
X17045D01*
X5870Y27737D02*
X6251Y27670D01*
X16792Y5357D02*
X16796Y5362D01*
X15272Y4786D02*
X15376Y4682D01*
X15748D01*
X16693Y4254D02*
X16792Y4352D01*
Y4983D01*
X16693Y3821D02*
Y4254D01*
X15065Y5540D02*
X15248Y5357D01*
X18035Y12202D02*
Y13109D01*
X18029Y13115D02*
X18035Y13109D01*
X18029Y13115D02*
Y13506D01*
Y12182D02*
Y12196D01*
X18035Y12202D01*
X17899Y12052D02*
X18029Y12182D01*
X17768Y13767D02*
X18029Y13506D01*
X14072Y8960D02*
X14238Y8795D01*
X14289D01*
X13902Y8790D02*
X14072Y8960D01*
X13902Y8069D02*
X14052Y7920D01*
X16626Y12341D02*
Y12687D01*
Y11908D02*
Y12341D01*
X16669Y12298D01*
X17170D01*
X17417Y12052D01*
X17899D01*
X16705Y14261D02*
X16705Y14260D01*
X16705Y14261D02*
Y14664D01*
X16705Y14034D02*
Y14260D01*
X16626Y12687D02*
X16674Y12734D01*
X9430Y21342D02*
X10526D01*
X10757Y21573D02*
Y21720D01*
X10526Y21342D02*
X10757Y21573D01*
X11106Y21922D02*
Y22790D01*
X8739Y22033D02*
X9430Y21342D01*
X17447Y10043D02*
X17871D01*
X17768Y13767D02*
Y13994D01*
X16469Y7920D02*
X16811Y8262D01*
X14052Y7920D02*
X16469D01*
X13902Y8240D02*
Y8790D01*
D47*
X16169Y10388D02*
X16179Y10378D01*
X14143Y10894D02*
X14931D01*
X13856Y10606D02*
X14143Y10894D01*
X14931D02*
X15197Y10628D01*
X15577D01*
X15677Y10528D01*
X13856Y10207D02*
Y10606D01*
X15677Y10528D02*
X15817Y10388D01*
X16169D01*
X16188D01*
X17532Y10797D02*
X17871D01*
X17308Y10573D02*
X17532Y10797D01*
X16188Y10388D02*
X16374Y10573D01*
X17308D01*
D48*
X7254Y13492D02*
X7262Y13484D01*
X7254Y13492D02*
X7259D01*
X7129Y13366D02*
X7254Y13492D01*
X6755Y13484D02*
X6873Y13366D01*
X6421Y13423D02*
X6491Y13494D01*
X1680Y13820D02*
X2140D01*
X2507Y12153D02*
X2670Y11990D01*
X2494Y12136D02*
X2507Y12153D01*
X2494Y12136D02*
Y12136D01*
X2483Y12123D02*
X2494Y12136D01*
X6489Y12470D02*
X6617Y12598D01*
X5999Y13260D02*
X6105Y13366D01*
X6905Y17818D02*
X6911Y17812D01*
X8529Y17530D02*
Y17844D01*
X11981Y25509D02*
X12061Y25589D01*
X1948Y11919D02*
X2047D01*
X7169Y11418D02*
X7170Y11417D01*
X9653Y23339D02*
X9905Y23087D01*
X9009Y23116D02*
X9484Y23592D01*
X11081Y23850D02*
X11281Y24050D01*
X12400Y24530D02*
X12751D01*
X12320Y24450D02*
X12400Y24530D01*
X12091Y24450D02*
X12320D01*
X8092Y26499D02*
X8169Y26422D01*
X8092Y26499D02*
Y26822D01*
X8169Y26422D02*
X8352D01*
X12086Y26685D02*
X12511Y26260D01*
X11485Y26685D02*
X12086D01*
X13500Y26370D02*
X13770D01*
X13390Y26260D02*
X13500Y26370D01*
X12511Y26260D02*
X13390D01*
X1031Y15739D02*
Y17889D01*
X790Y18130D02*
X1031Y17889D01*
X790Y18130D02*
Y18470D01*
Y18820D01*
X1031Y19061D01*
Y19621D01*
X3322Y22260D02*
X3423Y22360D01*
X3053Y22260D02*
X3322D01*
X2992Y22321D02*
X3053Y22260D01*
X9878Y23751D02*
Y24109D01*
Y23751D02*
X9991Y23638D01*
X8587Y14780D02*
X8757Y14950D01*
X8647Y14646D02*
X8821Y14820D01*
X8677Y14520D02*
X8847Y14690D01*
X1227Y14449D02*
X1549D01*
X1227Y12559D02*
X1948D01*
X10468Y26766D02*
Y27099D01*
X8894Y26766D02*
Y27000D01*
X8847Y27047D02*
Y27177D01*
Y27047D02*
X8894Y27000D01*
X8092Y26822D02*
X8632Y27362D01*
X8923D01*
X8995Y27290D02*
X9361D01*
X8923Y27362D02*
X8995Y27290D01*
X10600Y27590D02*
X14081D01*
X10272Y27262D02*
X10600Y27590D01*
X10272Y26766D02*
Y27262D01*
X1330Y15440D02*
X2008D01*
X1031Y15739D02*
X1330Y15440D01*
X11010Y26422D02*
X11222D01*
X11485Y26685D01*
X8470Y12545D02*
X8570Y12460D01*
X8408Y12598D02*
X8470Y12545D01*
X8287Y12740D02*
X8294D01*
X8408Y12854D01*
X7859Y17175D02*
Y20318D01*
X7505Y16821D02*
X7859Y17175D01*
X7739Y17242D02*
Y20512D01*
X7385Y16887D02*
X7739Y17242D01*
X9098Y17280D02*
X9701Y17883D01*
X9100Y5040D02*
X11510Y7450D01*
X7423Y5040D02*
X9100D01*
X7251Y4868D02*
X7423Y5040D01*
X11350Y6990D02*
Y7010D01*
X11660Y7320D01*
X11340Y6702D02*
X11800Y7162D01*
Y11044D01*
X11340Y6690D02*
Y6702D01*
X9440Y4500D02*
X11920Y6980D01*
X7880Y4500D02*
X9440D01*
X11920Y6980D02*
Y10959D01*
X7670Y7630D02*
X7860Y7820D01*
X7119Y7630D02*
X7670D01*
X11660Y7320D02*
Y11106D01*
X11510Y7450D02*
Y11179D01*
X7530Y4850D02*
X7880Y4500D01*
X11510Y11179D02*
X12050Y11719D01*
X11660Y11106D02*
X12200Y11646D01*
X11800Y11044D02*
X12330Y11574D01*
X11920Y10959D02*
X12470Y11509D01*
X12050Y11719D02*
Y13100D01*
X10903Y14247D02*
X12050Y13100D01*
X12200Y11646D02*
Y13140D01*
X10933Y14407D02*
X12200Y13140D01*
X12330Y11574D02*
Y13230D01*
X10973Y14587D02*
X12330Y13230D01*
X12470Y11509D02*
Y13290D01*
X11013Y14747D02*
X12470Y13290D01*
X7169Y11671D02*
X7540Y12042D01*
X7169Y11417D02*
Y11418D01*
Y11671D01*
X1227Y13032D02*
X1679D01*
X1680Y13030D01*
X738Y11644D02*
X925D01*
X1211Y11929D01*
X2047Y12559D02*
X2483Y12123D01*
X2052Y12402D02*
X2116Y12338D01*
Y12179D02*
Y12338D01*
Y12179D02*
X2406Y11890D01*
X2465D02*
X2615Y11740D01*
X2406Y11890D02*
X2465D01*
X5608Y15210D02*
Y15870D01*
X1901Y15182D02*
X2110Y14973D01*
Y14354D02*
Y14973D01*
X2047Y14291D02*
X2110Y14354D01*
X2170Y12638D02*
X2308Y12500D01*
X2510D01*
X1948Y12559D02*
X2047D01*
X1227Y13504D02*
X1484D01*
X440Y4003D02*
Y14933D01*
X2008Y15440D02*
X2346Y15102D01*
X7507Y13232D02*
X7641Y13366D01*
X7259Y13228D02*
Y13240D01*
X7503Y13760D02*
X7515D01*
X7129Y13622D02*
X7259Y13492D01*
Y13496D01*
X7262Y13484D02*
X7515D01*
X7385Y13614D02*
X7515Y13484D01*
X7385Y13614D02*
Y13622D01*
Y13878D02*
X7503Y13760D01*
X7257Y13750D02*
X7259D01*
X7003Y13740D02*
Y13748D01*
X7641Y13616D02*
X7767Y13490D01*
X7641Y13616D02*
Y13622D01*
X7700Y13936D02*
X7767Y14000D01*
X7641Y13878D02*
X7700Y13936D01*
X2070Y12070D02*
X2431Y11709D01*
X2070Y12070D02*
Y12077D01*
X2047Y11919D02*
X2241Y11725D01*
Y11709D02*
Y11725D01*
X6489Y12470D02*
X6517D01*
X11640Y19020D02*
X11720Y18940D01*
X11441Y19020D02*
X11640D01*
X15010Y19010D02*
X15780D01*
X14940Y18940D02*
X15010Y19010D01*
X11720Y18940D02*
X14940D01*
X14396Y27700D02*
X15100Y26996D01*
Y25460D02*
Y26996D01*
X16411Y25150D02*
Y26030D01*
X14501Y27940D02*
X16411Y26030D01*
X11965Y26035D02*
X14040D01*
X11770Y25840D02*
X11965Y26035D01*
X14441Y27810D02*
X16020Y26231D01*
Y24320D02*
Y26231D01*
X12910Y1420D02*
X13390Y1900D01*
X13940D01*
X13500Y4250D02*
Y5360D01*
X13790Y5650D01*
X13500Y4250D02*
X13580Y4170D01*
Y3940D02*
Y4170D01*
X14178Y6777D02*
X14240Y6839D01*
X14496D01*
X14178Y6370D02*
Y6777D01*
X13860Y6302D02*
X14110D01*
X14178Y6370D01*
X13790Y5950D02*
X13860Y6020D01*
Y6302D01*
X13790Y5650D02*
Y5950D01*
X13953Y7133D02*
Y7290D01*
X13860Y7040D02*
X13953Y7133D01*
X13860Y6838D02*
Y7040D01*
X13640Y7290D02*
X13953D01*
X7610Y3750D02*
X7630Y3770D01*
X7610Y3370D02*
Y3750D01*
X1293Y3150D02*
X8140D01*
X440Y4003D02*
X1293Y3150D01*
X3780Y2900D02*
X3810D01*
X4790Y1920D01*
X9392D01*
X6252Y5148D02*
X7630Y3770D01*
X6252Y5148D02*
Y5475D01*
X10990Y1420D02*
X12910D01*
X15910Y22030D02*
Y22450D01*
X15790Y24120D02*
Y24850D01*
X15510Y21740D02*
Y22620D01*
X15610Y22720D01*
X16210D01*
X16490Y23000D01*
Y23420D01*
X15790Y24120D02*
X16490Y23420D01*
X14990Y25140D02*
X15500D01*
X15790Y24850D01*
X16411Y24771D02*
Y25150D01*
X16410Y24770D02*
X16411Y24771D01*
X10181Y18500D02*
X10440Y18759D01*
Y18880D01*
X11600Y20040D01*
X14911D01*
X16841Y21970D01*
X5671Y21070D02*
X5681Y21080D01*
X5671Y18180D02*
Y21070D01*
Y18180D02*
X5791Y18060D01*
X5681Y21080D02*
X6091D01*
X16841Y21970D02*
Y25790D01*
X14650Y25480D02*
X14990Y25140D01*
X14650Y25480D02*
Y27021D01*
X14081Y27590D02*
X14650Y27021D01*
X14586Y24036D02*
X14700Y23921D01*
X14481Y24140D02*
X14586Y24036D01*
X15310Y24760D01*
X12531Y24140D02*
X14481D01*
X13191Y24722D02*
X13430D01*
X13468Y24760D01*
X14160D01*
X12261Y27370D02*
X12520D01*
X11631Y22830D02*
Y23190D01*
X11164Y23658D02*
X11631Y23190D01*
X11104Y23528D02*
X11491Y23140D01*
Y22340D02*
Y23140D01*
X11290Y25241D02*
X11731Y24800D01*
X11010Y25241D02*
X11290D01*
X11010Y25831D02*
X11222D01*
X11861Y26470D01*
Y26480D01*
X11941Y26261D02*
X12131D01*
X11436Y25634D02*
X11640Y25839D01*
Y25960D01*
X11941Y26261D01*
X11010Y25438D02*
X11628D01*
X11770Y25580D01*
Y25840D01*
X11741Y24020D02*
Y24800D01*
X11731D02*
X11741D01*
X11491Y23850D02*
Y24700D01*
X10141Y28070D02*
X14561D01*
X9361Y27290D02*
X10141Y28070D01*
X10221Y27940D02*
X14501D01*
X9287Y27006D02*
X10221Y27940D01*
X10281Y27810D02*
X14441D01*
X9484Y27013D02*
X10281Y27810D01*
X10351Y27700D02*
X14396D01*
X9681Y27030D02*
X10351Y27700D01*
X7381Y24460D02*
X7965Y25044D01*
X7381Y21630D02*
Y24460D01*
X6406Y23062D02*
Y25674D01*
X6276Y23116D02*
Y25728D01*
X5927Y14480D02*
X6015D01*
X5687Y14974D02*
X6015Y14646D01*
X5608Y15210D02*
X5687Y15131D01*
Y14974D02*
Y15131D01*
X5807Y14981D02*
Y15220D01*
Y14981D02*
X6002Y14786D01*
X5998Y15440D02*
X6018Y15420D01*
Y15208D02*
Y15420D01*
X6488Y14775D02*
Y15010D01*
X6413Y15085D02*
X6488Y15010D01*
X6413Y15085D02*
Y15234D01*
X6488Y14775D02*
X6617Y14646D01*
X6132Y15046D02*
X6219Y14958D01*
Y14820D02*
Y14958D01*
Y14820D02*
X6361Y14679D01*
X6219Y14531D02*
Y14693D01*
X6568Y15170D02*
X6588Y15060D01*
X6617Y15031D01*
Y14902D02*
Y15031D01*
X6413Y15234D02*
X6443Y15264D01*
Y15495D01*
X6737Y14782D02*
Y15220D01*
Y14782D02*
X6873Y14646D01*
X6219Y14531D02*
X6361Y14390D01*
Y14902D02*
Y14992D01*
X6228Y15125D02*
X6361Y14992D01*
X17703Y9395D02*
Y9420D01*
Y9395D02*
X18239Y8860D01*
X17703Y8280D02*
X17703Y8280D01*
X17703Y8280D02*
Y8860D01*
X17511Y8280D02*
X17703D01*
X17456Y8335D02*
X17511Y8280D01*
X17456Y8335D02*
Y9508D01*
X17295Y9669D02*
X17456Y9508D01*
X17035Y9669D02*
X17295D01*
X11248Y24453D02*
X11321Y24380D01*
X7450Y26130D02*
X7615D01*
X7450Y25738D02*
X7615D01*
X6018Y15208D02*
X6132Y15094D01*
Y15046D02*
Y15094D01*
X6228Y15125D02*
Y15330D01*
X6911Y17570D02*
Y17812D01*
X6925Y19850D02*
X6931Y19844D01*
X6251Y19850D02*
X6925D01*
X6261Y19340D02*
X6265Y19344D01*
X6931D01*
X6221Y18830D02*
X6235Y18844D01*
X6931D01*
X6221Y18340D02*
X6225Y18344D01*
X6931D01*
X6905Y17818D02*
X6931Y17844D01*
X6361Y14646D02*
Y14679D01*
X7385Y14902D02*
Y16887D01*
X7505Y15142D02*
Y16821D01*
Y15142D02*
X7517Y15130D01*
X8529Y18844D02*
X8535Y18839D01*
X7385Y12250D02*
Y12598D01*
X8529Y19344D02*
X8535Y19350D01*
X6873Y12854D02*
X6977Y12750D01*
Y12750D02*
X6993Y12733D01*
X6977Y12750D02*
Y12750D01*
X6993Y12013D02*
Y12733D01*
Y12013D02*
X6997Y12010D01*
X8408Y14388D02*
X8507Y14290D01*
X8408Y14388D02*
Y14390D01*
X8609Y23818D02*
X8697Y23906D01*
Y24109D01*
X440Y14933D02*
X689Y15182D01*
X1227Y13976D02*
X1476D01*
X1948D02*
X2047D01*
X7892Y15165D02*
X7947Y15220D01*
X8093Y14075D02*
X8152Y14134D01*
X8408D02*
X8507Y14035D01*
X8027Y12470D02*
Y12473D01*
X8152Y12598D01*
X10075Y23880D02*
Y24109D01*
X10665Y23908D02*
Y24109D01*
X9681Y23349D02*
Y24109D01*
X9484Y23592D02*
Y24109D01*
X10020Y23087D02*
X10251Y22856D01*
X7748Y12450D02*
X7896Y12598D01*
X8408Y14902D02*
X8537Y15030D01*
X8037Y15017D02*
X8152Y14902D01*
X7747Y12450D02*
X7748D01*
X5977Y15030D02*
X6105Y14902D01*
X6873D02*
X6981Y15010D01*
X6987D01*
X7129Y14646D02*
X7267Y14784D01*
X7385Y14646D02*
X7517Y14778D01*
Y15130D01*
X7641Y14646D02*
X7777Y14782D01*
Y15070D01*
X6873Y14134D02*
X7001Y14006D01*
X7003D01*
X7129Y14134D02*
X7257Y14006D01*
X7259D01*
X7515Y14008D02*
X7641Y14134D01*
X7515Y14006D02*
Y14008D01*
X6873Y13878D02*
X7003Y13748D01*
X7129Y13878D02*
X7257Y13750D01*
X6745D02*
X6873Y13622D01*
X6737Y13750D02*
X6745D01*
X6361Y13366D02*
X6420Y13425D01*
X7129Y12854D02*
Y12862D01*
X7259Y12992D01*
X7505Y13041D02*
X7641Y12854D01*
X7896D02*
X8027Y12985D01*
X8152Y12854D02*
Y12859D01*
X8027Y12985D02*
X8152Y12859D01*
X7385Y12854D02*
X7503Y12736D01*
X7505D01*
X6747Y12473D02*
X6873Y12598D01*
X6747Y12461D02*
Y12473D01*
X6617Y12854D02*
Y12990D01*
X6718Y13091D01*
X7129Y12250D02*
Y12598D01*
X7039Y5184D02*
Y5475D01*
Y5184D02*
X7165Y5058D01*
X8537Y15030D02*
Y15040D01*
X7259Y13240D02*
X7385Y13366D01*
X6755Y13484D02*
X6757D01*
X7129Y15073D02*
Y15220D01*
X7267Y14784D02*
Y15220D01*
X7129Y15073D02*
X7132Y15070D01*
X689Y15182D02*
X1901D01*
X1948Y14134D02*
X2047D01*
X2229Y14316D01*
Y14318D01*
X2231Y14320D01*
X9141Y18344D02*
X9247Y18238D01*
X8529Y18344D02*
X9141D01*
X2231Y14320D02*
Y15019D01*
X6352Y14134D02*
X6361D01*
X6235Y14250D02*
X6352Y14134D01*
X10468Y23878D02*
Y24109D01*
X10272Y23867D02*
Y24109D01*
Y23867D02*
X10611Y23528D01*
X10251Y23590D02*
Y23704D01*
X10075Y23880D02*
X10251Y23704D01*
X11010Y24453D02*
X11248D01*
X7965Y25044D02*
X8352D01*
X4447Y22360D02*
X4533Y22447D01*
X4215Y22360D02*
X4447D01*
Y22675D02*
X4545Y22577D01*
X4215Y22675D02*
X4447D01*
X5790Y22447D02*
X6406Y23062D01*
Y25674D02*
X6597Y25865D01*
X6906Y25738D02*
X7071D01*
X6780Y25865D02*
X6906Y25738D01*
X5737Y22577D02*
X6276Y23116D01*
Y25728D02*
X6543Y25995D01*
X6766D02*
X6901Y26130D01*
X7071D01*
X6597Y25865D02*
X6780D01*
X6543Y25995D02*
X6766D01*
X7615Y25738D02*
X7742Y25865D01*
X7615Y26130D02*
X7750Y25995D01*
X7742Y25865D02*
X8097D01*
X8130Y25831D02*
X8352D01*
X8097Y25865D02*
X8130Y25831D01*
X7750Y25995D02*
X8097D01*
X8130Y26028D01*
X8352D01*
X1673Y22633D02*
X2135D01*
X2274Y22773D01*
X2486D02*
X2544Y22714D01*
X2274Y22773D02*
X2486D01*
X2637Y22714D02*
X2903D01*
X2544D02*
X2637D01*
X2903D02*
X2997D01*
X3065Y22783D01*
X3325D01*
X2274Y22262D02*
X2486D01*
X2159Y22378D02*
X2274Y22262D01*
X2486D02*
X2544Y22321D01*
X1673Y22378D02*
X2159D01*
X2637Y22321D02*
X2903D01*
X2544D02*
X2637D01*
X2903D02*
X2992D01*
X3423Y22360D02*
X3545D01*
X3325Y22783D02*
X3432Y22675D01*
X3545D01*
X4545Y22577D02*
X5737D01*
X4533Y22447D02*
X5790D01*
X1948Y12402D02*
X2052D01*
X1948Y12087D02*
X2060D01*
X2070Y12077D01*
X8283Y14520D02*
X8677D01*
X8152Y14390D02*
X8283Y14520D01*
X6784Y4868D02*
X7251D01*
X8408Y14646D02*
X8647D01*
X7039Y7345D02*
Y7550D01*
X7119Y7630D01*
X7860Y7820D02*
Y8071D01*
X7870Y8081D01*
X6842Y7345D02*
X6843Y7346D01*
Y7570D01*
X7091Y7817D01*
X7474D01*
X7470Y7821D02*
Y8081D01*
Y7821D02*
X7474Y7817D01*
X6448Y5204D02*
X6784Y4868D01*
X6448Y5204D02*
Y5475D01*
X9287Y26766D02*
Y27006D01*
X9484Y26766D02*
Y27013D01*
X8811Y21090D02*
X11971D01*
X12151Y21270D01*
X11571Y27300D02*
X11621D01*
X11631Y27310D01*
X11871D01*
X11010Y26422D02*
X11023Y26435D01*
X9681Y26766D02*
Y27030D01*
X12321Y22140D02*
X13102D01*
X11010Y25044D02*
X11317D01*
X10611Y23528D02*
X11104D01*
X11631Y22830D02*
X12321Y22140D01*
X10723Y23850D02*
X11081D01*
X10468Y23878D02*
X10689Y23658D01*
X11164D01*
X11261Y24050D02*
X11281D01*
X10665Y23908D02*
X10723Y23850D01*
X11010Y25634D02*
X11436D01*
X12131Y26261D02*
X12132Y26260D01*
X11621Y23900D02*
Y24740D01*
X11010Y24847D02*
X11344D01*
X11491Y24700D01*
X11317Y25044D02*
X11621Y24740D01*
X12943Y24722D02*
X13191D01*
X12751Y24530D02*
X12943Y24722D01*
X12411Y25569D02*
X12471Y25509D01*
X12411Y25569D02*
Y25810D01*
X12061Y25589D02*
Y25790D01*
X11491Y23850D02*
X11771Y23570D01*
Y22980D02*
Y23570D01*
Y22980D02*
X12111Y22640D01*
X13102D01*
X11931Y23210D02*
X12261Y22880D01*
X11931Y23210D02*
Y23590D01*
X11621Y23900D02*
X11931Y23590D01*
X11741Y24020D02*
X12061Y23700D01*
Y23400D02*
Y23700D01*
X12321Y23140D02*
X13102D01*
X12061Y23400D02*
X12321Y23140D01*
X11891Y21470D02*
X11896Y21475D01*
X12346D01*
X12471Y21350D01*
X13102Y23640D02*
X13741D01*
X14700D02*
Y23921D01*
X12121Y24130D02*
X12321Y23930D01*
X13721D01*
X13931Y23720D01*
Y23250D02*
Y23720D01*
X14041Y23140D02*
X14700D01*
X13931Y23250D02*
X14041Y23140D01*
X9009Y22413D02*
Y23116D01*
Y22413D02*
X9299Y22122D01*
X9389D01*
X9430D01*
X11871Y27300D02*
Y27310D01*
Y27300D02*
X12251Y26920D01*
X8894Y23912D02*
Y24109D01*
X7381Y21630D02*
X8511Y20500D01*
X11491Y22340D02*
X12191Y21640D01*
X13102D01*
X8021Y23039D02*
X8894Y23912D01*
X8021Y21880D02*
Y23039D01*
Y21880D02*
X8811Y21090D01*
X8499Y23818D02*
X8609D01*
X9905Y23087D02*
X10020D01*
X7671Y20870D02*
X7944Y20597D01*
X7859Y20318D02*
X7944Y20403D01*
Y20597D01*
X12471Y21350D02*
X13696D01*
X13801Y21455D01*
Y23580D01*
X13741Y23640D02*
X13801Y23580D01*
X8511Y20500D02*
X8761D01*
X8971Y20290D01*
X11891D01*
X11441Y19399D02*
X12480D01*
X12521Y19440D01*
X14700Y23140D02*
X16101D01*
X7641Y14902D02*
Y16643D01*
X8278Y17280D01*
X7777Y15220D02*
Y16539D01*
X7797Y16559D01*
X7538Y12496D02*
X7641Y12598D01*
X7538Y12316D02*
X7540Y12314D01*
X7538Y12316D02*
Y12496D01*
X7540Y12042D02*
Y12314D01*
X9841Y19190D02*
X10161Y19510D01*
X8529Y19344D02*
X8533Y19340D01*
X9261D01*
X9701Y17883D02*
Y19050D01*
X9841Y19190D01*
X9256Y18844D02*
X9261Y18839D01*
X8529Y18844D02*
X9256D01*
X14561Y28070D02*
X16841Y25790D01*
X1948Y14291D02*
X2047D01*
Y13976D02*
X2346Y14276D01*
Y15102D01*
X6127Y14786D02*
X6219Y14693D01*
X6002Y14786D02*
X6127D01*
X6015Y14646D02*
X6105D01*
X6374Y10543D02*
Y10936D01*
Y10543D02*
X6377Y10540D01*
X5991Y14248D02*
X6105Y14134D01*
X6015Y14480D02*
X6105Y14390D01*
X8278Y17280D02*
X9098D01*
X1211Y11929D02*
X1227D01*
X5990Y13269D02*
X5999Y13260D01*
X5990Y13269D02*
Y13270D01*
X8152Y14646D02*
X8246D01*
X8380Y14780D02*
X8587D01*
X8246Y14646D02*
X8380Y14780D01*
X7896Y14646D02*
X8038Y14787D01*
X8200D01*
X8267Y14854D01*
Y14975D01*
X8512Y15220D01*
X8037Y15017D02*
Y15020D01*
X7891Y14983D02*
X7892Y14980D01*
X7896Y14902D01*
X7892Y14980D02*
Y14980D01*
X7891Y14983D02*
X7892Y14980D01*
Y15165D01*
X7129Y14902D02*
X7132Y14905D01*
Y14980D02*
X7132Y14984D01*
X7129Y14902D02*
X7132Y14980D01*
Y14980D01*
Y14905D02*
Y14980D01*
Y14980D02*
Y15070D01*
X8512Y15220D02*
X10260D01*
X10733Y14747D01*
X11013D01*
X8757Y14950D02*
X10360D01*
X10723Y14587D01*
X10973D01*
X8821Y14820D02*
X10320D01*
X10733Y14407D01*
X10933D01*
X10723Y14247D02*
X10903D01*
X8847Y14690D02*
X10280D01*
X10723Y14247D01*
X1121Y14449D02*
X1227D01*
X970Y14600D02*
X1121Y14449D01*
X965Y14600D02*
X970D01*
D49*
X3343Y7298D02*
X3840D01*
X3343Y6708D02*
X3840D01*
X3343Y6117D02*
X3840D01*
X2510Y12500D02*
X3220Y11790D01*
X3247Y11763D01*
Y11367D02*
Y11763D01*
X2539Y10659D02*
X3247Y11367D01*
X12962Y4322D02*
X13052Y4232D01*
X12948D02*
X13052D01*
X15932Y17030D02*
X15935Y17032D01*
X16792Y5731D02*
X17151D01*
X10210Y883D02*
X12703D01*
X10210D02*
Y2350D01*
X9847Y883D02*
X10210D01*
X15728Y17512D02*
X15935Y17306D01*
Y17032D02*
Y17306D01*
X3346Y5530D02*
X3840D01*
X3343Y5527D02*
X3346Y5530D01*
X15740Y11230D02*
X15971D01*
X7570Y11019D02*
X7740Y11189D01*
X7570Y10960D02*
Y11019D01*
X12108Y6338D02*
X12430D01*
X9392Y3622D02*
X12108Y6338D01*
X9392Y3420D02*
Y3622D01*
X7740Y11189D02*
Y11510D01*
X2140Y13820D02*
X2337Y14017D01*
X2500D01*
X2241Y11419D02*
Y11709D01*
X18380Y7580D02*
X18611Y7811D01*
X13220Y7580D02*
X18380D01*
X13010Y7370D02*
X13220Y7580D01*
X13010Y6690D02*
Y7370D01*
X12270Y2870D02*
X12510Y3110D01*
X11820Y2420D02*
X12270Y2870D01*
X12510Y3110D02*
Y4260D01*
X10990Y2420D02*
X11820D01*
X5850Y3610D02*
Y3930D01*
X5850Y3930D01*
X17151Y5731D02*
X17322Y5902D01*
X12510Y4260D02*
X13020Y4770D01*
X15914Y1210D02*
X16258Y866D01*
X13030Y1210D02*
X15914D01*
X12703Y883D02*
X13030Y1210D01*
X10210Y2350D02*
X10280Y2420D01*
X10990D01*
X13020Y4770D02*
Y6680D01*
X13010Y6690D02*
X13020Y6680D01*
X12900Y4185D02*
X12948Y4232D01*
X12900Y3810D02*
Y4185D01*
X12962Y4322D02*
X13052D01*
X18611Y7811D02*
Y9410D01*
X18239Y9420D02*
X18601D01*
X18611Y9410D01*
X11486Y17580D02*
X11797D01*
X9231Y27540D02*
Y28221D01*
X9250Y28240D01*
X5493Y27180D02*
X6300D01*
X17045Y14034D02*
X17084Y13994D01*
X17310D01*
X17703Y9875D02*
X17871Y10043D01*
X17703Y9420D02*
Y9875D01*
X5461Y27212D02*
X5493Y27180D01*
X4891Y27212D02*
X5461D01*
X5113Y26680D02*
Y26990D01*
X4891Y27212D02*
X5113Y26990D01*
X4671Y26800D02*
X4993D01*
X5113Y26680D01*
X4161Y25650D02*
X4404Y25408D01*
X4593D01*
X16626Y11230D02*
Y11908D01*
X11478Y16630D02*
X11486Y16638D01*
Y17010D01*
X2780Y8480D02*
X3343D01*
X6290Y3820D02*
X6300Y3810D01*
X6290Y3820D02*
Y4143D01*
X15689Y12734D02*
X15847Y12577D01*
X15345Y12734D02*
X15689D01*
X14666Y12427D02*
X14978D01*
X15089Y12538D01*
X15345D01*
X14993Y13185D02*
X15049Y13128D01*
X15345D01*
X15601Y13325D02*
X15729D01*
X15601Y13325D02*
X15601Y13325D01*
X15345Y13325D02*
X15601D01*
X15137Y17030D02*
X15932D01*
X6251Y8472D02*
Y8777D01*
X4831Y8469D02*
Y8760D01*
X5177Y4723D02*
X5479D01*
X5167Y4713D02*
X5177Y4723D01*
X13519Y1535D02*
Y1545D01*
X17233Y13681D02*
X17402Y13512D01*
X17233Y13681D02*
Y13994D01*
X14981Y12931D02*
X15345D01*
X14949Y12963D02*
X14981Y12931D01*
X14666Y12963D02*
X14949D01*
X17058Y13325D02*
X17343D01*
X17402Y13384D01*
Y13512D01*
X2763Y24626D02*
Y24998D01*
X2321Y24540D02*
Y24850D01*
X3921Y23563D02*
Y24006D01*
X10950Y17010D02*
Y17030D01*
X12501Y6830D02*
Y9140D01*
X12098Y17032D02*
X12105Y17024D01*
X12098Y17032D02*
Y17370D01*
X11500Y17024D02*
X12105D01*
X11486Y17010D02*
X11500Y17024D01*
X12430Y6338D02*
Y6759D01*
X12501Y6830D01*
X10258Y16898D02*
X10558Y16598D01*
X10258Y16898D02*
Y17210D01*
X1530Y10709D02*
X2241Y11419D01*
X2431Y11270D02*
Y11709D01*
X1831Y10669D02*
X2431Y11270D01*
X2165Y10679D02*
X2615Y11129D01*
X2165Y10660D02*
Y10679D01*
X2615Y11129D02*
Y11740D01*
X10558Y15402D02*
Y16598D01*
Y15402D02*
X10820Y15140D01*
D50*
X11010Y26225D02*
X11331D01*
X4561Y24300D02*
Y24970D01*
X6757Y10932D02*
Y11330D01*
X5791Y18060D02*
X7147Y16704D01*
Y15238D02*
Y16704D01*
X7619Y17329D02*
Y20033D01*
X7267Y16976D02*
X7619Y17329D01*
X9148Y17130D02*
X9911Y17893D01*
Y18230D01*
X6757Y11330D02*
Y11530D01*
X6873Y11646D01*
X6964D01*
X325Y3955D02*
Y14985D01*
X8450Y1660D02*
X8690Y1420D01*
X4610Y1660D02*
X8450D01*
X3260Y3010D02*
X4610Y1660D01*
X8690Y1420D02*
X9392D01*
X1270Y3010D02*
X3260D01*
X325Y3955D02*
X1270Y3010D01*
X4680Y24261D02*
X4721Y24220D01*
X4600Y24261D02*
X4680D01*
X4561Y24300D02*
X4600Y24261D01*
X3299Y23780D02*
Y24066D01*
X3281Y23430D02*
Y23762D01*
X3299Y23780D01*
X3281Y23430D02*
X3299Y23448D01*
X11331Y26230D02*
X11361D01*
X7538Y21723D02*
Y24390D01*
X7544D02*
X8001Y24847D01*
X7538Y24390D02*
X7544D01*
X7687Y24323D02*
X8014Y24650D01*
X7687Y21744D02*
Y24323D01*
X7821Y21779D02*
Y24268D01*
X6737Y15220D02*
Y15440D01*
X4883Y16807D02*
X5369D01*
X7129Y15220D02*
X7147Y15238D01*
X7267Y15220D02*
Y16976D01*
X6757Y10932D02*
X6763Y10926D01*
X7947Y15220D02*
Y15310D01*
X7416Y20236D02*
X7619Y20033D01*
X8509Y19864D02*
X8529Y19844D01*
X8509Y19864D02*
Y20246D01*
X640Y15300D02*
X1950D01*
X2231Y15019D01*
X8014Y24650D02*
X8352D01*
X8007Y24453D02*
X8352D01*
X8001Y24847D02*
X8352D01*
X8028Y25634D02*
X8352D01*
X7982Y25680D02*
X8028Y25634D01*
X5091Y24574D02*
Y24980D01*
X4721Y24040D02*
Y24220D01*
X325Y14985D02*
X640Y15300D01*
X14081Y22140D02*
X14700D01*
X7821Y24268D02*
X8007Y24453D01*
X7687Y21744D02*
X8663Y20768D01*
X7821Y21779D02*
X8703Y20898D01*
X12239D01*
X14021Y22640D02*
X14700D01*
X14036Y22095D02*
X14081Y22140D01*
X14036Y21165D02*
Y22095D01*
X13639Y20768D02*
X14036Y21165D01*
X13916Y22535D02*
X14021Y22640D01*
X13916Y21407D02*
Y22535D01*
X14700Y21409D02*
Y21640D01*
X13599Y21090D02*
X13916Y21407D01*
X12239Y20898D02*
X12431Y21090D01*
X13599D01*
X7538Y21723D02*
X8646Y20615D01*
X8809D01*
X8914Y20510D01*
X13801D02*
X14700Y21409D01*
X8663Y20768D02*
X13041D01*
X13639D01*
X8914Y20510D02*
X13521D01*
X13801D01*
X7797Y16559D02*
X8368Y17130D01*
X6964Y11646D02*
X7238Y11920D01*
Y12141D01*
X7129Y12250D02*
X7238Y12141D01*
X9911Y18230D02*
X10181Y18500D01*
X5369Y16807D02*
X6737Y15440D01*
X8368Y17130D02*
X9148D01*
D51*
X13856Y9163D02*
X13870D01*
X15322Y8795D02*
Y9206D01*
X16179Y8538D02*
Y8795D01*
X15901Y8260D02*
X16179Y8538D01*
X15549Y8260D02*
X15901D01*
X15847Y12577D02*
X16091Y12333D01*
X15906Y11671D02*
X16091Y11856D01*
X13870Y9163D02*
X14072Y8960D01*
X13856Y9163D02*
Y9453D01*
X14289Y8260D02*
X14919D01*
Y8795D02*
X15322D01*
Y9206D02*
X15322Y9207D01*
X13856Y9453D02*
X14186D01*
X14284Y9551D01*
X14879D01*
X16091Y11856D02*
Y11908D01*
Y12333D01*
D52*
X3130Y22508D02*
X3160D01*
X3130D02*
Y22518D01*
X2903D02*
X3130D01*
D53*
X15656Y6849D02*
X15660Y6853D01*
X16558Y7380D02*
X16836Y7102D01*
X15037Y7380D02*
X16558D01*
X14496Y6839D02*
X15037Y7380D01*
X15660Y6853D02*
Y7150D01*
X17160Y6370D02*
X17322D01*
X17410Y6458D01*
X17094Y6304D02*
X17160Y6370D01*
X16836Y6304D02*
X17094D01*
X16251D02*
X16836D01*
X15666D02*
X16251D01*
X16836Y6839D02*
Y7102D01*
X15656Y6849D02*
X15666Y6839D01*
X15081D02*
X15666D01*
X14496Y6304D02*
X15081D01*
Y6017D02*
Y6304D01*
Y6017D02*
X15367Y5731D01*
X15748D01*
X15322Y9207D02*
Y9472D01*
X14879Y9551D02*
X14997Y9669D01*
X15322D01*
X14870Y9953D02*
X14957Y9866D01*
X15322D01*
X14643Y9953D02*
X14870D01*
X14694Y10488D02*
X14919Y10264D01*
Y10210D02*
Y10264D01*
X14643Y10488D02*
X14694D01*
X14919Y10210D02*
X15066Y10063D01*
X15322D01*
X16674Y12734D02*
X16674Y12734D01*
X17058D01*
Y13128D02*
X17353D01*
X16811Y8798D02*
X16863D01*
X16871Y8790D01*
X17249Y8798D02*
X17251Y8800D01*
X16879Y8798D02*
X17249D01*
X17353Y13128D02*
X17651Y13426D01*
X16863Y8798D02*
X16879D01*
X7470Y8460D02*
X7870D01*
D54*
X5147Y13190D02*
X5237Y13100D01*
X5050Y13190D02*
X5147D01*
X4970Y13110D02*
X5050Y13190D01*
X4807Y13110D02*
X4970D01*
X6529Y9890D02*
X8510D01*
X6529Y9340D02*
X8480D01*
X6579Y9770D02*
X8560D01*
X6579Y9460D02*
X8530D01*
X6527Y9512D02*
X6579Y9460D01*
X6407Y9462D02*
X6529Y9340D01*
X9370Y12890D02*
X9550Y12710D01*
X9210Y12890D02*
X9370D01*
X9110Y12990D02*
X9210Y12890D01*
X9110Y12990D02*
Y13150D01*
X9870Y13320D02*
X10467Y12724D01*
X9720Y13320D02*
X9870D01*
X9630Y13410D02*
X9720Y13320D01*
X9630Y13410D02*
Y13560D01*
X9890Y14200D02*
X11050Y13040D01*
X8927Y14200D02*
X9890D01*
X8090Y6750D02*
X8380D01*
X8040Y6870D02*
X8330D01*
X7837Y6667D02*
X8040Y6870D01*
X7887Y6547D02*
X8090Y6750D01*
X8590Y7250D02*
X8700Y7360D01*
X8505Y7335D02*
X8650Y7480D01*
X9670Y11300D02*
Y12760D01*
X9520Y11150D02*
X9670Y11300D01*
X9520Y10870D02*
X9670Y10720D01*
Y10490D02*
Y10720D01*
Y9690D02*
Y9910D01*
X9520Y10340D02*
X9670Y10490D01*
X9180Y10870D02*
X9520D01*
Y10060D02*
X9670Y9910D01*
X9180Y11150D02*
X9520D01*
X9180Y10060D02*
X9520D01*
Y9540D02*
X9670Y9690D01*
X9180Y9540D02*
X9520D01*
Y9260D02*
X9670Y9110D01*
Y8890D02*
Y9110D01*
X9520Y8740D02*
X9670Y8890D01*
Y8080D02*
Y8320D01*
X9530Y7940D02*
X9670Y8080D01*
X9530Y8460D02*
X9670Y8320D01*
X9180Y8740D02*
X9520D01*
X9180Y8460D02*
X9530D01*
X9180Y9260D02*
X9520D01*
X9280Y7940D02*
X9530D01*
X9180Y7840D02*
X9280Y7940D01*
X9180Y7540D02*
Y7840D01*
X9100Y11070D02*
X9180Y11150D01*
X9100Y10950D02*
X9180Y10870D01*
X9064Y13366D02*
X9670Y12760D01*
X9180Y10340D02*
X9520D01*
X9100Y10261D02*
X9180Y10340D01*
X9100Y9461D02*
X9180Y9540D01*
X8408Y13366D02*
X9064D01*
X9100Y10950D02*
Y11070D01*
Y10140D02*
X9180Y10060D01*
X9100Y9340D02*
Y9461D01*
Y10140D02*
Y10261D01*
Y8661D02*
X9180Y8740D01*
X9100Y8540D02*
Y8661D01*
Y9340D02*
X9180Y9260D01*
X9100Y8540D02*
X9180Y8460D01*
X9000Y7360D02*
X9180Y7540D01*
X8700Y7360D02*
X9000D01*
X7521Y6547D02*
X7887D01*
X7483Y6508D02*
X7521Y6547D01*
X7285Y6508D02*
X7483D01*
X9550Y11350D02*
Y12710D01*
X9470Y11270D02*
X9550Y11350D01*
X9470Y10750D02*
X9550Y10670D01*
Y10540D02*
Y10670D01*
X9470Y10460D02*
X9550Y10540D01*
X9470Y9940D02*
X9550Y9861D01*
X9130Y11270D02*
X9470D01*
X9130Y10460D02*
X9470D01*
X9130Y9940D02*
X9470D01*
X9130Y10750D02*
X9470D01*
X9550Y9740D02*
Y9861D01*
Y8940D02*
Y9061D01*
X9470Y9660D02*
X9550Y9740D01*
X9470Y9140D02*
X9550Y9061D01*
Y8130D02*
Y8270D01*
X9480Y8060D02*
X9550Y8130D01*
X9470Y8860D02*
X9550Y8940D01*
X9130Y9140D02*
X9470D01*
X9130Y8860D02*
X9470D01*
X9130Y9660D02*
X9470D01*
X9480Y8340D02*
X9550Y8270D01*
X9230Y8060D02*
X9480D01*
X9130Y8340D02*
X9480D01*
X8980Y10310D02*
X9130Y10460D01*
X8980Y10090D02*
X9130Y9940D01*
X8980Y11120D02*
X9130Y11270D01*
X8980Y10900D02*
X9130Y10750D01*
X8980Y9290D02*
X9130Y9140D01*
X8980Y8710D02*
X9130Y8860D01*
X8980Y9510D02*
X9130Y9660D01*
X8272Y13246D02*
X9014D01*
X9110Y13150D01*
X8152Y13366D02*
X8272Y13246D01*
X8980Y10090D02*
Y10310D01*
Y9290D02*
Y9510D01*
Y10900D02*
Y11120D01*
X9095Y7925D02*
X9230Y8060D01*
X9095Y7925D02*
Y7925D01*
X8980Y8490D02*
Y8710D01*
Y8490D02*
X9130Y8340D01*
X9060Y7890D02*
X9095Y7925D01*
X9060Y7590D02*
Y7890D01*
X8950Y7480D02*
X9060Y7590D01*
X8650Y7480D02*
X8950D01*
X7483Y6705D02*
X7521Y6667D01*
X7837D01*
X7285Y6705D02*
X7483D01*
X8330Y6870D02*
X8470Y7010D01*
Y7300D01*
X8505Y7335D01*
Y7335D01*
X8380Y6750D02*
X8590Y6960D01*
Y7250D01*
X7779Y5650D02*
X8650D01*
X7670Y5759D02*
X7779Y5650D01*
X8650D02*
X11050Y8050D01*
X9580Y13780D02*
X10587Y12773D01*
X8989Y13780D02*
X9580D01*
X10587Y12460D02*
Y12773D01*
X4017Y13210D02*
X4707D01*
X4807Y13110D01*
X1584Y13504D02*
X1948D01*
X1549Y14449D02*
X1948D01*
X1227Y12087D02*
X1553D01*
X4500Y14010D02*
X4590Y13920D01*
Y13710D02*
Y13920D01*
Y13710D02*
X4678Y13622D01*
X5490Y13740D02*
X5599D01*
X5372Y13622D02*
X5490Y13740D01*
X5107Y13622D02*
X5372D01*
X4880Y13720D02*
X5009D01*
X4782Y13622D02*
X4880Y13720D01*
X4678Y13622D02*
X4782D01*
X5599Y13740D02*
X5717Y13622D01*
X5563Y14587D02*
X5640Y14510D01*
X5071Y14587D02*
X5563D01*
X5248Y14467D02*
X5957Y13758D01*
X5121Y14467D02*
X5248D01*
X5035Y14380D02*
X5121Y14467D01*
X5580Y14305D02*
X6007Y13878D01*
X5580Y14387D02*
X5640Y14447D01*
X5580Y14305D02*
Y14387D01*
X5640Y14447D02*
Y14510D01*
X5957Y13758D02*
X6241D01*
X6007Y13878D02*
X6105D01*
X4950Y14465D02*
X5071Y14587D01*
X5179Y6273D02*
X5217Y6312D01*
X5415D01*
X4863Y6273D02*
X5179D01*
X4760Y6170D02*
X4863Y6273D01*
X4630Y6170D02*
X4760D01*
X3343Y6314D02*
X3886D01*
X4023Y6177D01*
X5179Y6153D02*
X5217Y6115D01*
X5415D01*
X4913Y6153D02*
X5179D01*
X4810Y6050D02*
X4913Y6153D01*
X3890Y5920D02*
X4027Y6057D01*
X3343Y5920D02*
X3890D01*
X4580Y6220D02*
X4630Y6170D01*
X4580Y6050D02*
X4810D01*
X4580Y6220D02*
X4580D01*
X4530Y6270D02*
X4580Y6220D01*
X4300Y6270D02*
X4530D01*
X4250Y6220D02*
X4300Y6270D01*
X4250Y6220D02*
X4250D01*
X4480Y6150D02*
X4580Y6050D01*
X4350Y6150D02*
X4480D01*
X4863Y6547D02*
X5179D01*
X4762Y6648D02*
X4863Y6547D01*
X4648Y6648D02*
X4762D01*
X4590Y6590D02*
X4648Y6648D01*
X4590Y6590D02*
X4590D01*
X4913Y6667D02*
X5179D01*
X4812Y6768D02*
X4913Y6667D01*
X4598Y6768D02*
X4812D01*
X4563Y6733D02*
X4598Y6768D01*
X4563Y6733D02*
X4563D01*
X4257Y6057D02*
X4350Y6150D01*
X4027Y6057D02*
X4257D01*
X4207Y6177D02*
X4250Y6220D01*
X4023Y6177D02*
X4207D01*
X4023Y5587D02*
X4747D01*
X3886Y5724D02*
X4023Y5587D01*
X3343Y5724D02*
X3886D01*
X4027Y5467D02*
X4797D01*
X3890Y5330D02*
X4027Y5467D01*
X3343Y5330D02*
X3890D01*
X4022Y7358D02*
X4792D01*
X3885Y7495D02*
X4022Y7358D01*
X3343Y7495D02*
X3885D01*
X4018Y7238D02*
X4742D01*
X3882Y7102D02*
X4018Y7238D01*
X3343Y7102D02*
X3882D01*
X3881Y6511D02*
X4018Y6648D01*
X3343Y6511D02*
X3881D01*
X4018Y6648D02*
X4180D01*
X5179Y5759D02*
X5217Y5721D01*
X5089Y5759D02*
X5179D01*
X5217Y5721D02*
X5415D01*
X5179Y5879D02*
X5217Y5918D01*
X5040Y5879D02*
X5179D01*
X5217Y5918D02*
X5415D01*
X4555Y6555D02*
X4590Y6590D01*
X5217Y6508D02*
X5415D01*
X5179Y6547D02*
X5217Y6508D01*
X4238Y6590D02*
X4238D01*
X4273Y6555D02*
X4555D01*
X4180Y6648D02*
X4238Y6590D01*
X4238D02*
X4273Y6555D01*
X5217Y6705D02*
X5415D01*
X5179Y6667D02*
X5217Y6705D01*
X3885Y6905D02*
X4022Y6768D01*
X4230D01*
X3343Y6905D02*
X3885D01*
X4505Y6675D02*
X4563Y6733D01*
X4230Y6768D02*
X4323Y6675D01*
X4505D01*
X8580Y7980D02*
Y9240D01*
X8700Y7930D02*
Y9290D01*
X9098Y11660D02*
Y12599D01*
X8563Y12964D02*
X8978Y12549D01*
X8586Y13110D02*
X9098Y12599D01*
X10587Y8367D02*
Y8623D01*
X10467Y8416D02*
Y8574D01*
X9530Y13660D02*
X9630Y13560D01*
X10467Y12510D02*
Y12724D01*
X10280Y10690D02*
X10440D01*
X10270Y8780D02*
X10430D01*
X10230Y10810D02*
X10390D01*
X10220Y8660D02*
X10380D01*
X8240Y6190D02*
X10467Y8416D01*
X8290Y6070D02*
X10587Y8367D01*
X8451Y7681D02*
X8700Y7930D01*
X7710Y6941D02*
X8451Y7681D01*
X7521Y6941D02*
X7710D01*
X10430Y12010D02*
X10587Y11853D01*
X10416Y12290D02*
X10587Y12460D01*
Y11637D02*
Y11853D01*
X10440Y11490D02*
X10587Y11637D01*
X10240Y12290D02*
X10416D01*
X10230Y12010D02*
X10430D01*
X10240Y11490D02*
X10440D01*
X10230Y11210D02*
X10430D01*
X10587Y10837D02*
Y11053D01*
X10440Y10690D02*
X10587Y10837D01*
X10430Y11210D02*
X10587Y11053D01*
X10430Y8780D02*
X10587Y8623D01*
X10190Y10600D02*
X10280Y10690D01*
X10190Y8860D02*
Y10600D01*
X10150Y12200D02*
X10240Y12290D01*
X10150Y12090D02*
Y12200D01*
Y11400D02*
X10240Y11490D01*
X10150Y12090D02*
X10230Y12010D01*
X8831Y13622D02*
X8989Y13780D01*
X8408Y13622D02*
X8831D01*
X10150Y11290D02*
X10230Y11210D01*
X10150Y11290D02*
Y11400D01*
X10190Y8860D02*
X10270Y8780D01*
X7483Y6115D02*
X7521Y6153D01*
X7285Y6115D02*
X7483D01*
X10380Y11890D02*
X10467Y11804D01*
X10367Y12410D02*
X10467Y12510D01*
Y11686D02*
Y11804D01*
X10390Y11610D02*
X10467Y11686D01*
X10190Y11610D02*
X10390D01*
X10190Y12410D02*
X10367D01*
X10145Y11925D02*
X10180Y11890D01*
X10145Y11925D02*
X10145D01*
X10180Y11890D02*
X10380D01*
X10145Y11125D02*
X10180Y11090D01*
X10467Y10886D02*
Y11004D01*
X10390Y10810D02*
X10467Y10886D01*
X10380Y11090D02*
X10467Y11004D01*
X10380Y8660D02*
X10467Y8574D01*
X10180Y11090D02*
X10380D01*
X10185Y8695D02*
X10185D01*
X10220Y8660D01*
X10030Y12250D02*
X10190Y12410D01*
X10030Y12040D02*
Y12250D01*
Y11450D02*
X10190Y11610D01*
X10030Y11240D02*
Y11450D01*
Y12040D02*
X10145Y11925D01*
X9039Y13660D02*
X9530D01*
X8881Y13502D02*
X9039Y13660D01*
X8272Y13502D02*
X8881D01*
X8152Y13622D02*
X8272Y13502D01*
X10030Y11240D02*
X10145Y11125D01*
X10145D01*
X10070Y10650D02*
X10230Y10810D01*
X10070Y8810D02*
X10185Y8695D01*
X10070Y8810D02*
Y10650D01*
X7930Y6070D02*
X8290D01*
X7847Y6153D02*
X7930Y6070D01*
X7980Y6190D02*
X8240D01*
X7897Y6273D02*
X7980Y6190D01*
X7530Y6273D02*
X7897D01*
X7521Y6153D02*
X7847D01*
X7530Y5759D02*
X7670D01*
X11050Y8050D02*
Y13040D01*
X8605Y13878D02*
X8927Y14200D01*
X8408Y13878D02*
X8605D01*
X7491Y5721D02*
X7530Y5759D01*
X7285Y5721D02*
X7491D01*
X10930Y8100D02*
Y12990D01*
X8655Y13758D02*
X8977Y14080D01*
X8272Y13758D02*
X8655D01*
X8152Y13878D02*
X8272Y13758D01*
X7491Y5918D02*
X7530Y5879D01*
X7285Y5918D02*
X7491D01*
X7720Y5879D02*
X7829Y5770D01*
X7530Y5879D02*
X7720D01*
X8530Y9460D02*
X8700Y9290D01*
X7885Y10545D02*
X7950Y10610D01*
X7885Y10385D02*
Y10545D01*
Y10385D02*
X7950Y10320D01*
X7765Y10335D02*
Y10595D01*
Y10335D02*
X7900Y10200D01*
X7900Y10730D02*
X8500D01*
X7765Y10595D02*
X7900Y10730D01*
X7950Y10610D02*
X8550D01*
X8578Y10808D02*
Y11311D01*
X8698Y10758D02*
Y11261D01*
X8550Y10610D02*
X8698Y10758D01*
Y11261D02*
X9098Y11660D01*
X8408Y13110D02*
X8586D01*
X8500Y10730D02*
X8578Y10808D01*
Y11311D02*
X8978Y11710D01*
Y12050D01*
X8868Y12160D02*
X8978Y12050D01*
X8868Y12160D02*
Y12310D01*
X8978Y12420D01*
Y12549D01*
X8299Y12964D02*
X8563D01*
X8152Y13110D02*
X8299Y12964D01*
X8560Y10320D02*
X8698Y10182D01*
Y9908D02*
Y10182D01*
X8560Y9770D02*
X8698Y9908D01*
X7950Y10320D02*
X8560D01*
X6527Y9718D02*
X6579Y9770D01*
X7483Y6902D02*
X7521Y6941D01*
X6527Y9512D02*
Y9718D01*
X7285Y6902D02*
X7483D01*
X8578Y9958D02*
Y10132D01*
X8510Y10200D02*
X8578Y10132D01*
X8510Y9890D02*
X8578Y9958D01*
X7900Y10200D02*
X8510D01*
X6407Y9768D02*
X6529Y9890D01*
X8480Y9340D02*
X8580Y9240D01*
X7661Y7061D02*
X8580Y7980D01*
X7521Y7061D02*
X7661D01*
X7483Y7099D02*
X7521Y7061D01*
X6407Y9462D02*
Y9768D01*
X7285Y7099D02*
X7483D01*
X3727Y14110D02*
X3774D01*
X3877Y13250D02*
X3977D01*
X3877Y13050D02*
X3977Y13050D01*
X4290Y14010D02*
X4500D01*
X4030Y14270D02*
X4290Y14010D01*
X5009Y13720D02*
X5107Y13622D01*
X3867Y14270D02*
X4030D01*
X4628Y13502D02*
X6241D01*
X3980Y14150D02*
X4628Y13502D01*
X3867Y14150D02*
X3980D01*
X5729Y12095D02*
X5876Y12242D01*
X4993Y12095D02*
X5729D01*
X5679Y12215D02*
X5756Y12291D01*
X5502Y12215D02*
X5679D01*
X5090Y11410D02*
X5325Y11175D01*
X4897Y11410D02*
X5090D01*
X5325Y11175D02*
X5360Y11140D01*
X5040Y11290D02*
X5310Y11020D01*
X4757Y11450D02*
X4857D01*
X4897Y11410D01*
X1079Y12402D02*
X1227D01*
X960Y12421D02*
X1060D01*
X1079Y12402D01*
X6173Y12134D02*
Y12431D01*
X5460Y11140D02*
X5549Y11229D01*
X5360Y11140D02*
X5460D01*
X6361Y12499D02*
Y12598D01*
X6293Y12431D02*
X6361Y12499D01*
X6293Y12085D02*
Y12431D01*
X5669Y11461D02*
X6293Y12085D01*
X4857Y11250D02*
X4897Y11290D01*
X4757Y11250D02*
X4857D01*
X5669Y11179D02*
Y11461D01*
X5310Y11020D02*
X5510D01*
X5669Y11179D01*
X1084Y12244D02*
X1227D01*
X1060Y12220D02*
X1084Y12244D01*
X960Y12220D02*
X1060D01*
X5325Y11175D02*
X5325D01*
X4897Y11290D02*
X5040D01*
X4964Y14253D02*
X5035Y14324D01*
X5035Y14380D02*
X5035Y14324D01*
X6241Y13758D02*
X6361Y13878D01*
X1097Y12717D02*
X1227D01*
X1070Y12690D02*
X1097Y12717D01*
X960Y12690D02*
X1070D01*
X4893Y14465D02*
X4950D01*
X4822Y14394D02*
X4893Y14465D01*
X960Y12900D02*
X1060D01*
X1086Y12874D02*
X1227D01*
X1060Y12900D02*
X1086Y12874D01*
X3977Y13250D02*
X4017Y13210D01*
X5796Y13110D02*
X6105D01*
X5717Y13190D02*
X5796Y13110D01*
X5302Y12875D02*
X5462D01*
X5237Y12941D02*
X5302Y12875D01*
X5237Y12941D02*
Y13100D01*
X960Y13370D02*
X1060D01*
X1084Y13346D01*
X1227D01*
X6241Y12990D02*
X6361Y13110D01*
X4017Y13090D02*
X4657D01*
X3977Y13050D02*
X4017Y13090D01*
X5747Y12990D02*
X6241D01*
X4657Y13090D02*
X4757Y12990D01*
X5512Y12755D02*
X5747Y12990D01*
X5018Y12990D02*
X5252Y12755D01*
X5512D01*
X4757Y12990D02*
X5018D01*
X1099Y13189D02*
X1227D01*
X960Y13150D02*
X1060D01*
X1099Y13189D01*
X5981Y12854D02*
X6105D01*
X5679Y12552D02*
X5981Y12854D01*
X5679Y12461D02*
Y12552D01*
Y12461D02*
X5756Y12384D01*
X5374Y12470D02*
X5437Y12407D01*
X4477Y12550D02*
Y12650D01*
X5265Y12470D02*
X5374D01*
X5197Y12402D02*
X5265Y12470D01*
X4437Y12393D02*
Y12510D01*
X5756Y12291D02*
Y12384D01*
X5437Y12279D02*
Y12407D01*
X5197Y12274D02*
Y12402D01*
X5437Y12279D02*
X5502Y12215D01*
X4520Y12310D02*
X4947D01*
X5043Y12215D01*
X4437Y12393D02*
X4520Y12310D01*
X5138Y12215D02*
X5197Y12274D01*
X5043Y12215D02*
X5138D01*
X4437Y12510D02*
X4477Y12550D01*
X970Y14320D02*
X1070D01*
X1099Y14291D02*
X1227D01*
X1070Y14320D02*
X1099Y14291D01*
X6237Y12730D02*
X6361Y12854D01*
X6026Y12730D02*
X6237D01*
X5876Y12580D02*
X6026Y12730D01*
X5876Y12242D02*
Y12580D01*
X4470Y12190D02*
X4898D01*
X4993Y12095D01*
X4277Y12550D02*
X4317Y12510D01*
X4277Y12550D02*
Y12650D01*
X4317Y12344D02*
X4470Y12190D01*
X4317Y12344D02*
Y12510D01*
X1084Y14134D02*
X1227D01*
X1070Y14120D02*
X1084Y14134D01*
X970Y14120D02*
X1070D01*
X960Y13840D02*
X1060D01*
X1081Y13819D02*
X1227D01*
X1060Y13840D02*
X1081Y13819D01*
X3827Y14310D02*
X3867Y14270D01*
X3727Y14310D02*
X3827Y14310D01*
X3727Y14310D02*
X3727D01*
X5717Y13622D02*
X6105D01*
X1081Y13661D02*
X1227D01*
X1060Y13640D02*
X1081Y13661D01*
X960Y13640D02*
X1060D01*
X3774Y14110D02*
X3827Y14110D01*
X6241Y13502D02*
X6361Y13622D01*
X3827Y14110D02*
X3867Y14150D01*
X2092Y12717D02*
X2170Y12638D01*
X7777Y15070D02*
Y15220D01*
X4797Y5467D02*
X5089Y5759D01*
X4742Y7238D02*
X5040Y6941D01*
X4792Y7358D02*
X5089Y7061D01*
X5179D01*
X5040Y6941D02*
X5179D01*
X5217Y6902D01*
X5415D01*
X5179Y7061D02*
X5217Y7099D01*
X5415D01*
X4747Y5587D02*
X5040Y5879D01*
X6489Y13494D02*
X6491D01*
X1948Y12717D02*
X2092D01*
X1129Y12087D02*
X1227D01*
X994Y11952D02*
X1129Y12087D01*
X955Y11952D02*
X994D01*
X6617Y14646D02*
X6813Y14450D01*
X6847D01*
X5462Y12875D02*
X5540Y12953D01*
Y13110D01*
X5620Y13190D01*
X5717D01*
X6105Y12499D02*
Y12598D01*
Y12499D02*
X6173Y12431D01*
X5460Y11440D02*
X5549Y11351D01*
Y11229D02*
Y11351D01*
X5460Y11440D02*
Y11630D01*
X5550Y11720D01*
X5759D01*
X6173Y12134D01*
X8977Y14080D02*
X9840D01*
X8600Y5770D02*
X10930Y8100D01*
X7829Y5770D02*
X8600D01*
X9840Y14080D02*
X9930Y13990D01*
X10180Y13740D02*
X10930Y12990D01*
X9930Y13840D02*
Y13990D01*
Y13840D02*
X10030Y13740D01*
X10180D01*
X7491Y6312D02*
X7530Y6273D01*
X7285Y6312D02*
X7491D01*
D55*
X13455Y11892D02*
X14044D01*
X3727Y13710D02*
X3877Y13650D01*
X17924Y4500D02*
X17930Y4506D01*
X17924Y3821D02*
Y4500D01*
X14459Y11671D02*
X14713D01*
X14026Y13236D02*
X14823Y14034D01*
X16693Y3821D02*
X17372D01*
X16170Y14261D02*
Y14664D01*
Y14261D02*
X16170Y14260D01*
Y14034D02*
Y14260D01*
X14823Y14034D02*
X16170D01*
X14026Y12104D02*
Y13236D01*
X14044Y11892D02*
X14141Y11989D01*
X14026Y12104D02*
X14141Y11989D01*
X14459Y11671D01*
D56*
X17638Y6842D02*
X17785Y6695D01*
X17638Y6842D02*
X17910Y7115D01*
Y7120D01*
X17760Y7259D02*
Y7260D01*
X17230Y7250D02*
X17638Y6842D01*
X17785Y6135D02*
X18360Y5560D01*
X17785Y6135D02*
Y6695D01*
X17230Y7250D02*
Y7260D01*
X18360Y4580D02*
Y5560D01*
X18286Y4506D02*
X18360Y4580D01*
X17930Y4506D02*
X18286D01*
D57*
X14713Y11671D02*
Y12028D01*
X14661Y12080D02*
X14713Y12028D01*
X14464Y12080D02*
X14661D01*
X14899Y13278D02*
X14993Y13185D01*
X14433Y13278D02*
X14899D01*
X14299Y13145D02*
X14433Y13278D01*
X14299Y12245D02*
Y13145D01*
Y12245D02*
X14464Y12080D01*
X3673Y21450D02*
X3956D01*
D58*
X16179Y9315D02*
Y10378D01*
D59*
X15847Y12577D02*
Y13286D01*
X15808Y13325D02*
X15847Y13286D01*
D60*
X16179Y8795D02*
Y9315D01*
D61*
X15296Y11671D02*
X15906D01*
D62*
X2949Y10054D02*
D03*
Y4346D02*
D03*
X1000Y10291D02*
D03*
Y4109D02*
D03*
D63*
X1673Y21393D02*
D03*
Y23362D02*
D03*
D64*
X610Y23756D02*
D03*
Y21000D02*
D03*
D65*
X12521Y18440D02*
D03*
Y19440D02*
D03*
X13521Y18440D02*
D03*
Y19440D02*
D03*
X14521Y18440D02*
D03*
Y19440D02*
D03*
D66*
X8815Y26304D02*
D03*
X9248D02*
D03*
X9681D02*
D03*
X10114D02*
D03*
X10547D02*
D03*
X8815Y25871D02*
D03*
X9248D02*
D03*
X9681D02*
D03*
X10114D02*
D03*
X10547D02*
D03*
X8815Y25438D02*
D03*
X9248D02*
D03*
X9681D02*
D03*
X10114D02*
D03*
X10547D02*
D03*
X8815Y25004D02*
D03*
X9248D02*
D03*
X9681D02*
D03*
X10114D02*
D03*
X10547D02*
D03*
X8815Y24571D02*
D03*
X9248D02*
D03*
X9681D02*
D03*
X10114D02*
D03*
X10547D02*
D03*
X5917Y6843D02*
D03*
X6350D02*
D03*
X6783D02*
D03*
X5917Y6410D02*
D03*
X6350D02*
D03*
X6783D02*
D03*
X5917Y5977D02*
D03*
X6350D02*
D03*
X6783D02*
D03*
D67*
X14025Y16030D02*
D03*
X14525D02*
D03*
Y15530D02*
D03*
X14025D02*
D03*
Y16530D02*
D03*
X14525D02*
D03*
X13525D02*
D03*
Y16030D02*
D03*
Y15530D02*
D03*
Y17030D02*
D03*
X14025D02*
D03*
X14525D02*
D03*
X6908Y15920D02*
D03*
X8018Y15930D02*
D03*
X8347D02*
D03*
X8737Y15920D02*
D03*
X7169Y10730D02*
D03*
X6380Y11620D02*
D03*
D68*
X16966Y19620D02*
D03*
X18777D02*
D03*
X17871Y20526D02*
D03*
Y18714D02*
D03*
X1254Y26970D02*
D03*
X3066D02*
D03*
X2160Y27876D02*
D03*
Y26064D02*
D03*
X16966Y1730D02*
D03*
X18777D02*
D03*
X17871Y2636D02*
D03*
Y824D02*
D03*
X1034Y1660D02*
D03*
X2846D02*
D03*
X1940Y2566D02*
D03*
Y754D02*
D03*
X13546Y25677D02*
D03*
X13645Y26870D02*
D03*
X8739Y23050D02*
D03*
X9430Y21342D02*
D03*
X8739Y22033D02*
D03*
X3956Y21450D02*
D03*
X2380Y22518D02*
D03*
X10761Y21738D02*
D03*
X10738Y23198D02*
D03*
X3160Y22518D02*
D03*
D69*
X5425Y9895D02*
D03*
X7030Y10420D02*
D03*
X7570Y10960D02*
D03*
X12098Y14297D02*
D03*
X7740Y11510D02*
D03*
X6050Y11220D02*
D03*
X1880Y8370D02*
D03*
X9208Y16190D02*
D03*
X5130Y9760D02*
D03*
X1330Y8370D02*
D03*
X10667Y17010D02*
D03*
X15660Y7150D02*
D03*
X16250D02*
D03*
X5640Y24870D02*
D03*
X3780Y2900D02*
D03*
X4510Y5020D02*
D03*
X13310Y7300D02*
D03*
X15910Y22450D02*
D03*
X16411Y25150D02*
D03*
X11797Y17580D02*
D03*
X5671Y21070D02*
D03*
X15100Y25460D02*
D03*
X12520Y27370D02*
D03*
X8370Y27410D02*
D03*
X11331Y26230D02*
D03*
X11561Y26980D02*
D03*
X1361Y19268D02*
D03*
X12120Y5850D02*
D03*
X18611Y9410D02*
D03*
X7671Y25130D02*
D03*
X8031Y26270D02*
D03*
X6041Y26670D02*
D03*
X4161Y25650D02*
D03*
X3921Y25260D02*
D03*
X10250Y16468D02*
D03*
X10898Y16560D02*
D03*
X11478Y16630D02*
D03*
X7041Y27300D02*
D03*
X17651Y13426D02*
D03*
X17251Y8800D02*
D03*
X2761Y25000D02*
D03*
X2321Y24850D02*
D03*
X3921Y23563D02*
D03*
X1261Y24340D02*
D03*
X5091Y24980D02*
D03*
X4561Y24970D02*
D03*
X5391Y23890D02*
D03*
X13827Y13438D02*
D03*
X13141Y10690D02*
D03*
X12418Y16050D02*
D03*
X12741Y9830D02*
D03*
X11821Y3410D02*
D03*
X5538Y4307D02*
D03*
X12771Y10850D02*
D03*
X12501Y9140D02*
D03*
X12151Y21270D02*
D03*
X11891Y20290D02*
D03*
X11861Y26480D02*
D03*
X11571Y27300D02*
D03*
X11261Y24050D02*
D03*
X12751Y24530D02*
D03*
X12411Y25810D02*
D03*
X12061Y25790D02*
D03*
X12261Y22880D02*
D03*
X11891Y21470D02*
D03*
X12531Y24140D02*
D03*
X12091Y24450D02*
D03*
X12121Y24130D02*
D03*
X12561Y27030D02*
D03*
X7739Y20512D02*
D03*
X7671Y20870D02*
D03*
X13599Y21090D02*
D03*
X13041Y20768D02*
D03*
X13521Y20510D02*
D03*
X10258Y17210D02*
D03*
X8338Y16580D02*
D03*
X12098Y17370D02*
D03*
X9841Y19190D02*
D03*
X9261Y19340D02*
D03*
Y18839D02*
D03*
X1530Y10709D02*
D03*
X1831Y10669D02*
D03*
X2165Y10660D02*
D03*
X2539Y10659D02*
D03*
X10190Y14470D02*
D03*
D70*
X10468Y27099D02*
D03*
X8847Y27177D02*
D03*
X1031Y19621D02*
D03*
X11350Y6990D02*
D03*
X11340Y6690D02*
D03*
X7320Y5480D02*
D03*
Y7340D02*
D03*
X5420D02*
D03*
X5410Y5440D02*
D03*
X10820Y15140D02*
D03*
D71*
X8600Y27070D02*
D03*
X3840Y5530D02*
D03*
Y6120D02*
D03*
Y6710D02*
D03*
Y7300D02*
D03*
X4150Y7870D02*
D03*
X6911Y17570D02*
D03*
X8530Y17530D02*
D03*
X7530Y4850D02*
D03*
X738Y11644D02*
D03*
X5608Y15870D02*
D03*
X5807Y15290D02*
D03*
X5998Y15440D02*
D03*
X6568Y15170D02*
D03*
X6228Y15330D02*
D03*
X7385Y12250D02*
D03*
X6997Y12010D02*
D03*
X8027Y12470D02*
D03*
X10761Y27048D02*
D03*
X11281Y24638D02*
D03*
X9991Y23638D02*
D03*
X5977Y15030D02*
D03*
X7165Y5058D02*
D03*
X7464Y8700D02*
D03*
X6653Y7627D02*
D03*
X9091Y27068D02*
D03*
X8001Y25418D02*
D03*
X10251Y23590D02*
D03*
X9247Y18238D02*
D03*
X7860Y7820D02*
D03*
X7474Y7817D02*
D03*
X9041Y23790D02*
D03*
X9301D02*
D03*
X8499Y23818D02*
D03*
X7468Y11720D02*
D03*
D72*
X15740Y11230D02*
D03*
X15930Y15530D02*
D03*
X4830Y10070D02*
D03*
X14350Y26340D02*
D03*
X13770Y26370D02*
D03*
X14040Y26035D02*
D03*
X13940Y1900D02*
D03*
X16020Y18610D02*
D03*
X12270Y2870D02*
D03*
X12140Y3230D02*
D03*
X5850Y3610D02*
D03*
X7500Y4320D02*
D03*
X18140Y6560D02*
D03*
X17230Y7260D02*
D03*
X6650Y1260D02*
D03*
X13020Y6680D02*
D03*
X16258Y866D02*
D03*
X13744Y4488D02*
D03*
X13052Y4322D02*
D03*
X18240Y7880D02*
D03*
X3800Y20620D02*
D03*
X5630Y21570D02*
D03*
Y23440D02*
D03*
X15935Y16167D02*
D03*
X7670Y27930D02*
D03*
X6300Y27180D02*
D03*
X4471Y27750D02*
D03*
X2780Y8480D02*
D03*
X6300Y3810D02*
D03*
X2240Y21868D02*
D03*
X2270Y23098D02*
D03*
X3813Y19597D02*
D03*
X2453Y17157D02*
D03*
X5488Y25700D02*
D03*
X6251Y8777D02*
D03*
X4831Y8760D02*
D03*
X5167Y4713D02*
D03*
X13519Y1535D02*
D03*
X13913Y591D02*
D03*
X13135Y591D02*
D03*
X7446Y600D02*
D03*
X6679Y600D02*
D03*
X9030Y627D02*
D03*
X9847Y883D02*
D03*
X15477Y623D02*
D03*
X6721Y27510D02*
D03*
X7416Y20236D02*
D03*
X8509Y20246D02*
D03*
X12084Y5079D02*
D03*
X7093Y8467D02*
D03*
X5830Y8760D02*
D03*
X11400Y5060D02*
D03*
X12430Y6338D02*
D03*
D73*
X8287Y12740D02*
D03*
X8570Y12460D02*
D03*
X8580Y11950D02*
D03*
X3727Y14110D02*
D03*
X3877Y13250D02*
D03*
Y13050D02*
D03*
X4757Y11450D02*
D03*
X960Y12421D02*
D03*
X4757Y11250D02*
D03*
X960Y12220D02*
D03*
X4964Y14253D02*
D03*
X960Y12690D02*
D03*
X4822Y14394D02*
D03*
X960Y12900D02*
D03*
Y13370D02*
D03*
Y13150D02*
D03*
X1680Y13030D02*
D03*
X4477Y12650D02*
D03*
X970Y14320D02*
D03*
X4277Y12650D02*
D03*
X970Y14120D02*
D03*
X960Y13840D02*
D03*
X3727Y14310D02*
D03*
X960Y13640D02*
D03*
X2756Y12766D02*
D03*
X2707Y11959D02*
D03*
X2140Y13820D02*
D03*
X4877Y12650D02*
D03*
X3877D02*
D03*
X5247Y13970D02*
D03*
X3727Y13710D02*
D03*
X4537Y14680D02*
D03*
X7003Y13740D02*
D03*
X7507Y13232D02*
D03*
X7767Y13490D02*
D03*
Y14000D02*
D03*
X8037Y14020D02*
D03*
X4757Y10850D02*
D03*
Y11850D02*
D03*
X6517Y12470D02*
D03*
X7367Y14470D02*
D03*
X5927Y14480D02*
D03*
X11321Y24380D02*
D03*
X6251Y19850D02*
D03*
X6261Y19340D02*
D03*
X6221Y18830D02*
D03*
Y18340D02*
D03*
X6977Y12750D02*
D03*
X690Y14320D02*
D03*
Y14120D02*
D03*
Y13840D02*
D03*
Y13640D02*
D03*
Y13370D02*
D03*
Y13150D02*
D03*
Y12900D02*
D03*
Y12690D02*
D03*
Y12420D02*
D03*
Y12220D02*
D03*
X8507Y14030D02*
D03*
X8283Y11909D02*
D03*
X7737Y14480D02*
D03*
X8027Y12992D02*
D03*
X7505Y12736D02*
D03*
Y13041D02*
D03*
X7259Y12992D02*
D03*
X6747Y12461D02*
D03*
X6718Y13091D02*
D03*
X6235Y14250D02*
D03*
X7259Y14006D02*
D03*
X7515Y13760D02*
D03*
X7259Y13750D02*
D03*
Y13484D02*
D03*
X7003Y14006D02*
D03*
X8507Y14290D02*
D03*
X7747Y12450D02*
D03*
X6987Y15010D02*
D03*
X7515Y14006D02*
D03*
X6737Y13750D02*
D03*
X7515Y13484D02*
D03*
X8537Y15040D02*
D03*
X7259Y13228D02*
D03*
X6757Y13484D02*
D03*
X6481Y13750D02*
D03*
Y13484D02*
D03*
X7982Y25680D02*
D03*
X3727Y14710D02*
D03*
X3877Y13650D02*
D03*
X5991Y14248D02*
D03*
X965Y14600D02*
D03*
X955Y11952D02*
D03*
X5990Y13270D02*
D03*
X8037Y15020D02*
D03*
X6847Y14450D02*
D03*
D74*
X15780Y19010D02*
D03*
X16020Y24320D02*
D03*
X13580Y3940D02*
D03*
X13640Y7290D02*
D03*
X14626Y7302D02*
D03*
X7610Y3370D02*
D03*
X8140Y3150D02*
D03*
X17100Y5730D02*
D03*
X15510Y21740D02*
D03*
D75*
X17380Y5250D02*
D03*
X15326Y5392D02*
D03*
D76*
X9231Y27540D02*
D03*
D77*
X5870Y27737D02*
D03*
D78*
X16188Y10388D02*
D03*
X15906Y11671D02*
D03*
X16211Y13010D02*
D03*
X16172Y13482D02*
D03*
M02*
