G04 Layer_Color=2752767*
%FSLAX24Y24*%
%MOIN*%
G70*
G01*
G75*
%ADD46C,0.0050*%
%ADD53C,0.0040*%
%ADD211C,0.0067*%
D46*
X1473Y21193D02*
Y21593D01*
X1873D01*
Y21193D01*
X1473D01*
Y23162D02*
Y23562D01*
X1873D01*
Y23162D01*
X1473D01*
X1000Y3909D02*
X800Y4309D01*
X1200D01*
X1000Y3909D01*
Y10091D02*
X800Y10491D01*
X1200D01*
X1000Y10091D01*
X2949Y4146D02*
X2749Y4546D01*
X3149D01*
X2949Y4146D01*
Y9854D02*
X2749Y10254D01*
X3149D01*
X2949Y9854D01*
X1940Y1460D02*
X2040Y1560D01*
X2140D01*
X2040Y1660D01*
X2140Y1760D01*
X2040D01*
X1940Y1860D01*
X1840Y1760D01*
X1740D01*
X1840Y1660D01*
X1740Y1560D01*
X1840D01*
X1940Y1460D01*
X2160Y26770D02*
X2260Y26870D01*
X2360D01*
X2260Y26970D01*
X2360Y27070D01*
X2260D01*
X2160Y27170D01*
X2060Y27070D01*
X1960D01*
X2060Y26970D01*
X1960Y26870D01*
X2060D01*
X2160Y26770D01*
X17871Y19420D02*
X17971Y19520D01*
X18071D01*
X17971Y19620D01*
X18071Y19720D01*
X17971D01*
X17871Y19820D01*
X17771Y19720D01*
X17671D01*
X17771Y19620D01*
X17671Y19520D01*
X17771D01*
X17871Y19420D01*
Y1530D02*
X17971Y1630D01*
X18071D01*
X17971Y1730D01*
X18071Y1830D01*
X17971D01*
X17871Y1930D01*
X17771Y1830D01*
X17671D01*
X17771Y1730D01*
X17671Y1630D01*
X17771D01*
X17871Y1530D01*
X13726Y2290D02*
X13826Y2490D01*
X13726Y2690D01*
X13926Y2590D01*
X14126Y2690D01*
X14026Y2490D01*
X14126Y2290D01*
X13926Y2390D01*
X13726Y2290D01*
X14433Y2997D02*
X14533Y3197D01*
X14433Y3397D01*
X14633Y3297D01*
X14833Y3397D01*
X14733Y3197D01*
X14833Y2997D01*
X14633Y3097D01*
X14433Y2997D01*
Y1583D02*
X14533Y1783D01*
X14433Y1983D01*
X14633Y1883D01*
X14833Y1983D01*
X14733Y1783D01*
X14833Y1583D01*
X14633Y1683D01*
X14433Y1583D01*
X15140Y2290D02*
X15240Y2490D01*
X15140Y2690D01*
X15340Y2590D01*
X15540Y2690D01*
X15440Y2490D01*
X15540Y2290D01*
X15340Y2390D01*
X15140Y2290D01*
X12421Y18340D02*
Y18240D01*
X12621D01*
Y18340D01*
X12721D01*
Y18540D01*
X12621D01*
Y18640D01*
X12421D01*
Y18540D01*
X12321D01*
Y18340D01*
X12421D01*
Y19340D02*
Y19240D01*
X12621D01*
Y19340D01*
X12721D01*
Y19540D01*
X12621D01*
Y19640D01*
X12421D01*
Y19540D01*
X12321D01*
Y19340D01*
X12421D01*
X13421Y18340D02*
Y18240D01*
X13621D01*
Y18340D01*
X13721D01*
Y18540D01*
X13621D01*
Y18640D01*
X13421D01*
Y18540D01*
X13321D01*
Y18340D01*
X13421D01*
Y19340D02*
Y19240D01*
X13621D01*
Y19340D01*
X13721D01*
Y19540D01*
X13621D01*
Y19640D01*
X13421D01*
Y19540D01*
X13321D01*
Y19340D01*
X13421D01*
X14421Y18340D02*
Y18240D01*
X14621D01*
Y18340D01*
X14721D01*
Y18540D01*
X14621D01*
Y18640D01*
X14421D01*
Y18540D01*
X14321D01*
Y18340D01*
X14421D01*
Y19340D02*
Y19240D01*
X14621D01*
Y19340D01*
X14721D01*
Y19540D01*
X14621D01*
Y19640D01*
X14421D01*
Y19540D01*
X14321D01*
Y19340D01*
X14421D01*
X13321Y64D02*
X13421D01*
X13521Y164D01*
X13621Y64D01*
X13721D01*
Y164D01*
X13621Y264D01*
X13721Y364D01*
Y464D01*
X13621D01*
X13521Y364D01*
X13421Y464D01*
X13321D01*
Y364D01*
X13421Y264D01*
X13321Y164D01*
Y64D01*
Y773D02*
X13421D01*
X13521Y873D01*
X13621Y773D01*
X13721D01*
Y873D01*
X13621Y973D01*
X13721Y1073D01*
Y1173D01*
X13621D01*
X13521Y1073D01*
X13421Y1173D01*
X13321D01*
Y1073D01*
X13421Y973D01*
X13321Y873D01*
Y773D01*
X6861Y783D02*
X6961D01*
X7061Y883D01*
X7161Y783D01*
X7261D01*
Y883D01*
X7161Y983D01*
X7261Y1083D01*
Y1183D01*
X7161D01*
X7061Y1083D01*
X6961Y1183D01*
X6861D01*
Y1083D01*
X6961Y983D01*
X6861Y883D01*
Y783D01*
Y74D02*
X6961D01*
X7061Y174D01*
X7161Y74D01*
X7261D01*
Y174D01*
X7161Y274D01*
X7261Y374D01*
Y474D01*
X7161D01*
X7061Y374D01*
X6961Y474D01*
X6861D01*
Y374D01*
X6961Y274D01*
X6861Y174D01*
Y74D01*
X1740Y754D02*
X1940Y954D01*
X2140Y754D01*
X1940Y554D01*
X1740Y754D01*
Y2566D02*
X1940Y2766D01*
X2140Y2566D01*
X1940Y2366D01*
X1740Y2566D01*
X2646Y1660D02*
X2846Y1860D01*
X3046Y1660D01*
X2846Y1460D01*
X2646Y1660D01*
X834D02*
X1034Y1860D01*
X1234Y1660D01*
X1034Y1460D01*
X834Y1660D01*
X1960Y26064D02*
X2160Y26264D01*
X2360Y26064D01*
X2160Y25864D01*
X1960Y26064D01*
Y27876D02*
X2160Y28076D01*
X2360Y27876D01*
X2160Y27676D01*
X1960Y27876D01*
X2866Y26970D02*
X3066Y27170D01*
X3266Y26970D01*
X3066Y26770D01*
X2866Y26970D01*
X1054D02*
X1254Y27170D01*
X1454Y26970D01*
X1254Y26770D01*
X1054Y26970D01*
X17671Y18714D02*
X17871Y18914D01*
X18071Y18714D01*
X17871Y18514D01*
X17671Y18714D01*
Y20526D02*
X17871Y20726D01*
X18071Y20526D01*
X17871Y20326D01*
X17671Y20526D01*
X18577Y19620D02*
X18777Y19820D01*
X18977Y19620D01*
X18777Y19420D01*
X18577Y19620D01*
X16766D02*
X16966Y19820D01*
X17166Y19620D01*
X16966Y19420D01*
X16766Y19620D01*
X17671Y824D02*
X17871Y1024D01*
X18071Y824D01*
X17871Y624D01*
X17671Y824D01*
Y2636D02*
X17871Y2836D01*
X18071Y2636D01*
X17871Y2436D01*
X17671Y2636D01*
X18577Y1730D02*
X18777Y1930D01*
X18977Y1730D01*
X18777Y1530D01*
X18577Y1730D01*
X16766D02*
X16966Y1930D01*
X17166Y1730D01*
X16966Y1530D01*
X16766Y1730D01*
X11890Y2000D02*
Y2400D01*
X12290D01*
Y2000D01*
X11890D01*
X11970Y2080D02*
Y2320D01*
X12210D01*
Y2080D01*
X11970D01*
X12130Y23270D02*
Y23670D01*
X12530D01*
Y23270D01*
X12130D01*
X12210Y23350D02*
Y23590D01*
X12450D01*
Y23350D01*
X12210D01*
X1840Y20710D02*
Y21110D01*
X2240D01*
Y20710D01*
X1840D01*
X1920Y20790D02*
Y21030D01*
X2160D01*
Y20790D01*
X1920D01*
X6650Y22230D02*
Y22630D01*
X7050D01*
Y22230D01*
X6650D01*
X6730Y22310D02*
Y22550D01*
X6970D01*
Y22310D01*
X6730D01*
X520Y27670D02*
Y28070D01*
X920D01*
Y27670D01*
X520D01*
X600Y27750D02*
Y27990D01*
X840D01*
Y27750D01*
X600D01*
X18790Y420D02*
Y820D01*
X19190D01*
Y420D01*
X18790D01*
X18870Y500D02*
Y740D01*
X19110D01*
Y500D01*
X18870D01*
X460Y330D02*
Y730D01*
X860D01*
Y330D01*
X460D01*
X540Y410D02*
Y650D01*
X780D01*
Y410D01*
X540D01*
X15500Y22740D02*
Y23140D01*
X15900D01*
Y22740D01*
X15500D01*
X15580Y22820D02*
Y23060D01*
X15820D01*
Y22820D01*
X15580D01*
X14520Y20850D02*
Y21250D01*
X14920D01*
Y20850D01*
X14520D01*
X14600Y20930D02*
Y21170D01*
X14840D01*
Y20930D01*
X14600D01*
X11150Y14930D02*
Y15330D01*
X11550D01*
Y14930D01*
X11150D01*
X11230Y15010D02*
Y15250D01*
X11470D01*
Y15010D01*
X11230D01*
X4870Y15270D02*
Y15670D01*
X5270D01*
Y15270D01*
X4870D01*
X4950Y15350D02*
Y15590D01*
X5190D01*
Y15350D01*
X4950D01*
X13660Y3410D02*
Y3810D01*
X14060D01*
Y3410D01*
X13660D01*
X13740Y3490D02*
Y3730D01*
X13980D01*
Y3490D01*
X13740D01*
X11120Y7460D02*
Y7860D01*
X11520D01*
Y7460D01*
X11120D01*
X11200Y7540D02*
Y7780D01*
X11440D01*
Y7540D01*
X11200D01*
X10880Y6390D02*
Y6790D01*
X11280D01*
Y6390D01*
X10880D01*
X10960Y6470D02*
Y6710D01*
X11200D01*
Y6470D01*
X10960D01*
X8820Y5080D02*
Y5480D01*
X9220D01*
Y5080D01*
X8820D01*
X8900Y5160D02*
Y5400D01*
X9140D01*
Y5160D01*
X8900D01*
X11610Y11680D02*
Y12080D01*
X12010D01*
Y11680D01*
X11610D01*
X11690Y11760D02*
Y12000D01*
X11930D01*
Y11760D01*
X11690D01*
X17570Y11320D02*
Y11720D01*
X17970D01*
Y11320D01*
X17570D01*
X17650Y11400D02*
Y11640D01*
X17890D01*
Y11400D01*
X17650D01*
X18300Y5650D02*
Y6050D01*
X18700D01*
Y5650D01*
X18300D01*
X18380Y5730D02*
Y5970D01*
X18620D01*
Y5730D01*
X18380D01*
X13530Y11020D02*
Y11420D01*
X13930D01*
Y11020D01*
X13530D01*
X13610Y11100D02*
Y11340D01*
X13850D01*
Y11100D01*
X13610D01*
X12340Y9920D02*
Y10320D01*
X12740D01*
Y9920D01*
X12340D01*
X12420Y10000D02*
Y10240D01*
X12660D01*
Y10000D01*
X12420D01*
X7670Y4640D02*
Y5040D01*
X8070D01*
Y4640D01*
X7670D01*
X7750Y4720D02*
Y4960D01*
X7990D01*
Y4720D01*
X7750D01*
X7740Y3930D02*
Y4330D01*
X8140D01*
Y3930D01*
X7740D01*
X7820Y4010D02*
Y4250D01*
X8060D01*
Y4010D01*
X7820D01*
X7860Y3280D02*
Y3680D01*
X8260D01*
Y3280D01*
X7860D01*
X7940Y3360D02*
Y3600D01*
X8180D01*
Y3360D01*
X7940D01*
X7550Y2710D02*
Y3110D01*
X7950D01*
Y2710D01*
X7550D01*
X7630Y2790D02*
Y3030D01*
X7870D01*
Y2790D01*
X7630D01*
X4010Y2640D02*
Y3040D01*
X4410D01*
Y2640D01*
X4010D01*
X4090Y2720D02*
Y2960D01*
X4330D01*
Y2720D01*
X4090D01*
X18140Y9600D02*
Y10000D01*
X18540D01*
Y9600D01*
X18140D01*
X18220Y9680D02*
Y9920D01*
X18460D01*
Y9680D01*
X18220D01*
X7230Y25170D02*
Y25570D01*
X7630D01*
Y25170D01*
X7230D01*
X7310Y25250D02*
Y25490D01*
X7550D01*
Y25250D01*
X7310D01*
X8074Y23830D02*
Y24230D01*
X8474D01*
Y23830D01*
X8074D01*
X8154Y23910D02*
Y24150D01*
X8394D01*
Y23910D01*
X8154D01*
X3680Y25370D02*
Y25770D01*
X4080D01*
Y25370D01*
X3680D01*
X3760Y25450D02*
Y25690D01*
X4000D01*
Y25450D01*
X3760D01*
X520Y19410D02*
Y19810D01*
X920D01*
Y19410D01*
X520D01*
X600Y19490D02*
Y19730D01*
X840D01*
Y19490D01*
X600D01*
X1410Y23890D02*
Y24290D01*
X1810D01*
Y23890D01*
X1410D01*
X1490Y23970D02*
Y24210D01*
X1730D01*
Y23970D01*
X1490D01*
X2340Y23140D02*
Y23540D01*
X2740D01*
Y23140D01*
X2340D01*
X2420Y23220D02*
Y23460D01*
X2660D01*
Y23220D01*
X2420D01*
X12820Y24140D02*
Y24540D01*
X13220D01*
Y24140D01*
X12820D01*
X12900Y24220D02*
Y24460D01*
X13140D01*
Y24220D01*
X12900D01*
X15210Y25190D02*
Y25590D01*
X15610D01*
Y25190D01*
X15210D01*
X15290Y25270D02*
Y25510D01*
X15530D01*
Y25270D01*
X15290D01*
X13850Y26380D02*
Y26780D01*
X14250D01*
Y26380D01*
X13850D01*
X13930Y26460D02*
Y26700D01*
X14170D01*
Y26460D01*
X13930D01*
X15390Y24110D02*
Y24510D01*
X15790D01*
Y24110D01*
X15390D01*
X15470Y24190D02*
Y24430D01*
X15710D01*
Y24190D01*
X15470D01*
X16400Y18480D02*
Y18880D01*
X16800D01*
Y18480D01*
X16400D01*
X16480Y18560D02*
Y18800D01*
X16720D01*
Y18560D01*
X16480D01*
X13650Y20070D02*
Y20470D01*
X14050D01*
Y20070D01*
X13650D01*
X13730Y20150D02*
Y20390D01*
X13970D01*
Y20150D01*
X13730D01*
X12590Y20050D02*
Y20450D01*
X12990D01*
Y20050D01*
X12590D01*
X12670Y20130D02*
Y20370D01*
X12910D01*
Y20130D01*
X12670D01*
X11380Y21130D02*
Y21530D01*
X11780D01*
Y21130D01*
X11380D01*
X11460Y21210D02*
Y21450D01*
X11700D01*
Y21210D01*
X11460D01*
X11680Y19560D02*
Y19960D01*
X12080D01*
Y19560D01*
X11680D01*
X11760Y19640D02*
Y19880D01*
X12000D01*
Y19640D01*
X11760D01*
X9270Y17820D02*
Y18220D01*
X9670D01*
Y17820D01*
X9270D01*
X9350Y17900D02*
Y18140D01*
X9590D01*
Y17900D01*
X9350D01*
X9360Y19150D02*
Y19550D01*
X9760D01*
Y19150D01*
X9360D01*
X9440Y19230D02*
Y19470D01*
X9680D01*
Y19230D01*
X9440D01*
X6320Y17320D02*
Y17720D01*
X6720D01*
Y17320D01*
X6320D01*
X6400Y17400D02*
Y17640D01*
X6640D01*
Y17400D01*
X6400D01*
X5930Y18890D02*
Y19290D01*
X6330D01*
Y18890D01*
X5930D01*
X6010Y18970D02*
Y19210D01*
X6250D01*
Y18970D01*
X6010D01*
X6050Y19980D02*
Y20380D01*
X6450D01*
Y19980D01*
X6050D01*
X6130Y20060D02*
Y20300D01*
X6370D01*
Y20060D01*
X6130D01*
X6051Y19650D02*
Y20050D01*
X6451D01*
Y19650D01*
X6051D01*
X6131Y19730D02*
Y19970D01*
X6371D01*
Y19730D01*
X6131D01*
X5190Y20630D02*
Y21030D01*
X5590D01*
Y20630D01*
X5190D01*
X5270Y20710D02*
Y20950D01*
X5510D01*
Y20710D01*
X5270D01*
X5820Y21350D02*
Y21750D01*
X6220D01*
Y21350D01*
X5820D01*
X5900Y21430D02*
Y21670D01*
X6140D01*
Y21430D01*
X5900D01*
X2832Y24798D02*
Y25198D01*
X3232D01*
Y24798D01*
X2832D01*
X2912Y24878D02*
Y25118D01*
X3152D01*
Y24878D01*
X2912D01*
X1851Y24341D02*
Y24741D01*
X2251D01*
Y24341D01*
X1851D01*
X1931Y24421D02*
Y24661D01*
X2171D01*
Y24421D01*
X1931D01*
X2120Y24610D02*
Y25010D01*
X2520D01*
Y24610D01*
X2120D01*
X2200Y24690D02*
Y24930D01*
X2440D01*
Y24690D01*
X2200D01*
X4350Y8410D02*
Y8810D01*
X4750D01*
Y8410D01*
X4350D01*
X4430Y8490D02*
Y8730D01*
X4670D01*
Y8490D01*
X4430D01*
X6660Y8550D02*
Y8950D01*
X7060D01*
Y8550D01*
X6660D01*
X6740Y8630D02*
Y8870D01*
X6980D01*
Y8630D01*
X6740D01*
X6890Y8420D02*
X7090Y8620D01*
X7290Y8420D01*
X7090Y8220D01*
X6890Y8420D01*
X8647Y26977D02*
Y27377D01*
X9047D01*
Y26977D01*
X8647D01*
X8727Y27057D02*
Y27297D01*
X8967D01*
Y27057D01*
X8727D01*
X9091Y26868D02*
X8891Y27268D01*
X9291D01*
X9091Y26868D01*
Y26948D02*
X8971Y27188D01*
X9211D01*
X9091Y26948D01*
X8000Y27290D02*
Y27690D01*
X8400D01*
Y27290D01*
X8000D01*
X8080Y27370D02*
Y27610D01*
X8320D01*
Y27370D01*
X8080D01*
X7470Y27890D02*
X7670Y28090D01*
X7870Y27890D01*
X7670Y27690D01*
X7470Y27890D01*
X19000Y27940D02*
Y28340D01*
X19400D01*
Y27940D01*
X19000D01*
X19080Y28020D02*
Y28260D01*
X19320D01*
Y28020D01*
X19080D01*
X18400Y28240D02*
Y28640D01*
X18800D01*
Y28240D01*
X18400D01*
X18480Y28320D02*
Y28560D01*
X18720D01*
Y28320D01*
X18480D01*
X17200Y28240D02*
Y28640D01*
X17600D01*
Y28240D01*
X17200D01*
X17280Y28320D02*
Y28560D01*
X17520D01*
Y28320D01*
X17280D01*
X16000Y28240D02*
Y28640D01*
X16400D01*
Y28240D01*
X16000D01*
X16080Y28320D02*
Y28560D01*
X16320D01*
Y28320D01*
X16080D01*
X14800Y28240D02*
Y28640D01*
X15200D01*
Y28240D01*
X14800D01*
X14880Y28320D02*
Y28560D01*
X15120D01*
Y28320D01*
X14880D01*
X13600Y28240D02*
Y28640D01*
X14000D01*
Y28240D01*
X13600D01*
X13680Y28320D02*
Y28560D01*
X13920D01*
Y28320D01*
X13680D01*
X12400Y28240D02*
Y28640D01*
X12800D01*
Y28240D01*
X12400D01*
X12480Y28320D02*
Y28560D01*
X12720D01*
Y28320D01*
X12480D01*
X11200Y28240D02*
Y28640D01*
X11600D01*
Y28240D01*
X11200D01*
X11280Y28320D02*
Y28560D01*
X11520D01*
Y28320D01*
X11280D01*
X10000Y28240D02*
Y28640D01*
X10400D01*
Y28240D01*
X10000D01*
X10080Y28320D02*
Y28560D01*
X10320D01*
Y28320D01*
X10080D01*
X8800Y28240D02*
Y28640D01*
X9200D01*
Y28240D01*
X8800D01*
X8880Y28320D02*
Y28560D01*
X9120D01*
Y28320D01*
X8880D01*
X7600Y28240D02*
Y28640D01*
X8000D01*
Y28240D01*
X7600D01*
X7680Y28320D02*
Y28560D01*
X7920D01*
Y28320D01*
X7680D01*
X6400Y28240D02*
Y28640D01*
X6800D01*
Y28240D01*
X6400D01*
X6480Y28320D02*
Y28560D01*
X6720D01*
Y28320D01*
X6480D01*
X5200Y28240D02*
Y28640D01*
X5600D01*
Y28240D01*
X5200D01*
X5280Y28320D02*
Y28560D01*
X5520D01*
Y28320D01*
X5280D01*
X4000Y28240D02*
Y28640D01*
X4400D01*
Y28240D01*
X4000D01*
X4080Y28320D02*
Y28560D01*
X4320D01*
Y28320D01*
X4080D01*
X2800Y28240D02*
Y28640D01*
X3200D01*
Y28240D01*
X2800D01*
X2880Y28320D02*
Y28560D01*
X3120D01*
Y28320D01*
X2880D01*
X100Y25900D02*
Y26300D01*
X500D01*
Y25900D01*
X100D01*
X180Y25980D02*
Y26220D01*
X420D01*
Y25980D01*
X180D01*
X100Y24700D02*
Y25100D01*
X500D01*
Y24700D01*
X100D01*
X180Y24780D02*
Y25020D01*
X420D01*
Y24780D01*
X180D01*
X200Y22700D02*
Y23100D01*
X600D01*
Y22700D01*
X200D01*
X280Y22780D02*
Y23020D01*
X520D01*
Y22780D01*
X280D01*
X200Y21800D02*
Y22200D01*
X600D01*
Y21800D01*
X200D01*
X280Y21880D02*
Y22120D01*
X520D01*
Y21880D01*
X280D01*
X100Y19900D02*
Y20300D01*
X500D01*
Y19900D01*
X100D01*
X180Y19980D02*
Y20220D01*
X420D01*
Y19980D01*
X180D01*
X100Y18700D02*
Y19100D01*
X500D01*
Y18700D01*
X100D01*
X180Y18780D02*
Y19020D01*
X420D01*
Y18780D01*
X180D01*
X100Y17500D02*
Y17900D01*
X500D01*
Y17500D01*
X100D01*
X180Y17580D02*
Y17820D01*
X420D01*
Y17580D01*
X180D01*
X100Y16300D02*
Y16700D01*
X500D01*
Y16300D01*
X100D01*
X180Y16380D02*
Y16620D01*
X420D01*
Y16380D01*
X180D01*
X100Y15100D02*
Y15500D01*
X500D01*
Y15100D01*
X100D01*
X180Y15180D02*
Y15420D01*
X420D01*
Y15180D01*
X180D01*
X500Y11100D02*
Y11500D01*
X900D01*
Y11100D01*
X500D01*
X580Y11180D02*
Y11420D01*
X820D01*
Y11180D01*
X580D01*
X500Y8700D02*
Y9100D01*
X900D01*
Y8700D01*
X500D01*
X580Y8780D02*
Y9020D01*
X820D01*
Y8780D01*
X580D01*
X500Y7500D02*
Y7900D01*
X900D01*
Y7500D01*
X500D01*
X580Y7580D02*
Y7820D01*
X820D01*
Y7580D01*
X580D01*
X500Y6300D02*
Y6700D01*
X900D01*
Y6300D01*
X500D01*
X580Y6380D02*
Y6620D01*
X820D01*
Y6380D01*
X580D01*
X500Y5100D02*
Y5500D01*
X900D01*
Y5100D01*
X500D01*
X580Y5180D02*
Y5420D01*
X820D01*
Y5180D01*
X580D01*
X100Y3400D02*
Y3800D01*
X500D01*
Y3400D01*
X100D01*
X180Y3480D02*
Y3720D01*
X420D01*
Y3480D01*
X180D01*
X100Y3100D02*
Y3500D01*
X500D01*
Y3100D01*
X100D01*
X180Y3180D02*
Y3420D01*
X420D01*
Y3180D01*
X180D01*
X400Y2200D02*
Y2600D01*
X800D01*
Y2200D01*
X400D01*
X480Y2280D02*
Y2520D01*
X720D01*
Y2280D01*
X480D01*
X19000Y27100D02*
Y27500D01*
X19400D01*
Y27100D01*
X19000D01*
X19080Y27180D02*
Y27420D01*
X19320D01*
Y27180D01*
X19080D01*
X19000Y25900D02*
Y26300D01*
X19400D01*
Y25900D01*
X19000D01*
X19080Y25980D02*
Y26220D01*
X19320D01*
Y25980D01*
X19080D01*
X19000Y24700D02*
Y25100D01*
X19400D01*
Y24700D01*
X19000D01*
X19080Y24780D02*
Y25020D01*
X19320D01*
Y24780D01*
X19080D01*
X19000Y23500D02*
Y23900D01*
X19400D01*
Y23500D01*
X19000D01*
X19080Y23580D02*
Y23820D01*
X19320D01*
Y23580D01*
X19080D01*
X19000Y22300D02*
Y22700D01*
X19400D01*
Y22300D01*
X19000D01*
X19080Y22380D02*
Y22620D01*
X19320D01*
Y22380D01*
X19080D01*
X19000Y21100D02*
Y21500D01*
X19400D01*
Y21100D01*
X19000D01*
X19080Y21180D02*
Y21420D01*
X19320D01*
Y21180D01*
X19080D01*
X19000Y19900D02*
Y20300D01*
X19400D01*
Y19900D01*
X19000D01*
X19080Y19980D02*
Y20220D01*
X19320D01*
Y19980D01*
X19080D01*
X19000Y18700D02*
Y19100D01*
X19400D01*
Y18700D01*
X19000D01*
X19080Y18780D02*
Y19020D01*
X19320D01*
Y18780D01*
X19080D01*
X19000Y18100D02*
Y18500D01*
X19400D01*
Y18100D01*
X19000D01*
X19080Y18180D02*
Y18420D01*
X19320D01*
Y18180D01*
X19080D01*
X19000Y16900D02*
Y17300D01*
X19400D01*
Y16900D01*
X19000D01*
X19080Y16980D02*
Y17220D01*
X19320D01*
Y16980D01*
X19080D01*
X19000Y15700D02*
Y16100D01*
X19400D01*
Y15700D01*
X19000D01*
X19080Y15780D02*
Y16020D01*
X19320D01*
Y15780D01*
X19080D01*
X19000Y14500D02*
Y14900D01*
X19400D01*
Y14500D01*
X19000D01*
X19080Y14580D02*
Y14820D01*
X19320D01*
Y14580D01*
X19080D01*
X19000Y13300D02*
Y13700D01*
X19400D01*
Y13300D01*
X19000D01*
X19080Y13380D02*
Y13620D01*
X19320D01*
Y13380D01*
X19080D01*
X19000Y12100D02*
Y12500D01*
X19400D01*
Y12100D01*
X19000D01*
X19080Y12180D02*
Y12420D01*
X19320D01*
Y12180D01*
X19080D01*
X19000Y10900D02*
Y11300D01*
X19400D01*
Y10900D01*
X19000D01*
X19080Y10980D02*
Y11220D01*
X19320D01*
Y10980D01*
X19080D01*
X19000Y9700D02*
Y10100D01*
X19400D01*
Y9700D01*
X19000D01*
X19080Y9780D02*
Y10020D01*
X19320D01*
Y9780D01*
X19080D01*
X19000Y8500D02*
Y8900D01*
X19400D01*
Y8500D01*
X19000D01*
X19080Y8580D02*
Y8820D01*
X19320D01*
Y8580D01*
X19080D01*
X19000Y7300D02*
Y7700D01*
X19400D01*
Y7300D01*
X19000D01*
X19080Y7380D02*
Y7620D01*
X19320D01*
Y7380D01*
X19080D01*
X19000Y6100D02*
Y6500D01*
X19400D01*
Y6100D01*
X19000D01*
X19080Y6180D02*
Y6420D01*
X19320D01*
Y6180D01*
X19080D01*
X19000Y4900D02*
Y5300D01*
X19400D01*
Y4900D01*
X19000D01*
X19080Y4980D02*
Y5220D01*
X19320D01*
Y4980D01*
X19080D01*
X19000Y3700D02*
Y4100D01*
X19400D01*
Y3700D01*
X19000D01*
X19080Y3780D02*
Y4020D01*
X19320D01*
Y3780D01*
X19080D01*
X19000Y2500D02*
Y2900D01*
X19400D01*
Y2500D01*
X19000D01*
X19080Y2580D02*
Y2820D01*
X19320D01*
Y2580D01*
X19080D01*
X17200Y100D02*
Y500D01*
X17600D01*
Y100D01*
X17200D01*
X17280Y180D02*
Y420D01*
X17520D01*
Y180D01*
X17280D01*
X16000Y100D02*
Y500D01*
X16400D01*
Y100D01*
X16000D01*
X16080Y180D02*
Y420D01*
X16320D01*
Y180D01*
X16080D01*
X14800Y100D02*
Y500D01*
X15200D01*
Y100D01*
X14800D01*
X14880Y180D02*
Y420D01*
X15120D01*
Y180D01*
X14880D01*
X11800Y400D02*
Y800D01*
X12200D01*
Y400D01*
X11800D01*
X11880Y480D02*
Y720D01*
X12120D01*
Y480D01*
X11880D01*
X10900Y100D02*
Y500D01*
X11300D01*
Y100D01*
X10900D01*
X10980Y180D02*
Y420D01*
X11220D01*
Y180D01*
X10980D01*
X9700Y100D02*
Y500D01*
X10100D01*
Y100D01*
X9700D01*
X9780Y180D02*
Y420D01*
X10020D01*
Y180D01*
X9780D01*
X8500Y400D02*
Y800D01*
X8900D01*
Y400D01*
X8500D01*
X8580Y480D02*
Y720D01*
X8820D01*
Y480D01*
X8580D01*
X5200Y400D02*
Y800D01*
X5600D01*
Y400D01*
X5200D01*
X5280Y480D02*
Y720D01*
X5520D01*
Y480D01*
X5280D01*
X4900Y100D02*
Y500D01*
X5300D01*
Y100D01*
X4900D01*
X4980Y180D02*
Y420D01*
X5220D01*
Y180D01*
X4980D01*
X3700Y100D02*
Y500D01*
X4100D01*
Y100D01*
X3700D01*
X3780Y180D02*
Y420D01*
X4020D01*
Y180D01*
X3780D01*
X2500Y100D02*
Y500D01*
X2900D01*
Y100D01*
X2500D01*
X2580Y180D02*
Y420D01*
X2820D01*
Y180D01*
X2580D01*
X10310Y410D02*
X10110Y810D01*
X10510D01*
X10310Y410D01*
Y490D02*
X10190Y730D01*
X10430D01*
X10310Y490D01*
X10000Y14377D02*
X9800Y14777D01*
X10200D01*
X10000Y14377D01*
Y14457D02*
X9880Y14697D01*
X10120D01*
X10000Y14457D01*
X9967Y14268D02*
Y14669D01*
X10367D01*
Y14268D01*
X9967D01*
X10047Y14348D02*
Y14589D01*
X10287D01*
Y14348D01*
X10047D01*
X6900Y11778D02*
X6700Y12178D01*
X7100D01*
X6900Y11778D01*
Y11858D02*
X6780Y12098D01*
X7020D01*
X6900Y11858D01*
X6969Y15755D02*
X6769Y16155D01*
X7168D01*
X6969Y15755D01*
Y15835D02*
X6848Y16075D01*
X7089D01*
X6969Y15835D01*
X6841Y15656D02*
X6641Y16056D01*
X7041D01*
X6841Y15656D01*
Y15736D02*
X6721Y15976D01*
X6961D01*
X6841Y15736D01*
X8037Y14820D02*
X7837Y15220D01*
X8237D01*
X8037Y14820D01*
Y14900D02*
X7917Y15140D01*
X8157D01*
X8037Y14900D01*
X8815Y26104D02*
X8615Y26504D01*
X9015D01*
X8815Y26104D01*
Y26184D02*
X8695Y26424D01*
X8935D01*
X8815Y26184D01*
X9248Y26104D02*
X9048Y26504D01*
X9448D01*
X9248Y26104D01*
Y26184D02*
X9128Y26424D01*
X9368D01*
X9248Y26184D01*
X9681Y26104D02*
X9481Y26504D01*
X9881D01*
X9681Y26104D01*
Y26184D02*
X9561Y26424D01*
X9801D01*
X9681Y26184D01*
X10114Y26104D02*
X9914Y26504D01*
X10314D01*
X10114Y26104D01*
Y26184D02*
X9994Y26424D01*
X10234D01*
X10114Y26184D01*
X10547Y26104D02*
X10347Y26504D01*
X10747D01*
X10547Y26104D01*
Y26184D02*
X10427Y26424D01*
X10667D01*
X10547Y26184D01*
X8815Y25671D02*
X8615Y26071D01*
X9015D01*
X8815Y25671D01*
Y25751D02*
X8695Y25991D01*
X8935D01*
X8815Y25751D01*
X9248Y25671D02*
X9048Y26071D01*
X9448D01*
X9248Y25671D01*
Y25751D02*
X9128Y25991D01*
X9368D01*
X9248Y25751D01*
X9681Y25671D02*
X9481Y26071D01*
X9881D01*
X9681Y25671D01*
Y25751D02*
X9561Y25991D01*
X9801D01*
X9681Y25751D01*
X10114Y25671D02*
X9914Y26071D01*
X10314D01*
X10114Y25671D01*
Y25751D02*
X9994Y25991D01*
X10234D01*
X10114Y25751D01*
X10547Y25671D02*
X10347Y26071D01*
X10747D01*
X10547Y25671D01*
Y25751D02*
X10427Y25991D01*
X10667D01*
X10547Y25751D01*
X8815Y25238D02*
X8615Y25638D01*
X9015D01*
X8815Y25238D01*
Y25318D02*
X8695Y25558D01*
X8935D01*
X8815Y25318D01*
X9248Y25238D02*
X9048Y25638D01*
X9448D01*
X9248Y25238D01*
Y25318D02*
X9128Y25558D01*
X9368D01*
X9248Y25318D01*
X9681Y25238D02*
X9481Y25638D01*
X9881D01*
X9681Y25238D01*
Y25318D02*
X9561Y25558D01*
X9801D01*
X9681Y25318D01*
X10114Y25238D02*
X9914Y25638D01*
X10314D01*
X10114Y25238D01*
Y25318D02*
X9994Y25558D01*
X10234D01*
X10114Y25318D01*
X10547Y25238D02*
X10347Y25638D01*
X10747D01*
X10547Y25238D01*
Y25318D02*
X10427Y25558D01*
X10667D01*
X10547Y25318D01*
X8815Y24804D02*
X8615Y25205D01*
X9015D01*
X8815Y24804D01*
Y24885D02*
X8695Y25124D01*
X8935D01*
X8815Y24885D01*
X9248Y24804D02*
X9048Y25205D01*
X9448D01*
X9248Y24804D01*
Y24885D02*
X9128Y25124D01*
X9368D01*
X9248Y24885D01*
X9681Y24804D02*
X9481Y25205D01*
X9881D01*
X9681Y24804D01*
Y24885D02*
X9561Y25124D01*
X9801D01*
X9681Y24885D01*
X10114Y24804D02*
X9914Y25205D01*
X10314D01*
X10114Y24804D01*
Y24885D02*
X9994Y25124D01*
X10234D01*
X10114Y24885D01*
X10547Y24804D02*
X10347Y25205D01*
X10747D01*
X10547Y24804D01*
Y24885D02*
X10427Y25124D01*
X10667D01*
X10547Y24885D01*
X8815Y24371D02*
X8615Y24771D01*
X9015D01*
X8815Y24371D01*
Y24451D02*
X8695Y24691D01*
X8935D01*
X8815Y24451D01*
X9248Y24371D02*
X9048Y24771D01*
X9448D01*
X9248Y24371D01*
Y24451D02*
X9128Y24691D01*
X9368D01*
X9248Y24451D01*
X9681Y24371D02*
X9481Y24771D01*
X9881D01*
X9681Y24371D01*
Y24451D02*
X9561Y24691D01*
X9801D01*
X9681Y24451D01*
X10114Y24371D02*
X9914Y24771D01*
X10314D01*
X10114Y24371D01*
Y24451D02*
X9994Y24691D01*
X10234D01*
X10114Y24451D01*
X10547Y24371D02*
X10347Y24771D01*
X10747D01*
X10547Y24371D01*
Y24451D02*
X10427Y24691D01*
X10667D01*
X10547Y24451D01*
X14025Y15830D02*
X14125Y15930D01*
X14225D01*
X14125Y16030D01*
X14225Y16130D01*
X14125D01*
X14025Y16230D01*
X13925Y16130D01*
X13825D01*
X13925Y16030D01*
X13825Y15930D01*
X13925D01*
X14025Y15830D01*
Y15910D02*
X14085Y15970D01*
X14145D01*
X14085Y16030D01*
X14145Y16090D01*
X14085D01*
X14025Y16150D01*
X13965Y16090D01*
X13905D01*
X13965Y16030D01*
X13905Y15970D01*
X13965D01*
X14025Y15910D01*
X14525Y15830D02*
X14625Y15930D01*
X14725D01*
X14625Y16030D01*
X14725Y16130D01*
X14625D01*
X14525Y16230D01*
X14425Y16130D01*
X14325D01*
X14425Y16030D01*
X14325Y15930D01*
X14425D01*
X14525Y15830D01*
Y15910D02*
X14585Y15970D01*
X14645D01*
X14585Y16030D01*
X14645Y16090D01*
X14585D01*
X14525Y16150D01*
X14465Y16090D01*
X14405D01*
X14465Y16030D01*
X14405Y15970D01*
X14465D01*
X14525Y15910D01*
Y15330D02*
X14625Y15430D01*
X14725D01*
X14625Y15530D01*
X14725Y15630D01*
X14625D01*
X14525Y15730D01*
X14425Y15630D01*
X14325D01*
X14425Y15530D01*
X14325Y15430D01*
X14425D01*
X14525Y15330D01*
Y15410D02*
X14585Y15470D01*
X14645D01*
X14585Y15530D01*
X14645Y15590D01*
X14585D01*
X14525Y15650D01*
X14465Y15590D01*
X14405D01*
X14465Y15530D01*
X14405Y15470D01*
X14465D01*
X14525Y15410D01*
X14025Y15330D02*
X14125Y15430D01*
X14225D01*
X14125Y15530D01*
X14225Y15630D01*
X14125D01*
X14025Y15730D01*
X13925Y15630D01*
X13825D01*
X13925Y15530D01*
X13825Y15430D01*
X13925D01*
X14025Y15330D01*
Y15410D02*
X14085Y15470D01*
X14145D01*
X14085Y15530D01*
X14145Y15590D01*
X14085D01*
X14025Y15650D01*
X13965Y15590D01*
X13905D01*
X13965Y15530D01*
X13905Y15470D01*
X13965D01*
X14025Y15410D01*
Y16330D02*
X14125Y16430D01*
X14225D01*
X14125Y16530D01*
X14225Y16630D01*
X14125D01*
X14025Y16730D01*
X13925Y16630D01*
X13825D01*
X13925Y16530D01*
X13825Y16430D01*
X13925D01*
X14025Y16330D01*
Y16410D02*
X14085Y16470D01*
X14145D01*
X14085Y16530D01*
X14145Y16590D01*
X14085D01*
X14025Y16650D01*
X13965Y16590D01*
X13905D01*
X13965Y16530D01*
X13905Y16470D01*
X13965D01*
X14025Y16410D01*
X14525Y16330D02*
X14625Y16430D01*
X14725D01*
X14625Y16530D01*
X14725Y16630D01*
X14625D01*
X14525Y16730D01*
X14425Y16630D01*
X14325D01*
X14425Y16530D01*
X14325Y16430D01*
X14425D01*
X14525Y16330D01*
Y16410D02*
X14585Y16470D01*
X14645D01*
X14585Y16530D01*
X14645Y16590D01*
X14585D01*
X14525Y16650D01*
X14465Y16590D01*
X14405D01*
X14465Y16530D01*
X14405Y16470D01*
X14465D01*
X14525Y16410D01*
X13525Y16330D02*
X13625Y16430D01*
X13725D01*
X13625Y16530D01*
X13725Y16630D01*
X13625D01*
X13525Y16730D01*
X13425Y16630D01*
X13325D01*
X13425Y16530D01*
X13325Y16430D01*
X13425D01*
X13525Y16330D01*
Y16410D02*
X13585Y16470D01*
X13645D01*
X13585Y16530D01*
X13645Y16590D01*
X13585D01*
X13525Y16650D01*
X13465Y16590D01*
X13405D01*
X13465Y16530D01*
X13405Y16470D01*
X13465D01*
X13525Y16410D01*
Y15830D02*
X13625Y15930D01*
X13725D01*
X13625Y16030D01*
X13725Y16130D01*
X13625D01*
X13525Y16230D01*
X13425Y16130D01*
X13325D01*
X13425Y16030D01*
X13325Y15930D01*
X13425D01*
X13525Y15830D01*
Y15910D02*
X13585Y15970D01*
X13645D01*
X13585Y16030D01*
X13645Y16090D01*
X13585D01*
X13525Y16150D01*
X13465Y16090D01*
X13405D01*
X13465Y16030D01*
X13405Y15970D01*
X13465D01*
X13525Y15910D01*
Y15330D02*
X13625Y15430D01*
X13725D01*
X13625Y15530D01*
X13725Y15630D01*
X13625D01*
X13525Y15730D01*
X13425Y15630D01*
X13325D01*
X13425Y15530D01*
X13325Y15430D01*
X13425D01*
X13525Y15330D01*
Y15410D02*
X13585Y15470D01*
X13645D01*
X13585Y15530D01*
X13645Y15590D01*
X13585D01*
X13525Y15650D01*
X13465Y15590D01*
X13405D01*
X13465Y15530D01*
X13405Y15470D01*
X13465D01*
X13525Y15410D01*
Y16830D02*
X13625Y16930D01*
X13725D01*
X13625Y17030D01*
X13725Y17130D01*
X13625D01*
X13525Y17230D01*
X13425Y17130D01*
X13325D01*
X13425Y17030D01*
X13325Y16930D01*
X13425D01*
X13525Y16830D01*
Y16910D02*
X13585Y16970D01*
X13645D01*
X13585Y17030D01*
X13645Y17090D01*
X13585D01*
X13525Y17150D01*
X13465Y17090D01*
X13405D01*
X13465Y17030D01*
X13405Y16970D01*
X13465D01*
X13525Y16910D01*
X14025Y16830D02*
X14125Y16930D01*
X14225D01*
X14125Y17030D01*
X14225Y17130D01*
X14125D01*
X14025Y17230D01*
X13925Y17130D01*
X13825D01*
X13925Y17030D01*
X13825Y16930D01*
X13925D01*
X14025Y16830D01*
Y16910D02*
X14085Y16970D01*
X14145D01*
X14085Y17030D01*
X14145Y17090D01*
X14085D01*
X14025Y17150D01*
X13965Y17090D01*
X13905D01*
X13965Y17030D01*
X13905Y16970D01*
X13965D01*
X14025Y16910D01*
X14525Y16830D02*
X14625Y16930D01*
X14725D01*
X14625Y17030D01*
X14725Y17130D01*
X14625D01*
X14525Y17230D01*
X14425Y17130D01*
X14325D01*
X14425Y17030D01*
X14325Y16930D01*
X14425D01*
X14525Y16830D01*
Y16910D02*
X14585Y16970D01*
X14645D01*
X14585Y17030D01*
X14645Y17090D01*
X14585D01*
X14525Y17150D01*
X14465Y17090D01*
X14405D01*
X14465Y17030D01*
X14405Y16970D01*
X14465D01*
X14525Y16910D01*
X5917Y6643D02*
X5717Y7043D01*
X6117D01*
X5917Y6643D01*
Y6723D02*
X5797Y6963D01*
X6037D01*
X5917Y6723D01*
X6350Y6643D02*
X6150Y7043D01*
X6550D01*
X6350Y6643D01*
Y6723D02*
X6230Y6963D01*
X6470D01*
X6350Y6723D01*
X6783Y6643D02*
X6583Y7043D01*
X6983D01*
X6783Y6643D01*
Y6723D02*
X6663Y6963D01*
X6903D01*
X6783Y6723D01*
X5917Y6210D02*
X5717Y6610D01*
X6117D01*
X5917Y6210D01*
Y6290D02*
X5797Y6530D01*
X6037D01*
X5917Y6290D01*
X6350Y6210D02*
X6150Y6610D01*
X6550D01*
X6350Y6210D01*
Y6290D02*
X6230Y6530D01*
X6470D01*
X6350Y6290D01*
X6783Y6210D02*
X6583Y6610D01*
X6983D01*
X6783Y6210D01*
Y6290D02*
X6663Y6530D01*
X6903D01*
X6783Y6290D01*
X5917Y5777D02*
X5717Y6177D01*
X6117D01*
X5917Y5777D01*
Y5857D02*
X5797Y6097D01*
X6037D01*
X5917Y5857D01*
X6350Y5777D02*
X6150Y6177D01*
X6550D01*
X6350Y5777D01*
Y5857D02*
X6230Y6097D01*
X6470D01*
X6350Y5857D01*
X6783Y5777D02*
X6583Y6177D01*
X6983D01*
X6783Y5777D01*
Y5857D02*
X6663Y6097D01*
X6903D01*
X6783Y5857D01*
X10268Y26899D02*
Y27299D01*
X10668D01*
Y26899D01*
X10268D01*
X10349Y26978D02*
Y27218D01*
X10589D01*
Y26978D01*
X10349D01*
X8600Y26870D02*
X8400Y27270D01*
X8800D01*
X8600Y26870D01*
Y26950D02*
X8480Y27190D01*
X8720D01*
X8600Y26950D01*
X831Y19421D02*
Y19821D01*
X1231D01*
Y19421D01*
X831D01*
X911Y19501D02*
Y19741D01*
X1151D01*
Y19501D01*
X911D01*
X3840Y5330D02*
X3640Y5730D01*
X4040D01*
X3840Y5330D01*
Y5410D02*
X3720Y5650D01*
X3960D01*
X3840Y5410D01*
Y5920D02*
X3640Y6320D01*
X4040D01*
X3840Y5920D01*
Y6000D02*
X3720Y6240D01*
X3960D01*
X3840Y6000D01*
Y6510D02*
X3640Y6910D01*
X4040D01*
X3840Y6510D01*
Y6590D02*
X3720Y6830D01*
X3960D01*
X3840Y6590D01*
Y7100D02*
X3640Y7500D01*
X4040D01*
X3840Y7100D01*
Y7180D02*
X3720Y7420D01*
X3960D01*
X3840Y7180D01*
X4150Y7670D02*
X3950Y8070D01*
X4350D01*
X4150Y7670D01*
Y7750D02*
X4030Y7990D01*
X4270D01*
X4150Y7750D01*
X15540Y11230D02*
X15740Y11430D01*
X15940Y11230D01*
X15740Y11030D01*
X15540Y11230D01*
X15730Y15530D02*
X15930Y15730D01*
X16130Y15530D01*
X15930Y15330D01*
X15730Y15530D01*
X8287Y12540D02*
X8087Y12940D01*
X8487D01*
X8287Y12540D01*
Y12620D02*
X8167Y12860D01*
X8407D01*
X8287Y12620D01*
X8570Y12260D02*
X8370Y12660D01*
X8770D01*
X8570Y12260D01*
Y12340D02*
X8450Y12580D01*
X8690D01*
X8570Y12340D01*
X8580Y11750D02*
X8380Y12150D01*
X8780D01*
X8580Y11750D01*
Y11830D02*
X8460Y12070D01*
X8700D01*
X8580Y11830D01*
X6711Y17370D02*
Y17770D01*
X7111D01*
Y17370D01*
X6711D01*
X6791Y17450D02*
Y17690D01*
X7031D01*
Y17450D01*
X6791D01*
X8330Y17330D02*
Y17730D01*
X8730D01*
Y17330D01*
X8330D01*
X8410Y17410D02*
Y17650D01*
X8650D01*
Y17410D01*
X8410D01*
X11150Y6790D02*
Y7190D01*
X11550D01*
Y6790D01*
X11150D01*
X11230Y6870D02*
Y7110D01*
X11470D01*
Y6870D01*
X11230D01*
X11140Y6490D02*
Y6890D01*
X11540D01*
Y6490D01*
X11140D01*
X11220Y6570D02*
Y6810D01*
X11460D01*
Y6570D01*
X11220D01*
X7530Y4650D02*
X7330Y5050D01*
X7730D01*
X7530Y4650D01*
Y4730D02*
X7410Y4970D01*
X7650D01*
X7530Y4730D01*
X3727Y13910D02*
X3527Y14310D01*
X3927D01*
X3727Y13910D01*
Y13990D02*
X3607Y14230D01*
X3847D01*
X3727Y13990D01*
X3877Y13050D02*
X3677Y13450D01*
X4077D01*
X3877Y13050D01*
Y13130D02*
X3757Y13370D01*
X3997D01*
X3877Y13130D01*
Y12850D02*
X3677Y13250D01*
X4077D01*
X3877Y12850D01*
Y12930D02*
X3757Y13170D01*
X3997D01*
X3877Y12930D01*
X4757Y11250D02*
X4557Y11650D01*
X4957D01*
X4757Y11250D01*
Y11330D02*
X4637Y11570D01*
X4877D01*
X4757Y11330D01*
X960Y12221D02*
X760Y12621D01*
X1160D01*
X960Y12221D01*
Y12301D02*
X840Y12541D01*
X1080D01*
X960Y12301D01*
X4757Y11050D02*
X4557Y11450D01*
X4957D01*
X4757Y11050D01*
Y11130D02*
X4637Y11370D01*
X4877D01*
X4757Y11130D01*
X960Y12020D02*
X760Y12420D01*
X1160D01*
X960Y12020D01*
Y12100D02*
X840Y12340D01*
X1080D01*
X960Y12100D01*
X4964Y14053D02*
X4764Y14453D01*
X5164D01*
X4964Y14053D01*
Y14133D02*
X4844Y14373D01*
X5084D01*
X4964Y14133D01*
X960Y12490D02*
X760Y12890D01*
X1160D01*
X960Y12490D01*
Y12570D02*
X840Y12810D01*
X1080D01*
X960Y12570D01*
X4822Y14194D02*
X4622Y14594D01*
X5022D01*
X4822Y14194D01*
Y14274D02*
X4702Y14514D01*
X4942D01*
X4822Y14274D01*
X960Y12700D02*
X760Y13100D01*
X1160D01*
X960Y12700D01*
Y12780D02*
X840Y13020D01*
X1080D01*
X960Y12780D01*
Y13170D02*
X760Y13570D01*
X1160D01*
X960Y13170D01*
Y13250D02*
X840Y13490D01*
X1080D01*
X960Y13250D01*
Y12950D02*
X760Y13350D01*
X1160D01*
X960Y12950D01*
Y13030D02*
X840Y13270D01*
X1080D01*
X960Y13030D01*
X1680Y12830D02*
X1480Y13230D01*
X1880D01*
X1680Y12830D01*
Y12910D02*
X1560Y13150D01*
X1800D01*
X1680Y12910D01*
X4477Y12450D02*
X4277Y12850D01*
X4677D01*
X4477Y12450D01*
Y12530D02*
X4357Y12770D01*
X4597D01*
X4477Y12530D01*
X970Y14120D02*
X770Y14520D01*
X1170D01*
X970Y14120D01*
Y14200D02*
X850Y14440D01*
X1090D01*
X970Y14200D01*
X4277Y12450D02*
X4077Y12850D01*
X4477D01*
X4277Y12450D01*
Y12530D02*
X4157Y12770D01*
X4397D01*
X4277Y12530D01*
X970Y13920D02*
X770Y14320D01*
X1170D01*
X970Y13920D01*
Y14000D02*
X850Y14240D01*
X1090D01*
X970Y14000D01*
X960Y13640D02*
X760Y14040D01*
X1160D01*
X960Y13640D01*
Y13720D02*
X840Y13960D01*
X1080D01*
X960Y13720D01*
X3727Y14110D02*
X3527Y14510D01*
X3927D01*
X3727Y14110D01*
Y14190D02*
X3607Y14430D01*
X3847D01*
X3727Y14190D01*
X960Y13440D02*
X760Y13840D01*
X1160D01*
X960Y13440D01*
Y13520D02*
X840Y13760D01*
X1080D01*
X960Y13520D01*
X2756Y12566D02*
X2556Y12966D01*
X2956D01*
X2756Y12566D01*
Y12646D02*
X2636Y12886D01*
X2876D01*
X2756Y12646D01*
X2707Y11759D02*
X2507Y12159D01*
X2907D01*
X2707Y11759D01*
Y11839D02*
X2587Y12079D01*
X2827D01*
X2707Y11839D01*
X738Y11444D02*
X538Y11844D01*
X938D01*
X738Y11444D01*
Y11524D02*
X618Y11764D01*
X858D01*
X738Y11524D01*
X2140Y13620D02*
X1940Y14020D01*
X2340D01*
X2140Y13620D01*
Y13700D02*
X2020Y13940D01*
X2260D01*
X2140Y13700D01*
X4877Y12450D02*
X4677Y12850D01*
X5077D01*
X4877Y12450D01*
Y12530D02*
X4757Y12770D01*
X4997D01*
X4877Y12530D01*
X3877Y12450D02*
X3677Y12850D01*
X4077D01*
X3877Y12450D01*
Y12530D02*
X3757Y12770D01*
X3997D01*
X3877Y12530D01*
X5608Y15670D02*
X5408Y16070D01*
X5808D01*
X5608Y15670D01*
Y15750D02*
X5488Y15990D01*
X5728D01*
X5608Y15750D01*
X5247Y13770D02*
X5047Y14170D01*
X5447D01*
X5247Y13770D01*
Y13850D02*
X5127Y14090D01*
X5367D01*
X5247Y13850D01*
X3727Y13510D02*
X3527Y13910D01*
X3927D01*
X3727Y13510D01*
Y13590D02*
X3607Y13830D01*
X3847D01*
X3727Y13590D01*
X4537Y14480D02*
X4337Y14880D01*
X4737D01*
X4537Y14480D01*
Y14560D02*
X4417Y14800D01*
X4657D01*
X4537Y14560D01*
X7003Y13540D02*
X6803Y13940D01*
X7203D01*
X7003Y13540D01*
Y13620D02*
X6883Y13860D01*
X7123D01*
X7003Y13620D01*
X7507Y13032D02*
X7307Y13432D01*
X7707D01*
X7507Y13032D01*
Y13112D02*
X7387Y13352D01*
X7627D01*
X7507Y13112D01*
X7767Y13290D02*
X7567Y13690D01*
X7967D01*
X7767Y13290D01*
Y13370D02*
X7647Y13610D01*
X7887D01*
X7767Y13370D01*
Y13800D02*
X7567Y14200D01*
X7967D01*
X7767Y13800D01*
Y13880D02*
X7647Y14120D01*
X7887D01*
X7767Y13880D01*
X8037Y13820D02*
X7837Y14220D01*
X8237D01*
X8037Y13820D01*
Y13900D02*
X7917Y14140D01*
X8157D01*
X8037Y13900D01*
X4630Y10070D02*
X4830Y10270D01*
X5030Y10070D01*
X4830Y9870D01*
X4630Y10070D01*
X4757Y10650D02*
X4557Y11050D01*
X4957D01*
X4757Y10650D01*
Y10730D02*
X4637Y10970D01*
X4877D01*
X4757Y10730D01*
Y11650D02*
X4557Y12050D01*
X4957D01*
X4757Y11650D01*
Y11730D02*
X4637Y11970D01*
X4877D01*
X4757Y11730D01*
X6517Y12270D02*
X6317Y12670D01*
X6717D01*
X6517Y12270D01*
Y12350D02*
X6397Y12590D01*
X6637D01*
X6517Y12350D01*
X7367Y14270D02*
X7167Y14670D01*
X7567D01*
X7367Y14270D01*
Y14350D02*
X7247Y14590D01*
X7487D01*
X7367Y14350D01*
X10467Y16810D02*
Y17210D01*
X10867D01*
Y16810D01*
X10467D01*
X10547Y16890D02*
Y17130D01*
X10787D01*
Y16890D01*
X10547D01*
X15580Y18810D02*
Y19210D01*
X15980D01*
Y18810D01*
X15580D01*
X15660Y18890D02*
Y19130D01*
X15900D01*
Y18890D01*
X15660D01*
X14150Y26340D02*
X14350Y26540D01*
X14550Y26340D01*
X14350Y26140D01*
X14150Y26340D01*
X13570Y26370D02*
X13770Y26570D01*
X13970Y26370D01*
X13770Y26170D01*
X13570Y26370D01*
X13840Y26035D02*
X14040Y26235D01*
X14240Y26035D01*
X14040Y25835D01*
X13840Y26035D01*
X15820Y24120D02*
Y24520D01*
X16220D01*
Y24120D01*
X15820D01*
X15900Y24200D02*
Y24440D01*
X16140D01*
Y24200D01*
X15900D01*
X13740Y1900D02*
X13940Y2100D01*
X14140Y1900D01*
X13940Y1700D01*
X13740Y1900D01*
X13380Y3740D02*
Y4140D01*
X13780D01*
Y3740D01*
X13380D01*
X13460Y3820D02*
Y4060D01*
X13700D01*
Y3820D01*
X13460D01*
X13440Y7090D02*
Y7490D01*
X13840D01*
Y7090D01*
X13440D01*
X13520Y7170D02*
Y7410D01*
X13760D01*
Y7170D01*
X13520D01*
X14426Y7102D02*
Y7502D01*
X14826D01*
Y7102D01*
X14426D01*
X14506Y7182D02*
Y7422D01*
X14746D01*
Y7182D01*
X14506D01*
X15820Y18610D02*
X16020Y18810D01*
X16220Y18610D01*
X16020Y18410D01*
X15820Y18610D01*
X5440Y24670D02*
Y25070D01*
X5840D01*
Y24670D01*
X5440D01*
X5520Y24750D02*
Y24990D01*
X5760D01*
Y24750D01*
X5520D01*
X7410Y3170D02*
Y3570D01*
X7810D01*
Y3170D01*
X7410D01*
X7490Y3250D02*
Y3490D01*
X7730D01*
Y3250D01*
X7490D01*
X7940Y2950D02*
Y3350D01*
X8340D01*
Y2950D01*
X7940D01*
X8020Y3030D02*
Y3270D01*
X8260D01*
Y3030D01*
X8020D01*
X12070Y2870D02*
X12270Y3070D01*
X12470Y2870D01*
X12270Y2670D01*
X12070Y2870D01*
X11940Y3230D02*
X12140Y3430D01*
X12340Y3230D01*
X12140Y3030D01*
X11940Y3230D01*
X5650Y3610D02*
X5850Y3810D01*
X6050Y3610D01*
X5850Y3410D01*
X5650Y3610D01*
X7300Y4120D02*
Y4520D01*
X7700D01*
Y4120D01*
X7300D01*
X7380Y4200D02*
Y4440D01*
X7620D01*
Y4200D01*
X7380D01*
X17940Y6560D02*
X18140Y6760D01*
X18340Y6560D01*
X18140Y6360D01*
X17940Y6560D01*
X16900Y5530D02*
Y5930D01*
X17300D01*
Y5530D01*
X16900D01*
X16980Y5610D02*
Y5850D01*
X17220D01*
Y5610D01*
X16980D01*
X17030Y7260D02*
X17230Y7460D01*
X17430Y7260D01*
X17230Y7060D01*
X17030Y7260D01*
X6450Y1299D02*
X6650Y1499D01*
X6850Y1299D01*
X6650Y1099D01*
X6450Y1299D01*
X12820Y6680D02*
X13020Y6880D01*
X13220Y6680D01*
X13020Y6480D01*
X12820Y6680D01*
X16058Y866D02*
X16258Y1066D01*
X16458Y866D01*
X16258Y666D01*
X16058Y866D01*
X13544Y4488D02*
X13744Y4688D01*
X13944Y4488D01*
X13744Y4288D01*
X13544Y4488D01*
X12852Y4322D02*
X13052Y4522D01*
X13252Y4322D01*
X13052Y4122D01*
X12852Y4322D01*
X18040Y7880D02*
X18240Y8080D01*
X18440Y7880D01*
X18240Y7680D01*
X18040Y7880D01*
X15310Y21540D02*
Y21940D01*
X15710D01*
Y21540D01*
X15310D01*
X15390Y21620D02*
Y21860D01*
X15630D01*
Y21620D01*
X15390D01*
X17180Y5050D02*
X17280Y5250D01*
X17180Y5450D01*
X17380Y5350D01*
X17580Y5450D01*
X17480Y5250D01*
X17580Y5050D01*
X17380Y5150D01*
X17180Y5050D01*
X17260Y5130D02*
X17320Y5250D01*
X17260Y5370D01*
X17380Y5310D01*
X17500Y5370D01*
X17440Y5250D01*
X17500Y5130D01*
X17380Y5190D01*
X17260Y5130D01*
X3600Y20620D02*
X3800Y20820D01*
X4000Y20620D01*
X3800Y20420D01*
X3600Y20620D01*
X5430Y21570D02*
X5630Y21770D01*
X5830Y21570D01*
X5630Y21370D01*
X5430Y21570D01*
Y23440D02*
X5630Y23640D01*
X5830Y23440D01*
X5630Y23240D01*
X5430Y23440D01*
X15735Y16167D02*
X15935Y16367D01*
X16135Y16167D01*
X15935Y15967D01*
X15735Y16167D01*
X6100Y27180D02*
X6300Y27380D01*
X6500Y27180D01*
X6300Y26980D01*
X6100Y27180D01*
X5927Y14280D02*
X5727Y14680D01*
X6127D01*
X5927Y14280D01*
Y14360D02*
X5807Y14600D01*
X6047D01*
X5927Y14360D01*
X5807Y15090D02*
X5607Y15490D01*
X6007D01*
X5807Y15090D01*
Y15170D02*
X5687Y15410D01*
X5927D01*
X5807Y15170D01*
X5998Y15240D02*
X5798Y15640D01*
X6198D01*
X5998Y15240D01*
Y15320D02*
X5878Y15560D01*
X6118D01*
X5998Y15320D01*
X6568Y14970D02*
X6368Y15370D01*
X6768D01*
X6568Y14970D01*
Y15050D02*
X6448Y15290D01*
X6688D01*
X6568Y15050D01*
X13346Y25677D02*
X13546Y25877D01*
X13746Y25677D01*
X13546Y25477D01*
X13346Y25677D01*
X13445Y26870D02*
X13645Y27070D01*
X13845Y26870D01*
X13645Y26670D01*
X13445Y26870D01*
X11321Y24180D02*
X11121Y24580D01*
X11521D01*
X11321Y24180D01*
Y24260D02*
X11201Y24500D01*
X11441D01*
X11321Y24260D01*
X8539Y23050D02*
X8739Y23250D01*
X8939Y23050D01*
X8739Y22850D01*
X8539Y23050D01*
X9230Y21342D02*
X9430Y21542D01*
X9630Y21342D01*
X9430Y21142D01*
X9230Y21342D01*
X8539Y22033D02*
X8739Y22233D01*
X8939Y22033D01*
X8739Y21833D01*
X8539Y22033D01*
X4271Y27750D02*
X4471Y27950D01*
X4671Y27750D01*
X4471Y27550D01*
X4271Y27750D01*
X7831Y26070D02*
Y26470D01*
X8231D01*
Y26070D01*
X7831D01*
X7911Y26150D02*
Y26390D01*
X8151D01*
Y26150D01*
X7911D01*
X15126Y5192D02*
X15226Y5392D01*
X15126Y5592D01*
X15326Y5492D01*
X15526Y5592D01*
X15426Y5392D01*
X15526Y5192D01*
X15326Y5292D01*
X15126Y5192D01*
X15206Y5272D02*
X15266Y5392D01*
X15206Y5512D01*
X15326Y5452D01*
X15446Y5512D01*
X15386Y5392D01*
X15446Y5272D01*
X15326Y5332D01*
X15206Y5272D01*
X6228Y15130D02*
X6028Y15530D01*
X6428D01*
X6228Y15130D01*
Y15210D02*
X6108Y15450D01*
X6348D01*
X6228Y15210D01*
X6061Y19140D02*
Y19540D01*
X6461D01*
Y19140D01*
X6061D01*
X6141Y19220D02*
Y19460D01*
X6381D01*
Y19220D01*
X6141D01*
X6021Y18630D02*
Y19030D01*
X6421D01*
Y18630D01*
X6021D01*
X6101Y18710D02*
Y18950D01*
X6341D01*
Y18710D01*
X6101D01*
X6021Y18140D02*
Y18540D01*
X6421D01*
Y18140D01*
X6021D01*
X6101Y18220D02*
Y18460D01*
X6341D01*
Y18220D01*
X6101D01*
X10050Y16268D02*
Y16668D01*
X10450D01*
Y16268D01*
X10050D01*
X10130Y16348D02*
Y16588D01*
X10370D01*
Y16348D01*
X10130D01*
X10698Y16360D02*
Y16760D01*
X11098D01*
Y16360D01*
X10698D01*
X10778Y16440D02*
Y16680D01*
X11018D01*
Y16440D01*
X10778D01*
X11278Y16430D02*
Y16830D01*
X11678D01*
Y16430D01*
X11278D01*
X11358Y16510D02*
Y16750D01*
X11598D01*
Y16510D01*
X11358D01*
X7385Y12050D02*
X7185Y12450D01*
X7585D01*
X7385Y12050D01*
Y12130D02*
X7265Y12370D01*
X7505D01*
X7385Y12130D01*
X6977Y12550D02*
X6777Y12950D01*
X7177D01*
X6977Y12550D01*
Y12630D02*
X6857Y12870D01*
X7097D01*
X6977Y12630D01*
X651Y14120D02*
X451Y14520D01*
X851D01*
X651Y14120D01*
Y14200D02*
X531Y14440D01*
X771D01*
X651Y14200D01*
Y13920D02*
X451Y14320D01*
X851D01*
X651Y13920D01*
Y14000D02*
X531Y14240D01*
X771D01*
X651Y14000D01*
Y13640D02*
X451Y14040D01*
X851D01*
X651Y13640D01*
Y13720D02*
X531Y13960D01*
X771D01*
X651Y13720D01*
Y13440D02*
X451Y13840D01*
X851D01*
X651Y13440D01*
Y13520D02*
X531Y13760D01*
X771D01*
X651Y13520D01*
Y13170D02*
X451Y13570D01*
X851D01*
X651Y13170D01*
Y13250D02*
X531Y13490D01*
X771D01*
X651Y13250D01*
Y12950D02*
X451Y13350D01*
X851D01*
X651Y12950D01*
Y13030D02*
X531Y13270D01*
X771D01*
X651Y13030D01*
Y12700D02*
X451Y13100D01*
X851D01*
X651Y12700D01*
Y12780D02*
X531Y13020D01*
X771D01*
X651Y12780D01*
Y12490D02*
X451Y12890D01*
X851D01*
X651Y12490D01*
Y12570D02*
X531Y12810D01*
X771D01*
X651Y12570D01*
Y12220D02*
X451Y12620D01*
X851D01*
X651Y12220D01*
Y12300D02*
X531Y12540D01*
X771D01*
X651Y12300D01*
X7320Y5280D02*
X7120Y5680D01*
X7520D01*
X7320Y5280D01*
Y5360D02*
X7200Y5600D01*
X7440D01*
X7320Y5360D01*
Y7140D02*
X7120Y7540D01*
X7520D01*
X7320Y7140D01*
Y7220D02*
X7200Y7460D01*
X7440D01*
X7320Y7220D01*
X5420Y7140D02*
X5220Y7540D01*
X5620D01*
X5420Y7140D01*
Y7220D02*
X5300Y7460D01*
X5540D01*
X5420Y7220D01*
X5410Y5240D02*
X5210Y5640D01*
X5610D01*
X5410Y5240D01*
Y5320D02*
X5290Y5560D01*
X5530D01*
X5410Y5320D01*
X651Y12020D02*
X451Y12420D01*
X851D01*
X651Y12020D01*
Y12100D02*
X531Y12340D01*
X771D01*
X651Y12100D01*
X5670Y27737D02*
X5870Y27937D01*
X6070Y27737D01*
X5870Y27537D01*
X5670Y27737D01*
X2580Y8480D02*
X2780Y8680D01*
X2980Y8480D01*
X2780Y8280D01*
X2580Y8480D01*
X6100Y3810D02*
X6300Y4010D01*
X6500Y3810D01*
X6300Y3610D01*
X6100Y3810D01*
X8507Y13830D02*
X8307Y14230D01*
X8707D01*
X8507Y13830D01*
Y13910D02*
X8387Y14150D01*
X8627D01*
X8507Y13910D01*
X8283Y11709D02*
X8083Y12109D01*
X8483D01*
X8283Y11709D01*
Y11789D02*
X8163Y12029D01*
X8403D01*
X8283Y11789D01*
X7737Y14280D02*
X7537Y14680D01*
X7937D01*
X7737Y14280D01*
Y14360D02*
X7617Y14600D01*
X7857D01*
X7737Y14360D01*
X8027Y12792D02*
X7827Y13192D01*
X8227D01*
X8027Y12792D01*
Y12872D02*
X7907Y13112D01*
X8147D01*
X8027Y12872D01*
X7505Y12536D02*
X7305Y12936D01*
X7705D01*
X7505Y12536D01*
Y12616D02*
X7385Y12856D01*
X7625D01*
X7505Y12616D01*
Y12841D02*
X7305Y13241D01*
X7705D01*
X7505Y12841D01*
Y12921D02*
X7385Y13161D01*
X7625D01*
X7505Y12921D01*
X7259Y12792D02*
X7059Y13192D01*
X7459D01*
X7259Y12792D01*
Y12872D02*
X7139Y13112D01*
X7379D01*
X7259Y12872D01*
X6747Y12261D02*
X6547Y12661D01*
X6947D01*
X6747Y12261D01*
Y12341D02*
X6627Y12581D01*
X6867D01*
X6747Y12341D01*
X6718Y12891D02*
X6518Y13291D01*
X6918D01*
X6718Y12891D01*
Y12971D02*
X6598Y13211D01*
X6838D01*
X6718Y12971D01*
X6235Y14050D02*
X6035Y14450D01*
X6435D01*
X6235Y14050D01*
Y14130D02*
X6115Y14370D01*
X6355D01*
X6235Y14130D01*
X7259Y13806D02*
X7059Y14206D01*
X7459D01*
X7259Y13806D01*
Y13886D02*
X7139Y14126D01*
X7379D01*
X7259Y13886D01*
X7515Y13560D02*
X7315Y13960D01*
X7715D01*
X7515Y13560D01*
Y13640D02*
X7395Y13880D01*
X7635D01*
X7515Y13640D01*
X7259Y13550D02*
X7059Y13950D01*
X7459D01*
X7259Y13550D01*
Y13630D02*
X7139Y13870D01*
X7379D01*
X7259Y13630D01*
Y13284D02*
X7059Y13684D01*
X7459D01*
X7259Y13284D01*
Y13364D02*
X7139Y13604D01*
X7379D01*
X7259Y13364D01*
X7003Y13806D02*
X6803Y14206D01*
X7203D01*
X7003Y13806D01*
Y13886D02*
X6883Y14126D01*
X7123D01*
X7003Y13886D01*
X8507Y14090D02*
X8307Y14490D01*
X8707D01*
X8507Y14090D01*
Y14170D02*
X8387Y14410D01*
X8627D01*
X8507Y14170D01*
X8027Y12270D02*
X7827Y12670D01*
X8227D01*
X8027Y12270D01*
Y12350D02*
X7907Y12590D01*
X8147D01*
X8027Y12350D01*
X16088Y10288D02*
Y10188D01*
X16288D01*
Y10288D01*
X16388D01*
Y10488D01*
X16288D01*
Y10588D01*
X16088D01*
Y10488D01*
X15988D01*
Y10288D01*
X16088D01*
X16128Y10328D02*
Y10268D01*
X16248D01*
Y10328D01*
X16308D01*
Y10448D01*
X16248D01*
Y10508D01*
X16128D01*
Y10448D01*
X16068D01*
Y10328D01*
X16128D01*
X15806Y11571D02*
Y11471D01*
X16006D01*
Y11571D01*
X16106D01*
Y11771D01*
X16006D01*
Y11871D01*
X15806D01*
Y11771D01*
X15706D01*
Y11571D01*
X15806D01*
X15846Y11611D02*
Y11551D01*
X15966D01*
Y11611D01*
X16026D01*
Y11731D01*
X15966D01*
Y11791D01*
X15846D01*
Y11731D01*
X15786D01*
Y11611D01*
X15846D01*
X16111Y12910D02*
Y12810D01*
X16311D01*
Y12910D01*
X16411D01*
Y13110D01*
X16311D01*
Y13210D01*
X16111D01*
Y13110D01*
X16011D01*
Y12910D01*
X16111D01*
X16151Y12950D02*
Y12890D01*
X16271D01*
Y12950D01*
X16331D01*
Y13070D01*
X16271D01*
Y13130D01*
X16151D01*
Y13070D01*
X16091D01*
Y12950D01*
X16151D01*
X16072Y13382D02*
Y13282D01*
X16272D01*
Y13382D01*
X16372D01*
Y13582D01*
X16272D01*
Y13682D01*
X16072D01*
Y13582D01*
X15972D01*
Y13382D01*
X16072D01*
X16112Y13422D02*
Y13362D01*
X16232D01*
Y13422D01*
X16292D01*
Y13542D01*
X16232D01*
Y13602D01*
X16112D01*
Y13542D01*
X16052D01*
Y13422D01*
X16112D01*
X3756Y21450D02*
X3956Y21650D01*
X4156Y21450D01*
X3956Y21250D01*
X3756Y21450D01*
X2180Y22518D02*
X2380Y22718D01*
X2580Y22518D01*
X2380Y22318D01*
X2180Y22518D01*
X2040Y21868D02*
X2240Y22068D01*
X2440Y21868D01*
X2240Y21668D01*
X2040Y21868D01*
X2070Y23098D02*
X2270Y23298D01*
X2470Y23098D01*
X2270Y22898D01*
X2070Y23098D01*
X10761Y26848D02*
X10561Y27248D01*
X10961D01*
X10761Y26848D01*
Y26928D02*
X10641Y27168D01*
X10881D01*
X10761Y26928D01*
X11281Y24438D02*
X11081Y24838D01*
X11481D01*
X11281Y24438D01*
Y24518D02*
X11161Y24758D01*
X11401D01*
X11281Y24518D01*
X10561Y21738D02*
X10761Y21938D01*
X10961Y21738D01*
X10761Y21538D01*
X10561Y21738D01*
X9991Y23438D02*
X9791Y23838D01*
X10191D01*
X9991Y23438D01*
Y23518D02*
X9871Y23758D01*
X10111D01*
X9991Y23518D01*
X7747Y12250D02*
X7547Y12650D01*
X7947D01*
X7747Y12250D01*
Y12330D02*
X7627Y12570D01*
X7867D01*
X7747Y12330D01*
X3613Y19597D02*
X3813Y19797D01*
X4013Y19597D01*
X3813Y19397D01*
X3613Y19597D01*
X2253Y17157D02*
X2453Y17357D01*
X2653Y17157D01*
X2453Y16957D01*
X2253Y17157D01*
X5977Y14830D02*
X5777Y15230D01*
X6177D01*
X5977Y14830D01*
Y14910D02*
X5857Y15150D01*
X6097D01*
X5977Y14910D01*
X6987Y14810D02*
X6787Y15210D01*
X7187D01*
X6987Y14810D01*
Y14890D02*
X6867Y15130D01*
X7107D01*
X6987Y14890D01*
X7515Y13806D02*
X7315Y14206D01*
X7715D01*
X7515Y13806D01*
Y13886D02*
X7395Y14126D01*
X7635D01*
X7515Y13886D01*
X6737Y13550D02*
X6537Y13950D01*
X6937D01*
X6737Y13550D01*
Y13630D02*
X6617Y13870D01*
X6857D01*
X6737Y13630D01*
X7515Y13284D02*
X7315Y13684D01*
X7715D01*
X7515Y13284D01*
Y13364D02*
X7395Y13604D01*
X7635D01*
X7515Y13364D01*
X5288Y25700D02*
X5488Y25900D01*
X5688Y25700D01*
X5488Y25500D01*
X5288Y25700D01*
X6051Y8777D02*
X6251Y8977D01*
X6451Y8777D01*
X6251Y8577D01*
X6051Y8777D01*
X4631Y8560D02*
Y8960D01*
X5031D01*
Y8560D01*
X4631D01*
X4711Y8640D02*
Y8880D01*
X4951D01*
Y8640D01*
X4711D01*
X7165Y4858D02*
X6965Y5258D01*
X7365D01*
X7165Y4858D01*
Y4938D02*
X7045Y5178D01*
X7285D01*
X7165Y4938D01*
X7464Y8500D02*
X7264Y8900D01*
X7664D01*
X7464Y8500D01*
Y8580D02*
X7344Y8820D01*
X7584D01*
X7464Y8580D01*
X6653Y7427D02*
X6453Y7827D01*
X6853D01*
X6653Y7427D01*
Y7507D02*
X6533Y7747D01*
X6773D01*
X6653Y7507D01*
X4967Y4713D02*
X5167Y4913D01*
X5367Y4713D01*
X5167Y4513D01*
X4967Y4713D01*
X13319Y1575D02*
X13519Y1775D01*
X13719Y1575D01*
X13519Y1375D01*
X13319Y1575D01*
X13713Y630D02*
X13913Y830D01*
X14113Y630D01*
X13913Y430D01*
X13713Y630D01*
X12935Y630D02*
X13135Y830D01*
X13335Y630D01*
X13135Y430D01*
X12935Y630D01*
X7246Y640D02*
X7446Y840D01*
X7646Y640D01*
X7446Y440D01*
X7246Y640D01*
X6479Y640D02*
X6679Y840D01*
X6879Y640D01*
X6679Y440D01*
X6479Y640D01*
X8830Y627D02*
X9030Y827D01*
X9230Y627D01*
X9030Y427D01*
X8830Y627D01*
X9647Y883D02*
X9847Y1083D01*
X10047Y883D01*
X9847Y683D01*
X9647Y883D01*
X15277Y623D02*
X15477Y823D01*
X15677Y623D01*
X15477Y423D01*
X15277Y623D01*
X10538Y23198D02*
X10738Y23398D01*
X10938Y23198D01*
X10738Y22998D01*
X10538Y23198D01*
X2960Y22518D02*
X3160Y22718D01*
X3360Y22518D01*
X3160Y22318D01*
X2960Y22518D01*
X6521Y27510D02*
X6721Y27710D01*
X6921Y27510D01*
X6721Y27310D01*
X6521Y27510D01*
X8001Y25218D02*
X7801Y25618D01*
X8201D01*
X8001Y25218D01*
Y25298D02*
X7881Y25538D01*
X8121D01*
X8001Y25298D01*
X8537Y14840D02*
X8337Y15240D01*
X8737D01*
X8537Y14840D01*
Y14920D02*
X8417Y15160D01*
X8657D01*
X8537Y14920D01*
X7216Y20236D02*
X7416Y20436D01*
X7616Y20236D01*
X7416Y20036D01*
X7216Y20236D01*
X8309Y20246D02*
X8509Y20446D01*
X8709Y20246D01*
X8509Y20046D01*
X8309Y20246D01*
X7259Y13028D02*
X7059Y13428D01*
X7459D01*
X7259Y13028D01*
Y13108D02*
X7139Y13348D01*
X7379D01*
X7259Y13108D01*
X6757Y13284D02*
X6557Y13684D01*
X6957D01*
X6757Y13284D01*
Y13364D02*
X6637Y13604D01*
X6877D01*
X6757Y13364D01*
X11884Y5079D02*
X12084Y5279D01*
X12284Y5079D01*
X12084Y4879D01*
X11884Y5079D01*
X6481Y13550D02*
X6281Y13950D01*
X6681D01*
X6481Y13550D01*
Y13630D02*
X6361Y13870D01*
X6601D01*
X6481Y13630D01*
Y13284D02*
X6281Y13684D01*
X6681D01*
X6481Y13284D01*
Y13364D02*
X6361Y13604D01*
X6601D01*
X6481Y13364D01*
X5630Y8760D02*
X5830Y8960D01*
X6030Y8760D01*
X5830Y8560D01*
X5630Y8760D01*
X10251Y23390D02*
X10051Y23790D01*
X10451D01*
X10251Y23390D01*
Y23470D02*
X10131Y23710D01*
X10371D01*
X10251Y23470D01*
X9047Y18038D02*
Y18438D01*
X9447D01*
Y18038D01*
X9047D01*
X9127Y18118D02*
Y18358D01*
X9367D01*
Y18118D01*
X9127D01*
X6841Y27100D02*
Y27500D01*
X7241D01*
Y27100D01*
X6841D01*
X6921Y27180D02*
Y27420D01*
X7161D01*
Y27180D01*
X6921D01*
X17451Y13226D02*
Y13626D01*
X17851D01*
Y13226D01*
X17451D01*
X17531Y13306D02*
Y13546D01*
X17771D01*
Y13306D01*
X17531D01*
X17051Y8600D02*
Y9000D01*
X17451D01*
Y8600D01*
X17051D01*
X17131Y8680D02*
Y8920D01*
X17371D01*
Y8680D01*
X17131D01*
X2561Y24800D02*
Y25200D01*
X2961D01*
Y24800D01*
X2561D01*
X2641Y24880D02*
Y25120D01*
X2881D01*
Y24880D01*
X2641D01*
X3721Y23363D02*
Y23763D01*
X4121D01*
Y23363D01*
X3721D01*
X3801Y23443D02*
Y23683D01*
X4041D01*
Y23443D01*
X3801D01*
X1061Y24140D02*
Y24540D01*
X1461D01*
Y24140D01*
X1061D01*
X1141Y24220D02*
Y24460D01*
X1381D01*
Y24220D01*
X1141D01*
X7982Y25480D02*
X7782Y25880D01*
X8182D01*
X7982Y25480D01*
Y25560D02*
X7862Y25800D01*
X8102D01*
X7982Y25560D01*
X4891Y24780D02*
Y25180D01*
X5291D01*
Y24780D01*
X4891D01*
X4971Y24860D02*
Y25100D01*
X5211D01*
Y24860D01*
X4971D01*
X4361Y24770D02*
Y25170D01*
X4761D01*
Y24770D01*
X4361D01*
X4441Y24850D02*
Y25090D01*
X4681D01*
Y24850D01*
X4441D01*
X5191Y23690D02*
Y24090D01*
X5591D01*
Y23690D01*
X5191D01*
X5271Y23770D02*
Y24010D01*
X5511D01*
Y23770D01*
X5271D01*
X3727Y14510D02*
X3527Y14910D01*
X3927D01*
X3727Y14510D01*
Y14590D02*
X3607Y14830D01*
X3847D01*
X3727Y14590D01*
X7860Y7620D02*
X7660Y8020D01*
X8060D01*
X7860Y7620D01*
Y7700D02*
X7740Y7940D01*
X7980D01*
X7860Y7700D01*
X7474Y7617D02*
X7274Y8017D01*
X7674D01*
X7474Y7617D01*
Y7697D02*
X7354Y7937D01*
X7594D01*
X7474Y7697D01*
X12211Y25610D02*
Y26010D01*
X12611D01*
Y25610D01*
X12211D01*
X12291Y25690D02*
Y25930D01*
X12531D01*
Y25690D01*
X12291D01*
X11861Y25590D02*
Y25990D01*
X12261D01*
Y25590D01*
X11861D01*
X11941Y25670D02*
Y25910D01*
X12181D01*
Y25670D01*
X11941D01*
X9041Y23590D02*
X8841Y23990D01*
X9241D01*
X9041Y23590D01*
Y23670D02*
X8921Y23910D01*
X9161D01*
X9041Y23670D01*
X9301Y23590D02*
X9101Y23990D01*
X9501D01*
X9301Y23590D01*
Y23670D02*
X9181Y23910D01*
X9421D01*
X9301Y23670D01*
X8499Y23618D02*
X8299Y24018D01*
X8699D01*
X8499Y23618D01*
Y23698D02*
X8379Y23938D01*
X8619D01*
X8499Y23698D01*
X7468Y11520D02*
X7268Y11920D01*
X7668D01*
X7468Y11520D01*
Y11600D02*
X7348Y11840D01*
X7588D01*
X7468Y11600D01*
X9061Y19140D02*
Y19540D01*
X9461D01*
Y19140D01*
X9061D01*
X9141Y19220D02*
Y19460D01*
X9381D01*
Y19220D01*
X9141D01*
X9061Y18639D02*
Y19039D01*
X9461D01*
Y18639D01*
X9061D01*
X9141Y18719D02*
Y18959D01*
X9381D01*
Y18719D01*
X9141D01*
X3877Y13450D02*
X3677Y13850D01*
X4077D01*
X3877Y13450D01*
Y13530D02*
X3757Y13770D01*
X3997D01*
X3877Y13530D01*
X5991Y14048D02*
X5791Y14448D01*
X6191D01*
X5991Y14048D01*
Y14128D02*
X5871Y14368D01*
X6111D01*
X5991Y14128D01*
X11200Y5060D02*
X11400Y5260D01*
X11600Y5060D01*
X11400Y4860D01*
X11200Y5060D01*
X12230Y6338D02*
X12430Y6538D01*
X12630Y6338D01*
X12430Y6138D01*
X12230Y6338D01*
X965Y14400D02*
X765Y14800D01*
X1165D01*
X965Y14400D01*
Y14480D02*
X845Y14720D01*
X1085D01*
X965Y14480D01*
X955Y11752D02*
X755Y12152D01*
X1155D01*
X955Y11752D01*
Y11832D02*
X835Y12072D01*
X1075D01*
X955Y11832D01*
X5990Y13070D02*
X5790Y13470D01*
X6190D01*
X5990Y13070D01*
Y13150D02*
X5870Y13390D01*
X6110D01*
X5990Y13150D01*
X6847Y14250D02*
X6647Y14650D01*
X7047D01*
X6847Y14250D01*
Y14330D02*
X6727Y14570D01*
X6967D01*
X6847Y14330D01*
X10820Y14940D02*
X10620Y15340D01*
X11020D01*
X10820Y14940D01*
Y15020D02*
X10700Y15260D01*
X10940D01*
X10820Y15020D01*
D53*
X9351Y27540D02*
G03*
X9351Y27540I-120J0D01*
G01*
X7285Y10758D02*
G03*
X7285Y10758I-120J0D01*
G01*
X7128Y10541D02*
G03*
X7128Y10541I-120J0D01*
G01*
X5545Y9895D02*
G03*
X5545Y9895I-120J0D01*
G01*
X7690Y10960D02*
G03*
X7690Y10960I-120J0D01*
G01*
X12218Y14297D02*
G03*
X12218Y14297I-120J0D01*
G01*
X7860Y11510D02*
G03*
X7860Y11510I-120J0D01*
G01*
X6170Y11220D02*
G03*
X6170Y11220I-120J0D01*
G01*
X2000Y8370D02*
G03*
X2000Y8370I-120J0D01*
G01*
X9328Y16190D02*
G03*
X9328Y16190I-120J0D01*
G01*
X5250Y9760D02*
G03*
X5250Y9760I-120J0D01*
G01*
X1450Y8370D02*
G03*
X1450Y8370I-120J0D01*
G01*
X15780Y7150D02*
G03*
X15780Y7150I-120J0D01*
G01*
X16370D02*
G03*
X16370Y7150I-120J0D01*
G01*
X3900Y2900D02*
G03*
X3900Y2900I-120J0D01*
G01*
X4630Y5020D02*
G03*
X4630Y5020I-120J0D01*
G01*
X13430Y7300D02*
G03*
X13430Y7300I-120J0D01*
G01*
X16030Y22450D02*
G03*
X16030Y22450I-120J0D01*
G01*
X16531Y25150D02*
G03*
X16531Y25150I-120J0D01*
G01*
X11917Y17580D02*
G03*
X11917Y17580I-120J0D01*
G01*
X5791Y21070D02*
G03*
X5791Y21070I-120J0D01*
G01*
X15220Y25460D02*
G03*
X15220Y25460I-120J0D01*
G01*
X12640Y27370D02*
G03*
X12640Y27370I-120J0D01*
G01*
X11451Y26230D02*
G03*
X11451Y26230I-120J0D01*
G01*
X11681Y26980D02*
G03*
X11681Y26980I-120J0D01*
G01*
X1481Y19268D02*
G03*
X1481Y19268I-120J0D01*
G01*
X12240Y5850D02*
G03*
X12240Y5850I-120J0D01*
G01*
X18731Y9410D02*
G03*
X18731Y9410I-120J0D01*
G01*
X7791Y25130D02*
G03*
X7791Y25130I-120J0D01*
G01*
X6161Y26670D02*
G03*
X6161Y26670I-120J0D01*
G01*
X4281Y25650D02*
G03*
X4281Y25650I-120J0D01*
G01*
X4041Y25260D02*
G03*
X4041Y25260I-120J0D01*
G01*
X8138Y15930D02*
G03*
X8138Y15930I-120J0D01*
G01*
X8467D02*
G03*
X8467Y15930I-120J0D01*
G01*
X8857Y15920D02*
G03*
X8857Y15920I-120J0D01*
G01*
X13947Y13438D02*
G03*
X13947Y13438I-120J0D01*
G01*
X13261Y10690D02*
G03*
X13261Y10690I-120J0D01*
G01*
X12538Y16050D02*
G03*
X12538Y16050I-120J0D01*
G01*
X12861Y9830D02*
G03*
X12861Y9830I-120J0D01*
G01*
X11941Y3410D02*
G03*
X11941Y3410I-120J0D01*
G01*
X5658Y4307D02*
G03*
X5658Y4307I-120J0D01*
G01*
X12891Y10850D02*
G03*
X12891Y10850I-120J0D01*
G01*
X12621Y9140D02*
G03*
X12621Y9140I-120J0D01*
G01*
X12271Y21270D02*
G03*
X12271Y21270I-120J0D01*
G01*
X12011Y20290D02*
G03*
X12011Y20290I-120J0D01*
G01*
X11981Y26480D02*
G03*
X11981Y26480I-120J0D01*
G01*
X11691Y27300D02*
G03*
X11691Y27300I-120J0D01*
G01*
X11381Y24050D02*
G03*
X11381Y24050I-120J0D01*
G01*
X12871Y24530D02*
G03*
X12871Y24530I-120J0D01*
G01*
X12381Y22880D02*
G03*
X12381Y22880I-120J0D01*
G01*
X12011Y21470D02*
G03*
X12011Y21470I-120J0D01*
G01*
X12651Y24140D02*
G03*
X12651Y24140I-120J0D01*
G01*
X12211Y24450D02*
G03*
X12211Y24450I-120J0D01*
G01*
X12241Y24130D02*
G03*
X12241Y24130I-120J0D01*
G01*
X12681Y27030D02*
G03*
X12681Y27030I-120J0D01*
G01*
X7859Y20512D02*
G03*
X7859Y20512I-120J0D01*
G01*
X7791Y20870D02*
G03*
X7791Y20870I-120J0D01*
G01*
X13719Y21090D02*
G03*
X13719Y21090I-120J0D01*
G01*
X13161Y20768D02*
G03*
X13161Y20768I-120J0D01*
G01*
X13641Y20510D02*
G03*
X13641Y20510I-120J0D01*
G01*
X10378Y17210D02*
G03*
X10378Y17210I-120J0D01*
G01*
X8458Y16580D02*
G03*
X8458Y16580I-120J0D01*
G01*
X12218Y17370D02*
G03*
X12218Y17370I-120J0D01*
G01*
X9961Y19190D02*
G03*
X9961Y19190I-120J0D01*
G01*
X6500Y11620D02*
G03*
X6500Y11620I-120J0D01*
G01*
X1650Y10709D02*
G03*
X1650Y10709I-120J0D01*
G01*
X1951Y10669D02*
G03*
X1951Y10669I-120J0D01*
G01*
X2285Y10660D02*
G03*
X2285Y10660I-120J0D01*
G01*
X2659Y10659D02*
G03*
X2659Y10659I-120J0D01*
G01*
D211*
X810Y23756D02*
G03*
X810Y23756I-200J0D01*
G01*
Y21000D02*
G03*
X810Y21000I-200J0D01*
G01*
X9431Y27540D02*
G03*
X9431Y27540I-200J0D01*
G01*
X7365Y10758D02*
G03*
X7365Y10758I-200J0D01*
G01*
X7208Y10541D02*
G03*
X7208Y10541I-200J0D01*
G01*
X5625Y9895D02*
G03*
X5625Y9895I-200J0D01*
G01*
X7770Y10960D02*
G03*
X7770Y10960I-200J0D01*
G01*
X12298Y14297D02*
G03*
X12298Y14297I-200J0D01*
G01*
X7940Y11510D02*
G03*
X7940Y11510I-200J0D01*
G01*
X6250Y11220D02*
G03*
X6250Y11220I-200J0D01*
G01*
X2080Y8370D02*
G03*
X2080Y8370I-200J0D01*
G01*
X9408Y16190D02*
G03*
X9408Y16190I-200J0D01*
G01*
X5330Y9760D02*
G03*
X5330Y9760I-200J0D01*
G01*
X1530Y8370D02*
G03*
X1530Y8370I-200J0D01*
G01*
X15860Y7150D02*
G03*
X15860Y7150I-200J0D01*
G01*
X16450D02*
G03*
X16450Y7150I-200J0D01*
G01*
X3980Y2900D02*
G03*
X3980Y2900I-200J0D01*
G01*
X4710Y5020D02*
G03*
X4710Y5020I-200J0D01*
G01*
X13510Y7300D02*
G03*
X13510Y7300I-200J0D01*
G01*
X16110Y22450D02*
G03*
X16110Y22450I-200J0D01*
G01*
X16611Y25150D02*
G03*
X16611Y25150I-200J0D01*
G01*
X11997Y17580D02*
G03*
X11997Y17580I-200J0D01*
G01*
X5871Y21070D02*
G03*
X5871Y21070I-200J0D01*
G01*
X15300Y25460D02*
G03*
X15300Y25460I-200J0D01*
G01*
X12720Y27370D02*
G03*
X12720Y27370I-200J0D01*
G01*
X11531Y26230D02*
G03*
X11531Y26230I-200J0D01*
G01*
X11761Y26980D02*
G03*
X11761Y26980I-200J0D01*
G01*
X1561Y19268D02*
G03*
X1561Y19268I-200J0D01*
G01*
X12320Y5850D02*
G03*
X12320Y5850I-200J0D01*
G01*
X18811Y9410D02*
G03*
X18811Y9410I-200J0D01*
G01*
X7871Y25130D02*
G03*
X7871Y25130I-200J0D01*
G01*
X6241Y26670D02*
G03*
X6241Y26670I-200J0D01*
G01*
X4361Y25650D02*
G03*
X4361Y25650I-200J0D01*
G01*
X4121Y25260D02*
G03*
X4121Y25260I-200J0D01*
G01*
X8218Y15930D02*
G03*
X8218Y15930I-200J0D01*
G01*
X8547D02*
G03*
X8547Y15930I-200J0D01*
G01*
X8937Y15920D02*
G03*
X8937Y15920I-200J0D01*
G01*
X14027Y13438D02*
G03*
X14027Y13438I-200J0D01*
G01*
X13341Y10690D02*
G03*
X13341Y10690I-200J0D01*
G01*
X12618Y16050D02*
G03*
X12618Y16050I-200J0D01*
G01*
X12941Y9830D02*
G03*
X12941Y9830I-200J0D01*
G01*
X12021Y3410D02*
G03*
X12021Y3410I-200J0D01*
G01*
X5738Y4307D02*
G03*
X5738Y4307I-200J0D01*
G01*
X12971Y10850D02*
G03*
X12971Y10850I-200J0D01*
G01*
X12701Y9140D02*
G03*
X12701Y9140I-200J0D01*
G01*
X12351Y21270D02*
G03*
X12351Y21270I-200J0D01*
G01*
X12091Y20290D02*
G03*
X12091Y20290I-200J0D01*
G01*
X12061Y26480D02*
G03*
X12061Y26480I-200J0D01*
G01*
X11771Y27300D02*
G03*
X11771Y27300I-200J0D01*
G01*
X11461Y24050D02*
G03*
X11461Y24050I-200J0D01*
G01*
X12951Y24530D02*
G03*
X12951Y24530I-200J0D01*
G01*
X12461Y22880D02*
G03*
X12461Y22880I-200J0D01*
G01*
X12091Y21470D02*
G03*
X12091Y21470I-200J0D01*
G01*
X12731Y24140D02*
G03*
X12731Y24140I-200J0D01*
G01*
X12291Y24450D02*
G03*
X12291Y24450I-200J0D01*
G01*
X12321Y24130D02*
G03*
X12321Y24130I-200J0D01*
G01*
X12761Y27030D02*
G03*
X12761Y27030I-200J0D01*
G01*
X7939Y20512D02*
G03*
X7939Y20512I-200J0D01*
G01*
X7871Y20870D02*
G03*
X7871Y20870I-200J0D01*
G01*
X13799Y21090D02*
G03*
X13799Y21090I-200J0D01*
G01*
X13241Y20768D02*
G03*
X13241Y20768I-200J0D01*
G01*
X13721Y20510D02*
G03*
X13721Y20510I-200J0D01*
G01*
X10458Y17210D02*
G03*
X10458Y17210I-200J0D01*
G01*
X8538Y16580D02*
G03*
X8538Y16580I-200J0D01*
G01*
X12298Y17370D02*
G03*
X12298Y17370I-200J0D01*
G01*
X10041Y19190D02*
G03*
X10041Y19190I-200J0D01*
G01*
X6580Y11620D02*
G03*
X6580Y11620I-200J0D01*
G01*
X1730Y10709D02*
G03*
X1730Y10709I-200J0D01*
G01*
X2031Y10669D02*
G03*
X2031Y10669I-200J0D01*
G01*
X2365Y10660D02*
G03*
X2365Y10660I-200J0D01*
G01*
X2739Y10659D02*
G03*
X2739Y10659I-200J0D01*
G01*
M02*
