G04 Layer_Color=16711935*
%FSLAX24Y24*%
%MOIN*%
G70*
G01*
G75*
G04:AMPARAMS|DCode=135|XSize=28mil|YSize=30mil|CornerRadius=7.4mil|HoleSize=0mil|Usage=FLASHONLY|Rotation=270.000|XOffset=0mil|YOffset=0mil|HoleType=Round|Shape=RoundedRectangle|*
%AMROUNDEDRECTD135*
21,1,0.0280,0.0152,0,0,270.0*
21,1,0.0132,0.0300,0,0,270.0*
1,1,0.0148,-0.0076,-0.0066*
1,1,0.0148,-0.0076,0.0066*
1,1,0.0148,0.0076,0.0066*
1,1,0.0148,0.0076,-0.0066*
%
%ADD135ROUNDEDRECTD135*%
G04:AMPARAMS|DCode=136|XSize=28mil|YSize=30mil|CornerRadius=7.4mil|HoleSize=0mil|Usage=FLASHONLY|Rotation=180.000|XOffset=0mil|YOffset=0mil|HoleType=Round|Shape=RoundedRectangle|*
%AMROUNDEDRECTD136*
21,1,0.0280,0.0152,0,0,180.0*
21,1,0.0132,0.0300,0,0,180.0*
1,1,0.0148,-0.0066,0.0076*
1,1,0.0148,0.0066,0.0076*
1,1,0.0148,0.0066,-0.0076*
1,1,0.0148,-0.0066,-0.0076*
%
%ADD136ROUNDEDRECTD136*%
%ADD139R,0.0217X0.0178*%
G04:AMPARAMS|DCode=142|XSize=35.1mil|YSize=45.4mil|CornerRadius=8.8mil|HoleSize=0mil|Usage=FLASHONLY|Rotation=90.000|XOffset=0mil|YOffset=0mil|HoleType=Round|Shape=RoundedRectangle|*
%AMROUNDEDRECTD142*
21,1,0.0351,0.0277,0,0,90.0*
21,1,0.0175,0.0454,0,0,90.0*
1,1,0.0177,0.0139,0.0087*
1,1,0.0177,0.0139,-0.0087*
1,1,0.0177,-0.0139,-0.0087*
1,1,0.0177,-0.0139,0.0087*
%
%ADD142ROUNDEDRECTD142*%
G04:AMPARAMS|DCode=156|XSize=58mil|YSize=66mil|CornerRadius=16mil|HoleSize=0mil|Usage=FLASHONLY|Rotation=270.000|XOffset=0mil|YOffset=0mil|HoleType=Round|Shape=RoundedRectangle|*
%AMROUNDEDRECTD156*
21,1,0.0580,0.0340,0,0,270.0*
21,1,0.0260,0.0660,0,0,270.0*
1,1,0.0320,-0.0170,-0.0130*
1,1,0.0320,-0.0170,0.0130*
1,1,0.0320,0.0170,0.0130*
1,1,0.0320,0.0170,-0.0130*
%
%ADD156ROUNDEDRECTD156*%
G04:AMPARAMS|DCode=168|XSize=80mil|YSize=80mil|CornerRadius=40mil|HoleSize=0mil|Usage=FLASHONLY|Rotation=90.000|XOffset=0mil|YOffset=0mil|HoleType=Round|Shape=RoundedRectangle|*
%AMROUNDEDRECTD168*
21,1,0.0800,0.0000,0,0,90.0*
21,1,0.0000,0.0800,0,0,90.0*
1,1,0.0800,0.0000,0.0000*
1,1,0.0800,0.0000,0.0000*
1,1,0.0800,0.0000,0.0000*
1,1,0.0800,0.0000,0.0000*
%
%ADD168ROUNDEDRECTD168*%
%ADD169P,0.0736X8X202.5*%
%ADD170R,0.0060X0.0060*%
%ADD171C,0.0760*%
G04:AMPARAMS|DCode=172|XSize=67mil|YSize=41mil|CornerRadius=17mil|HoleSize=0mil|Usage=FLASHONLY|Rotation=180.000|XOffset=0mil|YOffset=0mil|HoleType=Round|Shape=RoundedRectangle|*
%AMROUNDEDRECTD172*
21,1,0.0670,0.0070,0,0,180.0*
21,1,0.0330,0.0410,0,0,180.0*
1,1,0.0340,-0.0165,0.0035*
1,1,0.0340,0.0165,0.0035*
1,1,0.0340,0.0165,-0.0035*
1,1,0.0340,-0.0165,-0.0035*
%
%ADD172ROUNDEDRECTD172*%
G04:AMPARAMS|DCode=173|XSize=55.2mil|YSize=42.6mil|CornerRadius=17.6mil|HoleSize=0mil|Usage=FLASHONLY|Rotation=90.000|XOffset=0mil|YOffset=0mil|HoleType=Round|Shape=RoundedRectangle|*
%AMROUNDEDRECTD173*
21,1,0.0552,0.0073,0,0,90.0*
21,1,0.0199,0.0426,0,0,90.0*
1,1,0.0353,0.0037,0.0100*
1,1,0.0353,0.0037,-0.0100*
1,1,0.0353,-0.0037,-0.0100*
1,1,0.0353,-0.0037,0.0100*
%
%ADD173ROUNDEDRECTD173*%
%ADD174R,0.0611X0.0178*%
%ADD175R,0.0611X0.0473*%
%ADD176R,0.0493X0.0257*%
G04:AMPARAMS|DCode=177|XSize=56mil|YSize=56mil|CornerRadius=28mil|HoleSize=0mil|Usage=FLASHONLY|Rotation=90.000|XOffset=0mil|YOffset=0mil|HoleType=Round|Shape=RoundedRectangle|*
%AMROUNDEDRECTD177*
21,1,0.0560,0.0000,0,0,90.0*
21,1,0.0000,0.0560,0,0,90.0*
1,1,0.0560,0.0000,0.0000*
1,1,0.0560,0.0000,0.0000*
1,1,0.0560,0.0000,0.0000*
1,1,0.0560,0.0000,0.0000*
%
%ADD177ROUNDEDRECTD177*%
G36*
X14709Y28262D02*
X14714Y28261D01*
X14718Y28259D01*
X14722Y28257D01*
X14726Y28254D01*
X14729Y28250D01*
X14732Y28246D01*
X14733Y28242D01*
X14734Y28237D01*
X14735Y28232D01*
Y27987D01*
X14980D01*
X14985Y27986D01*
X14990Y27985D01*
X14994Y27984D01*
X14998Y27981D01*
X15002Y27978D01*
X15005Y27974D01*
X15007Y27970D01*
X15009Y27966D01*
X15010Y27961D01*
X15010Y27957D01*
Y27189D01*
X15010Y27184D01*
X15009Y27180D01*
X15007Y27175D01*
X15005Y27171D01*
X15002Y27168D01*
X14998Y27165D01*
X14994Y27162D01*
X14990Y27160D01*
X14985Y27159D01*
X14980Y27159D01*
X14075D01*
X14070Y27159D01*
X14066Y27160D01*
X14061Y27162D01*
X14057Y27165D01*
X14054Y27168D01*
X14050Y27171D01*
X14048Y27175D01*
X14046Y27180D01*
X14045Y27184D01*
X14045Y27189D01*
Y27957D01*
X14045Y27961D01*
X14046Y27966D01*
X14048Y27970D01*
X14050Y27974D01*
X14054Y27978D01*
X14057Y27981D01*
X14061Y27984D01*
X14066Y27985D01*
X14070Y27986D01*
X14075Y27987D01*
X14320D01*
Y28232D01*
X14321Y28237D01*
X14322Y28242D01*
X14324Y28246D01*
X14326Y28250D01*
X14329Y28254D01*
X14333Y28257D01*
X14337Y28259D01*
X14341Y28261D01*
X14346Y28262D01*
X14350Y28262D01*
X14705D01*
X14709Y28262D01*
D02*
G37*
G36*
X14985Y25486D02*
X14990Y25485D01*
X14994Y25484D01*
X14998Y25481D01*
X15002Y25478D01*
X15005Y25474D01*
X15007Y25470D01*
X15009Y25466D01*
X15010Y25461D01*
X15010Y25457D01*
Y24689D01*
X15010Y24684D01*
X15009Y24680D01*
X15007Y24675D01*
X15005Y24671D01*
X15002Y24668D01*
X14998Y24665D01*
X14994Y24662D01*
X14990Y24660D01*
X14985Y24659D01*
X14980Y24659D01*
X14735D01*
Y24413D01*
X14734Y24409D01*
X14733Y24404D01*
X14732Y24400D01*
X14729Y24396D01*
X14726Y24392D01*
X14722Y24389D01*
X14718Y24387D01*
X14714Y24385D01*
X14709Y24384D01*
X14705Y24383D01*
X14350D01*
X14346Y24384D01*
X14341Y24385D01*
X14337Y24387D01*
X14333Y24389D01*
X14329Y24392D01*
X14326Y24396D01*
X14324Y24400D01*
X14322Y24404D01*
X14321Y24409D01*
X14320Y24413D01*
Y24659D01*
X14075D01*
X14070Y24659D01*
X14066Y24660D01*
X14061Y24662D01*
X14057Y24665D01*
X14054Y24668D01*
X14050Y24671D01*
X14048Y24675D01*
X14046Y24680D01*
X14045Y24684D01*
X14045Y24689D01*
Y25457D01*
X14045Y25461D01*
X14046Y25466D01*
X14048Y25470D01*
X14050Y25474D01*
X14054Y25478D01*
X14057Y25481D01*
X14061Y25484D01*
X14066Y25485D01*
X14070Y25486D01*
X14075Y25487D01*
X14980D01*
X14985Y25486D01*
D02*
G37*
D135*
X4577Y2276D02*
D03*
Y1897D02*
D03*
X11043Y2246D02*
D03*
Y1867D02*
D03*
X13140Y26751D02*
D03*
Y27130D02*
D03*
X5374Y2276D02*
D03*
Y1897D02*
D03*
X11841Y2246D02*
D03*
Y1867D02*
D03*
X10260Y21870D02*
D03*
Y21493D02*
D03*
X12090Y20960D02*
D03*
Y21337D02*
D03*
X11140Y21110D02*
D03*
Y21487D02*
D03*
X10740Y21870D02*
D03*
Y21493D02*
D03*
X10320Y23890D02*
D03*
Y24267D02*
D03*
X8590Y21870D02*
D03*
Y21493D02*
D03*
X6460Y15590D02*
D03*
Y15213D02*
D03*
X7030Y15610D02*
D03*
Y15233D02*
D03*
X5950Y12710D02*
D03*
Y13087D02*
D03*
X6060Y14430D02*
D03*
Y14807D02*
D03*
X8210Y15610D02*
D03*
Y15233D02*
D03*
X5950Y11860D02*
D03*
Y12237D02*
D03*
X6450Y13330D02*
D03*
Y12953D02*
D03*
X5230Y13850D02*
D03*
Y13473D02*
D03*
X6460Y14780D02*
D03*
Y14403D02*
D03*
X7430Y15230D02*
D03*
Y15607D02*
D03*
X7760Y12510D02*
D03*
Y12133D02*
D03*
X5630Y13470D02*
D03*
Y13847D02*
D03*
X5660Y14830D02*
D03*
Y14453D02*
D03*
X7220Y12660D02*
D03*
Y13037D02*
D03*
X7820Y15230D02*
D03*
Y15607D02*
D03*
X8160Y12510D02*
D03*
Y12133D02*
D03*
X8250Y13479D02*
D03*
Y13100D02*
D03*
X6740Y21261D02*
D03*
Y21640D02*
D03*
X7124Y21261D02*
D03*
Y21640D02*
D03*
D136*
X10750Y22880D02*
D03*
X11127D02*
D03*
X8640Y23570D02*
D03*
X8263D02*
D03*
X7440Y13470D02*
D03*
X7817D02*
D03*
X7400Y14670D02*
D03*
X7777D02*
D03*
X7816Y13878D02*
D03*
X7439D02*
D03*
X7780Y14290D02*
D03*
X7403D02*
D03*
X12970Y11170D02*
D03*
X12593D02*
D03*
X11437Y11870D02*
D03*
X11060D02*
D03*
D139*
X4970Y2274D02*
D03*
Y1919D02*
D03*
X11437Y2254D02*
D03*
Y1900D02*
D03*
D142*
X12980Y25678D02*
D03*
Y25142D02*
D03*
X11610Y21498D02*
D03*
Y20962D02*
D03*
D156*
X12461Y23854D02*
D03*
Y23100D02*
D03*
D168*
X16670Y28060D02*
D03*
X17290Y3820D02*
D03*
X860Y3670D02*
D03*
D169*
X6920Y27490D02*
D03*
Y26490D02*
D03*
X5920Y27490D02*
D03*
Y26490D02*
D03*
X4920Y27490D02*
D03*
Y26490D02*
D03*
D170*
X12020Y933D02*
D03*
Y225D02*
D03*
X5560Y235D02*
D03*
Y943D02*
D03*
D171*
X17120Y15821D02*
D03*
Y9639D02*
D03*
X15171Y15584D02*
D03*
Y9876D02*
D03*
D172*
X17550Y27668D02*
D03*
Y24912D02*
D03*
D173*
X16487Y25306D02*
D03*
Y27274D02*
D03*
D174*
X14035Y27012D02*
D03*
Y26815D02*
D03*
Y26618D02*
D03*
Y26421D02*
D03*
Y26224D02*
D03*
Y26028D02*
D03*
Y25831D02*
D03*
Y25634D02*
D03*
D175*
X13004Y864D02*
D03*
X11036D02*
D03*
X13004Y293D02*
D03*
X11036D02*
D03*
X4576Y303D02*
D03*
X6544D02*
D03*
X4576Y874D02*
D03*
X6544D02*
D03*
D176*
X12020Y1248D02*
D03*
X5560Y1258D02*
D03*
D177*
X14000Y23640D02*
D03*
X15090D02*
D03*
M02*
