G04 Layer_Color=128*
%FSLAX24Y24*%
%MOIN*%
G70*
G01*
G75*
G04:AMPARAMS|DCode=105|XSize=20mil|YSize=22mil|CornerRadius=3.4mil|HoleSize=0mil|Usage=FLASHONLY|Rotation=270.000|XOffset=0mil|YOffset=0mil|HoleType=Round|Shape=RoundedRectangle|*
%AMROUNDEDRECTD105*
21,1,0.0200,0.0152,0,0,270.0*
21,1,0.0132,0.0220,0,0,270.0*
1,1,0.0068,-0.0076,-0.0066*
1,1,0.0068,-0.0076,0.0066*
1,1,0.0068,0.0076,0.0066*
1,1,0.0068,0.0076,-0.0066*
%
%ADD105ROUNDEDRECTD105*%
G04:AMPARAMS|DCode=106|XSize=27.1mil|YSize=37.4mil|CornerRadius=4.8mil|HoleSize=0mil|Usage=FLASHONLY|Rotation=180.000|XOffset=0mil|YOffset=0mil|HoleType=Round|Shape=RoundedRectangle|*
%AMROUNDEDRECTD106*
21,1,0.0271,0.0277,0,0,180.0*
21,1,0.0175,0.0374,0,0,180.0*
1,1,0.0097,-0.0087,0.0139*
1,1,0.0097,0.0087,0.0139*
1,1,0.0097,0.0087,-0.0139*
1,1,0.0097,-0.0087,-0.0139*
%
%ADD106ROUNDEDRECTD106*%
G04:AMPARAMS|DCode=107|XSize=27.1mil|YSize=37.4mil|CornerRadius=4.8mil|HoleSize=0mil|Usage=FLASHONLY|Rotation=90.000|XOffset=0mil|YOffset=0mil|HoleType=Round|Shape=RoundedRectangle|*
%AMROUNDEDRECTD107*
21,1,0.0271,0.0277,0,0,90.0*
21,1,0.0175,0.0374,0,0,90.0*
1,1,0.0097,0.0139,0.0087*
1,1,0.0097,0.0139,-0.0087*
1,1,0.0097,-0.0139,-0.0087*
1,1,0.0097,-0.0139,0.0087*
%
%ADD107ROUNDEDRECTD107*%
G04:AMPARAMS|DCode=108|XSize=20mil|YSize=22mil|CornerRadius=3.4mil|HoleSize=0mil|Usage=FLASHONLY|Rotation=0.000|XOffset=0mil|YOffset=0mil|HoleType=Round|Shape=RoundedRectangle|*
%AMROUNDEDRECTD108*
21,1,0.0200,0.0152,0,0,0.0*
21,1,0.0132,0.0220,0,0,0.0*
1,1,0.0068,0.0066,-0.0076*
1,1,0.0068,-0.0066,-0.0076*
1,1,0.0068,-0.0066,0.0076*
1,1,0.0068,0.0066,0.0076*
%
%ADD108ROUNDEDRECTD108*%
G04:AMPARAMS|DCode=116|XSize=50mil|YSize=58mil|CornerRadius=12mil|HoleSize=0mil|Usage=FLASHONLY|Rotation=90.000|XOffset=0mil|YOffset=0mil|HoleType=Round|Shape=RoundedRectangle|*
%AMROUNDEDRECTD116*
21,1,0.0500,0.0340,0,0,90.0*
21,1,0.0260,0.0580,0,0,90.0*
1,1,0.0240,0.0170,0.0130*
1,1,0.0240,0.0170,-0.0130*
1,1,0.0240,-0.0170,-0.0130*
1,1,0.0240,-0.0170,0.0130*
%
%ADD116ROUNDEDRECTD116*%
%ADD183R,0.0531X0.0098*%
%ADD184R,0.0216X0.0315*%
%ADD185R,0.0315X0.0216*%
%ADD186R,0.0138X0.0098*%
%ADD187R,0.0531X0.0393*%
%ADD188R,0.0236X0.0118*%
G36*
X13989Y24699D02*
X13724D01*
X13721Y24699D01*
X13719Y24698D01*
X13716Y24696D01*
X13715Y24694D01*
X13714Y24692D01*
X13713Y24689D01*
Y24423D01*
X13379D01*
Y24689D01*
X13379Y24692D01*
X13378Y24694D01*
X13376Y24696D01*
X13374Y24698D01*
X13372Y24699D01*
X13369Y24699D01*
X13104D01*
Y25447D01*
X13989D01*
Y24699D01*
D02*
G37*
G36*
X13713Y27957D02*
X13714Y27954D01*
X13715Y27952D01*
X13716Y27950D01*
X13719Y27948D01*
X13721Y27947D01*
X13724Y27947D01*
X13989D01*
Y27199D01*
X13104D01*
Y27947D01*
X13369D01*
X13372Y27947D01*
X13374Y27948D01*
X13376Y27950D01*
X13378Y27952D01*
X13379Y27954D01*
X13379Y27957D01*
Y28222D01*
X13713D01*
Y27957D01*
D02*
G37*
D105*
X10310Y1257D02*
D03*
Y880D02*
D03*
X9237Y12507D02*
D03*
Y12130D02*
D03*
X4191Y24166D02*
D03*
Y24545D02*
D03*
X8777Y13100D02*
D03*
Y13479D02*
D03*
X8737Y15233D02*
D03*
Y15610D02*
D03*
X8347Y15607D02*
D03*
Y15230D02*
D03*
X6587Y14827D02*
D03*
Y14450D02*
D03*
X7747Y13037D02*
D03*
Y12660D02*
D03*
X6187Y14453D02*
D03*
Y14830D02*
D03*
X8827Y12133D02*
D03*
Y12510D02*
D03*
X8287Y12133D02*
D03*
Y12510D02*
D03*
X6477Y13087D02*
D03*
Y12710D02*
D03*
X7557Y15233D02*
D03*
Y15610D02*
D03*
X7957Y15607D02*
D03*
Y15230D02*
D03*
X6987Y15213D02*
D03*
Y15590D02*
D03*
X6977Y12953D02*
D03*
Y13330D02*
D03*
X6721Y26833D02*
D03*
Y27210D02*
D03*
X10751Y26825D02*
D03*
Y26448D02*
D03*
X9081Y26825D02*
D03*
Y26448D02*
D03*
X8601Y26825D02*
D03*
Y26448D02*
D03*
X8160Y26853D02*
D03*
Y27230D02*
D03*
X15880Y866D02*
D03*
Y1245D02*
D03*
X9434Y880D02*
D03*
Y1259D02*
D03*
X12191Y26859D02*
D03*
Y26480D02*
D03*
X15083Y866D02*
D03*
Y1245D02*
D03*
X8636Y880D02*
D03*
Y1259D02*
D03*
X7738Y11840D02*
D03*
Y12217D02*
D03*
X5641Y24166D02*
D03*
Y24545D02*
D03*
D106*
X10256Y16870D02*
D03*
X9720D02*
D03*
X9604Y15038D02*
D03*
X10140D02*
D03*
X9413Y4630D02*
D03*
X9949D02*
D03*
X8669Y16580D02*
D03*
X9204D02*
D03*
X10250Y16110D02*
D03*
X9714D02*
D03*
X9760Y14466D02*
D03*
X9224D02*
D03*
X5935Y11598D02*
D03*
X5399D02*
D03*
X12502Y5730D02*
D03*
X13038D02*
D03*
X7173Y26830D02*
D03*
X7709D02*
D03*
X4935Y27737D02*
D03*
X5470D02*
D03*
X4613Y25683D02*
D03*
X5149D02*
D03*
D107*
X6040Y10340D02*
D03*
Y10875D02*
D03*
X11478Y16224D02*
D03*
Y15689D02*
D03*
X5480Y10875D02*
D03*
Y10340D02*
D03*
X13060Y5218D02*
D03*
Y4682D02*
D03*
X6772Y11439D02*
D03*
Y10904D02*
D03*
X10906Y15689D02*
D03*
Y16224D02*
D03*
X12497Y5218D02*
D03*
Y4683D02*
D03*
X10513Y4633D02*
D03*
Y5169D02*
D03*
X1883Y8682D02*
D03*
Y9218D02*
D03*
X1333Y8682D02*
D03*
Y9218D02*
D03*
D108*
X15867Y1630D02*
D03*
X15490D02*
D03*
X7060Y8060D02*
D03*
X6683D02*
D03*
X5527Y8760D02*
D03*
X5150D02*
D03*
X5900Y13900D02*
D03*
X6277D02*
D03*
X6274Y13490D02*
D03*
X5897D02*
D03*
X8304Y14670D02*
D03*
X7927D02*
D03*
X7930Y14290D02*
D03*
X8307D02*
D03*
X8344Y13430D02*
D03*
X7967D02*
D03*
X7965Y13838D02*
D03*
X8342D02*
D03*
X6390Y12200D02*
D03*
X6767D02*
D03*
X7364Y14750D02*
D03*
X6987D02*
D03*
X8214Y25438D02*
D03*
X8591D02*
D03*
X8984Y24150D02*
D03*
X9361D02*
D03*
X11078Y24748D02*
D03*
X10701D02*
D03*
X7331Y27300D02*
D03*
X7708D02*
D03*
X8631Y26060D02*
D03*
X8254D02*
D03*
D116*
X6201Y25220D02*
D03*
Y25974D02*
D03*
D183*
X13054Y25634D02*
D03*
Y25831D02*
D03*
Y26028D02*
D03*
Y26224D02*
D03*
Y26421D02*
D03*
Y26618D02*
D03*
Y26815D02*
D03*
Y27012D02*
D03*
D184*
X5465Y27225D02*
D03*
X4717D02*
D03*
Y26221D02*
D03*
X5091D02*
D03*
X5465D02*
D03*
D185*
X12032Y4686D02*
D03*
Y5434D02*
D03*
X11028D02*
D03*
Y5060D02*
D03*
Y4686D02*
D03*
D186*
X9030Y903D02*
D03*
Y1257D02*
D03*
X15477Y899D02*
D03*
Y1253D02*
D03*
D187*
X12537Y333D02*
D03*
X14505D02*
D03*
X12537Y904D02*
D03*
X14505D02*
D03*
X8045Y914D02*
D03*
X6077D02*
D03*
X8045Y343D02*
D03*
X6077D02*
D03*
D188*
X4606Y24567D02*
D03*
Y24370D02*
D03*
Y24173D02*
D03*
X5216D02*
D03*
Y24370D02*
D03*
Y24567D02*
D03*
M02*
