G04 Layer_Color=65535*
%FSLAX24Y24*%
%MOIN*%
G70*
G01*
G75*
%ADD46C,0.0050*%
%ADD47C,0.0060*%
%ADD50C,0.0100*%
%ADD51C,0.0080*%
%ADD53C,0.0160*%
%ADD94C,0.0039*%
%ADD95C,0.0098*%
%ADD96C,0.0010*%
%ADD97C,0.0098*%
%ADD98C,0.0236*%
%ADD99C,0.0079*%
%ADD100C,0.0005*%
D46*
X10123Y25333D02*
Y26326D01*
X8863Y25333D02*
X10123D01*
X8863D02*
Y26326D01*
X10123D01*
X13361Y1626D02*
Y1543D01*
Y1584D01*
X13570D01*
X13611Y1543D01*
Y1501D01*
X13570Y1459D01*
X13611Y1834D02*
X13361D01*
X13486Y1709D01*
Y1876D01*
X8232Y17104D02*
Y17021D01*
Y17062D01*
X8440D01*
X8482Y17021D01*
Y16979D01*
X8440Y16937D01*
X8274Y17187D02*
X8232Y17229D01*
Y17312D01*
X8274Y17354D01*
X8315D01*
X8357Y17312D01*
Y17271D01*
Y17312D01*
X8399Y17354D01*
X8440D01*
X8482Y17312D01*
Y17229D01*
X8440Y17187D01*
X6762Y22150D02*
Y22066D01*
Y22108D01*
X6970D01*
X7012Y22066D01*
Y22025D01*
X6970Y21983D01*
X6762Y22400D02*
X6804Y22316D01*
X6887Y22233D01*
X6970D01*
X7012Y22275D01*
Y22358D01*
X6970Y22400D01*
X6929D01*
X6887Y22358D01*
Y22233D01*
X15779Y23235D02*
Y22985D01*
X15946D01*
X16154D02*
Y23235D01*
X16029Y23110D01*
X16196D01*
X15567Y24911D02*
Y25161D01*
X15400D01*
X15317Y24911D02*
X15150D01*
Y24953D01*
X15317Y25120D01*
Y25161D01*
X14163Y24321D02*
X14122Y24279D01*
Y24196D01*
X14163Y24155D01*
X14330D01*
X14371Y24196D01*
Y24279D01*
X14330Y24321D01*
X14122Y24571D02*
X14163Y24488D01*
X14247Y24404D01*
X14330D01*
X14371Y24446D01*
Y24529D01*
X14330Y24571D01*
X14288D01*
X14247Y24529D01*
Y24404D01*
X14371Y24821D02*
Y24654D01*
X14205Y24821D01*
X14163D01*
X14122Y24779D01*
Y24696D01*
X14163Y24654D01*
X15568Y24320D02*
X15527Y24279D01*
Y24196D01*
X15568Y24154D01*
X15735D01*
X15777Y24196D01*
Y24279D01*
X15735Y24320D01*
X15527Y24570D02*
X15568Y24487D01*
X15652Y24404D01*
X15735D01*
X15777Y24445D01*
Y24529D01*
X15735Y24570D01*
X15693D01*
X15652Y24529D01*
Y24404D01*
X15777Y24654D02*
Y24737D01*
Y24695D01*
X15527D01*
X15568Y24654D01*
X15400Y25498D02*
Y25748D01*
X15275D01*
X15233Y25706D01*
Y25540D01*
X15275Y25498D01*
X15400D01*
X14983Y25748D02*
X15150D01*
X14983Y25582D01*
Y25540D01*
X15025Y25498D01*
X15108D01*
X15150Y25540D01*
X14900Y25498D02*
X14734D01*
Y25540D01*
X14900Y25706D01*
Y25748D01*
X14753Y26564D02*
Y26814D01*
X14586D01*
X14336Y26564D02*
X14503D01*
Y26689D01*
X14419Y26647D01*
X14378D01*
X14336Y26689D01*
Y26772D01*
X14378Y26814D01*
X14461D01*
X14503Y26772D01*
X16847Y25561D02*
X17097D01*
Y25436D01*
X17056Y25394D01*
X16972D01*
X16931Y25436D01*
Y25561D01*
Y25478D02*
X16847Y25394D01*
Y25186D02*
X17097D01*
X16972Y25311D01*
Y25144D01*
X16847Y24936D02*
X17097D01*
X16972Y25061D01*
Y24894D01*
X13761Y25660D02*
Y25410D01*
X13636D01*
X13595Y25452D01*
Y25535D01*
X13636Y25577D01*
X13761D01*
X13678D02*
X13595Y25660D01*
X13386D02*
Y25410D01*
X13511Y25535D01*
X13345D01*
X13261Y25452D02*
X13220Y25410D01*
X13136D01*
X13095Y25452D01*
Y25493D01*
X13136Y25535D01*
X13178D01*
X13136D01*
X13095Y25577D01*
Y25618D01*
X13136Y25660D01*
X13220D01*
X13261Y25618D01*
X13788Y26914D02*
Y26664D01*
X13663D01*
X13621Y26706D01*
Y26789D01*
X13663Y26831D01*
X13788D01*
X13705D02*
X13621Y26914D01*
X13413D02*
Y26664D01*
X13538Y26789D01*
X13372D01*
X13122Y26664D02*
X13205Y26706D01*
X13288Y26789D01*
Y26873D01*
X13247Y26914D01*
X13163D01*
X13122Y26873D01*
Y26831D01*
X13163Y26789D01*
X13288D01*
X17951Y24390D02*
X17993Y24432D01*
Y24515D01*
X17951Y24557D01*
X17785D01*
X17743Y24515D01*
Y24432D01*
X17785Y24390D01*
X17743Y24182D02*
X17993D01*
X17868Y24307D01*
Y24140D01*
X17951Y24057D02*
X17993Y24015D01*
Y23932D01*
X17951Y23890D01*
X17910D01*
X17868Y23932D01*
X17826Y23890D01*
X17785D01*
X17743Y23932D01*
Y24015D01*
X17785Y24057D01*
X17826D01*
X17868Y24015D01*
X17910Y24057D01*
X17951D01*
X17868Y24015D02*
Y23932D01*
D47*
X7170Y27990D02*
X7420Y27740D01*
X6420D02*
X6670Y27990D01*
X6170D02*
X6420Y27740D01*
X5420D02*
X5670Y27990D01*
X7420Y26240D02*
Y27740D01*
X7170Y25990D02*
X7420Y26240D01*
X6670Y25990D02*
X7170D01*
X6420Y26240D02*
X6670Y25990D01*
X6170D02*
X6420Y26240D01*
X5670Y25990D02*
X6170D01*
X5420Y26240D02*
X5670Y25990D01*
X6420Y26240D02*
Y27740D01*
X5420Y26240D02*
Y27740D01*
X5670Y27990D02*
X6170D01*
X6670D02*
X7170D01*
X5170D02*
X5420Y27740D01*
X4420D02*
X4670Y27990D01*
X5170Y25990D02*
X5420Y26240D01*
X4670Y25990D02*
X5170D01*
X4420Y26240D02*
X4670Y25990D01*
X4420Y26240D02*
Y27740D01*
X4670Y27990D02*
X5170D01*
X8545Y27014D02*
X8599Y27067D01*
Y27174D01*
X8545Y27227D01*
X8332D01*
X8279Y27174D01*
Y27067D01*
X8332Y27014D01*
X8599Y26694D02*
Y26907D01*
X8439D01*
X8492Y26800D01*
Y26747D01*
X8439Y26694D01*
X8332D01*
X8279Y26747D01*
Y26854D01*
X8332Y26907D01*
X8599Y26587D02*
Y26374D01*
X8545D01*
X8332Y26587D01*
X8279D01*
X9004Y27257D02*
X8951Y27311D01*
X8844D01*
X8791Y27257D01*
Y27044D01*
X8844Y26991D01*
X8951D01*
X9004Y27044D01*
X9324Y27311D02*
X9111D01*
Y27151D01*
X9217Y27204D01*
X9271D01*
X9324Y27151D01*
Y27044D01*
X9271Y26991D01*
X9164D01*
X9111Y27044D01*
X9430Y27257D02*
X9484Y27311D01*
X9590D01*
X9644Y27257D01*
Y27204D01*
X9590Y27151D01*
X9644Y27097D01*
Y27044D01*
X9590Y26991D01*
X9484D01*
X9430Y27044D01*
Y27097D01*
X9484Y27151D01*
X9430Y27204D01*
Y27257D01*
X9484Y27151D02*
X9590D01*
X10685Y26125D02*
X10632D01*
X10525Y26018D01*
X10632Y25911D01*
X10685D01*
X10525Y26018D02*
X10366D01*
Y25805D02*
Y25698D01*
Y25751D01*
X10685D01*
X10632Y25805D01*
D50*
X8360Y12175D02*
G03*
X8360Y12175I-56J0D01*
G01*
X13886Y26386D02*
X14674D01*
Y25914D02*
Y26386D01*
X13886Y25914D02*
X14674D01*
X13886D02*
Y26386D01*
X8108Y12372D02*
Y15128D01*
X5352D02*
X8108D01*
X5352Y12372D02*
Y15128D01*
Y12372D02*
X8108D01*
X933Y11417D02*
Y14961D01*
X1602D01*
Y11417D02*
Y14961D01*
X933Y11417D02*
X1602D01*
X2173Y11024D02*
Y15354D01*
X0Y11024D02*
Y15354D01*
Y11024D02*
X2173D01*
X3477Y14649D02*
X3577Y14549D01*
X3777D01*
X3877Y14649D01*
Y15049D01*
X3777Y15149D01*
X3577D01*
X3477Y15049D01*
X2877Y14549D02*
X3077Y14649D01*
X3277Y14849D01*
Y15049D01*
X3177Y15149D01*
X2977D01*
X2877Y15049D01*
Y14949D01*
X2977Y14849D01*
X3277D01*
X2277Y14549D02*
X2677D01*
Y14849D01*
X2477Y14749D01*
X2377D01*
X2277Y14849D01*
Y15049D01*
X2377Y15149D01*
X2577D01*
X2677Y15049D01*
X4305Y10927D02*
X4405Y11027D01*
Y11227D01*
X4305Y11327D01*
X3905D01*
X3805Y11227D01*
Y11027D01*
X3905Y10927D01*
X4405Y10327D02*
X4305Y10527D01*
X4105Y10727D01*
X3905D01*
X3805Y10627D01*
Y10427D01*
X3905Y10327D01*
X4005D01*
X4105Y10427D01*
Y10727D01*
X3805Y9827D02*
X4405D01*
X4105Y10127D01*
Y9727D01*
X4309Y12543D02*
X4209Y12443D01*
Y12244D01*
X4309Y12144D01*
X4709D01*
X4809Y12244D01*
Y12443D01*
X4709Y12543D01*
X4809Y12743D02*
Y12943D01*
Y12843D01*
X4209D01*
X4309Y12743D01*
X4209Y13243D02*
Y13643D01*
X4309D01*
X4709Y13243D01*
X4809D01*
X13483Y11047D02*
Y10447D01*
X13883D01*
X14082Y10947D02*
X14182Y11047D01*
X14382D01*
X14482Y10947D01*
Y10847D01*
X14382Y10747D01*
X14482Y10647D01*
Y10547D01*
X14382Y10447D01*
X14182D01*
X14082Y10547D01*
Y10647D01*
X14182Y10747D01*
X14082Y10847D01*
Y10947D01*
X14182Y10747D02*
X14382D01*
X3495Y26055D02*
X4095Y26455D01*
X3495D02*
X4095Y26055D01*
Y26655D02*
Y26855D01*
Y26755D01*
X3495D01*
X3595Y26655D01*
Y27155D02*
X3495Y27255D01*
Y27455D01*
X3595Y27555D01*
X3695D01*
X3795Y27455D01*
X3895Y27555D01*
X3995D01*
X4095Y27455D01*
Y27255D01*
X3995Y27155D01*
X3895D01*
X3795Y27255D01*
X3695Y27155D01*
X3595D01*
X3795Y27255D02*
Y27455D01*
X15445Y23745D02*
X16045D01*
Y24045D01*
X15945Y24145D01*
X15545D01*
X15445Y24045D01*
Y23745D01*
X15545Y24345D02*
X15445Y24445D01*
Y24645D01*
X15545Y24745D01*
X15645D01*
X15745Y24645D01*
Y24545D01*
Y24645D01*
X15845Y24745D01*
X15945D01*
X16045Y24645D01*
Y24445D01*
X15945Y24345D01*
X4578Y19602D02*
X4078D01*
X3978Y19502D01*
Y19303D01*
X4078Y19203D01*
X4578D01*
X3978Y19003D02*
Y18803D01*
Y18903D01*
X4578D01*
X4478Y19003D01*
Y18503D02*
X4578Y18403D01*
Y18203D01*
X4478Y18103D01*
X4078D01*
X3978Y18203D01*
Y18403D01*
X4078Y18503D01*
X4478D01*
X5289Y10861D02*
X4690D01*
Y11161D01*
X4790Y11261D01*
X4990D01*
X5089Y11161D01*
Y10861D01*
Y11061D02*
X5289Y11261D01*
Y11461D02*
Y11661D01*
Y11561D01*
X4690D01*
X4790Y11461D01*
Y11961D02*
X4690Y12061D01*
Y12261D01*
X4790Y12361D01*
X4890D01*
X4990Y12261D01*
X5089Y12361D01*
X5189D01*
X5289Y12261D01*
Y12061D01*
X5189Y11961D01*
X5089D01*
X4990Y12061D01*
X4890Y11961D01*
X4790D01*
X4990Y12061D02*
Y12261D01*
X4918Y17942D02*
X5518D01*
Y17643D01*
X5418Y17543D01*
X5218D01*
X5118Y17643D01*
Y17942D01*
Y17742D02*
X4918Y17543D01*
Y17343D02*
Y17143D01*
Y17243D01*
X5518D01*
X5418Y17343D01*
X5518Y16843D02*
Y16443D01*
X5418D01*
X5018Y16843D01*
X4918D01*
X3948Y18722D02*
Y19322D01*
X4248D01*
X4348Y19222D01*
Y19022D01*
X4248Y18922D01*
X3948D01*
X4148D02*
X4348Y18722D01*
X4548Y18822D02*
X4648Y18722D01*
X4848D01*
X4948Y18822D01*
Y19222D01*
X4848Y19322D01*
X4648D01*
X4548Y19222D01*
Y19122D01*
X4648Y19022D01*
X4948D01*
X1678Y19832D02*
X2278D01*
Y20232D01*
X1678Y20832D02*
X1778Y20632D01*
X1978Y20432D01*
X2178D01*
X2278Y20532D01*
Y20732D01*
X2178Y20832D01*
X2078D01*
X1978Y20732D01*
Y20432D01*
X495Y3785D02*
Y3185D01*
Y3485D01*
X895D01*
Y3785D01*
Y3185D01*
X1395D02*
Y3785D01*
X1095Y3485D01*
X1495D01*
X15245Y3855D02*
Y3255D01*
Y3555D01*
X15645D01*
Y3855D01*
Y3255D01*
X15845Y3755D02*
X15945Y3855D01*
X16145D01*
X16245Y3755D01*
Y3655D01*
X16145Y3555D01*
X16045D01*
X16145D01*
X16245Y3455D01*
Y3355D01*
X16145Y3255D01*
X15945D01*
X15845Y3355D01*
X715Y29095D02*
Y28495D01*
Y28795D01*
X1115D01*
Y29095D01*
Y28495D01*
X1715D02*
X1315D01*
X1715Y28895D01*
Y28995D01*
X1615Y29095D01*
X1415D01*
X1315Y28995D01*
X15445Y21745D02*
Y21145D01*
Y21445D01*
X15845D01*
Y21745D01*
Y21145D01*
X16045D02*
X16245D01*
X16145D01*
Y21745D01*
X16045Y21645D01*
X7927Y10681D02*
X8027Y10781D01*
Y10981D01*
X7927Y11081D01*
X7527D01*
X7427Y10981D01*
Y10781D01*
X7527Y10681D01*
X8027Y10081D02*
Y10481D01*
X7727D01*
X7827Y10281D01*
Y10181D01*
X7727Y10081D01*
X7527D01*
X7427Y10181D01*
Y10381D01*
X7527Y10481D01*
X7427Y9882D02*
Y9682D01*
Y9782D01*
X8027D01*
X7927Y9882D01*
X4022Y11261D02*
X3922Y11161D01*
Y10961D01*
X4022Y10861D01*
X4422D01*
X4522Y10961D01*
Y11161D01*
X4422Y11261D01*
X3922Y11861D02*
Y11461D01*
X4222D01*
X4122Y11661D01*
Y11761D01*
X4222Y11861D01*
X4422D01*
X4522Y11761D01*
Y11561D01*
X4422Y11461D01*
X4022Y12061D02*
X3922Y12161D01*
Y12361D01*
X4022Y12460D01*
X4422D01*
X4522Y12361D01*
Y12161D01*
X4422Y12061D01*
X4022D01*
X8695Y10681D02*
X8795Y10781D01*
Y10981D01*
X8695Y11081D01*
X8295D01*
X8195Y10981D01*
Y10781D01*
X8295Y10681D01*
X8195Y10181D02*
X8795D01*
X8495Y10481D01*
Y10081D01*
X8295Y9882D02*
X8195Y9782D01*
Y9582D01*
X8295Y9482D01*
X8695D01*
X8795Y9582D01*
Y9782D01*
X8695Y9882D01*
X8595D01*
X8495Y9782D01*
Y9482D01*
X4218Y20022D02*
X4118Y20122D01*
X3918D01*
X3818Y20022D01*
Y19622D01*
X3918Y19522D01*
X4118D01*
X4218Y19622D01*
X4718Y19522D02*
Y20122D01*
X4418Y19822D01*
X4818D01*
X5018Y20122D02*
X5417D01*
Y20022D01*
X5018Y19622D01*
Y19522D01*
X3638Y21312D02*
X3538Y21412D01*
X3338D01*
X3238Y21312D01*
Y20912D01*
X3338Y20812D01*
X3538D01*
X3638Y20912D01*
X4138Y20812D02*
Y21412D01*
X3838Y21112D01*
X4238D01*
X4837Y21412D02*
X4638Y21312D01*
X4438Y21112D01*
Y20912D01*
X4538Y20812D01*
X4738D01*
X4837Y20912D01*
Y21012D01*
X4738Y21112D01*
X4438D01*
X2688Y21512D02*
X2588Y21612D01*
X2388D01*
X2288Y21512D01*
Y21112D01*
X2388Y21012D01*
X2588D01*
X2688Y21112D01*
X3188Y21012D02*
Y21612D01*
X2888Y21312D01*
X3288D01*
X3788Y21012D02*
Y21612D01*
X3488Y21312D01*
X3887D01*
X10455Y15555D02*
Y15055D01*
X10555Y14955D01*
X10755D01*
X10855Y15055D01*
Y15555D01*
X11355Y14955D02*
Y15555D01*
X11055Y15255D01*
X11455D01*
X10765Y10975D02*
Y10375D01*
X10465D01*
X10365Y10475D01*
Y10675D01*
X10465Y10775D01*
X10765D01*
X10565D02*
X10365Y10975D01*
X10165D02*
X9965D01*
X10065D01*
Y10375D01*
X10165Y10475D01*
X9265Y10375D02*
X9465Y10475D01*
X9665Y10675D01*
Y10875D01*
X9565Y10975D01*
X9365D01*
X9265Y10875D01*
Y10775D01*
X9365Y10675D01*
X9665D01*
X10365Y10975D02*
Y10375D01*
X10065D01*
X9965Y10475D01*
Y10675D01*
X10065Y10775D01*
X10365D01*
X10165D02*
X9965Y10975D01*
X9765D02*
X9565D01*
X9665D01*
Y10375D01*
X9765Y10475D01*
X8966Y10975D02*
Y10375D01*
X9266Y10675D01*
X8866D01*
X12164Y12937D02*
Y12337D01*
X12564D01*
X12764Y12837D02*
X12864Y12937D01*
X13063D01*
X13163Y12837D01*
Y12737D01*
X13063Y12637D01*
X12963D01*
X13063D01*
X13163Y12537D01*
Y12437D01*
X13063Y12337D01*
X12864D01*
X12764Y12437D01*
X13574Y12832D02*
X13474Y12932D01*
X13274D01*
X13174Y12832D01*
Y12433D01*
X13274Y12333D01*
X13474D01*
X13574Y12433D01*
X14173Y12333D02*
X13774D01*
X14173Y12732D01*
Y12832D01*
X14073Y12932D01*
X13874D01*
X13774Y12832D01*
X14673Y12333D02*
Y12932D01*
X14373Y12632D01*
X14773D01*
X13636Y14922D02*
X13736Y15022D01*
Y15222D01*
X13636Y15322D01*
X13236D01*
X13136Y15222D01*
Y15022D01*
X13236Y14922D01*
X13136Y14322D02*
Y14722D01*
X13536Y14322D01*
X13636D01*
X13736Y14422D01*
Y14622D01*
X13636Y14722D01*
X13136Y13722D02*
Y14122D01*
X13536Y13722D01*
X13636D01*
X13736Y13822D01*
Y14022D01*
X13636Y14122D01*
X10535Y25085D02*
X11135D01*
Y24785D01*
X11035Y24685D01*
X10835D01*
X10735Y24785D01*
Y25085D01*
Y24885D02*
X10535Y24685D01*
X11135Y24485D02*
Y24085D01*
X11035D01*
X10635Y24485D01*
X10535D01*
Y23486D02*
Y23885D01*
X10935Y23486D01*
X11035D01*
X11135Y23585D01*
Y23785D01*
X11035Y23885D01*
X15690Y28370D02*
X15490D01*
X15590D01*
Y27870D01*
X15490Y27770D01*
X15390D01*
X15290Y27870D01*
X16290Y27770D02*
X15890D01*
X16290Y28170D01*
Y28270D01*
X16190Y28370D01*
X15990D01*
X15890Y28270D01*
X2594Y9096D02*
X2694Y9196D01*
Y9396D01*
X2594Y9496D01*
X2194D01*
X2095Y9396D01*
Y9196D01*
X2194Y9096D01*
X2095Y8496D02*
Y8896D01*
X2494Y8496D01*
X2594D01*
X2694Y8596D01*
Y8796D01*
X2594Y8896D01*
X2095Y8296D02*
Y8096D01*
Y8196D01*
X2694D01*
X2594Y8296D01*
X2447Y7108D02*
X2547Y7208D01*
Y7408D01*
X2447Y7508D01*
X2047D01*
X1947Y7408D01*
Y7208D01*
X2047Y7108D01*
X1947Y6508D02*
Y6908D01*
X2347Y6508D01*
X2447D01*
X2547Y6608D01*
Y6808D01*
X2447Y6908D01*
Y6308D02*
X2547Y6208D01*
Y6008D01*
X2447Y5908D01*
X2047D01*
X1947Y6008D01*
Y6208D01*
X2047Y6308D01*
X2447D01*
X11431Y17331D02*
X11331Y17231D01*
Y17031D01*
X11431Y16931D01*
X11831D01*
X11931Y17031D01*
Y17231D01*
X11831Y17331D01*
X11931Y17531D02*
Y17731D01*
Y17631D01*
X11331D01*
X11431Y17531D01*
X11831Y18031D02*
X11931Y18131D01*
Y18331D01*
X11831Y18431D01*
X11431D01*
X11331Y18331D01*
Y18131D01*
X11431Y18031D01*
X11531D01*
X11631Y18131D01*
Y18431D01*
X13740Y18955D02*
X13840Y19055D01*
Y19255D01*
X13740Y19355D01*
X13340D01*
X13240Y19255D01*
Y19055D01*
X13340Y18955D01*
X13240Y18755D02*
Y18555D01*
Y18655D01*
X13840D01*
X13740Y18755D01*
Y18255D02*
X13840Y18155D01*
Y17955D01*
X13740Y17855D01*
X13640D01*
X13540Y17955D01*
X13440Y17855D01*
X13340D01*
X13240Y17955D01*
Y18155D01*
X13340Y18255D01*
X13440D01*
X13540Y18155D01*
X13640Y18255D01*
X13740D01*
X13540Y18155D02*
Y17955D01*
X-316Y7739D02*
X184D01*
X284Y7839D01*
Y8039D01*
X184Y8139D01*
X-316D01*
X-216Y8339D02*
X-316Y8439D01*
Y8639D01*
X-216Y8739D01*
X-116D01*
X-16Y8639D01*
X84Y8739D01*
X184D01*
X284Y8639D01*
Y8439D01*
X184Y8339D01*
X84D01*
X-16Y8439D01*
X-116Y8339D01*
X-216D01*
X-16Y8439D02*
Y8639D01*
X14340Y18735D02*
X13840D01*
X13740Y18635D01*
Y18435D01*
X13840Y18335D01*
X14340D01*
Y18135D02*
Y17735D01*
X14240D01*
X13840Y18135D01*
X13740D01*
X8315Y11165D02*
Y11665D01*
X8215Y11765D01*
X8015D01*
X7915Y11665D01*
Y11165D01*
X7315D02*
X7515Y11265D01*
X7715Y11465D01*
Y11665D01*
X7615Y11765D01*
X7415D01*
X7315Y11665D01*
Y11565D01*
X7415Y11465D01*
X7715D01*
X8538Y16595D02*
X9038D01*
X9138Y16695D01*
Y16895D01*
X9038Y16995D01*
X8538D01*
Y17595D02*
Y17195D01*
X8838D01*
X8738Y17395D01*
Y17495D01*
X8838Y17595D01*
X9038D01*
X9138Y17495D01*
Y17295D01*
X9038Y17195D01*
X-7580Y13450D02*
X-7780D01*
X-7680D01*
Y12950D01*
X-7780Y12850D01*
X-7880D01*
X-7980Y12950D01*
X-6980Y13450D02*
X-7380D01*
Y13150D01*
X-7180Y13250D01*
X-7080D01*
X-6980Y13150D01*
Y12950D01*
X-7080Y12850D01*
X-7280D01*
X-7380Y12950D01*
X5628Y8132D02*
X6227D01*
Y8432D01*
X6127Y8532D01*
X5728D01*
X5628Y8432D01*
Y8132D01*
X6227Y8732D02*
Y8932D01*
Y8832D01*
X5628D01*
X5728Y8732D01*
X9394Y8057D02*
X9294Y7957D01*
Y7757D01*
X9394Y7657D01*
X9794D01*
X9894Y7757D01*
Y7957D01*
X9794Y8057D01*
X9894Y8256D02*
Y8456D01*
Y8356D01*
X9294D01*
X9394Y8256D01*
X8861Y20264D02*
X8761Y20364D01*
X8561D01*
X8461Y20264D01*
Y19865D01*
X8561Y19765D01*
X8761D01*
X8861Y19865D01*
X9461Y19765D02*
X9061D01*
X9461Y20164D01*
Y20264D01*
X9361Y20364D01*
X9161D01*
X9061Y20264D01*
X8599Y16356D02*
X8499Y16456D01*
X8299D01*
X8199Y16356D01*
Y15956D01*
X8299Y15856D01*
X8499D01*
X8599Y15956D01*
X8799Y16356D02*
X8899Y16456D01*
X9099D01*
X9198Y16356D01*
Y16256D01*
X9099Y16156D01*
X8999D01*
X9099D01*
X9198Y16056D01*
Y15956D01*
X9099Y15856D01*
X8899D01*
X8799Y15956D01*
X6840Y3380D02*
X6740Y3280D01*
Y3080D01*
X6840Y2980D01*
X7240D01*
X7340Y3080D01*
Y3280D01*
X7240Y3380D01*
X7340Y3580D02*
Y3780D01*
Y3680D01*
X6740D01*
X6840Y3580D01*
X7340Y4379D02*
X6740D01*
X7040Y4080D01*
Y4479D01*
X11581Y9151D02*
X11481Y9251D01*
X11281D01*
X11181Y9151D01*
Y8752D01*
X11281Y8652D01*
X11481D01*
X11581Y8752D01*
X12181Y9251D02*
X11781D01*
Y8951D01*
X11981Y9051D01*
X12081D01*
X12181Y8951D01*
Y8752D01*
X12081Y8652D01*
X11881D01*
X11781Y8752D01*
X14693Y7327D02*
X14793Y7426D01*
Y7626D01*
X14693Y7726D01*
X14293D01*
X14193Y7626D01*
Y7426D01*
X14293Y7327D01*
X14793Y6727D02*
X14693Y6927D01*
X14493Y7127D01*
X14293D01*
X14193Y7027D01*
Y6827D01*
X14293Y6727D01*
X14393D01*
X14493Y6827D01*
Y7127D01*
X10155Y7267D02*
X10255Y7367D01*
Y7567D01*
X10155Y7667D01*
X9755D01*
X9656Y7567D01*
Y7367D01*
X9755Y7267D01*
X10255Y7068D02*
Y6668D01*
X10155D01*
X9755Y7068D01*
X9656D01*
X13490Y9693D02*
X13390Y9793D01*
X13191D01*
X13091Y9693D01*
Y9293D01*
X13191Y9193D01*
X13390D01*
X13490Y9293D01*
X13690Y9693D02*
X13790Y9793D01*
X13990D01*
X14090Y9693D01*
Y9593D01*
X13990Y9493D01*
X14090Y9393D01*
Y9293D01*
X13990Y9193D01*
X13790D01*
X13690Y9293D01*
Y9393D01*
X13790Y9493D01*
X13690Y9593D01*
Y9693D01*
X13790Y9493D02*
X13990D01*
X4940Y9910D02*
X4840Y9810D01*
Y9610D01*
X4940Y9510D01*
X5340D01*
X5440Y9610D01*
Y9810D01*
X5340Y9910D01*
Y10110D02*
X5440Y10210D01*
Y10410D01*
X5340Y10510D01*
X4940D01*
X4840Y10410D01*
Y10210D01*
X4940Y10110D01*
X5040D01*
X5140Y10210D01*
Y10510D01*
X8667Y9165D02*
X8767Y9065D01*
X8967D01*
X9067Y9165D01*
Y9565D01*
X8967Y9665D01*
X8767D01*
X8667Y9565D01*
X8467Y9665D02*
X8267D01*
X8367D01*
Y9065D01*
X8467Y9165D01*
X7967D02*
X7867Y9065D01*
X7667D01*
X7567Y9165D01*
Y9565D01*
X7667Y9665D01*
X7867D01*
X7967Y9565D01*
Y9165D01*
X4229Y4290D02*
X4329Y4190D01*
X4529D01*
X4629Y4290D01*
Y4690D01*
X4529Y4790D01*
X4329D01*
X4229Y4690D01*
X4029Y4790D02*
X3829D01*
X3929D01*
Y4190D01*
X4029Y4290D01*
X3529Y4790D02*
X3329D01*
X3429D01*
Y4190D01*
X3529Y4290D01*
X10103Y4818D02*
X10003Y4718D01*
Y4518D01*
X10103Y4419D01*
X10502D01*
X10602Y4518D01*
Y4718D01*
X10502Y4818D01*
X10602Y5318D02*
X10003D01*
X10302Y5018D01*
Y5418D01*
X10003Y6018D02*
Y5618D01*
X10302D01*
X10202Y5818D01*
Y5918D01*
X10302Y6018D01*
X10502D01*
X10602Y5918D01*
Y5718D01*
X10502Y5618D01*
X15655Y12405D02*
Y12205D01*
Y12305D01*
X16155D01*
X16255Y12205D01*
Y12105D01*
X16155Y12005D01*
X16255Y12605D02*
Y12805D01*
Y12705D01*
X15655D01*
X15755Y12605D01*
X4998Y5298D02*
X5597D01*
Y5698D01*
Y5898D02*
Y6097D01*
Y5997D01*
X4998D01*
X5098Y5898D01*
X6592Y4801D02*
X5992D01*
Y5101D01*
X6092Y5201D01*
X6292D01*
X6392Y5101D01*
Y4801D01*
Y5001D02*
X6592Y5201D01*
Y5401D02*
Y5600D01*
Y5501D01*
X5992D01*
X6092Y5401D01*
X6311Y8798D02*
Y8199D01*
X6011D01*
X5911Y8299D01*
Y8499D01*
X6011Y8598D01*
X6311D01*
X6111D02*
X5911Y8798D01*
X5311D02*
X5711D01*
X5311Y8399D01*
Y8299D01*
X5411Y8199D01*
X5611D01*
X5711Y8299D01*
X6311Y8011D02*
Y7411D01*
X6011D01*
X5911Y7511D01*
Y7711D01*
X6011Y7811D01*
X6311D01*
X6111D02*
X5911Y8011D01*
X5711Y7511D02*
X5611Y7411D01*
X5411D01*
X5311Y7511D01*
Y7611D01*
X5411Y7711D01*
X5511D01*
X5411D01*
X5311Y7811D01*
Y7911D01*
X5411Y8011D01*
X5611D01*
X5711Y7911D01*
X8959Y1869D02*
X8359D01*
Y2169D01*
X8459Y2269D01*
X8659D01*
X8759Y2169D01*
Y1869D01*
Y2069D02*
X8959Y2269D01*
Y2769D02*
X8359D01*
X8659Y2469D01*
Y2869D01*
X6311Y7224D02*
Y6624D01*
X6011D01*
X5911Y6724D01*
Y6924D01*
X6011Y7024D01*
X6311D01*
X6111D02*
X5911Y7224D01*
X5711D02*
X5511D01*
X5611D01*
Y6624D01*
X5711Y6724D01*
X4812Y6624D02*
X5211D01*
Y6924D01*
X5011Y6824D01*
X4911D01*
X4812Y6924D01*
Y7124D01*
X4911Y7224D01*
X5111D01*
X5211Y7124D01*
X6311Y6397D02*
Y5797D01*
X6011D01*
X5911Y5897D01*
Y6097D01*
X6011Y6197D01*
X6311D01*
X6111D02*
X5911Y6397D01*
X5311Y5797D02*
X5511Y5897D01*
X5711Y6097D01*
Y6297D01*
X5611Y6397D01*
X5411D01*
X5311Y6297D01*
Y6197D01*
X5411Y6097D01*
X5711D01*
X10335Y6348D02*
Y5749D01*
X10035D01*
X9935Y5849D01*
Y6049D01*
X10035Y6148D01*
X10335D01*
X10135D02*
X9935Y6348D01*
X9735Y5749D02*
X9335D01*
Y5849D01*
X9735Y6248D01*
Y6348D01*
X12707Y6240D02*
X13306D01*
Y5940D01*
X13207Y5840D01*
X13007D01*
X12907Y5940D01*
Y6240D01*
Y6040D02*
X12707Y5840D01*
X13207Y5640D02*
X13306Y5540D01*
Y5340D01*
X13207Y5240D01*
X13107D01*
X13007Y5340D01*
X12907Y5240D01*
X12807D01*
X12707Y5340D01*
Y5540D01*
X12807Y5640D01*
X12907D01*
X13007Y5540D01*
X13107Y5640D01*
X13207D01*
X13007Y5540D02*
Y5340D01*
X2723Y8762D02*
X2124D01*
Y9062D01*
X2224Y9162D01*
X2424D01*
X2524Y9062D01*
Y8762D01*
Y8962D02*
X2723Y9162D01*
Y9362D02*
Y9562D01*
Y9462D01*
X2124D01*
X2224Y9362D01*
X2723Y10262D02*
Y9862D01*
X2324Y10262D01*
X2224D01*
X2124Y10162D01*
Y9962D01*
X2224Y9862D01*
X4495Y11046D02*
Y10446D01*
X4195D01*
X4095Y10546D01*
Y10746D01*
X4195Y10846D01*
X4495D01*
X4295D02*
X4095Y11046D01*
X3895D02*
X3695D01*
X3795D01*
Y10446D01*
X3895Y10546D01*
X3395Y11046D02*
X3196D01*
X3296D01*
Y10446D01*
X3395Y10546D01*
X9176Y5964D02*
X9676D01*
X9776Y6064D01*
Y6264D01*
X9676Y6364D01*
X9176D01*
X9776Y6564D02*
Y6764D01*
Y6664D01*
X9176D01*
X9276Y6564D01*
X14360Y6230D02*
X13860D01*
X13760Y6130D01*
Y5930D01*
X13860Y5830D01*
X14360D01*
X13760Y5231D02*
Y5631D01*
X14160Y5231D01*
X14260D01*
X14360Y5331D01*
Y5531D01*
X14260Y5631D01*
X2084Y6085D02*
X2584D01*
X2684Y6185D01*
Y6385D01*
X2584Y6485D01*
X2084D01*
X2184Y6685D02*
X2084Y6785D01*
Y6985D01*
X2184Y7085D01*
X2284D01*
X2384Y6985D01*
Y6885D01*
Y6985D01*
X2484Y7085D01*
X2584D01*
X2684Y6985D01*
Y6785D01*
X2584Y6685D01*
X12297Y4431D02*
X12397Y4331D01*
X12597D01*
X12697Y4431D01*
Y4831D01*
X12597Y4931D01*
X12397D01*
X12297Y4831D01*
X12097Y4931D02*
X11897D01*
X11997D01*
Y4331D01*
X12097Y4431D01*
X11197Y4931D02*
X11597D01*
X11197Y4531D01*
Y4431D01*
X11297Y4331D01*
X11497D01*
X11597Y4431D01*
X4534Y10219D02*
Y9619D01*
X4235D01*
X4135Y9719D01*
Y9919D01*
X4235Y10019D01*
X4534D01*
X4335D02*
X4135Y10219D01*
X3935D02*
X3735D01*
X3835D01*
Y9619D01*
X3935Y9719D01*
X3435D02*
X3335Y9619D01*
X3135D01*
X3035Y9719D01*
Y10119D01*
X3135Y10219D01*
X3335D01*
X3435Y10119D01*
Y9719D01*
X6496Y6368D02*
X5896D01*
Y6668D01*
X5996Y6768D01*
X6196D01*
X6296Y6668D01*
Y6368D01*
Y6568D02*
X6496Y6768D01*
Y6968D02*
Y7168D01*
Y7068D01*
X5896D01*
X5996Y6968D01*
Y7468D02*
X5896Y7568D01*
Y7768D01*
X5996Y7868D01*
X6096D01*
X6196Y7768D01*
Y7668D01*
Y7768D01*
X6296Y7868D01*
X6396D01*
X6496Y7768D01*
Y7568D01*
X6396Y7468D01*
X1620Y12104D02*
X1520Y12204D01*
X1320D01*
X1220Y12104D01*
Y11704D01*
X1320Y11604D01*
X1520D01*
X1620Y11704D01*
X2120Y11604D02*
Y12204D01*
X1820Y11904D01*
X2220D01*
X1573Y14452D02*
X1673Y14552D01*
Y14752D01*
X1573Y14852D01*
X1173D01*
X1073Y14752D01*
Y14552D01*
X1173Y14452D01*
X1073Y14253D02*
Y14053D01*
Y14153D01*
X1673D01*
X1573Y14253D01*
Y13753D02*
X1673Y13653D01*
Y13453D01*
X1573Y13353D01*
X1473D01*
X1373Y13453D01*
Y13553D01*
Y13453D01*
X1273Y13353D01*
X1173D01*
X1073Y13453D01*
Y13653D01*
X1173Y13753D01*
X11385Y20435D02*
Y20935D01*
X11285Y21035D01*
X11085D01*
X10985Y20935D01*
Y20435D01*
X10785Y20935D02*
X10685Y21035D01*
X10485D01*
X10385Y20935D01*
Y20535D01*
X10485Y20435D01*
X10685D01*
X10785Y20535D01*
Y20635D01*
X10685Y20735D01*
X10385D01*
X11655Y12835D02*
X11555Y12935D01*
X11355D01*
X11255Y12835D01*
Y12435D01*
X11355Y12335D01*
X11555D01*
X11655Y12435D01*
X12255Y12935D02*
X12055Y12835D01*
X11855Y12635D01*
Y12435D01*
X11955Y12335D01*
X12155D01*
X12255Y12435D01*
Y12535D01*
X12155Y12635D01*
X11855D01*
X12455Y12935D02*
X12854D01*
Y12835D01*
X12455Y12435D01*
Y12335D01*
X12955Y16995D02*
X12855Y17095D01*
X12655D01*
X12555Y16995D01*
Y16595D01*
X12655Y16495D01*
X12855D01*
X12955Y16595D01*
X13555Y17095D02*
X13355Y16995D01*
X13155Y16795D01*
Y16595D01*
X13255Y16495D01*
X13455D01*
X13555Y16595D01*
Y16695D01*
X13455Y16795D01*
X13155D01*
X13755Y16995D02*
X13855Y17095D01*
X14055D01*
X14154Y16995D01*
Y16895D01*
X14055Y16795D01*
X14154Y16695D01*
Y16595D01*
X14055Y16495D01*
X13855D01*
X13755Y16595D01*
Y16695D01*
X13855Y16795D01*
X13755Y16895D01*
Y16995D01*
X13855Y16795D02*
X14055D01*
X11985Y14625D02*
X12085Y14525D01*
X12285D01*
X12385Y14625D01*
Y15025D01*
X12285Y15125D01*
X12085D01*
X11985Y15025D01*
X11385Y14525D02*
X11585Y14625D01*
X11785Y14825D01*
Y15025D01*
X11685Y15125D01*
X11485D01*
X11385Y15025D01*
Y14925D01*
X11485Y14825D01*
X11785D01*
X11185Y15025D02*
X11085Y15125D01*
X10885D01*
X10786Y15025D01*
Y14625D01*
X10885Y14525D01*
X11085D01*
X11185Y14625D01*
Y14725D01*
X11085Y14825D01*
X10786D01*
X12165Y12835D02*
X12065Y12935D01*
X11865D01*
X11765Y12835D01*
Y12435D01*
X11865Y12335D01*
X12065D01*
X12165Y12435D01*
X12365Y12935D02*
X12765D01*
Y12835D01*
X12365Y12435D01*
Y12335D01*
X12965Y12835D02*
X13065Y12935D01*
X13265D01*
X13364Y12835D01*
Y12435D01*
X13265Y12335D01*
X13065D01*
X12965Y12435D01*
Y12835D01*
X965Y4975D02*
X565D01*
Y4675D01*
X765D01*
X565D01*
Y4375D01*
X1165Y4975D02*
X1365D01*
X1265D01*
Y4375D01*
X1165D01*
X1365D01*
X1665Y4975D02*
Y4375D01*
X1965D01*
X2065Y4475D01*
Y4875D01*
X1965Y4975D01*
X1665D01*
X2264Y4375D02*
X2464D01*
X2364D01*
Y4975D01*
X2264Y4875D01*
X17395Y5125D02*
X16995D01*
Y4825D01*
X17195D01*
X16995D01*
Y4525D01*
X17595Y5125D02*
X17795D01*
X17695D01*
Y4525D01*
X17595D01*
X17795D01*
X18095Y5125D02*
Y4525D01*
X18395D01*
X18495Y4625D01*
Y5025D01*
X18395Y5125D01*
X18095D01*
X19094Y4525D02*
X18694D01*
X19094Y4925D01*
Y5025D01*
X18994Y5125D01*
X18794D01*
X18694Y5025D01*
X15915Y29385D02*
X15515D01*
Y29085D01*
X15715D01*
X15515D01*
Y28785D01*
X16115Y29385D02*
X16315D01*
X16215D01*
Y28785D01*
X16115D01*
X16315D01*
X16615Y29385D02*
Y28785D01*
X16915D01*
X17015Y28885D01*
Y29285D01*
X16915Y29385D01*
X16615D01*
X17214Y29285D02*
X17314Y29385D01*
X17514D01*
X17614Y29285D01*
Y29185D01*
X17514Y29085D01*
X17414D01*
X17514D01*
X17614Y28985D01*
Y28885D01*
X17514Y28785D01*
X17314D01*
X17214Y28885D01*
D51*
X15716Y25766D02*
G03*
X15716Y25766I-31J0D01*
G01*
X3553Y17693D02*
Y19662D01*
X2293Y17693D02*
X3553D01*
X2293D02*
Y19662D01*
X3553D01*
X18114Y9974D02*
Y15437D01*
X18508Y9777D02*
Y15683D01*
X14758D02*
X18508D01*
X14758Y9777D02*
Y15683D01*
Y9777D02*
X18508D01*
X18485Y27766D02*
X18544Y27825D01*
X16408Y27766D02*
X18485D01*
X18603Y25050D02*
Y27530D01*
X18603Y27530D02*
X18603Y27530D01*
X18121Y24932D02*
Y27648D01*
X18495Y27530D02*
X18603D01*
X18544Y27825D02*
X18603Y27766D01*
X18495Y27530D02*
Y27658D01*
X18603Y27766D01*
X18495Y24922D02*
X18603Y24814D01*
X18495Y24922D02*
Y25050D01*
X18603D01*
X16408Y24814D02*
Y27766D01*
Y24814D02*
X18485D01*
X18544Y24755D01*
X18603Y24814D01*
X0Y15354D02*
X2173D01*
D53*
X588Y11189D02*
G03*
X588Y11189I-71J0D01*
G01*
D94*
X16392Y23893D02*
G03*
X16392Y23893I-20J0D01*
G01*
D95*
X11348Y4705D02*
G03*
X11348Y4705I-49J0D01*
G01*
X6219Y20183D02*
G03*
X6219Y20183I-49J0D01*
G01*
X4749Y25229D02*
G03*
X4749Y25229I-49J0D01*
G01*
D96*
X2795Y1660D02*
G03*
X2795Y1660I-1175J0D01*
G01*
X3015Y26970D02*
G03*
X3015Y26970I-1175J0D01*
G01*
X17745Y19620D02*
G03*
X17745Y19620I-1175J0D01*
G01*
X17545Y1730D02*
G03*
X17545Y1730I-1175J0D01*
G01*
D97*
X9638Y17028D02*
G03*
X9638Y17028I-49J0D01*
G01*
X13393Y18632D02*
G03*
X13393Y18632I-49J0D01*
G01*
X729Y7842D02*
G03*
X729Y7842I-49J0D01*
G01*
X7748Y5422D02*
G03*
X7748Y5422I-49J0D01*
G01*
X13169Y6516D02*
G03*
X13169Y6516I-49J0D01*
G01*
X4495Y7552D02*
G03*
X4495Y7552I-49J0D01*
G01*
X11432Y21473D02*
G03*
X11432Y21473I-49J0D01*
G01*
X10500Y14524D02*
G03*
X10500Y14524I-49J0D01*
G01*
D98*
X8250Y6200D02*
G03*
X8250Y6200I-118J0D01*
G01*
X12461Y6949D02*
G03*
X12461Y6949I-118J0D01*
G01*
D99*
X11726Y17510D02*
Y18770D01*
X9640Y17510D02*
Y18770D01*
X11726D01*
X9640Y17510D02*
X11726D01*
X13245Y17953D02*
Y18307D01*
X12025Y17953D02*
Y18307D01*
X13245D01*
X12025Y17953D02*
X13245D01*
X778Y8167D02*
Y8521D01*
X1999Y8167D02*
Y8521D01*
X778Y8167D02*
X1999D01*
X778Y8521D02*
X1999D01*
X13327Y8730D02*
X13642D01*
X13327Y8140D02*
X13642D01*
X7738Y5806D02*
X8978D01*
X7738Y6751D02*
X8978D01*
X7738Y5806D02*
Y6751D01*
X8978Y5806D02*
Y6751D01*
X12736Y6555D02*
Y7795D01*
X11791Y6555D02*
Y7795D01*
Y6555D02*
X12736D01*
X11791Y7795D02*
X12736D01*
X3137Y6833D02*
X4357D01*
X3137Y7227D02*
X4357D01*
X3137Y6833D02*
Y7227D01*
X4357Y6833D02*
Y7227D01*
X11127Y21413D02*
Y21689D01*
X10851Y21413D02*
X11127D01*
Y24071D02*
Y24347D01*
X10851D02*
X11127D01*
X8193Y24071D02*
Y24347D01*
X8469D01*
X8193Y21413D02*
Y21689D01*
Y21413D02*
X8469D01*
X10707Y14416D02*
Y14583D01*
X10874D01*
X12666D02*
X12833D01*
Y14416D02*
Y14583D01*
Y12457D02*
Y12624D01*
X12666Y12457D02*
X12833D01*
X10707D02*
Y12624D01*
Y12457D02*
X10874D01*
D100*
X0Y0D02*
Y28740D01*
M02*
