G04 Layer_Color=2752767*
%FSLAX24Y24*%
%MOIN*%
G70*
G01*
G75*
%ADD46C,0.0050*%
%ADD52C,0.0040*%
%ADD199C,0.0067*%
D46*
X6720Y27290D02*
Y27690D01*
X7120D01*
Y27290D01*
X6720D01*
Y26290D02*
Y26690D01*
X7120D01*
Y26290D01*
X6720D01*
X5720Y27290D02*
Y27690D01*
X6120D01*
Y27290D01*
X5720D01*
Y26290D02*
Y26690D01*
X6120D01*
Y26290D01*
X5720D01*
X4720Y27290D02*
Y27690D01*
X5120D01*
Y27290D01*
X4720D01*
Y26290D02*
Y26690D01*
X5120D01*
Y26290D01*
X4720D01*
X1620Y1460D02*
X1420Y1860D01*
X1820D01*
X1620Y1460D01*
X1840Y26770D02*
X1640Y27170D01*
X2040D01*
X1840Y26770D01*
X16570Y19420D02*
X16370Y19820D01*
X16770D01*
X16570Y19420D01*
X16370Y1530D02*
X16170Y1930D01*
X16570D01*
X16370Y1530D01*
X17120Y15621D02*
X17220Y15721D01*
X17320D01*
X17220Y15821D01*
X17320Y15921D01*
X17220D01*
X17120Y16021D01*
X17020Y15921D01*
X16920D01*
X17020Y15821D01*
X16920Y15721D01*
X17020D01*
X17120Y15621D01*
Y9439D02*
X17220Y9539D01*
X17320D01*
X17220Y9639D01*
X17320Y9739D01*
X17220D01*
X17120Y9839D01*
X17020Y9739D01*
X16920D01*
X17020Y9639D01*
X16920Y9539D01*
X17020D01*
X17120Y9439D01*
X15171Y15384D02*
X15271Y15484D01*
X15371D01*
X15271Y15584D01*
X15371Y15684D01*
X15271D01*
X15171Y15784D01*
X15071Y15684D01*
X14971D01*
X15071Y15584D01*
X14971Y15484D01*
X15071D01*
X15171Y15384D01*
Y9676D02*
X15271Y9776D01*
X15371D01*
X15271Y9876D01*
X15371Y9976D01*
X15271D01*
X15171Y10076D01*
X15071Y9976D01*
X14971D01*
X15071Y9876D01*
X14971Y9776D01*
X15071D01*
X15171Y9676D01*
X17350Y27468D02*
X17450Y27668D01*
X17350Y27868D01*
X17550Y27768D01*
X17750Y27868D01*
X17650Y27668D01*
X17750Y27468D01*
X17550Y27568D01*
X17350Y27468D01*
Y24712D02*
X17450Y24912D01*
X17350Y25112D01*
X17550Y25012D01*
X17750Y25112D01*
X17650Y24912D01*
X17750Y24712D01*
X17550Y24812D01*
X17350Y24712D01*
X16387Y25206D02*
Y25106D01*
X16587D01*
Y25206D01*
X16687D01*
Y25406D01*
X16587D01*
Y25506D01*
X16387D01*
Y25406D01*
X16287D01*
Y25206D01*
X16387D01*
Y27174D02*
Y27074D01*
X16587D01*
Y27174D01*
X16687D01*
Y27374D01*
X16587D01*
Y27474D01*
X16387D01*
Y27374D01*
X16287D01*
Y27174D01*
X16387D01*
X14590Y9040D02*
X14690D01*
X14790Y9140D01*
X14890Y9040D01*
X14990D01*
Y9140D01*
X14890Y9240D01*
X14990Y9340D01*
Y9440D01*
X14890D01*
X14790Y9340D01*
X14690Y9440D01*
X14590D01*
Y9340D01*
X14690Y9240D01*
X14590Y9140D01*
Y9040D01*
X9360Y16020D02*
X9460D01*
X9560Y16120D01*
X9660Y16020D01*
X9760D01*
Y16120D01*
X9660Y16220D01*
X9760Y16320D01*
Y16420D01*
X9660D01*
X9560Y16320D01*
X9460Y16420D01*
X9360D01*
Y16320D01*
X9460Y16220D01*
X9360Y16120D01*
Y16020D01*
X10060Y12110D02*
X10260Y12310D01*
X10460Y12110D01*
X10260Y11910D01*
X10060Y12110D01*
X12090Y10970D02*
X12190D01*
X12290Y11070D01*
X12390Y10970D01*
X12490D01*
Y11070D01*
X12390Y11170D01*
X12490Y11270D01*
Y11370D01*
X12390D01*
X12290Y11270D01*
X12190Y11370D01*
X12090D01*
Y11270D01*
X12190Y11170D01*
X12090Y11070D01*
Y10970D01*
X10827Y11263D02*
X10927D01*
X11027Y11363D01*
X11127Y11263D01*
X11227D01*
Y11363D01*
X11127Y11463D01*
X11227Y11563D01*
Y11663D01*
X11127D01*
X11027Y11563D01*
X10927Y11663D01*
X10827D01*
Y11563D01*
X10927Y11463D01*
X10827Y11363D01*
Y11263D01*
X2980Y12310D02*
X3180Y12510D01*
X3380Y12310D01*
X3180Y12110D01*
X2980Y12310D01*
X440Y12220D02*
X640Y12420D01*
X840Y12220D01*
X640Y12020D01*
X440Y12220D01*
X2980Y12510D02*
X3180Y12710D01*
X3380Y12510D01*
X3180Y12310D01*
X2980Y12510D01*
X440Y12421D02*
X640Y12621D01*
X840Y12421D01*
X640Y12221D01*
X440Y12421D01*
Y13640D02*
X640Y13840D01*
X840Y13640D01*
X640Y13440D01*
X440Y13640D01*
X3170Y13910D02*
X3370Y14110D01*
X3570Y13910D01*
X3370Y13710D01*
X3170Y13910D01*
X440Y13840D02*
X640Y14040D01*
X840Y13840D01*
X640Y13640D01*
X440Y13840D01*
X3170Y14110D02*
X3370Y14310D01*
X3570Y14110D01*
X3370Y13910D01*
X3170Y14110D01*
X3940Y13910D02*
X4140Y14110D01*
X4340Y13910D01*
X4140Y13710D01*
X3940Y13910D01*
X440Y12690D02*
X640Y12890D01*
X840Y12690D01*
X640Y12490D01*
X440Y12690D01*
X3940Y14110D02*
X4140Y14310D01*
X4340Y14110D01*
X4140Y13910D01*
X3940Y14110D01*
X440Y12900D02*
X640Y13100D01*
X840Y12900D01*
X640Y12700D01*
X440Y12900D01*
X4630Y14730D02*
X4830Y14930D01*
X5030Y14730D01*
X4830Y14530D01*
X4630Y14730D01*
X4670Y15000D02*
X4870Y15200D01*
X5070Y15000D01*
X4870Y14800D01*
X4670Y15000D01*
X4880Y15150D02*
X5080Y15350D01*
X5280Y15150D01*
X5080Y14950D01*
X4880Y15150D01*
X5090Y15320D02*
X5290Y15520D01*
X5490Y15320D01*
X5290Y15120D01*
X5090Y15320D01*
X4100Y14647D02*
X4300Y14847D01*
X4500Y14647D01*
X4300Y14447D01*
X4100Y14647D01*
X4090Y15493D02*
X4290Y15693D01*
X4490Y15493D01*
X4290Y15293D01*
X4090Y15493D01*
X4107Y11735D02*
X4307Y11935D01*
X4507Y11735D01*
X4307Y11535D01*
X4107Y11735D01*
X3261D02*
X3461Y11935D01*
X3661Y11735D01*
X3461Y11535D01*
X3261Y11735D01*
X4954D02*
X5154Y11935D01*
X5354Y11735D01*
X5154Y11535D01*
X4954Y11735D01*
X5270Y13260D02*
X5470Y13460D01*
X5670Y13260D01*
X5470Y13060D01*
X5270Y13260D01*
X5755Y13484D02*
X5955Y13684D01*
X6155Y13484D01*
X5955Y13284D01*
X5755Y13484D01*
Y13750D02*
X5955Y13950D01*
X6155Y13750D01*
X5955Y13550D01*
X5755Y13750D01*
X4820Y10450D02*
X4920D01*
X5020Y10550D01*
X5120Y10450D01*
X5220D01*
Y10550D01*
X5120Y10650D01*
X5220Y10750D01*
Y10850D01*
X5120D01*
X5020Y10750D01*
X4920Y10850D01*
X4820D01*
Y10750D01*
X4920Y10650D01*
X4820Y10550D01*
Y10450D01*
X6719Y10420D02*
X6819D01*
X6919Y10520D01*
X7019Y10420D01*
X7119D01*
Y10520D01*
X7019Y10620D01*
X7119Y10720D01*
Y10820D01*
X7019D01*
X6919Y10720D01*
X6819Y10820D01*
X6719D01*
Y10720D01*
X6819Y10620D01*
X6719Y10520D01*
Y10420D01*
X7810Y10766D02*
X7910D01*
X8010Y10866D01*
X8110Y10766D01*
X8210D01*
Y10866D01*
X8110Y10966D01*
X8210Y11066D01*
Y11166D01*
X8110D01*
X8010Y11066D01*
X7910Y11166D01*
X7810D01*
Y11066D01*
X7910Y10966D01*
X7810Y10866D01*
Y10766D01*
X14318Y4416D02*
X14418D01*
X14518Y4516D01*
X14618Y4416D01*
X14718D01*
Y4516D01*
X14618Y4616D01*
X14718Y4716D01*
Y4816D01*
X14618D01*
X14518Y4716D01*
X14418Y4816D01*
X14318D01*
Y4716D01*
X14418Y4616D01*
X14318Y4516D01*
Y4416D01*
X13881Y4166D02*
X13981D01*
X14081Y4266D01*
X14181Y4166D01*
X14281D01*
Y4266D01*
X14181Y4366D01*
X14281Y4466D01*
Y4566D01*
X14181D01*
X14081Y4466D01*
X13981Y4566D01*
X13881D01*
Y4466D01*
X13981Y4366D01*
X13881Y4266D01*
Y4166D01*
X10725Y3668D02*
X10825D01*
X10925Y3768D01*
X11025Y3668D01*
X11125D01*
Y3768D01*
X11025Y3868D01*
X11125Y3968D01*
Y4068D01*
X11025D01*
X10925Y3968D01*
X10825Y4068D01*
X10725D01*
Y3968D01*
X10825Y3868D01*
X10725Y3768D01*
Y3668D01*
X10125Y4633D02*
X10225D01*
X10325Y4733D01*
X10425Y4633D01*
X10525D01*
Y4733D01*
X10425Y4833D01*
X10525Y4933D01*
Y5033D01*
X10425D01*
X10325Y4933D01*
X10225Y5033D01*
X10125D01*
Y4933D01*
X10225Y4833D01*
X10125Y4733D01*
Y4633D01*
X11641Y8432D02*
X11741D01*
X11841Y8532D01*
X11941Y8432D01*
X12041D01*
Y8532D01*
X11941Y8632D01*
X12041Y8732D01*
Y8832D01*
X11941D01*
X11841Y8732D01*
X11741Y8832D01*
X11641D01*
Y8732D01*
X11741Y8632D01*
X11641Y8532D01*
Y8432D01*
X2336Y6171D02*
X2436D01*
X2536Y6271D01*
X2636Y6171D01*
X2736D01*
Y6271D01*
X2636Y6371D01*
X2736Y6471D01*
Y6571D01*
X2636D01*
X2536Y6471D01*
X2436Y6571D01*
X2336D01*
Y6471D01*
X2436Y6371D01*
X2336Y6271D01*
Y6171D01*
X666Y6700D02*
X766D01*
X866Y6800D01*
X966Y6700D01*
X1066D01*
Y6800D01*
X966Y6900D01*
X1066Y7000D01*
Y7100D01*
X966D01*
X866Y7000D01*
X766Y7100D01*
X666D01*
Y7000D01*
X766Y6900D01*
X666Y6800D01*
Y6700D01*
X2753Y5578D02*
X2853D01*
X2953Y5678D01*
X3053Y5578D01*
X3153D01*
Y5678D01*
X3053Y5778D01*
X3153Y5878D01*
Y5978D01*
X3053D01*
X2953Y5878D01*
X2853Y5978D01*
X2753D01*
Y5878D01*
X2853Y5778D01*
X2753Y5678D01*
Y5578D01*
X1365D02*
X1465D01*
X1565Y5678D01*
X1665Y5578D01*
X1765D01*
Y5678D01*
X1665Y5778D01*
X1765Y5878D01*
Y5978D01*
X1665D01*
X1565Y5878D01*
X1465Y5978D01*
X1365D01*
Y5878D01*
X1465Y5778D01*
X1365Y5678D01*
Y5578D01*
X10050Y11227D02*
X10250Y11427D01*
X10450Y11227D01*
X10250Y11027D01*
X10050Y11227D01*
X10627Y16020D02*
X10727D01*
X10827Y16120D01*
X10927Y16020D01*
X11027D01*
Y16120D01*
X10927Y16220D01*
X11027Y16320D01*
Y16420D01*
X10927D01*
X10827Y16320D01*
X10727Y16420D01*
X10627D01*
Y16320D01*
X10727Y16220D01*
X10627Y16120D01*
Y16020D01*
X9652Y14705D02*
X9852Y14905D01*
X10052Y14705D01*
X9852Y14505D01*
X9652Y14705D01*
X9948D02*
X10148Y14905D01*
X10348Y14705D01*
X10148Y14505D01*
X9948Y14705D01*
X10174Y14862D02*
X10374Y15062D01*
X10574Y14862D01*
X10374Y14662D01*
X10174Y14862D01*
X5686Y23386D02*
X5886Y23586D01*
X6086Y23386D01*
X5886Y23186D01*
X5686Y23386D01*
X6217Y16516D02*
X6417Y16716D01*
X6617Y16516D01*
X6417Y16316D01*
X6217Y16516D01*
X6168Y16778D02*
X6368Y16978D01*
X6568Y16778D01*
X6368Y16578D01*
X6168Y16778D01*
X5932Y17067D02*
X6132Y17267D01*
X6332Y17067D01*
X6132Y16867D01*
X5932Y17067D01*
X5745Y16880D02*
X5945Y17080D01*
X6145Y16880D01*
X5945Y16680D01*
X5745Y16880D01*
X5558Y17077D02*
X5758Y17277D01*
X5958Y17077D01*
X5758Y16877D01*
X5558Y17077D01*
X9052Y16788D02*
X9152D01*
X9252Y16888D01*
X9352Y16788D01*
X9452D01*
Y16888D01*
X9352Y16988D01*
X9452Y17088D01*
Y17188D01*
X9352D01*
X9252Y17088D01*
X9152Y17188D01*
X9052D01*
Y17088D01*
X9152Y16988D01*
X9052Y16888D01*
Y16788D01*
X9288Y16473D02*
X9388D01*
X9488Y16573D01*
X9588Y16473D01*
X9688D01*
Y16573D01*
X9588Y16673D01*
X9688Y16773D01*
Y16873D01*
X9588D01*
X9488Y16773D01*
X9388Y16873D01*
X9288D01*
Y16773D01*
X9388Y16673D01*
X9288Y16573D01*
Y16473D01*
X8688Y16198D02*
X8788D01*
X8888Y16298D01*
X8988Y16198D01*
X9088D01*
Y16298D01*
X8988Y16398D01*
X9088Y16498D01*
Y16598D01*
X8988D01*
X8888Y16498D01*
X8788Y16598D01*
X8688D01*
Y16498D01*
X8788Y16398D01*
X8688Y16298D01*
Y16198D01*
X9426Y20263D02*
X9526D01*
X9626Y20363D01*
X9726Y20263D01*
X9826D01*
Y20363D01*
X9726Y20463D01*
X9826Y20563D01*
Y20663D01*
X9726D01*
X9626Y20563D01*
X9526Y20663D01*
X9426D01*
Y20563D01*
X9526Y20463D01*
X9426Y20363D01*
Y20263D01*
X1207Y8698D02*
X1307D01*
X1407Y8798D01*
X1507Y8698D01*
X1607D01*
Y8798D01*
X1507Y8898D01*
X1607Y8998D01*
Y9098D01*
X1507D01*
X1407Y8998D01*
X1307Y9098D01*
X1207D01*
Y8998D01*
X1307Y8898D01*
X1207Y8798D01*
Y8698D01*
X1200Y6717D02*
X1300D01*
X1400Y6817D01*
X1500Y6717D01*
X1600D01*
Y6817D01*
X1500Y6917D01*
X1600Y7017D01*
Y7117D01*
X1500D01*
X1400Y7017D01*
X1300Y7117D01*
X1200D01*
Y7017D01*
X1300Y6917D01*
X1200Y6817D01*
Y6717D01*
X528Y15266D02*
X728Y15466D01*
X928Y15266D01*
X728Y15066D01*
X528Y15266D01*
X1375Y15276D02*
X1575Y15476D01*
X1775Y15276D01*
X1575Y15076D01*
X1375Y15276D01*
X607Y11132D02*
X807Y11332D01*
X1007Y11132D01*
X807Y10932D01*
X607Y11132D01*
X1434Y11142D02*
X1634Y11342D01*
X1834Y11142D01*
X1634Y10942D01*
X1434Y11142D01*
X7733Y21562D02*
X7833D01*
X7933Y21662D01*
X8033Y21562D01*
X8133D01*
Y21662D01*
X8033Y21762D01*
X8133Y21862D01*
Y21962D01*
X8033D01*
X7933Y21862D01*
X7833Y21962D01*
X7733D01*
Y21862D01*
X7833Y21762D01*
X7733Y21662D01*
Y21562D01*
X7812Y22884D02*
X8012Y23084D01*
X8212Y22884D01*
X8012Y22684D01*
X7812Y22884D01*
X8335Y3873D02*
X8435D01*
X8535Y3973D01*
X8635Y3873D01*
X8735D01*
Y3973D01*
X8635Y4073D01*
X8735Y4173D01*
Y4273D01*
X8635D01*
X8535Y4173D01*
X8435Y4273D01*
X8335D01*
Y4173D01*
X8435Y4073D01*
X8335Y3973D01*
Y3873D01*
X5824Y6407D02*
X5924D01*
X6024Y6507D01*
X6124Y6407D01*
X6224D01*
Y6507D01*
X6124Y6607D01*
X6224Y6707D01*
Y6807D01*
X6124D01*
X6024Y6707D01*
X5924Y6807D01*
X5824D01*
Y6707D01*
X5924Y6607D01*
X5824Y6507D01*
Y6407D01*
X12706Y20910D02*
X12806D01*
X12906Y21010D01*
X13006Y20910D01*
X13106D01*
Y21010D01*
X13006Y21110D01*
X13106Y21210D01*
Y21310D01*
X13006D01*
X12906Y21210D01*
X12806Y21310D01*
X12706D01*
Y21210D01*
X12806Y21110D01*
X12706Y21010D01*
Y20910D01*
X1563Y7240D02*
X1663D01*
X1763Y7340D01*
X1863Y7240D01*
X1963D01*
Y7340D01*
X1863Y7440D01*
X1963Y7540D01*
Y7640D01*
X1863D01*
X1763Y7540D01*
X1663Y7640D01*
X1563D01*
Y7540D01*
X1663Y7440D01*
X1563Y7340D01*
Y7240D01*
X6267Y11660D02*
X6367D01*
X6467Y11760D01*
X6567Y11660D01*
X6667D01*
Y11760D01*
X6567Y11860D01*
X6667Y11960D01*
Y12060D01*
X6567D01*
X6467Y11960D01*
X6367Y12060D01*
X6267D01*
Y11960D01*
X6367Y11860D01*
X6267Y11760D01*
Y11660D01*
X8826Y15843D02*
X8926D01*
X9026Y15943D01*
X9126Y15843D01*
X9226D01*
Y15943D01*
X9126Y16043D01*
X9226Y16143D01*
Y16243D01*
X9126D01*
X9026Y16143D01*
X8926Y16243D01*
X8826D01*
Y16143D01*
X8926Y16043D01*
X8826Y15943D01*
Y15843D01*
X6030Y13484D02*
X6230Y13684D01*
X6430Y13484D01*
X6230Y13284D01*
X6030Y13484D01*
X6532Y13228D02*
X6732Y13428D01*
X6932Y13228D01*
X6732Y13028D01*
X6532Y13228D01*
X7989Y20046D02*
X8089D01*
X8189Y20146D01*
X8289Y20046D01*
X8389D01*
Y20146D01*
X8289Y20246D01*
X8389Y20346D01*
Y20446D01*
X8289D01*
X8189Y20346D01*
X8089Y20446D01*
X7989D01*
Y20346D01*
X8089Y20246D01*
X7989Y20146D01*
Y20046D01*
X6896Y20036D02*
X6996D01*
X7096Y20136D01*
X7196Y20036D01*
X7296D01*
Y20136D01*
X7196Y20236D01*
X7296Y20336D01*
Y20436D01*
X7196D01*
X7096Y20336D01*
X6996Y20436D01*
X6896D01*
Y20336D01*
X6996Y20236D01*
X6896Y20136D01*
Y20036D01*
X7310Y15020D02*
X7510Y15220D01*
X7710Y15020D01*
X7510Y14820D01*
X7310Y15020D01*
X7810Y15040D02*
X8010Y15240D01*
X8210Y15040D01*
X8010Y14840D01*
X7810Y15040D01*
X10223Y21043D02*
X10423Y21243D01*
X10623Y21043D01*
X10423Y20843D01*
X10223Y21043D01*
X11140Y22900D02*
X11340Y23100D01*
X11540Y22900D01*
X11340Y22700D01*
X11140Y22900D01*
X11149Y23308D02*
X11349Y23508D01*
X11549Y23308D01*
X11349Y23108D01*
X11149Y23308D01*
X11890Y21440D02*
X11990D01*
X12090Y21540D01*
X12190Y21440D01*
X12290D01*
Y21540D01*
X12190Y21640D01*
X12290Y21740D01*
Y21840D01*
X12190D01*
X12090Y21740D01*
X11990Y21840D01*
X11890D01*
Y21740D01*
X11990Y21640D01*
X11890Y21540D01*
Y21440D01*
X10940Y20600D02*
X11040D01*
X11140Y20700D01*
X11240Y20600D01*
X11340D01*
Y20700D01*
X11240Y20800D01*
X11340Y20900D01*
Y21000D01*
X11240D01*
X11140Y20900D01*
X11040Y21000D01*
X10940D01*
Y20900D01*
X11040Y20800D01*
X10940Y20700D01*
Y20600D01*
X10440Y21230D02*
X10640Y21430D01*
X10840Y21230D01*
X10640Y21030D01*
X10440Y21230D01*
X10050Y21250D02*
X10250Y21450D01*
X10450Y21250D01*
X10250Y21050D01*
X10050Y21250D01*
X12792Y22891D02*
X12892D01*
X12992Y22991D01*
X13092Y22891D01*
X13192D01*
Y22991D01*
X13092Y23091D01*
X13192Y23191D01*
Y23291D01*
X13092D01*
X12992Y23191D01*
X12892Y23291D01*
X12792D01*
Y23191D01*
X12892Y23091D01*
X12792Y22991D01*
Y22891D01*
X7113Y26788D02*
X7213D01*
X7313Y26888D01*
X7413Y26788D01*
X7513D01*
Y26888D01*
X7413Y26988D01*
X7513Y27088D01*
Y27188D01*
X7413D01*
X7313Y27088D01*
X7213Y27188D01*
X7113D01*
Y27088D01*
X7213Y26988D01*
X7113Y26888D01*
Y26788D01*
X11808Y22683D02*
X12008Y22883D01*
X12208Y22683D01*
X12008Y22483D01*
X11808Y22683D01*
X10617Y24528D02*
X10817Y24728D01*
X11017Y24528D01*
X10817Y24328D01*
X10617Y24528D01*
X11759Y22891D02*
X11859D01*
X11959Y22991D01*
X12059Y22891D01*
X12159D01*
Y22991D01*
X12059Y23091D01*
X12159Y23191D01*
Y23291D01*
X12059D01*
X11959Y23191D01*
X11859Y23291D01*
X11759D01*
Y23191D01*
X11859Y23091D01*
X11759Y22991D01*
Y22891D01*
X14327Y25477D02*
X14427D01*
X14527Y25577D01*
X14627Y25477D01*
X14727D01*
Y25577D01*
X14627Y25677D01*
X14727Y25777D01*
Y25877D01*
X14627D01*
X14527Y25777D01*
X14427Y25877D01*
X14327D01*
Y25777D01*
X14427Y25677D01*
X14327Y25577D01*
Y25477D01*
X14800Y25950D02*
X14900D01*
X15000Y26050D01*
X15100Y25950D01*
X15200D01*
Y26050D01*
X15100Y26150D01*
X15200Y26250D01*
Y26350D01*
X15100D01*
X15000Y26250D01*
X14900Y26350D01*
X14800D01*
Y26250D01*
X14900Y26150D01*
X14800Y26050D01*
Y25950D01*
X14426Y26670D02*
X14526D01*
X14626Y26770D01*
X14726Y26670D01*
X14826D01*
Y26770D01*
X14726Y26870D01*
X14826Y26970D01*
Y27070D01*
X14726D01*
X14626Y26970D01*
X14526Y27070D01*
X14426D01*
Y26970D01*
X14526Y26870D01*
X14426Y26770D01*
Y26670D01*
X10302Y24539D02*
X10502Y24739D01*
X10702Y24539D01*
X10502Y24339D01*
X10302Y24539D01*
X12782Y24603D02*
X12882D01*
X12982Y24703D01*
X13082Y24603D01*
X13182D01*
Y24703D01*
X13082Y24803D01*
X13182Y24903D01*
Y25003D01*
X13082D01*
X12982Y24903D01*
X12882Y25003D01*
X12782D01*
Y24903D01*
X12882Y24803D01*
X12782Y24703D01*
Y24603D01*
X12940Y27211D02*
X13040D01*
X13140Y27311D01*
X13240Y27211D01*
X13340D01*
Y27311D01*
X13240Y27411D01*
X13340Y27511D01*
Y27611D01*
X13240D01*
X13140Y27511D01*
X13040Y27611D01*
X12940D01*
Y27511D01*
X13040Y27411D01*
X12940Y27311D01*
Y27211D01*
X6434Y22192D02*
X6534D01*
X6634Y22292D01*
X6734Y22192D01*
X6834D01*
Y22292D01*
X6734Y22392D01*
X6834Y22492D01*
Y22592D01*
X6734D01*
X6634Y22492D01*
X6534Y22592D01*
X6434D01*
Y22492D01*
X6534Y22392D01*
X6434Y22292D01*
Y22192D01*
X8175Y24390D02*
X8375Y24590D01*
X8575Y24390D01*
X8375Y24190D01*
X8175Y24390D01*
X8403Y24919D02*
X8503D01*
X8603Y25019D01*
X8703Y24919D01*
X8803D01*
Y25019D01*
X8703Y25119D01*
X8803Y25219D01*
Y25319D01*
X8703D01*
X8603Y25219D01*
X8503Y25319D01*
X8403D01*
Y25219D01*
X8503Y25119D01*
X8403Y25019D01*
Y24919D01*
X12018Y1667D02*
X12118D01*
X12218Y1767D01*
X12318Y1667D01*
X12418D01*
Y1767D01*
X12318Y1867D01*
X12418Y1967D01*
Y2067D01*
X12318D01*
X12218Y1967D01*
X12118Y2067D01*
X12018D01*
Y1967D01*
X12118Y1867D01*
X12018Y1767D01*
Y1667D01*
X11237Y1424D02*
X11337D01*
X11437Y1524D01*
X11537Y1424D01*
X11637D01*
Y1524D01*
X11537Y1624D01*
X11637Y1724D01*
Y1824D01*
X11537D01*
X11437Y1724D01*
X11337Y1824D01*
X11237D01*
Y1724D01*
X11337Y1624D01*
X11237Y1524D01*
Y1424D01*
X5587Y1700D02*
X5687D01*
X5787Y1800D01*
X5887Y1700D01*
X5987D01*
Y1800D01*
X5887Y1900D01*
X5987Y2000D01*
Y2100D01*
X5887D01*
X5787Y2000D01*
X5687Y2100D01*
X5587D01*
Y2000D01*
X5687Y1900D01*
X5587Y1800D01*
Y1700D01*
X4770Y1444D02*
X4870D01*
X4970Y1544D01*
X5070Y1444D01*
X5170D01*
Y1544D01*
X5070Y1644D01*
X5170Y1744D01*
Y1844D01*
X5070D01*
X4970Y1744D01*
X4870Y1844D01*
X4770D01*
Y1744D01*
X4870Y1644D01*
X4770Y1544D01*
Y1444D01*
X4977Y400D02*
X5077D01*
X5177Y500D01*
X5277Y400D01*
X5377D01*
Y500D01*
X5277Y600D01*
X5377Y700D01*
Y800D01*
X5277D01*
X5177Y700D01*
X5077Y800D01*
X4977D01*
Y700D01*
X5077Y600D01*
X4977Y500D01*
Y400D01*
X5745Y400D02*
X5845D01*
X5945Y500D01*
X6045Y400D01*
X6145D01*
Y500D01*
X6045Y600D01*
X6145Y700D01*
Y800D01*
X6045D01*
X5945Y700D01*
X5845Y800D01*
X5745D01*
Y700D01*
X5845Y600D01*
X5745Y500D01*
Y400D01*
X11434Y391D02*
X11534D01*
X11634Y491D01*
X11734Y391D01*
X11834D01*
Y491D01*
X11734Y591D01*
X11834Y691D01*
Y791D01*
X11734D01*
X11634Y691D01*
X11534Y791D01*
X11434D01*
Y691D01*
X11534Y591D01*
X11434Y491D01*
Y391D01*
X12212Y391D02*
X12312D01*
X12412Y491D01*
X12512Y391D01*
X12612D01*
Y491D01*
X12512Y591D01*
X12612Y691D01*
Y791D01*
X12512D01*
X12412Y691D01*
X12312Y791D01*
X12212D01*
Y691D01*
X12312Y591D01*
X12212Y491D01*
Y391D01*
X11818Y1336D02*
X11918D01*
X12018Y1435D01*
X12118Y1336D01*
X12218D01*
Y1435D01*
X12118Y1535D01*
X12218Y1636D01*
Y1735D01*
X12118D01*
X12018Y1636D01*
X11918Y1735D01*
X11818D01*
Y1636D01*
X11918Y1535D01*
X11818Y1435D01*
Y1336D01*
X5351Y1353D02*
X5451D01*
X5551Y1453D01*
X5651Y1353D01*
X5751D01*
Y1453D01*
X5651Y1553D01*
X5751Y1653D01*
Y1753D01*
X5651D01*
X5551Y1653D01*
X5451Y1753D01*
X5351D01*
Y1653D01*
X5451Y1553D01*
X5351Y1453D01*
Y1353D01*
X12753Y15017D02*
X12853D01*
X12953Y15117D01*
X13053Y15017D01*
X13153D01*
Y15117D01*
X13053Y15217D01*
X13153Y15317D01*
Y15417D01*
X13053D01*
X12953Y15317D01*
X12853Y15417D01*
X12753D01*
Y15317D01*
X12853Y15217D01*
X12753Y15117D01*
Y15017D01*
X12359Y14862D02*
X12559Y15062D01*
X12759Y14862D01*
X12559Y14662D01*
X12359Y14862D01*
X11410Y20430D02*
X11510D01*
X11610Y20530D01*
X11710Y20430D01*
X11810D01*
Y20530D01*
X11710Y20630D01*
X11810Y20730D01*
Y20830D01*
X11710D01*
X11610Y20730D01*
X11510Y20830D01*
X11410D01*
Y20730D01*
X11510Y20630D01*
X11410Y20530D01*
Y20430D01*
X11233Y19560D02*
X11333D01*
X11433Y19660D01*
X11533Y19560D01*
X11633D01*
Y19660D01*
X11533Y19760D01*
X11633Y19860D01*
Y19960D01*
X11533D01*
X11433Y19860D01*
X11333Y19960D01*
X11233D01*
Y19860D01*
X11333Y19760D01*
X11233Y19660D01*
Y19560D01*
X11267Y12303D02*
X11467Y12503D01*
X11667Y12303D01*
X11467Y12103D01*
X11267Y12303D01*
X10456Y11230D02*
X10656Y11430D01*
X10856Y11230D01*
X10656Y11030D01*
X10456Y11230D01*
X10446Y12113D02*
X10646Y12313D01*
X10846Y12113D01*
X10646Y11913D01*
X10446Y12113D01*
X10755Y14872D02*
X10955Y15072D01*
X11155Y14872D01*
X10955Y14672D01*
X10755Y14872D01*
X13089Y10970D02*
X13189D01*
X13289Y11070D01*
X13389Y10970D01*
X13489D01*
Y11070D01*
X13389Y11170D01*
X13489Y11270D01*
Y11370D01*
X13389D01*
X13289Y11270D01*
X13189Y11370D01*
X13089D01*
Y11270D01*
X13189Y11170D01*
X13089Y11070D01*
Y10970D01*
X11669Y10953D02*
X11769D01*
X11869Y11053D01*
X11969Y10953D01*
X12069D01*
Y11053D01*
X11969Y11153D01*
X12069Y11253D01*
Y11353D01*
X11969D01*
X11869Y11253D01*
X11769Y11353D01*
X11669D01*
Y11253D01*
X11769Y11153D01*
X11669Y11053D01*
Y10953D01*
X12831Y18954D02*
X12931D01*
X13032Y19054D01*
X13132Y18954D01*
X13232D01*
Y19054D01*
X13132Y19154D01*
X13232Y19254D01*
Y19354D01*
X13132D01*
X13032Y19254D01*
X12931Y19354D01*
X12831D01*
Y19254D01*
X12931Y19154D01*
X12831Y19054D01*
Y18954D01*
X10596Y19850D02*
X10696D01*
X10796Y19950D01*
X10896Y19850D01*
X10996D01*
Y19950D01*
X10896Y20050D01*
X10996Y20150D01*
Y20250D01*
X10896D01*
X10796Y20150D01*
X10696Y20250D01*
X10596D01*
Y20150D01*
X10696Y20050D01*
X10596Y19950D01*
Y19850D01*
X6658Y12250D02*
X6858Y12450D01*
X7058Y12250D01*
X6858Y12050D01*
X6658Y12250D01*
X7560Y12740D02*
X7760Y12940D01*
X7960Y12740D01*
X7760Y12540D01*
X7560Y12740D01*
X11926Y16916D02*
X12026D01*
X12126Y17016D01*
X12226Y16916D01*
X12326D01*
Y17016D01*
X12226Y17116D01*
X12326Y17216D01*
Y17316D01*
X12226D01*
X12126Y17216D01*
X12026Y17316D01*
X11926D01*
Y17216D01*
X12026Y17116D01*
X11926Y17016D01*
Y16916D01*
X6788Y13484D02*
X6988Y13684D01*
X7188Y13484D01*
X6988Y13284D01*
X6788Y13484D01*
X6011Y13750D02*
X6211Y13950D01*
X6411Y13750D01*
X6211Y13550D01*
X6011Y13750D01*
X6788Y14006D02*
X6988Y14206D01*
X7188Y14006D01*
X6988Y13806D01*
X6788Y14006D01*
X6260Y15010D02*
X6460Y15210D01*
X6660Y15010D01*
X6460Y14810D01*
X6260Y15010D01*
X5690Y15270D02*
X5890Y15470D01*
X6090Y15270D01*
X5890Y15070D01*
X5690Y15270D01*
X5750Y15050D02*
X5950Y15250D01*
X6150Y15050D01*
X5950Y14850D01*
X5750Y15050D01*
X5410Y15220D02*
X5610Y15420D01*
X5810Y15220D01*
X5610Y15020D01*
X5410Y15220D01*
X5250Y15030D02*
X5450Y15230D01*
X5650Y15030D01*
X5450Y14830D01*
X5250Y15030D01*
X1793Y17977D02*
X1893D01*
X1993Y18077D01*
X2093Y17977D01*
X2193D01*
Y18077D01*
X2093Y18177D01*
X2193Y18277D01*
Y18377D01*
X2093D01*
X1993Y18277D01*
X1893Y18377D01*
X1793D01*
Y18277D01*
X1893Y18177D01*
X1793Y18077D01*
Y17977D01*
X1893Y20317D02*
X1993D01*
X2093Y20417D01*
X2193Y20317D01*
X2293D01*
Y20417D01*
X2193Y20517D01*
X2293Y20617D01*
Y20717D01*
X2193D01*
X2093Y20617D01*
X1993Y20717D01*
X1893D01*
Y20617D01*
X1993Y20517D01*
X1893Y20417D01*
Y20317D01*
X2203Y19667D02*
X2303D01*
X2403Y19767D01*
X2503Y19667D01*
X2603D01*
Y19767D01*
X2503Y19867D01*
X2603Y19967D01*
Y20067D01*
X2503D01*
X2403Y19967D01*
X2303Y20067D01*
X2203D01*
Y19967D01*
X2303Y19867D01*
X2203Y19767D01*
Y19667D01*
X3153Y20417D02*
X3253D01*
X3353Y20517D01*
X3453Y20417D01*
X3553D01*
Y20517D01*
X3453Y20617D01*
X3553Y20717D01*
Y20817D01*
X3453D01*
X3353Y20717D01*
X3253Y20817D01*
X3153D01*
Y20717D01*
X3253Y20617D01*
X3153Y20517D01*
Y20417D01*
X7020Y12450D02*
X7220Y12650D01*
X7420Y12450D01*
X7220Y12250D01*
X7020Y12450D01*
X7820Y12730D02*
X8020Y12930D01*
X8220Y12730D01*
X8020Y12530D01*
X7820Y12730D01*
X6250Y12750D02*
X6450Y12950D01*
X6650Y12750D01*
X6450Y12550D01*
X6250Y12750D01*
X5760Y12470D02*
X5960Y12670D01*
X6160Y12470D01*
X5960Y12270D01*
X5760Y12470D01*
X980Y13520D02*
X1180Y13720D01*
X1380Y13520D01*
X1180Y13320D01*
X980Y13520D01*
X12810Y23670D02*
X12910D01*
X13010Y23770D01*
X13110Y23670D01*
X13210D01*
Y23770D01*
X13110Y23870D01*
X13210Y23970D01*
Y24070D01*
X13110D01*
X13010Y23970D01*
X12910Y24070D01*
X12810D01*
Y23970D01*
X12910Y23870D01*
X12810Y23770D01*
Y23670D01*
X14667Y24011D02*
X14767D01*
X14867Y24111D01*
X14967Y24011D01*
X15067D01*
Y24111D01*
X14967Y24211D01*
X15067Y24311D01*
Y24411D01*
X14967D01*
X14867Y24311D01*
X14767Y24411D01*
X14667D01*
Y24311D01*
X14767Y24211D01*
X14667Y24111D01*
Y24011D01*
X8900Y24780D02*
X9100Y24980D01*
X9300Y24780D01*
X9100Y24580D01*
X8900Y24780D01*
X9150Y24680D02*
X9350Y24880D01*
X9550Y24680D01*
X9350Y24480D01*
X9150Y24680D01*
X10050Y24530D02*
X10250Y24730D01*
X10450Y24530D01*
X10250Y24330D01*
X10050Y24530D01*
X8380Y26380D02*
X8480D01*
X8580Y26480D01*
X8680Y26380D01*
X8780D01*
Y26480D01*
X8680Y26580D01*
X8780Y26680D01*
Y26780D01*
X8680D01*
X8580Y26680D01*
X8480Y26780D01*
X8380D01*
Y26680D01*
X8480Y26580D01*
X8380Y26480D01*
Y26380D01*
X7860Y23680D02*
X8060Y23880D01*
X8260Y23680D01*
X8060Y23480D01*
X7860Y23680D01*
X8380Y21270D02*
X8580Y21470D01*
X8780Y21270D01*
X8580Y21070D01*
X8380Y21270D01*
X13800Y23980D02*
X13900D01*
X14000Y24080D01*
X14100Y23980D01*
X14200D01*
Y24080D01*
X14100Y24180D01*
X14200Y24280D01*
Y24380D01*
X14100D01*
X14000Y24280D01*
X13900Y24380D01*
X13800D01*
Y24280D01*
X13900Y24180D01*
X13800Y24080D01*
Y23980D01*
X15310Y23850D02*
X15410D01*
X15510Y23950D01*
X15610Y23850D01*
X15710D01*
Y23950D01*
X15610Y24050D01*
X15710Y24150D01*
Y24250D01*
X15610D01*
X15510Y24150D01*
X15410Y24250D01*
X15310D01*
Y24150D01*
X15410Y24050D01*
X15310Y23950D01*
Y23850D01*
X16320Y23430D02*
X16420D01*
X16520Y23530D01*
X16620Y23430D01*
X16720D01*
Y23530D01*
X16620Y23630D01*
X16720Y23730D01*
Y23830D01*
X16620D01*
X16520Y23730D01*
X16420Y23830D01*
X16320D01*
Y23730D01*
X16420Y23630D01*
X16320Y23530D01*
Y23430D01*
X15010Y25210D02*
X15110D01*
X15210Y25310D01*
X15310Y25210D01*
X15410D01*
Y25310D01*
X15310Y25410D01*
X15410Y25510D01*
Y25610D01*
X15310D01*
X15210Y25510D01*
X15110Y25610D01*
X15010D01*
Y25510D01*
X15110Y25410D01*
X15010Y25310D01*
Y25210D01*
X15690Y25370D02*
X15790D01*
X15890Y25470D01*
X15990Y25370D01*
X16090D01*
Y25470D01*
X15990Y25570D01*
X16090Y25670D01*
Y25770D01*
X15990D01*
X15890Y25670D01*
X15790Y25770D01*
X15690D01*
Y25670D01*
X15790Y25570D01*
X15690Y25470D01*
Y25370D01*
X15720Y26600D02*
X15820D01*
X15920Y26700D01*
X16020Y26600D01*
X16120D01*
Y26700D01*
X16020Y26800D01*
X16120Y26900D01*
Y27000D01*
X16020D01*
X15920Y26900D01*
X15820Y27000D01*
X15720D01*
Y26900D01*
X15820Y26800D01*
X15720Y26700D01*
Y26600D01*
X15580Y25950D02*
X15680D01*
X15780Y26050D01*
X15880Y25950D01*
X15980D01*
Y26050D01*
X15880Y26150D01*
X15980Y26250D01*
Y26350D01*
X15880D01*
X15780Y26250D01*
X15680Y26350D01*
X15580D01*
Y26250D01*
X15680Y26150D01*
X15580Y26050D01*
Y25950D01*
X1420Y554D02*
X1520D01*
X1620Y654D01*
X1720Y554D01*
X1820D01*
Y654D01*
X1720Y754D01*
X1820Y854D01*
Y954D01*
X1720D01*
X1620Y854D01*
X1520Y954D01*
X1420D01*
Y854D01*
X1520Y754D01*
X1420Y654D01*
Y554D01*
Y2366D02*
X1520D01*
X1620Y2466D01*
X1720Y2366D01*
X1820D01*
Y2466D01*
X1720Y2566D01*
X1820Y2666D01*
Y2766D01*
X1720D01*
X1620Y2666D01*
X1520Y2766D01*
X1420D01*
Y2666D01*
X1520Y2566D01*
X1420Y2466D01*
Y2366D01*
X2326Y1460D02*
X2426D01*
X2526Y1560D01*
X2626Y1460D01*
X2726D01*
Y1560D01*
X2626Y1660D01*
X2726Y1760D01*
Y1860D01*
X2626D01*
X2526Y1760D01*
X2426Y1860D01*
X2326D01*
Y1760D01*
X2426Y1660D01*
X2326Y1560D01*
Y1460D01*
X514D02*
X614D01*
X714Y1560D01*
X814Y1460D01*
X914D01*
Y1560D01*
X814Y1660D01*
X914Y1760D01*
Y1860D01*
X814D01*
X714Y1760D01*
X614Y1860D01*
X514D01*
Y1760D01*
X614Y1660D01*
X514Y1560D01*
Y1460D01*
X1640Y25864D02*
X1740D01*
X1840Y25964D01*
X1940Y25864D01*
X2040D01*
Y25964D01*
X1940Y26064D01*
X2040Y26164D01*
Y26264D01*
X1940D01*
X1840Y26164D01*
X1740Y26264D01*
X1640D01*
Y26164D01*
X1740Y26064D01*
X1640Y25964D01*
Y25864D01*
Y27676D02*
X1740D01*
X1840Y27776D01*
X1940Y27676D01*
X2040D01*
Y27776D01*
X1940Y27876D01*
X2040Y27976D01*
Y28076D01*
X1940D01*
X1840Y27976D01*
X1740Y28076D01*
X1640D01*
Y27976D01*
X1740Y27876D01*
X1640Y27776D01*
Y27676D01*
X2546Y26770D02*
X2646D01*
X2746Y26870D01*
X2846Y26770D01*
X2946D01*
Y26870D01*
X2846Y26970D01*
X2946Y27070D01*
Y27170D01*
X2846D01*
X2746Y27070D01*
X2646Y27170D01*
X2546D01*
Y27070D01*
X2646Y26970D01*
X2546Y26870D01*
Y26770D01*
X734D02*
X834D01*
X934Y26870D01*
X1034Y26770D01*
X1134D01*
Y26870D01*
X1034Y26970D01*
X1134Y27070D01*
Y27170D01*
X1034D01*
X934Y27070D01*
X834Y27170D01*
X734D01*
Y27070D01*
X834Y26970D01*
X734Y26870D01*
Y26770D01*
X16370Y18514D02*
X16470D01*
X16570Y18614D01*
X16670Y18514D01*
X16770D01*
Y18614D01*
X16670Y18714D01*
X16770Y18814D01*
Y18914D01*
X16670D01*
X16570Y18814D01*
X16470Y18914D01*
X16370D01*
Y18814D01*
X16470Y18714D01*
X16370Y18614D01*
Y18514D01*
Y20326D02*
X16470D01*
X16570Y20426D01*
X16670Y20326D01*
X16770D01*
Y20426D01*
X16670Y20526D01*
X16770Y20626D01*
Y20726D01*
X16670D01*
X16570Y20626D01*
X16470Y20726D01*
X16370D01*
Y20626D01*
X16470Y20526D01*
X16370Y20426D01*
Y20326D01*
X17276Y19420D02*
X17376D01*
X17476Y19520D01*
X17576Y19420D01*
X17676D01*
Y19520D01*
X17576Y19620D01*
X17676Y19720D01*
Y19820D01*
X17576D01*
X17476Y19720D01*
X17376Y19820D01*
X17276D01*
Y19720D01*
X17376Y19620D01*
X17276Y19520D01*
Y19420D01*
X15464D02*
X15564D01*
X15664Y19520D01*
X15764Y19420D01*
X15864D01*
Y19520D01*
X15764Y19620D01*
X15864Y19720D01*
Y19820D01*
X15764D01*
X15664Y19720D01*
X15564Y19820D01*
X15464D01*
Y19720D01*
X15564Y19620D01*
X15464Y19520D01*
Y19420D01*
X16170Y624D02*
X16270D01*
X16370Y724D01*
X16470Y624D01*
X16570D01*
Y724D01*
X16470Y824D01*
X16570Y924D01*
Y1024D01*
X16470D01*
X16370Y924D01*
X16270Y1024D01*
X16170D01*
Y924D01*
X16270Y824D01*
X16170Y724D01*
Y624D01*
Y2436D02*
X16270D01*
X16370Y2536D01*
X16470Y2436D01*
X16570D01*
Y2536D01*
X16470Y2636D01*
X16570Y2736D01*
Y2836D01*
X16470D01*
X16370Y2736D01*
X16270Y2836D01*
X16170D01*
Y2736D01*
X16270Y2636D01*
X16170Y2536D01*
Y2436D01*
X17076Y1530D02*
X17176D01*
X17276Y1630D01*
X17376Y1530D01*
X17476D01*
Y1630D01*
X17376Y1730D01*
X17476Y1830D01*
Y1930D01*
X17376D01*
X17276Y1830D01*
X17176Y1930D01*
X17076D01*
Y1830D01*
X17176Y1730D01*
X17076Y1630D01*
Y1530D01*
X15264D02*
X15364D01*
X15464Y1630D01*
X15564Y1530D01*
X15664D01*
Y1630D01*
X15564Y1730D01*
X15664Y1830D01*
Y1930D01*
X15564D01*
X15464Y1830D01*
X15364Y1930D01*
X15264D01*
Y1830D01*
X15364Y1730D01*
X15264Y1630D01*
Y1530D01*
X990Y14510D02*
X1190Y14710D01*
X1390Y14510D01*
X1190Y14310D01*
X990Y14510D01*
X980Y14000D02*
X1180Y14200D01*
X1380Y14000D01*
X1180Y13800D01*
X980Y14000D01*
Y13050D02*
X1180Y13250D01*
X1380Y13050D01*
X1180Y12850D01*
X980Y13050D01*
Y12550D02*
X1180Y12750D01*
X1380Y12550D01*
X1180Y12350D01*
X980Y12550D01*
Y12040D02*
X1180Y12240D01*
X1380Y12040D01*
X1180Y11840D01*
X980Y12040D01*
X15790Y23023D02*
X15890D01*
X15990Y23123D01*
X16090Y23023D01*
X16190D01*
Y23123D01*
X16090Y23223D01*
X16190Y23323D01*
Y23423D01*
X16090D01*
X15990Y23323D01*
X15890Y23423D01*
X15790D01*
Y23323D01*
X15890Y23223D01*
X15790Y23123D01*
Y23023D01*
X15747Y24421D02*
X15847D01*
X15947Y24521D01*
X16047Y24421D01*
X16147D01*
Y24521D01*
X16047Y24621D01*
X16147Y24721D01*
Y24821D01*
X16047D01*
X15947Y24721D01*
X15847Y24821D01*
X15747D01*
Y24721D01*
X15847Y24621D01*
X15747Y24521D01*
Y24421D01*
X17463Y23230D02*
X17563D01*
X17663Y23330D01*
X17763Y23230D01*
X17863D01*
Y23330D01*
X17763Y23430D01*
X17863Y23530D01*
Y23630D01*
X17763D01*
X17663Y23530D01*
X17563Y23630D01*
X17463D01*
Y23530D01*
X17563Y23430D01*
X17463Y23330D01*
Y23230D01*
X9733Y18440D02*
Y18840D01*
X10133D01*
Y18440D01*
X9733D01*
X9813Y18520D02*
Y18760D01*
X10053D01*
Y18520D01*
X9813D01*
X9733Y17940D02*
Y18340D01*
X10133D01*
Y17940D01*
X9733D01*
X9813Y18020D02*
Y18260D01*
X10053D01*
Y18020D01*
X9813D01*
X9733Y17440D02*
Y17840D01*
X10133D01*
Y17440D01*
X9733D01*
X9813Y17520D02*
Y17760D01*
X10053D01*
Y17520D01*
X9813D01*
X11233Y17440D02*
Y17840D01*
X11633D01*
Y17440D01*
X11233D01*
X11313Y17520D02*
Y17760D01*
X11553D01*
Y17520D01*
X11313D01*
X10733Y17440D02*
Y17840D01*
X11133D01*
Y17440D01*
X10733D01*
X10813Y17520D02*
Y17760D01*
X11053D01*
Y17520D01*
X10813D01*
X10233Y17440D02*
Y17840D01*
X10633D01*
Y17440D01*
X10233D01*
X10313Y17520D02*
Y17760D01*
X10553D01*
Y17520D01*
X10313D01*
X10233Y18440D02*
Y18840D01*
X10633D01*
Y18440D01*
X10233D01*
X10313Y18520D02*
Y18760D01*
X10553D01*
Y18520D01*
X10313D01*
X10233Y17940D02*
Y18340D01*
X10633D01*
Y17940D01*
X10233D01*
X10313Y18020D02*
Y18260D01*
X10553D01*
Y18020D01*
X10313D01*
X11233Y17940D02*
Y18340D01*
X11633D01*
Y17940D01*
X11233D01*
X11313Y18020D02*
Y18260D01*
X11553D01*
Y18020D01*
X11313D01*
X11233Y18440D02*
Y18840D01*
X11633D01*
Y18440D01*
X11233D01*
X11313Y18520D02*
Y18760D01*
X11553D01*
Y18520D01*
X11313D01*
X10733Y18440D02*
Y18840D01*
X11133D01*
Y18440D01*
X10733D01*
X10813Y18520D02*
Y18760D01*
X11053D01*
Y18520D01*
X10813D01*
X10733Y17940D02*
Y18340D01*
X11133D01*
Y17940D01*
X10733D01*
X10813Y18020D02*
Y18260D01*
X11053D01*
Y18020D01*
X10813D01*
X3747Y6554D02*
X3547Y6954D01*
X3947D01*
X3747Y6554D01*
Y6634D02*
X3627Y6874D01*
X3867D01*
X3747Y6634D01*
X3708Y5767D02*
X3508Y6167D01*
X3908D01*
X3708Y5767D01*
Y5847D02*
X3588Y6087D01*
X3828D01*
X3708Y5847D01*
X4889Y8287D02*
X4689Y8687D01*
X5089D01*
X4889Y8287D01*
Y8367D02*
X4769Y8607D01*
X5009D01*
X4889Y8367D01*
X7528Y3746D02*
X7628D01*
X7728Y3846D01*
X7828Y3746D01*
X7928D01*
Y3846D01*
X7828Y3946D01*
X7928Y4046D01*
Y4146D01*
X7828D01*
X7728Y4046D01*
X7628Y4146D01*
X7528D01*
Y4046D01*
X7628Y3946D01*
X7528Y3846D01*
Y3746D01*
X7300Y12470D02*
X7500Y12670D01*
X7700Y12470D01*
X7500Y12270D01*
X7300Y12470D01*
X7780Y14290D02*
X7980Y14490D01*
X8180Y14290D01*
X7980Y14090D01*
X7780Y14290D01*
X6276Y14006D02*
X6476Y14206D01*
X6676Y14006D01*
X6476Y13806D01*
X6276Y14006D01*
Y13740D02*
X6476Y13940D01*
X6676Y13740D01*
X6476Y13540D01*
X6276Y13740D01*
X6532Y13484D02*
X6732Y13684D01*
X6932Y13484D01*
X6732Y13284D01*
X6532Y13484D01*
Y13750D02*
X6732Y13950D01*
X6932Y13750D01*
X6732Y13550D01*
X6532Y13750D01*
X6788Y13760D02*
X6988Y13960D01*
X7188Y13760D01*
X6988Y13560D01*
X6788Y13760D01*
X6532Y14006D02*
X6732Y14206D01*
X6932Y14006D01*
X6732Y13806D01*
X6532Y14006D01*
X5863Y14203D02*
X6063Y14403D01*
X6263Y14203D01*
X6063Y14003D01*
X5863Y14203D01*
X6493Y14409D02*
X6693Y14609D01*
X6893Y14409D01*
X6693Y14209D01*
X6493Y14409D01*
X5509Y14250D02*
X5709Y14450D01*
X5909Y14250D01*
X5709Y14050D01*
X5509Y14250D01*
X5100Y14160D02*
X5300Y14360D01*
X5500Y14160D01*
X5300Y13960D01*
X5100Y14160D01*
X5991Y13091D02*
X6191Y13291D01*
X6391Y13091D01*
X6191Y12891D01*
X5991Y13091D01*
X6020Y12461D02*
X6220Y12661D01*
X6420Y12461D01*
X6220Y12261D01*
X6020Y12461D01*
X6532Y12992D02*
X6732Y13192D01*
X6932Y12992D01*
X6732Y12792D01*
X6532Y12992D01*
X6778Y13041D02*
X6978Y13241D01*
X7178Y13041D01*
X6978Y12841D01*
X6778Y13041D01*
Y12736D02*
X6978Y12936D01*
X7178Y12736D01*
X6978Y12536D01*
X6778Y12736D01*
X7300Y12992D02*
X7500Y13192D01*
X7700Y12992D01*
X7500Y12792D01*
X7300Y12992D01*
X7231Y13228D02*
X7431Y13428D01*
X7631Y13228D01*
X7431Y13028D01*
X7231Y13228D01*
X7024Y13750D02*
X7224Y13950D01*
X7424Y13750D01*
X7224Y13550D01*
X7024Y13750D01*
X7010Y14480D02*
X7210Y14680D01*
X7410Y14480D01*
X7210Y14280D01*
X7010Y14480D01*
X7556Y11909D02*
X7756Y12109D01*
X7956Y11909D01*
X7756Y11709D01*
X7556Y11909D01*
X7959D02*
X8159Y12109D01*
X8359Y11909D01*
X8159Y11709D01*
X7959Y11909D01*
X13068Y9662D02*
X13168D01*
X13268Y9762D01*
X13368Y9662D01*
X13468D01*
Y9762D01*
X13368Y9862D01*
X13468Y9962D01*
Y10062D01*
X13368D01*
X13268Y9962D01*
X13168Y10062D01*
X13068D01*
Y9962D01*
X13168Y9862D01*
X13068Y9762D01*
Y9662D01*
X440Y13150D02*
X640Y13350D01*
X840Y13150D01*
X640Y12950D01*
X440Y13150D01*
X3150Y13170D02*
X3350Y13370D01*
X3550Y13170D01*
X3350Y12970D01*
X3150Y13170D01*
X440Y13370D02*
X640Y13570D01*
X840Y13370D01*
X640Y13170D01*
X440Y13370D01*
X3150D02*
X3350Y13570D01*
X3550Y13370D01*
X3350Y13170D01*
X3150Y13370D01*
X5750Y11620D02*
X5950Y11820D01*
X6150Y11620D01*
X5950Y11420D01*
X5750Y11620D01*
X7780Y14030D02*
X7980Y14230D01*
X8180Y14030D01*
X7980Y13830D01*
X7780Y14030D01*
X9740Y15630D02*
X9840D01*
X9940Y15730D01*
X10040Y15630D01*
X10140D01*
Y15730D01*
X10040Y15830D01*
X10140Y15930D01*
Y16030D01*
X10040D01*
X9940Y15930D01*
X9840Y16030D01*
X9740D01*
Y15930D01*
X9840Y15830D01*
X9740Y15730D01*
Y15630D01*
X450Y14120D02*
X650Y14320D01*
X850Y14120D01*
X650Y13920D01*
X450Y14120D01*
X2140D02*
X2340Y14320D01*
X2540Y14120D01*
X2340Y13920D01*
X2140Y14120D01*
X450Y14320D02*
X650Y14520D01*
X850Y14320D01*
X650Y14120D01*
X450Y14320D01*
X2140D02*
X2340Y14520D01*
X2540Y14320D01*
X2340Y14120D01*
X2140Y14320D01*
X7470Y17129D02*
X7670Y17329D01*
X7870Y17129D01*
X7670Y16929D01*
X7470Y17129D01*
X7700Y16916D02*
X7900Y17116D01*
X8100Y16916D01*
X7900Y16716D01*
X7700Y16916D01*
X7490Y16700D02*
X7690Y16900D01*
X7890Y16700D01*
X7690Y16500D01*
X7490Y16700D01*
X7296Y16430D02*
X7496Y16630D01*
X7696Y16430D01*
X7496Y16230D01*
X7296Y16430D01*
X8010Y15720D02*
X8110D01*
X8210Y15820D01*
X8310Y15720D01*
X8410D01*
Y15820D01*
X8310Y15920D01*
X8410Y16020D01*
Y16120D01*
X8310D01*
X8210Y16020D01*
X8110Y16120D01*
X8010D01*
Y16020D01*
X8110Y15920D01*
X8010Y15820D01*
Y15720D01*
X7620Y15730D02*
X7720D01*
X7820Y15830D01*
X7920Y15730D01*
X8020D01*
Y15830D01*
X7920Y15930D01*
X8020Y16030D01*
Y16130D01*
X7920D01*
X7820Y16030D01*
X7720Y16130D01*
X7620D01*
Y16030D01*
X7720Y15930D01*
X7620Y15830D01*
Y15730D01*
X7230Y15720D02*
X7330D01*
X7430Y15820D01*
X7530Y15720D01*
X7630D01*
Y15820D01*
X7530Y15920D01*
X7630Y16020D01*
Y16120D01*
X7530D01*
X7430Y16020D01*
X7330Y16120D01*
X7230D01*
Y16020D01*
X7330Y15920D01*
X7230Y15820D01*
Y15720D01*
X6539Y20772D02*
X6639D01*
X6739Y20872D01*
X6839Y20772D01*
X6939D01*
Y20872D01*
X6839Y20972D01*
X6939Y21072D01*
Y21172D01*
X6839D01*
X6739Y21072D01*
X6639Y21172D01*
X6539D01*
Y21072D01*
X6639Y20972D01*
X6539Y20872D01*
Y20772D01*
X6913Y20752D02*
X7013D01*
X7113Y20852D01*
X7213Y20752D01*
X7313D01*
Y20852D01*
X7213Y20952D01*
X7313Y21052D01*
Y21152D01*
X7213D01*
X7113Y21052D01*
X7013Y21152D01*
X6913D01*
Y21052D01*
X7013Y20952D01*
X6913Y20852D01*
Y20752D01*
X6924Y21934D02*
X7024D01*
X7124Y22034D01*
X7224Y21934D01*
X7324D01*
Y22034D01*
X7224Y22134D01*
X7324Y22234D01*
Y22334D01*
X7224D01*
X7124Y22234D01*
X7024Y22334D01*
X6924D01*
Y22234D01*
X7024Y22134D01*
X6924Y22034D01*
Y21934D01*
X8594Y23746D02*
X8794Y23946D01*
X8994Y23746D01*
X8794Y23546D01*
X8594Y23746D01*
X9027D02*
X9227Y23946D01*
X9427Y23746D01*
X9227Y23546D01*
X9027Y23746D01*
X9460D02*
X9660Y23946D01*
X9860Y23746D01*
X9660Y23546D01*
X9460Y23746D01*
X9893D02*
X10093Y23946D01*
X10293Y23746D01*
X10093Y23546D01*
X9893Y23746D01*
X10326D02*
X10526Y23946D01*
X10726Y23746D01*
X10526Y23546D01*
X10326Y23746D01*
X8594Y23313D02*
X8794Y23513D01*
X8994Y23313D01*
X8794Y23113D01*
X8594Y23313D01*
X9027D02*
X9227Y23513D01*
X9427Y23313D01*
X9227Y23113D01*
X9027Y23313D01*
X9460D02*
X9660Y23513D01*
X9860Y23313D01*
X9660Y23113D01*
X9460Y23313D01*
X9893D02*
X10093Y23513D01*
X10293Y23313D01*
X10093Y23113D01*
X9893Y23313D01*
X10326D02*
X10526Y23513D01*
X10726Y23313D01*
X10526Y23113D01*
X10326Y23313D01*
X8594Y22880D02*
X8794Y23080D01*
X8994Y22880D01*
X8794Y22680D01*
X8594Y22880D01*
X9027D02*
X9227Y23080D01*
X9427Y22880D01*
X9227Y22680D01*
X9027Y22880D01*
X9460D02*
X9660Y23080D01*
X9860Y22880D01*
X9660Y22680D01*
X9460Y22880D01*
X9893D02*
X10093Y23080D01*
X10293Y22880D01*
X10093Y22680D01*
X9893Y22880D01*
X10326D02*
X10526Y23080D01*
X10726Y22880D01*
X10526Y22680D01*
X10326Y22880D01*
X8594Y22447D02*
X8794Y22647D01*
X8994Y22447D01*
X8794Y22247D01*
X8594Y22447D01*
X9027D02*
X9227Y22647D01*
X9427Y22447D01*
X9227Y22247D01*
X9027Y22447D01*
X9460D02*
X9660Y22647D01*
X9860Y22447D01*
X9660Y22247D01*
X9460Y22447D01*
X9893D02*
X10093Y22647D01*
X10293Y22447D01*
X10093Y22247D01*
X9893Y22447D01*
X10326D02*
X10526Y22647D01*
X10726Y22447D01*
X10526Y22247D01*
X10326Y22447D01*
X8594Y22014D02*
X8794Y22214D01*
X8994Y22014D01*
X8794Y21814D01*
X8594Y22014D01*
X9027D02*
X9227Y22214D01*
X9427Y22014D01*
X9227Y21814D01*
X9027Y22014D01*
X9460D02*
X9660Y22214D01*
X9860Y22014D01*
X9660Y21814D01*
X9460Y22014D01*
X9893D02*
X10093Y22214D01*
X10293Y22014D01*
X10093Y21814D01*
X9893Y22014D01*
X10326D02*
X10526Y22214D01*
X10726Y22014D01*
X10526Y21814D01*
X10326Y22014D01*
X11137Y13953D02*
X11337Y14153D01*
X11537Y13953D01*
X11337Y13753D01*
X11137Y13953D01*
X11570D02*
X11770Y14153D01*
X11970Y13953D01*
X11770Y13753D01*
X11570Y13953D01*
X12003D02*
X12203Y14153D01*
X12403Y13953D01*
X12203Y13753D01*
X12003Y13953D01*
X11137Y13520D02*
X11337Y13720D01*
X11537Y13520D01*
X11337Y13320D01*
X11137Y13520D01*
X11570D02*
X11770Y13720D01*
X11970Y13520D01*
X11770Y13320D01*
X11570Y13520D01*
X12003D02*
X12203Y13720D01*
X12403Y13520D01*
X12203Y13320D01*
X12003Y13520D01*
X11137Y13087D02*
X11337Y13287D01*
X11537Y13087D01*
X11337Y12887D01*
X11137Y13087D01*
X11570D02*
X11770Y13287D01*
X11970Y13087D01*
X11770Y12887D01*
X11570Y13087D01*
X12003D02*
X12203Y13287D01*
X12403Y13087D01*
X12203Y12887D01*
X12003Y13087D01*
X14043Y14403D02*
X14243Y14603D01*
X14443Y14403D01*
X14243Y14203D01*
X14043Y14403D01*
X10340Y5120D02*
X10440D01*
X10540Y5220D01*
X10640Y5120D01*
X10740D01*
Y5220D01*
X10640Y5320D01*
X10740Y5420D01*
Y5520D01*
X10640D01*
X10540Y5420D01*
X10440Y5520D01*
X10340D01*
Y5420D01*
X10440Y5320D01*
X10340Y5220D01*
Y5120D01*
X14170D02*
X14270D01*
X14370Y5220D01*
X14470Y5120D01*
X14570D01*
Y5220D01*
X14470Y5320D01*
X14570Y5420D01*
Y5520D01*
X14470D01*
X14370Y5420D01*
X14270Y5520D01*
X14170D01*
Y5420D01*
X14270Y5320D01*
X14170Y5220D01*
Y5120D01*
X9820Y20340D02*
X9920D01*
X10020Y20440D01*
X10120Y20340D01*
X10220D01*
Y20440D01*
X10120Y20540D01*
X10220Y20640D01*
Y20740D01*
X10120D01*
X10020Y20640D01*
X9920Y20740D01*
X9820D01*
Y20640D01*
X9920Y20540D01*
X9820Y20440D01*
Y20340D01*
X10490Y20510D02*
X10590D01*
X10690Y20610D01*
X10790Y20510D01*
X10890D01*
Y20610D01*
X10790Y20710D01*
X10890Y20810D01*
Y20910D01*
X10790D01*
X10690Y20810D01*
X10590Y20910D01*
X10490D01*
Y20810D01*
X10590Y20710D01*
X10490Y20610D01*
Y20510D01*
X15660Y9030D02*
X15760D01*
X15860Y9130D01*
X15960Y9030D01*
X16060D01*
Y9130D01*
X15960Y9230D01*
X16060Y9330D01*
Y9430D01*
X15960D01*
X15860Y9330D01*
X15760Y9430D01*
X15660D01*
Y9330D01*
X15760Y9230D01*
X15660Y9130D01*
Y9030D01*
X12470Y16150D02*
X12570D01*
X12670Y16250D01*
X12770Y16150D01*
X12870D01*
Y16250D01*
X12770Y16350D01*
X12870Y16450D01*
Y16550D01*
X12770D01*
X12670Y16450D01*
X12570Y16550D01*
X12470D01*
Y16450D01*
X12570Y16350D01*
X12470Y16250D01*
Y16150D01*
X12060Y16130D02*
X12160D01*
X12260Y16230D01*
X12360Y16130D01*
X12460D01*
Y16230D01*
X12360Y16330D01*
X12460Y16430D01*
Y16530D01*
X12360D01*
X12260Y16430D01*
X12160Y16530D01*
X12060D01*
Y16430D01*
X12160Y16330D01*
X12060Y16230D01*
Y16130D01*
X11150Y15380D02*
X11250D01*
X11350Y15480D01*
X11450Y15380D01*
X11550D01*
Y15480D01*
X11450Y15580D01*
X11550Y15680D01*
Y15780D01*
X11450D01*
X11350Y15680D01*
X11250Y15780D01*
X11150D01*
Y15680D01*
X11250Y15580D01*
X11150Y15480D01*
Y15380D01*
X14040Y13810D02*
X14240Y14010D01*
X14440Y13810D01*
X14240Y13610D01*
X14040Y13810D01*
Y13220D02*
X14240Y13420D01*
X14440Y13220D01*
X14240Y13020D01*
X14040Y13220D01*
Y12630D02*
X14240Y12830D01*
X14440Y12630D01*
X14240Y12430D01*
X14040Y12630D01*
X15140Y11250D02*
X15240D01*
X15340Y11350D01*
X15440Y11250D01*
X15540D01*
Y11350D01*
X15440Y11450D01*
X15540Y11550D01*
Y11650D01*
X15440D01*
X15340Y11550D01*
X15240Y11650D01*
X15140D01*
Y11550D01*
X15240Y11450D01*
X15140Y11350D01*
Y11250D01*
X11470Y16190D02*
X11570D01*
X11670Y16290D01*
X11770Y16190D01*
X11870D01*
Y16290D01*
X11770Y16390D01*
X11870Y16490D01*
Y16590D01*
X11770D01*
X11670Y16490D01*
X11570Y16590D01*
X11470D01*
Y16490D01*
X11570Y16390D01*
X11470Y16290D01*
Y16190D01*
X2940Y12000D02*
X3140Y12200D01*
X3340Y12000D01*
X3140Y11800D01*
X2940Y12000D01*
X2040Y14560D02*
X2240Y14760D01*
X2440Y14560D01*
X2240Y14360D01*
X2040Y14560D01*
X2950Y14320D02*
X3150Y14520D01*
X3350Y14320D01*
X3150Y14120D01*
X2950Y14320D01*
X3210Y13630D02*
X3410Y13830D01*
X3610Y13630D01*
X3410Y13430D01*
X3210Y13630D01*
X3000D02*
X3200Y13830D01*
X3400Y13630D01*
X3200Y13430D01*
X3000Y13630D01*
X3720Y14320D02*
X3920Y14520D01*
X4120Y14320D01*
X3920Y14120D01*
X3720Y14320D01*
X2380Y10780D02*
X2480D01*
X2580Y10880D01*
X2680Y10780D01*
X2780D01*
Y10880D01*
X2680Y10980D01*
X2780Y11080D01*
Y11180D01*
X2680D01*
X2580Y11080D01*
X2480Y11180D01*
X2380D01*
Y11080D01*
X2480Y10980D01*
X2380Y10880D01*
Y10780D01*
X8596Y15200D02*
X8696D01*
X8796Y15300D01*
X8896Y15200D01*
X8996D01*
Y15300D01*
X8896Y15400D01*
X8996Y15500D01*
Y15600D01*
X8896D01*
X8796Y15500D01*
X8696Y15600D01*
X8596D01*
Y15500D01*
X8696Y15400D01*
X8596Y15300D01*
Y15200D01*
X9400D02*
X9500D01*
X9600Y15300D01*
X9700Y15200D01*
X9800D01*
Y15300D01*
X9700Y15400D01*
X9800Y15500D01*
Y15600D01*
X9700D01*
X9600Y15500D01*
X9500Y15600D01*
X9400D01*
Y15500D01*
X9500Y15400D01*
X9400Y15300D01*
Y15200D01*
X13214Y16916D02*
X13314D01*
X13414Y17016D01*
X13514Y16916D01*
X13614D01*
Y17016D01*
X13514Y17116D01*
X13614Y17216D01*
Y17316D01*
X13514D01*
X13414Y17216D01*
X13314Y17316D01*
X13214D01*
Y17216D01*
X13314Y17116D01*
X13214Y17016D01*
Y16916D01*
X2090Y13450D02*
X2290Y13650D01*
X2490Y13450D01*
X2290Y13250D01*
X2090Y13450D01*
X3200Y12050D02*
X3400Y12250D01*
X3600Y12050D01*
X3400Y11850D01*
X3200Y12050D01*
X3960Y14390D02*
X4160Y14590D01*
X4360Y14390D01*
X4160Y14190D01*
X3960Y14390D01*
X3320Y14710D02*
X3520Y14910D01*
X3720Y14710D01*
X3520Y14510D01*
X3320Y14710D01*
X2290Y14560D02*
X2490Y14760D01*
X2690Y14560D01*
X2490Y14360D01*
X2290Y14560D01*
X390Y14700D02*
X590Y14900D01*
X790Y14700D01*
X590Y14500D01*
X390Y14700D01*
X170Y12220D02*
X370Y12420D01*
X570Y12220D01*
X370Y12020D01*
X170Y12220D01*
X812Y10508D02*
X912D01*
X1012Y10608D01*
X1112Y10508D01*
X1212D01*
Y10608D01*
X1112Y10708D01*
X1212Y10808D01*
Y10908D01*
X1112D01*
X1012Y10808D01*
X912Y10908D01*
X812D01*
Y10808D01*
X912Y10708D01*
X812Y10608D01*
Y10508D01*
X13650Y12170D02*
X13850Y12370D01*
X14050Y12170D01*
X13850Y11970D01*
X13650Y12170D01*
X12820Y14560D02*
X13020Y14760D01*
X13220Y14560D01*
X13020Y14360D01*
X12820Y14560D01*
X12510Y14490D02*
X12710Y14690D01*
X12910Y14490D01*
X12710Y14290D01*
X12510Y14490D01*
X12500Y12590D02*
X12700Y12790D01*
X12900Y12590D01*
X12700Y12390D01*
X12500Y12590D01*
X12880Y12450D02*
X13080Y12650D01*
X13280Y12450D01*
X13080Y12250D01*
X12880Y12450D01*
X10390Y12620D02*
X10590Y12820D01*
X10790Y12620D01*
X10590Y12420D01*
X10390Y12620D01*
X10340Y14470D02*
X10540Y14670D01*
X10740Y14470D01*
X10540Y14270D01*
X10340Y14470D01*
X170Y12420D02*
X370Y12620D01*
X570Y12420D01*
X370Y12220D01*
X170Y12420D01*
Y12690D02*
X370Y12890D01*
X570Y12690D01*
X370Y12490D01*
X170Y12690D01*
Y12900D02*
X370Y13100D01*
X570Y12900D01*
X370Y12700D01*
X170Y12900D01*
Y13150D02*
X370Y13350D01*
X570Y13150D01*
X370Y12950D01*
X170Y13150D01*
Y13370D02*
X370Y13570D01*
X570Y13370D01*
X370Y13170D01*
X170Y13370D01*
Y13640D02*
X370Y13840D01*
X570Y13640D01*
X370Y13440D01*
X170Y13640D01*
Y13840D02*
X370Y14040D01*
X570Y13840D01*
X370Y13640D01*
X170Y13840D01*
Y14120D02*
X370Y14320D01*
X570Y14120D01*
X370Y13920D01*
X170Y14120D01*
Y14320D02*
X370Y14520D01*
X570Y14320D01*
X370Y14120D01*
X170Y14320D01*
D52*
X3867Y7857D02*
G03*
X3867Y7857I-120J0D01*
G01*
X12413Y6624D02*
G03*
X12413Y6624I-120J0D01*
G01*
X12374Y7096D02*
G03*
X12374Y7096I-120J0D01*
G01*
X12679Y8435D02*
G03*
X12679Y8435I-120J0D01*
G01*
X9000Y6269D02*
G03*
X9000Y6269I-120J0D01*
G01*
X8006Y6279D02*
G03*
X8006Y6279I-120J0D01*
G01*
X8478D02*
G03*
X8478Y6279I-120J0D01*
G01*
D199*
X12220Y933D02*
G03*
X12220Y933I-200J0D01*
G01*
Y225D02*
G03*
X12220Y225I-200J0D01*
G01*
X5760Y235D02*
G03*
X5760Y235I-200J0D01*
G01*
Y943D02*
G03*
X5760Y943I-200J0D01*
G01*
X3947Y7857D02*
G03*
X3947Y7857I-200J0D01*
G01*
X12493Y6624D02*
G03*
X12493Y6624I-200J0D01*
G01*
X12454Y7096D02*
G03*
X12454Y7096I-200J0D01*
G01*
X12759Y8435D02*
G03*
X12759Y8435I-200J0D01*
G01*
X9080Y6269D02*
G03*
X9080Y6269I-200J0D01*
G01*
X8086Y6279D02*
G03*
X8086Y6279I-200J0D01*
G01*
X8558D02*
G03*
X8558Y6279I-200J0D01*
G01*
M02*
