G04 Layer_Color=8388736*
%FSLAX24Y24*%
%MOIN*%
G70*
G01*
G75*
%ADD134C,0.1220*%
%ADD135R,0.1555X0.2244*%
%ADD136R,0.2244X0.1555*%
G04:AMPARAMS|DCode=137|XSize=28mil|YSize=30mil|CornerRadius=7.4mil|HoleSize=0mil|Usage=FLASHONLY|Rotation=270.000|XOffset=0mil|YOffset=0mil|HoleType=Round|Shape=RoundedRectangle|*
%AMROUNDEDRECTD137*
21,1,0.0280,0.0152,0,0,270.0*
21,1,0.0132,0.0300,0,0,270.0*
1,1,0.0148,-0.0076,-0.0066*
1,1,0.0148,-0.0076,0.0066*
1,1,0.0148,0.0076,0.0066*
1,1,0.0148,0.0076,-0.0066*
%
%ADD137ROUNDEDRECTD137*%
G04:AMPARAMS|DCode=138|XSize=35.1mil|YSize=45.4mil|CornerRadius=8.8mil|HoleSize=0mil|Usage=FLASHONLY|Rotation=180.000|XOffset=0mil|YOffset=0mil|HoleType=Round|Shape=RoundedRectangle|*
%AMROUNDEDRECTD138*
21,1,0.0351,0.0277,0,0,180.0*
21,1,0.0175,0.0454,0,0,180.0*
1,1,0.0177,-0.0087,0.0139*
1,1,0.0177,0.0087,0.0139*
1,1,0.0177,0.0087,-0.0139*
1,1,0.0177,-0.0087,-0.0139*
%
%ADD138ROUNDEDRECTD138*%
G04:AMPARAMS|DCode=139|XSize=35.1mil|YSize=45.4mil|CornerRadius=8.8mil|HoleSize=0mil|Usage=FLASHONLY|Rotation=90.000|XOffset=0mil|YOffset=0mil|HoleType=Round|Shape=RoundedRectangle|*
%AMROUNDEDRECTD139*
21,1,0.0351,0.0277,0,0,90.0*
21,1,0.0175,0.0454,0,0,90.0*
1,1,0.0177,0.0139,0.0087*
1,1,0.0177,0.0139,-0.0087*
1,1,0.0177,-0.0139,-0.0087*
1,1,0.0177,-0.0139,0.0087*
%
%ADD139ROUNDEDRECTD139*%
G04:AMPARAMS|DCode=140|XSize=28mil|YSize=30mil|CornerRadius=7.4mil|HoleSize=0mil|Usage=FLASHONLY|Rotation=0.000|XOffset=0mil|YOffset=0mil|HoleType=Round|Shape=RoundedRectangle|*
%AMROUNDEDRECTD140*
21,1,0.0280,0.0152,0,0,0.0*
21,1,0.0132,0.0300,0,0,0.0*
1,1,0.0148,0.0066,-0.0076*
1,1,0.0148,-0.0066,-0.0076*
1,1,0.0148,-0.0066,0.0076*
1,1,0.0148,0.0066,0.0076*
%
%ADD140ROUNDEDRECTD140*%
G04:AMPARAMS|DCode=141|XSize=80mil|YSize=80mil|CornerRadius=40mil|HoleSize=0mil|Usage=FLASHONLY|Rotation=90.000|XOffset=0mil|YOffset=0mil|HoleType=Round|Shape=RoundedRectangle|*
%AMROUNDEDRECTD141*
21,1,0.0800,0.0000,0,0,90.0*
21,1,0.0000,0.0800,0,0,90.0*
1,1,0.0800,0.0000,0.0000*
1,1,0.0800,0.0000,0.0000*
1,1,0.0800,0.0000,0.0000*
1,1,0.0800,0.0000,0.0000*
%
%ADD141ROUNDEDRECTD141*%
%ADD142O,0.0395X0.0158*%
%ADD143O,0.0158X0.0395*%
%ADD144R,0.2147X0.2147*%
%ADD145R,0.0395X0.0277*%
%ADD146O,0.0513X0.0158*%
%ADD147R,0.0670X0.1123*%
%ADD148R,0.0808X0.0178*%
G04:AMPARAMS|DCode=149|XSize=58mil|YSize=66mil|CornerRadius=16mil|HoleSize=0mil|Usage=FLASHONLY|Rotation=90.000|XOffset=0mil|YOffset=0mil|HoleType=Round|Shape=RoundedRectangle|*
%AMROUNDEDRECTD149*
21,1,0.0580,0.0340,0,0,90.0*
21,1,0.0260,0.0660,0,0,90.0*
1,1,0.0320,0.0170,0.0130*
1,1,0.0320,0.0170,-0.0130*
1,1,0.0320,-0.0170,-0.0130*
1,1,0.0320,-0.0170,0.0130*
%
%ADD149ROUNDEDRECTD149*%
%ADD150R,0.0340X0.0260*%
%ADD151R,0.0206X0.0257*%
%ADD152R,0.0198X0.0170*%
%ADD153O,0.0710X0.0355*%
%ADD154R,0.1320X0.1989*%
%ADD155C,0.0142*%
%ADD156R,0.0414X0.0217*%
%ADD157R,0.0188X0.0166*%
%ADD158R,0.0580X0.0480*%
%ADD159R,0.0592X0.0217*%
%ADD160R,0.0670X0.0651*%
G04:AMPARAMS|DCode=161|XSize=56mil|YSize=56mil|CornerRadius=28mil|HoleSize=0mil|Usage=FLASHONLY|Rotation=270.000|XOffset=0mil|YOffset=0mil|HoleType=Round|Shape=RoundedRectangle|*
%AMROUNDEDRECTD161*
21,1,0.0560,0.0000,0,0,270.0*
21,1,0.0000,0.0560,0,0,270.0*
1,1,0.0560,0.0000,0.0000*
1,1,0.0560,0.0000,0.0000*
1,1,0.0560,0.0000,0.0000*
1,1,0.0560,0.0000,0.0000*
%
%ADD161ROUNDEDRECTD161*%
%ADD162R,0.1477X0.1477*%
%ADD163O,0.0158X0.0355*%
%ADD164O,0.0355X0.0158*%
%ADD165R,0.0651X0.0729*%
%ADD166R,0.1162X0.0355*%
%ADD167R,0.0178X0.0217*%
G04:AMPARAMS|DCode=168|XSize=56mil|YSize=56mil|CornerRadius=28mil|HoleSize=0mil|Usage=FLASHONLY|Rotation=180.000|XOffset=0mil|YOffset=0mil|HoleType=Round|Shape=RoundedRectangle|*
%AMROUNDEDRECTD168*
21,1,0.0560,0.0000,0,0,180.0*
21,1,0.0000,0.0560,0,0,180.0*
1,1,0.0560,0.0000,0.0000*
1,1,0.0560,0.0000,0.0000*
1,1,0.0560,0.0000,0.0000*
1,1,0.0560,0.0000,0.0000*
%
%ADD168ROUNDEDRECTD168*%
%ADD169C,0.0651*%
%ADD170P,0.0920X4X180.0*%
%ADD171C,0.0760*%
G04:AMPARAMS|DCode=172|XSize=55.2mil|YSize=42.6mil|CornerRadius=17.6mil|HoleSize=0mil|Usage=FLASHONLY|Rotation=270.000|XOffset=0mil|YOffset=0mil|HoleType=Round|Shape=RoundedRectangle|*
%AMROUNDEDRECTD172*
21,1,0.0552,0.0073,0,0,270.0*
21,1,0.0199,0.0426,0,0,270.0*
1,1,0.0353,-0.0037,-0.0100*
1,1,0.0353,-0.0037,0.0100*
1,1,0.0353,0.0037,0.0100*
1,1,0.0353,0.0037,-0.0100*
%
%ADD172ROUNDEDRECTD172*%
G04:AMPARAMS|DCode=173|XSize=67mil|YSize=41mil|CornerRadius=17mil|HoleSize=0mil|Usage=FLASHONLY|Rotation=0.000|XOffset=0mil|YOffset=0mil|HoleType=Round|Shape=RoundedRectangle|*
%AMROUNDEDRECTD173*
21,1,0.0670,0.0070,0,0,0.0*
21,1,0.0330,0.0410,0,0,0.0*
1,1,0.0340,0.0165,-0.0035*
1,1,0.0340,-0.0165,-0.0035*
1,1,0.0340,-0.0165,0.0035*
1,1,0.0340,0.0165,0.0035*
%
%ADD173ROUNDEDRECTD173*%
%ADD174P,0.0736X8X202.5*%
%ADD175R,0.0060X0.0060*%
G36*
X954Y21000D02*
X266Y21000D01*
X266Y21511D01*
X954Y21511D01*
X954Y21000D01*
D02*
G37*
G36*
X954Y23244D02*
X266Y23244D01*
X266Y23756D01*
X954Y23756D01*
X954Y23244D01*
D02*
G37*
D134*
X2550Y1660D02*
G03*
X2550Y1660I-610J0D01*
G01*
X2770Y26970D02*
G03*
X2770Y26970I-610J0D01*
G01*
X18481Y19620D02*
G03*
X18481Y19620I-610J0D01*
G01*
Y1730D02*
G03*
X18481Y1730I-610J0D01*
G01*
D135*
X6350Y6410D02*
D03*
D136*
D03*
D137*
X2990Y12007D02*
D03*
Y11630D02*
D03*
X2510Y12123D02*
D03*
Y12500D02*
D03*
Y12883D02*
D03*
Y13260D02*
D03*
X2500Y14017D02*
D03*
Y13640D02*
D03*
X6240Y8090D02*
D03*
Y8467D02*
D03*
X6290Y4520D02*
D03*
Y4143D02*
D03*
X5850Y3930D02*
D03*
Y4307D02*
D03*
X6750Y8090D02*
D03*
Y8467D02*
D03*
X781Y20090D02*
D03*
Y20467D02*
D03*
X1211Y20091D02*
D03*
Y20470D02*
D03*
X2321Y24163D02*
D03*
Y24540D02*
D03*
X10796Y22200D02*
D03*
Y22577D02*
D03*
X4831Y8469D02*
D03*
Y8092D02*
D03*
X7870Y8460D02*
D03*
Y8081D02*
D03*
X7470Y8460D02*
D03*
Y8081D02*
D03*
X3803Y20327D02*
D03*
Y19950D02*
D03*
X3813Y18920D02*
D03*
Y19297D02*
D03*
X4393Y17630D02*
D03*
Y18007D02*
D03*
X7169Y11417D02*
D03*
Y11040D02*
D03*
X12471Y25130D02*
D03*
Y25509D02*
D03*
X12061Y25130D02*
D03*
Y25509D02*
D03*
X11441Y19399D02*
D03*
Y19020D02*
D03*
X4671Y26800D02*
D03*
Y26423D02*
D03*
D138*
X5649Y26680D02*
D03*
X5113D02*
D03*
X8669Y16580D02*
D03*
X9204D02*
D03*
X11486Y17010D02*
D03*
X10950D02*
D03*
X5129Y25408D02*
D03*
X4593D02*
D03*
X18239Y9420D02*
D03*
X17703D02*
D03*
X16091Y11230D02*
D03*
X16626D02*
D03*
X10950Y17580D02*
D03*
X11486D02*
D03*
X4490Y10068D02*
D03*
X3955D02*
D03*
X5274Y8178D02*
D03*
X5809D02*
D03*
X3569Y21450D02*
D03*
X3033D02*
D03*
X2763Y24066D02*
D03*
X3299D02*
D03*
Y24626D02*
D03*
X2763D02*
D03*
X17703Y8280D02*
D03*
X18239D02*
D03*
X16091Y11908D02*
D03*
X16626D02*
D03*
X14713Y11671D02*
D03*
X15249D02*
D03*
X16170Y14664D02*
D03*
X16705D02*
D03*
X5099Y24567D02*
D03*
X4563D02*
D03*
X17703Y8860D02*
D03*
X18239D02*
D03*
D139*
X14130Y5028D02*
D03*
Y4492D02*
D03*
X5461Y27212D02*
D03*
Y27748D02*
D03*
X13455Y12428D02*
D03*
Y11892D02*
D03*
X13151Y8832D02*
D03*
Y9368D02*
D03*
X15728Y17512D02*
D03*
Y18048D02*
D03*
X4891Y27212D02*
D03*
Y27748D02*
D03*
X13455Y13438D02*
D03*
Y12902D02*
D03*
X13151Y9832D02*
D03*
Y10368D02*
D03*
X16251Y6839D02*
D03*
Y6304D02*
D03*
X3323Y18960D02*
D03*
Y19495D02*
D03*
X14643Y9953D02*
D03*
Y10488D02*
D03*
X15935Y17028D02*
D03*
Y16492D02*
D03*
X12105Y16489D02*
D03*
Y17024D02*
D03*
X14666Y12963D02*
D03*
Y12427D02*
D03*
X17658Y12388D02*
D03*
Y12923D02*
D03*
X15666Y6839D02*
D03*
Y6304D02*
D03*
X13860Y6838D02*
D03*
Y6302D02*
D03*
X15081Y6839D02*
D03*
Y6304D02*
D03*
X14496D02*
D03*
Y6839D02*
D03*
X17410Y6458D02*
D03*
Y5922D02*
D03*
X15549Y8260D02*
D03*
Y8795D02*
D03*
X14919Y8260D02*
D03*
Y8795D02*
D03*
X14289Y8260D02*
D03*
Y8795D02*
D03*
X16811Y8262D02*
D03*
Y8798D02*
D03*
X13191Y24722D02*
D03*
Y25258D02*
D03*
X16836Y6304D02*
D03*
Y6839D02*
D03*
D140*
X13963Y7300D02*
D03*
X14340D02*
D03*
X12132Y26260D02*
D03*
X12511D02*
D03*
X12250Y27310D02*
D03*
X11871D02*
D03*
X11872Y26920D02*
D03*
X12251D02*
D03*
X16627Y14034D02*
D03*
X16249D02*
D03*
X17310Y13994D02*
D03*
X17689D02*
D03*
X7071Y25738D02*
D03*
X7450D02*
D03*
X7071Y26130D02*
D03*
X7450D02*
D03*
X10278Y21652D02*
D03*
X9901D02*
D03*
X9301Y23348D02*
D03*
X9680D02*
D03*
X5856Y4723D02*
D03*
X5479D02*
D03*
X6377Y10540D02*
D03*
X6754D02*
D03*
X6757Y11330D02*
D03*
X6380D02*
D03*
X4883Y17197D02*
D03*
X4504D02*
D03*
X4883Y16807D02*
D03*
X4504D02*
D03*
X6374Y10936D02*
D03*
X6753D02*
D03*
X4721Y24040D02*
D03*
X5098D02*
D03*
X1001Y24730D02*
D03*
X624D02*
D03*
X1001Y24340D02*
D03*
X624D02*
D03*
D141*
X18171Y28060D02*
D03*
X18791Y3370D02*
D03*
X710Y2880D02*
D03*
D142*
X8352Y26422D02*
D03*
Y26225D02*
D03*
Y26028D02*
D03*
Y25831D02*
D03*
Y25634D02*
D03*
Y25438D02*
D03*
Y25241D02*
D03*
Y25044D02*
D03*
Y24847D02*
D03*
Y24650D02*
D03*
Y24453D02*
D03*
X11010D02*
D03*
Y24650D02*
D03*
Y24847D02*
D03*
Y25044D02*
D03*
Y25241D02*
D03*
Y25438D02*
D03*
Y25634D02*
D03*
Y25831D02*
D03*
Y26028D02*
D03*
Y26225D02*
D03*
Y26422D02*
D03*
D143*
X8697Y24109D02*
D03*
X8894D02*
D03*
X9091D02*
D03*
X9287D02*
D03*
X9484D02*
D03*
X9681D02*
D03*
X9878D02*
D03*
X10075D02*
D03*
X10272D02*
D03*
X10468D02*
D03*
X10665D02*
D03*
Y26766D02*
D03*
X10468D02*
D03*
X10272D02*
D03*
X10075D02*
D03*
X9878D02*
D03*
X9681D02*
D03*
X9484D02*
D03*
X9287D02*
D03*
X9091D02*
D03*
X8894D02*
D03*
X8697D02*
D03*
D144*
X9681Y25438D02*
D03*
D145*
X16792Y4983D02*
D03*
Y5357D02*
D03*
Y5731D02*
D03*
X15748D02*
D03*
Y4983D02*
D03*
D146*
X17058Y12538D02*
D03*
Y12734D02*
D03*
Y12931D02*
D03*
Y13128D02*
D03*
Y13325D02*
D03*
X15345Y12538D02*
D03*
Y12734D02*
D03*
Y12931D02*
D03*
Y13128D02*
D03*
Y13325D02*
D03*
X15322Y10260D02*
D03*
Y10063D02*
D03*
Y9866D02*
D03*
Y9669D02*
D03*
Y9472D02*
D03*
X17035Y10260D02*
D03*
Y10063D02*
D03*
Y9866D02*
D03*
Y9669D02*
D03*
Y9472D02*
D03*
D147*
X15847Y3821D02*
D03*
X16693D02*
D03*
D148*
X3343Y5724D02*
D03*
Y5330D02*
D03*
Y5527D02*
D03*
Y5920D02*
D03*
Y6117D02*
D03*
Y6314D02*
D03*
Y6511D02*
D03*
Y6708D02*
D03*
Y6905D02*
D03*
Y7102D02*
D03*
Y7298D02*
D03*
Y7495D02*
D03*
Y7692D02*
D03*
Y7889D02*
D03*
Y8086D02*
D03*
Y8283D02*
D03*
Y8480D02*
D03*
Y8676D02*
D03*
Y8873D02*
D03*
D149*
X17871Y10043D02*
D03*
Y10797D02*
D03*
X14806Y4788D02*
D03*
Y5542D02*
D03*
X13856Y9453D02*
D03*
Y10207D02*
D03*
X17930Y4506D02*
D03*
Y5260D02*
D03*
X3921Y24760D02*
D03*
Y24006D02*
D03*
D150*
X17372Y3821D02*
D03*
X17924D02*
D03*
D151*
X1928Y14724D02*
D03*
X1247Y11654D02*
D03*
Y14724D02*
D03*
X1928Y11654D02*
D03*
D152*
X1948Y14449D02*
D03*
Y14291D02*
D03*
Y14134D02*
D03*
Y13976D02*
D03*
Y13819D02*
D03*
Y13661D02*
D03*
Y13504D02*
D03*
Y13346D02*
D03*
Y13189D02*
D03*
Y13032D02*
D03*
Y12874D02*
D03*
Y12717D02*
D03*
Y12559D02*
D03*
Y12402D02*
D03*
Y12244D02*
D03*
Y12087D02*
D03*
Y11929D02*
D03*
X1227D02*
D03*
Y14449D02*
D03*
Y14291D02*
D03*
Y14134D02*
D03*
Y13976D02*
D03*
Y13819D02*
D03*
Y13661D02*
D03*
Y13504D02*
D03*
Y13346D02*
D03*
Y13189D02*
D03*
Y13032D02*
D03*
Y12874D02*
D03*
Y12717D02*
D03*
Y12559D02*
D03*
Y12402D02*
D03*
Y12244D02*
D03*
Y12087D02*
D03*
D153*
X12912Y17030D02*
D03*
Y16530D02*
D03*
Y16030D02*
D03*
Y15530D02*
D03*
X15137Y17030D02*
D03*
Y16530D02*
D03*
Y16030D02*
D03*
Y15530D02*
D03*
D154*
X14025Y16280D02*
D03*
D155*
X6105Y13366D02*
D03*
X6361D02*
D03*
X6873D02*
D03*
X7129D02*
D03*
X7385D02*
D03*
X7641D02*
D03*
X8152D02*
D03*
X8408D02*
D03*
X6361Y13110D02*
D03*
X8152D02*
D03*
X8408D02*
D03*
X6361Y12854D02*
D03*
X6617D02*
D03*
X6873D02*
D03*
X7129D02*
D03*
X7385D02*
D03*
X7641D02*
D03*
X7896D02*
D03*
X8152D02*
D03*
X8408D02*
D03*
X6105Y12598D02*
D03*
X6361D02*
D03*
X6617D02*
D03*
X6873D02*
D03*
X7129D02*
D03*
X7385D02*
D03*
X7641D02*
D03*
X7896D02*
D03*
X8152D02*
D03*
X8408D02*
D03*
Y13622D02*
D03*
X8152D02*
D03*
X7641D02*
D03*
X7385D02*
D03*
X7129D02*
D03*
X6873D02*
D03*
X8408Y13878D02*
D03*
X8152D02*
D03*
X7641D02*
D03*
X7385D02*
D03*
X7129D02*
D03*
X6873D02*
D03*
X6105D02*
D03*
X8408Y14134D02*
D03*
X8152D02*
D03*
X7641D02*
D03*
X7385D02*
D03*
X7129D02*
D03*
X6873D02*
D03*
X6361D02*
D03*
X6105D02*
D03*
X8408Y14390D02*
D03*
X8152D02*
D03*
X6361D02*
D03*
X6105D02*
D03*
X8408Y14646D02*
D03*
X8152D02*
D03*
X7896D02*
D03*
X7641D02*
D03*
X7385D02*
D03*
X7129D02*
D03*
X6873D02*
D03*
X6617D02*
D03*
X6361D02*
D03*
X6105D02*
D03*
X8408Y14902D02*
D03*
X8152D02*
D03*
X7896D02*
D03*
X7641D02*
D03*
X7385D02*
D03*
X7129D02*
D03*
X6873D02*
D03*
X6617D02*
D03*
X6361D02*
D03*
X6105D02*
D03*
Y12854D02*
D03*
Y13110D02*
D03*
X6361Y13622D02*
D03*
X6105D02*
D03*
X6361Y13878D02*
D03*
D156*
X4215Y22675D02*
D03*
Y22360D02*
D03*
X3545Y22675D02*
D03*
Y22360D02*
D03*
D157*
X2637Y22714D02*
D03*
X2903D02*
D03*
X2637Y22518D02*
D03*
Y22321D02*
D03*
X2903Y22518D02*
D03*
Y22321D02*
D03*
D158*
X10301Y22122D02*
D03*
X9389D02*
D03*
Y22856D02*
D03*
X10301D02*
D03*
D159*
X1673Y21866D02*
D03*
Y22122D02*
D03*
Y22378D02*
D03*
Y22633D02*
D03*
Y22889D02*
D03*
D160*
X610Y22771D02*
D03*
Y21984D02*
D03*
D161*
X3031Y20610D02*
D03*
X3281Y23430D02*
D03*
X8051Y2420D02*
D03*
X13451Y8240D02*
D03*
X14823Y14034D02*
D03*
X6251Y27670D02*
D03*
X5121Y23470D02*
D03*
X17910Y7120D02*
D03*
X15910Y22030D02*
D03*
X16410Y24770D02*
D03*
X7630Y3770D02*
D03*
X10161Y19510D02*
D03*
X10181Y18500D02*
D03*
X6091Y21080D02*
D03*
X13790Y5650D02*
D03*
X15310Y24760D02*
D03*
X14160D02*
D03*
X790Y18470D02*
D03*
X16101Y23140D02*
D03*
D162*
X6350Y6410D02*
D03*
D163*
X7039Y5475D02*
D03*
X6842D02*
D03*
X6645D02*
D03*
X6448D02*
D03*
X6252D02*
D03*
X6055D02*
D03*
X5858D02*
D03*
X5661D02*
D03*
Y7345D02*
D03*
X5858D02*
D03*
X6055D02*
D03*
X6252D02*
D03*
X6448D02*
D03*
X6645D02*
D03*
X6842D02*
D03*
X7039D02*
D03*
D164*
X5415Y5721D02*
D03*
Y5918D02*
D03*
Y6115D02*
D03*
Y6312D02*
D03*
Y6508D02*
D03*
Y6705D02*
D03*
Y6902D02*
D03*
Y7099D02*
D03*
X7285D02*
D03*
Y6902D02*
D03*
Y6705D02*
D03*
Y6508D02*
D03*
Y6312D02*
D03*
Y6115D02*
D03*
Y5918D02*
D03*
Y5721D02*
D03*
D165*
X3816Y18157D02*
D03*
Y17157D02*
D03*
X2950D02*
D03*
Y18157D02*
D03*
D166*
X13102Y23640D02*
D03*
X14700D02*
D03*
X13102Y23140D02*
D03*
X14700D02*
D03*
X13102Y22640D02*
D03*
X14700D02*
D03*
X13102Y22140D02*
D03*
X14700D02*
D03*
X13102Y21640D02*
D03*
X14700D02*
D03*
X8529Y17844D02*
D03*
X6931D02*
D03*
X8529Y18344D02*
D03*
X6931D02*
D03*
X8529Y18844D02*
D03*
X6931D02*
D03*
X8529Y19344D02*
D03*
X6931D02*
D03*
X8529Y19844D02*
D03*
X6931D02*
D03*
X10990Y1420D02*
D03*
X9392D02*
D03*
X10990Y1920D02*
D03*
X9392D02*
D03*
X10990Y2420D02*
D03*
X9392D02*
D03*
X10990Y2920D02*
D03*
X9392D02*
D03*
X10990Y3420D02*
D03*
X9392D02*
D03*
D167*
X2528Y21390D02*
D03*
X2174D02*
D03*
D168*
X12920Y3740D02*
D03*
D169*
X13926Y2490D02*
D03*
X14633Y3197D02*
D03*
Y1783D02*
D03*
D170*
X15340Y2490D02*
D03*
D171*
X2949Y10054D02*
D03*
Y4346D02*
D03*
X1000Y10291D02*
D03*
Y4109D02*
D03*
D172*
X1673Y21393D02*
D03*
Y23362D02*
D03*
D173*
X610Y23756D02*
D03*
Y21000D02*
D03*
D174*
X12521Y18440D02*
D03*
Y19440D02*
D03*
X13521Y18440D02*
D03*
Y19440D02*
D03*
X14521Y18440D02*
D03*
Y19440D02*
D03*
D175*
X13521Y264D02*
D03*
Y973D02*
D03*
X7061Y983D02*
D03*
Y274D02*
D03*
M02*
