G04 Layer_Color=32896*
%FSLAX24Y24*%
%MOIN*%
G70*
G01*
G75*
%ADD45C,0.0080*%
%ADD48C,0.0100*%
%ADD50C,0.0060*%
%ADD55C,0.0070*%
%ADD100C,0.0098*%
%ADD103C,0.0039*%
%ADD104C,0.0079*%
D45*
X12832Y1189D02*
X14210D01*
X12832Y47D02*
Y1189D01*
Y47D02*
X13186D01*
Y-209D02*
Y47D01*
Y-209D02*
X13856D01*
Y47D01*
X14210D01*
Y1189D01*
X13186Y47D02*
X13856D01*
X6726Y57D02*
X7396D01*
X7750D02*
Y1199D01*
X7396Y57D02*
X7750D01*
X7396Y-199D02*
Y57D01*
X6726Y-199D02*
X7396D01*
X6726D02*
Y57D01*
X6372D02*
X6726D01*
X6372D02*
Y1199D01*
X7750D01*
X10921Y27570D02*
X19611D01*
X10921Y20910D02*
Y27570D01*
Y20910D02*
X19611D01*
D48*
X12856Y27465D02*
G03*
X12856Y27465I-57J0D01*
G01*
X13172Y24768D02*
Y27878D01*
X14275D01*
Y28193D01*
X14826D01*
Y24453D02*
Y28193D01*
X14275Y24453D02*
X14826D01*
X14275Y24453D02*
Y24768D01*
X13172D02*
X14275D01*
D50*
X12340Y19900D02*
X12660D01*
Y20060D01*
X12607Y20113D01*
X12500D01*
X12447Y20060D01*
Y19900D01*
Y20007D02*
X12340Y20113D01*
X12607Y20433D02*
X12660Y20380D01*
Y20273D01*
X12607Y20220D01*
X12553D01*
X12500Y20273D01*
Y20380D01*
X12447Y20433D01*
X12393D01*
X12340Y20380D01*
Y20273D01*
X12393Y20220D01*
X12660Y20540D02*
Y20753D01*
Y20646D01*
X12340D01*
D55*
X10387Y1773D02*
X10440Y1720D01*
Y1613D01*
X10387Y1560D01*
X10173D01*
X10120Y1613D01*
Y1720D01*
X10173Y1773D01*
X10120Y1880D02*
Y1987D01*
Y1933D01*
X10440D01*
X10387Y1880D01*
X10440Y2146D02*
Y2360D01*
X10387D01*
X10173Y2146D01*
X10120D01*
X16227Y4367D02*
X16280Y4420D01*
X16387D01*
X16440Y4367D01*
Y4153D01*
X16387Y4100D01*
X16280D01*
X16227Y4153D01*
X16120Y4100D02*
X16013D01*
X16067D01*
Y4420D01*
X16120Y4367D01*
X15854D02*
X15800Y4420D01*
X15694D01*
X15640Y4367D01*
Y4313D01*
X15694Y4260D01*
X15747D01*
X15694D01*
X15640Y4207D01*
Y4153D01*
X15694Y4100D01*
X15800D01*
X15854Y4153D01*
X9657Y11223D02*
X9710Y11170D01*
Y11063D01*
X9657Y11010D01*
X9443D01*
X9390Y11063D01*
Y11170D01*
X9443Y11223D01*
Y11330D02*
X9390Y11383D01*
Y11490D01*
X9443Y11543D01*
X9657D01*
X9710Y11490D01*
Y11383D01*
X9657Y11330D01*
X9603D01*
X9550Y11383D01*
Y11543D01*
X9710Y11863D02*
Y11650D01*
X9550D01*
X9603Y11756D01*
Y11810D01*
X9550Y11863D01*
X9443D01*
X9390Y11810D01*
Y11703D01*
X9443Y11650D01*
X14490Y24250D02*
X14277Y23930D01*
Y24250D02*
X14490Y23930D01*
X14170D02*
X14063D01*
X14117D01*
Y24250D01*
X14170Y24197D01*
X2067Y3540D02*
X2280D01*
Y3380D01*
X2173D01*
X2280D01*
Y3220D01*
X1960Y3540D02*
X1853D01*
X1907D01*
Y3220D01*
X1960D01*
X1853D01*
X1694Y3540D02*
Y3220D01*
X1534D01*
X1480Y3273D01*
Y3487D01*
X1534Y3540D01*
X1694D01*
X1160D02*
X1267Y3487D01*
X1374Y3380D01*
Y3273D01*
X1320Y3220D01*
X1214D01*
X1160Y3273D01*
Y3327D01*
X1214Y3380D01*
X1374D01*
X18007Y3760D02*
X18220D01*
Y3600D01*
X18113D01*
X18220D01*
Y3440D01*
X17900Y3760D02*
X17793D01*
X17847D01*
Y3440D01*
X17900D01*
X17793D01*
X17634Y3760D02*
Y3440D01*
X17474D01*
X17420Y3493D01*
Y3707D01*
X17474Y3760D01*
X17634D01*
X17100D02*
X17314D01*
Y3600D01*
X17207Y3653D01*
X17154D01*
X17100Y3600D01*
Y3493D01*
X17154Y3440D01*
X17260D01*
X17314Y3493D01*
X17387Y28220D02*
X17600D01*
Y28060D01*
X17493D01*
X17600D01*
Y27900D01*
X17280Y28220D02*
X17173D01*
X17227D01*
Y27900D01*
X17280D01*
X17173D01*
X17014Y28220D02*
Y27900D01*
X16854D01*
X16800Y27953D01*
Y28167D01*
X16854Y28220D01*
X17014D01*
X16534Y27900D02*
Y28220D01*
X16694Y28060D01*
X16480D01*
X7947Y8207D02*
X8000Y8260D01*
X8107D01*
X8160Y8207D01*
Y7993D01*
X8107Y7940D01*
X8000D01*
X7947Y7993D01*
X7627Y8260D02*
X7733Y8207D01*
X7840Y8100D01*
Y7993D01*
X7787Y7940D01*
X7680D01*
X7627Y7993D01*
Y8047D01*
X7680Y8100D01*
X7840D01*
X7307Y8260D02*
X7414Y8207D01*
X7520Y8100D01*
Y7993D01*
X7467Y7940D01*
X7360D01*
X7307Y7993D01*
Y8047D01*
X7360Y8100D01*
X7520D01*
X1717Y7527D02*
X2036D01*
Y7687D01*
X1983Y7740D01*
X1877D01*
X1823Y7687D01*
Y7527D01*
Y7634D02*
X1717Y7740D01*
Y7847D02*
Y7954D01*
Y7900D01*
X2036D01*
X1983Y7847D01*
X1717Y8114D02*
Y8220D01*
Y8167D01*
X2036D01*
X1983Y8114D01*
X1210Y7530D02*
X1530D01*
Y7690D01*
X1477Y7743D01*
X1370D01*
X1317Y7690D01*
Y7530D01*
Y7637D02*
X1210Y7743D01*
Y7850D02*
Y7957D01*
Y7903D01*
X1530D01*
X1477Y7850D01*
X1210Y8330D02*
Y8116D01*
X1423Y8330D01*
X1477D01*
X1530Y8276D01*
Y8170D01*
X1477Y8116D01*
X3600Y24090D02*
X3920D01*
Y24250D01*
X3867Y24303D01*
X3760D01*
X3707Y24250D01*
Y24090D01*
Y24197D02*
X3600Y24303D01*
X3920Y24623D02*
X3867Y24517D01*
X3760Y24410D01*
X3653D01*
X3600Y24463D01*
Y24570D01*
X3653Y24623D01*
X3707D01*
X3760Y24570D01*
Y24410D01*
X4340Y27300D02*
Y27033D01*
X4287Y26980D01*
X4180D01*
X4127Y27033D01*
Y27300D01*
X4020D02*
X3807D01*
Y27247D01*
X4020Y27033D01*
Y26980D01*
X11720Y6200D02*
Y5933D01*
X11667Y5880D01*
X11560D01*
X11507Y5933D01*
Y6200D01*
X11400Y6147D02*
X11347Y6200D01*
X11240D01*
X11187Y6147D01*
Y6093D01*
X11240Y6040D01*
X11187Y5987D01*
Y5933D01*
X11240Y5880D01*
X11347D01*
X11400Y5933D01*
Y5987D01*
X11347Y6040D01*
X11400Y6093D01*
Y6147D01*
X11347Y6040D02*
X11240D01*
X4927Y25347D02*
X4980Y25400D01*
X5087D01*
X5140Y25347D01*
Y25133D01*
X5087Y25080D01*
X4980D01*
X4927Y25133D01*
X4820Y25080D02*
X4713D01*
X4767D01*
Y25400D01*
X4820Y25347D01*
X4554D02*
X4500Y25400D01*
X4394D01*
X4340Y25347D01*
Y25293D01*
X4394Y25240D01*
X4340Y25187D01*
Y25133D01*
X4394Y25080D01*
X4500D01*
X4554Y25133D01*
Y25187D01*
X4500Y25240D01*
X4554Y25293D01*
Y25347D01*
X4500Y25240D02*
X4394D01*
X5357Y28327D02*
X5410Y28380D01*
X5517D01*
X5570Y28327D01*
Y28113D01*
X5517Y28060D01*
X5410D01*
X5357Y28113D01*
X5250Y28060D02*
X5143D01*
X5197D01*
Y28380D01*
X5250Y28327D01*
X4984Y28113D02*
X4930Y28060D01*
X4824D01*
X4770Y28113D01*
Y28327D01*
X4824Y28380D01*
X4930D01*
X4984Y28327D01*
Y28273D01*
X4930Y28220D01*
X4770D01*
X10607Y5693D02*
X10660Y5640D01*
Y5533D01*
X10607Y5480D01*
X10393D01*
X10340Y5533D01*
Y5640D01*
X10393Y5693D01*
X10340Y6013D02*
Y5800D01*
X10553Y6013D01*
X10607D01*
X10660Y5960D01*
Y5853D01*
X10607Y5800D01*
Y6120D02*
X10660Y6173D01*
Y6280D01*
X10607Y6333D01*
X10393D01*
X10340Y6280D01*
Y6173D01*
X10393Y6120D01*
X10607D01*
X12627Y3813D02*
X12680Y3760D01*
Y3653D01*
X12627Y3600D01*
X12413D01*
X12360Y3653D01*
Y3760D01*
X12413Y3813D01*
X12360Y4133D02*
Y3920D01*
X12573Y4133D01*
X12627D01*
X12680Y4080D01*
Y3973D01*
X12627Y3920D01*
X12360Y4240D02*
Y4346D01*
Y4293D01*
X12680D01*
X12627Y4240D01*
X10040Y13040D02*
X10360D01*
Y13200D01*
X10307Y13253D01*
X10200D01*
X10147Y13200D01*
Y13040D01*
Y13147D02*
X10040Y13253D01*
X10360Y13573D02*
Y13360D01*
X10200D01*
X10253Y13467D01*
Y13520D01*
X10200Y13573D01*
X10093D01*
X10040Y13520D01*
Y13413D01*
X10093Y13360D01*
X5487Y8437D02*
X5540Y8490D01*
X5647D01*
X5700Y8437D01*
Y8223D01*
X5647Y8170D01*
X5540D01*
X5487Y8223D01*
X5167Y8170D02*
X5380D01*
X5167Y8383D01*
Y8437D01*
X5220Y8490D01*
X5327D01*
X5380Y8437D01*
X5060D02*
X5007Y8490D01*
X4900D01*
X4847Y8437D01*
Y8383D01*
X4900Y8330D01*
X4954D01*
X4900D01*
X4847Y8277D01*
Y8223D01*
X4900Y8170D01*
X5007D01*
X5060Y8223D01*
X9207Y15103D02*
X9260Y15050D01*
Y14943D01*
X9207Y14890D01*
X8993D01*
X8940Y14943D01*
Y15050D01*
X8993Y15103D01*
X8940Y15210D02*
Y15317D01*
Y15263D01*
X9260D01*
X9207Y15210D01*
X9260Y15690D02*
Y15476D01*
X9100D01*
X9153Y15583D01*
Y15636D01*
X9100Y15690D01*
X8993D01*
X8940Y15636D01*
Y15530D01*
X8993Y15476D01*
X8327Y16313D02*
X8380Y16260D01*
Y16153D01*
X8327Y16100D01*
X8113D01*
X8060Y16153D01*
Y16260D01*
X8113Y16313D01*
X8060Y16420D02*
Y16527D01*
Y16473D01*
X8380D01*
X8327Y16420D01*
X8380Y16900D02*
X8327Y16793D01*
X8220Y16686D01*
X8113D01*
X8060Y16740D01*
Y16846D01*
X8113Y16900D01*
X8167D01*
X8220Y16846D01*
Y16686D01*
X6677Y15313D02*
X6730Y15260D01*
Y15153D01*
X6677Y15100D01*
X6463D01*
X6410Y15153D01*
Y15260D01*
X6463Y15313D01*
X6410Y15633D02*
Y15420D01*
X6623Y15633D01*
X6677D01*
X6730Y15580D01*
Y15473D01*
X6677Y15420D01*
X6730Y15953D02*
Y15740D01*
X6570D01*
X6623Y15846D01*
Y15900D01*
X6570Y15953D01*
X6463D01*
X6410Y15900D01*
Y15793D01*
X6463Y15740D01*
X7467Y12703D02*
X7520Y12650D01*
Y12543D01*
X7467Y12490D01*
X7253D01*
X7200Y12543D01*
Y12650D01*
X7253Y12703D01*
X7200Y13023D02*
Y12810D01*
X7413Y13023D01*
X7467D01*
X7520Y12970D01*
Y12863D01*
X7467Y12810D01*
X7520Y13343D02*
X7467Y13236D01*
X7360Y13130D01*
X7253D01*
X7200Y13183D01*
Y13290D01*
X7253Y13343D01*
X7307D01*
X7360Y13290D01*
Y13130D01*
X6227Y15313D02*
X6280Y15260D01*
Y15153D01*
X6227Y15100D01*
X6013D01*
X5960Y15153D01*
Y15260D01*
X6013Y15313D01*
X5960Y15633D02*
Y15420D01*
X6173Y15633D01*
X6227D01*
X6280Y15580D01*
Y15473D01*
X6227Y15420D01*
X6280Y15740D02*
Y15953D01*
X6227D01*
X6013Y15740D01*
X5960D01*
X5427Y14037D02*
X5480Y14090D01*
X5587D01*
X5640Y14037D01*
Y13823D01*
X5587Y13770D01*
X5480D01*
X5427Y13823D01*
X5107Y13770D02*
X5320D01*
X5107Y13983D01*
Y14037D01*
X5160Y14090D01*
X5267D01*
X5320Y14037D01*
X5000D02*
X4947Y14090D01*
X4840D01*
X4787Y14037D01*
Y13983D01*
X4840Y13930D01*
X4787Y13877D01*
Y13823D01*
X4840Y13770D01*
X4947D01*
X5000Y13823D01*
Y13877D01*
X4947Y13930D01*
X5000Y13983D01*
Y14037D01*
X4947Y13930D02*
X4840D01*
X5427Y13537D02*
X5480Y13590D01*
X5587D01*
X5640Y13537D01*
Y13323D01*
X5587Y13270D01*
X5480D01*
X5427Y13323D01*
X5107Y13270D02*
X5320D01*
X5107Y13483D01*
Y13537D01*
X5160Y13590D01*
X5267D01*
X5320Y13537D01*
X5000Y13323D02*
X4947Y13270D01*
X4840D01*
X4787Y13323D01*
Y13537D01*
X4840Y13590D01*
X4947D01*
X5000Y13537D01*
Y13483D01*
X4947Y13430D01*
X4787D01*
X10947Y14677D02*
X11000Y14730D01*
X11107D01*
X11160Y14677D01*
Y14463D01*
X11107Y14410D01*
X11000D01*
X10947Y14463D01*
X10840Y14677D02*
X10787Y14730D01*
X10680D01*
X10627Y14677D01*
Y14623D01*
X10680Y14570D01*
X10733D01*
X10680D01*
X10627Y14517D01*
Y14463D01*
X10680Y14410D01*
X10787D01*
X10840Y14463D01*
X10520Y14677D02*
X10467Y14730D01*
X10360D01*
X10307Y14677D01*
Y14463D01*
X10360Y14410D01*
X10467D01*
X10520Y14463D01*
Y14677D01*
X10927Y14227D02*
X10980Y14280D01*
X11087D01*
X11140Y14227D01*
Y14013D01*
X11087Y13960D01*
X10980D01*
X10927Y14013D01*
X10820Y14227D02*
X10767Y14280D01*
X10660D01*
X10607Y14227D01*
Y14173D01*
X10660Y14120D01*
X10713D01*
X10660D01*
X10607Y14067D01*
Y14013D01*
X10660Y13960D01*
X10767D01*
X10820Y14013D01*
X10500Y13960D02*
X10394D01*
X10447D01*
Y14280D01*
X10500Y14227D01*
X9187Y11213D02*
X9240Y11160D01*
Y11053D01*
X9187Y11000D01*
X8973D01*
X8920Y11053D01*
Y11160D01*
X8973Y11213D01*
X9187Y11320D02*
X9240Y11373D01*
Y11480D01*
X9187Y11533D01*
X9133D01*
X9080Y11480D01*
Y11427D01*
Y11480D01*
X9027Y11533D01*
X8973D01*
X8920Y11480D01*
Y11373D01*
X8973Y11320D01*
X9187Y11640D02*
X9240Y11693D01*
Y11800D01*
X9187Y11853D01*
X9133D01*
X9080Y11800D01*
Y11746D01*
Y11800D01*
X9027Y11853D01*
X8973D01*
X8920Y11800D01*
Y11693D01*
X8973Y11640D01*
X9657Y13507D02*
X9710Y13560D01*
X9817D01*
X9870Y13507D01*
Y13293D01*
X9817Y13240D01*
X9710D01*
X9657Y13293D01*
X9550Y13507D02*
X9497Y13560D01*
X9390D01*
X9337Y13507D01*
Y13453D01*
X9390Y13400D01*
X9443D01*
X9390D01*
X9337Y13347D01*
Y13293D01*
X9390Y13240D01*
X9497D01*
X9550Y13293D01*
X9070Y13240D02*
Y13560D01*
X9230Y13400D01*
X9017D01*
X8367Y11183D02*
X8420Y11130D01*
Y11023D01*
X8367Y10970D01*
X8153D01*
X8100Y11023D01*
Y11130D01*
X8153Y11183D01*
X8367Y11290D02*
X8420Y11343D01*
Y11450D01*
X8367Y11503D01*
X8313D01*
X8260Y11450D01*
Y11397D01*
Y11450D01*
X8207Y11503D01*
X8153D01*
X8100Y11450D01*
Y11343D01*
X8153Y11290D01*
X8420Y11823D02*
Y11610D01*
X8260D01*
X8313Y11716D01*
Y11770D01*
X8260Y11823D01*
X8153D01*
X8100Y11770D01*
Y11663D01*
X8153Y11610D01*
X9277Y13987D02*
X9330Y14040D01*
X9437D01*
X9490Y13987D01*
Y13773D01*
X9437Y13720D01*
X9330D01*
X9277Y13773D01*
X9170Y13987D02*
X9117Y14040D01*
X9010D01*
X8957Y13987D01*
Y13933D01*
X9010Y13880D01*
X9063D01*
X9010D01*
X8957Y13827D01*
Y13773D01*
X9010Y13720D01*
X9117D01*
X9170Y13773D01*
X8637Y14040D02*
X8744Y13987D01*
X8850Y13880D01*
Y13773D01*
X8797Y13720D01*
X8690D01*
X8637Y13773D01*
Y13827D01*
X8690Y13880D01*
X8850D01*
X5957Y12337D02*
X6010Y12390D01*
X6117D01*
X6170Y12337D01*
Y12123D01*
X6117Y12070D01*
X6010D01*
X5957Y12123D01*
X5850Y12337D02*
X5797Y12390D01*
X5690D01*
X5637Y12337D01*
Y12283D01*
X5690Y12230D01*
X5743D01*
X5690D01*
X5637Y12177D01*
Y12123D01*
X5690Y12070D01*
X5797D01*
X5850Y12123D01*
X5530Y12390D02*
X5317D01*
Y12337D01*
X5530Y12123D01*
Y12070D01*
X6057Y13057D02*
X6110Y13110D01*
X6217D01*
X6270Y13057D01*
Y12843D01*
X6217Y12790D01*
X6110D01*
X6057Y12843D01*
X5950Y13057D02*
X5897Y13110D01*
X5790D01*
X5737Y13057D01*
Y13003D01*
X5790Y12950D01*
X5843D01*
X5790D01*
X5737Y12897D01*
Y12843D01*
X5790Y12790D01*
X5897D01*
X5950Y12843D01*
X5630Y13057D02*
X5577Y13110D01*
X5470D01*
X5417Y13057D01*
Y13003D01*
X5470Y12950D01*
X5417Y12897D01*
Y12843D01*
X5470Y12790D01*
X5577D01*
X5630Y12843D01*
Y12897D01*
X5577Y12950D01*
X5630Y13003D01*
Y13057D01*
X5577Y12950D02*
X5470D01*
X7437Y16313D02*
X7490Y16260D01*
Y16153D01*
X7437Y16100D01*
X7223D01*
X7170Y16153D01*
Y16260D01*
X7223Y16313D01*
X7437Y16420D02*
X7490Y16473D01*
Y16580D01*
X7437Y16633D01*
X7383D01*
X7330Y16580D01*
Y16527D01*
Y16580D01*
X7277Y16633D01*
X7223D01*
X7170Y16580D01*
Y16473D01*
X7223Y16420D01*
Y16740D02*
X7170Y16793D01*
Y16900D01*
X7223Y16953D01*
X7437D01*
X7490Y16900D01*
Y16793D01*
X7437Y16740D01*
X7383D01*
X7330Y16793D01*
Y16953D01*
X7867Y16313D02*
X7920Y16260D01*
Y16153D01*
X7867Y16100D01*
X7653D01*
X7600Y16153D01*
Y16260D01*
X7653Y16313D01*
X7600Y16580D02*
X7920D01*
X7760Y16420D01*
Y16633D01*
X7867Y16740D02*
X7920Y16793D01*
Y16900D01*
X7867Y16953D01*
X7653D01*
X7600Y16900D01*
Y16793D01*
X7653Y16740D01*
X7867D01*
X6987Y16313D02*
X7040Y16260D01*
Y16153D01*
X6987Y16100D01*
X6773D01*
X6720Y16153D01*
Y16260D01*
X6773Y16313D01*
X6720Y16580D02*
X7040D01*
X6880Y16420D01*
Y16633D01*
X6720Y16740D02*
Y16846D01*
Y16793D01*
X7040D01*
X6987Y16740D01*
X7477Y14457D02*
X7530Y14510D01*
X7637D01*
X7690Y14457D01*
Y14243D01*
X7637Y14190D01*
X7530D01*
X7477Y14243D01*
X7210Y14190D02*
Y14510D01*
X7370Y14350D01*
X7157D01*
X6837Y14190D02*
X7050D01*
X6837Y14403D01*
Y14457D01*
X6890Y14510D01*
X6997D01*
X7050Y14457D01*
X7177Y13897D02*
X7230Y13950D01*
X7337D01*
X7390Y13897D01*
Y13683D01*
X7337Y13630D01*
X7230D01*
X7177Y13683D01*
X6857Y13950D02*
X7070D01*
Y13790D01*
X6963Y13843D01*
X6910D01*
X6857Y13790D01*
Y13683D01*
X6910Y13630D01*
X7017D01*
X7070Y13683D01*
X6537Y13630D02*
X6750D01*
X6537Y13843D01*
Y13897D01*
X6590Y13950D01*
X6697D01*
X6750Y13897D01*
X8437Y25167D02*
X8490Y25220D01*
X8597D01*
X8650Y25167D01*
Y24953D01*
X8597Y24900D01*
X8490D01*
X8437Y24953D01*
X8330Y25167D02*
X8277Y25220D01*
X8170D01*
X8117Y25167D01*
Y25113D01*
X8170Y25060D01*
X8223D01*
X8170D01*
X8117Y25007D01*
Y24953D01*
X8170Y24900D01*
X8277D01*
X8330Y24953D01*
X7797Y24900D02*
X8010D01*
X7797Y25113D01*
Y25167D01*
X7850Y25220D01*
X7957D01*
X8010Y25167D01*
X6457Y27623D02*
X6510Y27570D01*
Y27463D01*
X6457Y27410D01*
X6243D01*
X6190Y27463D01*
Y27570D01*
X6243Y27623D01*
X6190Y27890D02*
X6510D01*
X6350Y27730D01*
Y27943D01*
X6457Y28050D02*
X6510Y28103D01*
Y28210D01*
X6457Y28263D01*
X6403D01*
X6350Y28210D01*
Y28156D01*
Y28210D01*
X6297Y28263D01*
X6243D01*
X6190Y28210D01*
Y28103D01*
X6243Y28050D01*
X11337Y26713D02*
X11390Y26660D01*
Y26553D01*
X11337Y26500D01*
X11123D01*
X11070Y26553D01*
Y26660D01*
X11123Y26713D01*
X11390Y27033D02*
Y26820D01*
X11230D01*
X11283Y26927D01*
Y26980D01*
X11230Y27033D01*
X11123D01*
X11070Y26980D01*
Y26873D01*
X11123Y26820D01*
X11337Y27140D02*
X11390Y27193D01*
Y27300D01*
X11337Y27353D01*
X11283D01*
X11230Y27300D01*
Y27246D01*
Y27300D01*
X11177Y27353D01*
X11123D01*
X11070Y27300D01*
Y27193D01*
X11123Y27140D01*
X8537Y24277D02*
X8590Y24330D01*
X8697D01*
X8750Y24277D01*
Y24063D01*
X8697Y24010D01*
X8590D01*
X8537Y24063D01*
X8217Y24330D02*
X8430D01*
Y24170D01*
X8323Y24223D01*
X8270D01*
X8217Y24170D01*
Y24063D01*
X8270Y24010D01*
X8377D01*
X8430Y24063D01*
X7950Y24010D02*
Y24330D01*
X8110Y24170D01*
X7897D01*
X10127Y26653D02*
X10180Y26600D01*
Y26493D01*
X10127Y26440D01*
X9913D01*
X9860Y26493D01*
Y26600D01*
X9913Y26653D01*
X10180Y26973D02*
Y26760D01*
X10020D01*
X10073Y26867D01*
Y26920D01*
X10020Y26973D01*
X9913D01*
X9860Y26920D01*
Y26813D01*
X9913Y26760D01*
X10180Y27293D02*
Y27080D01*
X10020D01*
X10073Y27186D01*
Y27240D01*
X10020Y27293D01*
X9913D01*
X9860Y27240D01*
Y27133D01*
X9913Y27080D01*
X11867Y25227D02*
X11920Y25280D01*
X12027D01*
X12080Y25227D01*
Y25013D01*
X12027Y24960D01*
X11920D01*
X11867Y25013D01*
X11547Y25280D02*
X11760D01*
Y25120D01*
X11653Y25173D01*
X11600D01*
X11547Y25120D01*
Y25013D01*
X11600Y24960D01*
X11707D01*
X11760Y25013D01*
X11227Y25280D02*
X11334Y25227D01*
X11440Y25120D01*
Y25013D01*
X11387Y24960D01*
X11280D01*
X11227Y25013D01*
Y25067D01*
X11280Y25120D01*
X11440D01*
X9647Y26653D02*
X9700Y26600D01*
Y26493D01*
X9647Y26440D01*
X9433D01*
X9380Y26493D01*
Y26600D01*
X9433Y26653D01*
X9700Y26973D02*
Y26760D01*
X9540D01*
X9593Y26867D01*
Y26920D01*
X9540Y26973D01*
X9433D01*
X9380Y26920D01*
Y26813D01*
X9433Y26760D01*
Y27080D02*
X9380Y27133D01*
Y27240D01*
X9433Y27293D01*
X9647D01*
X9700Y27240D01*
Y27133D01*
X9647Y27080D01*
X9593D01*
X9540Y27133D01*
Y27293D01*
X8415Y27783D02*
X8469Y27730D01*
Y27623D01*
X8415Y27570D01*
X8202D01*
X8149Y27623D01*
Y27730D01*
X8202Y27783D01*
X8469Y28103D02*
X8415Y27997D01*
X8309Y27890D01*
X8202D01*
X8149Y27943D01*
Y28050D01*
X8202Y28103D01*
X8256D01*
X8309Y28050D01*
Y27890D01*
X8415Y28210D02*
X8469Y28263D01*
Y28370D01*
X8415Y28423D01*
X8202D01*
X8149Y28370D01*
Y28263D01*
X8202Y28210D01*
X8415D01*
X9170Y1530D02*
X8850D01*
Y1690D01*
X8903Y1743D01*
X9117D01*
X9170Y1690D01*
Y1530D01*
X8850Y2063D02*
Y1850D01*
X9063Y2063D01*
X9117D01*
X9170Y2010D01*
Y1903D01*
X9117Y1850D01*
X7667Y26530D02*
X7880D01*
Y26370D01*
X7773D01*
X7880D01*
Y26210D01*
X7560Y26530D02*
Y26210D01*
X7347D01*
X7240D02*
X7134D01*
X7187D01*
Y26530D01*
X7240Y26477D01*
X6974Y26263D02*
X6920Y26210D01*
X6814D01*
X6760Y26263D01*
Y26477D01*
X6814Y26530D01*
X6920D01*
X6974Y26477D01*
Y26423D01*
X6920Y26370D01*
X6760D01*
X16130Y3100D02*
X16450D01*
Y3260D01*
X16397Y3313D01*
X16290D01*
X16237Y3260D01*
Y3100D01*
Y3207D02*
X16130Y3313D01*
Y3420D02*
Y3527D01*
Y3473D01*
X16450D01*
X16397Y3420D01*
X16183Y3686D02*
X16130Y3740D01*
Y3846D01*
X16183Y3900D01*
X16397D01*
X16450Y3846D01*
Y3740D01*
X16397Y3686D01*
X16343D01*
X16290Y3740D01*
Y3900D01*
X9370Y1530D02*
X9690D01*
Y1690D01*
X9637Y1743D01*
X9530D01*
X9477Y1690D01*
Y1530D01*
Y1637D02*
X9370Y1743D01*
Y2063D02*
Y1850D01*
X9583Y2063D01*
X9637D01*
X9690Y2010D01*
Y1903D01*
X9637Y1850D01*
Y2170D02*
X9690Y2223D01*
Y2330D01*
X9637Y2383D01*
X9423D01*
X9370Y2330D01*
Y2223D01*
X9423Y2170D01*
X9637D01*
X12547Y1726D02*
X12600Y1779D01*
X12707D01*
X12760Y1726D01*
Y1673D01*
X12707Y1619D01*
X12600D01*
X12547Y1566D01*
Y1513D01*
X12600Y1459D01*
X12707D01*
X12760Y1513D01*
X12440Y1459D02*
X12333D01*
X12387D01*
Y1779D01*
X12440Y1726D01*
X5867Y1606D02*
X5920Y1659D01*
X6027D01*
X6080Y1606D01*
Y1553D01*
X6027Y1499D01*
X5920D01*
X5867Y1446D01*
Y1393D01*
X5920Y1339D01*
X6027D01*
X6080Y1393D01*
X5547Y1339D02*
X5760D01*
X5547Y1553D01*
Y1606D01*
X5600Y1659D01*
X5707D01*
X5760Y1606D01*
X12470Y25920D02*
Y26240D01*
X12310D01*
X12257Y26187D01*
Y26080D01*
X12310Y26027D01*
X12470D01*
X12363D02*
X12257Y25920D01*
X11937D02*
X12150D01*
X11937Y26133D01*
Y26187D01*
X11990Y26240D01*
X12097D01*
X12150Y26187D01*
X11830D02*
X11777Y26240D01*
X11670D01*
X11617Y26187D01*
Y26133D01*
X11670Y26080D01*
X11724D01*
X11670D01*
X11617Y26027D01*
Y25973D01*
X11670Y25920D01*
X11777D01*
X11830Y25973D01*
X15940Y3100D02*
X15620D01*
Y3260D01*
X15673Y3313D01*
X15887D01*
X15940Y3260D01*
Y3100D01*
X15620Y3420D02*
Y3527D01*
Y3473D01*
X15940D01*
X15887Y3420D01*
Y3686D02*
X15940Y3740D01*
Y3846D01*
X15887Y3900D01*
X15833D01*
X15780Y3846D01*
Y3793D01*
Y3846D01*
X15727Y3900D01*
X15673D01*
X15620Y3846D01*
Y3740D01*
X15673Y3686D01*
X15070Y3100D02*
X15390D01*
Y3260D01*
X15337Y3313D01*
X15230D01*
X15177Y3260D01*
Y3100D01*
Y3207D02*
X15070Y3313D01*
Y3633D02*
Y3420D01*
X15283Y3633D01*
X15337D01*
X15390Y3580D01*
Y3473D01*
X15337Y3420D01*
X15070Y3900D02*
X15390D01*
X15230Y3740D01*
Y3953D01*
X8380Y1530D02*
X8700D01*
Y1690D01*
X8647Y1743D01*
X8540D01*
X8487Y1690D01*
Y1530D01*
Y1637D02*
X8380Y1743D01*
Y2063D02*
Y1850D01*
X8593Y2063D01*
X8647D01*
X8700Y2010D01*
Y1903D01*
X8647Y1850D01*
X8700Y2383D02*
Y2170D01*
X8540D01*
X8593Y2276D01*
Y2330D01*
X8540Y2383D01*
X8433D01*
X8380Y2330D01*
Y2223D01*
X8433Y2170D01*
X13307Y6347D02*
X13360Y6400D01*
X13467D01*
X13520Y6347D01*
Y6133D01*
X13467Y6080D01*
X13360D01*
X13307Y6133D01*
X13200Y6400D02*
X12987D01*
Y6347D01*
X13200Y6133D01*
Y6080D01*
X12880Y6133D02*
X12827Y6080D01*
X12720D01*
X12667Y6133D01*
Y6347D01*
X12720Y6400D01*
X12827D01*
X12880Y6347D01*
Y6293D01*
X12827Y6240D01*
X12667D01*
X7467Y11703D02*
X7520Y11650D01*
Y11543D01*
X7467Y11490D01*
X7253D01*
X7200Y11543D01*
Y11650D01*
X7253Y11703D01*
X7467Y11810D02*
X7520Y11863D01*
Y11970D01*
X7467Y12023D01*
X7413D01*
X7360Y11970D01*
X7307Y12023D01*
X7253D01*
X7200Y11970D01*
Y11863D01*
X7253Y11810D01*
X7307D01*
X7360Y11863D01*
X7413Y11810D01*
X7467D01*
X7360Y11863D02*
Y11970D01*
X7467Y12130D02*
X7520Y12183D01*
Y12290D01*
X7467Y12343D01*
X7253D01*
X7200Y12290D01*
Y12183D01*
X7253Y12130D01*
X7467D01*
X6907Y25383D02*
X6960Y25330D01*
Y25223D01*
X6907Y25170D01*
X6693D01*
X6640Y25223D01*
Y25330D01*
X6693Y25383D01*
X6907Y25490D02*
X6960Y25543D01*
Y25650D01*
X6907Y25703D01*
X6853D01*
X6800Y25650D01*
X6747Y25703D01*
X6693D01*
X6640Y25650D01*
Y25543D01*
X6693Y25490D01*
X6747D01*
X6800Y25543D01*
X6853Y25490D01*
X6907D01*
X6800Y25543D02*
Y25650D01*
X6640Y26023D02*
Y25810D01*
X6853Y26023D01*
X6907D01*
X6960Y25970D01*
Y25863D01*
X6907Y25810D01*
X7777Y27797D02*
X7830Y27850D01*
X7937D01*
X7990Y27797D01*
Y27583D01*
X7937Y27530D01*
X7830D01*
X7777Y27583D01*
X7670Y27797D02*
X7617Y27850D01*
X7510D01*
X7457Y27797D01*
Y27743D01*
X7510Y27690D01*
X7457Y27637D01*
Y27583D01*
X7510Y27530D01*
X7617D01*
X7670Y27583D01*
Y27637D01*
X7617Y27690D01*
X7670Y27743D01*
Y27797D01*
X7617Y27690D02*
X7510D01*
X7350Y27797D02*
X7297Y27850D01*
X7190D01*
X7137Y27797D01*
Y27743D01*
X7190Y27690D01*
X7244D01*
X7190D01*
X7137Y27637D01*
Y27583D01*
X7190Y27530D01*
X7297D01*
X7350Y27583D01*
X4957Y11867D02*
X5010Y11920D01*
X5117D01*
X5170Y11867D01*
Y11653D01*
X5117Y11600D01*
X5010D01*
X4957Y11653D01*
X4850Y11867D02*
X4797Y11920D01*
X4690D01*
X4637Y11867D01*
Y11813D01*
X4690Y11760D01*
X4637Y11707D01*
Y11653D01*
X4690Y11600D01*
X4797D01*
X4850Y11653D01*
Y11707D01*
X4797Y11760D01*
X4850Y11813D01*
Y11867D01*
X4797Y11760D02*
X4690D01*
X4317Y11920D02*
X4530D01*
Y11760D01*
X4424Y11813D01*
X4370D01*
X4317Y11760D01*
Y11653D01*
X4370Y11600D01*
X4477D01*
X4530Y11653D01*
X11067Y16933D02*
X11120Y16880D01*
Y16773D01*
X11067Y16720D01*
X10853D01*
X10800Y16773D01*
Y16880D01*
X10853Y16933D01*
X11067Y17040D02*
X11120Y17093D01*
Y17200D01*
X11067Y17253D01*
X11013D01*
X10960Y17200D01*
X10907Y17253D01*
X10853D01*
X10800Y17200D01*
Y17093D01*
X10853Y17040D01*
X10907D01*
X10960Y17093D01*
X11013Y17040D01*
X11067D01*
X10960Y17093D02*
Y17200D01*
X11120Y17573D02*
X11067Y17466D01*
X10960Y17360D01*
X10853D01*
X10800Y17413D01*
Y17520D01*
X10853Y17573D01*
X10907D01*
X10960Y17520D01*
Y17360D01*
X11997Y14597D02*
X12050Y14650D01*
X12157D01*
X12210Y14597D01*
Y14383D01*
X12157Y14330D01*
X12050D01*
X11997Y14383D01*
X11890Y14597D02*
X11837Y14650D01*
X11730D01*
X11677Y14597D01*
Y14543D01*
X11730Y14490D01*
X11677Y14437D01*
Y14383D01*
X11730Y14330D01*
X11837D01*
X11890Y14383D01*
Y14437D01*
X11837Y14490D01*
X11890Y14543D01*
Y14597D01*
X11837Y14490D02*
X11730D01*
X11570Y14650D02*
X11357D01*
Y14597D01*
X11570Y14383D01*
Y14330D01*
X6880Y9945D02*
X6933Y9891D01*
Y9785D01*
X6880Y9731D01*
X6666D01*
X6613Y9785D01*
Y9891D01*
X6666Y9945D01*
X6880Y10051D02*
X6933Y10104D01*
Y10211D01*
X6880Y10264D01*
X6826D01*
X6773Y10211D01*
X6720Y10264D01*
X6666D01*
X6613Y10211D01*
Y10104D01*
X6666Y10051D01*
X6720D01*
X6773Y10104D01*
X6826Y10051D01*
X6880D01*
X6773Y10104D02*
Y10211D01*
X6880Y10371D02*
X6933Y10424D01*
Y10531D01*
X6880Y10584D01*
X6826D01*
X6773Y10531D01*
X6720Y10584D01*
X6666D01*
X6613Y10531D01*
Y10424D01*
X6666Y10371D01*
X6720D01*
X6773Y10424D01*
X6826Y10371D01*
X6880D01*
X6773Y10424D02*
Y10531D01*
X10177Y15727D02*
X10230Y15780D01*
X10337D01*
X10390Y15727D01*
Y15513D01*
X10337Y15460D01*
X10230D01*
X10177Y15513D01*
X10070Y15727D02*
X10017Y15780D01*
X9910D01*
X9857Y15727D01*
Y15673D01*
X9910Y15620D01*
X9857Y15567D01*
Y15513D01*
X9910Y15460D01*
X10017D01*
X10070Y15513D01*
Y15567D01*
X10017Y15620D01*
X10070Y15673D01*
Y15727D01*
X10017Y15620D02*
X9910D01*
X9750Y15513D02*
X9697Y15460D01*
X9590D01*
X9537Y15513D01*
Y15727D01*
X9590Y15780D01*
X9697D01*
X9750Y15727D01*
Y15673D01*
X9697Y15620D01*
X9537D01*
X9127Y17217D02*
X9180Y17270D01*
X9287D01*
X9340Y17217D01*
Y17003D01*
X9287Y16950D01*
X9180D01*
X9127Y17003D01*
X9020D02*
X8967Y16950D01*
X8860D01*
X8807Y17003D01*
Y17217D01*
X8860Y17270D01*
X8967D01*
X9020Y17217D01*
Y17163D01*
X8967Y17110D01*
X8807D01*
X8700Y17217D02*
X8647Y17270D01*
X8540D01*
X8487Y17217D01*
Y17003D01*
X8540Y16950D01*
X8647D01*
X8700Y17003D01*
Y17217D01*
X9907Y4280D02*
X10120D01*
Y4120D01*
X10013D01*
X10120D01*
Y3960D01*
X9800Y4280D02*
Y3960D01*
X9587D01*
X9480Y4227D02*
X9427Y4280D01*
X9320D01*
X9267Y4227D01*
Y4173D01*
X9320Y4120D01*
X9267Y4067D01*
Y4013D01*
X9320Y3960D01*
X9427D01*
X9480Y4013D01*
Y4067D01*
X9427Y4120D01*
X9480Y4173D01*
Y4227D01*
X9427Y4120D02*
X9320D01*
X13700Y4853D02*
Y4640D01*
X13540D01*
Y4747D01*
Y4640D01*
X13380D01*
X13700Y4960D02*
X13380D01*
Y5173D01*
X13433Y5280D02*
X13380Y5333D01*
Y5440D01*
X13433Y5493D01*
X13647D01*
X13700Y5440D01*
Y5333D01*
X13647Y5280D01*
X13593D01*
X13540Y5333D01*
Y5493D01*
X5180Y10173D02*
Y9960D01*
X5020D01*
Y10067D01*
Y9960D01*
X4860D01*
X5180Y10280D02*
X4860D01*
Y10493D01*
Y10600D02*
Y10706D01*
Y10653D01*
X5180D01*
X5127Y10600D01*
X4860Y10866D02*
Y10973D01*
Y10920D01*
X5180D01*
X5127Y10866D01*
X12110Y15653D02*
Y15440D01*
X11950D01*
Y15547D01*
Y15440D01*
X11790D01*
X12110Y15760D02*
X11790D01*
Y15973D01*
Y16080D02*
Y16186D01*
Y16133D01*
X12110D01*
X12057Y16080D01*
X11790Y16560D02*
Y16346D01*
X12003Y16560D01*
X12057D01*
X12110Y16506D01*
Y16400D01*
X12057Y16346D01*
X11347Y15250D02*
X11560D01*
Y15090D01*
X11453D01*
X11560D01*
Y14930D01*
X11240Y15250D02*
Y14930D01*
X11027D01*
X10920D02*
X10814D01*
X10867D01*
Y15250D01*
X10920Y15197D01*
X10654D02*
X10600Y15250D01*
X10494D01*
X10440Y15197D01*
Y15143D01*
X10494Y15090D01*
X10547D01*
X10494D01*
X10440Y15037D01*
Y14983D01*
X10494Y14930D01*
X10600D01*
X10654Y14983D01*
X6210Y9193D02*
Y8980D01*
X6050D01*
Y9087D01*
Y8980D01*
X5890D01*
X6210Y9300D02*
X5890D01*
Y9513D01*
Y9620D02*
Y9726D01*
Y9673D01*
X6210D01*
X6157Y9620D01*
X5890Y10046D02*
X6210D01*
X6050Y9886D01*
Y10100D01*
X10307Y17700D02*
X10520D01*
Y17540D01*
X10413D01*
X10520D01*
Y17380D01*
X10200Y17700D02*
Y17380D01*
X9987D01*
X9880D02*
X9774D01*
X9827D01*
Y17700D01*
X9880Y17647D01*
X9400Y17700D02*
X9507Y17647D01*
X9614Y17540D01*
Y17433D01*
X9560Y17380D01*
X9454D01*
X9400Y17433D01*
Y17487D01*
X9454Y17540D01*
X9614D01*
X4947Y23523D02*
Y23737D01*
X5000Y23790D01*
X5107D01*
X5160Y23737D01*
Y23523D01*
X5107Y23470D01*
X5000D01*
X5053Y23577D02*
X4947Y23470D01*
X5000D02*
X4947Y23523D01*
X4840Y23470D02*
X4733D01*
X4787D01*
Y23790D01*
X4840Y23737D01*
X5920Y23860D02*
X6240D01*
Y24020D01*
X6187Y24073D01*
X6080D01*
X6027Y24020D01*
Y23860D01*
Y23967D02*
X5920Y24073D01*
X6187Y24180D02*
X6240Y24233D01*
Y24340D01*
X6187Y24393D01*
X6133D01*
X6080Y24340D01*
Y24287D01*
Y24340D01*
X6027Y24393D01*
X5973D01*
X5920Y24340D01*
Y24233D01*
X5973Y24180D01*
X6240Y24713D02*
X6187Y24606D01*
X6080Y24500D01*
X5973D01*
X5920Y24553D01*
Y24660D01*
X5973Y24713D01*
X6027D01*
X6080Y24660D01*
Y24500D01*
X7727Y26007D02*
X7780Y26060D01*
X7887D01*
X7940Y26007D01*
Y25793D01*
X7887Y25740D01*
X7780D01*
X7727Y25793D01*
X7620D02*
X7567Y25740D01*
X7460D01*
X7407Y25793D01*
Y26007D01*
X7460Y26060D01*
X7567D01*
X7620Y26007D01*
Y25953D01*
X7567Y25900D01*
X7407D01*
X7087Y25740D02*
X7300D01*
X7087Y25953D01*
Y26007D01*
X7140Y26060D01*
X7247D01*
X7300Y26007D01*
D100*
X5849Y26221D02*
G03*
X5849Y26221I-49J0D01*
G01*
X11077Y4351D02*
G03*
X11077Y4351I-49J0D01*
G01*
X5265Y24852D02*
G03*
X5265Y24852I-49J0D01*
G01*
D103*
X9207Y883D02*
G03*
X9207Y883I-20J0D01*
G01*
X15654Y879D02*
G03*
X15654Y879I-20J0D01*
G01*
D104*
X4481Y26900D02*
X5701D01*
X4481Y26546D02*
X5701D01*
X4481D02*
Y26900D01*
X5701Y26546D02*
Y26900D01*
X11707Y4450D02*
Y5670D01*
X11353Y4450D02*
Y5670D01*
X11707D01*
X11353Y4450D02*
X11707D01*
X4891Y24035D02*
Y24705D01*
X4931Y24035D02*
Y24705D01*
X4891Y24035D02*
X4931D01*
X4891Y24705D02*
X4931D01*
M02*
