G04 Layer_Color=32896*
%FSLAX24Y24*%
%MOIN*%
G70*
G01*
G75*
%ADD47C,0.0060*%
%ADD50C,0.0100*%
%ADD51C,0.0080*%
%ADD94C,0.0039*%
D47*
X6363Y21833D02*
X6683D01*
Y21993D01*
X6630Y22046D01*
X6523D01*
X6470Y21993D01*
Y21833D01*
Y21939D02*
X6363Y22046D01*
X6630Y22366D02*
X6683Y22312D01*
Y22206D01*
X6630Y22152D01*
X6576D01*
X6523Y22206D01*
Y22312D01*
X6470Y22366D01*
X6416D01*
X6363Y22312D01*
Y22206D01*
X6416Y22152D01*
X6683Y22472D02*
Y22686D01*
Y22579D01*
X6363D01*
D50*
X13837Y27465D02*
G03*
X13837Y27465I-57J0D01*
G01*
X14154Y24768D02*
X15256D01*
Y24453D02*
Y24768D01*
Y24453D02*
X15807D01*
Y28193D01*
X15256D02*
X15807D01*
X15256Y27878D02*
Y28193D01*
X14154Y27878D02*
X15256D01*
X14154Y24768D02*
Y27878D01*
X4462Y1402D02*
Y802D01*
X4762D01*
X4862Y902D01*
Y1102D01*
X4762Y1202D01*
X4462D01*
X4662D02*
X4862Y1402D01*
X5461D02*
X5062D01*
X5461Y1002D01*
Y902D01*
X5361Y802D01*
X5162D01*
X5062Y902D01*
X6061Y802D02*
X5661D01*
Y1102D01*
X5861Y1002D01*
X5961D01*
X6061Y1102D01*
Y1302D01*
X5961Y1402D01*
X5761D01*
X5661Y1302D01*
X10928Y1372D02*
Y772D01*
X11228D01*
X11328Y872D01*
Y1072D01*
X11228Y1172D01*
X10928D01*
X11128D02*
X11328Y1372D01*
X11928D02*
X11528D01*
X11928Y972D01*
Y872D01*
X11828Y772D01*
X11628D01*
X11528Y872D01*
X12428Y1372D02*
Y772D01*
X12128Y1072D01*
X12528D01*
X13665Y23189D02*
X13765Y23089D01*
Y22889D01*
X13665Y22789D01*
X13266D01*
X13166Y22889D01*
Y23089D01*
X13266Y23189D01*
X13765Y23789D02*
X13665Y23589D01*
X13466Y23389D01*
X13266D01*
X13166Y23489D01*
Y23689D01*
X13266Y23789D01*
X13366D01*
X13466Y23689D01*
Y23389D01*
X13665Y23989D02*
X13765Y24089D01*
Y24289D01*
X13665Y24389D01*
X13565D01*
X13466Y24289D01*
Y24189D01*
Y24289D01*
X13366Y24389D01*
X13266D01*
X13166Y24289D01*
Y24089D01*
X13266Y23989D01*
X11552Y3342D02*
Y2742D01*
X11252D01*
X11152Y2842D01*
Y3242D01*
X11252Y3342D01*
X11552D01*
X10952Y2742D02*
X10752D01*
X10852D01*
Y3342D01*
X10952Y3242D01*
X10452D02*
X10352Y3342D01*
X10152D01*
X10052Y3242D01*
Y3142D01*
X10152Y3042D01*
X10252D01*
X10152D01*
X10052Y2942D01*
Y2842D01*
X10152Y2742D01*
X10352D01*
X10452Y2842D01*
X13768Y23498D02*
Y23998D01*
X13868Y24098D01*
X14068D01*
X14168Y23998D01*
Y23498D01*
X14368Y24098D02*
X14568D01*
X14468D01*
Y23498D01*
X14368Y23598D01*
X14867Y24098D02*
X15067D01*
X14967D01*
Y23498D01*
X14867Y23598D01*
X13325Y27755D02*
Y28355D01*
X13025D01*
X12925Y28255D01*
Y28055D01*
X13025Y27955D01*
X13325D01*
X13125D02*
X12925Y27755D01*
X12325D02*
X12725D01*
X12325Y28155D01*
Y28255D01*
X12425Y28355D01*
X12625D01*
X12725Y28255D01*
X12125D02*
X12025Y28355D01*
X11825D01*
X11726Y28255D01*
Y28155D01*
X11825Y28055D01*
X11925D01*
X11825D01*
X11726Y27955D01*
Y27855D01*
X11825Y27755D01*
X12025D01*
X12125Y27855D01*
X12795Y24595D02*
Y23995D01*
X13095D01*
X13195Y24095D01*
Y24295D01*
X13095Y24395D01*
X12795D01*
X12995D02*
X13195Y24595D01*
X13795D02*
X13395D01*
X13795Y24195D01*
Y24095D01*
X13695Y23995D01*
X13495D01*
X13395Y24095D01*
X14394Y24595D02*
X13995D01*
X14394Y24195D01*
Y24095D01*
X14295Y23995D01*
X14095D01*
X13995Y24095D01*
X7239Y22135D02*
Y22735D01*
X6939D01*
X6839Y22635D01*
Y22435D01*
X6939Y22335D01*
X7239D01*
X7039D02*
X6839Y22135D01*
X6639Y22635D02*
X6539Y22735D01*
X6339D01*
X6239Y22635D01*
Y22535D01*
X6339Y22435D01*
X6439D01*
X6339D01*
X6239Y22335D01*
Y22235D01*
X6339Y22135D01*
X6539D01*
X6639Y22235D01*
X6039Y22635D02*
X5939Y22735D01*
X5739D01*
X5639Y22635D01*
Y22535D01*
X5739Y22435D01*
X5839D01*
X5739D01*
X5639Y22335D01*
Y22235D01*
X5739Y22135D01*
X5939D01*
X6039Y22235D01*
X6855Y22135D02*
Y22735D01*
X6555D01*
X6455Y22635D01*
Y22435D01*
X6555Y22335D01*
X6855D01*
X6655D02*
X6455Y22135D01*
X5855D02*
X6255D01*
X5855Y22535D01*
Y22635D01*
X5955Y22735D01*
X6155D01*
X6255Y22635D01*
X5655Y22135D02*
X5455D01*
X5555D01*
Y22735D01*
X5655Y22635D01*
X6345Y2184D02*
X6445Y2284D01*
X6645D01*
X6745Y2184D01*
Y2084D01*
X6645Y1984D01*
X6445D01*
X6345Y1884D01*
Y1784D01*
X6445Y1684D01*
X6645D01*
X6745Y1784D01*
X5745Y1684D02*
X6145D01*
X5745Y2084D01*
Y2184D01*
X5845Y2284D01*
X6045D01*
X6145Y2184D01*
X12805Y2174D02*
X12905Y2274D01*
X13105D01*
X13205Y2174D01*
Y2074D01*
X13105Y1974D01*
X12905D01*
X12805Y1874D01*
Y1774D01*
X12905Y1674D01*
X13105D01*
X13205Y1774D01*
X12605Y1674D02*
X12405D01*
X12505D01*
Y2274D01*
X12605Y2174D01*
X5259Y1402D02*
Y802D01*
X5559D01*
X5659Y902D01*
Y1102D01*
X5559Y1202D01*
X5259D01*
X5459D02*
X5659Y1402D01*
X6259D02*
X5859D01*
X6259Y1002D01*
Y902D01*
X6159Y802D01*
X5959D01*
X5859Y902D01*
X6459D02*
X6559Y802D01*
X6759D01*
X6859Y902D01*
Y1302D01*
X6759Y1402D01*
X6559D01*
X6459Y1302D01*
Y902D01*
X11726Y1372D02*
Y772D01*
X12025D01*
X12125Y872D01*
Y1072D01*
X12025Y1172D01*
X11726D01*
X11925D02*
X12125Y1372D01*
X12325D02*
X12525D01*
X12425D01*
Y772D01*
X12325Y872D01*
X12825Y1272D02*
X12925Y1372D01*
X13125D01*
X13225Y1272D01*
Y872D01*
X13125Y772D01*
X12925D01*
X12825Y872D01*
Y972D01*
X12925Y1072D01*
X13225D01*
X10425Y21645D02*
X11025D01*
Y21245D01*
Y20645D02*
Y21045D01*
X10625Y20645D01*
X10525D01*
X10425Y20745D01*
Y20945D01*
X10525Y21045D01*
X6055Y1751D02*
X5455D01*
Y2051D01*
X5555Y2151D01*
X5955D01*
X6055Y2051D01*
Y1751D01*
X5455Y2751D02*
Y2351D01*
X5855Y2751D01*
X5955D01*
X6055Y2651D01*
Y2451D01*
X5955Y2351D01*
X11425Y20115D02*
X11325Y20015D01*
X11125D01*
X11025Y20115D01*
Y20515D01*
X11125Y20615D01*
X11325D01*
X11425Y20515D01*
X12025Y20015D02*
X11825Y20115D01*
X11625Y20315D01*
Y20515D01*
X11725Y20615D01*
X11925D01*
X12025Y20515D01*
Y20415D01*
X11925Y20315D01*
X11625D01*
X12225Y20115D02*
X12325Y20015D01*
X12525D01*
X12624Y20115D01*
Y20515D01*
X12525Y20615D01*
X12325D01*
X12225Y20515D01*
Y20115D01*
X10455Y22865D02*
X10555Y22965D01*
X10755D01*
X10855Y22865D01*
Y22465D01*
X10755Y22365D01*
X10555D01*
X10455Y22465D01*
X9855Y22965D02*
X10255D01*
Y22665D01*
X10055Y22765D01*
X9955D01*
X9855Y22665D01*
Y22465D01*
X9955Y22365D01*
X10155D01*
X10255Y22465D01*
X9655D02*
X9555Y22365D01*
X9355D01*
X9256Y22465D01*
Y22865D01*
X9355Y22965D01*
X9555D01*
X9655Y22865D01*
Y22765D01*
X9555Y22665D01*
X9256D01*
X9635Y23855D02*
X9735Y23755D01*
Y23555D01*
X9635Y23455D01*
X9235D01*
X9135Y23555D01*
Y23755D01*
X9235Y23855D01*
X9735Y24455D02*
Y24055D01*
X9435D01*
X9535Y24255D01*
Y24355D01*
X9435Y24455D01*
X9235D01*
X9135Y24355D01*
Y24155D01*
X9235Y24055D01*
X9735Y25054D02*
X9635Y24855D01*
X9435Y24655D01*
X9235D01*
X9135Y24755D01*
Y24955D01*
X9235Y25054D01*
X9335D01*
X9435Y24955D01*
Y24655D01*
X9975Y22865D02*
X10075Y22965D01*
X10275D01*
X10375Y22865D01*
Y22465D01*
X10275Y22365D01*
X10075D01*
X9975Y22465D01*
X9375Y22965D02*
X9775D01*
Y22665D01*
X9575Y22765D01*
X9475D01*
X9375Y22665D01*
Y22465D01*
X9475Y22365D01*
X9675D01*
X9775Y22465D01*
X8776Y22965D02*
X9175D01*
Y22665D01*
X8975Y22765D01*
X8875D01*
X8776Y22665D01*
Y22465D01*
X8875Y22365D01*
X9075D01*
X9175Y22465D01*
X10605Y22895D02*
X10505Y22795D01*
X10305D01*
X10205Y22895D01*
Y23295D01*
X10305Y23395D01*
X10505D01*
X10605Y23295D01*
X11205Y22795D02*
X10805D01*
Y23095D01*
X11005Y22995D01*
X11105D01*
X11205Y23095D01*
Y23295D01*
X11105Y23395D01*
X10905D01*
X10805Y23295D01*
X11705Y23395D02*
Y22795D01*
X11405Y23095D01*
X11804D01*
X8305Y22865D02*
X8405Y22965D01*
X8605D01*
X8705Y22865D01*
Y22465D01*
X8605Y22365D01*
X8405D01*
X8305Y22465D01*
X7705Y22965D02*
X8105D01*
Y22665D01*
X7905Y22765D01*
X7805D01*
X7705Y22665D01*
Y22465D01*
X7805Y22365D01*
X8005D01*
X8105Y22465D01*
X7505Y22865D02*
X7405Y22965D01*
X7205D01*
X7106Y22865D01*
Y22765D01*
X7205Y22665D01*
X7305D01*
X7205D01*
X7106Y22565D01*
Y22465D01*
X7205Y22365D01*
X7405D01*
X7505Y22465D01*
X12375Y19965D02*
X12275Y19865D01*
X12075D01*
X11975Y19965D01*
Y20365D01*
X12075Y20465D01*
X12275D01*
X12375Y20365D01*
X12875Y20465D02*
Y19865D01*
X12575Y20165D01*
X12975D01*
X13175Y19965D02*
X13275Y19865D01*
X13475D01*
X13574Y19965D01*
Y20065D01*
X13475Y20165D01*
X13375D01*
X13475D01*
X13574Y20265D01*
Y20365D01*
X13475Y20465D01*
X13275D01*
X13175Y20365D01*
X9755Y22595D02*
X9655Y22695D01*
Y22895D01*
X9755Y22995D01*
X10155D01*
X10255Y22895D01*
Y22695D01*
X10155Y22595D01*
X9755Y22395D02*
X9655Y22295D01*
Y22095D01*
X9755Y21995D01*
X9855D01*
X9955Y22095D01*
Y22195D01*
Y22095D01*
X10055Y21995D01*
X10155D01*
X10255Y22095D01*
Y22295D01*
X10155Y22395D01*
X10255Y21396D02*
Y21795D01*
X9855Y21396D01*
X9755D01*
X9655Y21495D01*
Y21695D01*
X9755Y21795D01*
X6165Y14325D02*
X6265Y14425D01*
X6465D01*
X6565Y14325D01*
Y13925D01*
X6465Y13825D01*
X6265D01*
X6165Y13925D01*
X5565Y14425D02*
X5965D01*
Y14125D01*
X5765Y14225D01*
X5665D01*
X5565Y14125D01*
Y13925D01*
X5665Y13825D01*
X5865D01*
X5965Y13925D01*
X4966Y13825D02*
X5365D01*
X4966Y14225D01*
Y14325D01*
X5065Y14425D01*
X5265D01*
X5365Y14325D01*
X6175Y15775D02*
X6275Y15875D01*
X6475D01*
X6575Y15775D01*
Y15375D01*
X6475Y15275D01*
X6275D01*
X6175Y15375D01*
X5675Y15275D02*
Y15875D01*
X5975Y15575D01*
X5575D01*
X4976Y15275D02*
X5375D01*
X4976Y15675D01*
Y15775D01*
X5075Y15875D01*
X5275D01*
X5375Y15775D01*
X6175Y16585D02*
X6275Y16685D01*
X6475D01*
X6575Y16585D01*
Y16185D01*
X6475Y16085D01*
X6275D01*
X6175Y16185D01*
X5675Y16085D02*
Y16685D01*
X5975Y16385D01*
X5575D01*
X5375Y16085D02*
X5175D01*
X5275D01*
Y16685D01*
X5375Y16585D01*
X7715Y14235D02*
X7615Y14135D01*
X7415D01*
X7315Y14235D01*
Y14635D01*
X7415Y14735D01*
X7615D01*
X7715Y14635D01*
X8215Y14735D02*
Y14135D01*
X7915Y14435D01*
X8315D01*
X8515Y14235D02*
X8615Y14135D01*
X8815D01*
X8914Y14235D01*
Y14635D01*
X8815Y14735D01*
X8615D01*
X8515Y14635D01*
Y14235D01*
X6745Y16605D02*
X6845Y16705D01*
X7045D01*
X7145Y16605D01*
Y16205D01*
X7045Y16105D01*
X6845D01*
X6745Y16205D01*
X6545Y16605D02*
X6445Y16705D01*
X6245D01*
X6145Y16605D01*
Y16505D01*
X6245Y16405D01*
X6345D01*
X6245D01*
X6145Y16305D01*
Y16205D01*
X6245Y16105D01*
X6445D01*
X6545Y16205D01*
X5945D02*
X5845Y16105D01*
X5645D01*
X5546Y16205D01*
Y16605D01*
X5645Y16705D01*
X5845D01*
X5945Y16605D01*
Y16505D01*
X5845Y16405D01*
X5546D01*
X6235Y11715D02*
X6135Y11615D01*
X5935D01*
X5835Y11715D01*
Y12115D01*
X5935Y12215D01*
X6135D01*
X6235Y12115D01*
X6435Y11715D02*
X6535Y11615D01*
X6735D01*
X6835Y11715D01*
Y11815D01*
X6735Y11915D01*
X6635D01*
X6735D01*
X6835Y12015D01*
Y12115D01*
X6735Y12215D01*
X6535D01*
X6435Y12115D01*
X7035Y11715D02*
X7135Y11615D01*
X7335D01*
X7434Y11715D01*
Y11815D01*
X7335Y11915D01*
X7434Y12015D01*
Y12115D01*
X7335Y12215D01*
X7135D01*
X7035Y12115D01*
Y12015D01*
X7135Y11915D01*
X7035Y11815D01*
Y11715D01*
X7135Y11915D02*
X7335D01*
X6235Y10865D02*
X6135Y10765D01*
X5935D01*
X5835Y10865D01*
Y11265D01*
X5935Y11365D01*
X6135D01*
X6235Y11265D01*
X6435Y10865D02*
X6535Y10765D01*
X6735D01*
X6835Y10865D01*
Y10965D01*
X6735Y11065D01*
X6635D01*
X6735D01*
X6835Y11165D01*
Y11265D01*
X6735Y11365D01*
X6535D01*
X6435Y11265D01*
X7035Y10765D02*
X7434D01*
Y10865D01*
X7035Y11265D01*
Y11365D01*
X8811Y14163D02*
X8910Y14063D01*
Y13863D01*
X8811Y13763D01*
X8411D01*
X8311Y13863D01*
Y14063D01*
X8411Y14163D01*
X8811Y14363D02*
X8910Y14463D01*
Y14663D01*
X8811Y14763D01*
X8711D01*
X8611Y14663D01*
Y14563D01*
Y14663D01*
X8511Y14763D01*
X8411D01*
X8311Y14663D01*
Y14463D01*
X8411Y14363D01*
X8910Y15362D02*
X8811Y15163D01*
X8611Y14963D01*
X8411D01*
X8311Y15063D01*
Y15262D01*
X8411Y15362D01*
X8511D01*
X8611Y15262D01*
Y14963D01*
X7475Y13505D02*
X7575Y13605D01*
X7775D01*
X7875Y13505D01*
Y13105D01*
X7775Y13005D01*
X7575D01*
X7475Y13105D01*
X7275Y13505D02*
X7175Y13605D01*
X6975D01*
X6875Y13505D01*
Y13405D01*
X6975Y13305D01*
X7075D01*
X6975D01*
X6875Y13205D01*
Y13105D01*
X6975Y13005D01*
X7175D01*
X7275Y13105D01*
X6276Y13605D02*
X6675D01*
Y13305D01*
X6475Y13405D01*
X6375D01*
X6276Y13305D01*
Y13105D01*
X6375Y13005D01*
X6575D01*
X6675Y13105D01*
X6445Y13185D02*
X6345Y13285D01*
Y13485D01*
X6445Y13585D01*
X6845D01*
X6945Y13485D01*
Y13285D01*
X6845Y13185D01*
X6445Y12985D02*
X6345Y12885D01*
Y12685D01*
X6445Y12585D01*
X6545D01*
X6645Y12685D01*
Y12785D01*
Y12685D01*
X6745Y12585D01*
X6845D01*
X6945Y12685D01*
Y12885D01*
X6845Y12985D01*
X6945Y12085D02*
X6345D01*
X6645Y12385D01*
Y11986D01*
X7875Y13505D02*
X7975Y13605D01*
X8175D01*
X8275Y13505D01*
Y13105D01*
X8175Y13005D01*
X7975D01*
X7875Y13105D01*
X7675Y13505D02*
X7575Y13605D01*
X7375D01*
X7275Y13505D01*
Y13405D01*
X7375Y13305D01*
X7475D01*
X7375D01*
X7275Y13205D01*
Y13105D01*
X7375Y13005D01*
X7575D01*
X7675Y13105D01*
X7075Y13505D02*
X6975Y13605D01*
X6775D01*
X6676Y13505D01*
Y13405D01*
X6775Y13305D01*
X6875D01*
X6775D01*
X6676Y13205D01*
Y13105D01*
X6775Y13005D01*
X6975D01*
X7075Y13105D01*
X8775Y14575D02*
X8875Y14475D01*
Y14275D01*
X8775Y14175D01*
X8375D01*
X8275Y14275D01*
Y14475D01*
X8375Y14575D01*
X8775Y14775D02*
X8875Y14875D01*
Y15075D01*
X8775Y15175D01*
X8675D01*
X8575Y15075D01*
Y14975D01*
Y15075D01*
X8475Y15175D01*
X8375D01*
X8275Y15075D01*
Y14875D01*
X8375Y14775D01*
X8275Y15375D02*
Y15575D01*
Y15475D01*
X8875D01*
X8775Y15375D01*
X6405Y14385D02*
X6305Y14485D01*
Y14685D01*
X6405Y14785D01*
X6805D01*
X6905Y14685D01*
Y14485D01*
X6805Y14385D01*
X6405Y14185D02*
X6305Y14085D01*
Y13885D01*
X6405Y13785D01*
X6505D01*
X6605Y13885D01*
Y13985D01*
Y13885D01*
X6705Y13785D01*
X6805D01*
X6905Y13885D01*
Y14085D01*
X6805Y14185D01*
X6405Y13585D02*
X6305Y13485D01*
Y13285D01*
X6405Y13186D01*
X6805D01*
X6905Y13285D01*
Y13485D01*
X6805Y13585D01*
X6405D01*
X5915Y12475D02*
X5815Y12375D01*
X5615D01*
X5515Y12475D01*
Y12875D01*
X5615Y12975D01*
X5815D01*
X5915Y12875D01*
X6515Y12975D02*
X6115D01*
X6515Y12575D01*
Y12475D01*
X6415Y12375D01*
X6215D01*
X6115Y12475D01*
X6715Y12875D02*
X6815Y12975D01*
X7014D01*
X7114Y12875D01*
Y12475D01*
X7014Y12375D01*
X6815D01*
X6715Y12475D01*
Y12575D01*
X6815Y12675D01*
X7114D01*
X4945Y14845D02*
X5045Y14945D01*
X5245D01*
X5345Y14845D01*
Y14445D01*
X5245Y14345D01*
X5045D01*
X4945Y14445D01*
X4345Y14345D02*
X4745D01*
X4345Y14745D01*
Y14845D01*
X4445Y14945D01*
X4645D01*
X4745Y14845D01*
X4145D02*
X4045Y14945D01*
X3845D01*
X3746Y14845D01*
Y14745D01*
X3845Y14645D01*
X3746Y14545D01*
Y14445D01*
X3845Y14345D01*
X4045D01*
X4145Y14445D01*
Y14545D01*
X4045Y14645D01*
X4145Y14745D01*
Y14845D01*
X4045Y14645D02*
X3845D01*
X5375Y15825D02*
X5475Y15925D01*
X5675D01*
X5775Y15825D01*
Y15425D01*
X5675Y15325D01*
X5475D01*
X5375Y15425D01*
X4775Y15325D02*
X5175D01*
X4775Y15725D01*
Y15825D01*
X4875Y15925D01*
X5075D01*
X5175Y15825D01*
X4575Y15925D02*
X4176D01*
Y15825D01*
X4575Y15425D01*
Y15325D01*
X7505Y11665D02*
X7405Y11565D01*
X7205D01*
X7105Y11665D01*
Y12065D01*
X7205Y12165D01*
X7405D01*
X7505Y12065D01*
X8105Y12165D02*
X7705D01*
X8105Y11765D01*
Y11665D01*
X8005Y11565D01*
X7805D01*
X7705Y11665D01*
X8704Y11565D02*
X8505Y11665D01*
X8305Y11865D01*
Y12065D01*
X8405Y12165D01*
X8605D01*
X8704Y12065D01*
Y11965D01*
X8605Y11865D01*
X8305D01*
X6345Y13435D02*
X6245Y13335D01*
X6045D01*
X5945Y13435D01*
Y13835D01*
X6045Y13935D01*
X6245D01*
X6345Y13835D01*
X6945Y13935D02*
X6545D01*
X6945Y13535D01*
Y13435D01*
X6845Y13335D01*
X6645D01*
X6545Y13435D01*
X7544Y13335D02*
X7145D01*
Y13635D01*
X7345Y13535D01*
X7445D01*
X7544Y13635D01*
Y13835D01*
X7445Y13935D01*
X7245D01*
X7145Y13835D01*
X8105Y14235D02*
X8005Y14135D01*
X7805D01*
X7705Y14235D01*
Y14635D01*
X7805Y14735D01*
X8005D01*
X8105Y14635D01*
X8305Y14735D02*
X8505D01*
X8405D01*
Y14135D01*
X8305Y14235D01*
X9205Y14135D02*
X9005Y14235D01*
X8805Y14435D01*
Y14635D01*
X8905Y14735D01*
X9105D01*
X9205Y14635D01*
Y14535D01*
X9105Y14435D01*
X8805D01*
X7925Y16605D02*
X8025Y16705D01*
X8225D01*
X8325Y16605D01*
Y16205D01*
X8225Y16105D01*
X8025D01*
X7925Y16205D01*
X7725Y16105D02*
X7525D01*
X7625D01*
Y16705D01*
X7725Y16605D01*
X6825Y16705D02*
X7225D01*
Y16405D01*
X7025Y16505D01*
X6925D01*
X6825Y16405D01*
Y16205D01*
X6925Y16105D01*
X7125D01*
X7225Y16205D01*
X14175Y24825D02*
X13775D01*
X13975D01*
Y24225D01*
X13575D02*
Y24825D01*
X13275D01*
X13175Y24725D01*
Y24525D01*
X13275Y24425D01*
X13575D01*
X12576Y24225D02*
X12975D01*
X12576Y24625D01*
Y24725D01*
X12675Y24825D01*
X12875D01*
X12975Y24725D01*
X13965Y11455D02*
X14065Y11355D01*
Y11155D01*
X13965Y11055D01*
X13565D01*
X13465Y11155D01*
Y11355D01*
X13565Y11455D01*
X13465Y12055D02*
Y11655D01*
X13865Y12055D01*
X13965D01*
X14065Y11955D01*
Y11755D01*
X13965Y11655D01*
Y12255D02*
X14065Y12355D01*
Y12555D01*
X13965Y12654D01*
X13865D01*
X13765Y12555D01*
Y12455D01*
Y12555D01*
X13665Y12654D01*
X13565D01*
X13465Y12555D01*
Y12355D01*
X13565Y12255D01*
X15265Y24825D02*
X14865D01*
X15065D01*
Y24225D01*
X14665D02*
Y24825D01*
X14365D01*
X14265Y24725D01*
Y24525D01*
X14365Y24425D01*
X14665D01*
X14065Y24725D02*
X13965Y24825D01*
X13765D01*
X13666Y24725D01*
Y24625D01*
X13765Y24525D01*
X13865D01*
X13765D01*
X13666Y24425D01*
Y24325D01*
X13765Y24225D01*
X13965D01*
X14065Y24325D01*
X7745Y13575D02*
X7145D01*
Y13275D01*
X7245Y13175D01*
X7445D01*
X7545Y13275D01*
Y13575D01*
Y13375D02*
X7745Y13175D01*
X7145Y12575D02*
Y12975D01*
X7445D01*
X7345Y12775D01*
Y12675D01*
X7445Y12575D01*
X7645D01*
X7745Y12675D01*
Y12875D01*
X7645Y12975D01*
X10065Y11585D02*
X9965Y11685D01*
Y11885D01*
X10065Y11985D01*
X10465D01*
X10565Y11885D01*
Y11685D01*
X10465Y11585D01*
X9965Y10985D02*
X10065Y11185D01*
X10265Y11385D01*
X10465D01*
X10565Y11285D01*
Y11085D01*
X10465Y10985D01*
X10365D01*
X10265Y11085D01*
Y11385D01*
X9965Y10386D02*
X10065Y10585D01*
X10265Y10785D01*
X10465D01*
X10565Y10685D01*
Y10485D01*
X10465Y10386D01*
X10365D01*
X10265Y10485D01*
Y10785D01*
X16565Y29365D02*
X16965D01*
Y29065D01*
X16765D01*
X16965D01*
Y28765D01*
X16365Y29365D02*
X16165D01*
X16265D01*
Y28765D01*
X16365D01*
X16165D01*
X15865Y29365D02*
Y28765D01*
X15565D01*
X15465Y28865D01*
Y29265D01*
X15565Y29365D01*
X15865D01*
X14966Y28765D02*
Y29365D01*
X15266Y29065D01*
X14866D01*
X17185Y5125D02*
X17585D01*
Y4825D01*
X17385D01*
X17585D01*
Y4525D01*
X16985Y5125D02*
X16785D01*
X16885D01*
Y4525D01*
X16985D01*
X16785D01*
X16485Y5125D02*
Y4525D01*
X16185D01*
X16085Y4625D01*
Y5025D01*
X16185Y5125D01*
X16485D01*
X15486D02*
X15886D01*
Y4825D01*
X15686Y4925D01*
X15586D01*
X15486Y4825D01*
Y4625D01*
X15586Y4525D01*
X15786D01*
X15886Y4625D01*
X755Y4975D02*
X1155D01*
Y4675D01*
X955D01*
X1155D01*
Y4375D01*
X555Y4975D02*
X355D01*
X455D01*
Y4375D01*
X555D01*
X355D01*
X55Y4975D02*
Y4375D01*
X-245D01*
X-345Y4475D01*
Y4875D01*
X-245Y4975D01*
X55D01*
X-944D02*
X-744Y4875D01*
X-544Y4675D01*
Y4475D01*
X-644Y4375D01*
X-844D01*
X-944Y4475D01*
Y4575D01*
X-844Y4675D01*
X-544D01*
D51*
X11685Y8D02*
X12355D01*
X12709D02*
Y1150D01*
X12355Y8D02*
X12709D01*
X12355Y-248D02*
Y8D01*
X11685Y-248D02*
X12355D01*
X11685D02*
Y8D01*
X11331D02*
X11685D01*
X11331D02*
Y1150D01*
X12709D01*
X4871Y1160D02*
X6249D01*
X4871Y18D02*
Y1160D01*
Y18D02*
X5225D01*
Y-238D02*
Y18D01*
Y-238D02*
X5895D01*
Y18D01*
X6249D01*
Y1160D01*
X5225Y18D02*
X5895D01*
D94*
X5148Y1900D02*
G03*
X5148Y1900I-20J0D01*
G01*
X11614Y1880D02*
G03*
X11614Y1880I-20J0D01*
G01*
M02*
