G04 Layer_Color=32896*
%FSLAX24Y24*%
%MOIN*%
G70*
G01*
G75*
%ADD44C,0.0060*%
%ADD54C,0.0040*%
%ADD96C,0.0010*%
%ADD98C,0.0039*%
%ADD185R,0.0138X0.0315*%
%ADD186R,0.0315X0.0138*%
%ADD187R,0.0118X0.0240*%
%ADD188R,0.0110X0.0240*%
%ADD189R,0.0118X0.0240*%
%ADD190R,0.0240X0.0118*%
%ADD191R,0.0240X0.0110*%
%ADD192R,0.0575X0.0295*%
%ADD193R,0.0575X0.0300*%
%ADD194R,0.0083X0.0137*%
%ADD195R,0.0080X0.0137*%
%ADD196R,0.0114X0.0317*%
%ADD197R,0.0240X0.0118*%
%ADD198R,0.0200X0.0200*%
D44*
X14054Y7390D02*
X14250D01*
X14054Y7212D02*
X14250D01*
X12225Y26350D02*
X12421D01*
X12225Y26172D02*
X12421D01*
X11961Y27220D02*
X12158D01*
X11961Y27398D02*
X12158D01*
X11965Y27010D02*
X12161D01*
X11965Y26832D02*
X12161D01*
X2420Y12214D02*
Y12410D01*
X2598Y12214D02*
Y12410D01*
X2420Y12974D02*
Y13170D01*
X2598Y12974D02*
Y13170D01*
X2590Y13730D02*
Y13926D01*
X2412Y13730D02*
Y13926D01*
X6152Y8180D02*
Y8376D01*
X6330Y8180D02*
Y8376D01*
X6378Y4234D02*
Y4430D01*
X6200Y4234D02*
Y4430D01*
X5762Y4020D02*
Y4216D01*
X5940Y4020D02*
Y4216D01*
X6662Y8180D02*
Y8376D01*
X6840Y8180D02*
Y8376D01*
X16341Y13945D02*
X16537D01*
X16341Y14124D02*
X16537D01*
X17400Y14082D02*
X17597D01*
X17400Y13904D02*
X17597D01*
X869Y20180D02*
Y20376D01*
X691Y20180D02*
Y20376D01*
X7161Y25826D02*
X7358D01*
X7161Y25648D02*
X7358D01*
X7161Y26218D02*
X7358D01*
X7161Y26040D02*
X7358D01*
X1301Y20184D02*
Y20380D01*
X1123Y20184D02*
Y20380D01*
X2231Y24254D02*
Y24450D01*
X2409Y24254D02*
Y24450D01*
X9991Y21563D02*
X10188D01*
X9991Y21742D02*
X10188D01*
X10708Y22290D02*
Y22486D01*
X10886Y22290D02*
Y22486D01*
X9391Y23436D02*
X9588D01*
X9391Y23258D02*
X9588D01*
X5569Y4633D02*
X5766D01*
X5569Y4811D02*
X5766D01*
X4921Y8182D02*
Y8379D01*
X4743Y8182D02*
Y8379D01*
X7958Y8174D02*
Y8370D01*
X7780Y8174D02*
Y8370D01*
X7558Y8174D02*
Y8370D01*
X7380Y8174D02*
Y8370D01*
X3893Y20040D02*
Y20236D01*
X3715Y20040D02*
Y20236D01*
X3723Y19011D02*
Y19207D01*
X3901Y19011D02*
Y19207D01*
X4303Y17721D02*
Y17917D01*
X4481Y17721D02*
Y17917D01*
X7259Y11130D02*
Y11326D01*
X7081Y11130D02*
Y11326D01*
X6468Y10630D02*
X6664D01*
X6468Y10452D02*
X6664D01*
X6470Y11240D02*
X6666D01*
X6470Y11418D02*
X6666D01*
X4597Y17109D02*
X4793D01*
X4597Y17287D02*
X4793D01*
X4597Y16719D02*
X4793D01*
X4597Y16897D02*
X4793D01*
X6464Y11024D02*
X6661D01*
X6464Y10846D02*
X6661D01*
X12383Y25220D02*
Y25416D01*
X12561Y25220D02*
Y25416D01*
X11973Y25220D02*
Y25416D01*
X12151Y25220D02*
Y25416D01*
X11529Y19113D02*
Y19309D01*
X11351Y19113D02*
Y19309D01*
X4811Y24128D02*
X5008D01*
X4811Y23950D02*
X5008D01*
X4759Y26514D02*
Y26710D01*
X4581Y26514D02*
Y26710D01*
X715Y24642D02*
X911D01*
X715Y24820D02*
X911D01*
X715Y24252D02*
X911D01*
X715Y24430D02*
X911D01*
X9147Y12220D02*
Y12417D01*
X9325Y12220D02*
Y12417D01*
X6774Y8148D02*
X6970D01*
X6774Y7970D02*
X6970D01*
X4279Y24256D02*
Y24453D01*
X4101Y24256D02*
Y24453D01*
X8865Y13190D02*
Y13386D01*
X8687Y13190D02*
Y13386D01*
X5240Y8850D02*
X5436D01*
X5240Y8672D02*
X5436D01*
X8827Y15324D02*
Y15520D01*
X8649Y15324D02*
Y15520D01*
X8257Y15320D02*
Y15516D01*
X8435Y15320D02*
Y15516D01*
X6497Y14540D02*
Y14736D01*
X6675Y14540D02*
Y14736D01*
X7657Y12750D02*
Y12946D01*
X7835Y12750D02*
Y12946D01*
X6277Y14544D02*
Y14740D01*
X6099Y14544D02*
Y14740D01*
X5990Y13810D02*
X6187D01*
X5990Y13988D02*
X6187D01*
X5987Y13580D02*
X6183D01*
X5987Y13402D02*
X6183D01*
X8017Y14760D02*
X8213D01*
X8017Y14582D02*
X8213D01*
X8020Y14200D02*
X8217D01*
X8020Y14378D02*
X8217D01*
X8917Y12224D02*
Y12420D01*
X8739Y12224D02*
Y12420D01*
X8057Y13520D02*
X8253D01*
X8057Y13342D02*
X8253D01*
X8377Y12224D02*
Y12420D01*
X8199Y12224D02*
Y12420D01*
X8056Y13748D02*
X8252D01*
X8056Y13926D02*
X8252D01*
X6480Y12110D02*
X6677D01*
X6480Y12288D02*
X6677D01*
X6387Y12800D02*
Y12996D01*
X6565Y12800D02*
Y12996D01*
X7647Y15324D02*
Y15520D01*
X7469Y15324D02*
Y15520D01*
X7867Y15320D02*
Y15516D01*
X8045Y15320D02*
Y15516D01*
X7077Y15304D02*
Y15500D01*
X6899Y15304D02*
Y15500D01*
X7077Y14840D02*
X7273D01*
X7077Y14662D02*
X7273D01*
X7067Y13044D02*
Y13240D01*
X6889Y13044D02*
Y13240D01*
X8305Y25348D02*
X8501D01*
X8305Y25526D02*
X8501D01*
X6811Y26924D02*
Y27120D01*
X6633Y26924D02*
Y27120D01*
X10661Y26538D02*
Y26734D01*
X10839Y26538D02*
Y26734D01*
X9075Y24060D02*
X9271D01*
X9075Y24238D02*
X9271D01*
X8991Y26538D02*
Y26734D01*
X9169Y26538D02*
Y26734D01*
X10791Y24838D02*
X10988D01*
X10791Y24659D02*
X10988D01*
X8511Y26538D02*
Y26734D01*
X8689Y26538D02*
Y26734D01*
X8251Y26914D02*
Y27110D01*
X8073Y26914D02*
Y27110D01*
X15969Y956D02*
Y1152D01*
X15790Y956D02*
Y1152D01*
X9522Y970D02*
Y1167D01*
X9344Y970D02*
Y1167D01*
X12103Y26573D02*
Y26769D01*
X12281Y26573D02*
Y26769D01*
X15171Y956D02*
Y1152D01*
X14993Y956D02*
Y1152D01*
X8724Y970D02*
Y1167D01*
X8546Y970D02*
Y1167D01*
X7826Y11930D02*
Y12126D01*
X7648Y11930D02*
Y12126D01*
X7421Y27212D02*
X7618D01*
X7421Y27390D02*
X7618D01*
X5729Y24256D02*
Y24453D01*
X5551Y24256D02*
Y24453D01*
X8345Y26148D02*
X8541D01*
X8345Y25970D02*
X8541D01*
D54*
X5204Y26818D02*
X5558D01*
X8760Y16718D02*
X9114D01*
X9811Y16732D02*
X10165D01*
X14268Y4583D02*
Y4937D01*
X5902Y10431D02*
Y10785D01*
X9695Y14900D02*
X10049D01*
X11616Y15779D02*
Y16133D01*
X5342Y10431D02*
Y10785D01*
X11041Y17148D02*
X11395D01*
X12922Y4773D02*
Y5127D01*
X9504Y4768D02*
X9858D01*
X5323Y27303D02*
Y27657D01*
X4684Y25545D02*
X5038D01*
X13593Y11983D02*
Y12337D01*
X13289Y8923D02*
Y9277D01*
X17794Y9282D02*
X18148D01*
X16182Y11092D02*
X16536D01*
X15590Y17603D02*
Y17957D01*
X8760Y16718D02*
X9114D01*
X9805Y16248D02*
X10159D01*
X6736Y10433D02*
Y10787D01*
X9315Y14604D02*
X9669D01*
X10768Y15779D02*
Y16133D01*
X5490Y11736D02*
X5844D01*
X11041Y17442D02*
X11395D01*
X12593Y5592D02*
X12947D01*
X5029Y27303D02*
Y27657D01*
X13593Y12993D02*
Y13347D01*
X13289Y9923D02*
Y10277D01*
X16389Y6394D02*
Y6749D01*
X4045Y10206D02*
X4400D01*
X7264Y26692D02*
X7618D01*
X3461Y19050D02*
Y19405D01*
X5364Y8316D02*
X5718D01*
X3124Y21588D02*
X3478D01*
X2854Y24204D02*
X3208D01*
X2854Y24764D02*
X3208D01*
X12359Y4774D02*
Y5128D01*
X10375Y4724D02*
Y5078D01*
X5025Y27599D02*
X5380D01*
X4704Y25821D02*
X5058D01*
X14505Y10043D02*
Y10397D01*
X15797Y16583D02*
Y16937D01*
X11967Y16579D02*
Y16934D01*
X17794Y8142D02*
X18148D01*
X16182Y12045D02*
X16536D01*
X14528Y12518D02*
Y12872D01*
X17520Y12478D02*
Y12833D01*
X14804Y11534D02*
X15158D01*
X16260Y14801D02*
X16615D01*
X4654Y24705D02*
X5008D01*
X15528Y6394D02*
Y6749D01*
X13722Y6393D02*
Y6747D01*
X14943Y6394D02*
Y6749D01*
X14358Y6394D02*
Y6749D01*
X17548Y6013D02*
Y6367D01*
X15411Y8350D02*
Y8705D01*
X17794Y8998D02*
X18148D01*
X14781Y8350D02*
Y8705D01*
X14151Y8350D02*
Y8705D01*
X16673Y8353D02*
Y8707D01*
X17611Y10267D02*
Y10567D01*
X18131Y10277D02*
Y10567D01*
X14546Y5012D02*
Y5312D01*
X15066Y5021D02*
Y5312D01*
X13596Y9677D02*
Y9977D01*
X14116Y9686D02*
Y9977D01*
X17670Y4730D02*
Y5030D01*
X18190Y4740D02*
Y5030D01*
X17408Y3661D02*
X17880D01*
X17408D02*
Y3979D01*
X17880D01*
Y3661D02*
Y3979D01*
X13329Y24813D02*
Y25167D01*
X4181Y24236D02*
Y24536D01*
X3661Y24236D02*
Y24527D01*
X16698Y6394D02*
Y6749D01*
X2020Y8773D02*
Y9127D01*
X1470Y8773D02*
Y9127D01*
X6461Y25450D02*
Y25740D01*
X5941Y25450D02*
Y25750D01*
D96*
X2781Y20610D02*
X3281D01*
X3031Y20360D02*
Y20860D01*
Y23430D02*
X3531D01*
X3281Y23180D02*
Y23680D01*
X7801Y2420D02*
X8301D01*
X8051Y2170D02*
Y2670D01*
X13201Y8240D02*
X13701D01*
X13451Y7990D02*
Y8490D01*
X14573Y14034D02*
X15073D01*
X14823Y13784D02*
Y14284D01*
X6001Y27670D02*
X6501D01*
X6251Y27420D02*
Y27920D01*
X12920Y3490D02*
Y3990D01*
X12670Y3740D02*
X13170D01*
X4871Y23470D02*
X5371D01*
X5121Y23220D02*
Y23720D01*
X17660Y7120D02*
X18160D01*
X17910Y6870D02*
Y7370D01*
X15660Y22030D02*
X16160D01*
X15910Y21780D02*
Y22280D01*
X16160Y24770D02*
X16660D01*
X16410Y24520D02*
Y25020D01*
X7380Y3770D02*
X7880D01*
X7630Y3520D02*
Y4020D01*
X9911Y19510D02*
X10411D01*
X10161Y19260D02*
Y19760D01*
X9931Y18500D02*
X10431D01*
X10181Y18250D02*
Y18750D01*
X5841Y21080D02*
X6341D01*
X6091Y20830D02*
Y21330D01*
X13540Y5650D02*
X14040D01*
X13790Y5400D02*
Y5900D01*
X15060Y24760D02*
X15560D01*
X15310Y24510D02*
Y25010D01*
X13910Y24760D02*
X14410D01*
X14160Y24510D02*
Y25010D01*
X540Y18470D02*
X1040D01*
X790Y18220D02*
Y18720D01*
X15851Y23140D02*
X16351D01*
X16101Y22890D02*
Y23390D01*
D98*
X5204Y26542D02*
X5558D01*
X8760Y16442D02*
X9114D01*
X9811Y17008D02*
X10165D01*
X13992Y4583D02*
Y4937D01*
X6177Y10431D02*
Y10785D01*
X9695Y15176D02*
X10049D01*
X11340Y15779D02*
Y16133D01*
X5618Y10431D02*
Y10785D01*
X11041Y16872D02*
X11395D01*
X13198Y4773D02*
Y5127D01*
X9504Y4492D02*
X9858D01*
X5599Y27303D02*
Y27657D01*
X4684Y25270D02*
X5038D01*
X13317Y11983D02*
Y12337D01*
X13013Y8923D02*
Y9277D01*
X17794Y9558D02*
X18148D01*
X16182Y11368D02*
X16536D01*
X15866Y17603D02*
Y17957D01*
X8760Y16442D02*
X9114D01*
X9805Y15972D02*
X10159D01*
X6461Y10433D02*
Y10787D01*
X9315Y14328D02*
X9669D01*
X11044Y15779D02*
Y16133D01*
X5490Y11460D02*
X5844D01*
X11041Y17718D02*
X11395D01*
X12593Y5868D02*
X12947D01*
X4753Y27303D02*
Y27657D01*
X13317Y12993D02*
Y13347D01*
X13013Y9923D02*
Y10277D01*
X16113Y6394D02*
Y6749D01*
X4045Y9930D02*
X4400D01*
X7264Y26968D02*
X7618D01*
X3185Y19050D02*
Y19405D01*
X5364Y8040D02*
X5718D01*
X3124Y21312D02*
X3478D01*
X2854Y23929D02*
X3208D01*
X2854Y24489D02*
X3208D01*
X12635Y4774D02*
Y5128D01*
X10651Y4724D02*
Y5078D01*
X5025Y27875D02*
X5380D01*
X4704Y25545D02*
X5058D01*
X14781Y10043D02*
Y10397D01*
X16072Y16583D02*
Y16937D01*
X12243Y16579D02*
Y16934D01*
X17794Y8418D02*
X18148D01*
X16182Y11770D02*
X16536D01*
X14804Y12518D02*
Y12872D01*
X17796Y12478D02*
Y12833D01*
X14804Y11809D02*
X15158D01*
X16260Y14526D02*
X16615D01*
X4654Y24429D02*
X5008D01*
X15804Y6394D02*
Y6749D01*
X13998Y6393D02*
Y6747D01*
X15219Y6394D02*
Y6749D01*
X14634Y6394D02*
Y6749D01*
X17272Y6013D02*
Y6367D01*
X15686Y8350D02*
Y8705D01*
X17794Y8722D02*
X18148D01*
X15057Y8350D02*
Y8705D01*
X14427Y8350D02*
Y8705D01*
X16949Y8353D02*
Y8707D01*
X13053Y24813D02*
Y25167D01*
X16974Y6394D02*
Y6749D01*
X1745Y8773D02*
Y9127D01*
X1195Y8773D02*
Y9127D01*
D185*
X5627Y26680D02*
D03*
X5135D02*
D03*
X8691Y16580D02*
D03*
X9183D02*
D03*
X10234Y16870D02*
D03*
X9742D02*
D03*
X9626Y15038D02*
D03*
X10118D02*
D03*
X11464Y17010D02*
D03*
X10972D02*
D03*
X9435Y4630D02*
D03*
X9927D02*
D03*
X5107Y25408D02*
D03*
X4615D02*
D03*
X18217Y9420D02*
D03*
X17725D02*
D03*
X16113Y11230D02*
D03*
X16605D02*
D03*
X8691Y16580D02*
D03*
X9183D02*
D03*
X10228Y16110D02*
D03*
X9736D02*
D03*
X9738Y14466D02*
D03*
X9246D02*
D03*
X5913Y11598D02*
D03*
X5421D02*
D03*
X10972Y17580D02*
D03*
X11464D02*
D03*
X12524Y5730D02*
D03*
X13016D02*
D03*
X4468Y10068D02*
D03*
X3976D02*
D03*
X7195Y26830D02*
D03*
X7687D02*
D03*
X5295Y8178D02*
D03*
X5787D02*
D03*
X3547Y21450D02*
D03*
X3055D02*
D03*
X2785Y24066D02*
D03*
X3277D02*
D03*
Y24626D02*
D03*
X2785D02*
D03*
X4956Y27737D02*
D03*
X5448D02*
D03*
X4635Y25683D02*
D03*
X5127D02*
D03*
X17725Y8280D02*
D03*
X18217D02*
D03*
X16113Y11908D02*
D03*
X16605D02*
D03*
X14735Y11671D02*
D03*
X15227D02*
D03*
X16191Y14664D02*
D03*
X16684D02*
D03*
X5077Y24567D02*
D03*
X4585D02*
D03*
X17725Y8860D02*
D03*
X18217D02*
D03*
D186*
X14130Y5006D02*
D03*
X14130Y4514D02*
D03*
X6040Y10362D02*
D03*
X6040Y10854D02*
D03*
X11478Y16202D02*
D03*
X11478Y15710D02*
D03*
X5480Y10854D02*
D03*
X5480Y10362D02*
D03*
X13060Y5196D02*
D03*
X13060Y4704D02*
D03*
X5461Y27234D02*
D03*
X5461Y27726D02*
D03*
X13455Y12406D02*
D03*
X13455Y11914D02*
D03*
X13151Y8854D02*
D03*
X13151Y9346D02*
D03*
X15728Y17534D02*
D03*
X15728Y18026D02*
D03*
X6599Y10856D02*
D03*
X6599Y10364D02*
D03*
X10906Y15710D02*
D03*
X10906Y16202D02*
D03*
X4891Y27234D02*
D03*
X4891Y27726D02*
D03*
X13455Y13416D02*
D03*
X13455Y12924D02*
D03*
X13151Y9854D02*
D03*
X13151Y10346D02*
D03*
X16251Y6818D02*
D03*
X16251Y6326D02*
D03*
X3323Y18981D02*
D03*
X3323Y19473D02*
D03*
X12497Y5197D02*
D03*
X12497Y4705D02*
D03*
X10513Y4655D02*
D03*
X10513Y5147D02*
D03*
X14643Y9974D02*
D03*
X14643Y10466D02*
D03*
X15935Y17006D02*
D03*
X15935Y16514D02*
D03*
X12105Y16510D02*
D03*
X12105Y17003D02*
D03*
X14666Y12941D02*
D03*
X14666Y12449D02*
D03*
X17658Y12410D02*
D03*
X17658Y12902D02*
D03*
X15666Y6818D02*
D03*
Y6326D02*
D03*
X13860Y6816D02*
D03*
Y6324D02*
D03*
X15081Y6818D02*
D03*
Y6326D02*
D03*
X14496Y6325D02*
D03*
Y6818D02*
D03*
X17410Y6436D02*
D03*
Y5944D02*
D03*
X15549Y8281D02*
D03*
X15549Y8773D02*
D03*
X14919Y8282D02*
D03*
Y8774D02*
D03*
X14289Y8281D02*
D03*
X14289Y8773D02*
D03*
X16811Y8284D02*
D03*
Y8776D02*
D03*
X13191Y24744D02*
D03*
Y25236D02*
D03*
X16836Y6326D02*
D03*
Y6818D02*
D03*
X1883Y8704D02*
D03*
Y9196D02*
D03*
X1332Y8704D02*
D03*
Y9196D02*
D03*
D187*
X13991Y7300D02*
D03*
X9929Y21652D02*
D03*
X5828Y4723D02*
D03*
X6405Y10540D02*
D03*
X6729Y11330D02*
D03*
X5070Y24040D02*
D03*
X652Y24730D02*
D03*
Y24340D02*
D03*
X6711Y8060D02*
D03*
X5499Y8760D02*
D03*
X5928Y13900D02*
D03*
X6246Y13490D02*
D03*
X8276Y14670D02*
D03*
X7958Y14290D02*
D03*
X8316Y13430D02*
D03*
X7993Y13838D02*
D03*
X6418Y12200D02*
D03*
X7336Y14750D02*
D03*
X8242Y25438D02*
D03*
X9012Y24150D02*
D03*
X11050Y24748D02*
D03*
X7680Y27300D02*
D03*
X8282Y26060D02*
D03*
D188*
X14315Y7300D02*
D03*
X12486Y26260D02*
D03*
X11896Y27310D02*
D03*
X12226Y26920D02*
D03*
X16602Y14034D02*
D03*
X17335Y13994D02*
D03*
X7096Y25738D02*
D03*
X7096Y26130D02*
D03*
X10253Y21652D02*
D03*
X9326Y23348D02*
D03*
X5504Y4723D02*
D03*
X6729Y10540D02*
D03*
X6405Y11330D02*
D03*
X4858Y17197D02*
D03*
Y16807D02*
D03*
X6399Y10936D02*
D03*
X4746Y24040D02*
D03*
X976Y24730D02*
D03*
Y24340D02*
D03*
X7035Y8060D02*
D03*
X5175Y8760D02*
D03*
X6252Y13900D02*
D03*
X5922Y13490D02*
D03*
X7952Y14670D02*
D03*
X8282Y14290D02*
D03*
X7992Y13430D02*
D03*
X8317Y13838D02*
D03*
X6742Y12200D02*
D03*
X7012Y14750D02*
D03*
X8566Y25438D02*
D03*
X9336Y24150D02*
D03*
X10726Y24748D02*
D03*
X7356Y27300D02*
D03*
X8606Y26060D02*
D03*
D189*
X12162Y26260D02*
D03*
X12220Y27310D02*
D03*
X11902Y26920D02*
D03*
X16278Y14034D02*
D03*
X17660Y13994D02*
D03*
X7420Y25738D02*
D03*
X7420Y26130D02*
D03*
X9650Y23348D02*
D03*
X4534Y17197D02*
D03*
Y16807D02*
D03*
X6723Y10936D02*
D03*
D190*
X2510Y12151D02*
D03*
Y12911D02*
D03*
X2500Y13989D02*
D03*
X6240Y8439D02*
D03*
X6290Y4171D02*
D03*
X5850Y4279D02*
D03*
X6750Y8439D02*
D03*
X781Y20439D02*
D03*
X2321Y24191D02*
D03*
X10797Y22549D02*
D03*
X4831Y8441D02*
D03*
X3803Y20299D02*
D03*
X3813Y18949D02*
D03*
X4393Y17658D02*
D03*
X7169Y11389D02*
D03*
X4671Y26451D02*
D03*
X9237Y12479D02*
D03*
X8737Y15261D02*
D03*
X8347Y15579D02*
D03*
X6587Y14799D02*
D03*
X7747Y13009D02*
D03*
X6187Y14481D02*
D03*
X8827Y12161D02*
D03*
X8287Y12161D02*
D03*
X6477Y13059D02*
D03*
X7557Y15261D02*
D03*
X7957Y15579D02*
D03*
X6987Y15241D02*
D03*
X6977Y12981D02*
D03*
X6721Y26861D02*
D03*
X10751Y26796D02*
D03*
X9081D02*
D03*
X8601D02*
D03*
X8161Y26851D02*
D03*
X7738Y12189D02*
D03*
D191*
X2510Y12475D02*
D03*
Y13235D02*
D03*
X2500Y13665D02*
D03*
X6240Y8115D02*
D03*
X6290Y4495D02*
D03*
X5850Y3955D02*
D03*
X6750Y8115D02*
D03*
X781Y20115D02*
D03*
X1211Y20445D02*
D03*
X2321Y24515D02*
D03*
X10797Y22225D02*
D03*
X4831Y8117D02*
D03*
X7870Y8435D02*
D03*
X7470Y8435D02*
D03*
X3803Y19975D02*
D03*
X3813Y19272D02*
D03*
X4393Y17982D02*
D03*
X7169Y11065D02*
D03*
X12471Y25155D02*
D03*
X12061Y25155D02*
D03*
X11441Y19374D02*
D03*
X4671Y26775D02*
D03*
X9237Y12155D02*
D03*
X4191Y24191D02*
D03*
X8777Y13125D02*
D03*
X8737Y15585D02*
D03*
X8347Y15255D02*
D03*
X6587Y14475D02*
D03*
X7747Y12685D02*
D03*
X6187Y14805D02*
D03*
X8827Y12485D02*
D03*
X8287Y12485D02*
D03*
X6477Y12735D02*
D03*
X7557Y15585D02*
D03*
X7957Y15255D02*
D03*
X6987Y15565D02*
D03*
X6977Y13305D02*
D03*
X6721Y27185D02*
D03*
X10751Y26473D02*
D03*
X9081D02*
D03*
X8601D02*
D03*
X8161Y27175D02*
D03*
X15880Y891D02*
D03*
X9434Y905D02*
D03*
X12191Y26834D02*
D03*
X15083Y891D02*
D03*
X8636Y905D02*
D03*
X7738Y11865D02*
D03*
X5641Y24191D02*
D03*
D192*
X17869Y10135D02*
D03*
X14804Y4879D02*
D03*
X13853Y9544D02*
D03*
X17927Y4598D02*
D03*
X3924Y24669D02*
D03*
X6199Y25882D02*
D03*
D193*
X17869Y10707D02*
D03*
X14804Y5451D02*
D03*
X13853Y10117D02*
D03*
X17927Y5170D02*
D03*
X3924Y24096D02*
D03*
X6199Y25310D02*
D03*
D194*
X17902Y3820D02*
D03*
D195*
X17388D02*
D03*
D196*
X17823Y3820D02*
D03*
D197*
X1211Y20121D02*
D03*
X7870Y8111D02*
D03*
X7470Y8111D02*
D03*
X12471Y25479D02*
D03*
X12061Y25479D02*
D03*
X11441Y19050D02*
D03*
X4191Y24516D02*
D03*
X8777Y13449D02*
D03*
X15880Y1215D02*
D03*
X9434Y1229D02*
D03*
X12191Y26510D02*
D03*
X15083Y1215D02*
D03*
X8636Y1229D02*
D03*
X5641Y24516D02*
D03*
D198*
X12521Y19440D02*
D03*
Y18440D02*
D03*
X13521Y19440D02*
D03*
Y18440D02*
D03*
X14521D02*
D03*
Y19440D02*
D03*
M02*
