G04 Layer_Color=65535*
%FSLAX24Y24*%
%MOIN*%
G70*
G01*
G75*
%ADD44C,0.0080*%
%ADD48C,0.0050*%
%ADD49C,0.0100*%
%ADD50C,0.0060*%
%ADD53C,0.0070*%
%ADD55C,0.0160*%
%ADD94C,0.0098*%
%ADD95C,0.0236*%
%ADD96C,0.0010*%
%ADD97C,0.0098*%
%ADD98C,0.0039*%
%ADD99C,0.0079*%
D44*
X2506Y22901D02*
G03*
X2506Y22901I-31J0D01*
G01*
X-388Y10153D02*
X3362D01*
Y4247D02*
Y10153D01*
X-388Y4247D02*
X3362D01*
X-388D02*
Y10153D01*
X6Y4493D02*
Y9956D01*
X-443Y23854D02*
X-384Y23913D01*
X-325Y23854D01*
X1752D01*
Y20901D02*
Y23854D01*
X-443Y23618D02*
X-335D01*
Y23746D01*
X-443Y23854D02*
X-335Y23746D01*
X-443Y20901D02*
X-335Y21009D01*
Y21137D01*
X-443Y20901D02*
X-384Y20842D01*
X-443Y21137D02*
X-335D01*
X39Y21019D02*
Y23736D01*
X-443Y21137D02*
X-443Y21137D01*
X-443Y21137D02*
Y23618D01*
X-325Y20901D02*
X1752D01*
X-384Y20842D02*
X-325Y20901D01*
X2753Y18642D02*
X4013D01*
X2753Y16673D02*
Y18642D01*
Y16673D02*
X4013D01*
Y18642D01*
D48*
X9219Y21992D02*
X10479D01*
Y22984D01*
X9219D02*
X10479D01*
X9219Y21992D02*
Y22984D01*
D49*
X8887Y12175D02*
G03*
X8887Y12175I-56J0D01*
G01*
X1253Y11417D02*
X1922D01*
Y14961D01*
X1253D02*
X1922D01*
X1253Y11417D02*
Y14961D01*
X5879Y12372D02*
X8635D01*
X5879D02*
Y15128D01*
X8635D01*
Y12372D02*
Y15128D01*
X4274Y22281D02*
Y22754D01*
X3486D02*
X4274D01*
X3486Y22281D02*
Y22754D01*
Y22281D02*
X4274D01*
X3291Y13010D02*
X3191Y13110D01*
X2991D01*
X2891Y13010D01*
Y12610D01*
X2991Y12510D01*
X3191D01*
X3291Y12610D01*
X3791Y12510D02*
Y13110D01*
X3491Y12810D01*
X3891D01*
D50*
X12271Y19940D02*
X12771D01*
X12021Y18190D02*
Y19690D01*
Y18190D02*
X12271Y17940D01*
X12771D01*
X13021Y18190D01*
X12021Y19690D02*
X12271Y19940D01*
X12771D02*
X13021Y19690D01*
X14271Y19940D02*
X14771D01*
X13271D02*
X13771D01*
X13021Y18190D02*
Y19690D01*
X14021Y18190D02*
Y19690D01*
X13021Y18190D02*
X13271Y17940D01*
X13771D01*
X14021Y18190D01*
X14271Y17940D01*
X14771D01*
X15021Y18190D01*
Y19690D01*
X13021D02*
X13271Y19940D01*
X13771D02*
X14021Y19690D01*
X14271Y19940D01*
X14771D02*
X15021Y19690D01*
D53*
X5700Y24140D02*
X5380D01*
Y24300D01*
X5433Y24353D01*
X5540D01*
X5593Y24300D01*
Y24140D01*
Y24247D02*
X5700Y24353D01*
X5433Y24460D02*
X5380Y24513D01*
Y24620D01*
X5433Y24673D01*
X5487D01*
X5540Y24620D01*
Y24567D01*
Y24620D01*
X5593Y24673D01*
X5647D01*
X5700Y24620D01*
Y24513D01*
X5647Y24460D01*
X5380Y24993D02*
Y24780D01*
X5540D01*
X5487Y24886D01*
Y24940D01*
X5540Y24993D01*
X5647D01*
X5700Y24940D01*
Y24833D01*
X5647Y24780D01*
X13460Y6220D02*
X13140D01*
Y6380D01*
X13193Y6433D01*
X13300D01*
X13353Y6380D01*
Y6220D01*
Y6327D02*
X13460Y6433D01*
X13193Y6540D02*
X13140Y6593D01*
Y6700D01*
X13193Y6753D01*
X13247D01*
X13300Y6700D01*
Y6647D01*
Y6700D01*
X13353Y6753D01*
X13407D01*
X13460Y6700D01*
Y6593D01*
X13407Y6540D01*
X13460Y7020D02*
X13140D01*
X13300Y6860D01*
Y7073D01*
X11920Y6210D02*
X11600D01*
Y6370D01*
X11653Y6423D01*
X11760D01*
X11813Y6370D01*
Y6210D01*
Y6317D02*
X11920Y6423D01*
X11653Y6530D02*
X11600Y6583D01*
Y6690D01*
X11653Y6743D01*
X11707D01*
X11760Y6690D01*
Y6637D01*
Y6690D01*
X11813Y6743D01*
X11867D01*
X11920Y6690D01*
Y6583D01*
X11867Y6530D01*
X11653Y6850D02*
X11600Y6903D01*
Y7010D01*
X11653Y7063D01*
X11867D01*
X11920Y7010D01*
Y6903D01*
X11867Y6850D01*
X11653D01*
X12920Y6220D02*
X12600D01*
Y6380D01*
X12653Y6433D01*
X12760D01*
X12813Y6380D01*
Y6220D01*
Y6327D02*
X12920Y6433D01*
Y6753D02*
Y6540D01*
X12707Y6753D01*
X12653D01*
X12600Y6700D01*
Y6593D01*
X12653Y6540D01*
X12867Y6860D02*
X12920Y6913D01*
Y7020D01*
X12867Y7073D01*
X12653D01*
X12600Y7020D01*
Y6913D01*
X12653Y6860D01*
X12707D01*
X12760Y6913D01*
Y7073D01*
X13983Y7817D02*
X13930Y7870D01*
X13823D01*
X13770Y7817D01*
Y7603D01*
X13823Y7550D01*
X13930D01*
X13983Y7603D01*
X14090Y7870D02*
X14303D01*
Y7817D01*
X14090Y7603D01*
Y7550D01*
X14410Y7870D02*
X14623D01*
Y7817D01*
X14410Y7603D01*
Y7550D01*
X11800Y25760D02*
X11480D01*
Y25920D01*
X11533Y25973D01*
X11640D01*
X11693Y25920D01*
Y25760D01*
Y25867D02*
X11800Y25973D01*
X11533Y26080D02*
X11480Y26133D01*
Y26240D01*
X11533Y26293D01*
X11587D01*
X11640Y26240D01*
Y26187D01*
Y26240D01*
X11693Y26293D01*
X11747D01*
X11800Y26240D01*
Y26133D01*
X11747Y26080D01*
X11533Y26400D02*
X11480Y26453D01*
Y26560D01*
X11533Y26613D01*
X11587D01*
X11640Y26560D01*
Y26506D01*
Y26560D01*
X11693Y26613D01*
X11747D01*
X11800Y26560D01*
Y26453D01*
X11747Y26400D01*
X11520Y28110D02*
Y28430D01*
X11680D01*
X11733Y28377D01*
Y28270D01*
X11680Y28217D01*
X11520D01*
X11627D02*
X11733Y28110D01*
X12053D02*
X11840D01*
X12053Y28323D01*
Y28377D01*
X12000Y28430D01*
X11893D01*
X11840Y28377D01*
X12373Y28430D02*
X12266Y28377D01*
X12160Y28270D01*
Y28163D01*
X12213Y28110D01*
X12320D01*
X12373Y28163D01*
Y28217D01*
X12320Y28270D01*
X12160D01*
X11520Y27610D02*
Y27930D01*
X11680D01*
X11733Y27877D01*
Y27770D01*
X11680Y27717D01*
X11520D01*
X11627D02*
X11733Y27610D01*
X12053D02*
X11840D01*
X12053Y27823D01*
Y27877D01*
X12000Y27930D01*
X11893D01*
X11840Y27877D01*
X12160Y27610D02*
X12266D01*
X12213D01*
Y27930D01*
X12160Y27877D01*
X2873Y11803D02*
X2820Y11750D01*
Y11643D01*
X2873Y11590D01*
X3087D01*
X3140Y11643D01*
Y11750D01*
X3087Y11803D01*
X2820Y11910D02*
Y12123D01*
X2873D01*
X3087Y11910D01*
X3140D01*
X2820Y12443D02*
Y12230D01*
X2980D01*
X2927Y12336D01*
Y12390D01*
X2980Y12443D01*
X3087D01*
X3140Y12390D01*
Y12283D01*
X3087Y12230D01*
X2873Y12853D02*
X2820Y12800D01*
Y12693D01*
X2873Y12640D01*
X3087D01*
X3140Y12693D01*
Y12800D01*
X3087Y12853D01*
X2820Y12960D02*
Y13173D01*
X2873D01*
X3087Y12960D01*
X3140D01*
X2873Y13280D02*
X2820Y13333D01*
Y13440D01*
X2873Y13493D01*
X2927D01*
X2980Y13440D01*
Y13386D01*
Y13440D01*
X3033Y13493D01*
X3087D01*
X3140Y13440D01*
Y13333D01*
X3087Y13280D01*
X2863Y13933D02*
X2810Y13880D01*
Y13773D01*
X2863Y13720D01*
X3077D01*
X3130Y13773D01*
Y13880D01*
X3077Y13933D01*
X2810Y14040D02*
Y14253D01*
X2863D01*
X3077Y14040D01*
X3130D01*
Y14360D02*
Y14466D01*
Y14413D01*
X2810D01*
X2863Y14360D01*
X17853Y27580D02*
X17640D01*
Y27420D01*
X17747D01*
X17640D01*
Y27260D01*
X17960Y27580D02*
X18067D01*
X18013D01*
Y27260D01*
X17960D01*
X18067D01*
X18226Y27580D02*
Y27260D01*
X18386D01*
X18440Y27313D01*
Y27527D01*
X18386Y27580D01*
X18226D01*
X18546Y27527D02*
X18600Y27580D01*
X18706D01*
X18760Y27527D01*
Y27473D01*
X18706Y27420D01*
X18653D01*
X18706D01*
X18760Y27367D01*
Y27313D01*
X18706Y27260D01*
X18600D01*
X18546Y27313D01*
X17413Y3510D02*
X17200D01*
Y3350D01*
X17307D01*
X17200D01*
Y3190D01*
X17520Y3510D02*
X17627D01*
X17573D01*
Y3190D01*
X17520D01*
X17627D01*
X17786Y3510D02*
Y3190D01*
X17946D01*
X18000Y3243D01*
Y3457D01*
X17946Y3510D01*
X17786D01*
X18320Y3190D02*
X18106D01*
X18320Y3403D01*
Y3457D01*
X18266Y3510D01*
X18160D01*
X18106Y3457D01*
X1413Y3520D02*
X1200D01*
Y3360D01*
X1307D01*
X1200D01*
Y3200D01*
X1520Y3520D02*
X1627D01*
X1573D01*
Y3200D01*
X1520D01*
X1627D01*
X1786Y3520D02*
Y3200D01*
X1946D01*
X2000Y3253D01*
Y3467D01*
X1946Y3520D01*
X1786D01*
X2106Y3200D02*
X2213D01*
X2160D01*
Y3520D01*
X2106Y3467D01*
X5443Y9173D02*
X5390Y9120D01*
Y9013D01*
X5443Y8960D01*
X5657D01*
X5710Y9013D01*
Y9120D01*
X5657Y9173D01*
X5390Y9280D02*
Y9493D01*
X5443D01*
X5657Y9280D01*
X5710D01*
X5443Y9600D02*
X5390Y9653D01*
Y9760D01*
X5443Y9813D01*
X5657D01*
X5710Y9760D01*
Y9653D01*
X5657Y9600D01*
X5443D01*
X6183Y2823D02*
X6130Y2770D01*
Y2663D01*
X6183Y2610D01*
X6397D01*
X6450Y2663D01*
Y2770D01*
X6397Y2823D01*
X6130Y3143D02*
X6183Y3037D01*
X6290Y2930D01*
X6397D01*
X6450Y2983D01*
Y3090D01*
X6397Y3143D01*
X6343D01*
X6290Y3090D01*
Y2930D01*
X6397Y3250D02*
X6450Y3303D01*
Y3410D01*
X6397Y3463D01*
X6183D01*
X6130Y3410D01*
Y3303D01*
X6183Y3250D01*
X6237D01*
X6290Y3303D01*
Y3463D01*
X5723Y2823D02*
X5670Y2770D01*
Y2663D01*
X5723Y2610D01*
X5937D01*
X5990Y2663D01*
Y2770D01*
X5937Y2823D01*
X5670Y3143D02*
X5723Y3037D01*
X5830Y2930D01*
X5937D01*
X5990Y2983D01*
Y3090D01*
X5937Y3143D01*
X5883D01*
X5830Y3090D01*
Y2930D01*
X5723Y3250D02*
X5670Y3303D01*
Y3410D01*
X5723Y3463D01*
X5777D01*
X5830Y3410D01*
X5883Y3463D01*
X5937D01*
X5990Y3410D01*
Y3303D01*
X5937Y3250D01*
X5883D01*
X5830Y3303D01*
X5777Y3250D01*
X5723D01*
X5830Y3303D02*
Y3410D01*
X5943Y9173D02*
X5890Y9120D01*
Y9013D01*
X5943Y8960D01*
X6157D01*
X6210Y9013D01*
Y9120D01*
X6157Y9173D01*
X5890Y9493D02*
X5943Y9387D01*
X6050Y9280D01*
X6157D01*
X6210Y9333D01*
Y9440D01*
X6157Y9493D01*
X6103D01*
X6050Y9440D01*
Y9280D01*
X5890Y9600D02*
Y9813D01*
X5943D01*
X6157Y9600D01*
X6210D01*
X7956Y27602D02*
Y27336D01*
X8009Y27283D01*
X8116D01*
X8169Y27336D01*
Y27602D01*
X8276Y27336D02*
X8329Y27283D01*
X8436D01*
X8489Y27336D01*
Y27549D01*
X8436Y27602D01*
X8329D01*
X8276Y27549D01*
Y27496D01*
X8329Y27443D01*
X8489D01*
X12390Y6240D02*
X12070D01*
Y6400D01*
X12123Y6453D01*
X12230D01*
X12283Y6400D01*
Y6240D01*
Y6347D02*
X12390Y6453D01*
Y6560D02*
Y6667D01*
Y6613D01*
X12070D01*
X12123Y6560D01*
Y6826D02*
X12070Y6880D01*
Y6986D01*
X12123Y7040D01*
X12177D01*
X12230Y6986D01*
Y6933D01*
Y6986D01*
X12283Y7040D01*
X12337D01*
X12390Y6986D01*
Y6880D01*
X12337Y6826D01*
X17770Y6040D02*
Y6360D01*
X17930D01*
X17983Y6307D01*
Y6200D01*
X17930Y6147D01*
X17770D01*
X17877D02*
X17983Y6040D01*
X18090D02*
X18197D01*
X18143D01*
Y6360D01*
X18090Y6307D01*
X18356D02*
X18410Y6360D01*
X18516D01*
X18570Y6307D01*
Y6093D01*
X18516Y6040D01*
X18410D01*
X18356Y6093D01*
Y6307D01*
X16233Y15267D02*
X16180Y15320D01*
X16073D01*
X16020Y15267D01*
Y15053D01*
X16073Y15000D01*
X16180D01*
X16233Y15053D01*
X16340Y15000D02*
X16447D01*
X16393D01*
Y15320D01*
X16340Y15267D01*
X16820Y15000D02*
X16606D01*
X16820Y15213D01*
Y15267D01*
X16766Y15320D01*
X16660D01*
X16606Y15267D01*
X17140Y4470D02*
X17407D01*
X17460Y4523D01*
Y4630D01*
X17407Y4683D01*
X17140D01*
X17193Y4790D02*
X17140Y4843D01*
Y4950D01*
X17193Y5003D01*
X17247D01*
X17300Y4950D01*
Y4897D01*
Y4950D01*
X17353Y5003D01*
X17407D01*
X17460Y4950D01*
Y4843D01*
X17407Y4790D01*
X15130Y12280D02*
Y12013D01*
X15183Y11960D01*
X15290D01*
X15343Y12013D01*
Y12280D01*
X15663Y11960D02*
X15450D01*
X15663Y12173D01*
Y12227D01*
X15610Y12280D01*
X15503D01*
X15450Y12227D01*
X15577Y10948D02*
Y10681D01*
X15631Y10628D01*
X15737D01*
X15791Y10681D01*
Y10948D01*
X15897Y10628D02*
X16004D01*
X15951D01*
Y10948D01*
X15897Y10894D01*
X15430Y13870D02*
Y14190D01*
X15590D01*
X15643Y14137D01*
Y14030D01*
X15590Y13977D01*
X15430D01*
X15537D02*
X15643Y13870D01*
X15750Y14137D02*
X15803Y14190D01*
X15910D01*
X15963Y14137D01*
Y14083D01*
X15910Y14030D01*
X15963Y13977D01*
Y13923D01*
X15910Y13870D01*
X15803D01*
X15750Y13923D01*
Y13977D01*
X15803Y14030D01*
X15750Y14083D01*
Y14137D01*
X15803Y14030D02*
X15910D01*
X18130Y13758D02*
Y14078D01*
X18290D01*
X18344Y14025D01*
Y13918D01*
X18290Y13865D01*
X18130D01*
X18237D02*
X18344Y13758D01*
X18450Y14078D02*
X18664D01*
Y14025D01*
X18450Y13811D01*
Y13758D01*
X15000Y7650D02*
Y7970D01*
X15160D01*
X15213Y7917D01*
Y7810D01*
X15160Y7757D01*
X15000D01*
X15107D02*
X15213Y7650D01*
X15320D02*
X15427D01*
X15373D01*
Y7970D01*
X15320Y7917D01*
X15800Y7970D02*
X15586D01*
Y7810D01*
X15693Y7863D01*
X15746D01*
X15800Y7810D01*
Y7703D01*
X15746Y7650D01*
X15640D01*
X15586Y7703D01*
X18660Y8340D02*
Y8660D01*
X18820D01*
X18873Y8607D01*
Y8500D01*
X18820Y8447D01*
X18660D01*
X18767D02*
X18873Y8340D01*
X19140D02*
Y8660D01*
X18980Y8500D01*
X19193D01*
X14900Y9040D02*
X14580D01*
Y9200D01*
X14633Y9253D01*
X14740D01*
X14793Y9200D01*
Y9040D01*
Y9147D02*
X14900Y9253D01*
X14633Y9360D02*
X14580Y9413D01*
Y9520D01*
X14633Y9573D01*
X14687D01*
X14740Y9520D01*
Y9467D01*
Y9520D01*
X14793Y9573D01*
X14847D01*
X14900Y9520D01*
Y9413D01*
X14847Y9360D01*
X13950Y8520D02*
X13630D01*
Y8680D01*
X13683Y8733D01*
X13790D01*
X13843Y8680D01*
Y8520D01*
Y8627D02*
X13950Y8733D01*
Y9053D02*
Y8840D01*
X13737Y9053D01*
X13683D01*
X13630Y9000D01*
Y8893D01*
X13683Y8840D01*
X16490Y8440D02*
X16170D01*
Y8600D01*
X16223Y8653D01*
X16330D01*
X16383Y8600D01*
Y8440D01*
Y8547D02*
X16490Y8653D01*
Y8760D02*
Y8867D01*
Y8813D01*
X16170D01*
X16223Y8760D01*
X14900Y3650D02*
Y3330D01*
X15113D01*
X15220D02*
X15327D01*
X15273D01*
Y3650D01*
X15220Y3597D01*
X3843Y4560D02*
X3737D01*
X3790D01*
Y4293D01*
X3737Y4240D01*
X3683D01*
X3630Y4293D01*
X3950Y4240D02*
X4057D01*
X4003D01*
Y4560D01*
X3950Y4507D01*
X18373Y10443D02*
X18320Y10390D01*
Y10283D01*
X18373Y10230D01*
X18587D01*
X18640Y10283D01*
Y10390D01*
X18587Y10443D01*
X18640Y10710D02*
X18320D01*
X18480Y10550D01*
Y10763D01*
X18320Y11083D02*
Y10870D01*
X18480D01*
X18427Y10976D01*
Y11030D01*
X18480Y11083D01*
X18587D01*
X18640Y11030D01*
Y10923D01*
X18587Y10870D01*
X14773Y4337D02*
X14720Y4390D01*
X14613D01*
X14560Y4337D01*
Y4123D01*
X14613Y4070D01*
X14720D01*
X14773Y4123D01*
X14880Y4070D02*
X14987D01*
X14933D01*
Y4390D01*
X14880Y4337D01*
X15146Y4070D02*
X15253D01*
X15200D01*
Y4390D01*
X15146Y4337D01*
X12503Y9583D02*
X12450Y9530D01*
Y9423D01*
X12503Y9370D01*
X12717D01*
X12770Y9423D01*
Y9530D01*
X12717Y9583D01*
X12770Y9690D02*
Y9797D01*
Y9743D01*
X12450D01*
X12503Y9690D01*
Y9956D02*
X12450Y10010D01*
Y10116D01*
X12503Y10170D01*
X12717D01*
X12770Y10116D01*
Y10010D01*
X12717Y9956D01*
X12503D01*
X18613Y5567D02*
X18560Y5620D01*
X18453D01*
X18400Y5567D01*
Y5353D01*
X18453Y5300D01*
X18560D01*
X18613Y5353D01*
X18720D02*
X18773Y5300D01*
X18880D01*
X18933Y5353D01*
Y5567D01*
X18880Y5620D01*
X18773D01*
X18720Y5567D01*
Y5513D01*
X18773Y5460D01*
X18933D01*
X15143Y11297D02*
X15090Y11350D01*
X14983D01*
X14930Y11297D01*
Y11083D01*
X14983Y11030D01*
X15090D01*
X15143Y11083D01*
X15250Y11297D02*
X15303Y11350D01*
X15410D01*
X15463Y11297D01*
Y11243D01*
X15410Y11190D01*
X15463Y11137D01*
Y11083D01*
X15410Y11030D01*
X15303D01*
X15250Y11083D01*
Y11137D01*
X15303Y11190D01*
X15250Y11243D01*
Y11297D01*
X15303Y11190D02*
X15410D01*
X18163Y12553D02*
X18110Y12500D01*
Y12393D01*
X18163Y12340D01*
X18377D01*
X18430Y12393D01*
Y12500D01*
X18377Y12553D01*
X18110Y12660D02*
Y12873D01*
X18163D01*
X18377Y12660D01*
X18430D01*
X14043Y12633D02*
X13990Y12580D01*
Y12473D01*
X14043Y12420D01*
X14257D01*
X14310Y12473D01*
Y12580D01*
X14257Y12633D01*
X13990Y12953D02*
X14043Y12847D01*
X14150Y12740D01*
X14257D01*
X14310Y12793D01*
Y12900D01*
X14257Y12953D01*
X14203D01*
X14150Y12900D01*
Y12740D01*
X17133Y12017D02*
X17080Y12070D01*
X16973D01*
X16920Y12017D01*
Y11803D01*
X16973Y11750D01*
X17080D01*
X17133Y11803D01*
X17453Y12070D02*
X17240D01*
Y11910D01*
X17347Y11963D01*
X17400D01*
X17453Y11910D01*
Y11803D01*
X17400Y11750D01*
X17293D01*
X17240Y11803D01*
X18693Y7997D02*
X18640Y8050D01*
X18533D01*
X18480Y7997D01*
Y7783D01*
X18533Y7730D01*
X18640D01*
X18693Y7783D01*
X18800Y7730D02*
X18907D01*
X18853D01*
Y8050D01*
X18800Y7997D01*
X19226Y7730D02*
Y8050D01*
X19066Y7890D01*
X19280D01*
X11963Y15853D02*
X11910Y15800D01*
Y15693D01*
X11963Y15640D01*
X12177D01*
X12230Y15693D01*
Y15800D01*
X12177Y15853D01*
X11963Y15960D02*
X11910Y16013D01*
Y16120D01*
X11963Y16173D01*
X12017D01*
X12070Y16120D01*
Y16067D01*
Y16120D01*
X12123Y16173D01*
X12177D01*
X12230Y16120D01*
Y16013D01*
X12177Y15960D01*
X16323Y16643D02*
X16270Y16590D01*
Y16483D01*
X16323Y16430D01*
X16537D01*
X16590Y16483D01*
Y16590D01*
X16537Y16643D01*
X16590Y16963D02*
Y16750D01*
X16377Y16963D01*
X16323D01*
X16270Y16910D01*
Y16803D01*
X16323Y16750D01*
X14483Y10983D02*
X14430Y10930D01*
Y10823D01*
X14483Y10770D01*
X14697D01*
X14750Y10823D01*
Y10930D01*
X14697Y10983D01*
X14750Y11090D02*
Y11197D01*
Y11143D01*
X14430D01*
X14483Y11090D01*
X18410Y4230D02*
Y3910D01*
X18570D01*
X18623Y3963D01*
Y4177D01*
X18570Y4230D01*
X18410D01*
X18730Y3910D02*
X18837D01*
X18783D01*
Y4230D01*
X18730Y4177D01*
X1543Y15760D02*
X1437D01*
X1490D01*
Y15493D01*
X1437Y15440D01*
X1383D01*
X1330Y15493D01*
X1863Y15760D02*
X1650D01*
Y15600D01*
X1757Y15653D01*
X1810D01*
X1863Y15600D01*
Y15493D01*
X1810Y15440D01*
X1703D01*
X1650Y15493D01*
X13240Y15010D02*
Y14743D01*
X13293Y14690D01*
X13400D01*
X13453Y14743D01*
Y15010D01*
X13773D02*
X13560D01*
Y14850D01*
X13667Y14903D01*
X13720D01*
X13773Y14850D01*
Y14743D01*
X13720Y14690D01*
X13613D01*
X13560Y14743D01*
X8880Y15250D02*
Y14983D01*
X8933Y14930D01*
X9040D01*
X9093Y14983D01*
Y15250D01*
X9413D02*
X9307Y15197D01*
X9200Y15090D01*
Y14983D01*
X9253Y14930D01*
X9360D01*
X9413Y14983D01*
Y15037D01*
X9360Y15090D01*
X9200D01*
X1493Y20003D02*
X1440Y19950D01*
Y19843D01*
X1493Y19790D01*
X1707D01*
X1760Y19843D01*
Y19950D01*
X1707Y20003D01*
X1760Y20270D02*
X1440D01*
X1600Y20110D01*
Y20323D01*
X1493Y20430D02*
X1440Y20483D01*
Y20590D01*
X1493Y20643D01*
X1547D01*
X1600Y20590D01*
X1653Y20643D01*
X1707D01*
X1760Y20590D01*
Y20483D01*
X1707Y20430D01*
X1653D01*
X1600Y20483D01*
X1547Y20430D01*
X1493D01*
X1600Y20483D02*
Y20590D01*
X6793Y25176D02*
Y25495D01*
X6953D01*
X7006Y25442D01*
Y25336D01*
X6953Y25282D01*
X6793D01*
X6900D02*
X7006Y25176D01*
X7273D02*
Y25495D01*
X7113Y25336D01*
X7326D01*
X7646Y25495D02*
X7539Y25442D01*
X7433Y25336D01*
Y25229D01*
X7486Y25176D01*
X7593D01*
X7646Y25229D01*
Y25282D01*
X7593Y25336D01*
X7433D01*
X6820Y26430D02*
Y26750D01*
X6980D01*
X7033Y26697D01*
Y26590D01*
X6980Y26537D01*
X6820D01*
X6927D02*
X7033Y26430D01*
X7300D02*
Y26750D01*
X7140Y26590D01*
X7353D01*
X7460Y26697D02*
X7513Y26750D01*
X7620D01*
X7673Y26697D01*
Y26643D01*
X7620Y26590D01*
X7566D01*
X7620D01*
X7673Y26537D01*
Y26483D01*
X7620Y26430D01*
X7513D01*
X7460Y26483D01*
X2240Y19790D02*
X1920D01*
Y19950D01*
X1973Y20003D01*
X2080D01*
X2133Y19950D01*
Y19790D01*
Y19897D02*
X2240Y20003D01*
Y20270D02*
X1920D01*
X2080Y20110D01*
Y20323D01*
X2240Y20590D02*
X1920D01*
X2080Y20430D01*
Y20643D01*
X3407Y22174D02*
Y21854D01*
X3621D01*
X3940Y22174D02*
X3727D01*
Y22014D01*
X3834Y22067D01*
X3887D01*
X3940Y22014D01*
Y21907D01*
X3887Y21854D01*
X3781D01*
X3727Y21907D01*
X2370Y22130D02*
Y21810D01*
X2530D01*
X2583Y21863D01*
Y22077D01*
X2530Y22130D01*
X2370D01*
X2903Y21810D02*
X2690D01*
X2903Y22023D01*
Y22077D01*
X2850Y22130D01*
X2743D01*
X2690Y22077D01*
X3010Y22130D02*
X3223D01*
Y22077D01*
X3010Y21863D01*
Y21810D01*
X1833Y24253D02*
X1780Y24200D01*
Y24093D01*
X1833Y24040D01*
X2047D01*
X2100Y24093D01*
Y24200D01*
X2047Y24253D01*
Y24360D02*
X2100Y24413D01*
Y24520D01*
X2047Y24573D01*
X1833D01*
X1780Y24520D01*
Y24413D01*
X1833Y24360D01*
X1887D01*
X1940Y24413D01*
Y24573D01*
X2100Y24680D02*
Y24786D01*
Y24733D01*
X1780D01*
X1833Y24680D01*
X2823Y25737D02*
X2770Y25790D01*
X2663D01*
X2610Y25737D01*
Y25523D01*
X2663Y25470D01*
X2770D01*
X2823Y25523D01*
X3143Y25790D02*
X3037Y25737D01*
X2930Y25630D01*
Y25523D01*
X2983Y25470D01*
X3090D01*
X3143Y25523D01*
Y25577D01*
X3090Y25630D01*
X2930D01*
X3463Y25470D02*
X3250D01*
X3463Y25683D01*
Y25737D01*
X3410Y25790D01*
X3303D01*
X3250Y25737D01*
X2483Y25300D02*
X2270D01*
Y25140D01*
X2377D01*
X2270D01*
Y24980D01*
X2590Y25300D02*
Y24980D01*
X2803D01*
X3123D02*
X2910D01*
X3123Y25193D01*
Y25247D01*
X3070Y25300D01*
X2963D01*
X2910Y25247D01*
X3230D02*
X3283Y25300D01*
X3390D01*
X3443Y25247D01*
Y25033D01*
X3390Y24980D01*
X3283D01*
X3230Y25033D01*
Y25247D01*
X4283Y21620D02*
X4070D01*
Y21460D01*
X4177D01*
X4070D01*
Y21300D01*
X4390Y21620D02*
Y21300D01*
X4603D01*
X4923D02*
X4710D01*
X4923Y21513D01*
Y21567D01*
X4870Y21620D01*
X4763D01*
X4710Y21567D01*
X5030Y21300D02*
X5136D01*
X5083D01*
Y21620D01*
X5030Y21567D01*
X8550Y22640D02*
Y22587D01*
X8657Y22480D01*
X8763Y22587D01*
Y22640D01*
X8657Y22480D02*
Y22320D01*
X8870D02*
X8977D01*
X8923D01*
Y22640D01*
X8870Y22587D01*
X9913Y21337D02*
X9860Y21390D01*
X9753D01*
X9700Y21337D01*
Y21123D01*
X9753Y21070D01*
X9860D01*
X9913Y21123D01*
X10233Y21390D02*
X10020D01*
Y21230D01*
X10127Y21283D01*
X10180D01*
X10233Y21230D01*
Y21123D01*
X10180Y21070D01*
X10073D01*
X10020Y21123D01*
X10340Y21337D02*
X10393Y21390D01*
X10500D01*
X10553Y21337D01*
Y21283D01*
X10500Y21230D01*
X10553Y21177D01*
Y21123D01*
X10500Y21070D01*
X10393D01*
X10340Y21123D01*
Y21177D01*
X10393Y21230D01*
X10340Y21283D01*
Y21337D01*
X10393Y21230D02*
X10500D01*
X11123Y22103D02*
X11070Y22050D01*
Y21943D01*
X11123Y21890D01*
X11337D01*
X11390Y21943D01*
Y22050D01*
X11337Y22103D01*
X11070Y22423D02*
Y22210D01*
X11230D01*
X11177Y22317D01*
Y22370D01*
X11230Y22423D01*
X11337D01*
X11390Y22370D01*
Y22263D01*
X11337Y22210D01*
X11070Y22530D02*
Y22743D01*
X11123D01*
X11337Y22530D01*
X11390D01*
X260Y20393D02*
Y20287D01*
Y20340D01*
X527D01*
X580Y20287D01*
Y20233D01*
X527Y20180D01*
X580Y20713D02*
Y20500D01*
X367Y20713D01*
X313D01*
X260Y20660D01*
Y20553D01*
X313Y20500D01*
X8806Y23233D02*
X8486D01*
Y23393D01*
X8540Y23446D01*
X8646D01*
X8699Y23393D01*
Y23233D01*
Y23339D02*
X8806Y23446D01*
X8486Y23552D02*
Y23766D01*
X8540D01*
X8753Y23552D01*
X8806D01*
Y24086D02*
Y23872D01*
X8593Y24086D01*
X8540D01*
X8486Y24032D01*
Y23926D01*
X8540Y23872D01*
X3380Y21060D02*
X3593D01*
X3487D01*
Y20740D01*
X3700D02*
Y21060D01*
X3860D01*
X3913Y21007D01*
Y20900D01*
X3860Y20847D01*
X3700D01*
X4020Y21007D02*
X4073Y21060D01*
X4180D01*
X4233Y21007D01*
Y20953D01*
X4180Y20900D01*
X4126D01*
X4180D01*
X4233Y20847D01*
Y20793D01*
X4180Y20740D01*
X4073D01*
X4020Y20793D01*
X4763Y4437D02*
X4710Y4490D01*
X4603D01*
X4550Y4437D01*
Y4223D01*
X4603Y4170D01*
X4710D01*
X4763Y4223D01*
X5083Y4170D02*
X4870D01*
X5083Y4383D01*
Y4437D01*
X5030Y4490D01*
X4923D01*
X4870Y4437D01*
X5403Y4170D02*
X5190D01*
X5403Y4383D01*
Y4437D01*
X5350Y4490D01*
X5243D01*
X5190Y4437D01*
X4283Y8243D02*
X4230Y8190D01*
Y8083D01*
X4283Y8030D01*
X4497D01*
X4550Y8083D01*
Y8190D01*
X4497Y8243D01*
X4550Y8563D02*
Y8350D01*
X4337Y8563D01*
X4283D01*
X4230Y8510D01*
Y8403D01*
X4283Y8350D01*
X4550Y8830D02*
X4230D01*
X4390Y8670D01*
Y8883D01*
X4273Y9380D02*
X4060D01*
Y9220D01*
X4167D01*
X4060D01*
Y9060D01*
X4380Y9380D02*
Y9060D01*
X4593D01*
X4913D02*
X4700D01*
X4913Y9273D01*
Y9327D01*
X4860Y9380D01*
X4753D01*
X4700Y9327D01*
X5233Y9060D02*
X5020D01*
X5233Y9273D01*
Y9327D01*
X5180Y9380D01*
X5073D01*
X5020Y9327D01*
X7570Y8700D02*
Y9020D01*
X7730D01*
X7783Y8967D01*
Y8860D01*
X7730Y8807D01*
X7570D01*
X7677D02*
X7783Y8700D01*
X7890D02*
X7997D01*
X7943D01*
Y9020D01*
X7890Y8967D01*
X8316Y8700D02*
Y9020D01*
X8156Y8860D01*
X8370D01*
X6580Y8700D02*
Y9020D01*
X6740D01*
X6793Y8967D01*
Y8860D01*
X6740Y8807D01*
X6580D01*
X6687D02*
X6793Y8700D01*
X6900D02*
X7007D01*
X6953D01*
Y9020D01*
X6900Y8967D01*
X7380Y9020D02*
X7273Y8967D01*
X7166Y8860D01*
Y8753D01*
X7220Y8700D01*
X7326D01*
X7380Y8753D01*
Y8807D01*
X7326Y8860D01*
X7166D01*
X6400Y5070D02*
Y4803D01*
X6453Y4750D01*
X6560D01*
X6613Y4803D01*
Y5070D01*
X6880Y4750D02*
Y5070D01*
X6720Y4910D01*
X6933D01*
X2060Y23610D02*
X2273D01*
X2167D01*
Y23290D01*
X2380D02*
Y23610D01*
X2540D01*
X2593Y23557D01*
Y23450D01*
X2540Y23397D01*
X2380D01*
X2913Y23290D02*
X2700D01*
X2913Y23503D01*
Y23557D01*
X2860Y23610D01*
X2753D01*
X2700Y23557D01*
X4283Y20287D02*
X4230Y20340D01*
X4123D01*
X4070Y20287D01*
Y20073D01*
X4123Y20020D01*
X4230D01*
X4283Y20073D01*
X4550Y20020D02*
Y20340D01*
X4390Y20180D01*
X4603D01*
X4870Y20020D02*
Y20340D01*
X4710Y20180D01*
X4923D01*
X4183Y18983D02*
X4130Y18930D01*
Y18823D01*
X4183Y18770D01*
X4397D01*
X4450Y18823D01*
Y18930D01*
X4397Y18983D01*
X4450Y19250D02*
X4130D01*
X4290Y19090D01*
Y19303D01*
X4130Y19623D02*
X4183Y19516D01*
X4290Y19410D01*
X4397D01*
X4450Y19463D01*
Y19570D01*
X4397Y19623D01*
X4343D01*
X4290Y19570D01*
Y19410D01*
X4713Y17753D02*
X4660Y17700D01*
Y17593D01*
X4713Y17540D01*
X4927D01*
X4980Y17593D01*
Y17700D01*
X4927Y17753D01*
X4980Y18020D02*
X4660D01*
X4820Y17860D01*
Y18073D01*
X4660Y18180D02*
Y18393D01*
X4713D01*
X4927Y18180D01*
X4980D01*
X7453Y11043D02*
X7400Y10990D01*
Y10883D01*
X7453Y10830D01*
X7667D01*
X7720Y10883D01*
Y10990D01*
X7667Y11043D01*
X7720Y11310D02*
X7400D01*
X7560Y11150D01*
Y11363D01*
X7667Y11470D02*
X7720Y11523D01*
Y11630D01*
X7667Y11683D01*
X7453D01*
X7400Y11630D01*
Y11523D01*
X7453Y11470D01*
X7507D01*
X7560Y11523D01*
Y11683D01*
X5483Y10357D02*
X5430Y10410D01*
X5323D01*
X5270Y10357D01*
Y10143D01*
X5323Y10090D01*
X5430D01*
X5483Y10143D01*
X5803Y10410D02*
X5590D01*
Y10250D01*
X5697Y10303D01*
X5750D01*
X5803Y10250D01*
Y10143D01*
X5750Y10090D01*
X5643D01*
X5590Y10143D01*
X5910Y10357D02*
X5963Y10410D01*
X6070D01*
X6123Y10357D01*
Y10143D01*
X6070Y10090D01*
X5963D01*
X5910Y10143D01*
Y10357D01*
X6613Y11987D02*
X6560Y12040D01*
X6453D01*
X6400Y11987D01*
Y11773D01*
X6453Y11720D01*
X6560D01*
X6613Y11773D01*
X6933Y12040D02*
X6720D01*
Y11880D01*
X6827Y11933D01*
X6880D01*
X6933Y11880D01*
Y11773D01*
X6880Y11720D01*
X6773D01*
X6720Y11773D01*
X7040Y11720D02*
X7146D01*
X7093D01*
Y12040D01*
X7040Y11987D01*
X17870Y21320D02*
Y21000D01*
Y21160D01*
X18083D01*
Y21320D01*
Y21000D01*
X18190D02*
X18297D01*
X18243D01*
Y21320D01*
X18190Y21267D01*
X710Y28230D02*
Y27910D01*
Y28070D01*
X923D01*
Y28230D01*
Y27910D01*
X1243D02*
X1030D01*
X1243Y28123D01*
Y28177D01*
X1190Y28230D01*
X1083D01*
X1030Y28177D01*
X16000Y2210D02*
Y1890D01*
Y2050D01*
X16213D01*
Y2210D01*
Y1890D01*
X16320Y2157D02*
X16373Y2210D01*
X16480D01*
X16533Y2157D01*
Y2103D01*
X16480Y2050D01*
X16427D01*
X16480D01*
X16533Y1997D01*
Y1943D01*
X16480Y1890D01*
X16373D01*
X16320Y1943D01*
X3350Y1110D02*
Y790D01*
Y950D01*
X3563D01*
Y1110D01*
Y790D01*
X3830D02*
Y1110D01*
X3670Y950D01*
X3883D01*
X1993Y19210D02*
X1780D01*
Y19050D01*
X1887D01*
X1780D01*
Y18890D01*
X2100Y19210D02*
Y18890D01*
X2313D01*
X2633D02*
X2420D01*
X2633Y19103D01*
Y19157D01*
X2580Y19210D01*
X2473D01*
X2420Y19157D01*
X2900Y18890D02*
Y19210D01*
X2740Y19050D01*
X2953D01*
X5160Y17100D02*
Y17420D01*
X5320D01*
X5373Y17367D01*
Y17260D01*
X5320Y17207D01*
X5160D01*
X5267D02*
X5373Y17100D01*
X5480Y17153D02*
X5533Y17100D01*
X5640D01*
X5693Y17153D01*
Y17367D01*
X5640Y17420D01*
X5533D01*
X5480Y17367D01*
Y17313D01*
X5533Y17260D01*
X5693D01*
X4340Y16160D02*
Y16480D01*
X4500D01*
X4553Y16427D01*
Y16320D01*
X4500Y16267D01*
X4340D01*
X4447D02*
X4553Y16160D01*
X4660D02*
X4767D01*
X4713D01*
Y16480D01*
X4660Y16427D01*
X4926Y16480D02*
X5140D01*
Y16427D01*
X4926Y16213D01*
Y16160D01*
X5290Y10580D02*
Y10900D01*
X5450D01*
X5503Y10847D01*
Y10740D01*
X5450Y10687D01*
X5290D01*
X5397D02*
X5503Y10580D01*
X5610D02*
X5717D01*
X5663D01*
Y10900D01*
X5610Y10847D01*
X5876D02*
X5930Y10900D01*
X6036D01*
X6090Y10847D01*
Y10793D01*
X6036Y10740D01*
X6090Y10687D01*
Y10633D01*
X6036Y10580D01*
X5930D01*
X5876Y10633D01*
Y10687D01*
X5930Y10740D01*
X5876Y10793D01*
Y10847D01*
X5930Y10740D02*
X6036D01*
X2700Y16470D02*
Y16203D01*
X2753Y16150D01*
X2860D01*
X2913Y16203D01*
Y16470D01*
X3020Y16150D02*
X3127D01*
X3073D01*
Y16470D01*
X3020Y16417D01*
X3286D02*
X3340Y16470D01*
X3446D01*
X3500Y16417D01*
Y16203D01*
X3446Y16150D01*
X3340D01*
X3286Y16203D01*
Y16417D01*
X11973Y23580D02*
X11867D01*
X11920D01*
Y23313D01*
X11867Y23260D01*
X11813D01*
X11760Y23313D01*
X12293Y23580D02*
X12187Y23527D01*
X12080Y23420D01*
Y23313D01*
X12133Y23260D01*
X12240D01*
X12293Y23313D01*
Y23367D01*
X12240Y23420D01*
X12080D01*
X5813Y19960D02*
X5707D01*
X5760D01*
Y19693D01*
X5707Y19640D01*
X5653D01*
X5600Y19693D01*
X5920Y19907D02*
X5973Y19960D01*
X6080D01*
X6133Y19907D01*
Y19853D01*
X6080Y19800D01*
X6027D01*
X6080D01*
X6133Y19747D01*
Y19693D01*
X6080Y19640D01*
X5973D01*
X5920Y19693D01*
X12033Y2510D02*
X11927D01*
X11980D01*
Y2243D01*
X11927Y2190D01*
X11873D01*
X11820Y2243D01*
X12300Y2190D02*
Y2510D01*
X12140Y2350D01*
X12353D01*
X2100Y20770D02*
Y21090D01*
X2260D01*
X2313Y21037D01*
Y20823D01*
X2260Y20770D01*
X2100D01*
X2420Y20823D02*
X2473Y20770D01*
X2580D01*
X2633Y20823D01*
Y20877D01*
X2580Y20930D01*
X2527D01*
X2580D01*
X2633Y20983D01*
Y21037D01*
X2580Y21090D01*
X2473D01*
X2420Y21037D01*
X12510Y24030D02*
X12190D01*
Y24190D01*
X12243Y24243D01*
X12350D01*
X12403Y24190D01*
Y24030D01*
Y24137D02*
X12510Y24243D01*
Y24563D02*
Y24350D01*
X12297Y24563D01*
X12243D01*
X12190Y24510D01*
Y24403D01*
X12243Y24350D01*
Y24670D02*
X12190Y24723D01*
Y24830D01*
X12243Y24883D01*
X12297D01*
X12350Y24830D01*
X12403Y24883D01*
X12457D01*
X12510Y24830D01*
Y24723D01*
X12457Y24670D01*
X12403D01*
X12350Y24723D01*
X12297Y24670D01*
X12243D01*
X12350Y24723D02*
Y24830D01*
X11970Y24050D02*
X11650D01*
Y24210D01*
X11703Y24263D01*
X11810D01*
X11863Y24210D01*
Y24050D01*
Y24157D02*
X11970Y24263D01*
Y24583D02*
Y24370D01*
X11757Y24583D01*
X11703D01*
X11650Y24530D01*
Y24423D01*
X11703Y24370D01*
X11650Y24690D02*
Y24903D01*
X11703D01*
X11917Y24690D01*
X11970D01*
X13360Y25550D02*
X13040D01*
Y25710D01*
X13093Y25763D01*
X13200D01*
X13253Y25710D01*
Y25550D01*
Y25657D02*
X13360Y25763D01*
Y26083D02*
Y25870D01*
X13147Y26083D01*
X13093D01*
X13040Y26030D01*
Y25923D01*
X13093Y25870D01*
X13360Y26403D02*
Y26190D01*
X13147Y26403D01*
X13093D01*
X13040Y26350D01*
Y26243D01*
X13093Y26190D01*
X11030Y18440D02*
X11243Y18120D01*
Y18440D02*
X11030Y18120D01*
X11350D02*
X11457D01*
X11403D01*
Y18440D01*
X11350Y18387D01*
X11616D02*
X11670Y18440D01*
X11776D01*
X11830Y18387D01*
Y18333D01*
X11776Y18280D01*
X11830Y18227D01*
Y18173D01*
X11776Y18120D01*
X11670D01*
X11616Y18173D01*
Y18227D01*
X11670Y18280D01*
X11616Y18333D01*
Y18387D01*
X11670Y18280D02*
X11776D01*
X3803Y25373D02*
X3750Y25320D01*
Y25213D01*
X3803Y25160D01*
X4017D01*
X4070Y25213D01*
Y25320D01*
X4017Y25373D01*
X3750Y25693D02*
X3803Y25587D01*
X3910Y25480D01*
X4017D01*
X4070Y25533D01*
Y25640D01*
X4017Y25693D01*
X3963D01*
X3910Y25640D01*
Y25480D01*
X3803Y25800D02*
X3750Y25853D01*
Y25960D01*
X3803Y26013D01*
X3857D01*
X3910Y25960D01*
Y25906D01*
Y25960D01*
X3963Y26013D01*
X4017D01*
X4070Y25960D01*
Y25853D01*
X4017Y25800D01*
X3913Y10740D02*
X3700D01*
Y10580D01*
X3807D01*
X3700D01*
Y10420D01*
X4020Y10740D02*
Y10420D01*
X4233D01*
X4553D02*
X4340D01*
X4553Y10633D01*
Y10687D01*
X4500Y10740D01*
X4393D01*
X4340Y10687D01*
X4660D02*
X4713Y10740D01*
X4820D01*
X4873Y10687D01*
Y10633D01*
X4820Y10580D01*
X4766D01*
X4820D01*
X4873Y10527D01*
Y10473D01*
X4820Y10420D01*
X4713D01*
X4660Y10473D01*
X16163Y7503D02*
X16110Y7450D01*
Y7343D01*
X16163Y7290D01*
X16377D01*
X16430Y7343D01*
Y7450D01*
X16377Y7503D01*
X16110Y7610D02*
Y7823D01*
X16163D01*
X16377Y7610D01*
X16430D01*
Y8143D02*
Y7930D01*
X16217Y8143D01*
X16163D01*
X16110Y8090D01*
Y7983D01*
X16163Y7930D01*
X11650Y19660D02*
X11330D01*
Y19820D01*
X11383Y19873D01*
X11490D01*
X11543Y19820D01*
Y19660D01*
Y19767D02*
X11650Y19873D01*
X11383Y19980D02*
X11330Y20033D01*
Y20140D01*
X11383Y20193D01*
X11437D01*
X11490Y20140D01*
Y20087D01*
Y20140D01*
X11543Y20193D01*
X11597D01*
X11650Y20140D01*
Y20033D01*
X11597Y19980D01*
X11650Y20300D02*
Y20406D01*
Y20353D01*
X11330D01*
X11383Y20300D01*
X16970Y7140D02*
X16650D01*
Y7300D01*
X16703Y7353D01*
X16810D01*
X16863Y7300D01*
Y7140D01*
Y7247D02*
X16970Y7353D01*
X16703Y7460D02*
X16650Y7513D01*
Y7620D01*
X16703Y7673D01*
X16757D01*
X16810Y7620D01*
Y7567D01*
Y7620D01*
X16863Y7673D01*
X16917D01*
X16970Y7620D01*
Y7513D01*
X16917Y7460D01*
X16970Y7993D02*
Y7780D01*
X16757Y7993D01*
X16703D01*
X16650Y7940D01*
Y7833D01*
X16703Y7780D01*
X12023Y10093D02*
X11970Y10040D01*
Y9933D01*
X12023Y9880D01*
X12237D01*
X12290Y9933D01*
Y10040D01*
X12237Y10093D01*
X11970Y10200D02*
Y10413D01*
X12023D01*
X12237Y10200D01*
X12290D01*
Y10680D02*
X11970D01*
X12130Y10520D01*
Y10733D01*
X12833Y12963D02*
X12780Y12910D01*
Y12803D01*
X12833Y12750D01*
X13047D01*
X13100Y12803D01*
Y12910D01*
X13047Y12963D01*
X12780Y13070D02*
Y13283D01*
X12833D01*
X13047Y13070D01*
X13100D01*
X12780Y13603D02*
X12833Y13496D01*
X12940Y13390D01*
X13047D01*
X13100Y13443D01*
Y13550D01*
X13047Y13603D01*
X12993D01*
X12940Y13550D01*
Y13390D01*
X3613Y27503D02*
X3560Y27450D01*
Y27343D01*
X3613Y27290D01*
X3827D01*
X3880Y27343D01*
Y27450D01*
X3827Y27503D01*
X3560Y27610D02*
Y27823D01*
X3613D01*
X3827Y27610D01*
X3880D01*
X3613Y27930D02*
X3560Y27983D01*
Y28090D01*
X3613Y28143D01*
X3667D01*
X3720Y28090D01*
X3773Y28143D01*
X3827D01*
X3880Y28090D01*
Y27983D01*
X3827Y27930D01*
X3773D01*
X3720Y27983D01*
X3667Y27930D01*
X3613D01*
X3720Y27983D02*
Y28090D01*
X4493Y23273D02*
X4440Y23220D01*
Y23113D01*
X4493Y23060D01*
X4707D01*
X4760Y23113D01*
Y23220D01*
X4707Y23273D01*
X4493Y23380D02*
X4440Y23433D01*
Y23540D01*
X4493Y23593D01*
X4547D01*
X4600Y23540D01*
X4653Y23593D01*
X4707D01*
X4760Y23540D01*
Y23433D01*
X4707Y23380D01*
X4653D01*
X4600Y23433D01*
X4547Y23380D01*
X4493D01*
X4600Y23433D02*
Y23540D01*
X4760Y23700D02*
Y23806D01*
Y23753D01*
X4440D01*
X4493Y23700D01*
X10043Y17707D02*
X9990Y17760D01*
X9883D01*
X9830Y17707D01*
Y17493D01*
X9883Y17440D01*
X9990D01*
X10043Y17493D01*
X10150Y17707D02*
X10203Y17760D01*
X10310D01*
X10363Y17707D01*
Y17653D01*
X10310Y17600D01*
X10363Y17547D01*
Y17493D01*
X10310Y17440D01*
X10203D01*
X10150Y17493D01*
Y17547D01*
X10203Y17600D01*
X10150Y17653D01*
Y17707D01*
X10203Y17600D02*
X10310D01*
X10630Y17440D02*
Y17760D01*
X10470Y17600D01*
X10683D01*
X16110Y17673D02*
Y17460D01*
X16270D01*
Y17567D01*
Y17460D01*
X16430D01*
X16110Y17780D02*
X16430D01*
Y17993D01*
Y18100D02*
Y18206D01*
Y18153D01*
X16110D01*
X16163Y18100D01*
X17183Y11500D02*
X16970D01*
Y11340D01*
X17077D01*
X16970D01*
Y11180D01*
X17290Y11500D02*
Y11180D01*
X17503D01*
X17823D02*
X17610D01*
X17823Y11393D01*
Y11447D01*
X17770Y11500D01*
X17663D01*
X17610Y11447D01*
X18563Y10050D02*
X18350D01*
Y9890D01*
X18457D01*
X18350D01*
Y9730D01*
X18670Y10050D02*
Y9730D01*
X18883D01*
X18990Y9997D02*
X19043Y10050D01*
X19150D01*
X19203Y9997D01*
Y9943D01*
X19150Y9890D01*
X19096D01*
X19150D01*
X19203Y9837D01*
Y9783D01*
X19150Y9730D01*
X19043D01*
X18990Y9783D01*
X11960Y8813D02*
Y8600D01*
X12120D01*
Y8707D01*
Y8600D01*
X12280D01*
X11960Y8920D02*
X12280D01*
Y9133D01*
Y9400D02*
X11960D01*
X12120Y9240D01*
Y9453D01*
X12790Y11863D02*
Y11650D01*
X12950D01*
Y11757D01*
Y11650D01*
X13110D01*
X12790Y11970D02*
X13110D01*
Y12183D01*
X12790Y12503D02*
Y12290D01*
X12950D01*
X12897Y12396D01*
Y12450D01*
X12950Y12503D01*
X13057D01*
X13110Y12450D01*
Y12343D01*
X13057Y12290D01*
X4533Y26050D02*
X4320D01*
Y25890D01*
X4427D01*
X4320D01*
Y25730D01*
X4640Y26050D02*
Y25730D01*
X4853D01*
X5173Y26050D02*
X5066Y25997D01*
X4960Y25890D01*
Y25783D01*
X5013Y25730D01*
X5120D01*
X5173Y25783D01*
Y25837D01*
X5120Y25890D01*
X4960D01*
X4050Y27533D02*
Y27320D01*
X4210D01*
Y27427D01*
Y27320D01*
X4370D01*
X4050Y27640D02*
X4370D01*
Y27853D01*
X4050Y27960D02*
Y28173D01*
X4103D01*
X4317Y27960D01*
X4370D01*
X9663Y17120D02*
X9450D01*
Y16960D01*
X9557D01*
X9450D01*
Y16800D01*
X9770Y17120D02*
Y16800D01*
X9983D01*
X10090D02*
X10196D01*
X10143D01*
Y17120D01*
X10090Y17067D01*
X10356D02*
X10410Y17120D01*
X10516D01*
X10570Y17067D01*
Y16853D01*
X10516Y16800D01*
X10410D01*
X10356Y16853D01*
Y17067D01*
X13350Y4383D02*
Y4170D01*
X13510D01*
Y4277D01*
Y4170D01*
X13670D01*
X13350Y4490D02*
X13670D01*
Y4703D01*
Y4810D02*
Y4916D01*
Y4863D01*
X13350D01*
X13403Y4810D01*
X13350Y5290D02*
Y5076D01*
X13510D01*
X13457Y5183D01*
Y5236D01*
X13510Y5290D01*
X13617D01*
X13670Y5236D01*
Y5130D01*
X13617Y5076D01*
X8273Y17220D02*
X8060D01*
Y17060D01*
X8167D01*
X8060D01*
Y16900D01*
X8380Y17220D02*
Y16900D01*
X8593D01*
X8700D02*
X8806D01*
X8753D01*
Y17220D01*
X8700Y17167D01*
X8966Y17220D02*
X9180D01*
Y17167D01*
X8966Y16953D01*
Y16900D01*
X5533Y26360D02*
X5320D01*
Y26200D01*
X5427D01*
X5320D01*
Y26040D01*
X5640Y26360D02*
Y26040D01*
X5853D01*
X5960D02*
X6066D01*
X6013D01*
Y26360D01*
X5960Y26307D01*
X6226D02*
X6280Y26360D01*
X6386D01*
X6440Y26307D01*
Y26253D01*
X6386Y26200D01*
X6440Y26147D01*
Y26093D01*
X6386Y26040D01*
X6280D01*
X6226Y26093D01*
Y26147D01*
X6280Y26200D01*
X6226Y26253D01*
Y26307D01*
X6280Y26200D02*
X6386D01*
X6860Y2590D02*
X7073D01*
X6967D01*
Y2270D01*
X7180D02*
Y2590D01*
X7340D01*
X7393Y2537D01*
Y2430D01*
X7340Y2377D01*
X7180D01*
X7500Y2270D02*
X7606D01*
X7553D01*
Y2590D01*
X7500Y2537D01*
X12210Y8310D02*
X12423D01*
X12317D01*
Y7990D01*
X12530D02*
Y8310D01*
X12690D01*
X12743Y8257D01*
Y8150D01*
X12690Y8097D01*
X12530D01*
X13010Y7990D02*
Y8310D01*
X12850Y8150D01*
X13063D01*
X14390Y14790D02*
X14603D01*
X14497D01*
Y14470D01*
X14710D02*
Y14790D01*
X14870D01*
X14923Y14737D01*
Y14630D01*
X14870Y14577D01*
X14710D01*
X15243Y14790D02*
X15030D01*
Y14630D01*
X15136Y14683D01*
X15190D01*
X15243Y14630D01*
Y14523D01*
X15190Y14470D01*
X15083D01*
X15030Y14523D01*
X6570Y27970D02*
X6783D01*
X6677D01*
Y27650D01*
X6890D02*
Y27970D01*
X7050D01*
X7103Y27917D01*
Y27810D01*
X7050Y27757D01*
X6890D01*
X7423Y27970D02*
X7316Y27917D01*
X7210Y27810D01*
Y27703D01*
X7263Y27650D01*
X7370D01*
X7423Y27703D01*
Y27757D01*
X7370Y27810D01*
X7210D01*
X13030Y3390D02*
X13243D01*
X13137D01*
Y3070D01*
X13350D02*
Y3390D01*
X13510D01*
X13563Y3337D01*
Y3230D01*
X13510Y3177D01*
X13350D01*
X13670Y3390D02*
X13883D01*
Y3337D01*
X13670Y3123D01*
Y3070D01*
X4960Y23010D02*
X5173D01*
X5067D01*
Y22690D01*
X5280D02*
Y23010D01*
X5440D01*
X5493Y22957D01*
Y22850D01*
X5440Y22797D01*
X5280D01*
X5600Y22957D02*
X5653Y23010D01*
X5760D01*
X5813Y22957D01*
Y22903D01*
X5760Y22850D01*
X5813Y22797D01*
Y22743D01*
X5760Y22690D01*
X5653D01*
X5600Y22743D01*
Y22797D01*
X5653Y22850D01*
X5600Y22903D01*
Y22957D01*
X5653Y22850D02*
X5760D01*
X18270Y7280D02*
X18483D01*
X18377D01*
Y6960D01*
X18590D02*
Y7280D01*
X18750D01*
X18803Y7227D01*
Y7120D01*
X18750Y7067D01*
X18590D01*
X18910Y7013D02*
X18963Y6960D01*
X19070D01*
X19123Y7013D01*
Y7227D01*
X19070Y7280D01*
X18963D01*
X18910Y7227D01*
Y7173D01*
X18963Y7120D01*
X19123D01*
X16260Y22180D02*
X16473D01*
X16367D01*
Y21860D01*
X16580D02*
Y22180D01*
X16740D01*
X16793Y22127D01*
Y22020D01*
X16740Y21967D01*
X16580D01*
X16900Y21860D02*
X17006D01*
X16953D01*
Y22180D01*
X16900Y22127D01*
X17166D02*
X17220Y22180D01*
X17326D01*
X17380Y22127D01*
Y21913D01*
X17326Y21860D01*
X17220D01*
X17166Y21913D01*
Y22127D01*
X16220Y25170D02*
Y25383D01*
Y25277D01*
X16540D01*
Y25490D02*
X16220D01*
Y25650D01*
X16273Y25703D01*
X16380D01*
X16433Y25650D01*
Y25490D01*
X16540Y25810D02*
Y25916D01*
Y25863D01*
X16220D01*
X16273Y25810D01*
X16540Y26076D02*
Y26183D01*
Y26130D01*
X16220D01*
X16273Y26076D01*
X7455Y4675D02*
X7668D01*
X7562D01*
Y4355D01*
X7775D02*
Y4675D01*
X7935D01*
X7988Y4622D01*
Y4515D01*
X7935Y4462D01*
X7775D01*
X8095Y4355D02*
X8201D01*
X8148D01*
Y4675D01*
X8095Y4622D01*
X8575Y4355D02*
X8361D01*
X8575Y4568D01*
Y4622D01*
X8521Y4675D01*
X8415D01*
X8361Y4622D01*
X9960Y20160D02*
X10173D01*
X10067D01*
Y19840D01*
X10280D02*
Y20160D01*
X10440D01*
X10493Y20107D01*
Y20000D01*
X10440Y19947D01*
X10280D01*
X10600Y19840D02*
X10706D01*
X10653D01*
Y20160D01*
X10600Y20107D01*
X10866D02*
X10920Y20160D01*
X11026D01*
X11080Y20107D01*
Y20053D01*
X11026Y20000D01*
X10973D01*
X11026D01*
X11080Y19947D01*
Y19893D01*
X11026Y19840D01*
X10920D01*
X10866Y19893D01*
X9960Y19140D02*
X10173D01*
X10067D01*
Y18820D01*
X10280D02*
Y19140D01*
X10440D01*
X10493Y19087D01*
Y18980D01*
X10440Y18927D01*
X10280D01*
X10600Y18820D02*
X10706D01*
X10653D01*
Y19140D01*
X10600Y19087D01*
X11026Y18820D02*
Y19140D01*
X10866Y18980D01*
X11080D01*
X5916Y21985D02*
X6129D01*
X6023D01*
Y21665D01*
X6236D02*
Y21985D01*
X6396D01*
X6449Y21932D01*
Y21825D01*
X6396Y21772D01*
X6236D01*
X6556Y21665D02*
X6663D01*
X6609D01*
Y21985D01*
X6556Y21932D01*
X7036Y21985D02*
X6822D01*
Y21825D01*
X6929Y21878D01*
X6982D01*
X7036Y21825D01*
Y21718D01*
X6982Y21665D01*
X6876D01*
X6822Y21718D01*
X12310Y5920D02*
X12523D01*
X12417D01*
Y5600D01*
X12630D02*
Y5920D01*
X12790D01*
X12843Y5867D01*
Y5760D01*
X12790Y5707D01*
X12630D01*
X12950Y5600D02*
X13056D01*
X13003D01*
Y5920D01*
X12950Y5867D01*
X13430Y5920D02*
X13323Y5867D01*
X13216Y5760D01*
Y5653D01*
X13270Y5600D01*
X13376D01*
X13430Y5653D01*
Y5707D01*
X13376Y5760D01*
X13216D01*
X15250Y25170D02*
Y25383D01*
Y25277D01*
X15570D01*
Y25490D02*
X15250D01*
Y25650D01*
X15303Y25703D01*
X15410D01*
X15463Y25650D01*
Y25490D01*
X15570Y25810D02*
Y25916D01*
Y25863D01*
X15250D01*
X15303Y25810D01*
X15250Y26076D02*
Y26290D01*
X15303D01*
X15517Y26076D01*
X15570D01*
X14190Y25090D02*
Y25303D01*
Y25197D01*
X14510D01*
Y25410D02*
X14190D01*
Y25570D01*
X14243Y25623D01*
X14350D01*
X14403Y25570D01*
Y25410D01*
X14510Y25730D02*
Y25836D01*
Y25783D01*
X14190D01*
X14243Y25730D01*
Y25996D02*
X14190Y26050D01*
Y26156D01*
X14243Y26210D01*
X14297D01*
X14350Y26156D01*
X14403Y26210D01*
X14457D01*
X14510Y26156D01*
Y26050D01*
X14457Y25996D01*
X14403D01*
X14350Y26050D01*
X14297Y25996D01*
X14243D01*
X14350Y26050D02*
Y26156D01*
X600Y17990D02*
X813D01*
X707D01*
Y17670D01*
X920D02*
Y17990D01*
X1080D01*
X1133Y17937D01*
Y17830D01*
X1080Y17777D01*
X920D01*
X1240Y17670D02*
X1346D01*
X1293D01*
Y17990D01*
X1240Y17937D01*
X1506Y17723D02*
X1560Y17670D01*
X1666D01*
X1720Y17723D01*
Y17937D01*
X1666Y17990D01*
X1560D01*
X1506Y17937D01*
Y17883D01*
X1560Y17830D01*
X1720D01*
X16490Y23320D02*
X16703D01*
X16597D01*
Y23000D01*
X16810D02*
Y23320D01*
X16970D01*
X17023Y23267D01*
Y23160D01*
X16970Y23107D01*
X16810D01*
X17343Y23000D02*
X17130D01*
X17343Y23213D01*
Y23267D01*
X17290Y23320D01*
X17183D01*
X17130Y23267D01*
X17450D02*
X17503Y23320D01*
X17610D01*
X17663Y23267D01*
Y23053D01*
X17610Y23000D01*
X17503D01*
X17450Y23053D01*
Y23267D01*
X4133Y26513D02*
X4080Y26460D01*
Y26353D01*
X4133Y26300D01*
X4347D01*
X4400Y26353D01*
Y26460D01*
X4347Y26513D01*
X4080Y26833D02*
X4133Y26727D01*
X4240Y26620D01*
X4347D01*
X4400Y26673D01*
Y26780D01*
X4347Y26833D01*
X4293D01*
X4240Y26780D01*
Y26620D01*
X4400Y26940D02*
Y27046D01*
Y26993D01*
X4080D01*
X4133Y26940D01*
X623Y25717D02*
X570Y25770D01*
X463D01*
X410Y25717D01*
Y25503D01*
X463Y25450D01*
X570D01*
X623Y25503D01*
X730D02*
X783Y25450D01*
X890D01*
X943Y25503D01*
Y25717D01*
X890Y25770D01*
X783D01*
X730Y25717D01*
Y25663D01*
X783Y25610D01*
X943D01*
X1050Y25717D02*
X1103Y25770D01*
X1210D01*
X1263Y25717D01*
Y25663D01*
X1210Y25610D01*
X1156D01*
X1210D01*
X1263Y25557D01*
Y25503D01*
X1210Y25450D01*
X1103D01*
X1050Y25503D01*
X643Y25247D02*
X590Y25300D01*
X483D01*
X430Y25247D01*
Y25033D01*
X483Y24980D01*
X590D01*
X643Y25033D01*
X750D02*
X803Y24980D01*
X910D01*
X963Y25033D01*
Y25247D01*
X910Y25300D01*
X803D01*
X750Y25247D01*
Y25193D01*
X803Y25140D01*
X963D01*
X1230Y24980D02*
Y25300D01*
X1070Y25140D01*
X1283D01*
D55*
X908Y11189D02*
G03*
X908Y11189I-71J0D01*
G01*
D94*
X8008Y26845D02*
G03*
X8008Y26845I-49J0D01*
G01*
X16841Y4658D02*
G03*
X16841Y4658I-49J0D01*
G01*
X15394Y13591D02*
G03*
X15394Y13591I-49J0D01*
G01*
X17084Y9207D02*
G03*
X17084Y9207I-49J0D01*
G01*
X12962Y17374D02*
G03*
X12962Y17374I-49J0D01*
G01*
X7718Y5406D02*
G03*
X7718Y5406I-49J0D01*
G01*
D95*
X16241Y13158D02*
G03*
X16241Y13158I-118J0D01*
G01*
X16375Y9640D02*
G03*
X16375Y9640I-118J0D01*
G01*
D96*
X19046Y19620D02*
G03*
X19046Y19620I-1175J0D01*
G01*
X3335Y26970D02*
G03*
X3335Y26970I-1175J0D01*
G01*
X19046Y1730D02*
G03*
X19046Y1730I-1175J0D01*
G01*
X3115Y1660D02*
G03*
X3115Y1660I-1175J0D01*
G01*
D97*
X15190Y21301D02*
G03*
X15190Y21301I-49J0D01*
G01*
X6539Y20183D02*
G03*
X6539Y20183I-49J0D01*
G01*
X9000Y3759D02*
G03*
X9000Y3759I-49J0D01*
G01*
D98*
X2568Y21547D02*
G03*
X2568Y21547I-20J0D01*
G01*
D99*
X10872Y26904D02*
X11148D01*
Y26629D02*
Y26904D01*
X10872Y23971D02*
X11148D01*
Y24247D01*
X8215Y23971D02*
X8490D01*
X8215D02*
Y24247D01*
Y26904D02*
X8490D01*
X8215Y26629D02*
Y26904D01*
X16073Y4747D02*
X16467D01*
X16073Y5967D02*
X16467D01*
Y4747D02*
Y5967D01*
X16073Y4747D02*
Y5967D01*
X15729Y12311D02*
X16674D01*
X15729Y13551D02*
X16674D01*
Y12311D02*
Y13551D01*
X15729Y12311D02*
Y13551D01*
X15706Y10486D02*
X16651D01*
X15706Y9246D02*
X16651D01*
X15706D02*
Y10486D01*
X16651Y9246D02*
Y10486D01*
X13395Y15237D02*
Y17323D01*
X14655Y15237D02*
Y17323D01*
X13395D02*
X14655D01*
X13395Y15237D02*
X14655D01*
X7246Y7473D02*
X7413D01*
Y7306D02*
Y7473D01*
X5287D02*
X5454D01*
X5287Y7306D02*
Y7473D01*
Y5347D02*
Y5514D01*
Y5347D02*
X5454D01*
X7246D02*
X7413D01*
Y5514D01*
M02*
