G04 Layer_Physical_Order=4*
G04 Layer_Color=16711680*
%FSLAX24Y24*%
%MOIN*%
G70*
G01*
G75*
%ADD10C,0.0450*%
G04:AMPARAMS|DCode=18|XSize=22mil|YSize=24mil|CornerRadius=4.4mil|HoleSize=0mil|Usage=FLASHONLY|Rotation=270.000|XOffset=0mil|YOffset=0mil|HoleType=Round|Shape=RoundedRectangle|*
%AMROUNDEDRECTD18*
21,1,0.0220,0.0152,0,0,270.0*
21,1,0.0132,0.0240,0,0,270.0*
1,1,0.0088,-0.0076,-0.0066*
1,1,0.0088,-0.0076,0.0066*
1,1,0.0088,0.0076,0.0066*
1,1,0.0088,0.0076,-0.0066*
%
%ADD18ROUNDEDRECTD18*%
G04:AMPARAMS|DCode=19|XSize=29.1mil|YSize=39.4mil|CornerRadius=5.8mil|HoleSize=0mil|Usage=FLASHONLY|Rotation=180.000|XOffset=0mil|YOffset=0mil|HoleType=Round|Shape=RoundedRectangle|*
%AMROUNDEDRECTD19*
21,1,0.0291,0.0277,0,0,180.0*
21,1,0.0175,0.0394,0,0,180.0*
1,1,0.0117,-0.0087,0.0139*
1,1,0.0117,0.0087,0.0139*
1,1,0.0117,0.0087,-0.0139*
1,1,0.0117,-0.0087,-0.0139*
%
%ADD19ROUNDEDRECTD19*%
G04:AMPARAMS|DCode=20|XSize=29.1mil|YSize=39.4mil|CornerRadius=5.8mil|HoleSize=0mil|Usage=FLASHONLY|Rotation=90.000|XOffset=0mil|YOffset=0mil|HoleType=Round|Shape=RoundedRectangle|*
%AMROUNDEDRECTD20*
21,1,0.0291,0.0277,0,0,90.0*
21,1,0.0175,0.0394,0,0,90.0*
1,1,0.0117,0.0139,0.0087*
1,1,0.0117,0.0139,-0.0087*
1,1,0.0117,-0.0139,-0.0087*
1,1,0.0117,-0.0139,0.0087*
%
%ADD20ROUNDEDRECTD20*%
G04:AMPARAMS|DCode=21|XSize=22mil|YSize=24mil|CornerRadius=4.4mil|HoleSize=0mil|Usage=FLASHONLY|Rotation=0.000|XOffset=0mil|YOffset=0mil|HoleType=Round|Shape=RoundedRectangle|*
%AMROUNDEDRECTD21*
21,1,0.0220,0.0152,0,0,0.0*
21,1,0.0132,0.0240,0,0,0.0*
1,1,0.0088,0.0066,-0.0076*
1,1,0.0088,-0.0066,-0.0076*
1,1,0.0088,-0.0066,0.0076*
1,1,0.0088,0.0066,0.0076*
%
%ADD21ROUNDEDRECTD21*%
G04:AMPARAMS|DCode=22|XSize=40mil|YSize=40mil|CornerRadius=20mil|HoleSize=0mil|Usage=FLASHONLY|Rotation=90.000|XOffset=0mil|YOffset=0mil|HoleType=Round|Shape=RoundedRectangle|*
%AMROUNDEDRECTD22*
21,1,0.0400,0.0000,0,0,90.0*
21,1,0.0000,0.0400,0,0,90.0*
1,1,0.0400,0.0000,0.0000*
1,1,0.0400,0.0000,0.0000*
1,1,0.0400,0.0000,0.0000*
1,1,0.0400,0.0000,0.0000*
%
%ADD22ROUNDEDRECTD22*%
G04:AMPARAMS|DCode=29|XSize=52mil|YSize=60mil|CornerRadius=13mil|HoleSize=0mil|Usage=FLASHONLY|Rotation=90.000|XOffset=0mil|YOffset=0mil|HoleType=Round|Shape=RoundedRectangle|*
%AMROUNDEDRECTD29*
21,1,0.0520,0.0340,0,0,90.0*
21,1,0.0260,0.0600,0,0,90.0*
1,1,0.0260,0.0170,0.0130*
1,1,0.0260,0.0170,-0.0130*
1,1,0.0260,-0.0170,-0.0130*
1,1,0.0260,-0.0170,0.0130*
%
%ADD29ROUNDEDRECTD29*%
%ADD45C,0.0100*%
%ADD46C,0.0050*%
%ADD48C,0.0080*%
%ADD50C,0.0120*%
%ADD51C,0.0060*%
%ADD53C,0.0040*%
%ADD55C,0.0070*%
%ADD56C,0.0160*%
%ADD57C,0.0140*%
G04:AMPARAMS|DCode=63|XSize=49.2mil|YSize=36.6mil|CornerRadius=14.6mil|HoleSize=0mil|Usage=FLASHONLY|Rotation=270.000|XOffset=0mil|YOffset=0mil|HoleType=Round|Shape=RoundedRectangle|*
%AMROUNDEDRECTD63*
21,1,0.0492,0.0073,0,0,270.0*
21,1,0.0199,0.0366,0,0,270.0*
1,1,0.0293,-0.0037,-0.0100*
1,1,0.0293,-0.0037,0.0100*
1,1,0.0293,0.0037,0.0100*
1,1,0.0293,0.0037,-0.0100*
%
%ADD63ROUNDEDRECTD63*%
G04:AMPARAMS|DCode=64|XSize=61mil|YSize=35mil|CornerRadius=14mil|HoleSize=0mil|Usage=FLASHONLY|Rotation=0.000|XOffset=0mil|YOffset=0mil|HoleType=Round|Shape=RoundedRectangle|*
%AMROUNDEDRECTD64*
21,1,0.0610,0.0070,0,0,0.0*
21,1,0.0330,0.0350,0,0,0.0*
1,1,0.0280,0.0165,-0.0035*
1,1,0.0280,-0.0165,-0.0035*
1,1,0.0280,-0.0165,0.0035*
1,1,0.0280,0.0165,0.0035*
%
%ADD64ROUNDEDRECTD64*%
%ADD65C,0.0700*%
%ADD66C,0.0591*%
%ADD67P,0.0835X4X180.0*%
%ADD68P,0.0671X8X202.5*%
%ADD69C,0.0290*%
%ADD70C,0.0200*%
%ADD71C,0.0240*%
%ADD72C,0.0300*%
%ADD73C,0.0270*%
%ADD74C,0.0180*%
%ADD75C,0.0160*%
%ADD76C,0.0260*%
%ADD77C,0.0197*%
%ADD78C,0.0250*%
%ADD79C,0.0400*%
%ADD80C,0.0320*%
%ADD81C,0.0360*%
%ADD92R,0.0551X0.0118*%
%ADD93R,0.0236X0.0335*%
%ADD94R,0.0335X0.0236*%
%ADD95R,0.0157X0.0118*%
%ADD96R,0.0433X0.0197*%
%ADD97R,0.0551X0.0413*%
%ADD98R,0.0256X0.0138*%
G36*
X7175Y15170D02*
Y14606D01*
X7215Y14567D01*
Y14537D01*
Y14252D01*
X7195Y14232D01*
X7037D01*
X6988Y14282D01*
Y14419D01*
Y14557D01*
X6909Y14636D01*
X6870Y14675D01*
Y15217D01*
X7129D01*
X7175Y15170D01*
D02*
G37*
G36*
X10236Y14587D02*
Y14409D01*
X10207Y14380D01*
X9813D01*
X9807Y14623D01*
X9859Y14675D01*
X10148D01*
X10236Y14587D01*
D02*
G37*
G36*
X9035Y15014D02*
Y14754D01*
X8494Y14213D01*
X8315Y14213D01*
X8315Y14821D01*
X8376Y14882D01*
X8701D01*
X8868Y15049D01*
X9000Y15049D01*
X9035Y15014D01*
D02*
G37*
G36*
X9331Y13898D02*
Y13185D01*
X9331Y13185D01*
X9331Y12933D01*
X9321Y12923D01*
X9098Y12700D01*
X8566D01*
X8386Y12520D01*
X8211D01*
Y12664D01*
X8421Y12874D01*
X8907D01*
X8996Y12963D01*
Y13268D01*
X8484D01*
X8238Y13514D01*
Y13947D01*
X8396Y14104D01*
X8573D01*
X8810Y14342D01*
X8887D01*
X9331Y13898D01*
D02*
G37*
G36*
X7297Y14905D02*
X7343Y14886D01*
X7963D01*
X8006Y14904D01*
X8011Y14903D01*
X8150Y14764D01*
X8150Y13012D01*
X7921Y12783D01*
X7883Y12787D01*
X7855Y12805D01*
X7823Y12812D01*
X7671D01*
X7638Y12805D01*
X7610Y12787D01*
X7592Y12759D01*
X7585Y12726D01*
Y12667D01*
X7582Y12664D01*
X7563Y12618D01*
Y12425D01*
X7481Y12343D01*
X7478Y12344D01*
X7435Y12372D01*
X7385Y12383D01*
X7334Y12372D01*
X7291Y12344D01*
X7262Y12301D01*
X7252Y12250D01*
X7254Y12242D01*
X7227Y12214D01*
X7213Y12195D01*
X7174Y12199D01*
X7163Y12203D01*
Y12402D01*
X7157Y12435D01*
X7138Y12463D01*
X7110Y12482D01*
X7086Y12487D01*
X7043Y12529D01*
Y12650D01*
X7063Y12663D01*
X7090Y12703D01*
X7099Y12750D01*
X7090Y12797D01*
X7113Y12826D01*
X7132Y12854D01*
X7138Y12887D01*
Y13019D01*
X7132Y13052D01*
X7113Y13080D01*
X7085Y13098D01*
X7053Y13105D01*
X6901D01*
X6868Y13098D01*
X6840Y13080D01*
X6822Y13052D01*
X6815Y13019D01*
Y12887D01*
X6822Y12854D01*
X6840Y12826D01*
X6864Y12797D01*
X6854Y12750D01*
X6864Y12703D01*
X6890Y12663D01*
X6910Y12650D01*
Y12502D01*
X6915Y12476D01*
X6930Y12455D01*
X6990Y12395D01*
Y11955D01*
X6955Y11919D01*
X6857D01*
X6640Y12137D01*
Y12355D01*
X6650Y12365D01*
X6669Y12411D01*
Y12785D01*
X6650Y12831D01*
X6621Y12861D01*
X6575Y12880D01*
X6378D01*
X6332Y12861D01*
X6286Y12815D01*
X6236Y12834D01*
Y13228D01*
X6217Y13274D01*
X6157Y13334D01*
Y13967D01*
X6138Y14012D01*
X6089Y14062D01*
X6087Y14063D01*
Y14175D01*
X6104Y14201D01*
X6113Y14248D01*
X6104Y14295D01*
X6087Y14321D01*
Y14532D01*
X6214Y14659D01*
X6673D01*
X6719Y14678D01*
X6777Y14736D01*
X6827Y14715D01*
Y14675D01*
X6839Y14645D01*
X6841Y14643D01*
X6842Y14641D01*
X6860Y14613D01*
X6888Y14595D01*
X6889Y14595D01*
X6945Y14539D01*
Y14282D01*
X6958Y14251D01*
X7007Y14202D01*
X7037Y14189D01*
X7195D01*
X7225Y14202D01*
X7245Y14221D01*
X7258Y14252D01*
Y14567D01*
X7245Y14598D01*
X7218Y14624D01*
Y14912D01*
X7268Y14933D01*
X7297Y14905D01*
D02*
G37*
G36*
X9038Y15831D02*
X9038Y15831D01*
X9075Y15806D01*
X9107Y15800D01*
Y15630D01*
X8897Y15420D01*
X7380D01*
Y15834D01*
X7664Y16118D01*
X8751D01*
X9038Y15831D01*
D02*
G37*
G36*
X7136Y16083D02*
Y15640D01*
X7086Y15590D01*
X6920D01*
X6762Y15748D01*
Y15945D01*
X6939Y16122D01*
X7096D01*
X7136Y16083D01*
D02*
G37*
G36*
X9363Y15574D02*
X8967Y15177D01*
X8858D01*
X8681Y15000D01*
X8287D01*
X8238Y15049D01*
Y15276D01*
X8307Y15344D01*
X8967D01*
X9242Y15620D01*
X9344D01*
X9363Y15574D01*
D02*
G37*
G36*
X6093Y15236D02*
X6171Y15157D01*
X6340D01*
X6437Y15061D01*
X6478Y15020D01*
X6702D01*
X6738Y14984D01*
X6772Y14950D01*
Y14823D01*
X6673Y14724D01*
X6102D01*
X6024Y14803D01*
Y14892D01*
X5896Y15020D01*
Y15108D01*
X6024Y15236D01*
X6093Y15236D01*
D02*
G37*
G36*
X8081Y15256D02*
Y15069D01*
X7963Y14951D01*
X7343D01*
X7268Y15026D01*
Y15310D01*
X7292Y15335D01*
X8002D01*
X8081Y15256D01*
D02*
G37*
G36*
X7269Y10699D02*
X7273Y10689D01*
X7047Y10463D01*
Y10433D01*
X6781D01*
X6585Y10630D01*
Y10984D01*
X6624Y11024D01*
X6944D01*
X7269Y10699D01*
D02*
G37*
G36*
X6604Y12785D02*
Y12411D01*
X6575Y12382D01*
Y12215D01*
Y11988D01*
X6654Y11909D01*
X6732D01*
X6841Y11801D01*
Y11555D01*
X6772Y11486D01*
X6604D01*
Y11654D01*
X6549Y11708D01*
X6517Y11757D01*
X6468Y11789D01*
X6437Y11821D01*
X6329D01*
X6280Y11870D01*
Y12045D01*
X6281Y12046D01*
X6280Y12047D01*
Y12215D01*
Y12717D01*
X6319Y12756D01*
X6378Y12815D01*
X6575D01*
X6604Y12785D01*
D02*
G37*
G36*
X5230Y8770D02*
Y8640D01*
X5110Y8520D01*
X4566D01*
X4532Y8557D01*
X4540Y8700D01*
X4720Y8880D01*
X5120D01*
X5230Y8770D01*
D02*
G37*
G36*
X6860Y8110D02*
Y7810D01*
Y7320D01*
X6610Y7070D01*
X6520D01*
X6430Y7160D01*
Y7200D01*
Y8120D01*
X6480Y8170D01*
X6510Y8200D01*
X6770D01*
X6860Y8110D01*
D02*
G37*
G36*
X7250Y8510D02*
X7250Y8430D01*
Y8120D01*
X7160Y8030D01*
X6960D01*
Y8260D01*
X6940Y8280D01*
X6740Y8480D01*
Y8780D01*
X6830Y8870D01*
X6890D01*
X7250Y8510D01*
D02*
G37*
G36*
X11890Y14222D02*
X11801Y14134D01*
X9596Y11929D01*
X9537D01*
Y12470D01*
X9685Y12618D01*
X11831Y14764D01*
X11890D01*
Y14222D01*
D02*
G37*
G36*
X10827Y14163D02*
X10876Y14114D01*
Y14035D01*
X10758Y13917D01*
X9222Y12382D01*
X8573D01*
Y12535D01*
X8637Y12598D01*
X8656Y12618D01*
X9203D01*
X9429Y12844D01*
X9429Y13612D01*
Y13809D01*
X9675Y14055D01*
X9783Y14163D01*
X10827Y14163D01*
D02*
G37*
G36*
X6093Y13967D02*
Y13307D01*
X6171Y13228D01*
Y12031D01*
X6014Y11874D01*
X5745D01*
X5721Y11923D01*
X5738Y11949D01*
X5955Y12165D01*
Y12323D01*
Y13159D01*
X5787Y13327D01*
Y13976D01*
X5827Y14016D01*
X6043D01*
X6093Y13967D01*
D02*
G37*
G36*
X7835Y12431D02*
X7963Y12303D01*
X8002D01*
X8031Y12274D01*
X8091Y12215D01*
Y12096D01*
Y11841D01*
X8110Y11821D01*
X8219Y11713D01*
Y11644D01*
X8051D01*
X7928Y11767D01*
Y11909D01*
Y11954D01*
X7854Y12028D01*
X7677D01*
X7667Y12037D01*
X7628Y12077D01*
Y12175D01*
Y12618D01*
X7657Y12648D01*
X7835D01*
Y12431D01*
D02*
G37*
G36*
X9027Y12234D02*
X9301D01*
X9350Y12185D01*
Y11949D01*
X9232Y11831D01*
X8210Y11830D01*
X8167Y11873D01*
Y12102D01*
Y12192D01*
X8219Y12244D01*
X9017D01*
X9027Y12234D01*
D02*
G37*
G36*
X9315Y24639D02*
X9336Y24608D01*
X9338Y24600D01*
X9342Y24593D01*
X9343Y24585D01*
X9363Y24543D01*
X9371Y24536D01*
X9375Y24526D01*
X9389Y24520D01*
X9400Y24510D01*
X9411Y24511D01*
X9421Y24506D01*
X9454Y24506D01*
X9470Y24490D01*
Y24310D01*
Y23870D01*
X9380Y23780D01*
X9301Y23790D01*
X9220Y23871D01*
Y24278D01*
X9261Y24320D01*
X9265Y24329D01*
X9273Y24335D01*
X9274Y24351D01*
X9280Y24365D01*
X9276Y24375D01*
X9277Y24384D01*
X9261Y24439D01*
X9255Y24446D01*
X9253Y24456D01*
X9240Y24465D01*
X9229Y24477D01*
X9220Y24478D01*
Y24620D01*
X9250Y24650D01*
X9298D01*
X9315Y24639D01*
D02*
G37*
G36*
X8370Y26300D02*
Y25691D01*
X8362Y25672D01*
X8245D01*
X8057Y25860D01*
X7871D01*
X7717Y25706D01*
X7671Y25725D01*
Y26291D01*
X7770Y26390D01*
X8280D01*
X8370Y26300D01*
D02*
G37*
G36*
X10920Y26967D02*
Y26740D01*
X10839Y26659D01*
Y26640D01*
X10580D01*
X10380Y26440D01*
Y26180D01*
X10492Y26068D01*
X10476Y26014D01*
X10433Y25985D01*
X10398Y25932D01*
X10386Y25871D01*
X10398Y25809D01*
X10433Y25756D01*
X10485Y25721D01*
X10547Y25709D01*
X10609Y25721D01*
X10661Y25756D01*
X10690Y25799D01*
X10745Y25815D01*
X10810Y25750D01*
X10810Y25320D01*
X10630Y25140D01*
X10609Y25154D01*
X10547Y25166D01*
X10485Y25154D01*
X10433Y25119D01*
X10398Y25066D01*
X10386Y25004D01*
X10398Y24943D01*
X10412Y24922D01*
X10197Y24707D01*
X10176Y24721D01*
X10114Y24733D01*
X10052Y24721D01*
X10000Y24686D01*
X9965Y24633D01*
X9953Y24571D01*
X9953Y24571D01*
X9843D01*
X9843Y24571D01*
X9830Y24633D01*
X9795Y24686D01*
X9743Y24721D01*
X9681Y24733D01*
X9619Y24721D01*
X9567Y24686D01*
X9532Y24633D01*
X9520Y24571D01*
X9520Y24571D01*
X9457D01*
X9421Y24571D01*
X9401Y24613D01*
X9397Y24633D01*
X9362Y24686D01*
X9310Y24721D01*
X9248Y24733D01*
X9186Y24721D01*
X9134Y24686D01*
X9099Y24633D01*
X9086Y24571D01*
X9099Y24510D01*
X9134Y24457D01*
X9186Y24422D01*
X9199Y24420D01*
X9215Y24365D01*
X9140Y24290D01*
Y24125D01*
X9075Y24060D01*
X8746D01*
X8420Y24386D01*
Y24960D01*
X8750Y25290D01*
X8753Y25288D01*
X8815Y25276D01*
X8877Y25288D01*
X8929Y25323D01*
X8964Y25376D01*
X8976Y25438D01*
X8964Y25499D01*
X8962Y25502D01*
X9183Y25723D01*
X9186Y25721D01*
X9248Y25709D01*
X9310Y25721D01*
X9362Y25756D01*
X9397Y25809D01*
X9410Y25871D01*
X9397Y25932D01*
X9395Y25935D01*
X9600Y26140D01*
X9650Y26148D01*
X9681Y26142D01*
X9743Y26154D01*
X9795Y26189D01*
X9830Y26242D01*
X9843Y26304D01*
X9830Y26366D01*
X9795Y26418D01*
X9761Y26441D01*
X9749Y26499D01*
X10190Y26940D01*
X10444Y26940D01*
X10468Y26935D01*
X10493Y26940D01*
X10580D01*
X10677Y27038D01*
X10850D01*
X10920Y26967D01*
D02*
G37*
G36*
X9248Y26482D02*
Y26304D01*
X9136Y26192D01*
X9131D01*
X9092Y26184D01*
X9059Y26162D01*
X8949Y26052D01*
X8927Y26019D01*
X8919Y25980D01*
Y25975D01*
X8815Y25871D01*
X8580Y25870D01*
X8530Y25920D01*
Y26370D01*
X8690Y26530D01*
X9200D01*
X9248Y26482D01*
D02*
G37*
G36*
X10820Y26450D02*
Y26010D01*
X10680Y25870D01*
X10548D01*
X10547Y25871D01*
Y26026D01*
X10554Y26050D01*
X10553Y26060D01*
X10557Y26068D01*
X10551Y26083D01*
X10549Y26099D01*
X10547Y26101D01*
Y26304D01*
Y26377D01*
X10680Y26510D01*
X10820Y26450D01*
D02*
G37*
G36*
X13999Y24689D02*
X13724D01*
Y24413D01*
X13369D01*
Y24689D01*
X13094D01*
Y25457D01*
X13999D01*
Y24689D01*
D02*
G37*
G36*
X13724Y27957D02*
X13999D01*
Y27189D01*
X13094D01*
Y27957D01*
X13369D01*
Y28232D01*
X13724D01*
Y27957D01*
D02*
G37*
G36*
X11360Y25510D02*
Y24670D01*
Y24646D01*
X11271Y24557D01*
X11073D01*
X11070Y24560D01*
X10940Y24690D01*
Y25330D01*
Y25670D01*
X11040Y25770D01*
X11100D01*
X11360Y25510D01*
D02*
G37*
G36*
X10701Y24959D02*
Y24748D01*
Y24621D01*
X10560Y24480D01*
X10450Y24540D01*
Y24868D01*
X10458Y24876D01*
X10465Y24894D01*
X10476Y24909D01*
X10474Y24916D01*
X10477Y24922D01*
X10470Y24940D01*
X10466Y24958D01*
X10463Y24963D01*
X10470Y24970D01*
X10530Y25030D01*
X10630D01*
X10701Y24959D01*
D02*
G37*
%LPC*%
G36*
X9681Y26032D02*
X9619Y26020D01*
X9567Y25985D01*
X9532Y25932D01*
X9520Y25871D01*
X9532Y25809D01*
X9567Y25756D01*
X9619Y25721D01*
X9681Y25709D01*
X9743Y25721D01*
X9795Y25756D01*
X9830Y25809D01*
X9843Y25871D01*
X9830Y25932D01*
X9795Y25985D01*
X9743Y26020D01*
X9681Y26032D01*
D02*
G37*
G36*
X10114Y26465D02*
X10052Y26453D01*
X10000Y26418D01*
X9965Y26366D01*
X9953Y26304D01*
X9965Y26242D01*
X10000Y26189D01*
X10052Y26154D01*
X10114Y26142D01*
X10176Y26154D01*
X10228Y26189D01*
X10263Y26242D01*
X10276Y26304D01*
X10263Y26366D01*
X10228Y26418D01*
X10176Y26453D01*
X10114Y26465D01*
D02*
G37*
G36*
Y26032D02*
X10052Y26020D01*
X10000Y25985D01*
X9965Y25932D01*
X9953Y25871D01*
X9965Y25809D01*
X10000Y25756D01*
X10052Y25721D01*
X10114Y25709D01*
X10176Y25721D01*
X10228Y25756D01*
X10263Y25809D01*
X10276Y25871D01*
X10263Y25932D01*
X10228Y25985D01*
X10176Y26020D01*
X10114Y26032D01*
D02*
G37*
G36*
X10547Y25599D02*
X10485Y25587D01*
X10433Y25552D01*
X10398Y25499D01*
X10386Y25438D01*
X10398Y25376D01*
X10433Y25323D01*
X10485Y25288D01*
X10547Y25276D01*
X10609Y25288D01*
X10661Y25323D01*
X10696Y25376D01*
X10709Y25438D01*
X10696Y25499D01*
X10661Y25552D01*
X10609Y25587D01*
X10547Y25599D01*
D02*
G37*
G36*
X9248Y25166D02*
X9186Y25154D01*
X9134Y25119D01*
X9099Y25066D01*
X9086Y25004D01*
X9099Y24943D01*
X9134Y24890D01*
X9186Y24855D01*
X9248Y24843D01*
X9310Y24855D01*
X9362Y24890D01*
X9397Y24943D01*
X9410Y25004D01*
X9397Y25066D01*
X9362Y25119D01*
X9310Y25154D01*
X9248Y25166D01*
D02*
G37*
G36*
X9681D02*
X9619Y25154D01*
X9567Y25119D01*
X9532Y25066D01*
X9520Y25004D01*
X9532Y24943D01*
X9567Y24890D01*
X9619Y24855D01*
X9681Y24843D01*
X9743Y24855D01*
X9795Y24890D01*
X9830Y24943D01*
X9843Y25004D01*
X9830Y25066D01*
X9795Y25119D01*
X9743Y25154D01*
X9681Y25166D01*
D02*
G37*
G36*
X8815Y24733D02*
X8753Y24721D01*
X8701Y24686D01*
X8666Y24633D01*
X8653Y24571D01*
X8666Y24510D01*
X8701Y24457D01*
X8753Y24422D01*
X8815Y24410D01*
X8877Y24422D01*
X8929Y24457D01*
X8964Y24510D01*
X8976Y24571D01*
X8964Y24633D01*
X8929Y24686D01*
X8877Y24721D01*
X8815Y24733D01*
D02*
G37*
G36*
Y25166D02*
X8753Y25154D01*
X8701Y25119D01*
X8666Y25066D01*
X8653Y25004D01*
X8666Y24943D01*
X8701Y24890D01*
X8753Y24855D01*
X8815Y24843D01*
X8877Y24855D01*
X8929Y24890D01*
X8964Y24943D01*
X8976Y25004D01*
X8964Y25066D01*
X8929Y25119D01*
X8877Y25154D01*
X8815Y25166D01*
D02*
G37*
G36*
X9681Y25599D02*
X9619Y25587D01*
X9567Y25552D01*
X9532Y25499D01*
X9520Y25438D01*
X9532Y25376D01*
X9567Y25323D01*
X9619Y25288D01*
X9681Y25276D01*
X9743Y25288D01*
X9795Y25323D01*
X9830Y25376D01*
X9843Y25438D01*
X9830Y25499D01*
X9795Y25552D01*
X9743Y25587D01*
X9681Y25599D01*
D02*
G37*
G36*
X10114D02*
X10052Y25587D01*
X10000Y25552D01*
X9965Y25499D01*
X9953Y25438D01*
X9965Y25376D01*
X10000Y25323D01*
X10052Y25288D01*
X10114Y25276D01*
X10176Y25288D01*
X10228Y25323D01*
X10263Y25376D01*
X10276Y25438D01*
X10263Y25499D01*
X10228Y25552D01*
X10176Y25587D01*
X10114Y25599D01*
D02*
G37*
G36*
Y25166D02*
X10052Y25154D01*
X10000Y25119D01*
X9965Y25066D01*
X9953Y25004D01*
X9965Y24943D01*
X10000Y24890D01*
X10052Y24855D01*
X10114Y24843D01*
X10176Y24855D01*
X10228Y24890D01*
X10263Y24943D01*
X10276Y25004D01*
X10263Y25066D01*
X10228Y25119D01*
X10176Y25154D01*
X10114Y25166D01*
D02*
G37*
G36*
X9248Y25599D02*
X9186Y25587D01*
X9134Y25552D01*
X9099Y25499D01*
X9086Y25438D01*
X9099Y25376D01*
X9134Y25323D01*
X9186Y25288D01*
X9248Y25276D01*
X9310Y25288D01*
X9362Y25323D01*
X9397Y25376D01*
X9410Y25438D01*
X9397Y25499D01*
X9362Y25552D01*
X9310Y25587D01*
X9248Y25599D01*
D02*
G37*
%LPD*%
D10*
X2900Y1660D02*
G03*
X2900Y1660I-960J0D01*
G01*
X3120Y26970D02*
G03*
X3120Y26970I-960J0D01*
G01*
X18831Y19620D02*
G03*
X18831Y19620I-960J0D01*
G01*
Y1730D02*
G03*
X18831Y1730I-960J0D01*
G01*
D18*
X10310Y1257D02*
D03*
Y880D02*
D03*
X9237Y12507D02*
D03*
Y12130D02*
D03*
X4191Y24166D02*
D03*
Y24545D02*
D03*
X8777Y13100D02*
D03*
Y13479D02*
D03*
X8737Y15233D02*
D03*
Y15610D02*
D03*
X8347Y15607D02*
D03*
Y15230D02*
D03*
X6587Y14827D02*
D03*
Y14450D02*
D03*
X7747Y13037D02*
D03*
Y12660D02*
D03*
X6187Y14453D02*
D03*
Y14830D02*
D03*
X8827Y12133D02*
D03*
Y12510D02*
D03*
X8287Y12133D02*
D03*
Y12510D02*
D03*
X6477Y13087D02*
D03*
Y12710D02*
D03*
X7557Y15233D02*
D03*
Y15610D02*
D03*
X7957Y15607D02*
D03*
Y15230D02*
D03*
X6987Y15213D02*
D03*
Y15590D02*
D03*
X6977Y12953D02*
D03*
Y13330D02*
D03*
X6721Y26833D02*
D03*
Y27210D02*
D03*
X10751Y26825D02*
D03*
Y26448D02*
D03*
X9081Y26825D02*
D03*
Y26448D02*
D03*
X8601Y26825D02*
D03*
Y26448D02*
D03*
X8160Y26853D02*
D03*
Y27230D02*
D03*
X15880Y866D02*
D03*
Y1245D02*
D03*
X9434Y880D02*
D03*
Y1259D02*
D03*
X12191Y26859D02*
D03*
Y26480D02*
D03*
X15083Y866D02*
D03*
Y1245D02*
D03*
X8636Y880D02*
D03*
Y1259D02*
D03*
X7738Y11840D02*
D03*
Y12217D02*
D03*
X5641Y24166D02*
D03*
Y24545D02*
D03*
D19*
X10256Y16870D02*
D03*
X9720D02*
D03*
X9604Y15038D02*
D03*
X10140D02*
D03*
X9413Y4630D02*
D03*
X9949D02*
D03*
X8669Y16580D02*
D03*
X9204D02*
D03*
X10250Y16110D02*
D03*
X9714D02*
D03*
X9760Y14466D02*
D03*
X9224D02*
D03*
X5935Y11598D02*
D03*
X5399D02*
D03*
X12502Y5730D02*
D03*
X13038D02*
D03*
X7173Y26830D02*
D03*
X7709D02*
D03*
X4935Y27737D02*
D03*
X5470D02*
D03*
X4613Y25683D02*
D03*
X5149D02*
D03*
D20*
X6040Y10340D02*
D03*
Y10875D02*
D03*
X11478Y16224D02*
D03*
Y15689D02*
D03*
X5480Y10875D02*
D03*
Y10340D02*
D03*
X13060Y5218D02*
D03*
Y4682D02*
D03*
X6772Y11439D02*
D03*
Y10904D02*
D03*
X10906Y15689D02*
D03*
Y16224D02*
D03*
X12497Y5218D02*
D03*
Y4683D02*
D03*
X10513Y4633D02*
D03*
Y5169D02*
D03*
X1883Y8682D02*
D03*
Y9218D02*
D03*
X1333Y8682D02*
D03*
Y9218D02*
D03*
D21*
X15867Y1630D02*
D03*
X15490D02*
D03*
X7060Y8060D02*
D03*
X6683D02*
D03*
X5527Y8760D02*
D03*
X5150D02*
D03*
X5900Y13900D02*
D03*
X6277D02*
D03*
X6274Y13490D02*
D03*
X5897D02*
D03*
X8304Y14670D02*
D03*
X7927D02*
D03*
X7930Y14290D02*
D03*
X8307D02*
D03*
X8344Y13430D02*
D03*
X7967D02*
D03*
X7965Y13838D02*
D03*
X8342D02*
D03*
X6390Y12200D02*
D03*
X6767D02*
D03*
X7364Y14750D02*
D03*
X6987D02*
D03*
X8214Y25438D02*
D03*
X8591D02*
D03*
X8984Y24150D02*
D03*
X9361D02*
D03*
X11078Y24748D02*
D03*
X10701D02*
D03*
X7331Y27300D02*
D03*
X7708D02*
D03*
X8631Y26060D02*
D03*
X8254D02*
D03*
D22*
X710Y2880D02*
D03*
X18791Y3370D02*
D03*
X18171Y28060D02*
D03*
D29*
X6201Y25220D02*
D03*
Y25974D02*
D03*
D45*
X9234Y12507D02*
X11093Y14366D01*
X6657Y25974D02*
X7120Y25511D01*
Y25280D02*
Y25511D01*
Y25280D02*
X7540Y24860D01*
X9890Y25801D02*
X9906D01*
X9890Y25784D02*
Y25801D01*
X9767Y25662D02*
X9890Y25784D01*
X9595Y25662D02*
X9767D01*
X9473Y25784D02*
X9595Y25662D01*
X9473Y25784D02*
Y25801D01*
X9456D02*
X9473D01*
X9456Y25784D02*
Y25801D01*
X9334Y25662D02*
X9456Y25784D01*
X9163Y25662D02*
X9334D01*
X9040Y25538D02*
X9163Y25662D01*
X10000Y14573D02*
X10105Y14468D01*
X10000Y14573D02*
Y14577D01*
X9871D02*
X10000D01*
X9760Y14466D02*
X9871Y14577D01*
X10105Y14468D02*
X10167D01*
X6909Y15955D02*
X6969D01*
X6841Y15886D02*
X6909Y15955D01*
X6841Y15856D02*
Y15886D01*
Y15856D02*
X6963D01*
X6982Y15837D01*
X6987Y15590D02*
Y15841D01*
X7268Y15310D02*
Y15880D01*
Y15310D02*
X7345Y15233D01*
X6982Y15837D02*
X6987Y15841D01*
X12032Y4686D02*
X12998D01*
X9949Y4633D02*
X10513D01*
X2608Y9420D02*
X12221D01*
X2333Y9695D02*
X2608Y9420D01*
X12221D02*
X12501Y9140D01*
X11093Y14366D02*
Y15207D01*
X9480Y11510D02*
X12098Y14128D01*
X7740Y11510D02*
X9480D01*
X12098Y14128D02*
Y14297D01*
X7570Y10619D02*
Y10960D01*
X6971Y10020D02*
X7570Y10619D01*
X7041Y4630D02*
X9413D01*
X6561Y5110D02*
X7041Y4630D01*
X12098Y17370D02*
Y17380D01*
Y14297D02*
Y17370D01*
X12108Y17380D01*
X1880Y8370D02*
X1883Y8373D01*
Y8682D01*
X1330Y8370D02*
X1333Y8373D01*
Y8682D01*
X10906Y15394D02*
Y15641D01*
X9397Y15370D02*
X10882D01*
X10906Y15394D01*
X9118Y15910D02*
X9557D01*
X9714Y16067D01*
Y16110D01*
X9204Y16193D02*
X9208Y16190D01*
X9720Y16116D02*
Y16870D01*
X10558Y15670D02*
Y16700D01*
X10667Y16809D02*
Y17010D01*
X10558Y16700D02*
X10667Y16809D01*
Y17010D02*
X11488D01*
X10458Y15570D02*
X10558Y15670D01*
X11848Y14240D02*
Y16650D01*
X9298Y11690D02*
X11848Y14240D01*
X6890Y3770D02*
X8210D01*
X9110Y2870D01*
X12270D01*
X5538Y4307D02*
X6353D01*
X6890Y3770D01*
X10210Y8470D02*
X12000Y6680D01*
X7694Y8470D02*
X10210D01*
X7464Y8700D02*
X7694Y8470D01*
X11028Y5434D02*
Y5708D01*
X12000Y6680D01*
X13020D01*
X13052Y4322D02*
Y4680D01*
X12998Y4686D02*
X13022Y4710D01*
X8697Y14670D02*
X9397Y15370D01*
X8978Y15230D02*
X9318Y15570D01*
X10458D01*
X7540Y24860D02*
X8373D01*
X13022Y4710D02*
X13052Y4680D01*
X13038Y5240D02*
X13060Y5218D01*
X13038Y5240D02*
Y5730D01*
X10513Y4633D02*
X10600D01*
Y4686D02*
X11028D01*
X6201Y25974D02*
X6657D01*
X4161Y25650D02*
X4580D01*
X4613Y25683D01*
X6130Y10020D02*
X6971D01*
X6040Y10110D02*
X6130Y10020D01*
X6040Y10110D02*
Y10340D01*
X7268Y15880D02*
X7618Y16230D01*
X10250Y16110D02*
Y16468D01*
X10898Y16560D02*
X10906Y16552D01*
Y16224D02*
Y16552D01*
X11478Y16224D02*
Y16630D01*
X10607Y26304D02*
X10751Y26448D01*
X7357Y343D02*
X8045D01*
X6954Y532D02*
X7168D01*
X6077Y343D02*
X6765D01*
X13519Y1591D02*
X13531Y1602D01*
X13519Y1575D02*
Y1591D01*
X13521Y1288D02*
Y1543D01*
X13817Y333D02*
X14505D01*
X12537D02*
X13225D01*
X13414Y522D02*
X13628D01*
X13707Y443D02*
X13903Y639D01*
X13912Y630D01*
X13913D01*
X13628Y522D02*
X13707Y443D01*
X13817Y333D01*
X13135Y616D02*
X13322Y429D01*
X13135Y616D02*
Y630D01*
X13225Y333D02*
X13322Y429D01*
X13414Y522D01*
X7259Y441D02*
X7446Y628D01*
Y640D01*
X7168Y532D02*
X7259Y441D01*
X7357Y343D01*
X6688Y640D02*
X6875Y453D01*
X6679Y640D02*
X6688D01*
X6765Y343D02*
X6875Y453D01*
X6954Y532D01*
X9030Y627D02*
Y903D01*
X15477Y623D02*
Y899D01*
X5149Y25683D02*
X5165Y25700D01*
X4613Y25306D02*
Y25683D01*
X5476Y25306D02*
X5758Y25588D01*
X5465Y25982D02*
X5478Y25970D01*
X5600D01*
X5465Y25982D02*
Y26221D01*
X5165Y25700D02*
X5488D01*
X4613Y25306D02*
X5476D01*
X4613Y25683D02*
X4717Y25787D01*
X5091Y25741D02*
X5149Y25683D01*
X4717Y25787D02*
Y26221D01*
X5091Y25741D02*
Y26221D01*
X5758Y25588D02*
Y25811D01*
X5600Y25970D02*
X5758Y25811D01*
X6561Y7534D02*
X6653Y7627D01*
X6561Y5110D02*
Y7534D01*
X10547Y24594D02*
X10701Y24748D01*
X10547Y24571D02*
Y24594D01*
X8373Y24860D02*
X8742Y25229D01*
X8373Y24860D02*
X8607Y24627D01*
X8742Y25229D02*
X8901D01*
X9040Y25367D01*
Y25538D01*
X8607Y24335D02*
Y24627D01*
X8791Y24150D02*
X8984D01*
X8607Y24335D02*
X8791Y24150D01*
X9361Y23980D02*
Y24150D01*
X9301Y23920D02*
X9361Y23980D01*
X9301Y23790D02*
Y23920D01*
X8984Y23987D02*
Y24150D01*
Y23987D02*
X9041Y23930D01*
Y23790D02*
Y23930D01*
X7618Y16230D02*
X8798D01*
X9118Y15910D01*
X7738Y12217D02*
X7941D01*
X8008Y12150D01*
Y11830D02*
Y12150D01*
Y11830D02*
X8148Y11690D01*
X9298D01*
X11488Y17010D02*
X11848Y16650D01*
X7713Y11840D02*
X7738D01*
X9204Y16193D02*
Y16580D01*
X5480Y10340D02*
X6040D01*
X12430Y6338D02*
X13038Y5730D01*
X10906Y15394D02*
X11093Y15207D01*
X2539Y10482D02*
Y10659D01*
X2333Y10276D02*
X2539Y10482D01*
X2333Y9695D02*
Y10276D01*
D46*
X7958Y13431D02*
X7967Y13440D01*
X7958Y13421D02*
Y13431D01*
X7889Y13490D02*
X7958Y13421D01*
X15880Y1245D02*
Y2850D01*
X15083Y1245D02*
X15880D01*
X14120Y1900D02*
X17185Y4965D01*
X13940Y1900D02*
X14120D01*
X17185Y4965D02*
X17498D01*
X15340Y1980D02*
Y2490D01*
Y1980D02*
X15490Y1830D01*
X15880Y2850D02*
X18810Y5780D01*
X13896Y2460D02*
X14480D01*
X9434Y1259D02*
X12695D01*
X8636D02*
X9434D01*
X11631Y21831D02*
Y23190D01*
X9841Y20041D02*
X11631Y21831D01*
X9841Y19190D02*
Y20041D01*
X6110Y19340D02*
X6261D01*
X5901Y19131D02*
X6110Y19340D01*
X5901Y16781D02*
Y19131D01*
X5761Y19360D02*
X6251Y19850D01*
X5607Y15870D02*
Y16289D01*
X8295Y27900D02*
X10466D01*
X8210Y28020D02*
X10851D01*
X7830Y27640D02*
X8210Y28020D01*
X10851D02*
X11571Y27300D01*
X10466Y27900D02*
X11331Y27034D01*
X7926Y27530D02*
X8295Y27900D01*
X7300Y27640D02*
X7830D01*
X7230Y27530D02*
X7926D01*
X6780Y28160D02*
X7300Y27640D01*
X6720Y28040D02*
X7230Y27530D01*
X10310Y600D02*
Y610D01*
Y880D01*
X15490Y1630D02*
Y1830D01*
X17665Y5132D02*
Y5445D01*
X18240Y6020D01*
X18670Y6339D02*
Y6800D01*
X18351Y6020D02*
X18670Y6339D01*
X17498Y4965D02*
X17665Y5132D01*
X18240Y6020D02*
X18351D01*
X12695Y1259D02*
X13896Y2460D01*
X14480D02*
X17095Y5075D01*
X17262Y5535D02*
X17555D01*
X17095Y5075D02*
Y5368D01*
X17555Y5535D02*
X18150Y6130D01*
X18530Y6354D02*
Y6740D01*
X18306Y6130D02*
X18530Y6354D01*
X17095Y5368D02*
X17262Y5535D01*
X18150Y6130D02*
X18306D01*
X6900Y11978D02*
Y12067D01*
X6767Y12200D02*
X6900Y12067D01*
X7077Y11653D02*
Y12402D01*
X6977Y12502D02*
Y12750D01*
Y12502D02*
X7077Y12402D01*
X6977Y12750D02*
Y12953D01*
X7175Y5068D02*
X7393Y4850D01*
X12411Y24420D02*
Y25440D01*
X12121Y24130D02*
X12411Y24420D01*
X12061Y25790D02*
X12411Y25440D01*
X1031Y20670D02*
X1101Y20740D01*
X1031Y19621D02*
Y20670D01*
X14770Y17240D02*
X14960Y17430D01*
X14770Y8420D02*
Y17240D01*
X13640Y7290D02*
X14770Y8420D01*
X14900Y17160D02*
X15110Y17370D01*
X14900Y7910D02*
Y17160D01*
Y7910D02*
X15660Y7150D01*
X15050Y17100D02*
X15250Y17300D01*
X15050Y10030D02*
Y17100D01*
Y10030D02*
X18400Y6680D01*
X15190Y17040D02*
X15410Y17260D01*
X15190Y10080D02*
Y17040D01*
Y10080D02*
X18530Y6740D01*
X15340Y16970D02*
X15550Y17180D01*
X15340Y10130D02*
Y16970D01*
Y10130D02*
X18670Y6800D01*
X15780Y19010D02*
Y20810D01*
Y18990D02*
Y19010D01*
Y18970D02*
Y18990D01*
X15480Y16890D02*
X15780Y17190D01*
X15480Y10180D02*
Y16890D01*
Y10180D02*
X18810Y6850D01*
X6211Y16703D02*
Y18330D01*
X5807Y16299D02*
X6211Y16703D01*
X6031Y16714D02*
Y18640D01*
X5607Y16289D02*
X6031Y16714D01*
X5397Y16276D02*
X5901Y16781D01*
X5761Y16818D02*
Y19360D01*
X5267Y16323D02*
X5761Y16818D01*
X6911Y17183D02*
Y17570D01*
X5998Y16270D02*
X6911Y17183D01*
X8390Y17390D02*
X8530Y17530D01*
X7328Y17390D02*
X8390D01*
X9247Y17932D02*
Y18238D01*
X8576Y17260D02*
X9247Y17932D01*
X7550Y11180D02*
X10221D01*
X7077Y11653D02*
X7550Y11180D01*
X7620Y11300D02*
X10067D01*
X7288Y11632D02*
X7620Y11300D01*
X10520Y7820D02*
X11350Y6990D01*
X11330Y6690D02*
X11340D01*
X10410Y7610D02*
X11330Y6690D01*
X7681Y7610D02*
X10410D01*
X7474Y7817D02*
X7681Y7610D01*
X7860Y7820D02*
X10520D01*
X7393Y4850D02*
X7530D01*
X11320Y18530D02*
X12820Y17030D01*
Y14053D02*
Y17030D01*
X10067Y11300D02*
X12820Y14053D01*
X11330Y18760D02*
X13000Y17090D01*
Y13959D02*
Y17090D01*
X10221Y11180D02*
X13000Y13959D01*
X9570Y18530D02*
X11320D01*
X9841Y18760D02*
X11330D01*
X5650Y1790D02*
X12480D01*
X940Y9110D02*
X1048Y9218D01*
X1333D01*
X940Y8100D02*
Y9110D01*
Y8100D02*
X1650Y7390D01*
Y4230D02*
Y7390D01*
Y4230D02*
X2190Y3690D01*
X3750D01*
X5650Y1790D01*
X451Y3992D02*
Y11357D01*
X5807Y15290D02*
Y16299D01*
X7767Y13490D02*
X7889D01*
X7958Y13421D02*
X7967Y13430D01*
X18810Y5780D02*
Y6850D01*
X18400Y6380D02*
Y6680D01*
X18260Y6240D02*
X18400Y6380D01*
X16350Y21770D02*
Y24820D01*
X15420Y25750D02*
X16350Y24820D01*
X13950Y25750D02*
X15420D01*
X16411Y24969D02*
X16490Y24890D01*
X16411Y24969D02*
Y25150D01*
X16490Y21720D02*
Y24890D01*
X16645Y21675D02*
Y25265D01*
X15875Y26035D02*
X16645Y25265D01*
X14040Y26035D02*
X15875D01*
X13770Y25930D02*
Y26370D01*
Y25930D02*
X13950Y25750D01*
X16020Y22750D02*
X16140Y22630D01*
X16020Y22750D02*
Y24320D01*
X15250Y20880D02*
X16140Y21770D01*
Y22630D01*
X15760Y18970D02*
X15780Y18990D01*
X15550Y17180D02*
Y20780D01*
X16490Y21720D01*
X15780Y17190D02*
Y18960D01*
Y20810D02*
X16645Y21675D01*
X16420Y5730D02*
X17100D01*
X12480Y1790D02*
X16420Y5730D01*
X15410Y20830D02*
X16350Y21770D01*
X15410Y17260D02*
Y20830D01*
X13580Y3790D02*
Y3940D01*
X12400Y2610D02*
X13580Y3790D01*
X12430Y2470D02*
X14030Y4070D01*
Y4530D02*
X15740Y6240D01*
X8510Y2470D02*
X12430D01*
X14030Y4070D02*
Y4530D01*
X15740Y6240D02*
X18260D01*
X8680Y2610D02*
X12400D01*
X15250Y17300D02*
Y20880D01*
X15110Y20980D02*
X15910Y21780D01*
X15110Y17370D02*
Y20980D01*
X14960Y21190D02*
X15510Y21740D01*
X14960Y17430D02*
Y21190D01*
X7610Y3370D02*
X8510Y2470D01*
X8140Y3150D02*
X8680Y2610D01*
X3780Y2900D02*
Y2930D01*
X3420Y3290D02*
X3780Y2930D01*
X1153Y3290D02*
X3420D01*
X15910Y21780D02*
Y22450D01*
X15480Y22880D02*
X15910Y22450D01*
X12261Y22880D02*
X15480D01*
X4941Y21800D02*
X5671Y21070D01*
X4941Y21800D02*
Y23600D01*
X12181Y23740D02*
X13380D01*
X15100Y25460D01*
X12378Y27370D02*
X12520D01*
X4341Y28160D02*
X6780D01*
X4377Y28040D02*
X6720D01*
X4011Y27830D02*
X4341Y28160D01*
X4191Y27854D02*
X4377Y28040D01*
X11481Y23840D02*
X12091Y24450D01*
X11001Y23840D02*
X11481D01*
X11701Y23710D02*
X12121Y24130D01*
X10401Y23710D02*
X11701D01*
X12121Y23925D02*
X12316D01*
X11771Y23575D02*
X12121Y23925D01*
X11331Y26230D02*
Y27034D01*
X11861Y26853D02*
X12378Y27370D01*
X11861Y26480D02*
Y26853D01*
X5998Y15440D02*
Y16270D01*
X6168Y15520D02*
X6228Y15460D01*
X6168Y15520D02*
Y16230D01*
X6298Y15570D02*
Y16170D01*
Y15570D02*
X6443Y15425D01*
X6228Y15330D02*
Y15460D01*
X6443Y15295D02*
Y15425D01*
Y15295D02*
X6568Y15170D01*
X12471Y26421D02*
X13054D01*
X12412Y26480D02*
X12471Y26421D01*
X12191Y26480D02*
X12412D01*
X12191Y26340D02*
Y26480D01*
X6168Y16230D02*
X7328Y17390D01*
X6298Y16170D02*
X7388Y17260D01*
X6031Y18640D02*
X6221Y18830D01*
X6211Y18330D02*
X6221Y18340D01*
X6187Y14443D02*
X6235Y14394D01*
X7803Y14546D02*
X7927Y14670D01*
X7806Y14414D02*
X7930Y14290D01*
X6587Y14430D02*
X6590Y14427D01*
X6477Y13087D02*
X6480Y13091D01*
X7742Y13041D02*
X7747Y13037D01*
X8307Y14290D02*
X8317Y14300D01*
X8027Y12470D02*
Y12685D01*
X8442Y13100D01*
X8737D01*
X7165Y5058D02*
X7175Y5068D01*
X9991Y23638D02*
X10161Y23808D01*
X451Y3992D02*
X1153Y3290D01*
X15880Y1245D02*
X15880Y1245D01*
X1101Y20740D02*
Y24020D01*
X981Y24140D02*
X1101Y24020D01*
X981Y24140D02*
Y24510D01*
X1741Y25270D01*
X2851D01*
X4011Y26430D01*
Y27830D01*
X12151Y19810D02*
Y21270D01*
Y19810D02*
X12521Y19440D01*
X12496Y26224D02*
X13054D01*
X10161Y23808D02*
X10304D01*
X10401Y23710D01*
X10891Y23950D02*
X11001Y23840D01*
X12722Y25831D02*
X13054D01*
X12651Y25760D02*
X12722Y25831D01*
X12651Y25390D02*
Y25760D01*
Y25390D02*
X12751Y25290D01*
Y24530D02*
Y25290D01*
X11851Y26000D02*
X12191Y26340D01*
X11261Y24050D02*
X11851Y24640D01*
Y26000D01*
X12629Y26028D02*
X13054D01*
X12411Y25810D02*
X12629Y26028D01*
X12411Y25810D02*
X12531Y25690D01*
X12061Y25790D02*
X12496Y26224D01*
X11891Y20290D02*
Y21470D01*
X12531Y24140D02*
Y25690D01*
X10251Y23590D02*
X10266Y23575D01*
X11771D01*
X12316Y23925D02*
X12531Y24140D01*
X3652Y24110D02*
X3977Y23785D01*
X3652Y24110D02*
Y25621D01*
X4191Y26160D01*
Y27854D01*
X11631Y23190D02*
X12181Y23740D01*
X8499Y23818D02*
X8736Y23580D01*
X9361D01*
X9731Y23950D01*
X10891D01*
X9814Y23460D02*
X9991Y23638D01*
X8501Y23460D02*
X9814D01*
X7671Y22630D02*
X8501Y23460D01*
X7739Y20512D02*
X7901Y20673D01*
X7801Y22570D02*
X8561Y23330D01*
X9991D01*
X10251Y23590D01*
X7671Y20870D02*
Y22630D01*
X7801Y21060D02*
Y22570D01*
Y21060D02*
X7901Y20960D01*
Y20673D02*
Y20960D01*
X7288Y12153D02*
X7385Y12250D01*
X7288Y11632D02*
Y12153D01*
X9261Y19340D02*
X9841Y18760D01*
X9261Y18839D02*
X9570Y18530D01*
X3977Y23785D02*
X4756D01*
X4941Y23600D01*
X6747Y12220D02*
Y12461D01*
Y12220D02*
X6767Y12200D01*
X5859Y14248D02*
X5991D01*
X5927Y14480D02*
Y14861D01*
X5397Y15391D02*
X5927Y14861D01*
X5397Y15391D02*
Y16276D01*
X5267Y15320D02*
Y16323D01*
X5757Y14350D02*
X5859Y14248D01*
X5757Y14350D02*
Y14830D01*
X5267Y15320D02*
X5757Y14830D01*
X7388Y17260D02*
X8576D01*
X451Y11357D02*
X738Y11644D01*
D48*
X8161Y27200D02*
Y27451D01*
X8746Y12100D02*
X8770Y12076D01*
X6590Y14427D02*
X6613Y14450D01*
X4861Y27750D02*
X4928Y27816D01*
X7468Y11724D02*
X7596D01*
X7090Y8096D02*
X7093Y8093D01*
X11078Y24738D02*
X11106Y24766D01*
X8617Y12507D02*
X8830D01*
X8317Y14300D02*
X8327Y14290D01*
X8587Y13470D02*
X9098D01*
X8347Y15230D02*
X8978D01*
X6574Y14820D02*
X6738Y14984D01*
X5977Y15030D02*
X6187Y14820D01*
X6574D01*
X7090Y8096D02*
Y8420D01*
X8487Y27180D02*
X9082Y27775D01*
X8160Y26853D02*
X8487Y27180D01*
X8490D01*
X8600Y27070D01*
X9231Y27340D02*
Y27540D01*
X9082Y27775D02*
X10326D01*
X9091Y26914D02*
Y27068D01*
X10326Y27775D02*
X11078Y27023D01*
X9001Y26824D02*
X9091Y26914D01*
X7709Y26830D02*
X7732Y26853D01*
X8160D01*
X8161Y27451D02*
X8200Y27490D01*
X14505Y904D02*
X14633Y1031D01*
Y1783D01*
X8045Y874D02*
X8630D01*
X6648Y15640D02*
Y16020D01*
Y15640D02*
X6767Y15521D01*
X6648Y16020D02*
X7208Y16580D01*
X7345Y15233D02*
X7557D01*
X8037Y15020D02*
Y15150D01*
X7957Y15230D02*
X8037Y15150D01*
X9098Y13041D02*
Y13470D01*
X8917Y12860D02*
X9098Y13041D01*
X8407Y12860D02*
X8917D01*
X8287Y12740D02*
X8407Y12860D01*
X8601Y26825D02*
Y27069D01*
X8600Y27070D02*
X8601Y27069D01*
X14507Y866D02*
X15083D01*
X4150Y7870D02*
X4160D01*
X4430Y7600D01*
X15930Y15530D02*
X16350D01*
X8287Y12510D02*
Y12740D01*
X8570Y12460D02*
X8617Y12507D01*
X8830D02*
X9234D01*
X8596Y11950D02*
X8746Y12100D01*
X8580Y11950D02*
X8596D01*
X8770Y12076D02*
X8826Y12132D01*
X10390Y17450D02*
X10667Y17173D01*
X9508Y17450D02*
X10390D01*
X9048Y16990D02*
X9508Y17450D01*
X10667Y17010D02*
Y17173D01*
X6721Y27210D02*
Y27510D01*
Y27207D02*
Y27210D01*
X8342Y13838D02*
Y13878D01*
Y13471D02*
Y13838D01*
X8344Y13430D02*
X8547D01*
X8587Y13470D01*
X9098D02*
Y13600D01*
X6477Y12710D02*
X6517Y12670D01*
Y12470D02*
Y12670D01*
X6487Y12470D02*
X6517D01*
X6390Y12373D02*
X6487Y12470D01*
X7367Y14470D02*
Y14730D01*
X6161Y25220D02*
X6201D01*
X5811Y24870D02*
X6161Y25220D01*
X5640Y24547D02*
Y24870D01*
X5811D01*
X10906Y15689D02*
X11478D01*
X10906Y15641D02*
Y15689D01*
X4430Y5270D02*
Y7600D01*
X4500Y5030D02*
Y5200D01*
X4430Y5270D02*
X4500Y5200D01*
X6131Y4989D02*
X6800Y4320D01*
X7500D01*
X6650Y1299D02*
X6652Y1298D01*
X7061D01*
X15880Y866D02*
X16258D01*
X8630Y874D02*
X8636Y880D01*
X9224Y14918D02*
X9344Y15038D01*
X9604D01*
X9224Y14466D02*
Y14918D01*
X8784Y14268D02*
X8982Y14466D01*
X9224D01*
X8784Y13913D02*
Y14268D01*
X8304Y14670D02*
X8697D01*
X6437Y26833D02*
X6721D01*
X6300Y26970D02*
X6437Y26833D01*
X6300Y26970D02*
Y27180D01*
X6724Y26830D02*
X7173D01*
X6721Y26833D02*
X6724Y26830D01*
X6627Y15375D02*
Y15441D01*
X6767Y15433D02*
Y15521D01*
Y15433D02*
X6987Y15213D01*
X6458Y15610D02*
X6627Y15441D01*
X10524Y5158D02*
X10572Y5110D01*
X10750D01*
X10800Y5060D01*
X11028D01*
X12120Y5850D02*
X12240Y5730D01*
X12502D01*
X12084Y5079D02*
X12271D01*
X12410Y5218D01*
X12497D01*
X9231Y27340D02*
X9481Y27090D01*
X8254Y25807D02*
Y26060D01*
Y25807D02*
X8389Y25672D01*
X4471Y27750D02*
X4861D01*
X8044Y26270D02*
X8254Y26060D01*
X8031Y26270D02*
X8044D01*
X6041Y26670D02*
X6201Y26510D01*
Y25974D02*
Y26510D01*
X7348Y16990D02*
X9048D01*
X6458Y16100D02*
X7348Y16990D01*
X6458Y15610D02*
Y16100D01*
X7988Y15930D02*
X8018D01*
X7957Y15899D02*
X7988Y15930D01*
X7957Y15607D02*
Y15899D01*
X8829Y12130D02*
X9237D01*
X8827Y12510D02*
X8830Y12507D01*
X10547Y26304D02*
X10607D01*
X8347Y15607D02*
Y15930D01*
X8737Y15610D02*
Y15920D01*
X6235Y14299D02*
Y14394D01*
X6480Y13091D02*
X6718D01*
X7505Y13041D02*
X7742D01*
X8342Y13878D02*
X8494Y14030D01*
X8283Y11909D02*
X8287Y11914D01*
Y12133D01*
X6987Y15010D02*
Y15213D01*
Y14780D02*
Y15010D01*
X7954Y15233D02*
X7957Y15230D01*
X7557Y15233D02*
X7954D01*
X8347Y15230D02*
X8537Y15040D01*
X8304Y14670D02*
X8307Y14667D01*
Y14290D02*
Y14667D01*
X8327Y14290D02*
X8507D01*
X8054Y25418D02*
X8146D01*
X8591Y25438D02*
X8815D01*
X8815Y25438D01*
X11078Y24738D02*
Y24748D01*
X8601Y26448D02*
X8611D01*
X8729Y26329D01*
X10751Y26825D02*
Y27038D01*
X10761Y27048D01*
X8034Y25418D02*
X8044Y25408D01*
X9081Y26448D02*
X9104D01*
X9248Y26304D01*
X11235Y24638D02*
X11281D01*
X7747Y12450D02*
Y12660D01*
X6987Y15010D02*
X6997Y15020D01*
X7343Y914D02*
X8045D01*
X6077D02*
X6780D01*
X6958Y735D02*
X7164D01*
X7343Y914D01*
X13803Y904D02*
X14505D01*
X13418Y725D02*
X13624D01*
X13240Y904D02*
X13418Y725D01*
X12537Y904D02*
X13240D01*
X13624Y725D02*
X13803Y904D01*
X6780Y914D02*
X6958Y735D01*
X9434Y880D02*
X9844D01*
X9847Y883D01*
X12537Y904D02*
X12544Y911D01*
X12474Y26815D02*
X13054D01*
X12519Y26618D02*
X13054D01*
X12474Y26663D02*
X12519Y26618D01*
X12474Y26663D02*
Y26815D01*
X13054Y27012D02*
X13503D01*
X13645Y26870D01*
X13054Y25634D02*
X13503D01*
X13546Y25677D01*
X8001Y25418D02*
X8034D01*
X8537Y15040D02*
X8537D01*
X7060Y8060D02*
X7093Y8093D01*
X5830Y8130D02*
Y8760D01*
X5527D02*
X5830D01*
X4831D02*
X5150D01*
X6843Y13463D02*
X6977Y13330D01*
X6778Y13463D02*
X6843D01*
X7709Y26830D02*
Y27299D01*
X7708Y27300D02*
X7709Y27299D01*
X7041Y27300D02*
X7331D01*
X8631Y26054D02*
Y26060D01*
Y26054D02*
X8815Y25871D01*
X5470Y27737D02*
X5870D01*
X5465Y27225D02*
Y27732D01*
X5216Y24065D02*
Y24173D01*
Y24065D02*
X5391Y23890D01*
Y23890D02*
Y23890D01*
X6683Y7790D02*
Y8060D01*
X6653Y7627D02*
Y7760D01*
X6683Y7790D01*
X6627Y15375D02*
X6738Y15264D01*
X5830Y8130D02*
X6131Y7829D01*
Y4989D02*
Y7829D01*
X10246Y26825D02*
X10751D01*
X9906Y26485D02*
X10246Y26825D01*
X9906Y25801D02*
Y26485D01*
X8110Y25807D02*
X8254D01*
X8057Y25860D02*
X8110Y25807D01*
X7871Y25860D02*
X8057D01*
X7671Y25660D02*
X7871Y25860D01*
X7671Y25130D02*
Y25660D01*
X11106Y24766D02*
X11235Y24638D01*
X9361Y26090D02*
X9481Y26210D01*
X9131Y26090D02*
X9361D01*
X9021Y25980D02*
X9131Y26090D01*
X9021Y25762D02*
Y25980D01*
X8931Y25672D02*
X9021Y25762D01*
X9481Y26210D02*
Y27090D01*
X8389Y25672D02*
X8931D01*
X11078Y24748D02*
Y27023D01*
X12191Y26859D02*
X12430D01*
X12474Y26815D01*
X12430Y26859D02*
Y26899D01*
X12561Y27030D01*
X10256Y16870D02*
Y17208D01*
X10258Y17210D01*
X7208Y16580D02*
X8338D01*
X8669D01*
X7738Y12217D02*
Y12441D01*
X7747Y12450D01*
X7596Y11724D02*
X7713Y11840D01*
X6040Y10875D02*
X6042Y10878D01*
X8784Y13913D02*
X9098Y13600D01*
X6274Y13490D02*
X6279Y13484D01*
X6481D01*
X5897Y13490D02*
X5962Y13339D01*
X5897Y13490D02*
X5898Y13644D01*
X5899Y13746D02*
X5900Y13900D01*
X5898Y13644D02*
X5899Y13746D01*
X6277Y13900D02*
X6412Y13801D01*
X6481Y13750D01*
X6390Y12200D02*
Y12373D01*
Y12037D02*
Y12200D01*
X5399Y11271D02*
Y11598D01*
X5480Y10875D02*
Y11190D01*
X5399Y11271D02*
X5480Y11190D01*
X11028Y5060D02*
X11400D01*
X10140Y15038D02*
X10717D01*
X5399Y11856D02*
X5458Y11915D01*
X5399Y11598D02*
Y11856D01*
X5990Y12147D02*
Y13270D01*
X5962Y13339D02*
X5990Y13311D01*
Y13270D02*
Y13311D01*
X5458Y11915D02*
X5758D01*
X5990Y12147D01*
X6613Y14450D02*
X6847D01*
X6738Y14984D02*
Y15264D01*
X10717Y15038D02*
X10819Y15140D01*
X10820D01*
D50*
X18601Y9410D02*
Y13139D01*
X7960Y28180D02*
X12260D01*
X7670Y27890D02*
X7960Y28180D01*
X12260D02*
X12790Y27650D01*
X6040Y10875D02*
X6122D01*
X6685Y11439D01*
X6772D01*
Y11655D01*
X6390Y12037D02*
X6772Y11655D01*
X4191Y23930D02*
X4271D01*
X4038D02*
X4191D01*
X13744Y4488D02*
X15815Y6560D01*
X12485Y3230D02*
X13744Y4488D01*
X1985Y22123D02*
Y22123D01*
X1321Y22786D02*
X1985Y22123D01*
X8101Y10840D02*
X12761D01*
X7071Y9810D02*
X8101Y10840D01*
X12761Y10540D02*
Y10840D01*
X5280Y9610D02*
X12521D01*
X5130Y9760D02*
X5280Y9610D01*
X12521D02*
X12741Y9830D01*
X5425Y9895D02*
X5510Y9810D01*
X7071D01*
X15740Y11230D02*
X16090D01*
X16350Y15530D02*
Y18280D01*
Y15390D02*
Y15530D01*
Y15390D02*
X17550Y14190D01*
X16020Y18610D02*
X16350Y18280D01*
X5935Y11335D02*
X6050Y11220D01*
X5935Y11335D02*
Y11598D01*
X16020Y18810D02*
X16090Y18880D01*
X16020Y18610D02*
Y18810D01*
X16090Y18880D02*
Y20780D01*
X17550Y14190D02*
X18601Y13139D01*
X14350Y26340D02*
X15920D01*
X16840Y25420D01*
X16090Y20780D02*
X16840Y21530D01*
X15815Y6560D02*
X18140D01*
X12140Y3230D02*
X12485D01*
X9413Y4267D02*
X9670Y4010D01*
X9413Y4267D02*
Y4630D01*
X9670Y4010D02*
X11730D01*
X12140Y3600D01*
Y3230D02*
Y3600D01*
X12761Y10540D02*
X13310Y9991D01*
Y7300D02*
Y9991D01*
X16840Y21530D02*
Y25420D01*
X5630Y21570D02*
Y23440D01*
X3821Y25160D02*
X3921Y25260D01*
X3821Y24146D02*
Y25160D01*
X16090Y11230D02*
X16730Y11870D01*
Y13370D01*
X17550Y14190D01*
X12790Y27301D02*
Y27650D01*
X12561Y27072D02*
X12790Y27301D01*
X12561Y27030D02*
Y27072D01*
X1985Y22123D02*
X2240Y21868D01*
X1321Y22786D02*
Y24280D01*
X1261Y24340D02*
X1321Y24280D01*
X3821Y24146D02*
X4038Y23930D01*
X9714Y16110D02*
X9720Y16116D01*
X1985Y22123D02*
X2380Y22518D01*
X2270Y23098D02*
X2850Y22518D01*
X3160D01*
X16090Y11230D02*
X16091D01*
D51*
X5640Y24547D02*
X5641Y24545D01*
X5620Y24567D02*
X5640Y24547D01*
X4906Y24980D02*
X5091D01*
X4606Y24680D02*
X4906Y24980D01*
X4191Y23930D02*
Y24166D01*
X5216Y24370D02*
X5438D01*
X5216Y24567D02*
X5620D01*
X4191Y24166D02*
X4198Y24173D01*
X4606D01*
X4367Y24370D02*
X4606D01*
X4191Y24545D02*
X4367Y24370D01*
X5438D02*
X5641Y24166D01*
X4361Y24970D02*
X4561D01*
X4191Y24800D02*
X4361Y24970D01*
X4191Y24545D02*
Y24800D01*
X4606Y24567D02*
Y24680D01*
X5641Y23800D02*
Y24166D01*
X5481Y23640D02*
X5641Y23800D01*
X5241Y23640D02*
X5481D01*
X14521Y19440D02*
Y20168D01*
X13599Y21090D02*
X14521Y20168D01*
X13041Y18920D02*
Y20768D01*
Y18920D02*
X13521Y18440D01*
Y19440D02*
Y20510D01*
X4271Y23930D02*
X4951D01*
X5241Y23640D01*
D53*
X3817Y11223D02*
X3970Y11070D01*
Y10430D02*
Y11070D01*
X3768Y11103D02*
X3850Y11020D01*
Y10380D02*
Y11020D01*
X3450Y11070D02*
X3603Y11223D01*
X3450Y10920D02*
Y11070D01*
X3370Y10840D02*
X3450Y10920D01*
X3570Y11020D02*
X3652Y11103D01*
X3570Y10870D02*
Y11020D01*
X3420Y10720D02*
X3570Y10870D01*
X1750Y12690D02*
X1840Y12600D01*
Y12434D02*
Y12600D01*
Y12434D02*
X2020Y12254D01*
X1584Y12690D02*
X1750D01*
X1424Y12850D02*
X1584Y12690D01*
X3100Y10940D02*
Y11060D01*
X2947Y11213D02*
X3100Y11060D01*
X2980Y10890D02*
Y11010D01*
X2897Y11093D02*
X2980Y11010D01*
X1287Y11093D02*
X2897D01*
X1337Y11213D02*
X2947D01*
X2980Y10890D02*
X3150Y10720D01*
X4280Y10420D02*
Y11250D01*
X4400Y10370D02*
Y11200D01*
X2465Y11616D02*
X3277D01*
X4070Y14070D02*
X4224Y14224D01*
X4070Y13940D02*
Y14070D01*
Y13940D02*
X4224Y13786D01*
Y14224D02*
Y14334D01*
Y13414D02*
Y13786D01*
X3617Y14110D02*
X3727Y14110D01*
X3577Y14270D02*
X3617Y14310D01*
X3320Y14270D02*
X3577D01*
X3777Y13250D02*
X3877D01*
X3737Y13090D02*
X3777Y13050D01*
X3475Y13090D02*
X3737D01*
X3777Y13050D02*
X3877Y13050D01*
X4317Y12800D02*
Y13321D01*
X4277Y12760D02*
X4317Y12800D01*
X4277Y12650D02*
Y12760D01*
X4437Y12800D02*
Y13371D01*
Y12800D02*
X4477Y12760D01*
X4344Y13464D02*
Y14384D01*
Y13464D02*
X4437Y13371D01*
X4631Y13576D02*
X4874Y13333D01*
X4631Y13576D02*
Y14146D01*
X4751Y13626D02*
Y14097D01*
Y13626D02*
X4923Y13453D01*
X3219Y14371D02*
Y15231D01*
X2697Y14254D02*
Y15237D01*
X2266Y14344D02*
Y15234D01*
X1711Y14220D02*
Y15240D01*
X3099Y14322D02*
Y15182D01*
X2817Y14205D02*
Y15187D01*
X2146Y14295D02*
Y15185D01*
X1831Y14171D02*
Y15191D01*
X1711Y15240D02*
X1849Y15379D01*
X1831Y15191D02*
X1899Y15259D01*
X2071D02*
X2146Y15185D01*
X2121Y15379D02*
X2266Y15234D01*
X2697Y15237D02*
X2839Y15379D01*
X2648Y14035D02*
X2817Y14205D01*
Y15187D02*
X2889Y15259D01*
X3021D02*
X3099Y15182D01*
X3071Y15379D02*
X3219Y15231D01*
X2405Y14035D02*
X2648D01*
X4657Y11450D02*
X4757D01*
X4617Y11410D02*
X4657Y11450D01*
X4440Y11410D02*
X4617D01*
X4280Y11250D02*
X4440Y11410D01*
X4190Y10330D02*
X4280Y10420D01*
X1270Y12381D02*
X1429Y12222D01*
X1100Y12381D02*
X1270D01*
X1429Y11702D02*
Y12222D01*
X3603Y11223D02*
X3817D01*
X1220Y11494D02*
X1429Y11702D01*
X960Y12421D02*
X1060D01*
X1100Y12381D01*
X1220Y11329D02*
Y11494D01*
X3970Y10430D02*
X4070Y10330D01*
X4190D01*
X1220Y11329D02*
X1337Y11213D01*
X3100Y10940D02*
X3200Y10840D01*
X3370D01*
X4617Y11290D02*
X4657Y11250D01*
X4400Y11200D02*
X4490Y11290D01*
X4657Y11250D02*
X4757D01*
X4490Y11290D02*
X4617D01*
X4240Y10210D02*
X4400Y10370D01*
X3885Y10345D02*
X4020Y10210D01*
X4240D01*
X3885Y10345D02*
Y10345D01*
X1220Y12261D02*
X1309Y12172D01*
X1101Y12261D02*
X1220D01*
X1309Y11752D02*
Y12172D01*
X1100Y11543D02*
X1309Y11752D01*
X1060Y12220D02*
X1101Y12261D01*
X960Y12220D02*
X1060D01*
X1100Y11280D02*
Y11543D01*
X3652Y11103D02*
X3768D01*
X3850Y10380D02*
X3885Y10345D01*
X1100Y11280D02*
X1287Y11093D01*
X3150Y10720D02*
X3420D01*
X4906Y14195D02*
X4964Y14253D01*
X4893Y14182D02*
X4906Y14195D01*
X4837Y14182D02*
X4893Y14182D01*
X4751Y14097D02*
X4837Y14182D01*
X5097Y13453D02*
X5337Y13213D01*
X5067Y12190D02*
X5337Y12459D01*
X4923Y13453D02*
X5097D01*
X5337Y12459D02*
Y13213D01*
X4021Y12190D02*
X5067D01*
X1374Y12730D02*
X1900Y12205D01*
X1100Y12730D02*
X1374D01*
X1900Y12070D02*
Y12205D01*
X1060Y12690D02*
X1100Y12730D01*
X960Y12690D02*
X1060D01*
X2321Y11590D02*
X2415Y11496D01*
X3327D02*
X4021Y12190D01*
X2106Y11496D02*
X2200Y11590D01*
X2415Y11496D02*
X3327D01*
X2200Y11590D02*
X2321D01*
X1709Y11661D02*
Y11880D01*
X1900Y12070D01*
X1874Y11496D02*
X2106D01*
X1709Y11661D02*
X1874Y11496D01*
X4752Y14324D02*
X4822Y14394D01*
X4752Y14267D02*
Y14324D01*
X4874Y13333D02*
X5047D01*
X5217Y13164D01*
Y12509D02*
Y13164D01*
X5018Y12310D02*
X5217Y12509D01*
X4631Y14146D02*
X4752Y14267D01*
X3971Y12310D02*
X5018D01*
X1110Y12850D02*
X1424D01*
X960Y12900D02*
X1060D01*
X1110Y12850D01*
X2371Y11710D02*
X2465Y11616D01*
X3277D02*
X3971Y12310D01*
X2150Y11710D02*
X2371D01*
X2056Y11616D02*
X2150Y11710D01*
X2020Y12021D02*
Y12254D01*
X1829Y11830D02*
X2020Y12021D01*
X1829Y11710D02*
Y11830D01*
X1924Y11616D02*
X2056D01*
X1829Y11710D02*
X1924Y11616D01*
X3350Y13385D02*
X3525Y13210D01*
X3315Y13765D02*
Y13765D01*
X3350Y13385D02*
Y13730D01*
X3737Y13210D02*
X3777Y13250D01*
X3525Y13210D02*
X3737D01*
X3425Y12333D02*
Y12451D01*
X3348Y12256D02*
X3425Y12333D01*
X3220Y13860D02*
X3315Y13765D01*
Y13765D02*
X3350Y13730D01*
X2958Y13860D02*
X3220D01*
X2850Y13752D02*
X2958Y13860D01*
X2666Y13752D02*
X2850D01*
X2487Y13573D02*
X2666Y13752D01*
X1640Y13620D02*
X1850D01*
X1060Y13370D02*
X1100Y13330D01*
X1350D02*
X1640Y13620D01*
X1100Y13330D02*
X1350D01*
X960Y13370D02*
X1060D01*
X3168Y12708D02*
Y12866D01*
Y12708D02*
X3425Y12451D01*
X2707Y13110D02*
X2923D01*
X3168Y12866D01*
X3058Y12421D02*
X3224Y12256D01*
X3348D01*
X2468Y12421D02*
X3058D01*
X2487Y13330D02*
Y13573D01*
X1850Y13620D02*
X2243Y13227D01*
X2487Y13330D02*
X2707Y13110D01*
X2243Y12647D02*
Y13227D01*
Y12647D02*
X2468Y12421D01*
X3230Y13335D02*
Y13680D01*
Y13335D02*
X3475Y13090D01*
X3170Y13740D02*
X3230Y13680D01*
X3288Y12758D02*
X3545Y12500D01*
Y12283D02*
Y12500D01*
X3288Y12758D02*
Y12916D01*
X3174Y12136D02*
X3398D01*
X3545Y12283D01*
X3009Y12301D02*
X3174Y12136D01*
X3008Y13740D02*
X3170D01*
X2900Y13632D02*
X3008Y13740D01*
X2716Y13632D02*
X2900D01*
X2607Y13379D02*
X2756Y13230D01*
X2973D01*
X2607Y13524D02*
X2716Y13632D01*
X2607Y13379D02*
Y13524D01*
X1800Y13500D02*
X2010Y13290D01*
X1690Y13500D02*
X1800D01*
X2010Y13290D02*
X2010D01*
X1400Y13210D02*
X1690Y13500D01*
X1120Y13210D02*
X1400D01*
X2010Y13290D02*
X2123Y13177D01*
X2973Y13230D02*
X3288Y12916D01*
X2123Y12597D02*
X2419Y12301D01*
X3009D01*
X2123Y12597D02*
Y13177D01*
X1060Y13150D02*
X1120Y13210D01*
X960Y13150D02*
X1060D01*
X4068Y14490D02*
Y14853D01*
X1421Y14322D02*
Y15350D01*
X4188Y14540D02*
Y14903D01*
X1301Y14372D02*
Y15400D01*
X2455Y14155D02*
X2598D01*
X2697Y14254D01*
X4477Y12650D02*
Y12760D01*
X4188Y14540D02*
X4344Y14384D01*
X1681Y15780D02*
X3311D01*
X1301Y15400D02*
X1681Y15780D01*
X970Y14320D02*
X1070D01*
X1209Y14280D02*
X1301Y14372D01*
X1070Y14320D02*
X1110Y14280D01*
X1209D01*
X4224Y13414D02*
X4317Y13321D01*
X4068Y14490D02*
X4224Y14334D01*
X3261Y15660D02*
X4068Y14853D01*
X1731Y15660D02*
X3261D01*
X1421Y15350D02*
X1731Y15660D01*
X1110Y14160D02*
X1259D01*
X1421Y14322D01*
X1070Y14120D02*
X1110Y14160D01*
X970Y14120D02*
X1070D01*
X3311Y15780D02*
X4188Y14903D01*
X2839Y15379D02*
X3071D01*
X1849Y15379D02*
X2121D01*
X2266Y14344D02*
X2455Y14155D01*
X1290Y13800D02*
X1711Y14220D01*
X1100Y13800D02*
X1290D01*
X960Y13840D02*
X1060D01*
X1100Y13800D01*
X3617Y14310D02*
X3727Y14310D01*
X3219Y14371D02*
X3320Y14270D01*
X2889Y15259D02*
X3021D01*
X2146Y14295D02*
X2405Y14035D01*
X1899Y15259D02*
X2071D01*
X1340Y13680D02*
X1831Y14171D01*
X1100Y13680D02*
X1340D01*
X1060Y13640D02*
X1100Y13680D01*
X960Y13640D02*
X1060D01*
X3099Y14322D02*
X3270Y14150D01*
X3577D01*
X3617Y14110D01*
X6235Y14250D02*
Y14299D01*
X7737Y14480D02*
X7803Y14546D01*
X7737Y14480D02*
Y14480D01*
X7740Y14480D02*
X7806Y14414D01*
X7737Y14480D02*
X7740D01*
D55*
X17251Y13026D02*
X17651Y13426D01*
X17251Y8800D02*
Y13026D01*
X8499Y20236D02*
X8509Y20246D01*
X7416Y20236D02*
X8499D01*
D56*
X3727Y13710D02*
X3877Y13650D01*
D57*
X1831Y9348D02*
X1922Y9257D01*
X2047Y9636D02*
X2553Y9130D01*
X1831Y9348D02*
Y10669D01*
X1530Y9870D02*
Y10709D01*
X1333Y9673D02*
X1530Y9870D01*
X1333Y9218D02*
Y9673D01*
X8019Y13988D02*
X8037Y14020D01*
X7947Y13860D02*
X8019Y13988D01*
X2553Y9130D02*
X7940D01*
X16820Y7260D02*
X17230D01*
X16440Y6880D02*
X16820Y7260D01*
X13310Y6880D02*
X16440D01*
X11280Y8910D02*
X13310Y6880D01*
X8160Y8910D02*
X11280D01*
X7940Y9130D02*
X8160Y8910D01*
X2047Y10364D02*
X2165Y10482D01*
Y10660D01*
X2047Y9636D02*
Y10364D01*
D63*
X1673Y21393D02*
D03*
Y23362D02*
D03*
D64*
X610Y23756D02*
D03*
Y21000D02*
D03*
D65*
X1000Y4109D02*
D03*
Y10291D02*
D03*
X2949Y4346D02*
D03*
Y10054D02*
D03*
D66*
X13926Y2490D02*
D03*
X14633Y3197D02*
D03*
Y1783D02*
D03*
D67*
X15340Y2490D02*
D03*
D68*
X12521Y18440D02*
D03*
Y19440D02*
D03*
X13521Y18440D02*
D03*
Y19440D02*
D03*
X14521Y18440D02*
D03*
Y19440D02*
D03*
D69*
X1940Y754D02*
D03*
Y2566D02*
D03*
X2846Y1660D02*
D03*
X1034D02*
D03*
X2160Y26064D02*
D03*
Y27876D02*
D03*
X3066Y26970D02*
D03*
X1254D02*
D03*
X17871Y18714D02*
D03*
Y20526D02*
D03*
X18777Y19620D02*
D03*
X16966D02*
D03*
X17871Y824D02*
D03*
Y2636D02*
D03*
X18777Y1730D02*
D03*
X16966D02*
D03*
X13546Y25677D02*
D03*
X13645Y26870D02*
D03*
X8739Y23050D02*
D03*
X9430Y21342D02*
D03*
X8739Y22033D02*
D03*
X3956Y21450D02*
D03*
X2380Y22518D02*
D03*
X10761Y21738D02*
D03*
X10738Y23198D02*
D03*
X3160Y22518D02*
D03*
D70*
X12090Y2200D02*
D03*
X12330Y23470D02*
D03*
X2040Y20910D02*
D03*
X6850Y22430D02*
D03*
X720Y27870D02*
D03*
X18990Y620D02*
D03*
X660Y530D02*
D03*
X15700Y22940D02*
D03*
X14720Y21050D02*
D03*
X11350Y15130D02*
D03*
X5070Y15470D02*
D03*
X13860Y3610D02*
D03*
X11320Y7660D02*
D03*
X11080Y6590D02*
D03*
X9020Y5280D02*
D03*
X11810Y11880D02*
D03*
X17770Y11520D02*
D03*
X18500Y5850D02*
D03*
X13730Y11220D02*
D03*
X12540Y10120D02*
D03*
X7870Y4840D02*
D03*
X7940Y4130D02*
D03*
X8060Y3480D02*
D03*
X7750Y2910D02*
D03*
X4210Y2840D02*
D03*
X18340Y9800D02*
D03*
X7430Y25370D02*
D03*
X8274Y24030D02*
D03*
X3880Y25570D02*
D03*
X720Y19610D02*
D03*
X1610Y24090D02*
D03*
X2540Y23340D02*
D03*
X13020Y24340D02*
D03*
X15410Y25390D02*
D03*
X14050Y26580D02*
D03*
X15590Y24310D02*
D03*
X16600Y18680D02*
D03*
X13850Y20270D02*
D03*
X12790Y20250D02*
D03*
X11580Y21330D02*
D03*
X11880Y19760D02*
D03*
X9470Y18020D02*
D03*
X9560Y19350D02*
D03*
X6520Y17520D02*
D03*
X6130Y19090D02*
D03*
X6250Y20180D02*
D03*
X6251Y19850D02*
D03*
X5390Y20830D02*
D03*
X6020Y21550D02*
D03*
X4550Y8610D02*
D03*
X6860Y8750D02*
D03*
X8847Y27177D02*
D03*
X8200Y27490D02*
D03*
X19200Y28140D02*
D03*
X18600Y28440D02*
D03*
X17400D02*
D03*
X16200D02*
D03*
X15000D02*
D03*
X13800D02*
D03*
X12600D02*
D03*
X11400D02*
D03*
X10200D02*
D03*
X9000D02*
D03*
X7800D02*
D03*
X6600D02*
D03*
X5400D02*
D03*
X4200D02*
D03*
X3000D02*
D03*
X300Y26100D02*
D03*
Y24900D02*
D03*
X400Y22900D02*
D03*
Y22000D02*
D03*
X300Y20100D02*
D03*
Y18900D02*
D03*
Y17700D02*
D03*
Y16500D02*
D03*
Y15300D02*
D03*
X700Y11300D02*
D03*
Y8900D02*
D03*
Y7700D02*
D03*
Y6500D02*
D03*
Y5300D02*
D03*
X300Y3600D02*
D03*
Y3300D02*
D03*
X600Y2400D02*
D03*
X19200Y27300D02*
D03*
Y26100D02*
D03*
Y24900D02*
D03*
Y23700D02*
D03*
Y22500D02*
D03*
Y21300D02*
D03*
Y20100D02*
D03*
Y18900D02*
D03*
Y18300D02*
D03*
Y17100D02*
D03*
Y15900D02*
D03*
Y14700D02*
D03*
Y13500D02*
D03*
Y12300D02*
D03*
Y11100D02*
D03*
Y9900D02*
D03*
Y8700D02*
D03*
Y7500D02*
D03*
Y6300D02*
D03*
Y5100D02*
D03*
Y3900D02*
D03*
Y2700D02*
D03*
X17400Y300D02*
D03*
X16200D02*
D03*
X15000D02*
D03*
X12000Y600D02*
D03*
X11100Y300D02*
D03*
X9900D02*
D03*
X8700Y600D02*
D03*
X5400D02*
D03*
X5100Y300D02*
D03*
X3900D02*
D03*
X2700D02*
D03*
X10167Y14468D02*
D03*
X10468Y27099D02*
D03*
X1031Y19621D02*
D03*
X6911Y17570D02*
D03*
X8530Y17530D02*
D03*
X11350Y6990D02*
D03*
X11340Y6690D02*
D03*
X7500Y4320D02*
D03*
X6261Y19340D02*
D03*
X6221Y18830D02*
D03*
Y18340D02*
D03*
X7320Y5480D02*
D03*
Y7340D02*
D03*
X5420D02*
D03*
X5410Y5440D02*
D03*
X4831Y8760D02*
D03*
X9247Y18238D02*
D03*
X9261Y19340D02*
D03*
Y18839D02*
D03*
X10820Y15140D02*
D03*
D71*
X3032Y24998D02*
D03*
X2051Y24541D02*
D03*
X2320Y24810D02*
D03*
X7008Y10541D02*
D03*
X5425Y9895D02*
D03*
X7570Y10960D02*
D03*
X12098Y14297D02*
D03*
X7740Y11510D02*
D03*
X6050Y11220D02*
D03*
X1880Y8370D02*
D03*
X9208Y16190D02*
D03*
X5130Y9760D02*
D03*
X1330Y8370D02*
D03*
X10667Y17010D02*
D03*
X15660Y7150D02*
D03*
X16250D02*
D03*
X5640Y24870D02*
D03*
X3780Y2900D02*
D03*
X4510Y5020D02*
D03*
X13310Y7300D02*
D03*
X15910Y22450D02*
D03*
X16411Y25150D02*
D03*
X11797Y17580D02*
D03*
X5671Y21070D02*
D03*
X15100Y25460D02*
D03*
X12520Y27370D02*
D03*
X11331Y26230D02*
D03*
X11561Y26980D02*
D03*
X1361Y19268D02*
D03*
X12120Y5850D02*
D03*
X18611Y9410D02*
D03*
X7671Y25130D02*
D03*
X8031Y26270D02*
D03*
X6041Y26670D02*
D03*
X4161Y25650D02*
D03*
X3921Y25260D02*
D03*
X10250Y16468D02*
D03*
X10898Y16560D02*
D03*
X11478Y16630D02*
D03*
X7041Y27300D02*
D03*
X17651Y13426D02*
D03*
X17251Y8800D02*
D03*
X2761Y25000D02*
D03*
X3921Y23563D02*
D03*
X1261Y24340D02*
D03*
X5091Y24980D02*
D03*
X4561Y24970D02*
D03*
X5391Y23890D02*
D03*
X13827Y13438D02*
D03*
X13141Y10690D02*
D03*
X12418Y16050D02*
D03*
X12741Y9830D02*
D03*
X11821Y3410D02*
D03*
X5538Y4307D02*
D03*
X12771Y10850D02*
D03*
X12501Y9140D02*
D03*
X12151Y21270D02*
D03*
X11891Y20290D02*
D03*
X11861Y26480D02*
D03*
X11571Y27300D02*
D03*
X11261Y24050D02*
D03*
X12751Y24530D02*
D03*
X12411Y25810D02*
D03*
X12061Y25790D02*
D03*
X12261Y22880D02*
D03*
X11891Y21470D02*
D03*
X12531Y24140D02*
D03*
X12091Y24450D02*
D03*
X12121Y24130D02*
D03*
X12561Y27030D02*
D03*
X7739Y20512D02*
D03*
X7671Y20870D02*
D03*
X13599Y21090D02*
D03*
X13041Y20768D02*
D03*
X13521Y20510D02*
D03*
X10258Y17210D02*
D03*
X8338Y16580D02*
D03*
X12098Y17370D02*
D03*
X9841Y19190D02*
D03*
X1530Y10709D02*
D03*
X1831Y10669D02*
D03*
X2165Y10660D02*
D03*
X2539Y10659D02*
D03*
D72*
X7090Y8420D02*
D03*
X7670Y27890D02*
D03*
X15740Y11230D02*
D03*
X15930Y15530D02*
D03*
X4830Y10070D02*
D03*
X14350Y26340D02*
D03*
X13770Y26370D02*
D03*
X14040Y26035D02*
D03*
X13940Y1900D02*
D03*
X16020Y18610D02*
D03*
X12270Y2870D02*
D03*
X12140Y3230D02*
D03*
X5850Y3610D02*
D03*
X18140Y6560D02*
D03*
X17230Y7260D02*
D03*
X6650Y1299D02*
D03*
X13020Y6680D02*
D03*
X16258Y866D02*
D03*
X13744Y4488D02*
D03*
X13052Y4322D02*
D03*
X18240Y7880D02*
D03*
X3800Y20620D02*
D03*
X5630Y21570D02*
D03*
Y23440D02*
D03*
X15935Y16167D02*
D03*
X6300Y27180D02*
D03*
X4471Y27750D02*
D03*
X2780Y8480D02*
D03*
X6300Y3810D02*
D03*
X2240Y21868D02*
D03*
X2270Y23098D02*
D03*
X3813Y19597D02*
D03*
X2453Y17157D02*
D03*
X5488Y25700D02*
D03*
X6251Y8777D02*
D03*
X5167Y4713D02*
D03*
X13519Y1575D02*
D03*
X13913Y630D02*
D03*
X13135Y630D02*
D03*
X7446Y640D02*
D03*
X6679Y640D02*
D03*
X9030Y627D02*
D03*
X9847Y883D02*
D03*
X15477Y623D02*
D03*
X6721Y27510D02*
D03*
X7416Y20236D02*
D03*
X8509Y20246D02*
D03*
X12084Y5079D02*
D03*
X5830Y8760D02*
D03*
X11400Y5060D02*
D03*
X12430Y6338D02*
D03*
D73*
X9231Y27540D02*
D03*
D74*
X9091Y27068D02*
D03*
X8600Y27070D02*
D03*
X3840Y5530D02*
D03*
Y6120D02*
D03*
Y6710D02*
D03*
Y7300D02*
D03*
X4150Y7870D02*
D03*
X7530Y4850D02*
D03*
X738Y11644D02*
D03*
X5608Y15870D02*
D03*
X5807Y15290D02*
D03*
X5998Y15440D02*
D03*
X6568Y15170D02*
D03*
X6228Y15330D02*
D03*
X7385Y12250D02*
D03*
X8027Y12470D02*
D03*
X10761Y27048D02*
D03*
X11281Y24638D02*
D03*
X9991Y23638D02*
D03*
X5977Y15030D02*
D03*
X7165Y5058D02*
D03*
X7464Y8700D02*
D03*
X6653Y7627D02*
D03*
X8001Y25418D02*
D03*
X10251Y23590D02*
D03*
X7860Y7820D02*
D03*
X7474Y7817D02*
D03*
X9041Y23790D02*
D03*
X9301D02*
D03*
X8499Y23818D02*
D03*
X7468Y11720D02*
D03*
D75*
X10310Y610D02*
D03*
X10000Y14577D02*
D03*
X6900Y11978D02*
D03*
X6969Y15955D02*
D03*
X6841Y15856D02*
D03*
X8037Y15020D02*
D03*
X8287Y12740D02*
D03*
X8570Y12460D02*
D03*
X8580Y11950D02*
D03*
X3727Y14110D02*
D03*
X3877Y13250D02*
D03*
Y13050D02*
D03*
X4757Y11450D02*
D03*
X960Y12421D02*
D03*
X4757Y11250D02*
D03*
X960Y12220D02*
D03*
X4964Y14253D02*
D03*
X960Y12690D02*
D03*
X4822Y14394D02*
D03*
X960Y12900D02*
D03*
Y13370D02*
D03*
Y13150D02*
D03*
X1680Y13030D02*
D03*
X4477Y12650D02*
D03*
X970Y14320D02*
D03*
X4277Y12650D02*
D03*
X970Y14120D02*
D03*
X960Y13840D02*
D03*
X3727Y14310D02*
D03*
X960Y13640D02*
D03*
X2756Y12766D02*
D03*
X2707Y11959D02*
D03*
X2140Y13820D02*
D03*
X4877Y12650D02*
D03*
X3877D02*
D03*
X5247Y13970D02*
D03*
X3727Y13710D02*
D03*
X4537Y14680D02*
D03*
X7003Y13740D02*
D03*
X7507Y13232D02*
D03*
X7767Y13490D02*
D03*
Y14000D02*
D03*
X8037Y14020D02*
D03*
X4757Y10850D02*
D03*
Y11850D02*
D03*
X6517Y12470D02*
D03*
X7367Y14470D02*
D03*
X5927Y14480D02*
D03*
X11321Y24380D02*
D03*
X6977Y12750D02*
D03*
X651Y14320D02*
D03*
Y14120D02*
D03*
Y13840D02*
D03*
Y13640D02*
D03*
Y13370D02*
D03*
Y13150D02*
D03*
Y12900D02*
D03*
Y12690D02*
D03*
Y12420D02*
D03*
Y12220D02*
D03*
X8507Y14030D02*
D03*
X8283Y11909D02*
D03*
X7737Y14480D02*
D03*
X8027Y12992D02*
D03*
X7505Y12736D02*
D03*
Y13041D02*
D03*
X7259Y12992D02*
D03*
X6747Y12461D02*
D03*
X6718Y13091D02*
D03*
X6235Y14250D02*
D03*
X7259Y14006D02*
D03*
X7515Y13760D02*
D03*
X7259Y13750D02*
D03*
Y13484D02*
D03*
X7003Y14006D02*
D03*
X8507Y14290D02*
D03*
X7747Y12450D02*
D03*
X6987Y15010D02*
D03*
X7515Y14006D02*
D03*
X6737Y13750D02*
D03*
X7515Y13484D02*
D03*
X8537Y15040D02*
D03*
X7259Y13228D02*
D03*
X6757Y13484D02*
D03*
X6481Y13750D02*
D03*
Y13484D02*
D03*
X7982Y25680D02*
D03*
X3727Y14710D02*
D03*
X3877Y13650D02*
D03*
X5991Y14248D02*
D03*
X965Y14600D02*
D03*
X955Y11952D02*
D03*
X5990Y13270D02*
D03*
X6847Y14450D02*
D03*
D76*
X7165Y10758D02*
D03*
X14025Y16030D02*
D03*
X14525D02*
D03*
Y15530D02*
D03*
X14025D02*
D03*
Y16530D02*
D03*
X14525D02*
D03*
X13525D02*
D03*
Y16030D02*
D03*
Y15530D02*
D03*
Y17030D02*
D03*
X14025D02*
D03*
X14525D02*
D03*
X8018Y15930D02*
D03*
X8347D02*
D03*
X8737Y15920D02*
D03*
X6380Y11620D02*
D03*
D77*
X8815Y26304D02*
D03*
X9248D02*
D03*
X9681D02*
D03*
X10114D02*
D03*
X10547D02*
D03*
X8815Y25871D02*
D03*
X9248D02*
D03*
X9681D02*
D03*
X10114D02*
D03*
X10547D02*
D03*
X8815Y25438D02*
D03*
X9248D02*
D03*
X9681D02*
D03*
X10114D02*
D03*
X10547D02*
D03*
X8815Y25004D02*
D03*
X9248D02*
D03*
X9681D02*
D03*
X10114D02*
D03*
X10547D02*
D03*
X8815Y24571D02*
D03*
X9248D02*
D03*
X9681D02*
D03*
X10114D02*
D03*
X10547D02*
D03*
X5917Y6843D02*
D03*
X6350D02*
D03*
X6783D02*
D03*
X5917Y6410D02*
D03*
X6350D02*
D03*
X6783D02*
D03*
X5917Y5977D02*
D03*
X6350D02*
D03*
X6783D02*
D03*
D78*
X15780Y19010D02*
D03*
X16020Y24320D02*
D03*
X13580Y3940D02*
D03*
X13640Y7290D02*
D03*
X14626Y7302D02*
D03*
X7610Y3370D02*
D03*
X8140Y3150D02*
D03*
X17100Y5730D02*
D03*
X15510Y21740D02*
D03*
D79*
X17380Y5250D02*
D03*
X15326Y5392D02*
D03*
D80*
X5870Y27737D02*
D03*
D81*
X16188Y10388D02*
D03*
X15906Y11671D02*
D03*
X16211Y13010D02*
D03*
X16172Y13482D02*
D03*
D92*
X13054Y25634D02*
D03*
Y25831D02*
D03*
Y26028D02*
D03*
Y26224D02*
D03*
Y26421D02*
D03*
Y26618D02*
D03*
Y26815D02*
D03*
Y27012D02*
D03*
D93*
X5465Y27225D02*
D03*
X4717D02*
D03*
Y26221D02*
D03*
X5091D02*
D03*
X5465D02*
D03*
D94*
X12032Y4686D02*
D03*
Y5434D02*
D03*
X11028D02*
D03*
Y5060D02*
D03*
Y4686D02*
D03*
D95*
X9030Y903D02*
D03*
Y1257D02*
D03*
X15477Y899D02*
D03*
Y1253D02*
D03*
D96*
X13521Y1288D02*
D03*
X7061Y1298D02*
D03*
D97*
X12537Y333D02*
D03*
X14505D02*
D03*
X12537Y904D02*
D03*
X14505D02*
D03*
X8045Y914D02*
D03*
X6077D02*
D03*
X8045Y343D02*
D03*
X6077D02*
D03*
D98*
X4606Y24567D02*
D03*
Y24370D02*
D03*
Y24173D02*
D03*
X5216D02*
D03*
Y24370D02*
D03*
Y24567D02*
D03*
M02*
