G04 Layer_Physical_Order=2*
G04 Layer_Color=32768*
%FSLAX24Y24*%
%MOIN*%
G70*
G01*
G75*
%ADD70C,0.0290*%
%ADD78C,0.0400*%
%ADD79C,0.0520*%
G04:AMPARAMS|DCode=80|XSize=98mil|YSize=98mil|CornerRadius=0mil|HoleSize=0mil|Usage=FLASHONLY|Rotation=0.000|XOffset=0mil|YOffset=0mil|HoleType=Round|Shape=Relief|Width=10mil|Gap=10mil|Entries=4|*
%AMTHD80*
7,0,0,0.0980,0.0780,0.0100,45*
%
%ADD80THD80*%
%ADD81C,0.0416*%
%ADD82C,0.1439*%
%ADD83C,0.0652*%
%ADD84O,0.0593X0.0337*%
%ADD85O,0.0357X0.0475*%
%ADD86C,0.0220*%
D70*
X14790Y9240D02*
D03*
X9560Y16220D02*
D03*
X12290Y11170D02*
D03*
X14518Y4616D02*
D03*
X10925Y3868D02*
D03*
X10325Y4833D02*
D03*
X11841Y8632D02*
D03*
X2536Y6371D02*
D03*
X866Y6900D02*
D03*
X2953Y5778D02*
D03*
X1565D02*
D03*
X9252Y16988D02*
D03*
X9488Y16673D02*
D03*
X8888Y16398D02*
D03*
X9626Y20463D02*
D03*
X7933Y21762D02*
D03*
X8535Y4073D02*
D03*
X6024Y6607D02*
D03*
X12906Y21110D02*
D03*
X1763Y7440D02*
D03*
X6467Y11860D02*
D03*
X9026Y16043D02*
D03*
X8189Y20246D02*
D03*
X7096Y20236D02*
D03*
X12992Y23091D02*
D03*
X7313Y26988D02*
D03*
X11959Y23091D02*
D03*
X15000Y26150D02*
D03*
X12982Y24803D02*
D03*
X13140Y27411D02*
D03*
X6634Y22392D02*
D03*
X12218Y1867D02*
D03*
X5787Y1900D02*
D03*
X11610Y20630D02*
D03*
X11433Y19760D02*
D03*
X2093Y20517D02*
D03*
X14000Y24180D02*
D03*
X15510Y24050D02*
D03*
X15890Y25570D02*
D03*
X15920Y26800D02*
D03*
X15780Y26150D02*
D03*
X1620Y754D02*
D03*
Y2566D02*
D03*
X2526Y1660D02*
D03*
X714D02*
D03*
X1840Y26064D02*
D03*
Y27876D02*
D03*
X2746Y26970D02*
D03*
X934D02*
D03*
X16570Y18714D02*
D03*
Y20526D02*
D03*
X17476Y19620D02*
D03*
X15664D02*
D03*
X16370Y824D02*
D03*
Y2636D02*
D03*
X17276Y1730D02*
D03*
X15464D02*
D03*
X15947Y24621D02*
D03*
X17663Y23430D02*
D03*
X9940Y15830D02*
D03*
X6739Y20972D02*
D03*
X7113Y20952D02*
D03*
X7124Y22134D02*
D03*
X10540Y5320D02*
D03*
X14370D02*
D03*
X10020Y20540D02*
D03*
X10690Y20710D02*
D03*
X15860Y9230D02*
D03*
X11350Y15580D02*
D03*
X11670Y16390D02*
D03*
X2580Y10980D02*
D03*
X8796Y15400D02*
D03*
X9600D02*
D03*
X13414Y17116D02*
D03*
X1012Y10708D02*
D03*
D78*
X17323Y0D02*
G03*
X18110Y787I0J787D01*
G01*
Y27953D02*
G03*
X17323Y28740I-787J0D01*
G01*
X18110Y787D02*
Y27953D01*
X-320Y0D02*
Y28740D01*
X17323D01*
X-320Y0D02*
X17323D01*
D79*
X6920Y27490D02*
D03*
Y26490D02*
D03*
X5920Y27490D02*
D03*
Y26490D02*
D03*
X4920Y27490D02*
D03*
D80*
Y26490D02*
D03*
D81*
X12020Y933D02*
D03*
Y225D02*
D03*
X5560Y235D02*
D03*
Y943D02*
D03*
D82*
X1620Y1660D02*
D03*
X1840Y26970D02*
D03*
X16570Y19620D02*
D03*
X16370Y1730D02*
D03*
D83*
X17120Y15821D02*
D03*
Y9639D02*
D03*
X15171Y15584D02*
D03*
Y9876D02*
D03*
D84*
X17550Y27668D02*
D03*
Y24912D02*
D03*
D85*
X16487Y25306D02*
D03*
Y27274D02*
D03*
D86*
X10260Y12110D02*
D03*
X3180Y12310D02*
D03*
X640Y12220D02*
D03*
X3180Y12510D02*
D03*
X640Y12421D02*
D03*
Y13640D02*
D03*
X3370Y13910D02*
D03*
X640Y13840D02*
D03*
X3370Y14110D02*
D03*
X4140Y13910D02*
D03*
X640Y12690D02*
D03*
X4140Y14110D02*
D03*
X640Y12900D02*
D03*
X4830Y14730D02*
D03*
X4870Y15000D02*
D03*
X5080Y15150D02*
D03*
X5290Y15320D02*
D03*
X4300Y14647D02*
D03*
X4307Y11735D02*
D03*
X5154D02*
D03*
X5470Y13260D02*
D03*
X10250Y11227D02*
D03*
X9852Y14705D02*
D03*
X10148D02*
D03*
X10374Y14862D02*
D03*
X5886Y23386D02*
D03*
X6417Y16516D02*
D03*
X6368Y16778D02*
D03*
X6132Y17067D02*
D03*
X5945Y16880D02*
D03*
X5758Y17077D02*
D03*
X1575Y15276D02*
D03*
X1634Y11142D02*
D03*
X8012Y22884D02*
D03*
X7510Y15020D02*
D03*
X8010Y15040D02*
D03*
X10423Y21043D02*
D03*
X11340Y22900D02*
D03*
X11349Y23308D02*
D03*
X10640Y21230D02*
D03*
X10250Y21250D02*
D03*
X12008Y22683D02*
D03*
X10817Y24528D02*
D03*
X10502Y24539D02*
D03*
X8375Y24390D02*
D03*
X12559Y14862D02*
D03*
X11467Y12303D02*
D03*
X10656Y11230D02*
D03*
X10646Y12113D02*
D03*
X10955Y14872D02*
D03*
X6858Y12250D02*
D03*
X7760Y12740D02*
D03*
X6460Y15010D02*
D03*
X5890Y15270D02*
D03*
X5950Y15050D02*
D03*
X5610Y15220D02*
D03*
X5450Y15030D02*
D03*
X7220Y12450D02*
D03*
X8020Y12730D02*
D03*
X6450Y12750D02*
D03*
X5960Y12470D02*
D03*
X9100Y24780D02*
D03*
X9350Y24680D02*
D03*
X10250Y24530D02*
D03*
X8060Y23680D02*
D03*
X8580Y21270D02*
D03*
X7500Y12470D02*
D03*
X7980Y14290D02*
D03*
X640Y13150D02*
D03*
X3350Y13170D02*
D03*
X640Y13370D02*
D03*
X3350D02*
D03*
X7980Y14030D02*
D03*
X650Y14120D02*
D03*
X2340D02*
D03*
X650Y14320D02*
D03*
X2340D02*
D03*
X7670Y17129D02*
D03*
X7900Y16916D02*
D03*
X7690Y16700D02*
D03*
X7496Y16430D02*
D03*
X13850Y12170D02*
D03*
M02*
