G04 Layer_Color=32768*
%FSLAX24Y24*%
%MOIN*%
G70*
G01*
G75*
%ADD94C,0.0039*%
%ADD197C,0.0020*%
%ADD198C,0.0020*%
D94*
X4774Y2096D02*
X5167D01*
X4970Y1900D02*
Y2293D01*
X11240Y2077D02*
X11634D01*
X11437Y1880D02*
Y2274D01*
X16333Y24090D02*
X16727D01*
X16530Y23893D02*
Y24287D01*
X10486Y18140D02*
X10880D01*
X10683Y17943D02*
Y18337D01*
X12635Y17933D02*
Y18327D01*
X12438Y18130D02*
X12832D01*
X1389Y8147D02*
Y8541D01*
X1192Y8344D02*
X1586D01*
X13484Y8238D02*
Y8632D01*
X13287Y8435D02*
X13681D01*
X5086Y7030D02*
X5479D01*
X5283Y6833D02*
Y7227D01*
X8358Y6082D02*
Y6476D01*
X8161Y6279D02*
X8555D01*
X12067Y7175D02*
X12461D01*
X12264Y6978D02*
Y7372D01*
X3550Y7030D02*
X3944D01*
X3747Y6833D02*
Y7227D01*
X9660Y22683D02*
Y23077D01*
X9463Y22880D02*
X9857D01*
X11573Y13520D02*
X11967D01*
X11770Y13323D02*
Y13717D01*
D197*
X10850Y11280D02*
Y12040D01*
X10460Y11280D02*
X10850D01*
X10460D02*
Y12040D01*
X10850D01*
X10450Y11280D02*
Y12040D01*
X10060Y11280D02*
X10450D01*
X10060D02*
Y12040D01*
X10450D01*
X4090Y14690D02*
X4480D01*
Y15450D01*
X4090D02*
X4480D01*
X4090Y14690D02*
Y15450D01*
X4264Y11540D02*
Y11930D01*
X3504D02*
X4264D01*
X3504Y11540D02*
Y11930D01*
Y11540D02*
X4264D01*
X4351D02*
Y11930D01*
Y11540D02*
X5111D01*
Y11930D01*
X4351D02*
X5111D01*
X4377Y1707D02*
Y2467D01*
Y1707D02*
X4767D01*
Y2467D01*
X4377D02*
X4767D01*
X10843Y1677D02*
Y2437D01*
Y1677D02*
X11233D01*
Y2437D01*
X10843D02*
X11233D01*
X13396Y10138D02*
X14400D01*
Y9587D02*
Y10138D01*
X13396Y9587D02*
X14400D01*
X13396D02*
Y10138D01*
X5594Y10776D02*
X6354D01*
X5594D02*
Y11166D01*
X6354D01*
Y10776D02*
Y11166D01*
X5587Y10776D02*
Y11166D01*
X4827D02*
X5587D01*
X4827Y10776D02*
Y11166D01*
Y10776D02*
X5587D01*
X7130D02*
Y11166D01*
Y10776D02*
X7890D01*
Y11166D01*
X7130D02*
X7890D01*
X6362Y10776D02*
Y11166D01*
Y10776D02*
X7122D01*
Y11166D01*
X6362D02*
X7122D01*
X12074Y24254D02*
X12851D01*
X12074Y22698D02*
X12851D01*
X12074D02*
Y24254D01*
X12851Y22698D02*
Y24254D01*
X13340Y26560D02*
Y27320D01*
X12950D02*
X13340D01*
X12950Y26560D02*
Y27320D01*
Y26560D02*
X13340D01*
X12704Y24908D02*
Y25912D01*
Y24908D02*
X13256D01*
Y25912D01*
X12704D02*
X13256D01*
X5174Y1707D02*
Y2467D01*
Y1707D02*
X5564D01*
Y2467D01*
X5174D02*
X5564D01*
X11641Y1677D02*
Y2437D01*
Y1677D02*
X12031D01*
Y2437D01*
X11641D02*
X12031D01*
X10070Y21300D02*
X10460D01*
X10070D02*
Y22060D01*
X10460D01*
Y21300D02*
Y22060D01*
X11320Y22690D02*
Y23080D01*
X10560Y22690D02*
X11320D01*
X10560D02*
Y23080D01*
X11320D01*
X11890Y21530D02*
X12280D01*
Y20770D02*
Y21530D01*
X11890Y20770D02*
X12280D01*
X11890D02*
Y21530D01*
X11334Y20728D02*
Y21732D01*
Y20728D02*
X11886D01*
Y21732D01*
X11334D02*
X11886D01*
X10940Y21680D02*
X11330D01*
Y20920D02*
Y21680D01*
X10940Y20920D02*
X11330D01*
X10940D02*
Y21680D01*
X10550Y21300D02*
X10940D01*
X10550D02*
Y22060D01*
X10940D01*
Y21300D02*
Y22060D01*
X8070Y23370D02*
Y23760D01*
X8830D01*
Y23370D02*
Y23760D01*
X8070Y23370D02*
X8830D01*
X10120Y24460D02*
X10510D01*
Y23700D02*
Y24460D01*
X10120Y23700D02*
X10510D01*
X10120D02*
Y24460D01*
X8400Y21300D02*
X8790D01*
X8400D02*
Y22060D01*
X8790D01*
Y21300D02*
Y22060D01*
X3853Y18027D02*
X4613D01*
Y17637D02*
Y18027D01*
X3853Y17637D02*
X4613D01*
X3853D02*
Y18027D01*
X6270Y15020D02*
X6660D01*
X6270D02*
Y15780D01*
X6660D01*
Y15020D02*
Y15780D01*
X6840Y15040D02*
X7230D01*
X6840D02*
Y15800D01*
X7230D01*
Y15040D02*
Y15800D01*
X8010Y13280D02*
Y13670D01*
X7250Y13280D02*
X8010D01*
X7250D02*
Y13670D01*
X8010D01*
X5750Y13280D02*
X6140D01*
Y12520D02*
Y13280D01*
X5750Y12520D02*
X6140D01*
X5750D02*
Y13280D01*
X7970Y14480D02*
Y14870D01*
X7210Y14480D02*
X7970D01*
X7210D02*
Y14870D01*
X7970D01*
X5860Y15000D02*
X6250D01*
Y14240D02*
Y15000D01*
X5860Y14240D02*
X6250D01*
X5860D02*
Y15000D01*
X8020Y15040D02*
X8410D01*
X8020D02*
Y15800D01*
X8410D01*
Y15040D02*
Y15800D01*
X5750Y12430D02*
X6140D01*
Y11670D02*
Y12430D01*
X5750Y11670D02*
X6140D01*
X5750D02*
Y12430D01*
X6260Y12760D02*
X6650D01*
X6260D02*
Y13520D01*
X6650D01*
Y12760D02*
Y13520D01*
X5040Y13280D02*
X5430D01*
X5040D02*
Y14040D01*
X5430D01*
Y13280D02*
Y14040D01*
X6270Y14210D02*
X6660D01*
X6270D02*
Y14970D01*
X6660D01*
Y14210D02*
Y14970D01*
X7230Y15800D02*
X7620D01*
Y15040D02*
Y15800D01*
X7230Y15040D02*
X7620D01*
X7230D02*
Y15800D01*
X7246Y13678D02*
Y14068D01*
X8006D01*
Y13678D02*
Y14068D01*
X7246Y13678D02*
X8006D01*
X7570Y11940D02*
X7960D01*
X7570D02*
Y12700D01*
X7960D01*
Y11940D02*
Y12700D01*
X5430Y14040D02*
X5820D01*
Y13280D02*
Y14040D01*
X5430Y13280D02*
X5820D01*
X5430D02*
Y14040D01*
X5470Y14260D02*
X5860D01*
X5470D02*
Y15020D01*
X5860D01*
Y14260D02*
Y15020D01*
X7020Y13230D02*
X7410D01*
Y12470D02*
Y13230D01*
X7020Y12470D02*
X7410D01*
X7020D02*
Y13230D01*
X7620Y15800D02*
X8010D01*
Y15040D02*
Y15800D01*
X7620Y15040D02*
X8010D01*
X7620D02*
Y15800D01*
X7970Y11940D02*
X8360D01*
X7970D02*
Y12700D01*
X8360D01*
Y11940D02*
Y12700D01*
X7210Y14090D02*
Y14480D01*
X7970D01*
Y14090D02*
Y14480D01*
X7210Y14090D02*
X7970D01*
X3853Y18417D02*
X4613D01*
Y18027D02*
Y18417D01*
X3853Y18027D02*
X4613D01*
X3853D02*
Y18417D01*
X2587Y19745D02*
Y20749D01*
X3139D01*
Y19745D02*
Y20749D01*
X2587Y19745D02*
X3139D01*
X3733Y18457D02*
X4123D01*
Y19217D01*
X3733D02*
X4123D01*
X3733Y18457D02*
Y19217D01*
X3153Y19747D02*
X3543D01*
Y20507D01*
X3153D02*
X3543D01*
X3153Y19747D02*
Y20507D01*
X2203Y19947D02*
X2593D01*
Y20707D01*
X2203D02*
X2593D01*
X2203Y19947D02*
Y20707D01*
X12071Y15017D02*
Y15407D01*
Y15017D02*
X12831D01*
Y15407D01*
X12071D02*
X12831D01*
X12077Y12028D02*
X13081D01*
Y11476D02*
Y12028D01*
X12077Y11476D02*
X13081D01*
X12077D02*
Y12028D01*
X13089Y11268D02*
X13479D01*
Y12028D01*
X13089D02*
X13479D01*
X13089Y11268D02*
Y12028D01*
X1531Y15066D02*
Y15456D01*
X772D02*
X1531D01*
X772Y15066D02*
Y15456D01*
Y15066D02*
X1531D01*
X1610Y10932D02*
Y11322D01*
X850D02*
X1610D01*
X850Y10932D02*
Y11322D01*
Y10932D02*
X1610D01*
X9470Y25170D02*
X10230D01*
Y24780D02*
Y25170D01*
X9470Y24780D02*
X10230D01*
X9470D02*
Y25170D01*
X8345Y25548D02*
Y26308D01*
X8735D01*
Y25548D02*
Y26308D01*
X8345Y25548D02*
X8735D01*
X8873Y26466D02*
X9633D01*
X8873D02*
Y26856D01*
X9633D01*
Y26466D02*
Y26856D01*
X15714Y23271D02*
X16266D01*
Y24275D01*
X15714D02*
X16266D01*
X15714Y23271D02*
Y24275D01*
X14845Y24346D02*
Y24897D01*
Y24346D02*
X15849D01*
Y24897D01*
X14845D02*
X15849D01*
X14427Y24821D02*
X14817D01*
X14427Y24061D02*
Y24821D01*
Y24061D02*
X14817D01*
Y24821D01*
X15027Y24904D02*
Y25294D01*
Y24904D02*
X15787D01*
Y25294D01*
X15027D02*
X15787D01*
X16810Y23710D02*
X17200D01*
Y24470D01*
X16810D02*
X17200D01*
X16810Y23710D02*
Y24470D01*
X12940Y26160D02*
X13700D01*
Y25770D02*
Y26160D01*
X12940Y25770D02*
X13700D01*
X12940D02*
Y26160D01*
X12940Y26552D02*
X13700D01*
Y26162D02*
Y26552D01*
X12940Y26162D02*
X13700D01*
X12940D02*
Y26552D01*
X17640Y23710D02*
Y24470D01*
X17250Y23710D02*
X17640D01*
X17250D02*
Y24470D01*
X17640D01*
X8050Y12910D02*
Y13670D01*
Y12910D02*
X8440D01*
Y13670D01*
X8050D02*
X8440D01*
X12244Y16841D02*
X13248D01*
X12244D02*
Y17392D01*
X13248D01*
Y16841D02*
Y17392D01*
X11923Y19446D02*
X12927D01*
Y18894D02*
Y19446D01*
X11923Y18894D02*
X12927D01*
X11923D02*
Y19446D01*
X778Y9587D02*
X1781D01*
Y9035D02*
Y9587D01*
X778Y9035D02*
X1781D01*
X778D02*
Y9587D01*
X630Y7598D02*
X1634D01*
Y7047D02*
Y7598D01*
X630Y7047D02*
X1634D01*
X630D02*
Y7598D01*
X9705Y16496D02*
X10709D01*
Y15945D02*
Y16496D01*
X9705Y15945D02*
X10709D01*
X9705D02*
Y16496D01*
X8211Y7539D02*
X9215D01*
X8211D02*
Y8090D01*
X9215D01*
Y7539D02*
Y8090D01*
X9701Y20326D02*
X10705D01*
Y19774D02*
Y20326D01*
X9701Y19774D02*
X10705D01*
X9701D02*
Y20326D01*
X7650Y2893D02*
Y3897D01*
X8201D01*
Y2893D02*
Y3897D01*
X7650Y2893D02*
X8201D01*
X11604Y8474D02*
X12608D01*
Y7923D02*
Y8474D01*
X11604Y7923D02*
X12608D01*
X11604D02*
Y8474D01*
X13524Y6909D02*
Y7913D01*
X14075D01*
Y6909D02*
Y7913D01*
X13524Y6909D02*
X14075D01*
X10532Y6949D02*
Y7953D01*
X11083D01*
Y6949D02*
Y7953D01*
X10532Y6949D02*
X11083D01*
X4029Y7904D02*
X4806D01*
X4029Y9460D02*
X4806D01*
X4029Y7904D02*
Y9460D01*
X4806Y7904D02*
Y9460D01*
X9099Y8215D02*
Y8992D01*
X7542Y8215D02*
Y8992D01*
Y8215D02*
X9099D01*
X7542Y8992D02*
X9099D01*
X3164Y5105D02*
Y5882D01*
X4721Y5105D02*
Y5882D01*
X3164D02*
X4721D01*
X3164Y5105D02*
X4721D01*
X9689Y4199D02*
Y4976D01*
X8133Y4199D02*
Y4976D01*
Y4199D02*
X9689D01*
X8133Y4976D02*
X9689D01*
X6902Y4714D02*
X7453D01*
Y5718D01*
X6902D02*
X7453D01*
X6902Y4714D02*
Y5718D01*
X7522Y7893D02*
Y8444D01*
X6518D02*
X7522D01*
X6518Y7893D02*
Y8444D01*
Y7893D02*
X7522D01*
Y7263D02*
Y7814D01*
X6518D02*
X7522D01*
X6518Y7263D02*
Y7814D01*
Y7263D02*
X7522D01*
X8319Y3897D02*
X8870D01*
X8319Y2893D02*
Y3897D01*
Y2893D02*
X8870D01*
Y3897D01*
X7522Y6633D02*
Y7184D01*
X6518D02*
X7522D01*
X6518Y6633D02*
Y7184D01*
Y6633D02*
X7522D01*
Y6003D02*
Y6554D01*
X6518D02*
X7522D01*
X6518Y6003D02*
Y6554D01*
Y6003D02*
X7522D01*
X10463Y5837D02*
Y6388D01*
Y5837D02*
X11467D01*
Y6388D01*
X10463D02*
X11467D01*
X12529Y5797D02*
Y6348D01*
X11526D02*
X12529D01*
X11526Y5797D02*
Y6348D01*
Y5797D02*
X12529D01*
X2930Y8014D02*
Y8565D01*
Y8014D02*
X3934D01*
Y8565D01*
X2930D02*
X3934D01*
X2930Y8644D02*
Y9195D01*
Y8644D02*
X3934D01*
Y9195D01*
X2930D02*
X3934D01*
X11526Y5719D02*
X12530D01*
Y5167D02*
Y5719D01*
X11526Y5167D02*
X12530D01*
X11526D02*
Y5719D01*
X2261Y8536D02*
X2812D01*
X2261Y7532D02*
Y8536D01*
Y7532D02*
X2812D01*
Y8536D01*
X5512Y6083D02*
X6063D01*
X5512Y5079D02*
Y6083D01*
Y5079D02*
X6063D01*
Y6083D01*
X6940Y21070D02*
Y21830D01*
X6550D02*
X6940D01*
X6550Y21070D02*
Y21830D01*
Y21070D02*
X6940D01*
X7324D02*
Y21830D01*
X6934D02*
X7324D01*
X6934Y21070D02*
Y21830D01*
Y21070D02*
X7324D01*
X11680Y11270D02*
Y12030D01*
X12070D01*
Y11270D02*
Y12030D01*
X11680Y11270D02*
X12070D01*
X11170D02*
Y12030D01*
X11560D01*
Y11270D02*
Y12030D01*
X11170Y11270D02*
X11560D01*
X12470Y15430D02*
Y16190D01*
X12860D01*
Y15430D02*
Y16190D01*
X12470Y15430D02*
X12860D01*
X12470Y15430D02*
Y16190D01*
X12080Y15430D02*
X12470D01*
X12080D02*
Y16190D01*
X12470D01*
X12400Y10970D02*
Y11360D01*
X13160D01*
Y10970D02*
Y11360D01*
X12400Y10970D02*
X13160D01*
X10870Y12070D02*
X11630D01*
X10870Y11680D02*
Y12070D01*
Y11680D02*
X11630D01*
Y12070D01*
D198*
X4774Y1742D02*
Y2451D01*
X5167Y1742D02*
Y2451D01*
X4774D02*
X5167D01*
X4774Y1742D02*
X5167D01*
X11240Y1722D02*
Y2431D01*
X11634Y1722D02*
Y2431D01*
X11240D02*
X11634D01*
X11240Y1722D02*
X11634D01*
X16727Y23736D02*
Y24444D01*
X16333Y23736D02*
Y24444D01*
X16727D01*
X16333Y23736D02*
X16727D01*
X12539Y3169D02*
Y3563D01*
X12343Y3366D02*
X12736D01*
X10989Y1931D02*
X14089D01*
Y4801D01*
X10989D02*
X14089D01*
X10989Y1931D02*
Y4801D01*
X7410Y18647D02*
Y19041D01*
X7213Y18844D02*
X7607D01*
X5860Y17409D02*
X8960D01*
Y20279D01*
X5860D02*
X8960D01*
X5860Y17409D02*
Y20279D01*
X5940Y23693D02*
Y24087D01*
X5743Y23890D02*
X6137D01*
X4390Y22455D02*
X7490D01*
Y25325D01*
X4390D02*
X7490D01*
X4390Y22455D02*
Y25325D01*
X15636Y25815D02*
Y26485D01*
X15144D02*
X15636D01*
X15144Y25815D02*
Y26485D01*
Y25815D02*
X15636D01*
X11923Y16506D02*
Y19774D01*
X9443Y16506D02*
Y19774D01*
X11923D01*
X9443Y16506D02*
X11923D01*
X11985Y18829D02*
X13284D01*
X11985Y17431D02*
X13284D01*
Y18829D01*
X11985Y17431D02*
Y18829D01*
X739Y7645D02*
X2038D01*
X739Y9043D02*
X2038D01*
X739Y7645D02*
Y9043D01*
X2038Y7645D02*
Y9043D01*
X12697Y8829D02*
X14272D01*
X12697Y8041D02*
X14272D01*
X12697D02*
Y8829D01*
X14272Y8041D02*
Y8829D01*
X5853Y6272D02*
Y7788D01*
X4712Y6272D02*
Y7788D01*
X5853D01*
X4712Y6272D02*
X5853D01*
X7689Y5167D02*
X9028D01*
X7689Y7391D02*
X9028D01*
X7689Y5167D02*
Y7391D01*
X9028Y5167D02*
Y7391D01*
X13376Y6506D02*
Y7844D01*
X11152Y6506D02*
Y7844D01*
Y6506D02*
X13376D01*
X11152Y7844D02*
X13376D01*
X3097Y6302D02*
Y7758D01*
X4397Y6302D02*
Y7758D01*
X3097Y6302D02*
X4397D01*
X3097Y7758D02*
X4397D01*
X8125Y24415D02*
X11195D01*
X8125Y21345D02*
X11195D01*
X8125D02*
Y24415D01*
X11195Y21345D02*
Y24415D01*
X10648Y12398D02*
Y14642D01*
X12892Y12398D02*
Y14642D01*
X10648D02*
X12892D01*
X10648Y12398D02*
X12892D01*
M02*
