G04 Layer_Color=128*
%FSLAX24Y24*%
%MOIN*%
G70*
G01*
G75*
%ADD48C,0.0050*%
D48*
X2693Y10054D02*
X3205D01*
X2949Y9798D02*
Y10310D01*
X2693Y4346D02*
X3205D01*
X2949Y4090D02*
Y4602D01*
X744Y10291D02*
X1256D01*
X1000Y10035D02*
Y10546D01*
X744Y4109D02*
X1256D01*
X1000Y3854D02*
Y4365D01*
X1565Y21393D02*
X1781D01*
X1673Y21285D02*
Y21502D01*
X1565Y23362D02*
X1781D01*
X1673Y23254D02*
Y23470D01*
X512Y23756D02*
X708D01*
X610Y23657D02*
Y23854D01*
X512Y21000D02*
X708D01*
X610Y20901D02*
Y21098D01*
X17221Y19620D02*
X18521D01*
X17871Y18970D02*
Y20270D01*
X1510Y26970D02*
X2810D01*
X2160Y26320D02*
Y27620D01*
X17221Y1730D02*
X18521D01*
X17871Y1080D02*
Y2380D01*
X1290Y1660D02*
X2590D01*
X1940Y1010D02*
Y2310D01*
X12331Y18440D02*
X12711D01*
X12521Y18250D02*
Y18630D01*
X12331Y19440D02*
X12711D01*
X12521Y19250D02*
Y19630D01*
X13331Y18440D02*
X13711D01*
X13521Y18250D02*
Y18630D01*
X13331Y19440D02*
X13711D01*
X13521Y19250D02*
Y19630D01*
X14331Y18440D02*
X14711D01*
X14521Y18250D02*
Y18630D01*
X14331Y19440D02*
X14711D01*
X14521Y19250D02*
Y19630D01*
X13383Y225D02*
X13659D01*
X13521Y87D02*
Y362D01*
X13383Y933D02*
X13659D01*
X13521Y795D02*
Y1071D01*
X6923Y943D02*
X7199D01*
X7061Y805D02*
Y1081D01*
X6923Y235D02*
X7199D01*
X7061Y97D02*
Y372D01*
X8775Y26304D02*
X8855D01*
X8815Y26264D02*
Y26344D01*
X9208Y26304D02*
X9288D01*
X9248Y26264D02*
Y26344D01*
X9641Y26304D02*
X9721D01*
X9681Y26264D02*
Y26344D01*
X10074Y26304D02*
X10154D01*
X10114Y26264D02*
Y26344D01*
X10507Y26304D02*
X10587D01*
X10547Y26264D02*
Y26344D01*
X8775Y25871D02*
X8855D01*
X8815Y25831D02*
Y25911D01*
X9208Y25871D02*
X9288D01*
X9248Y25831D02*
Y25911D01*
X9641Y25871D02*
X9721D01*
X9681Y25831D02*
Y25911D01*
X10074Y25871D02*
X10154D01*
X10114Y25831D02*
Y25911D01*
X10507Y25871D02*
X10587D01*
X10547Y25831D02*
Y25911D01*
X8775Y25438D02*
X8855D01*
X8815Y25398D02*
Y25478D01*
X9208Y25438D02*
X9288D01*
X9248Y25398D02*
Y25478D01*
X9641Y25438D02*
X9721D01*
X9681Y25398D02*
Y25478D01*
X10074Y25438D02*
X10154D01*
X10114Y25398D02*
Y25478D01*
X10507Y25438D02*
X10587D01*
X10547Y25398D02*
Y25478D01*
X8775Y25004D02*
X8855D01*
X8815Y24964D02*
Y25045D01*
X9208Y25004D02*
X9288D01*
X9248Y24964D02*
Y25045D01*
X9641Y25004D02*
X9721D01*
X9681Y24964D02*
Y25045D01*
X10074Y25004D02*
X10154D01*
X10114Y24964D02*
Y25045D01*
X10507Y25004D02*
X10587D01*
X10547Y24964D02*
Y25045D01*
X8775Y24571D02*
X8855D01*
X8815Y24531D02*
Y24611D01*
X9208Y24571D02*
X9288D01*
X9248Y24531D02*
Y24611D01*
X9641Y24571D02*
X9721D01*
X9681Y24531D02*
Y24611D01*
X10074Y24571D02*
X10154D01*
X10114Y24531D02*
Y24611D01*
X10507Y24571D02*
X10587D01*
X10547Y24531D02*
Y24611D01*
X13966Y16030D02*
X14084D01*
X14025Y15971D02*
Y16089D01*
X14466Y16030D02*
X14584D01*
X14525Y15971D02*
Y16089D01*
X14466Y15530D02*
X14584D01*
X14525Y15471D02*
Y15589D01*
X13966Y15530D02*
X14084D01*
X14025Y15471D02*
Y15589D01*
X13966Y16530D02*
X14084D01*
X14025Y16471D02*
Y16589D01*
X14466Y16530D02*
X14584D01*
X14525Y16471D02*
Y16589D01*
X13466Y16530D02*
X13584D01*
X13525Y16471D02*
Y16589D01*
X13466Y16030D02*
X13584D01*
X13525Y15971D02*
Y16089D01*
X13466Y15530D02*
X13584D01*
X13525Y15471D02*
Y15589D01*
X13466Y17030D02*
X13584D01*
X13525Y16971D02*
Y17089D01*
X13966Y17030D02*
X14084D01*
X14025Y16971D02*
Y17089D01*
X14466Y17030D02*
X14584D01*
X14525Y16971D02*
Y17089D01*
X5877Y6843D02*
X5957D01*
X5917Y6803D02*
Y6883D01*
X6310Y6843D02*
X6390D01*
X6350Y6803D02*
Y6883D01*
X6743Y6843D02*
X6823D01*
X6783Y6803D02*
Y6883D01*
X5877Y6410D02*
X5957D01*
X5917Y6370D02*
Y6450D01*
X6310Y6410D02*
X6390D01*
X6350Y6370D02*
Y6450D01*
X6743Y6410D02*
X6823D01*
X6783Y6370D02*
Y6450D01*
X5877Y5977D02*
X5957D01*
X5917Y5937D02*
Y6017D01*
X6310Y5977D02*
X6390D01*
X6350Y5937D02*
Y6017D01*
X6743Y5977D02*
X6823D01*
X6783Y5937D02*
Y6017D01*
X16891Y19620D02*
X17041D01*
X16966Y19545D02*
Y19695D01*
X18702Y19620D02*
X18852D01*
X18777Y19545D02*
Y19695D01*
X17796Y20526D02*
X17946D01*
X17871Y20451D02*
Y20601D01*
X17796Y18714D02*
X17946D01*
X17871Y18639D02*
Y18789D01*
X1179Y26970D02*
X1329D01*
X1254Y26895D02*
Y27045D01*
X2991Y26970D02*
X3141D01*
X3066Y26895D02*
Y27045D01*
X2085Y27876D02*
X2235D01*
X2160Y27801D02*
Y27951D01*
X2085Y26064D02*
X2235D01*
X2160Y25989D02*
Y26139D01*
X16891Y1730D02*
X17041D01*
X16966Y1655D02*
Y1805D01*
X18702Y1730D02*
X18852D01*
X18777Y1655D02*
Y1805D01*
X17796Y2636D02*
X17946D01*
X17871Y2561D02*
Y2711D01*
X17796Y824D02*
X17946D01*
X17871Y749D02*
Y899D01*
X959Y1660D02*
X1109D01*
X1034Y1585D02*
Y1735D01*
X2771Y1660D02*
X2921D01*
X2846Y1585D02*
Y1735D01*
X1865Y2566D02*
X2015D01*
X1940Y2491D02*
Y2641D01*
X1865Y754D02*
X2015D01*
X1940Y679D02*
Y829D01*
X5365Y9895D02*
X5485D01*
X5425Y9835D02*
Y9955D01*
X10418Y27099D02*
X10518D01*
X10468Y27048D02*
Y27148D01*
X8797Y27177D02*
X8897D01*
X8847Y27127D02*
Y27227D01*
X8560Y27070D02*
X8640D01*
X8600Y27030D02*
Y27110D01*
X981Y19621D02*
X1081D01*
X1031Y19571D02*
Y19671D01*
X3800Y5530D02*
X3880D01*
X3840Y5490D02*
Y5570D01*
X3800Y6120D02*
X3880D01*
X3840Y6080D02*
Y6160D01*
X3800Y6710D02*
X3880D01*
X3840Y6670D02*
Y6750D01*
X3800Y7300D02*
X3880D01*
X3840Y7260D02*
Y7340D01*
X4110Y7870D02*
X4190D01*
X4150Y7830D02*
Y7910D01*
X6970Y10420D02*
X7090D01*
X7030Y10360D02*
Y10480D01*
X15665Y11230D02*
X15815D01*
X15740Y11155D02*
Y11305D01*
X15855Y15530D02*
X16005D01*
X15930Y15455D02*
Y15605D01*
X8247Y12740D02*
X8327D01*
X8287Y12700D02*
Y12780D01*
X8530Y12460D02*
X8610D01*
X8570Y12420D02*
Y12500D01*
X8540Y11950D02*
X8620D01*
X8580Y11910D02*
Y11990D01*
X6871Y17570D02*
X6951D01*
X6911Y17530D02*
Y17610D01*
X8490Y17530D02*
X8570D01*
X8530Y17490D02*
Y17570D01*
X7510Y10960D02*
X7630D01*
X7570Y10900D02*
Y11020D01*
X11300Y6990D02*
X11400D01*
X11350Y6940D02*
Y7040D01*
X11290Y6690D02*
X11390D01*
X11340Y6640D02*
Y6740D01*
X7490Y4850D02*
X7570D01*
X7530Y4810D02*
Y4890D01*
X12038Y14297D02*
X12158D01*
X12098Y14237D02*
Y14357D01*
X7680Y11510D02*
X7800D01*
X7740Y11450D02*
Y11570D01*
X3687Y14110D02*
X3767D01*
X3727Y14070D02*
Y14150D01*
X3837Y13250D02*
X3917D01*
X3877Y13210D02*
Y13290D01*
X3837Y13050D02*
X3917D01*
X3877Y13010D02*
Y13090D01*
X4717Y11450D02*
X4797D01*
X4757Y11410D02*
Y11490D01*
X920Y12421D02*
X1000D01*
X960Y12381D02*
Y12461D01*
X4717Y11250D02*
X4797D01*
X4757Y11210D02*
Y11290D01*
X920Y12220D02*
X1000D01*
X960Y12180D02*
Y12260D01*
X5990Y11220D02*
X6110D01*
X6050Y11160D02*
Y11280D01*
X4924Y14253D02*
X5004D01*
X4964Y14213D02*
Y14293D01*
X920Y12690D02*
X1000D01*
X960Y12650D02*
Y12730D01*
X4782Y14394D02*
X4862D01*
X4822Y14354D02*
Y14434D01*
X920Y12900D02*
X1000D01*
X960Y12860D02*
Y12940D01*
X920Y13370D02*
X1000D01*
X960Y13330D02*
Y13410D01*
X920Y13150D02*
X1000D01*
X960Y13110D02*
Y13190D01*
X1820Y8370D02*
X1940D01*
X1880Y8310D02*
Y8430D01*
X1640Y13030D02*
X1720D01*
X1680Y12990D02*
Y13070D01*
X4437Y12650D02*
X4517D01*
X4477Y12610D02*
Y12690D01*
X930Y14320D02*
X1010D01*
X970Y14280D02*
Y14360D01*
X4237Y12650D02*
X4317D01*
X4277Y12610D02*
Y12690D01*
X930Y14120D02*
X1010D01*
X970Y14080D02*
Y14160D01*
X920Y13840D02*
X1000D01*
X960Y13800D02*
Y13880D01*
X3687Y14310D02*
X3767D01*
X3727Y14270D02*
Y14350D01*
X920Y13640D02*
X1000D01*
X960Y13600D02*
Y13680D01*
X2716Y12766D02*
X2796D01*
X2756Y12726D02*
Y12806D01*
X2667Y11959D02*
X2747D01*
X2707Y11919D02*
Y11999D01*
X698Y11644D02*
X778D01*
X738Y11604D02*
Y11684D01*
X9148Y16190D02*
X9268D01*
X9208Y16130D02*
Y16250D01*
X2100Y13820D02*
X2180D01*
X2140Y13780D02*
Y13860D01*
X4837Y12650D02*
X4917D01*
X4877Y12610D02*
Y12690D01*
X3837Y12650D02*
X3917D01*
X3877Y12610D02*
Y12690D01*
X5568Y15870D02*
X5648D01*
X5608Y15830D02*
Y15910D01*
X5207Y13970D02*
X5287D01*
X5247Y13930D02*
Y14010D01*
X3687Y13710D02*
X3767D01*
X3727Y13670D02*
Y13750D01*
X4497Y14680D02*
X4577D01*
X4537Y14640D02*
Y14720D01*
X6963Y13740D02*
X7043D01*
X7003Y13700D02*
Y13780D01*
X7467Y13232D02*
X7547D01*
X7507Y13192D02*
Y13272D01*
X7727Y13490D02*
X7807D01*
X7767Y13450D02*
Y13530D01*
X7727Y14000D02*
X7807D01*
X7767Y13960D02*
Y14040D01*
X7997Y14020D02*
X8077D01*
X8037Y13980D02*
Y14060D01*
X4755Y10070D02*
X4905D01*
X4830Y9995D02*
Y10145D01*
X5070Y9760D02*
X5190D01*
X5130Y9700D02*
Y9820D01*
X1270Y8370D02*
X1390D01*
X1330Y8310D02*
Y8430D01*
X4717Y10850D02*
X4797D01*
X4757Y10810D02*
Y10890D01*
X4717Y11850D02*
X4797D01*
X4757Y11810D02*
Y11890D01*
X6477Y12470D02*
X6557D01*
X6517Y12430D02*
Y12510D01*
X7327Y14470D02*
X7407D01*
X7367Y14430D02*
Y14510D01*
X10617Y17010D02*
X10717D01*
X10667Y16960D02*
Y17060D01*
X15730Y19010D02*
X15830D01*
X15780Y18960D02*
Y19060D01*
X14275Y26340D02*
X14425D01*
X14350Y26265D02*
Y26415D01*
X13695Y26370D02*
X13845D01*
X13770Y26295D02*
Y26445D01*
X13965Y26035D02*
X14115D01*
X14040Y25960D02*
Y26110D01*
X15970Y24320D02*
X16070D01*
X16020Y24270D02*
Y24370D01*
X13865Y1900D02*
X14015D01*
X13940Y1825D02*
Y1975D01*
X13530Y3940D02*
X13630D01*
X13580Y3890D02*
Y3990D01*
X13590Y7290D02*
X13690D01*
X13640Y7240D02*
Y7340D01*
X14576Y7302D02*
X14676D01*
X14626Y7252D02*
Y7352D01*
X15600Y7150D02*
X15720D01*
X15660Y7090D02*
Y7210D01*
X16190Y7150D02*
X16310D01*
X16250Y7090D02*
Y7210D01*
X15945Y18610D02*
X16095D01*
X16020Y18535D02*
Y18685D01*
X5590Y24870D02*
X5690D01*
X5640Y24820D02*
Y24920D01*
X7560Y3370D02*
X7660D01*
X7610Y3320D02*
Y3420D01*
X8090Y3150D02*
X8190D01*
X8140Y3100D02*
Y3200D01*
X3720Y2900D02*
X3840D01*
X3780Y2840D02*
Y2960D01*
X12195Y2870D02*
X12345D01*
X12270Y2795D02*
Y2945D01*
X12065Y3230D02*
X12215D01*
X12140Y3155D02*
Y3305D01*
X5775Y3610D02*
X5925D01*
X5850Y3535D02*
Y3685D01*
X4450Y5020D02*
X4570D01*
X4510Y4960D02*
Y5080D01*
X7425Y4320D02*
X7575D01*
X7500Y4245D02*
Y4395D01*
X18065Y6560D02*
X18215D01*
X18140Y6485D02*
Y6635D01*
X17050Y5730D02*
X17150D01*
X17100Y5680D02*
Y5780D01*
X17155Y7260D02*
X17305D01*
X17230Y7185D02*
Y7335D01*
X6575Y1260D02*
X6725D01*
X6650Y1185D02*
Y1335D01*
X12945Y6680D02*
X13095D01*
X13020Y6605D02*
Y6755D01*
X16183Y866D02*
X16333D01*
X16258Y791D02*
Y941D01*
X13669Y4488D02*
X13819D01*
X13744Y4413D02*
Y4563D01*
X12977Y4322D02*
X13127D01*
X13052Y4247D02*
Y4397D01*
X18165Y7880D02*
X18315D01*
X18240Y7805D02*
Y7955D01*
X13250Y7300D02*
X13370D01*
X13310Y7240D02*
Y7360D01*
X15460Y21740D02*
X15560D01*
X15510Y21690D02*
Y21790D01*
X15850Y22450D02*
X15970D01*
X15910Y22390D02*
Y22510D01*
X16351Y25150D02*
X16471D01*
X16411Y25090D02*
Y25210D01*
X17260Y5250D02*
X17500D01*
X17380Y5130D02*
Y5370D01*
X11737Y17580D02*
X11857D01*
X11797Y17520D02*
Y17640D01*
X3725Y20620D02*
X3875D01*
X3800Y20545D02*
Y20695D01*
X5555Y21570D02*
X5705D01*
X5630Y21495D02*
Y21645D01*
X5555Y23440D02*
X5705D01*
X5630Y23365D02*
Y23515D01*
X5611Y21070D02*
X5731D01*
X5671Y21010D02*
Y21130D01*
X15040Y25460D02*
X15160D01*
X15100Y25400D02*
Y25520D01*
X15860Y16167D02*
X16010D01*
X15935Y16092D02*
Y16242D01*
X12460Y27370D02*
X12580D01*
X12520Y27310D02*
Y27430D01*
X7595Y27930D02*
X7745D01*
X7670Y27855D02*
Y28005D01*
X8320Y27410D02*
X8420D01*
X8370Y27360D02*
Y27460D01*
X11271Y26230D02*
X11391D01*
X11331Y26170D02*
Y26290D01*
X11501Y26980D02*
X11621D01*
X11561Y26920D02*
Y27040D01*
X6225Y27180D02*
X6375D01*
X6300Y27105D02*
Y27255D01*
X5887Y14480D02*
X5967D01*
X5927Y14440D02*
Y14520D01*
X5767Y15290D02*
X5847D01*
X5807Y15250D02*
Y15330D01*
X5958Y15440D02*
X6038D01*
X5998Y15400D02*
Y15480D01*
X6528Y15170D02*
X6608D01*
X6568Y15130D02*
Y15210D01*
X1301Y19268D02*
X1421D01*
X1361Y19208D02*
Y19328D01*
X12060Y5850D02*
X12180D01*
X12120Y5790D02*
Y5910D01*
X18551Y9410D02*
X18671D01*
X18611Y9350D02*
Y9470D01*
X13471Y25677D02*
X13621D01*
X13546Y25602D02*
Y25752D01*
X13570Y26870D02*
X13720D01*
X13645Y26795D02*
Y26945D01*
X11281Y24380D02*
X11361D01*
X11321Y24340D02*
Y24420D01*
X8664Y23050D02*
X8814D01*
X8739Y22975D02*
Y23125D01*
X9355Y21342D02*
X9505D01*
X9430Y21267D02*
Y21417D01*
X8664Y22033D02*
X8814D01*
X8739Y21958D02*
Y22108D01*
X9171Y27540D02*
X9291D01*
X9231Y27480D02*
Y27600D01*
X7611Y25130D02*
X7731D01*
X7671Y25070D02*
Y25190D01*
X4396Y27750D02*
X4546D01*
X4471Y27675D02*
Y27825D01*
X7981Y26270D02*
X8081D01*
X8031Y26220D02*
Y26320D01*
X5981Y26670D02*
X6101D01*
X6041Y26610D02*
Y26730D01*
X4101Y25650D02*
X4221D01*
X4161Y25590D02*
Y25710D01*
X3861Y25260D02*
X3981D01*
X3921Y25200D02*
Y25320D01*
X15206Y5392D02*
X15446D01*
X15326Y5272D02*
Y5512D01*
X6188Y15330D02*
X6268D01*
X6228Y15290D02*
Y15370D01*
X6848Y15920D02*
X6968D01*
X6908Y15860D02*
Y15980D01*
X6211Y19850D02*
X6291D01*
X6251Y19810D02*
Y19890D01*
X6221Y19340D02*
X6301D01*
X6261Y19300D02*
Y19380D01*
X6181Y18830D02*
X6261D01*
X6221Y18790D02*
Y18870D01*
X6181Y18340D02*
X6261D01*
X6221Y18300D02*
Y18380D01*
X7958Y15930D02*
X8078D01*
X8018Y15870D02*
Y15990D01*
X10200Y16468D02*
X10300D01*
X10250Y16418D02*
Y16518D01*
X10848Y16560D02*
X10948D01*
X10898Y16510D02*
Y16610D01*
X11428Y16630D02*
X11528D01*
X11478Y16580D02*
Y16680D01*
X7345Y12250D02*
X7425D01*
X7385Y12210D02*
Y12290D01*
X6957Y12010D02*
X7037D01*
X6997Y11970D02*
Y12050D01*
X6937Y12750D02*
X7017D01*
X6977Y12710D02*
Y12790D01*
X650Y14320D02*
X730D01*
X690Y14280D02*
Y14360D01*
X650Y14120D02*
X730D01*
X690Y14080D02*
Y14160D01*
X650Y13840D02*
X730D01*
X690Y13800D02*
Y13880D01*
X650Y13640D02*
X730D01*
X690Y13600D02*
Y13680D01*
X650Y13370D02*
X730D01*
X690Y13330D02*
Y13410D01*
X650Y13150D02*
X730D01*
X690Y13110D02*
Y13190D01*
X650Y12900D02*
X730D01*
X690Y12860D02*
Y12940D01*
X650Y12690D02*
X730D01*
X690Y12650D02*
Y12730D01*
X650Y12420D02*
X730D01*
X690Y12380D02*
Y12460D01*
X7280Y5480D02*
X7360D01*
X7320Y5440D02*
Y5520D01*
X7280Y7340D02*
X7360D01*
X7320Y7300D02*
Y7380D01*
X5380Y7340D02*
X5460D01*
X5420Y7300D02*
Y7380D01*
X5370Y5440D02*
X5450D01*
X5410Y5400D02*
Y5480D01*
X650Y12220D02*
X730D01*
X690Y12180D02*
Y12260D01*
X5795Y27737D02*
X5945D01*
X5870Y27662D02*
Y27812D01*
X2705Y8480D02*
X2855D01*
X2780Y8405D02*
Y8555D01*
X6225Y3810D02*
X6375D01*
X6300Y3735D02*
Y3885D01*
X8287Y15930D02*
X8407D01*
X8347Y15870D02*
Y15990D01*
X8677Y15920D02*
X8797D01*
X8737Y15860D02*
Y15980D01*
X8467Y14030D02*
X8547D01*
X8507Y13990D02*
Y14070D01*
X8243Y11909D02*
X8323D01*
X8283Y11869D02*
Y11949D01*
X7697Y14480D02*
X7777D01*
X7737Y14440D02*
Y14520D01*
X7987Y12992D02*
X8067D01*
X8027Y12952D02*
Y13032D01*
X7465Y12736D02*
X7545D01*
X7505Y12696D02*
Y12776D01*
X7465Y13041D02*
X7545D01*
X7505Y13001D02*
Y13081D01*
X7219Y12992D02*
X7299D01*
X7259Y12952D02*
Y13032D01*
X6707Y12461D02*
X6787D01*
X6747Y12421D02*
Y12501D01*
X6678Y13091D02*
X6758D01*
X6718Y13051D02*
Y13131D01*
X6195Y14250D02*
X6275D01*
X6235Y14210D02*
Y14290D01*
X7219Y14006D02*
X7299D01*
X7259Y13966D02*
Y14046D01*
X7475Y13760D02*
X7555D01*
X7515Y13720D02*
Y13800D01*
X7219Y13750D02*
X7299D01*
X7259Y13710D02*
Y13790D01*
X7219Y13484D02*
X7299D01*
X7259Y13444D02*
Y13524D01*
X6963Y14006D02*
X7043D01*
X7003Y13966D02*
Y14046D01*
X8467Y14290D02*
X8547D01*
X8507Y14250D02*
Y14330D01*
X7987Y12470D02*
X8067D01*
X8027Y12430D02*
Y12510D01*
X16088Y10388D02*
X16288D01*
X16188Y10288D02*
Y10488D01*
X15806Y11671D02*
X16006D01*
X15906Y11571D02*
Y11771D01*
X16111Y13010D02*
X16311D01*
X16211Y12910D02*
Y13110D01*
X16072Y13482D02*
X16272D01*
X16172Y13382D02*
Y13582D01*
X3881Y21450D02*
X4031D01*
X3956Y21375D02*
Y21525D01*
X2305Y22518D02*
X2455D01*
X2380Y22443D02*
Y22593D01*
X2165Y21868D02*
X2315D01*
X2240Y21793D02*
Y21943D01*
X2195Y23098D02*
X2345D01*
X2270Y23023D02*
Y23173D01*
X10721Y27048D02*
X10801D01*
X10761Y27008D02*
Y27088D01*
X11241Y24638D02*
X11321D01*
X11281Y24598D02*
Y24678D01*
X10686Y21738D02*
X10836D01*
X10761Y21663D02*
Y21813D01*
X9951Y23638D02*
X10031D01*
X9991Y23598D02*
Y23678D01*
X7707Y12450D02*
X7787D01*
X7747Y12410D02*
Y12490D01*
X3738Y19597D02*
X3888D01*
X3813Y19522D02*
Y19672D01*
X2378Y17157D02*
X2528D01*
X2453Y17082D02*
Y17232D01*
X5937Y15030D02*
X6017D01*
X5977Y14990D02*
Y15070D01*
X6947Y15010D02*
X7027D01*
X6987Y14970D02*
Y15050D01*
X7475Y14006D02*
X7555D01*
X7515Y13966D02*
Y14046D01*
X6697Y13750D02*
X6777D01*
X6737Y13710D02*
Y13790D01*
X7475Y13484D02*
X7555D01*
X7515Y13444D02*
Y13524D01*
X5413Y25700D02*
X5563D01*
X5488Y25625D02*
Y25775D01*
X6176Y8777D02*
X6326D01*
X6251Y8702D02*
Y8852D01*
X4756Y8760D02*
X4906D01*
X4831Y8685D02*
Y8835D01*
X7125Y5058D02*
X7205D01*
X7165Y5018D02*
Y5098D01*
X7424Y8700D02*
X7504D01*
X7464Y8660D02*
Y8740D01*
X6613Y7627D02*
X6693D01*
X6653Y7587D02*
Y7667D01*
X5092Y4713D02*
X5242D01*
X5167Y4638D02*
Y4788D01*
X13444Y1535D02*
X13594D01*
X13519Y1461D02*
Y1611D01*
X13838Y591D02*
X13988D01*
X13913Y516D02*
Y666D01*
X13060Y591D02*
X13210D01*
X13135Y516D02*
Y666D01*
X7371Y600D02*
X7521D01*
X7446Y525D02*
Y675D01*
X6604Y600D02*
X6754D01*
X6679Y525D02*
Y675D01*
X8955Y627D02*
X9105D01*
X9030Y552D02*
Y702D01*
X9772Y883D02*
X9922D01*
X9847Y808D02*
Y958D01*
X15402Y623D02*
X15552D01*
X15477Y548D02*
Y698D01*
X10663Y23198D02*
X10813D01*
X10738Y23123D02*
Y23273D01*
X3085Y22518D02*
X3235D01*
X3160Y22443D02*
Y22593D01*
X9051Y27068D02*
X9131D01*
X9091Y27028D02*
Y27108D01*
X6646Y27510D02*
X6796D01*
X6721Y27435D02*
Y27585D01*
X7961Y25418D02*
X8041D01*
X8001Y25378D02*
Y25458D01*
X8497Y15040D02*
X8577D01*
X8537Y15000D02*
Y15080D01*
X7341Y20236D02*
X7491D01*
X7416Y20161D02*
Y20311D01*
X8434Y20246D02*
X8584D01*
X8509Y20171D02*
Y20321D01*
X7219Y13228D02*
X7299D01*
X7259Y13188D02*
Y13268D01*
X6717Y13484D02*
X6797D01*
X6757Y13444D02*
Y13524D01*
X12009Y5079D02*
X12159D01*
X12084Y5004D02*
Y5154D01*
X7109Y10730D02*
X7229D01*
X7169Y10670D02*
Y10790D01*
X6441Y13750D02*
X6521D01*
X6481Y13710D02*
Y13790D01*
X6441Y13484D02*
X6521D01*
X6481Y13444D02*
Y13524D01*
X7018Y8467D02*
X7168D01*
X7093Y8392D02*
Y8542D01*
X5755Y8760D02*
X5905D01*
X5830Y8685D02*
Y8835D01*
X10211Y23590D02*
X10291D01*
X10251Y23550D02*
Y23630D01*
X9207Y18238D02*
X9287D01*
X9247Y18198D02*
Y18278D01*
X6991Y27300D02*
X7091D01*
X7041Y27250D02*
Y27350D01*
X17601Y13426D02*
X17701D01*
X17651Y13376D02*
Y13476D01*
X17201Y8800D02*
X17301D01*
X17251Y8750D02*
Y8850D01*
X2711Y25000D02*
X2811D01*
X2761Y24950D02*
Y25050D01*
X2271Y24850D02*
X2371D01*
X2321Y24800D02*
Y24900D01*
X3871Y23563D02*
X3971D01*
X3921Y23513D02*
Y23613D01*
X1211Y24340D02*
X1311D01*
X1261Y24290D02*
Y24390D01*
X7942Y25680D02*
X8022D01*
X7982Y25640D02*
Y25720D01*
X5041Y24980D02*
X5141D01*
X5091Y24930D02*
Y25030D01*
X4511Y24970D02*
X4611D01*
X4561Y24920D02*
Y25020D01*
X5341Y23890D02*
X5441D01*
X5391Y23840D02*
Y23940D01*
X13767Y13438D02*
X13887D01*
X13827Y13378D02*
Y13498D01*
X13081Y10690D02*
X13201D01*
X13141Y10630D02*
Y10750D01*
X3687Y14710D02*
X3767D01*
X3727Y14670D02*
Y14750D01*
X12358Y16050D02*
X12478D01*
X12418Y15990D02*
Y16110D01*
X12681Y9830D02*
X12801D01*
X12741Y9770D02*
Y9890D01*
X11761Y3410D02*
X11881D01*
X11821Y3350D02*
Y3470D01*
X5478Y4307D02*
X5598D01*
X5538Y4247D02*
Y4367D01*
X12711Y10850D02*
X12831D01*
X12771Y10790D02*
Y10910D01*
X7820Y7820D02*
X7900D01*
X7860Y7780D02*
Y7860D01*
X7434Y7817D02*
X7514D01*
X7474Y7777D02*
Y7857D01*
X12441Y9140D02*
X12561D01*
X12501Y9080D02*
Y9200D01*
X12091Y21270D02*
X12211D01*
X12151Y21210D02*
Y21330D01*
X11831Y20290D02*
X11951D01*
X11891Y20230D02*
Y20350D01*
X11801Y26480D02*
X11921D01*
X11861Y26420D02*
Y26540D01*
X11511Y27300D02*
X11631D01*
X11571Y27240D02*
Y27360D01*
X11201Y24050D02*
X11321D01*
X11261Y23990D02*
Y24110D01*
X12691Y24530D02*
X12811D01*
X12751Y24470D02*
Y24590D01*
X12361Y25810D02*
X12461D01*
X12411Y25760D02*
Y25860D01*
X12011Y25790D02*
X12111D01*
X12061Y25740D02*
Y25840D01*
X12201Y22880D02*
X12321D01*
X12261Y22820D02*
Y22940D01*
X11831Y21470D02*
X11951D01*
X11891Y21410D02*
Y21530D01*
X12471Y24140D02*
X12591D01*
X12531Y24080D02*
Y24200D01*
X12031Y24450D02*
X12151D01*
X12091Y24390D02*
Y24510D01*
X12061Y24130D02*
X12181D01*
X12121Y24070D02*
Y24190D01*
X9001Y23790D02*
X9081D01*
X9041Y23750D02*
Y23830D01*
X9261Y23790D02*
X9341D01*
X9301Y23750D02*
Y23830D01*
X12501Y27030D02*
X12621D01*
X12561Y26970D02*
Y27090D01*
X8459Y23818D02*
X8539D01*
X8499Y23778D02*
Y23858D01*
X7679Y20512D02*
X7799D01*
X7739Y20452D02*
Y20572D01*
X7611Y20870D02*
X7731D01*
X7671Y20810D02*
Y20930D01*
X13539Y21090D02*
X13659D01*
X13599Y21030D02*
Y21150D01*
X12981Y20768D02*
X13101D01*
X13041Y20708D02*
Y20828D01*
X13461Y20510D02*
X13581D01*
X13521Y20450D02*
Y20570D01*
X10198Y17210D02*
X10318D01*
X10258Y17150D02*
Y17270D01*
X8278Y16580D02*
X8398D01*
X8338Y16520D02*
Y16640D01*
X12038Y17370D02*
X12158D01*
X12098Y17310D02*
Y17430D01*
X7428Y11720D02*
X7508D01*
X7468Y11680D02*
Y11760D01*
X9781Y19190D02*
X9901D01*
X9841Y19130D02*
Y19250D01*
X9201Y19340D02*
X9321D01*
X9261Y19280D02*
Y19400D01*
X9201Y18839D02*
X9321D01*
X9261Y18779D02*
Y18899D01*
X3837Y13650D02*
X3917D01*
X3877Y13610D02*
Y13690D01*
X6320Y11620D02*
X6440D01*
X6380Y11560D02*
Y11680D01*
X5951Y14248D02*
X6031D01*
X5991Y14208D02*
Y14288D01*
X11325Y5060D02*
X11475D01*
X11400Y4985D02*
Y5135D01*
X12355Y6338D02*
X12505D01*
X12430Y6263D02*
Y6413D01*
X1470Y10709D02*
X1590D01*
X1530Y10649D02*
Y10769D01*
X1771Y10669D02*
X1891D01*
X1831Y10609D02*
Y10729D01*
X2105Y10660D02*
X2225D01*
X2165Y10600D02*
Y10720D01*
X2479Y10659D02*
X2599D01*
X2539Y10599D02*
Y10719D01*
X925Y14600D02*
X1005D01*
X965Y14560D02*
Y14640D01*
X915Y11952D02*
X995D01*
X955Y11912D02*
Y11992D01*
X5950Y13270D02*
X6030D01*
X5990Y13230D02*
Y13310D01*
X7997Y15020D02*
X8077D01*
X8037Y14980D02*
Y15060D01*
X6807Y14450D02*
X6887D01*
X6847Y14410D02*
Y14490D01*
X10780Y15140D02*
X10860D01*
X10820Y15100D02*
Y15180D01*
X10140Y14470D02*
X10240D01*
X10190Y14420D02*
Y14520D01*
M02*
