G04 Layer_Color=16711935*
%FSLAX24Y24*%
%MOIN*%
G70*
G01*
G75*
%ADD137C,0.1220*%
G04:AMPARAMS|DCode=140|XSize=118.7mil|YSize=118.7mil|CornerRadius=59.4mil|HoleSize=0mil|Usage=FLASHONLY|Rotation=90.000|XOffset=0mil|YOffset=0mil|HoleType=Round|Shape=RoundedRectangle|*
%AMROUNDEDRECTD140*
21,1,0.1187,0.0000,0,0,90.0*
21,1,0.0000,0.1187,0,0,90.0*
1,1,0.1187,0.0000,0.0000*
1,1,0.1187,0.0000,0.0000*
1,1,0.1187,0.0000,0.0000*
1,1,0.1187,0.0000,0.0000*
%
%ADD140ROUNDEDRECTD140*%
G04:AMPARAMS|DCode=147|XSize=28mil|YSize=30mil|CornerRadius=7.4mil|HoleSize=0mil|Usage=FLASHONLY|Rotation=270.000|XOffset=0mil|YOffset=0mil|HoleType=Round|Shape=RoundedRectangle|*
%AMROUNDEDRECTD147*
21,1,0.0280,0.0152,0,0,270.0*
21,1,0.0132,0.0300,0,0,270.0*
1,1,0.0148,-0.0076,-0.0066*
1,1,0.0148,-0.0076,0.0066*
1,1,0.0148,0.0076,0.0066*
1,1,0.0148,0.0076,-0.0066*
%
%ADD147ROUNDEDRECTD147*%
G04:AMPARAMS|DCode=148|XSize=35.1mil|YSize=45.4mil|CornerRadius=8.8mil|HoleSize=0mil|Usage=FLASHONLY|Rotation=180.000|XOffset=0mil|YOffset=0mil|HoleType=Round|Shape=RoundedRectangle|*
%AMROUNDEDRECTD148*
21,1,0.0351,0.0277,0,0,180.0*
21,1,0.0175,0.0454,0,0,180.0*
1,1,0.0177,-0.0087,0.0139*
1,1,0.0177,0.0087,0.0139*
1,1,0.0177,0.0087,-0.0139*
1,1,0.0177,-0.0087,-0.0139*
%
%ADD148ROUNDEDRECTD148*%
G04:AMPARAMS|DCode=149|XSize=35.1mil|YSize=45.4mil|CornerRadius=8.8mil|HoleSize=0mil|Usage=FLASHONLY|Rotation=90.000|XOffset=0mil|YOffset=0mil|HoleType=Round|Shape=RoundedRectangle|*
%AMROUNDEDRECTD149*
21,1,0.0351,0.0277,0,0,90.0*
21,1,0.0175,0.0454,0,0,90.0*
1,1,0.0177,0.0139,0.0087*
1,1,0.0177,0.0139,-0.0087*
1,1,0.0177,-0.0139,-0.0087*
1,1,0.0177,-0.0139,0.0087*
%
%ADD149ROUNDEDRECTD149*%
G04:AMPARAMS|DCode=150|XSize=28mil|YSize=30mil|CornerRadius=7.4mil|HoleSize=0mil|Usage=FLASHONLY|Rotation=0.000|XOffset=0mil|YOffset=0mil|HoleType=Round|Shape=RoundedRectangle|*
%AMROUNDEDRECTD150*
21,1,0.0280,0.0152,0,0,0.0*
21,1,0.0132,0.0300,0,0,0.0*
1,1,0.0148,0.0066,-0.0076*
1,1,0.0148,-0.0066,-0.0076*
1,1,0.0148,-0.0066,0.0076*
1,1,0.0148,0.0066,0.0076*
%
%ADD150ROUNDEDRECTD150*%
G04:AMPARAMS|DCode=151|XSize=80mil|YSize=80mil|CornerRadius=40mil|HoleSize=0mil|Usage=FLASHONLY|Rotation=90.000|XOffset=0mil|YOffset=0mil|HoleType=Round|Shape=RoundedRectangle|*
%AMROUNDEDRECTD151*
21,1,0.0800,0.0000,0,0,90.0*
21,1,0.0000,0.0800,0,0,90.0*
1,1,0.0800,0.0000,0.0000*
1,1,0.0800,0.0000,0.0000*
1,1,0.0800,0.0000,0.0000*
1,1,0.0800,0.0000,0.0000*
%
%ADD151ROUNDEDRECTD151*%
G04:AMPARAMS|DCode=158|XSize=58mil|YSize=66mil|CornerRadius=16mil|HoleSize=0mil|Usage=FLASHONLY|Rotation=90.000|XOffset=0mil|YOffset=0mil|HoleType=Round|Shape=RoundedRectangle|*
%AMROUNDEDRECTD158*
21,1,0.0580,0.0340,0,0,90.0*
21,1,0.0260,0.0660,0,0,90.0*
1,1,0.0320,0.0170,0.0130*
1,1,0.0320,0.0170,-0.0130*
1,1,0.0320,-0.0170,-0.0130*
1,1,0.0320,-0.0170,0.0130*
%
%ADD158ROUNDEDRECTD158*%
G04:AMPARAMS|DCode=173|XSize=55.2mil|YSize=42.6mil|CornerRadius=17.6mil|HoleSize=0mil|Usage=FLASHONLY|Rotation=270.000|XOffset=0mil|YOffset=0mil|HoleType=Round|Shape=RoundedRectangle|*
%AMROUNDEDRECTD173*
21,1,0.0552,0.0073,0,0,270.0*
21,1,0.0199,0.0426,0,0,270.0*
1,1,0.0353,-0.0037,-0.0100*
1,1,0.0353,-0.0037,0.0100*
1,1,0.0353,0.0037,0.0100*
1,1,0.0353,0.0037,-0.0100*
%
%ADD173ROUNDEDRECTD173*%
G04:AMPARAMS|DCode=174|XSize=67mil|YSize=41mil|CornerRadius=17mil|HoleSize=0mil|Usage=FLASHONLY|Rotation=0.000|XOffset=0mil|YOffset=0mil|HoleType=Round|Shape=RoundedRectangle|*
%AMROUNDEDRECTD174*
21,1,0.0670,0.0070,0,0,0.0*
21,1,0.0330,0.0410,0,0,0.0*
1,1,0.0340,0.0165,-0.0035*
1,1,0.0340,-0.0165,-0.0035*
1,1,0.0340,-0.0165,0.0035*
1,1,0.0340,0.0165,0.0035*
%
%ADD174ROUNDEDRECTD174*%
%ADD175C,0.0760*%
%ADD176C,0.0651*%
%ADD177P,0.0920X4X180.0*%
%ADD178P,0.0736X8X202.5*%
%ADD179R,0.0060X0.0060*%
%ADD180R,0.0611X0.0178*%
%ADD181R,0.0296X0.0395*%
%ADD182R,0.0395X0.0296*%
%ADD183R,0.0217X0.0178*%
%ADD184R,0.0493X0.0257*%
%ADD185R,0.0611X0.0473*%
%ADD186R,0.0316X0.0198*%
G36*
X53951Y30801D02*
X53956Y30800D01*
X53960Y30798D01*
X53964Y30796D01*
X53968Y30793D01*
X53971Y30789D01*
X53973Y30785D01*
X53975Y30781D01*
X53976Y30776D01*
X53976Y30772D01*
Y30526D01*
X54222D01*
X54227Y30526D01*
X54231Y30525D01*
X54235Y30523D01*
X54240Y30520D01*
X54243Y30517D01*
X54246Y30514D01*
X54249Y30510D01*
X54250Y30505D01*
X54252Y30501D01*
X54252Y30496D01*
Y29728D01*
X54252Y29724D01*
X54250Y29719D01*
X54249Y29715D01*
X54246Y29711D01*
X54243Y29707D01*
X54240Y29704D01*
X54235Y29702D01*
X54231Y29700D01*
X54227Y29699D01*
X54222Y29698D01*
X53316D01*
X53312Y29699D01*
X53307Y29700D01*
X53303Y29702D01*
X53299Y29704D01*
X53295Y29707D01*
X53292Y29711D01*
X53289Y29715D01*
X53288Y29719D01*
X53287Y29724D01*
X53286Y29728D01*
Y30496D01*
X53287Y30501D01*
X53288Y30505D01*
X53289Y30510D01*
X53292Y30514D01*
X53295Y30517D01*
X53299Y30520D01*
X53303Y30523D01*
X53307Y30525D01*
X53312Y30526D01*
X53316Y30526D01*
X53562D01*
Y30772D01*
X53562Y30776D01*
X53563Y30781D01*
X53565Y30785D01*
X53568Y30789D01*
X53571Y30793D01*
X53574Y30796D01*
X53578Y30798D01*
X53583Y30800D01*
X53587Y30801D01*
X53592Y30802D01*
X53946D01*
X53951Y30801D01*
D02*
G37*
G36*
X33840D02*
X33844Y30800D01*
X33849Y30798D01*
X33853Y30796D01*
X33856Y30793D01*
X33859Y30789D01*
X33862Y30785D01*
X33864Y30781D01*
X33865Y30776D01*
X33865Y30772D01*
Y30526D01*
X34110D01*
X34115Y30526D01*
X34120Y30525D01*
X34124Y30523D01*
X34128Y30520D01*
X34132Y30517D01*
X34135Y30514D01*
X34137Y30510D01*
X34139Y30505D01*
X34140Y30501D01*
X34141Y30496D01*
Y29728D01*
X34140Y29724D01*
X34139Y29719D01*
X34137Y29715D01*
X34135Y29711D01*
X34132Y29707D01*
X34128Y29704D01*
X34124Y29702D01*
X34120Y29700D01*
X34115Y29699D01*
X34110Y29698D01*
X33205D01*
X33200Y29699D01*
X33196Y29700D01*
X33191Y29702D01*
X33187Y29704D01*
X33184Y29707D01*
X33181Y29711D01*
X33178Y29715D01*
X33176Y29719D01*
X33175Y29724D01*
X33175Y29728D01*
Y30496D01*
X33175Y30501D01*
X33176Y30505D01*
X33178Y30510D01*
X33181Y30514D01*
X33184Y30517D01*
X33187Y30520D01*
X33191Y30523D01*
X33196Y30525D01*
X33200Y30526D01*
X33205Y30526D01*
X33450D01*
Y30772D01*
X33451Y30776D01*
X33452Y30781D01*
X33454Y30785D01*
X33456Y30789D01*
X33459Y30793D01*
X33463Y30796D01*
X33467Y30798D01*
X33471Y30800D01*
X33476Y30801D01*
X33481Y30802D01*
X33835D01*
X33840Y30801D01*
D02*
G37*
G36*
X13728D02*
X13733Y30800D01*
X13737Y30798D01*
X13741Y30796D01*
X13745Y30793D01*
X13748Y30789D01*
X13750Y30785D01*
X13752Y30781D01*
X13753Y30776D01*
X13754Y30772D01*
Y30526D01*
X13999D01*
X14004Y30526D01*
X14008Y30525D01*
X14013Y30523D01*
X14017Y30520D01*
X14020Y30517D01*
X14023Y30514D01*
X14026Y30510D01*
X14028Y30505D01*
X14029Y30501D01*
X14029Y30496D01*
Y29728D01*
X14029Y29724D01*
X14028Y29719D01*
X14026Y29715D01*
X14023Y29711D01*
X14020Y29707D01*
X14017Y29704D01*
X14013Y29702D01*
X14008Y29700D01*
X14004Y29699D01*
X13999Y29698D01*
X13094D01*
X13089Y29699D01*
X13084Y29700D01*
X13080Y29702D01*
X13076Y29704D01*
X13072Y29707D01*
X13069Y29711D01*
X13067Y29715D01*
X13065Y29719D01*
X13064Y29724D01*
X13064Y29728D01*
Y30496D01*
X13064Y30501D01*
X13065Y30505D01*
X13067Y30510D01*
X13069Y30514D01*
X13072Y30517D01*
X13076Y30520D01*
X13080Y30523D01*
X13084Y30525D01*
X13089Y30526D01*
X13094Y30526D01*
X13339D01*
Y30772D01*
X13339Y30776D01*
X13341Y30781D01*
X13342Y30785D01*
X13345Y30789D01*
X13348Y30793D01*
X13352Y30796D01*
X13356Y30798D01*
X13360Y30800D01*
X13364Y30801D01*
X13369Y30802D01*
X13724D01*
X13728Y30801D01*
D02*
G37*
G36*
X54227Y28026D02*
X54231Y28025D01*
X54235Y28023D01*
X54240Y28020D01*
X54243Y28017D01*
X54246Y28014D01*
X54249Y28010D01*
X54250Y28005D01*
X54252Y28001D01*
X54252Y27996D01*
Y27228D01*
X54252Y27224D01*
X54250Y27219D01*
X54249Y27215D01*
X54246Y27211D01*
X54243Y27207D01*
X54240Y27204D01*
X54235Y27202D01*
X54231Y27200D01*
X54227Y27199D01*
X54222Y27198D01*
X53976D01*
Y26953D01*
X53976Y26948D01*
X53975Y26943D01*
X53973Y26939D01*
X53971Y26935D01*
X53968Y26931D01*
X53964Y26928D01*
X53960Y26926D01*
X53956Y26924D01*
X53951Y26923D01*
X53946Y26923D01*
X53592D01*
X53587Y26923D01*
X53583Y26924D01*
X53578Y26926D01*
X53574Y26928D01*
X53571Y26931D01*
X53568Y26935D01*
X53565Y26939D01*
X53563Y26943D01*
X53562Y26948D01*
X53562Y26953D01*
Y27198D01*
X53316D01*
X53312Y27199D01*
X53307Y27200D01*
X53303Y27202D01*
X53299Y27204D01*
X53295Y27207D01*
X53292Y27211D01*
X53289Y27215D01*
X53288Y27219D01*
X53287Y27224D01*
X53286Y27228D01*
Y27996D01*
X53287Y28001D01*
X53288Y28005D01*
X53289Y28010D01*
X53292Y28014D01*
X53295Y28017D01*
X53299Y28020D01*
X53303Y28023D01*
X53307Y28025D01*
X53312Y28026D01*
X53316Y28026D01*
X54222D01*
X54227Y28026D01*
D02*
G37*
G36*
X34115D02*
X34120Y28025D01*
X34124Y28023D01*
X34128Y28020D01*
X34132Y28017D01*
X34135Y28014D01*
X34137Y28010D01*
X34139Y28005D01*
X34140Y28001D01*
X34141Y27996D01*
Y27228D01*
X34140Y27224D01*
X34139Y27219D01*
X34137Y27215D01*
X34135Y27211D01*
X34132Y27207D01*
X34128Y27204D01*
X34124Y27202D01*
X34120Y27200D01*
X34115Y27199D01*
X34110Y27198D01*
X33865D01*
Y26953D01*
X33865Y26948D01*
X33864Y26943D01*
X33862Y26939D01*
X33859Y26935D01*
X33856Y26931D01*
X33853Y26928D01*
X33849Y26926D01*
X33844Y26924D01*
X33840Y26923D01*
X33835Y26923D01*
X33481D01*
X33476Y26923D01*
X33471Y26924D01*
X33467Y26926D01*
X33463Y26928D01*
X33459Y26931D01*
X33456Y26935D01*
X33454Y26939D01*
X33452Y26943D01*
X33451Y26948D01*
X33450Y26953D01*
Y27198D01*
X33205D01*
X33200Y27199D01*
X33196Y27200D01*
X33191Y27202D01*
X33187Y27204D01*
X33184Y27207D01*
X33181Y27211D01*
X33178Y27215D01*
X33176Y27219D01*
X33175Y27224D01*
X33175Y27228D01*
Y27996D01*
X33175Y28001D01*
X33176Y28005D01*
X33178Y28010D01*
X33181Y28014D01*
X33184Y28017D01*
X33187Y28020D01*
X33191Y28023D01*
X33196Y28025D01*
X33200Y28026D01*
X33205Y28026D01*
X34110D01*
X34115Y28026D01*
D02*
G37*
G36*
X14004D02*
X14008Y28025D01*
X14013Y28023D01*
X14017Y28020D01*
X14020Y28017D01*
X14023Y28014D01*
X14026Y28010D01*
X14028Y28005D01*
X14029Y28001D01*
X14029Y27996D01*
Y27228D01*
X14029Y27224D01*
X14028Y27219D01*
X14026Y27215D01*
X14023Y27211D01*
X14020Y27207D01*
X14017Y27204D01*
X14013Y27202D01*
X14008Y27200D01*
X14004Y27199D01*
X13999Y27198D01*
X13754D01*
Y26953D01*
X13753Y26948D01*
X13752Y26943D01*
X13750Y26939D01*
X13748Y26935D01*
X13745Y26931D01*
X13741Y26928D01*
X13737Y26926D01*
X13733Y26924D01*
X13728Y26923D01*
X13724Y26923D01*
X13369D01*
X13364Y26923D01*
X13360Y26924D01*
X13356Y26926D01*
X13352Y26928D01*
X13348Y26931D01*
X13345Y26935D01*
X13342Y26939D01*
X13341Y26943D01*
X13339Y26948D01*
X13339Y26953D01*
Y27198D01*
X13094D01*
X13089Y27199D01*
X13084Y27200D01*
X13080Y27202D01*
X13076Y27204D01*
X13072Y27207D01*
X13069Y27211D01*
X13067Y27215D01*
X13065Y27219D01*
X13064Y27224D01*
X13064Y27228D01*
Y27996D01*
X13064Y28001D01*
X13065Y28005D01*
X13067Y28010D01*
X13069Y28014D01*
X13072Y28017D01*
X13076Y28020D01*
X13080Y28023D01*
X13084Y28025D01*
X13089Y28026D01*
X13094Y28026D01*
X13999D01*
X14004Y28026D01*
D02*
G37*
D137*
X2550Y4199D02*
G03*
X2550Y4199I-610J0D01*
G01*
X2770Y29509D02*
G03*
X2770Y29509I-610J0D01*
G01*
X18481Y22159D02*
G03*
X18481Y22159I-610J0D01*
G01*
Y4269D02*
G03*
X18481Y4269I-610J0D01*
G01*
X22662Y4199D02*
G03*
X22662Y4199I-610J0D01*
G01*
X22882Y29509D02*
G03*
X22882Y29509I-610J0D01*
G01*
X38593Y22159D02*
G03*
X38593Y22159I-610J0D01*
G01*
Y4269D02*
G03*
X38593Y4269I-610J0D01*
G01*
X42773Y4199D02*
G03*
X42773Y4199I-610J0D01*
G01*
X42993Y29509D02*
G03*
X42993Y29509I-610J0D01*
G01*
X58704Y22159D02*
G03*
X58704Y22159I-610J0D01*
G01*
Y4269D02*
G03*
X58704Y4269I-610J0D01*
G01*
D140*
X3789Y32519D02*
D03*
X56151D02*
D03*
Y1319D02*
D03*
X3789Y1289D02*
D03*
D147*
X10310Y3796D02*
D03*
Y3419D02*
D03*
X9237Y15046D02*
D03*
Y14669D02*
D03*
X4191Y26706D02*
D03*
Y27085D02*
D03*
X8777Y15639D02*
D03*
Y16018D02*
D03*
X8737Y17772D02*
D03*
Y18149D02*
D03*
X8347Y18146D02*
D03*
Y17769D02*
D03*
X6587Y17366D02*
D03*
Y16989D02*
D03*
X7747Y15576D02*
D03*
Y15199D02*
D03*
X6187Y16992D02*
D03*
Y17369D02*
D03*
X8827Y14672D02*
D03*
Y15049D02*
D03*
X8287Y14672D02*
D03*
Y15049D02*
D03*
X6477Y15626D02*
D03*
Y15249D02*
D03*
X7557Y17772D02*
D03*
Y18149D02*
D03*
X7957Y18146D02*
D03*
Y17769D02*
D03*
X6987Y17752D02*
D03*
Y18129D02*
D03*
X6977Y15492D02*
D03*
Y15869D02*
D03*
X6721Y29372D02*
D03*
Y29749D02*
D03*
X10751Y29364D02*
D03*
Y28987D02*
D03*
X9081Y29364D02*
D03*
Y28987D02*
D03*
X8601Y29364D02*
D03*
Y28987D02*
D03*
X8160Y29393D02*
D03*
Y29770D02*
D03*
X15880Y3405D02*
D03*
Y3784D02*
D03*
X9434Y3420D02*
D03*
Y3799D02*
D03*
X12191Y29398D02*
D03*
Y29019D02*
D03*
X15083Y3405D02*
D03*
Y3784D02*
D03*
X8636Y3420D02*
D03*
Y3799D02*
D03*
X7738Y14379D02*
D03*
Y14756D02*
D03*
X5641Y26706D02*
D03*
Y27085D02*
D03*
X30421Y3796D02*
D03*
Y3419D02*
D03*
X29348Y15046D02*
D03*
Y14669D02*
D03*
X24302Y26706D02*
D03*
Y27085D02*
D03*
X28888Y15639D02*
D03*
Y16018D02*
D03*
X28848Y17772D02*
D03*
Y18149D02*
D03*
X28458Y18146D02*
D03*
Y17769D02*
D03*
X26698Y17366D02*
D03*
Y16989D02*
D03*
X27858Y15576D02*
D03*
Y15199D02*
D03*
X26298Y16992D02*
D03*
Y17369D02*
D03*
X28938Y14672D02*
D03*
Y15049D02*
D03*
X28398Y14672D02*
D03*
Y15049D02*
D03*
X26588Y15626D02*
D03*
Y15249D02*
D03*
X27668Y17772D02*
D03*
Y18149D02*
D03*
X28068Y18146D02*
D03*
Y17769D02*
D03*
X27098Y17752D02*
D03*
Y18129D02*
D03*
X27088Y15492D02*
D03*
Y15869D02*
D03*
X26832Y29372D02*
D03*
Y29749D02*
D03*
X30862Y29364D02*
D03*
Y28987D02*
D03*
X29192Y29364D02*
D03*
Y28987D02*
D03*
X28712Y29364D02*
D03*
Y28987D02*
D03*
X28271Y29393D02*
D03*
Y29770D02*
D03*
X35992Y3405D02*
D03*
Y3784D02*
D03*
X29545Y3420D02*
D03*
Y3799D02*
D03*
X32302Y29398D02*
D03*
Y29019D02*
D03*
X35194Y3405D02*
D03*
Y3784D02*
D03*
X28748Y3420D02*
D03*
Y3799D02*
D03*
X27849Y14379D02*
D03*
Y14756D02*
D03*
X25752Y26706D02*
D03*
Y27085D02*
D03*
X50533Y3796D02*
D03*
Y3419D02*
D03*
X49459Y15046D02*
D03*
Y14669D02*
D03*
X44414Y26706D02*
D03*
Y27085D02*
D03*
X48999Y15639D02*
D03*
Y16018D02*
D03*
X48959Y17772D02*
D03*
Y18149D02*
D03*
X48569Y18146D02*
D03*
Y17769D02*
D03*
X46809Y17366D02*
D03*
Y16989D02*
D03*
X47969Y15576D02*
D03*
Y15199D02*
D03*
X46409Y16992D02*
D03*
Y17369D02*
D03*
X49049Y14672D02*
D03*
Y15049D02*
D03*
X48509Y14672D02*
D03*
Y15049D02*
D03*
X46699Y15626D02*
D03*
Y15249D02*
D03*
X47779Y17772D02*
D03*
Y18149D02*
D03*
X48179Y18146D02*
D03*
Y17769D02*
D03*
X47209Y17752D02*
D03*
Y18129D02*
D03*
X47199Y15492D02*
D03*
Y15869D02*
D03*
X46944Y29372D02*
D03*
Y29749D02*
D03*
X50974Y29364D02*
D03*
Y28987D02*
D03*
X49304Y29364D02*
D03*
Y28987D02*
D03*
X48824Y29364D02*
D03*
Y28987D02*
D03*
X48383Y29393D02*
D03*
Y29770D02*
D03*
X56103Y3405D02*
D03*
Y3784D02*
D03*
X49656Y3420D02*
D03*
Y3799D02*
D03*
X52414Y29398D02*
D03*
Y29019D02*
D03*
X55306Y3405D02*
D03*
Y3784D02*
D03*
X48859Y3420D02*
D03*
Y3799D02*
D03*
X47960Y14379D02*
D03*
Y14756D02*
D03*
X45864Y26706D02*
D03*
Y27085D02*
D03*
D148*
X10256Y19409D02*
D03*
X9720D02*
D03*
X9604Y17577D02*
D03*
X10140D02*
D03*
X9413Y7169D02*
D03*
X9949D02*
D03*
X8669Y19119D02*
D03*
X9204D02*
D03*
X10250Y18649D02*
D03*
X9714D02*
D03*
X9760Y17005D02*
D03*
X9224D02*
D03*
X5935Y14138D02*
D03*
X5399D02*
D03*
X12502Y8269D02*
D03*
X13038D02*
D03*
X7173Y29369D02*
D03*
X7709D02*
D03*
X4935Y30276D02*
D03*
X5470D02*
D03*
X4613Y28223D02*
D03*
X5149D02*
D03*
X30367Y19409D02*
D03*
X29831D02*
D03*
X29716Y17577D02*
D03*
X30251D02*
D03*
X29525Y7169D02*
D03*
X30060D02*
D03*
X28780Y19119D02*
D03*
X29316D02*
D03*
X30361Y18649D02*
D03*
X29826D02*
D03*
X29871Y17005D02*
D03*
X29336D02*
D03*
X26046Y14138D02*
D03*
X25510D02*
D03*
X32614Y8269D02*
D03*
X33149D02*
D03*
X27285Y29369D02*
D03*
X27820D02*
D03*
X25046Y30276D02*
D03*
X25581D02*
D03*
X24725Y28223D02*
D03*
X25260D02*
D03*
X50478Y19409D02*
D03*
X49943D02*
D03*
X49827Y17577D02*
D03*
X50363D02*
D03*
X49636Y7169D02*
D03*
X50172D02*
D03*
X48892Y19119D02*
D03*
X49427D02*
D03*
X50473Y18649D02*
D03*
X49937D02*
D03*
X49983Y17005D02*
D03*
X49447D02*
D03*
X46157Y14138D02*
D03*
X45622D02*
D03*
X52725Y8269D02*
D03*
X53260D02*
D03*
X47396Y29369D02*
D03*
X47932D02*
D03*
X45157Y30276D02*
D03*
X45693D02*
D03*
X44836Y28223D02*
D03*
X45372D02*
D03*
D149*
X6040Y12879D02*
D03*
Y13415D02*
D03*
X11478Y18763D02*
D03*
Y18228D02*
D03*
X5480Y13415D02*
D03*
Y12879D02*
D03*
X13060Y7757D02*
D03*
Y7222D02*
D03*
X6772Y13978D02*
D03*
Y13443D02*
D03*
X10906Y18228D02*
D03*
Y18763D02*
D03*
X12497Y7758D02*
D03*
Y7222D02*
D03*
X10513Y7173D02*
D03*
Y7708D02*
D03*
X1883Y11222D02*
D03*
Y11757D02*
D03*
X1333Y11222D02*
D03*
Y11757D02*
D03*
X26151Y12879D02*
D03*
Y13415D02*
D03*
X31589Y18763D02*
D03*
Y18228D02*
D03*
X25591Y13415D02*
D03*
Y12879D02*
D03*
X33171Y7757D02*
D03*
Y7222D02*
D03*
X26883Y13978D02*
D03*
Y13443D02*
D03*
X31017Y18228D02*
D03*
Y18763D02*
D03*
X32608Y7758D02*
D03*
Y7222D02*
D03*
X30625Y7173D02*
D03*
Y7708D02*
D03*
X21994Y11222D02*
D03*
Y11757D02*
D03*
X21444Y11222D02*
D03*
Y11757D02*
D03*
X46262Y12879D02*
D03*
Y13415D02*
D03*
X51700Y18763D02*
D03*
Y18228D02*
D03*
X45703Y13415D02*
D03*
Y12879D02*
D03*
X53283Y7757D02*
D03*
Y7222D02*
D03*
X46994Y13978D02*
D03*
Y13443D02*
D03*
X51128Y18228D02*
D03*
Y18763D02*
D03*
X52720Y7758D02*
D03*
Y7222D02*
D03*
X50736Y7173D02*
D03*
Y7708D02*
D03*
X42105Y11222D02*
D03*
Y11757D02*
D03*
X41555Y11222D02*
D03*
Y11757D02*
D03*
D150*
X15867Y4169D02*
D03*
X15490D02*
D03*
X7060Y10599D02*
D03*
X6683D02*
D03*
X5527Y11299D02*
D03*
X5150D02*
D03*
X5900Y16439D02*
D03*
X6277D02*
D03*
X6274Y16029D02*
D03*
X5897D02*
D03*
X8304Y17209D02*
D03*
X7927D02*
D03*
X7930Y16829D02*
D03*
X8307D02*
D03*
X8344Y15969D02*
D03*
X7967D02*
D03*
X7965Y16377D02*
D03*
X8342D02*
D03*
X6390Y14739D02*
D03*
X6767D02*
D03*
X7364Y17289D02*
D03*
X6987D02*
D03*
X8214Y27977D02*
D03*
X8591D02*
D03*
X8984Y26689D02*
D03*
X9361D02*
D03*
X11078Y27287D02*
D03*
X10701D02*
D03*
X7331Y29839D02*
D03*
X7708D02*
D03*
X8631Y28599D02*
D03*
X8254D02*
D03*
X35978Y4169D02*
D03*
X35601D02*
D03*
X27171Y10599D02*
D03*
X26794D02*
D03*
X25638Y11299D02*
D03*
X25261D02*
D03*
X26011Y16439D02*
D03*
X26388D02*
D03*
X26385Y16029D02*
D03*
X26008D02*
D03*
X28415Y17209D02*
D03*
X28038D02*
D03*
X28041Y16829D02*
D03*
X28418D02*
D03*
X28455Y15969D02*
D03*
X28078D02*
D03*
X28077Y16377D02*
D03*
X28454D02*
D03*
X26501Y14739D02*
D03*
X26878D02*
D03*
X27475Y17289D02*
D03*
X27098D02*
D03*
X28325Y27977D02*
D03*
X28702D02*
D03*
X29095Y26689D02*
D03*
X29472D02*
D03*
X31189Y27287D02*
D03*
X30812D02*
D03*
X27442Y29839D02*
D03*
X27819D02*
D03*
X28742Y28599D02*
D03*
X28365D02*
D03*
X56090Y4169D02*
D03*
X55713D02*
D03*
X47283Y10599D02*
D03*
X46906D02*
D03*
X45750Y11299D02*
D03*
X45373D02*
D03*
X46122Y16439D02*
D03*
X46499D02*
D03*
X46496Y16029D02*
D03*
X46119D02*
D03*
X48526Y17209D02*
D03*
X48149D02*
D03*
X48152Y16829D02*
D03*
X48529D02*
D03*
X48566Y15969D02*
D03*
X48189D02*
D03*
X48188Y16377D02*
D03*
X48565D02*
D03*
X46612Y14739D02*
D03*
X46989D02*
D03*
X47586Y17289D02*
D03*
X47209D02*
D03*
X48437Y27977D02*
D03*
X48814D02*
D03*
X49207Y26689D02*
D03*
X49584D02*
D03*
X51301Y27287D02*
D03*
X50924D02*
D03*
X47554Y29839D02*
D03*
X47931D02*
D03*
X48854Y28599D02*
D03*
X48477D02*
D03*
D151*
X710Y5419D02*
D03*
X18791Y5909D02*
D03*
X18171Y30599D02*
D03*
X20821Y5419D02*
D03*
X38902Y5909D02*
D03*
X38282Y30599D02*
D03*
X40933Y5419D02*
D03*
X59014Y5909D02*
D03*
X58394Y30599D02*
D03*
D158*
X6201Y27759D02*
D03*
Y28513D02*
D03*
X26312Y27759D02*
D03*
Y28513D02*
D03*
X46424Y27759D02*
D03*
Y28513D02*
D03*
D173*
X1673Y23933D02*
D03*
Y25901D02*
D03*
X21784Y23933D02*
D03*
Y25901D02*
D03*
X41896Y23933D02*
D03*
Y25901D02*
D03*
D174*
X610Y26295D02*
D03*
Y23539D02*
D03*
X20721Y26295D02*
D03*
Y23539D02*
D03*
X40833Y26295D02*
D03*
Y23539D02*
D03*
D175*
X1000Y6649D02*
D03*
Y12830D02*
D03*
X2949Y6885D02*
D03*
Y12594D02*
D03*
X21111Y6649D02*
D03*
Y12830D02*
D03*
X23060Y6885D02*
D03*
Y12594D02*
D03*
X41223Y6649D02*
D03*
Y12830D02*
D03*
X43172Y6885D02*
D03*
Y12594D02*
D03*
D176*
X13926Y5029D02*
D03*
X14633Y5736D02*
D03*
Y4322D02*
D03*
X34037Y5029D02*
D03*
X34744Y5736D02*
D03*
Y4322D02*
D03*
X54148Y5029D02*
D03*
X54856Y5736D02*
D03*
Y4322D02*
D03*
D177*
X15340Y5029D02*
D03*
X35451D02*
D03*
X55563D02*
D03*
D178*
X12521Y20979D02*
D03*
Y21979D02*
D03*
X13521Y20979D02*
D03*
Y21979D02*
D03*
X14521Y20979D02*
D03*
Y21979D02*
D03*
X32632Y20979D02*
D03*
Y21979D02*
D03*
X33632Y20979D02*
D03*
Y21979D02*
D03*
X34632Y20979D02*
D03*
Y21979D02*
D03*
X52744Y20979D02*
D03*
Y21979D02*
D03*
X53744Y20979D02*
D03*
Y21979D02*
D03*
X54744Y20979D02*
D03*
Y21979D02*
D03*
D179*
X13521Y2803D02*
D03*
Y3512D02*
D03*
X7061Y3522D02*
D03*
Y2813D02*
D03*
X33632Y2803D02*
D03*
Y3512D02*
D03*
X27172Y3522D02*
D03*
Y2813D02*
D03*
X53744Y2803D02*
D03*
Y3512D02*
D03*
X47284Y3522D02*
D03*
Y2813D02*
D03*
D180*
X13054Y28173D02*
D03*
Y28370D02*
D03*
Y28567D02*
D03*
Y28764D02*
D03*
Y28961D02*
D03*
Y29157D02*
D03*
Y29354D02*
D03*
Y29551D02*
D03*
X33166Y28173D02*
D03*
Y28370D02*
D03*
Y28567D02*
D03*
Y28764D02*
D03*
Y28961D02*
D03*
Y29157D02*
D03*
Y29354D02*
D03*
Y29551D02*
D03*
X53277Y28173D02*
D03*
Y28370D02*
D03*
Y28567D02*
D03*
Y28764D02*
D03*
Y28961D02*
D03*
Y29157D02*
D03*
Y29354D02*
D03*
Y29551D02*
D03*
D181*
X5465Y29764D02*
D03*
X4717D02*
D03*
Y28761D02*
D03*
X5091D02*
D03*
X5465D02*
D03*
X25576Y29764D02*
D03*
X24828D02*
D03*
Y28761D02*
D03*
X25202D02*
D03*
X25576D02*
D03*
X45688Y29764D02*
D03*
X44940D02*
D03*
Y28761D02*
D03*
X45314D02*
D03*
X45688D02*
D03*
D182*
X12032Y7225D02*
D03*
Y7973D02*
D03*
X11028D02*
D03*
Y7599D02*
D03*
Y7225D02*
D03*
X32143D02*
D03*
Y7973D02*
D03*
X31139D02*
D03*
Y7599D02*
D03*
Y7225D02*
D03*
X52255D02*
D03*
Y7973D02*
D03*
X51251D02*
D03*
Y7599D02*
D03*
Y7225D02*
D03*
D183*
X9030Y3442D02*
D03*
Y3797D02*
D03*
X15477Y3438D02*
D03*
Y3792D02*
D03*
X29141Y3442D02*
D03*
Y3797D02*
D03*
X35588Y3438D02*
D03*
Y3792D02*
D03*
X49253Y3442D02*
D03*
Y3797D02*
D03*
X55700Y3438D02*
D03*
Y3792D02*
D03*
D184*
X13521Y3827D02*
D03*
X7061Y3837D02*
D03*
X33632Y3827D02*
D03*
X27172Y3837D02*
D03*
X53744Y3827D02*
D03*
X47284Y3837D02*
D03*
D185*
X12537Y2872D02*
D03*
X14505D02*
D03*
X12537Y3443D02*
D03*
X14505D02*
D03*
X8045Y3453D02*
D03*
X6077D02*
D03*
X8045Y2882D02*
D03*
X6077D02*
D03*
X32648Y2872D02*
D03*
X34617D02*
D03*
X32648Y3443D02*
D03*
X34617D02*
D03*
X28157Y3453D02*
D03*
X26188D02*
D03*
X28157Y2882D02*
D03*
X26188D02*
D03*
X52760Y2872D02*
D03*
X54728D02*
D03*
X52760Y3443D02*
D03*
X54728D02*
D03*
X48268Y3453D02*
D03*
X46300D02*
D03*
X48268Y2882D02*
D03*
X46300D02*
D03*
D186*
X4606Y27106D02*
D03*
Y26909D02*
D03*
Y26713D02*
D03*
X5216D02*
D03*
Y26909D02*
D03*
Y27106D02*
D03*
X24717D02*
D03*
Y26909D02*
D03*
Y26713D02*
D03*
X25328D02*
D03*
Y26909D02*
D03*
Y27106D02*
D03*
X44829D02*
D03*
Y26909D02*
D03*
Y26713D02*
D03*
X45439D02*
D03*
Y26909D02*
D03*
Y27106D02*
D03*
M02*
