G04 Layer_Color=32896*
%FSLAX24Y24*%
%MOIN*%
G70*
G01*
G75*
%ADD10C,0.0070*%
%ADD12C,0.0100*%
%ADD50C,0.0080*%
%ADD53C,0.0060*%
%ADD102C,0.0098*%
%ADD105C,0.0039*%
%ADD106C,0.0079*%
D10*
X10387Y4313D02*
X10440Y4259D01*
Y4153D01*
X10387Y4099D01*
X10173D01*
X10120Y4153D01*
Y4259D01*
X10173Y4313D01*
X10120Y4419D02*
Y4526D01*
Y4473D01*
X10440D01*
X10387Y4419D01*
X10440Y4686D02*
Y4899D01*
X10387D01*
X10173Y4686D01*
X10120D01*
X16227Y6906D02*
X16280Y6959D01*
X16387D01*
X16440Y6906D01*
Y6693D01*
X16387Y6639D01*
X16280D01*
X16227Y6693D01*
X16120Y6639D02*
X16013D01*
X16067D01*
Y6959D01*
X16120Y6906D01*
X15854D02*
X15800Y6959D01*
X15694D01*
X15640Y6906D01*
Y6853D01*
X15694Y6799D01*
X15747D01*
X15694D01*
X15640Y6746D01*
Y6693D01*
X15694Y6639D01*
X15800D01*
X15854Y6693D01*
X9657Y13763D02*
X9710Y13709D01*
Y13603D01*
X9657Y13549D01*
X9443D01*
X9390Y13603D01*
Y13709D01*
X9443Y13763D01*
Y13869D02*
X9390Y13923D01*
Y14029D01*
X9443Y14083D01*
X9657D01*
X9710Y14029D01*
Y13923D01*
X9657Y13869D01*
X9603D01*
X9550Y13923D01*
Y14083D01*
X9710Y14402D02*
Y14189D01*
X9550D01*
X9603Y14296D01*
Y14349D01*
X9550Y14402D01*
X9443D01*
X9390Y14349D01*
Y14242D01*
X9443Y14189D01*
X14490Y26789D02*
X14277Y26469D01*
Y26789D02*
X14490Y26469D01*
X14170D02*
X14063D01*
X14117D01*
Y26789D01*
X14170Y26736D01*
X2067Y6079D02*
X2280D01*
Y5919D01*
X2173D01*
X2280D01*
Y5759D01*
X1960Y6079D02*
X1853D01*
X1907D01*
Y5759D01*
X1960D01*
X1853D01*
X1694Y6079D02*
Y5759D01*
X1534D01*
X1480Y5813D01*
Y6026D01*
X1534Y6079D01*
X1694D01*
X1160D02*
X1267Y6026D01*
X1374Y5919D01*
Y5813D01*
X1320Y5759D01*
X1214D01*
X1160Y5813D01*
Y5866D01*
X1214Y5919D01*
X1374D01*
X18007Y6299D02*
X18220D01*
Y6139D01*
X18113D01*
X18220D01*
Y5979D01*
X17900Y6299D02*
X17793D01*
X17847D01*
Y5979D01*
X17900D01*
X17793D01*
X17634Y6299D02*
Y5979D01*
X17474D01*
X17420Y6033D01*
Y6246D01*
X17474Y6299D01*
X17634D01*
X17100D02*
X17314D01*
Y6139D01*
X17207Y6193D01*
X17154D01*
X17100Y6139D01*
Y6033D01*
X17154Y5979D01*
X17260D01*
X17314Y6033D01*
X17387Y30759D02*
X17600D01*
Y30599D01*
X17493D01*
X17600D01*
Y30439D01*
X17280Y30759D02*
X17173D01*
X17227D01*
Y30439D01*
X17280D01*
X17173D01*
X17014Y30759D02*
Y30439D01*
X16854D01*
X16800Y30493D01*
Y30706D01*
X16854Y30759D01*
X17014D01*
X16534Y30439D02*
Y30759D01*
X16694Y30599D01*
X16480D01*
X7947Y10746D02*
X8000Y10799D01*
X8107D01*
X8160Y10746D01*
Y10533D01*
X8107Y10479D01*
X8000D01*
X7947Y10533D01*
X7627Y10799D02*
X7733Y10746D01*
X7840Y10639D01*
Y10533D01*
X7787Y10479D01*
X7680D01*
X7627Y10533D01*
Y10586D01*
X7680Y10639D01*
X7840D01*
X7307Y10799D02*
X7414Y10746D01*
X7520Y10639D01*
Y10533D01*
X7467Y10479D01*
X7360D01*
X7307Y10533D01*
Y10586D01*
X7360Y10639D01*
X7520D01*
X1717Y10066D02*
X2036D01*
Y10226D01*
X1983Y10280D01*
X1877D01*
X1823Y10226D01*
Y10066D01*
Y10173D02*
X1717Y10280D01*
Y10386D02*
Y10493D01*
Y10440D01*
X2036D01*
X1983Y10386D01*
X1717Y10653D02*
Y10760D01*
Y10706D01*
X2036D01*
X1983Y10653D01*
X1210Y10069D02*
X1530D01*
Y10229D01*
X1477Y10283D01*
X1370D01*
X1317Y10229D01*
Y10069D01*
Y10176D02*
X1210Y10283D01*
Y10389D02*
Y10496D01*
Y10443D01*
X1530D01*
X1477Y10389D01*
X1210Y10869D02*
Y10656D01*
X1423Y10869D01*
X1477D01*
X1530Y10816D01*
Y10709D01*
X1477Y10656D01*
X3600Y26629D02*
X3920D01*
Y26789D01*
X3867Y26843D01*
X3760D01*
X3707Y26789D01*
Y26629D01*
Y26736D02*
X3600Y26843D01*
X3920Y27163D02*
X3867Y27056D01*
X3760Y26949D01*
X3653D01*
X3600Y27003D01*
Y27109D01*
X3653Y27163D01*
X3707D01*
X3760Y27109D01*
Y26949D01*
X4340Y29839D02*
Y29573D01*
X4287Y29519D01*
X4180D01*
X4127Y29573D01*
Y29839D01*
X4020D02*
X3807D01*
Y29786D01*
X4020Y29573D01*
Y29519D01*
X11720Y8739D02*
Y8473D01*
X11667Y8419D01*
X11560D01*
X11507Y8473D01*
Y8739D01*
X11400Y8686D02*
X11347Y8739D01*
X11240D01*
X11187Y8686D01*
Y8633D01*
X11240Y8579D01*
X11187Y8526D01*
Y8473D01*
X11240Y8419D01*
X11347D01*
X11400Y8473D01*
Y8526D01*
X11347Y8579D01*
X11400Y8633D01*
Y8686D01*
X11347Y8579D02*
X11240D01*
X4927Y27886D02*
X4980Y27939D01*
X5087D01*
X5140Y27886D01*
Y27673D01*
X5087Y27619D01*
X4980D01*
X4927Y27673D01*
X4820Y27619D02*
X4713D01*
X4767D01*
Y27939D01*
X4820Y27886D01*
X4554D02*
X4500Y27939D01*
X4394D01*
X4340Y27886D01*
Y27833D01*
X4394Y27779D01*
X4340Y27726D01*
Y27673D01*
X4394Y27619D01*
X4500D01*
X4554Y27673D01*
Y27726D01*
X4500Y27779D01*
X4554Y27833D01*
Y27886D01*
X4500Y27779D02*
X4394D01*
X5357Y30866D02*
X5410Y30919D01*
X5517D01*
X5570Y30866D01*
Y30653D01*
X5517Y30599D01*
X5410D01*
X5357Y30653D01*
X5250Y30599D02*
X5143D01*
X5197D01*
Y30919D01*
X5250Y30866D01*
X4984Y30653D02*
X4930Y30599D01*
X4824D01*
X4770Y30653D01*
Y30866D01*
X4824Y30919D01*
X4930D01*
X4984Y30866D01*
Y30813D01*
X4930Y30759D01*
X4770D01*
X10607Y8233D02*
X10660Y8179D01*
Y8073D01*
X10607Y8019D01*
X10393D01*
X10340Y8073D01*
Y8179D01*
X10393Y8233D01*
X10340Y8553D02*
Y8339D01*
X10553Y8553D01*
X10607D01*
X10660Y8499D01*
Y8393D01*
X10607Y8339D01*
Y8659D02*
X10660Y8712D01*
Y8819D01*
X10607Y8872D01*
X10393D01*
X10340Y8819D01*
Y8712D01*
X10393Y8659D01*
X10607D01*
X12627Y6353D02*
X12680Y6299D01*
Y6193D01*
X12627Y6139D01*
X12413D01*
X12360Y6193D01*
Y6299D01*
X12413Y6353D01*
X12360Y6673D02*
Y6459D01*
X12573Y6673D01*
X12627D01*
X12680Y6619D01*
Y6513D01*
X12627Y6459D01*
X12360Y6779D02*
Y6886D01*
Y6832D01*
X12680D01*
X12627Y6779D01*
X10040Y15579D02*
X10360D01*
Y15739D01*
X10307Y15793D01*
X10200D01*
X10147Y15739D01*
Y15579D01*
Y15686D02*
X10040Y15793D01*
X10360Y16113D02*
Y15899D01*
X10200D01*
X10253Y16006D01*
Y16059D01*
X10200Y16113D01*
X10093D01*
X10040Y16059D01*
Y15953D01*
X10093Y15899D01*
X5487Y10976D02*
X5540Y11029D01*
X5647D01*
X5700Y10976D01*
Y10763D01*
X5647Y10709D01*
X5540D01*
X5487Y10763D01*
X5167Y10709D02*
X5380D01*
X5167Y10923D01*
Y10976D01*
X5220Y11029D01*
X5327D01*
X5380Y10976D01*
X5060D02*
X5007Y11029D01*
X4900D01*
X4847Y10976D01*
Y10923D01*
X4900Y10869D01*
X4954D01*
X4900D01*
X4847Y10816D01*
Y10763D01*
X4900Y10709D01*
X5007D01*
X5060Y10763D01*
X9207Y17643D02*
X9260Y17589D01*
Y17483D01*
X9207Y17429D01*
X8993D01*
X8940Y17483D01*
Y17589D01*
X8993Y17643D01*
X8940Y17749D02*
Y17856D01*
Y17803D01*
X9260D01*
X9207Y17749D01*
X9260Y18229D02*
Y18016D01*
X9100D01*
X9153Y18122D01*
Y18176D01*
X9100Y18229D01*
X8993D01*
X8940Y18176D01*
Y18069D01*
X8993Y18016D01*
X8327Y18853D02*
X8380Y18799D01*
Y18693D01*
X8327Y18639D01*
X8113D01*
X8060Y18693D01*
Y18799D01*
X8113Y18853D01*
X8060Y18959D02*
Y19066D01*
Y19013D01*
X8380D01*
X8327Y18959D01*
X8380Y19439D02*
X8327Y19332D01*
X8220Y19226D01*
X8113D01*
X8060Y19279D01*
Y19386D01*
X8113Y19439D01*
X8167D01*
X8220Y19386D01*
Y19226D01*
X6677Y17853D02*
X6730Y17799D01*
Y17693D01*
X6677Y17639D01*
X6463D01*
X6410Y17693D01*
Y17799D01*
X6463Y17853D01*
X6410Y18173D02*
Y17959D01*
X6623Y18173D01*
X6677D01*
X6730Y18119D01*
Y18013D01*
X6677Y17959D01*
X6730Y18492D02*
Y18279D01*
X6570D01*
X6623Y18386D01*
Y18439D01*
X6570Y18492D01*
X6463D01*
X6410Y18439D01*
Y18332D01*
X6463Y18279D01*
X7467Y15243D02*
X7520Y15189D01*
Y15083D01*
X7467Y15029D01*
X7253D01*
X7200Y15083D01*
Y15189D01*
X7253Y15243D01*
X7200Y15563D02*
Y15349D01*
X7413Y15563D01*
X7467D01*
X7520Y15509D01*
Y15403D01*
X7467Y15349D01*
X7520Y15882D02*
X7467Y15776D01*
X7360Y15669D01*
X7253D01*
X7200Y15722D01*
Y15829D01*
X7253Y15882D01*
X7307D01*
X7360Y15829D01*
Y15669D01*
X6227Y17853D02*
X6280Y17799D01*
Y17693D01*
X6227Y17639D01*
X6013D01*
X5960Y17693D01*
Y17799D01*
X6013Y17853D01*
X5960Y18173D02*
Y17959D01*
X6173Y18173D01*
X6227D01*
X6280Y18119D01*
Y18013D01*
X6227Y17959D01*
X6280Y18279D02*
Y18492D01*
X6227D01*
X6013Y18279D01*
X5960D01*
X5427Y16576D02*
X5480Y16629D01*
X5587D01*
X5640Y16576D01*
Y16363D01*
X5587Y16309D01*
X5480D01*
X5427Y16363D01*
X5107Y16309D02*
X5320D01*
X5107Y16523D01*
Y16576D01*
X5160Y16629D01*
X5267D01*
X5320Y16576D01*
X5000D02*
X4947Y16629D01*
X4840D01*
X4787Y16576D01*
Y16523D01*
X4840Y16469D01*
X4787Y16416D01*
Y16363D01*
X4840Y16309D01*
X4947D01*
X5000Y16363D01*
Y16416D01*
X4947Y16469D01*
X5000Y16523D01*
Y16576D01*
X4947Y16469D02*
X4840D01*
X5427Y16076D02*
X5480Y16129D01*
X5587D01*
X5640Y16076D01*
Y15863D01*
X5587Y15809D01*
X5480D01*
X5427Y15863D01*
X5107Y15809D02*
X5320D01*
X5107Y16023D01*
Y16076D01*
X5160Y16129D01*
X5267D01*
X5320Y16076D01*
X5000Y15863D02*
X4947Y15809D01*
X4840D01*
X4787Y15863D01*
Y16076D01*
X4840Y16129D01*
X4947D01*
X5000Y16076D01*
Y16023D01*
X4947Y15969D01*
X4787D01*
X10947Y17216D02*
X11000Y17269D01*
X11107D01*
X11160Y17216D01*
Y17003D01*
X11107Y16949D01*
X11000D01*
X10947Y17003D01*
X10840Y17216D02*
X10787Y17269D01*
X10680D01*
X10627Y17216D01*
Y17163D01*
X10680Y17109D01*
X10733D01*
X10680D01*
X10627Y17056D01*
Y17003D01*
X10680Y16949D01*
X10787D01*
X10840Y17003D01*
X10520Y17216D02*
X10467Y17269D01*
X10360D01*
X10307Y17216D01*
Y17003D01*
X10360Y16949D01*
X10467D01*
X10520Y17003D01*
Y17216D01*
X10927Y16766D02*
X10980Y16819D01*
X11087D01*
X11140Y16766D01*
Y16553D01*
X11087Y16499D01*
X10980D01*
X10927Y16553D01*
X10820Y16766D02*
X10767Y16819D01*
X10660D01*
X10607Y16766D01*
Y16713D01*
X10660Y16659D01*
X10713D01*
X10660D01*
X10607Y16606D01*
Y16553D01*
X10660Y16499D01*
X10767D01*
X10820Y16553D01*
X10500Y16499D02*
X10394D01*
X10447D01*
Y16819D01*
X10500Y16766D01*
X9187Y13753D02*
X9240Y13699D01*
Y13593D01*
X9187Y13539D01*
X8973D01*
X8920Y13593D01*
Y13699D01*
X8973Y13753D01*
X9187Y13859D02*
X9240Y13913D01*
Y14019D01*
X9187Y14073D01*
X9133D01*
X9080Y14019D01*
Y13966D01*
Y14019D01*
X9027Y14073D01*
X8973D01*
X8920Y14019D01*
Y13913D01*
X8973Y13859D01*
X9187Y14179D02*
X9240Y14232D01*
Y14339D01*
X9187Y14392D01*
X9133D01*
X9080Y14339D01*
Y14286D01*
Y14339D01*
X9027Y14392D01*
X8973D01*
X8920Y14339D01*
Y14232D01*
X8973Y14179D01*
X9657Y16046D02*
X9710Y16099D01*
X9817D01*
X9870Y16046D01*
Y15833D01*
X9817Y15779D01*
X9710D01*
X9657Y15833D01*
X9550Y16046D02*
X9497Y16099D01*
X9390D01*
X9337Y16046D01*
Y15993D01*
X9390Y15939D01*
X9443D01*
X9390D01*
X9337Y15886D01*
Y15833D01*
X9390Y15779D01*
X9497D01*
X9550Y15833D01*
X9070Y15779D02*
Y16099D01*
X9230Y15939D01*
X9017D01*
X8367Y13723D02*
X8420Y13669D01*
Y13563D01*
X8367Y13509D01*
X8153D01*
X8100Y13563D01*
Y13669D01*
X8153Y13723D01*
X8367Y13829D02*
X8420Y13883D01*
Y13989D01*
X8367Y14043D01*
X8313D01*
X8260Y13989D01*
Y13936D01*
Y13989D01*
X8207Y14043D01*
X8153D01*
X8100Y13989D01*
Y13883D01*
X8153Y13829D01*
X8420Y14362D02*
Y14149D01*
X8260D01*
X8313Y14256D01*
Y14309D01*
X8260Y14362D01*
X8153D01*
X8100Y14309D01*
Y14202D01*
X8153Y14149D01*
X9277Y16526D02*
X9330Y16579D01*
X9437D01*
X9490Y16526D01*
Y16313D01*
X9437Y16259D01*
X9330D01*
X9277Y16313D01*
X9170Y16526D02*
X9117Y16579D01*
X9010D01*
X8957Y16526D01*
Y16473D01*
X9010Y16419D01*
X9063D01*
X9010D01*
X8957Y16366D01*
Y16313D01*
X9010Y16259D01*
X9117D01*
X9170Y16313D01*
X8637Y16579D02*
X8744Y16526D01*
X8850Y16419D01*
Y16313D01*
X8797Y16259D01*
X8690D01*
X8637Y16313D01*
Y16366D01*
X8690Y16419D01*
X8850D01*
X5957Y14876D02*
X6010Y14929D01*
X6117D01*
X6170Y14876D01*
Y14663D01*
X6117Y14609D01*
X6010D01*
X5957Y14663D01*
X5850Y14876D02*
X5797Y14929D01*
X5690D01*
X5637Y14876D01*
Y14823D01*
X5690Y14769D01*
X5743D01*
X5690D01*
X5637Y14716D01*
Y14663D01*
X5690Y14609D01*
X5797D01*
X5850Y14663D01*
X5530Y14929D02*
X5317D01*
Y14876D01*
X5530Y14663D01*
Y14609D01*
X6057Y15596D02*
X6110Y15649D01*
X6217D01*
X6270Y15596D01*
Y15383D01*
X6217Y15329D01*
X6110D01*
X6057Y15383D01*
X5950Y15596D02*
X5897Y15649D01*
X5790D01*
X5737Y15596D01*
Y15543D01*
X5790Y15489D01*
X5843D01*
X5790D01*
X5737Y15436D01*
Y15383D01*
X5790Y15329D01*
X5897D01*
X5950Y15383D01*
X5630Y15596D02*
X5577Y15649D01*
X5470D01*
X5417Y15596D01*
Y15543D01*
X5470Y15489D01*
X5417Y15436D01*
Y15383D01*
X5470Y15329D01*
X5577D01*
X5630Y15383D01*
Y15436D01*
X5577Y15489D01*
X5630Y15543D01*
Y15596D01*
X5577Y15489D02*
X5470D01*
X7437Y18853D02*
X7490Y18799D01*
Y18693D01*
X7437Y18639D01*
X7223D01*
X7170Y18693D01*
Y18799D01*
X7223Y18853D01*
X7437Y18959D02*
X7490Y19013D01*
Y19119D01*
X7437Y19173D01*
X7383D01*
X7330Y19119D01*
Y19066D01*
Y19119D01*
X7277Y19173D01*
X7223D01*
X7170Y19119D01*
Y19013D01*
X7223Y18959D01*
Y19279D02*
X7170Y19332D01*
Y19439D01*
X7223Y19492D01*
X7437D01*
X7490Y19439D01*
Y19332D01*
X7437Y19279D01*
X7383D01*
X7330Y19332D01*
Y19492D01*
X7867Y18853D02*
X7920Y18799D01*
Y18693D01*
X7867Y18639D01*
X7653D01*
X7600Y18693D01*
Y18799D01*
X7653Y18853D01*
X7600Y19119D02*
X7920D01*
X7760Y18959D01*
Y19173D01*
X7867Y19279D02*
X7920Y19332D01*
Y19439D01*
X7867Y19492D01*
X7653D01*
X7600Y19439D01*
Y19332D01*
X7653Y19279D01*
X7867D01*
X6987Y18853D02*
X7040Y18799D01*
Y18693D01*
X6987Y18639D01*
X6773D01*
X6720Y18693D01*
Y18799D01*
X6773Y18853D01*
X6720Y19119D02*
X7040D01*
X6880Y18959D01*
Y19173D01*
X6720Y19279D02*
Y19386D01*
Y19332D01*
X7040D01*
X6987Y19279D01*
X7477Y16996D02*
X7530Y17049D01*
X7637D01*
X7690Y16996D01*
Y16783D01*
X7637Y16729D01*
X7530D01*
X7477Y16783D01*
X7210Y16729D02*
Y17049D01*
X7370Y16889D01*
X7157D01*
X6837Y16729D02*
X7050D01*
X6837Y16943D01*
Y16996D01*
X6890Y17049D01*
X6997D01*
X7050Y16996D01*
X7177Y16436D02*
X7230Y16489D01*
X7337D01*
X7390Y16436D01*
Y16223D01*
X7337Y16169D01*
X7230D01*
X7177Y16223D01*
X6857Y16489D02*
X7070D01*
Y16329D01*
X6963Y16383D01*
X6910D01*
X6857Y16329D01*
Y16223D01*
X6910Y16169D01*
X7017D01*
X7070Y16223D01*
X6537Y16169D02*
X6750D01*
X6537Y16383D01*
Y16436D01*
X6590Y16489D01*
X6697D01*
X6750Y16436D01*
X8437Y27706D02*
X8490Y27759D01*
X8597D01*
X8650Y27706D01*
Y27493D01*
X8597Y27439D01*
X8490D01*
X8437Y27493D01*
X8330Y27706D02*
X8277Y27759D01*
X8170D01*
X8117Y27706D01*
Y27653D01*
X8170Y27599D01*
X8223D01*
X8170D01*
X8117Y27546D01*
Y27493D01*
X8170Y27439D01*
X8277D01*
X8330Y27493D01*
X7797Y27439D02*
X8010D01*
X7797Y27653D01*
Y27706D01*
X7850Y27759D01*
X7957D01*
X8010Y27706D01*
X6457Y30163D02*
X6510Y30109D01*
Y30003D01*
X6457Y29949D01*
X6243D01*
X6190Y30003D01*
Y30109D01*
X6243Y30163D01*
X6190Y30429D02*
X6510D01*
X6350Y30269D01*
Y30483D01*
X6457Y30589D02*
X6510Y30642D01*
Y30749D01*
X6457Y30802D01*
X6403D01*
X6350Y30749D01*
Y30696D01*
Y30749D01*
X6297Y30802D01*
X6243D01*
X6190Y30749D01*
Y30642D01*
X6243Y30589D01*
X11337Y29253D02*
X11390Y29199D01*
Y29093D01*
X11337Y29039D01*
X11123D01*
X11070Y29093D01*
Y29199D01*
X11123Y29253D01*
X11390Y29573D02*
Y29359D01*
X11230D01*
X11283Y29466D01*
Y29519D01*
X11230Y29573D01*
X11123D01*
X11070Y29519D01*
Y29413D01*
X11123Y29359D01*
X11337Y29679D02*
X11390Y29732D01*
Y29839D01*
X11337Y29892D01*
X11283D01*
X11230Y29839D01*
Y29786D01*
Y29839D01*
X11177Y29892D01*
X11123D01*
X11070Y29839D01*
Y29732D01*
X11123Y29679D01*
X8537Y26816D02*
X8590Y26869D01*
X8697D01*
X8750Y26816D01*
Y26603D01*
X8697Y26549D01*
X8590D01*
X8537Y26603D01*
X8217Y26869D02*
X8430D01*
Y26709D01*
X8323Y26763D01*
X8270D01*
X8217Y26709D01*
Y26603D01*
X8270Y26549D01*
X8377D01*
X8430Y26603D01*
X7950Y26549D02*
Y26869D01*
X8110Y26709D01*
X7897D01*
X10127Y29193D02*
X10180Y29139D01*
Y29033D01*
X10127Y28979D01*
X9913D01*
X9860Y29033D01*
Y29139D01*
X9913Y29193D01*
X10180Y29513D02*
Y29299D01*
X10020D01*
X10073Y29406D01*
Y29459D01*
X10020Y29513D01*
X9913D01*
X9860Y29459D01*
Y29353D01*
X9913Y29299D01*
X10180Y29832D02*
Y29619D01*
X10020D01*
X10073Y29726D01*
Y29779D01*
X10020Y29832D01*
X9913D01*
X9860Y29779D01*
Y29672D01*
X9913Y29619D01*
X11867Y27766D02*
X11920Y27819D01*
X12027D01*
X12080Y27766D01*
Y27553D01*
X12027Y27499D01*
X11920D01*
X11867Y27553D01*
X11547Y27819D02*
X11760D01*
Y27659D01*
X11653Y27713D01*
X11600D01*
X11547Y27659D01*
Y27553D01*
X11600Y27499D01*
X11707D01*
X11760Y27553D01*
X11227Y27819D02*
X11334Y27766D01*
X11440Y27659D01*
Y27553D01*
X11387Y27499D01*
X11280D01*
X11227Y27553D01*
Y27606D01*
X11280Y27659D01*
X11440D01*
X9647Y29193D02*
X9700Y29139D01*
Y29033D01*
X9647Y28979D01*
X9433D01*
X9380Y29033D01*
Y29139D01*
X9433Y29193D01*
X9700Y29513D02*
Y29299D01*
X9540D01*
X9593Y29406D01*
Y29459D01*
X9540Y29513D01*
X9433D01*
X9380Y29459D01*
Y29353D01*
X9433Y29299D01*
Y29619D02*
X9380Y29672D01*
Y29779D01*
X9433Y29832D01*
X9647D01*
X9700Y29779D01*
Y29672D01*
X9647Y29619D01*
X9593D01*
X9540Y29672D01*
Y29832D01*
X8415Y30323D02*
X8469Y30269D01*
Y30163D01*
X8415Y30110D01*
X8202D01*
X8149Y30163D01*
Y30269D01*
X8202Y30323D01*
X8469Y30643D02*
X8415Y30536D01*
X8309Y30429D01*
X8202D01*
X8149Y30483D01*
Y30589D01*
X8202Y30643D01*
X8256D01*
X8309Y30589D01*
Y30429D01*
X8415Y30749D02*
X8469Y30803D01*
Y30909D01*
X8415Y30963D01*
X8202D01*
X8149Y30909D01*
Y30803D01*
X8202Y30749D01*
X8415D01*
X9170Y4069D02*
X8850D01*
Y4229D01*
X8903Y4283D01*
X9117D01*
X9170Y4229D01*
Y4069D01*
X8850Y4603D02*
Y4389D01*
X9063Y4603D01*
X9117D01*
X9170Y4549D01*
Y4443D01*
X9117Y4389D01*
X7667Y29069D02*
X7880D01*
Y28909D01*
X7773D01*
X7880D01*
Y28749D01*
X7560Y29069D02*
Y28749D01*
X7347D01*
X7240D02*
X7134D01*
X7187D01*
Y29069D01*
X7240Y29016D01*
X6974Y28803D02*
X6920Y28749D01*
X6814D01*
X6760Y28803D01*
Y29016D01*
X6814Y29069D01*
X6920D01*
X6974Y29016D01*
Y28963D01*
X6920Y28909D01*
X6760D01*
X16130Y5639D02*
X16450D01*
Y5799D01*
X16397Y5853D01*
X16290D01*
X16237Y5799D01*
Y5639D01*
Y5746D02*
X16130Y5853D01*
Y5959D02*
Y6066D01*
Y6013D01*
X16450D01*
X16397Y5959D01*
X16183Y6226D02*
X16130Y6279D01*
Y6386D01*
X16183Y6439D01*
X16397D01*
X16450Y6386D01*
Y6279D01*
X16397Y6226D01*
X16343D01*
X16290Y6279D01*
Y6439D01*
X9370Y4069D02*
X9690D01*
Y4229D01*
X9637Y4283D01*
X9530D01*
X9477Y4229D01*
Y4069D01*
Y4176D02*
X9370Y4283D01*
Y4603D02*
Y4389D01*
X9583Y4603D01*
X9637D01*
X9690Y4549D01*
Y4443D01*
X9637Y4389D01*
Y4709D02*
X9690Y4762D01*
Y4869D01*
X9637Y4922D01*
X9423D01*
X9370Y4869D01*
Y4762D01*
X9423Y4709D01*
X9637D01*
X12547Y4265D02*
X12600Y4319D01*
X12707D01*
X12760Y4265D01*
Y4212D01*
X12707Y4159D01*
X12600D01*
X12547Y4105D01*
Y4052D01*
X12600Y3999D01*
X12707D01*
X12760Y4052D01*
X12440Y3999D02*
X12333D01*
X12387D01*
Y4319D01*
X12440Y4265D01*
X5867Y4145D02*
X5920Y4199D01*
X6027D01*
X6080Y4145D01*
Y4092D01*
X6027Y4039D01*
X5920D01*
X5867Y3985D01*
Y3932D01*
X5920Y3879D01*
X6027D01*
X6080Y3932D01*
X5547Y3879D02*
X5760D01*
X5547Y4092D01*
Y4145D01*
X5600Y4199D01*
X5707D01*
X5760Y4145D01*
X12470Y28459D02*
Y28779D01*
X12310D01*
X12257Y28726D01*
Y28619D01*
X12310Y28566D01*
X12470D01*
X12363D02*
X12257Y28459D01*
X11937D02*
X12150D01*
X11937Y28673D01*
Y28726D01*
X11990Y28779D01*
X12097D01*
X12150Y28726D01*
X11830D02*
X11777Y28779D01*
X11670D01*
X11617Y28726D01*
Y28673D01*
X11670Y28619D01*
X11724D01*
X11670D01*
X11617Y28566D01*
Y28513D01*
X11670Y28459D01*
X11777D01*
X11830Y28513D01*
X15940Y5639D02*
X15620D01*
Y5799D01*
X15673Y5853D01*
X15887D01*
X15940Y5799D01*
Y5639D01*
X15620Y5959D02*
Y6066D01*
Y6013D01*
X15940D01*
X15887Y5959D01*
Y6226D02*
X15940Y6279D01*
Y6386D01*
X15887Y6439D01*
X15833D01*
X15780Y6386D01*
Y6332D01*
Y6386D01*
X15727Y6439D01*
X15673D01*
X15620Y6386D01*
Y6279D01*
X15673Y6226D01*
X15070Y5639D02*
X15390D01*
Y5799D01*
X15337Y5853D01*
X15230D01*
X15177Y5799D01*
Y5639D01*
Y5746D02*
X15070Y5853D01*
Y6173D02*
Y5959D01*
X15283Y6173D01*
X15337D01*
X15390Y6119D01*
Y6013D01*
X15337Y5959D01*
X15070Y6439D02*
X15390D01*
X15230Y6279D01*
Y6492D01*
X8380Y4069D02*
X8700D01*
Y4229D01*
X8647Y4283D01*
X8540D01*
X8487Y4229D01*
Y4069D01*
Y4176D02*
X8380Y4283D01*
Y4603D02*
Y4389D01*
X8593Y4603D01*
X8647D01*
X8700Y4549D01*
Y4443D01*
X8647Y4389D01*
X8700Y4922D02*
Y4709D01*
X8540D01*
X8593Y4816D01*
Y4869D01*
X8540Y4922D01*
X8433D01*
X8380Y4869D01*
Y4762D01*
X8433Y4709D01*
X13307Y8886D02*
X13360Y8939D01*
X13467D01*
X13520Y8886D01*
Y8673D01*
X13467Y8619D01*
X13360D01*
X13307Y8673D01*
X13200Y8939D02*
X12987D01*
Y8886D01*
X13200Y8673D01*
Y8619D01*
X12880Y8673D02*
X12827Y8619D01*
X12720D01*
X12667Y8673D01*
Y8886D01*
X12720Y8939D01*
X12827D01*
X12880Y8886D01*
Y8833D01*
X12827Y8779D01*
X12667D01*
X7467Y14243D02*
X7520Y14189D01*
Y14083D01*
X7467Y14029D01*
X7253D01*
X7200Y14083D01*
Y14189D01*
X7253Y14243D01*
X7467Y14349D02*
X7520Y14403D01*
Y14509D01*
X7467Y14563D01*
X7413D01*
X7360Y14509D01*
X7307Y14563D01*
X7253D01*
X7200Y14509D01*
Y14403D01*
X7253Y14349D01*
X7307D01*
X7360Y14403D01*
X7413Y14349D01*
X7467D01*
X7360Y14403D02*
Y14509D01*
X7467Y14669D02*
X7520Y14722D01*
Y14829D01*
X7467Y14882D01*
X7253D01*
X7200Y14829D01*
Y14722D01*
X7253Y14669D01*
X7467D01*
X6907Y27923D02*
X6960Y27869D01*
Y27763D01*
X6907Y27709D01*
X6693D01*
X6640Y27763D01*
Y27869D01*
X6693Y27923D01*
X6907Y28029D02*
X6960Y28083D01*
Y28189D01*
X6907Y28243D01*
X6853D01*
X6800Y28189D01*
X6747Y28243D01*
X6693D01*
X6640Y28189D01*
Y28083D01*
X6693Y28029D01*
X6747D01*
X6800Y28083D01*
X6853Y28029D01*
X6907D01*
X6800Y28083D02*
Y28189D01*
X6640Y28562D02*
Y28349D01*
X6853Y28562D01*
X6907D01*
X6960Y28509D01*
Y28402D01*
X6907Y28349D01*
X7777Y30336D02*
X7830Y30389D01*
X7937D01*
X7990Y30336D01*
Y30123D01*
X7937Y30069D01*
X7830D01*
X7777Y30123D01*
X7670Y30336D02*
X7617Y30389D01*
X7510D01*
X7457Y30336D01*
Y30283D01*
X7510Y30229D01*
X7457Y30176D01*
Y30123D01*
X7510Y30069D01*
X7617D01*
X7670Y30123D01*
Y30176D01*
X7617Y30229D01*
X7670Y30283D01*
Y30336D01*
X7617Y30229D02*
X7510D01*
X7350Y30336D02*
X7297Y30389D01*
X7190D01*
X7137Y30336D01*
Y30283D01*
X7190Y30229D01*
X7244D01*
X7190D01*
X7137Y30176D01*
Y30123D01*
X7190Y30069D01*
X7297D01*
X7350Y30123D01*
X4957Y14406D02*
X5010Y14459D01*
X5117D01*
X5170Y14406D01*
Y14193D01*
X5117Y14139D01*
X5010D01*
X4957Y14193D01*
X4850Y14406D02*
X4797Y14459D01*
X4690D01*
X4637Y14406D01*
Y14353D01*
X4690Y14299D01*
X4637Y14246D01*
Y14193D01*
X4690Y14139D01*
X4797D01*
X4850Y14193D01*
Y14246D01*
X4797Y14299D01*
X4850Y14353D01*
Y14406D01*
X4797Y14299D02*
X4690D01*
X4317Y14459D02*
X4530D01*
Y14299D01*
X4424Y14353D01*
X4370D01*
X4317Y14299D01*
Y14193D01*
X4370Y14139D01*
X4477D01*
X4530Y14193D01*
X11067Y19473D02*
X11120Y19419D01*
Y19313D01*
X11067Y19259D01*
X10853D01*
X10800Y19313D01*
Y19419D01*
X10853Y19473D01*
X11067Y19579D02*
X11120Y19633D01*
Y19739D01*
X11067Y19793D01*
X11013D01*
X10960Y19739D01*
X10907Y19793D01*
X10853D01*
X10800Y19739D01*
Y19633D01*
X10853Y19579D01*
X10907D01*
X10960Y19633D01*
X11013Y19579D01*
X11067D01*
X10960Y19633D02*
Y19739D01*
X11120Y20112D02*
X11067Y20006D01*
X10960Y19899D01*
X10853D01*
X10800Y19952D01*
Y20059D01*
X10853Y20112D01*
X10907D01*
X10960Y20059D01*
Y19899D01*
X11997Y17136D02*
X12050Y17189D01*
X12157D01*
X12210Y17136D01*
Y16923D01*
X12157Y16869D01*
X12050D01*
X11997Y16923D01*
X11890Y17136D02*
X11837Y17189D01*
X11730D01*
X11677Y17136D01*
Y17083D01*
X11730Y17029D01*
X11677Y16976D01*
Y16923D01*
X11730Y16869D01*
X11837D01*
X11890Y16923D01*
Y16976D01*
X11837Y17029D01*
X11890Y17083D01*
Y17136D01*
X11837Y17029D02*
X11730D01*
X11570Y17189D02*
X11357D01*
Y17136D01*
X11570Y16923D01*
Y16869D01*
X6880Y12484D02*
X6933Y12431D01*
Y12324D01*
X6880Y12271D01*
X6666D01*
X6613Y12324D01*
Y12431D01*
X6666Y12484D01*
X6880Y12591D02*
X6933Y12644D01*
Y12750D01*
X6880Y12804D01*
X6826D01*
X6773Y12750D01*
X6720Y12804D01*
X6666D01*
X6613Y12750D01*
Y12644D01*
X6666Y12591D01*
X6720D01*
X6773Y12644D01*
X6826Y12591D01*
X6880D01*
X6773Y12644D02*
Y12750D01*
X6880Y12910D02*
X6933Y12964D01*
Y13070D01*
X6880Y13124D01*
X6826D01*
X6773Y13070D01*
X6720Y13124D01*
X6666D01*
X6613Y13070D01*
Y12964D01*
X6666Y12910D01*
X6720D01*
X6773Y12964D01*
X6826Y12910D01*
X6880D01*
X6773Y12964D02*
Y13070D01*
X10177Y18266D02*
X10230Y18319D01*
X10337D01*
X10390Y18266D01*
Y18053D01*
X10337Y17999D01*
X10230D01*
X10177Y18053D01*
X10070Y18266D02*
X10017Y18319D01*
X9910D01*
X9857Y18266D01*
Y18213D01*
X9910Y18159D01*
X9857Y18106D01*
Y18053D01*
X9910Y17999D01*
X10017D01*
X10070Y18053D01*
Y18106D01*
X10017Y18159D01*
X10070Y18213D01*
Y18266D01*
X10017Y18159D02*
X9910D01*
X9750Y18053D02*
X9697Y17999D01*
X9590D01*
X9537Y18053D01*
Y18266D01*
X9590Y18319D01*
X9697D01*
X9750Y18266D01*
Y18213D01*
X9697Y18159D01*
X9537D01*
X9127Y19756D02*
X9180Y19809D01*
X9287D01*
X9340Y19756D01*
Y19543D01*
X9287Y19489D01*
X9180D01*
X9127Y19543D01*
X9020D02*
X8967Y19489D01*
X8860D01*
X8807Y19543D01*
Y19756D01*
X8860Y19809D01*
X8967D01*
X9020Y19756D01*
Y19703D01*
X8967Y19649D01*
X8807D01*
X8700Y19756D02*
X8647Y19809D01*
X8540D01*
X8487Y19756D01*
Y19543D01*
X8540Y19489D01*
X8647D01*
X8700Y19543D01*
Y19756D01*
X9907Y6819D02*
X10120D01*
Y6659D01*
X10013D01*
X10120D01*
Y6499D01*
X9800Y6819D02*
Y6499D01*
X9587D01*
X9480Y6766D02*
X9427Y6819D01*
X9320D01*
X9267Y6766D01*
Y6713D01*
X9320Y6659D01*
X9267Y6606D01*
Y6553D01*
X9320Y6499D01*
X9427D01*
X9480Y6553D01*
Y6606D01*
X9427Y6659D01*
X9480Y6713D01*
Y6766D01*
X9427Y6659D02*
X9320D01*
X13700Y7393D02*
Y7179D01*
X13540D01*
Y7286D01*
Y7179D01*
X13380D01*
X13700Y7499D02*
X13380D01*
Y7713D01*
X13433Y7819D02*
X13380Y7872D01*
Y7979D01*
X13433Y8032D01*
X13647D01*
X13700Y7979D01*
Y7872D01*
X13647Y7819D01*
X13593D01*
X13540Y7872D01*
Y8032D01*
X5180Y12713D02*
Y12499D01*
X5020D01*
Y12606D01*
Y12499D01*
X4860D01*
X5180Y12819D02*
X4860D01*
Y13033D01*
Y13139D02*
Y13246D01*
Y13192D01*
X5180D01*
X5127Y13139D01*
X4860Y13406D02*
Y13512D01*
Y13459D01*
X5180D01*
X5127Y13406D01*
X12110Y18193D02*
Y17979D01*
X11950D01*
Y18086D01*
Y17979D01*
X11790D01*
X12110Y18299D02*
X11790D01*
Y18513D01*
Y18619D02*
Y18726D01*
Y18672D01*
X12110D01*
X12057Y18619D01*
X11790Y19099D02*
Y18886D01*
X12003Y19099D01*
X12057D01*
X12110Y19046D01*
Y18939D01*
X12057Y18886D01*
X11347Y17789D02*
X11560D01*
Y17629D01*
X11453D01*
X11560D01*
Y17469D01*
X11240Y17789D02*
Y17469D01*
X11027D01*
X10920D02*
X10814D01*
X10867D01*
Y17789D01*
X10920Y17736D01*
X10654D02*
X10600Y17789D01*
X10494D01*
X10440Y17736D01*
Y17683D01*
X10494Y17629D01*
X10547D01*
X10494D01*
X10440Y17576D01*
Y17523D01*
X10494Y17469D01*
X10600D01*
X10654Y17523D01*
X6210Y11733D02*
Y11519D01*
X6050D01*
Y11626D01*
Y11519D01*
X5890D01*
X6210Y11839D02*
X5890D01*
Y12053D01*
Y12159D02*
Y12266D01*
Y12212D01*
X6210D01*
X6157Y12159D01*
X5890Y12586D02*
X6210D01*
X6050Y12426D01*
Y12639D01*
X10307Y20239D02*
X10520D01*
Y20079D01*
X10413D01*
X10520D01*
Y19919D01*
X10200Y20239D02*
Y19919D01*
X9987D01*
X9880D02*
X9774D01*
X9827D01*
Y20239D01*
X9880Y20186D01*
X9400Y20239D02*
X9507Y20186D01*
X9614Y20079D01*
Y19973D01*
X9560Y19919D01*
X9454D01*
X9400Y19973D01*
Y20026D01*
X9454Y20079D01*
X9614D01*
X4947Y26063D02*
Y26276D01*
X5000Y26329D01*
X5107D01*
X5160Y26276D01*
Y26063D01*
X5107Y26009D01*
X5000D01*
X5053Y26116D02*
X4947Y26009D01*
X5000D02*
X4947Y26063D01*
X4840Y26009D02*
X4733D01*
X4787D01*
Y26329D01*
X4840Y26276D01*
X5920Y26399D02*
X6240D01*
Y26559D01*
X6187Y26613D01*
X6080D01*
X6027Y26559D01*
Y26399D01*
Y26506D02*
X5920Y26613D01*
X6187Y26719D02*
X6240Y26773D01*
Y26879D01*
X6187Y26933D01*
X6133D01*
X6080Y26879D01*
Y26826D01*
Y26879D01*
X6027Y26933D01*
X5973D01*
X5920Y26879D01*
Y26773D01*
X5973Y26719D01*
X6240Y27252D02*
X6187Y27146D01*
X6080Y27039D01*
X5973D01*
X5920Y27092D01*
Y27199D01*
X5973Y27252D01*
X6027D01*
X6080Y27199D01*
Y27039D01*
X7727Y28546D02*
X7780Y28599D01*
X7887D01*
X7940Y28546D01*
Y28333D01*
X7887Y28279D01*
X7780D01*
X7727Y28333D01*
X7620D02*
X7567Y28279D01*
X7460D01*
X7407Y28333D01*
Y28546D01*
X7460Y28599D01*
X7567D01*
X7620Y28546D01*
Y28493D01*
X7567Y28439D01*
X7407D01*
X7087Y28279D02*
X7300D01*
X7087Y28493D01*
Y28546D01*
X7140Y28599D01*
X7247D01*
X7300Y28546D01*
X30498Y4313D02*
X30551Y4259D01*
Y4153D01*
X30498Y4099D01*
X30285D01*
X30231Y4153D01*
Y4259D01*
X30285Y4313D01*
X30231Y4419D02*
Y4526D01*
Y4473D01*
X30551D01*
X30498Y4419D01*
X30551Y4686D02*
Y4899D01*
X30498D01*
X30285Y4686D01*
X30231D01*
X36338Y6906D02*
X36391Y6959D01*
X36498D01*
X36551Y6906D01*
Y6693D01*
X36498Y6639D01*
X36391D01*
X36338Y6693D01*
X36231Y6639D02*
X36125D01*
X36178D01*
Y6959D01*
X36231Y6906D01*
X35965D02*
X35912Y6959D01*
X35805D01*
X35752Y6906D01*
Y6853D01*
X35805Y6799D01*
X35858D01*
X35805D01*
X35752Y6746D01*
Y6693D01*
X35805Y6639D01*
X35912D01*
X35965Y6693D01*
X29768Y13763D02*
X29821Y13709D01*
Y13603D01*
X29768Y13549D01*
X29555D01*
X29501Y13603D01*
Y13709D01*
X29555Y13763D01*
Y13869D02*
X29501Y13923D01*
Y14029D01*
X29555Y14083D01*
X29768D01*
X29821Y14029D01*
Y13923D01*
X29768Y13869D01*
X29715D01*
X29661Y13923D01*
Y14083D01*
X29821Y14402D02*
Y14189D01*
X29661D01*
X29715Y14296D01*
Y14349D01*
X29661Y14402D01*
X29555D01*
X29501Y14349D01*
Y14242D01*
X29555Y14189D01*
X34601Y26789D02*
X34388Y26469D01*
Y26789D02*
X34601Y26469D01*
X34281D02*
X34175D01*
X34228D01*
Y26789D01*
X34281Y26736D01*
X22178Y6079D02*
X22391D01*
Y5919D01*
X22285D01*
X22391D01*
Y5759D01*
X22071Y6079D02*
X21965D01*
X22018D01*
Y5759D01*
X22071D01*
X21965D01*
X21805Y6079D02*
Y5759D01*
X21645D01*
X21592Y5813D01*
Y6026D01*
X21645Y6079D01*
X21805D01*
X21272D02*
X21378Y6026D01*
X21485Y5919D01*
Y5813D01*
X21432Y5759D01*
X21325D01*
X21272Y5813D01*
Y5866D01*
X21325Y5919D01*
X21485D01*
X38118Y6299D02*
X38331D01*
Y6139D01*
X38225D01*
X38331D01*
Y5979D01*
X38011Y6299D02*
X37905D01*
X37958D01*
Y5979D01*
X38011D01*
X37905D01*
X37745Y6299D02*
Y5979D01*
X37585D01*
X37532Y6033D01*
Y6246D01*
X37585Y6299D01*
X37745D01*
X37212D02*
X37425D01*
Y6139D01*
X37318Y6193D01*
X37265D01*
X37212Y6139D01*
Y6033D01*
X37265Y5979D01*
X37372D01*
X37425Y6033D01*
X37498Y30759D02*
X37711D01*
Y30599D01*
X37605D01*
X37711D01*
Y30439D01*
X37391Y30759D02*
X37285D01*
X37338D01*
Y30439D01*
X37391D01*
X37285D01*
X37125Y30759D02*
Y30439D01*
X36965D01*
X36912Y30493D01*
Y30706D01*
X36965Y30759D01*
X37125D01*
X36645Y30439D02*
Y30759D01*
X36805Y30599D01*
X36592D01*
X28058Y10746D02*
X28111Y10799D01*
X28218D01*
X28271Y10746D01*
Y10533D01*
X28218Y10479D01*
X28111D01*
X28058Y10533D01*
X27738Y10799D02*
X27845Y10746D01*
X27951Y10639D01*
Y10533D01*
X27898Y10479D01*
X27792D01*
X27738Y10533D01*
Y10586D01*
X27792Y10639D01*
X27951D01*
X27418Y10799D02*
X27525Y10746D01*
X27632Y10639D01*
Y10533D01*
X27578Y10479D01*
X27472D01*
X27418Y10533D01*
Y10586D01*
X27472Y10639D01*
X27632D01*
X21828Y10066D02*
X22148D01*
Y10226D01*
X22095Y10280D01*
X21988D01*
X21935Y10226D01*
Y10066D01*
Y10173D02*
X21828Y10280D01*
Y10386D02*
Y10493D01*
Y10440D01*
X22148D01*
X22095Y10386D01*
X21828Y10653D02*
Y10760D01*
Y10706D01*
X22148D01*
X22095Y10653D01*
X21321Y10069D02*
X21641D01*
Y10229D01*
X21588Y10283D01*
X21481D01*
X21428Y10229D01*
Y10069D01*
Y10176D02*
X21321Y10283D01*
Y10389D02*
Y10496D01*
Y10443D01*
X21641D01*
X21588Y10389D01*
X21321Y10869D02*
Y10656D01*
X21535Y10869D01*
X21588D01*
X21641Y10816D01*
Y10709D01*
X21588Y10656D01*
X23711Y26629D02*
X24031D01*
Y26789D01*
X23978Y26843D01*
X23871D01*
X23818Y26789D01*
Y26629D01*
Y26736D02*
X23711Y26843D01*
X24031Y27163D02*
X23978Y27056D01*
X23871Y26949D01*
X23765D01*
X23711Y27003D01*
Y27109D01*
X23765Y27163D01*
X23818D01*
X23871Y27109D01*
Y26949D01*
X24451Y29839D02*
Y29573D01*
X24398Y29519D01*
X24291D01*
X24238Y29573D01*
Y29839D01*
X24131D02*
X23918D01*
Y29786D01*
X24131Y29573D01*
Y29519D01*
X31831Y8739D02*
Y8473D01*
X31778Y8419D01*
X31671D01*
X31618Y8473D01*
Y8739D01*
X31511Y8686D02*
X31458Y8739D01*
X31351D01*
X31298Y8686D01*
Y8633D01*
X31351Y8579D01*
X31298Y8526D01*
Y8473D01*
X31351Y8419D01*
X31458D01*
X31511Y8473D01*
Y8526D01*
X31458Y8579D01*
X31511Y8633D01*
Y8686D01*
X31458Y8579D02*
X31351D01*
X25038Y27886D02*
X25091Y27939D01*
X25198D01*
X25251Y27886D01*
Y27673D01*
X25198Y27619D01*
X25091D01*
X25038Y27673D01*
X24931Y27619D02*
X24825D01*
X24878D01*
Y27939D01*
X24931Y27886D01*
X24665D02*
X24612Y27939D01*
X24505D01*
X24452Y27886D01*
Y27833D01*
X24505Y27779D01*
X24452Y27726D01*
Y27673D01*
X24505Y27619D01*
X24612D01*
X24665Y27673D01*
Y27726D01*
X24612Y27779D01*
X24665Y27833D01*
Y27886D01*
X24612Y27779D02*
X24505D01*
X25468Y30866D02*
X25521Y30919D01*
X25628D01*
X25681Y30866D01*
Y30653D01*
X25628Y30599D01*
X25521D01*
X25468Y30653D01*
X25361Y30599D02*
X25255D01*
X25308D01*
Y30919D01*
X25361Y30866D01*
X25095Y30653D02*
X25042Y30599D01*
X24935D01*
X24882Y30653D01*
Y30866D01*
X24935Y30919D01*
X25042D01*
X25095Y30866D01*
Y30813D01*
X25042Y30759D01*
X24882D01*
X30718Y8233D02*
X30771Y8179D01*
Y8073D01*
X30718Y8019D01*
X30505D01*
X30451Y8073D01*
Y8179D01*
X30505Y8233D01*
X30451Y8553D02*
Y8339D01*
X30665Y8553D01*
X30718D01*
X30771Y8499D01*
Y8393D01*
X30718Y8339D01*
Y8659D02*
X30771Y8712D01*
Y8819D01*
X30718Y8872D01*
X30505D01*
X30451Y8819D01*
Y8712D01*
X30505Y8659D01*
X30718D01*
X32738Y6353D02*
X32791Y6299D01*
Y6193D01*
X32738Y6139D01*
X32525D01*
X32471Y6193D01*
Y6299D01*
X32525Y6353D01*
X32471Y6673D02*
Y6459D01*
X32685Y6673D01*
X32738D01*
X32791Y6619D01*
Y6513D01*
X32738Y6459D01*
X32471Y6779D02*
Y6886D01*
Y6832D01*
X32791D01*
X32738Y6779D01*
X30151Y15579D02*
X30471D01*
Y15739D01*
X30418Y15793D01*
X30311D01*
X30258Y15739D01*
Y15579D01*
Y15686D02*
X30151Y15793D01*
X30471Y16113D02*
Y15899D01*
X30311D01*
X30365Y16006D01*
Y16059D01*
X30311Y16113D01*
X30205D01*
X30151Y16059D01*
Y15953D01*
X30205Y15899D01*
X25598Y10976D02*
X25651Y11029D01*
X25758D01*
X25811Y10976D01*
Y10763D01*
X25758Y10709D01*
X25651D01*
X25598Y10763D01*
X25278Y10709D02*
X25491D01*
X25278Y10923D01*
Y10976D01*
X25331Y11029D01*
X25438D01*
X25491Y10976D01*
X25172D02*
X25118Y11029D01*
X25012D01*
X24958Y10976D01*
Y10923D01*
X25012Y10869D01*
X25065D01*
X25012D01*
X24958Y10816D01*
Y10763D01*
X25012Y10709D01*
X25118D01*
X25172Y10763D01*
X29318Y17643D02*
X29371Y17589D01*
Y17483D01*
X29318Y17429D01*
X29105D01*
X29051Y17483D01*
Y17589D01*
X29105Y17643D01*
X29051Y17749D02*
Y17856D01*
Y17803D01*
X29371D01*
X29318Y17749D01*
X29371Y18229D02*
Y18016D01*
X29211D01*
X29265Y18122D01*
Y18176D01*
X29211Y18229D01*
X29105D01*
X29051Y18176D01*
Y18069D01*
X29105Y18016D01*
X28438Y18853D02*
X28491Y18799D01*
Y18693D01*
X28438Y18639D01*
X28225D01*
X28171Y18693D01*
Y18799D01*
X28225Y18853D01*
X28171Y18959D02*
Y19066D01*
Y19013D01*
X28491D01*
X28438Y18959D01*
X28491Y19439D02*
X28438Y19332D01*
X28331Y19226D01*
X28225D01*
X28171Y19279D01*
Y19386D01*
X28225Y19439D01*
X28278D01*
X28331Y19386D01*
Y19226D01*
X26788Y17853D02*
X26841Y17799D01*
Y17693D01*
X26788Y17639D01*
X26575D01*
X26521Y17693D01*
Y17799D01*
X26575Y17853D01*
X26521Y18173D02*
Y17959D01*
X26735Y18173D01*
X26788D01*
X26841Y18119D01*
Y18013D01*
X26788Y17959D01*
X26841Y18492D02*
Y18279D01*
X26681D01*
X26735Y18386D01*
Y18439D01*
X26681Y18492D01*
X26575D01*
X26521Y18439D01*
Y18332D01*
X26575Y18279D01*
X27578Y15243D02*
X27631Y15189D01*
Y15083D01*
X27578Y15029D01*
X27365D01*
X27311Y15083D01*
Y15189D01*
X27365Y15243D01*
X27311Y15563D02*
Y15349D01*
X27525Y15563D01*
X27578D01*
X27631Y15509D01*
Y15403D01*
X27578Y15349D01*
X27631Y15882D02*
X27578Y15776D01*
X27471Y15669D01*
X27365D01*
X27311Y15722D01*
Y15829D01*
X27365Y15882D01*
X27418D01*
X27471Y15829D01*
Y15669D01*
X26338Y17853D02*
X26391Y17799D01*
Y17693D01*
X26338Y17639D01*
X26125D01*
X26071Y17693D01*
Y17799D01*
X26125Y17853D01*
X26071Y18173D02*
Y17959D01*
X26285Y18173D01*
X26338D01*
X26391Y18119D01*
Y18013D01*
X26338Y17959D01*
X26391Y18279D02*
Y18492D01*
X26338D01*
X26125Y18279D01*
X26071D01*
X25538Y16576D02*
X25591Y16629D01*
X25698D01*
X25751Y16576D01*
Y16363D01*
X25698Y16309D01*
X25591D01*
X25538Y16363D01*
X25218Y16309D02*
X25431D01*
X25218Y16523D01*
Y16576D01*
X25271Y16629D01*
X25378D01*
X25431Y16576D01*
X25112D02*
X25058Y16629D01*
X24952D01*
X24898Y16576D01*
Y16523D01*
X24952Y16469D01*
X24898Y16416D01*
Y16363D01*
X24952Y16309D01*
X25058D01*
X25112Y16363D01*
Y16416D01*
X25058Y16469D01*
X25112Y16523D01*
Y16576D01*
X25058Y16469D02*
X24952D01*
X25538Y16076D02*
X25591Y16129D01*
X25698D01*
X25751Y16076D01*
Y15863D01*
X25698Y15809D01*
X25591D01*
X25538Y15863D01*
X25218Y15809D02*
X25431D01*
X25218Y16023D01*
Y16076D01*
X25271Y16129D01*
X25378D01*
X25431Y16076D01*
X25112Y15863D02*
X25058Y15809D01*
X24952D01*
X24898Y15863D01*
Y16076D01*
X24952Y16129D01*
X25058D01*
X25112Y16076D01*
Y16023D01*
X25058Y15969D01*
X24898D01*
X31058Y17216D02*
X31111Y17269D01*
X31218D01*
X31271Y17216D01*
Y17003D01*
X31218Y16949D01*
X31111D01*
X31058Y17003D01*
X30951Y17216D02*
X30898Y17269D01*
X30791D01*
X30738Y17216D01*
Y17163D01*
X30791Y17109D01*
X30845D01*
X30791D01*
X30738Y17056D01*
Y17003D01*
X30791Y16949D01*
X30898D01*
X30951Y17003D01*
X30632Y17216D02*
X30578Y17269D01*
X30472D01*
X30418Y17216D01*
Y17003D01*
X30472Y16949D01*
X30578D01*
X30632Y17003D01*
Y17216D01*
X31038Y16766D02*
X31091Y16819D01*
X31198D01*
X31251Y16766D01*
Y16553D01*
X31198Y16499D01*
X31091D01*
X31038Y16553D01*
X30931Y16766D02*
X30878Y16819D01*
X30772D01*
X30718Y16766D01*
Y16713D01*
X30772Y16659D01*
X30825D01*
X30772D01*
X30718Y16606D01*
Y16553D01*
X30772Y16499D01*
X30878D01*
X30931Y16553D01*
X30612Y16499D02*
X30505D01*
X30558D01*
Y16819D01*
X30612Y16766D01*
X29298Y13753D02*
X29351Y13699D01*
Y13593D01*
X29298Y13539D01*
X29085D01*
X29031Y13593D01*
Y13699D01*
X29085Y13753D01*
X29298Y13859D02*
X29351Y13913D01*
Y14019D01*
X29298Y14073D01*
X29245D01*
X29191Y14019D01*
Y13966D01*
Y14019D01*
X29138Y14073D01*
X29085D01*
X29031Y14019D01*
Y13913D01*
X29085Y13859D01*
X29298Y14179D02*
X29351Y14232D01*
Y14339D01*
X29298Y14392D01*
X29245D01*
X29191Y14339D01*
Y14286D01*
Y14339D01*
X29138Y14392D01*
X29085D01*
X29031Y14339D01*
Y14232D01*
X29085Y14179D01*
X29768Y16046D02*
X29821Y16099D01*
X29928D01*
X29981Y16046D01*
Y15833D01*
X29928Y15779D01*
X29821D01*
X29768Y15833D01*
X29661Y16046D02*
X29608Y16099D01*
X29502D01*
X29448Y16046D01*
Y15993D01*
X29502Y15939D01*
X29555D01*
X29502D01*
X29448Y15886D01*
Y15833D01*
X29502Y15779D01*
X29608D01*
X29661Y15833D01*
X29182Y15779D02*
Y16099D01*
X29342Y15939D01*
X29128D01*
X28478Y13723D02*
X28531Y13669D01*
Y13563D01*
X28478Y13509D01*
X28265D01*
X28211Y13563D01*
Y13669D01*
X28265Y13723D01*
X28478Y13829D02*
X28531Y13883D01*
Y13989D01*
X28478Y14043D01*
X28425D01*
X28371Y13989D01*
Y13936D01*
Y13989D01*
X28318Y14043D01*
X28265D01*
X28211Y13989D01*
Y13883D01*
X28265Y13829D01*
X28531Y14362D02*
Y14149D01*
X28371D01*
X28425Y14256D01*
Y14309D01*
X28371Y14362D01*
X28265D01*
X28211Y14309D01*
Y14202D01*
X28265Y14149D01*
X29388Y16526D02*
X29441Y16579D01*
X29548D01*
X29601Y16526D01*
Y16313D01*
X29548Y16259D01*
X29441D01*
X29388Y16313D01*
X29281Y16526D02*
X29228Y16579D01*
X29121D01*
X29068Y16526D01*
Y16473D01*
X29121Y16419D01*
X29175D01*
X29121D01*
X29068Y16366D01*
Y16313D01*
X29121Y16259D01*
X29228D01*
X29281Y16313D01*
X28748Y16579D02*
X28855Y16526D01*
X28962Y16419D01*
Y16313D01*
X28908Y16259D01*
X28802D01*
X28748Y16313D01*
Y16366D01*
X28802Y16419D01*
X28962D01*
X26068Y14876D02*
X26121Y14929D01*
X26228D01*
X26281Y14876D01*
Y14663D01*
X26228Y14609D01*
X26121D01*
X26068Y14663D01*
X25961Y14876D02*
X25908Y14929D01*
X25801D01*
X25748Y14876D01*
Y14823D01*
X25801Y14769D01*
X25855D01*
X25801D01*
X25748Y14716D01*
Y14663D01*
X25801Y14609D01*
X25908D01*
X25961Y14663D01*
X25642Y14929D02*
X25428D01*
Y14876D01*
X25642Y14663D01*
Y14609D01*
X26168Y15596D02*
X26221Y15649D01*
X26328D01*
X26381Y15596D01*
Y15383D01*
X26328Y15329D01*
X26221D01*
X26168Y15383D01*
X26061Y15596D02*
X26008Y15649D01*
X25902D01*
X25848Y15596D01*
Y15543D01*
X25902Y15489D01*
X25955D01*
X25902D01*
X25848Y15436D01*
Y15383D01*
X25902Y15329D01*
X26008D01*
X26061Y15383D01*
X25742Y15596D02*
X25688Y15649D01*
X25582D01*
X25528Y15596D01*
Y15543D01*
X25582Y15489D01*
X25528Y15436D01*
Y15383D01*
X25582Y15329D01*
X25688D01*
X25742Y15383D01*
Y15436D01*
X25688Y15489D01*
X25742Y15543D01*
Y15596D01*
X25688Y15489D02*
X25582D01*
X27548Y18853D02*
X27601Y18799D01*
Y18693D01*
X27548Y18639D01*
X27335D01*
X27281Y18693D01*
Y18799D01*
X27335Y18853D01*
X27548Y18959D02*
X27601Y19013D01*
Y19119D01*
X27548Y19173D01*
X27495D01*
X27441Y19119D01*
Y19066D01*
Y19119D01*
X27388Y19173D01*
X27335D01*
X27281Y19119D01*
Y19013D01*
X27335Y18959D01*
Y19279D02*
X27281Y19332D01*
Y19439D01*
X27335Y19492D01*
X27548D01*
X27601Y19439D01*
Y19332D01*
X27548Y19279D01*
X27495D01*
X27441Y19332D01*
Y19492D01*
X27978Y18853D02*
X28031Y18799D01*
Y18693D01*
X27978Y18639D01*
X27765D01*
X27711Y18693D01*
Y18799D01*
X27765Y18853D01*
X27711Y19119D02*
X28031D01*
X27871Y18959D01*
Y19173D01*
X27978Y19279D02*
X28031Y19332D01*
Y19439D01*
X27978Y19492D01*
X27765D01*
X27711Y19439D01*
Y19332D01*
X27765Y19279D01*
X27978D01*
X27098Y18853D02*
X27151Y18799D01*
Y18693D01*
X27098Y18639D01*
X26885D01*
X26831Y18693D01*
Y18799D01*
X26885Y18853D01*
X26831Y19119D02*
X27151D01*
X26991Y18959D01*
Y19173D01*
X26831Y19279D02*
Y19386D01*
Y19332D01*
X27151D01*
X27098Y19279D01*
X27588Y16996D02*
X27641Y17049D01*
X27748D01*
X27801Y16996D01*
Y16783D01*
X27748Y16729D01*
X27641D01*
X27588Y16783D01*
X27322Y16729D02*
Y17049D01*
X27481Y16889D01*
X27268D01*
X26948Y16729D02*
X27162D01*
X26948Y16943D01*
Y16996D01*
X27002Y17049D01*
X27108D01*
X27162Y16996D01*
X27288Y16436D02*
X27341Y16489D01*
X27448D01*
X27501Y16436D01*
Y16223D01*
X27448Y16169D01*
X27341D01*
X27288Y16223D01*
X26968Y16489D02*
X27181D01*
Y16329D01*
X27075Y16383D01*
X27022D01*
X26968Y16329D01*
Y16223D01*
X27022Y16169D01*
X27128D01*
X27181Y16223D01*
X26648Y16169D02*
X26862D01*
X26648Y16383D01*
Y16436D01*
X26702Y16489D01*
X26808D01*
X26862Y16436D01*
X28548Y27706D02*
X28601Y27759D01*
X28708D01*
X28761Y27706D01*
Y27493D01*
X28708Y27439D01*
X28601D01*
X28548Y27493D01*
X28441Y27706D02*
X28388Y27759D01*
X28282D01*
X28228Y27706D01*
Y27653D01*
X28282Y27599D01*
X28335D01*
X28282D01*
X28228Y27546D01*
Y27493D01*
X28282Y27439D01*
X28388D01*
X28441Y27493D01*
X27908Y27439D02*
X28122D01*
X27908Y27653D01*
Y27706D01*
X27962Y27759D01*
X28068D01*
X28122Y27706D01*
X26568Y30163D02*
X26621Y30109D01*
Y30003D01*
X26568Y29949D01*
X26355D01*
X26301Y30003D01*
Y30109D01*
X26355Y30163D01*
X26301Y30429D02*
X26621D01*
X26461Y30269D01*
Y30483D01*
X26568Y30589D02*
X26621Y30642D01*
Y30749D01*
X26568Y30802D01*
X26515D01*
X26461Y30749D01*
Y30696D01*
Y30749D01*
X26408Y30802D01*
X26355D01*
X26301Y30749D01*
Y30642D01*
X26355Y30589D01*
X31448Y29253D02*
X31501Y29199D01*
Y29093D01*
X31448Y29039D01*
X31235D01*
X31181Y29093D01*
Y29199D01*
X31235Y29253D01*
X31501Y29573D02*
Y29359D01*
X31341D01*
X31395Y29466D01*
Y29519D01*
X31341Y29573D01*
X31235D01*
X31181Y29519D01*
Y29413D01*
X31235Y29359D01*
X31448Y29679D02*
X31501Y29732D01*
Y29839D01*
X31448Y29892D01*
X31395D01*
X31341Y29839D01*
Y29786D01*
Y29839D01*
X31288Y29892D01*
X31235D01*
X31181Y29839D01*
Y29732D01*
X31235Y29679D01*
X28648Y26816D02*
X28701Y26869D01*
X28808D01*
X28861Y26816D01*
Y26603D01*
X28808Y26549D01*
X28701D01*
X28648Y26603D01*
X28328Y26869D02*
X28541D01*
Y26709D01*
X28435Y26763D01*
X28382D01*
X28328Y26709D01*
Y26603D01*
X28382Y26549D01*
X28488D01*
X28541Y26603D01*
X28062Y26549D02*
Y26869D01*
X28222Y26709D01*
X28008D01*
X30238Y29193D02*
X30291Y29139D01*
Y29033D01*
X30238Y28979D01*
X30025D01*
X29971Y29033D01*
Y29139D01*
X30025Y29193D01*
X30291Y29513D02*
Y29299D01*
X30131D01*
X30185Y29406D01*
Y29459D01*
X30131Y29513D01*
X30025D01*
X29971Y29459D01*
Y29353D01*
X30025Y29299D01*
X30291Y29832D02*
Y29619D01*
X30131D01*
X30185Y29726D01*
Y29779D01*
X30131Y29832D01*
X30025D01*
X29971Y29779D01*
Y29672D01*
X30025Y29619D01*
X31978Y27766D02*
X32031Y27819D01*
X32138D01*
X32191Y27766D01*
Y27553D01*
X32138Y27499D01*
X32031D01*
X31978Y27553D01*
X31658Y27819D02*
X31871D01*
Y27659D01*
X31765Y27713D01*
X31711D01*
X31658Y27659D01*
Y27553D01*
X31711Y27499D01*
X31818D01*
X31871Y27553D01*
X31338Y27819D02*
X31445Y27766D01*
X31552Y27659D01*
Y27553D01*
X31498Y27499D01*
X31392D01*
X31338Y27553D01*
Y27606D01*
X31392Y27659D01*
X31552D01*
X29758Y29193D02*
X29811Y29139D01*
Y29033D01*
X29758Y28979D01*
X29545D01*
X29491Y29033D01*
Y29139D01*
X29545Y29193D01*
X29811Y29513D02*
Y29299D01*
X29651D01*
X29705Y29406D01*
Y29459D01*
X29651Y29513D01*
X29545D01*
X29491Y29459D01*
Y29353D01*
X29545Y29299D01*
Y29619D02*
X29491Y29672D01*
Y29779D01*
X29545Y29832D01*
X29758D01*
X29811Y29779D01*
Y29672D01*
X29758Y29619D01*
X29705D01*
X29651Y29672D01*
Y29832D01*
X28527Y30323D02*
X28580Y30269D01*
Y30163D01*
X28527Y30110D01*
X28314D01*
X28260Y30163D01*
Y30269D01*
X28314Y30323D01*
X28580Y30643D02*
X28527Y30536D01*
X28420Y30429D01*
X28314D01*
X28260Y30483D01*
Y30589D01*
X28314Y30643D01*
X28367D01*
X28420Y30589D01*
Y30429D01*
X28527Y30749D02*
X28580Y30803D01*
Y30909D01*
X28527Y30963D01*
X28314D01*
X28260Y30909D01*
Y30803D01*
X28314Y30749D01*
X28527D01*
X29281Y4069D02*
X28961D01*
Y4229D01*
X29015Y4283D01*
X29228D01*
X29281Y4229D01*
Y4069D01*
X28961Y4603D02*
Y4389D01*
X29175Y4603D01*
X29228D01*
X29281Y4549D01*
Y4443D01*
X29228Y4389D01*
X27778Y29069D02*
X27991D01*
Y28909D01*
X27885D01*
X27991D01*
Y28749D01*
X27671Y29069D02*
Y28749D01*
X27458D01*
X27352D02*
X27245D01*
X27298D01*
Y29069D01*
X27352Y29016D01*
X27085Y28803D02*
X27032Y28749D01*
X26925D01*
X26872Y28803D01*
Y29016D01*
X26925Y29069D01*
X27032D01*
X27085Y29016D01*
Y28963D01*
X27032Y28909D01*
X26872D01*
X36241Y5639D02*
X36561D01*
Y5799D01*
X36508Y5853D01*
X36401D01*
X36348Y5799D01*
Y5639D01*
Y5746D02*
X36241Y5853D01*
Y5959D02*
Y6066D01*
Y6013D01*
X36561D01*
X36508Y5959D01*
X36295Y6226D02*
X36241Y6279D01*
Y6386D01*
X36295Y6439D01*
X36508D01*
X36561Y6386D01*
Y6279D01*
X36508Y6226D01*
X36455D01*
X36401Y6279D01*
Y6439D01*
X29481Y4069D02*
X29801D01*
Y4229D01*
X29748Y4283D01*
X29641D01*
X29588Y4229D01*
Y4069D01*
Y4176D02*
X29481Y4283D01*
Y4603D02*
Y4389D01*
X29695Y4603D01*
X29748D01*
X29801Y4549D01*
Y4443D01*
X29748Y4389D01*
Y4709D02*
X29801Y4762D01*
Y4869D01*
X29748Y4922D01*
X29535D01*
X29481Y4869D01*
Y4762D01*
X29535Y4709D01*
X29748D01*
X32658Y4265D02*
X32711Y4319D01*
X32818D01*
X32871Y4265D01*
Y4212D01*
X32818Y4159D01*
X32711D01*
X32658Y4105D01*
Y4052D01*
X32711Y3999D01*
X32818D01*
X32871Y4052D01*
X32551Y3999D02*
X32445D01*
X32498D01*
Y4319D01*
X32551Y4265D01*
X25978Y4145D02*
X26031Y4199D01*
X26138D01*
X26191Y4145D01*
Y4092D01*
X26138Y4039D01*
X26031D01*
X25978Y3985D01*
Y3932D01*
X26031Y3879D01*
X26138D01*
X26191Y3932D01*
X25658Y3879D02*
X25871D01*
X25658Y4092D01*
Y4145D01*
X25712Y4199D01*
X25818D01*
X25871Y4145D01*
X32581Y28459D02*
Y28779D01*
X32421D01*
X32368Y28726D01*
Y28619D01*
X32421Y28566D01*
X32581D01*
X32475D02*
X32368Y28459D01*
X32048D02*
X32261D01*
X32048Y28673D01*
Y28726D01*
X32102Y28779D01*
X32208D01*
X32261Y28726D01*
X31942D02*
X31888Y28779D01*
X31782D01*
X31728Y28726D01*
Y28673D01*
X31782Y28619D01*
X31835D01*
X31782D01*
X31728Y28566D01*
Y28513D01*
X31782Y28459D01*
X31888D01*
X31942Y28513D01*
X36051Y5639D02*
X35731D01*
Y5799D01*
X35785Y5853D01*
X35998D01*
X36051Y5799D01*
Y5639D01*
X35731Y5959D02*
Y6066D01*
Y6013D01*
X36051D01*
X35998Y5959D01*
Y6226D02*
X36051Y6279D01*
Y6386D01*
X35998Y6439D01*
X35945D01*
X35891Y6386D01*
Y6332D01*
Y6386D01*
X35838Y6439D01*
X35785D01*
X35731Y6386D01*
Y6279D01*
X35785Y6226D01*
X35181Y5639D02*
X35501D01*
Y5799D01*
X35448Y5853D01*
X35341D01*
X35288Y5799D01*
Y5639D01*
Y5746D02*
X35181Y5853D01*
Y6173D02*
Y5959D01*
X35395Y6173D01*
X35448D01*
X35501Y6119D01*
Y6013D01*
X35448Y5959D01*
X35181Y6439D02*
X35501D01*
X35341Y6279D01*
Y6492D01*
X28491Y4069D02*
X28811D01*
Y4229D01*
X28758Y4283D01*
X28651D01*
X28598Y4229D01*
Y4069D01*
Y4176D02*
X28491Y4283D01*
Y4603D02*
Y4389D01*
X28705Y4603D01*
X28758D01*
X28811Y4549D01*
Y4443D01*
X28758Y4389D01*
X28811Y4922D02*
Y4709D01*
X28651D01*
X28705Y4816D01*
Y4869D01*
X28651Y4922D01*
X28545D01*
X28491Y4869D01*
Y4762D01*
X28545Y4709D01*
X33418Y8886D02*
X33471Y8939D01*
X33578D01*
X33631Y8886D01*
Y8673D01*
X33578Y8619D01*
X33471D01*
X33418Y8673D01*
X33311Y8939D02*
X33098D01*
Y8886D01*
X33311Y8673D01*
Y8619D01*
X32992Y8673D02*
X32938Y8619D01*
X32832D01*
X32778Y8673D01*
Y8886D01*
X32832Y8939D01*
X32938D01*
X32992Y8886D01*
Y8833D01*
X32938Y8779D01*
X32778D01*
X27578Y14243D02*
X27631Y14189D01*
Y14083D01*
X27578Y14029D01*
X27365D01*
X27311Y14083D01*
Y14189D01*
X27365Y14243D01*
X27578Y14349D02*
X27631Y14403D01*
Y14509D01*
X27578Y14563D01*
X27525D01*
X27471Y14509D01*
X27418Y14563D01*
X27365D01*
X27311Y14509D01*
Y14403D01*
X27365Y14349D01*
X27418D01*
X27471Y14403D01*
X27525Y14349D01*
X27578D01*
X27471Y14403D02*
Y14509D01*
X27578Y14669D02*
X27631Y14722D01*
Y14829D01*
X27578Y14882D01*
X27365D01*
X27311Y14829D01*
Y14722D01*
X27365Y14669D01*
X27578D01*
X27018Y27923D02*
X27071Y27869D01*
Y27763D01*
X27018Y27709D01*
X26805D01*
X26751Y27763D01*
Y27869D01*
X26805Y27923D01*
X27018Y28029D02*
X27071Y28083D01*
Y28189D01*
X27018Y28243D01*
X26965D01*
X26911Y28189D01*
X26858Y28243D01*
X26805D01*
X26751Y28189D01*
Y28083D01*
X26805Y28029D01*
X26858D01*
X26911Y28083D01*
X26965Y28029D01*
X27018D01*
X26911Y28083D02*
Y28189D01*
X26751Y28562D02*
Y28349D01*
X26965Y28562D01*
X27018D01*
X27071Y28509D01*
Y28402D01*
X27018Y28349D01*
X27888Y30336D02*
X27941Y30389D01*
X28048D01*
X28101Y30336D01*
Y30123D01*
X28048Y30069D01*
X27941D01*
X27888Y30123D01*
X27781Y30336D02*
X27728Y30389D01*
X27622D01*
X27568Y30336D01*
Y30283D01*
X27622Y30229D01*
X27568Y30176D01*
Y30123D01*
X27622Y30069D01*
X27728D01*
X27781Y30123D01*
Y30176D01*
X27728Y30229D01*
X27781Y30283D01*
Y30336D01*
X27728Y30229D02*
X27622D01*
X27462Y30336D02*
X27408Y30389D01*
X27302D01*
X27248Y30336D01*
Y30283D01*
X27302Y30229D01*
X27355D01*
X27302D01*
X27248Y30176D01*
Y30123D01*
X27302Y30069D01*
X27408D01*
X27462Y30123D01*
X25068Y14406D02*
X25121Y14459D01*
X25228D01*
X25281Y14406D01*
Y14193D01*
X25228Y14139D01*
X25121D01*
X25068Y14193D01*
X24961Y14406D02*
X24908Y14459D01*
X24801D01*
X24748Y14406D01*
Y14353D01*
X24801Y14299D01*
X24748Y14246D01*
Y14193D01*
X24801Y14139D01*
X24908D01*
X24961Y14193D01*
Y14246D01*
X24908Y14299D01*
X24961Y14353D01*
Y14406D01*
X24908Y14299D02*
X24801D01*
X24428Y14459D02*
X24642D01*
Y14299D01*
X24535Y14353D01*
X24482D01*
X24428Y14299D01*
Y14193D01*
X24482Y14139D01*
X24588D01*
X24642Y14193D01*
X31178Y19473D02*
X31231Y19419D01*
Y19313D01*
X31178Y19259D01*
X30965D01*
X30911Y19313D01*
Y19419D01*
X30965Y19473D01*
X31178Y19579D02*
X31231Y19633D01*
Y19739D01*
X31178Y19793D01*
X31125D01*
X31071Y19739D01*
X31018Y19793D01*
X30965D01*
X30911Y19739D01*
Y19633D01*
X30965Y19579D01*
X31018D01*
X31071Y19633D01*
X31125Y19579D01*
X31178D01*
X31071Y19633D02*
Y19739D01*
X31231Y20112D02*
X31178Y20006D01*
X31071Y19899D01*
X30965D01*
X30911Y19952D01*
Y20059D01*
X30965Y20112D01*
X31018D01*
X31071Y20059D01*
Y19899D01*
X32108Y17136D02*
X32161Y17189D01*
X32268D01*
X32321Y17136D01*
Y16923D01*
X32268Y16869D01*
X32161D01*
X32108Y16923D01*
X32001Y17136D02*
X31948Y17189D01*
X31841D01*
X31788Y17136D01*
Y17083D01*
X31841Y17029D01*
X31788Y16976D01*
Y16923D01*
X31841Y16869D01*
X31948D01*
X32001Y16923D01*
Y16976D01*
X31948Y17029D01*
X32001Y17083D01*
Y17136D01*
X31948Y17029D02*
X31841D01*
X31682Y17189D02*
X31468D01*
Y17136D01*
X31682Y16923D01*
Y16869D01*
X26991Y12484D02*
X27044Y12431D01*
Y12324D01*
X26991Y12271D01*
X26778D01*
X26724Y12324D01*
Y12431D01*
X26778Y12484D01*
X26991Y12591D02*
X27044Y12644D01*
Y12750D01*
X26991Y12804D01*
X26938D01*
X26884Y12750D01*
X26831Y12804D01*
X26778D01*
X26724Y12750D01*
Y12644D01*
X26778Y12591D01*
X26831D01*
X26884Y12644D01*
X26938Y12591D01*
X26991D01*
X26884Y12644D02*
Y12750D01*
X26991Y12910D02*
X27044Y12964D01*
Y13070D01*
X26991Y13124D01*
X26938D01*
X26884Y13070D01*
X26831Y13124D01*
X26778D01*
X26724Y13070D01*
Y12964D01*
X26778Y12910D01*
X26831D01*
X26884Y12964D01*
X26938Y12910D01*
X26991D01*
X26884Y12964D02*
Y13070D01*
X30288Y18266D02*
X30341Y18319D01*
X30448D01*
X30501Y18266D01*
Y18053D01*
X30448Y17999D01*
X30341D01*
X30288Y18053D01*
X30181Y18266D02*
X30128Y18319D01*
X30022D01*
X29968Y18266D01*
Y18213D01*
X30022Y18159D01*
X29968Y18106D01*
Y18053D01*
X30022Y17999D01*
X30128D01*
X30181Y18053D01*
Y18106D01*
X30128Y18159D01*
X30181Y18213D01*
Y18266D01*
X30128Y18159D02*
X30022D01*
X29862Y18053D02*
X29808Y17999D01*
X29702D01*
X29648Y18053D01*
Y18266D01*
X29702Y18319D01*
X29808D01*
X29862Y18266D01*
Y18213D01*
X29808Y18159D01*
X29648D01*
X29238Y19756D02*
X29291Y19809D01*
X29398D01*
X29451Y19756D01*
Y19543D01*
X29398Y19489D01*
X29291D01*
X29238Y19543D01*
X29131D02*
X29078Y19489D01*
X28972D01*
X28918Y19543D01*
Y19756D01*
X28972Y19809D01*
X29078D01*
X29131Y19756D01*
Y19703D01*
X29078Y19649D01*
X28918D01*
X28812Y19756D02*
X28758Y19809D01*
X28652D01*
X28598Y19756D01*
Y19543D01*
X28652Y19489D01*
X28758D01*
X28812Y19543D01*
Y19756D01*
X30018Y6819D02*
X30231D01*
Y6659D01*
X30125D01*
X30231D01*
Y6499D01*
X29911Y6819D02*
Y6499D01*
X29698D01*
X29592Y6766D02*
X29538Y6819D01*
X29432D01*
X29378Y6766D01*
Y6713D01*
X29432Y6659D01*
X29378Y6606D01*
Y6553D01*
X29432Y6499D01*
X29538D01*
X29592Y6553D01*
Y6606D01*
X29538Y6659D01*
X29592Y6713D01*
Y6766D01*
X29538Y6659D02*
X29432D01*
X33811Y7393D02*
Y7179D01*
X33651D01*
Y7286D01*
Y7179D01*
X33491D01*
X33811Y7499D02*
X33491D01*
Y7713D01*
X33545Y7819D02*
X33491Y7872D01*
Y7979D01*
X33545Y8032D01*
X33758D01*
X33811Y7979D01*
Y7872D01*
X33758Y7819D01*
X33705D01*
X33651Y7872D01*
Y8032D01*
X25291Y12713D02*
Y12499D01*
X25131D01*
Y12606D01*
Y12499D01*
X24971D01*
X25291Y12819D02*
X24971D01*
Y13033D01*
Y13139D02*
Y13246D01*
Y13192D01*
X25291D01*
X25238Y13139D01*
X24971Y13406D02*
Y13512D01*
Y13459D01*
X25291D01*
X25238Y13406D01*
X32221Y18193D02*
Y17979D01*
X32061D01*
Y18086D01*
Y17979D01*
X31901D01*
X32221Y18299D02*
X31901D01*
Y18513D01*
Y18619D02*
Y18726D01*
Y18672D01*
X32221D01*
X32168Y18619D01*
X31901Y19099D02*
Y18886D01*
X32115Y19099D01*
X32168D01*
X32221Y19046D01*
Y18939D01*
X32168Y18886D01*
X31458Y17789D02*
X31671D01*
Y17629D01*
X31565D01*
X31671D01*
Y17469D01*
X31351Y17789D02*
Y17469D01*
X31138D01*
X31032D02*
X30925D01*
X30978D01*
Y17789D01*
X31032Y17736D01*
X30765D02*
X30712Y17789D01*
X30605D01*
X30552Y17736D01*
Y17683D01*
X30605Y17629D01*
X30658D01*
X30605D01*
X30552Y17576D01*
Y17523D01*
X30605Y17469D01*
X30712D01*
X30765Y17523D01*
X26321Y11733D02*
Y11519D01*
X26161D01*
Y11626D01*
Y11519D01*
X26001D01*
X26321Y11839D02*
X26001D01*
Y12053D01*
Y12159D02*
Y12266D01*
Y12212D01*
X26321D01*
X26268Y12159D01*
X26001Y12586D02*
X26321D01*
X26161Y12426D01*
Y12639D01*
X30418Y20239D02*
X30631D01*
Y20079D01*
X30525D01*
X30631D01*
Y19919D01*
X30311Y20239D02*
Y19919D01*
X30098D01*
X29992D02*
X29885D01*
X29938D01*
Y20239D01*
X29992Y20186D01*
X29512Y20239D02*
X29618Y20186D01*
X29725Y20079D01*
Y19973D01*
X29672Y19919D01*
X29565D01*
X29512Y19973D01*
Y20026D01*
X29565Y20079D01*
X29725D01*
X25058Y26063D02*
Y26276D01*
X25111Y26329D01*
X25218D01*
X25271Y26276D01*
Y26063D01*
X25218Y26009D01*
X25111D01*
X25165Y26116D02*
X25058Y26009D01*
X25111D02*
X25058Y26063D01*
X24951Y26009D02*
X24845D01*
X24898D01*
Y26329D01*
X24951Y26276D01*
X26031Y26399D02*
X26351D01*
Y26559D01*
X26298Y26613D01*
X26191D01*
X26138Y26559D01*
Y26399D01*
Y26506D02*
X26031Y26613D01*
X26298Y26719D02*
X26351Y26773D01*
Y26879D01*
X26298Y26933D01*
X26245D01*
X26191Y26879D01*
Y26826D01*
Y26879D01*
X26138Y26933D01*
X26085D01*
X26031Y26879D01*
Y26773D01*
X26085Y26719D01*
X26351Y27252D02*
X26298Y27146D01*
X26191Y27039D01*
X26085D01*
X26031Y27092D01*
Y27199D01*
X26085Y27252D01*
X26138D01*
X26191Y27199D01*
Y27039D01*
X27838Y28546D02*
X27891Y28599D01*
X27998D01*
X28051Y28546D01*
Y28333D01*
X27998Y28279D01*
X27891D01*
X27838Y28333D01*
X27731D02*
X27678Y28279D01*
X27571D01*
X27518Y28333D01*
Y28546D01*
X27571Y28599D01*
X27678D01*
X27731Y28546D01*
Y28493D01*
X27678Y28439D01*
X27518D01*
X27198Y28279D02*
X27412D01*
X27198Y28493D01*
Y28546D01*
X27252Y28599D01*
X27358D01*
X27412Y28546D01*
X50609Y4313D02*
X50663Y4259D01*
Y4153D01*
X50609Y4099D01*
X50396D01*
X50343Y4153D01*
Y4259D01*
X50396Y4313D01*
X50343Y4419D02*
Y4526D01*
Y4473D01*
X50663D01*
X50609Y4419D01*
X50663Y4686D02*
Y4899D01*
X50609D01*
X50396Y4686D01*
X50343D01*
X56449Y6906D02*
X56503Y6959D01*
X56609D01*
X56663Y6906D01*
Y6693D01*
X56609Y6639D01*
X56503D01*
X56449Y6693D01*
X56343Y6639D02*
X56236D01*
X56289D01*
Y6959D01*
X56343Y6906D01*
X56076D02*
X56023Y6959D01*
X55916D01*
X55863Y6906D01*
Y6853D01*
X55916Y6799D01*
X55970D01*
X55916D01*
X55863Y6746D01*
Y6693D01*
X55916Y6639D01*
X56023D01*
X56076Y6693D01*
X49879Y13763D02*
X49933Y13709D01*
Y13603D01*
X49879Y13549D01*
X49666D01*
X49613Y13603D01*
Y13709D01*
X49666Y13763D01*
Y13869D02*
X49613Y13923D01*
Y14029D01*
X49666Y14083D01*
X49879D01*
X49933Y14029D01*
Y13923D01*
X49879Y13869D01*
X49826D01*
X49773Y13923D01*
Y14083D01*
X49933Y14402D02*
Y14189D01*
X49773D01*
X49826Y14296D01*
Y14349D01*
X49773Y14402D01*
X49666D01*
X49613Y14349D01*
Y14242D01*
X49666Y14189D01*
X54713Y26789D02*
X54499Y26469D01*
Y26789D02*
X54713Y26469D01*
X54393D02*
X54286D01*
X54339D01*
Y26789D01*
X54393Y26736D01*
X42289Y6079D02*
X42503D01*
Y5919D01*
X42396D01*
X42503D01*
Y5759D01*
X42183Y6079D02*
X42076D01*
X42129D01*
Y5759D01*
X42183D01*
X42076D01*
X41916Y6079D02*
Y5759D01*
X41756D01*
X41703Y5813D01*
Y6026D01*
X41756Y6079D01*
X41916D01*
X41383D02*
X41490Y6026D01*
X41596Y5919D01*
Y5813D01*
X41543Y5759D01*
X41436D01*
X41383Y5813D01*
Y5866D01*
X41436Y5919D01*
X41596D01*
X58229Y6299D02*
X58443D01*
Y6139D01*
X58336D01*
X58443D01*
Y5979D01*
X58123Y6299D02*
X58016D01*
X58069D01*
Y5979D01*
X58123D01*
X58016D01*
X57856Y6299D02*
Y5979D01*
X57696D01*
X57643Y6033D01*
Y6246D01*
X57696Y6299D01*
X57856D01*
X57323D02*
X57536D01*
Y6139D01*
X57430Y6193D01*
X57376D01*
X57323Y6139D01*
Y6033D01*
X57376Y5979D01*
X57483D01*
X57536Y6033D01*
X57609Y30759D02*
X57823D01*
Y30599D01*
X57716D01*
X57823D01*
Y30439D01*
X57503Y30759D02*
X57396D01*
X57449D01*
Y30439D01*
X57503D01*
X57396D01*
X57236Y30759D02*
Y30439D01*
X57076D01*
X57023Y30493D01*
Y30706D01*
X57076Y30759D01*
X57236D01*
X56756Y30439D02*
Y30759D01*
X56916Y30599D01*
X56703D01*
X48169Y10746D02*
X48223Y10799D01*
X48329D01*
X48383Y10746D01*
Y10533D01*
X48329Y10479D01*
X48223D01*
X48169Y10533D01*
X47850Y10799D02*
X47956Y10746D01*
X48063Y10639D01*
Y10533D01*
X48009Y10479D01*
X47903D01*
X47850Y10533D01*
Y10586D01*
X47903Y10639D01*
X48063D01*
X47530Y10799D02*
X47636Y10746D01*
X47743Y10639D01*
Y10533D01*
X47690Y10479D01*
X47583D01*
X47530Y10533D01*
Y10586D01*
X47583Y10639D01*
X47743D01*
X41939Y10066D02*
X42259D01*
Y10226D01*
X42206Y10280D01*
X42099D01*
X42046Y10226D01*
Y10066D01*
Y10173D02*
X41939Y10280D01*
Y10386D02*
Y10493D01*
Y10440D01*
X42259D01*
X42206Y10386D01*
X41939Y10653D02*
Y10760D01*
Y10706D01*
X42259D01*
X42206Y10653D01*
X41433Y10069D02*
X41753D01*
Y10229D01*
X41699Y10283D01*
X41593D01*
X41539Y10229D01*
Y10069D01*
Y10176D02*
X41433Y10283D01*
Y10389D02*
Y10496D01*
Y10443D01*
X41753D01*
X41699Y10389D01*
X41433Y10869D02*
Y10656D01*
X41646Y10869D01*
X41699D01*
X41753Y10816D01*
Y10709D01*
X41699Y10656D01*
X43823Y26629D02*
X44143D01*
Y26789D01*
X44089Y26843D01*
X43983D01*
X43929Y26789D01*
Y26629D01*
Y26736D02*
X43823Y26843D01*
X44143Y27163D02*
X44089Y27056D01*
X43983Y26949D01*
X43876D01*
X43823Y27003D01*
Y27109D01*
X43876Y27163D01*
X43929D01*
X43983Y27109D01*
Y26949D01*
X44563Y29839D02*
Y29573D01*
X44509Y29519D01*
X44403D01*
X44349Y29573D01*
Y29839D01*
X44243D02*
X44030D01*
Y29786D01*
X44243Y29573D01*
Y29519D01*
X51943Y8739D02*
Y8473D01*
X51889Y8419D01*
X51783D01*
X51729Y8473D01*
Y8739D01*
X51623Y8686D02*
X51569Y8739D01*
X51463D01*
X51410Y8686D01*
Y8633D01*
X51463Y8579D01*
X51410Y8526D01*
Y8473D01*
X51463Y8419D01*
X51569D01*
X51623Y8473D01*
Y8526D01*
X51569Y8579D01*
X51623Y8633D01*
Y8686D01*
X51569Y8579D02*
X51463D01*
X45149Y27886D02*
X45203Y27939D01*
X45309D01*
X45363Y27886D01*
Y27673D01*
X45309Y27619D01*
X45203D01*
X45149Y27673D01*
X45043Y27619D02*
X44936D01*
X44989D01*
Y27939D01*
X45043Y27886D01*
X44776D02*
X44723Y27939D01*
X44616D01*
X44563Y27886D01*
Y27833D01*
X44616Y27779D01*
X44563Y27726D01*
Y27673D01*
X44616Y27619D01*
X44723D01*
X44776Y27673D01*
Y27726D01*
X44723Y27779D01*
X44776Y27833D01*
Y27886D01*
X44723Y27779D02*
X44616D01*
X45579Y30866D02*
X45633Y30919D01*
X45739D01*
X45793Y30866D01*
Y30653D01*
X45739Y30599D01*
X45633D01*
X45579Y30653D01*
X45473Y30599D02*
X45366D01*
X45419D01*
Y30919D01*
X45473Y30866D01*
X45206Y30653D02*
X45153Y30599D01*
X45046D01*
X44993Y30653D01*
Y30866D01*
X45046Y30919D01*
X45153D01*
X45206Y30866D01*
Y30813D01*
X45153Y30759D01*
X44993D01*
X50829Y8233D02*
X50883Y8179D01*
Y8073D01*
X50829Y8019D01*
X50616D01*
X50563Y8073D01*
Y8179D01*
X50616Y8233D01*
X50563Y8553D02*
Y8339D01*
X50776Y8553D01*
X50829D01*
X50883Y8499D01*
Y8393D01*
X50829Y8339D01*
Y8659D02*
X50883Y8712D01*
Y8819D01*
X50829Y8872D01*
X50616D01*
X50563Y8819D01*
Y8712D01*
X50616Y8659D01*
X50829D01*
X52849Y6353D02*
X52903Y6299D01*
Y6193D01*
X52849Y6139D01*
X52636D01*
X52583Y6193D01*
Y6299D01*
X52636Y6353D01*
X52583Y6673D02*
Y6459D01*
X52796Y6673D01*
X52849D01*
X52903Y6619D01*
Y6513D01*
X52849Y6459D01*
X52583Y6779D02*
Y6886D01*
Y6832D01*
X52903D01*
X52849Y6779D01*
X50263Y15579D02*
X50583D01*
Y15739D01*
X50529Y15793D01*
X50423D01*
X50369Y15739D01*
Y15579D01*
Y15686D02*
X50263Y15793D01*
X50583Y16113D02*
Y15899D01*
X50423D01*
X50476Y16006D01*
Y16059D01*
X50423Y16113D01*
X50316D01*
X50263Y16059D01*
Y15953D01*
X50316Y15899D01*
X45709Y10976D02*
X45763Y11029D01*
X45869D01*
X45923Y10976D01*
Y10763D01*
X45869Y10709D01*
X45763D01*
X45709Y10763D01*
X45390Y10709D02*
X45603D01*
X45390Y10923D01*
Y10976D01*
X45443Y11029D01*
X45549D01*
X45603Y10976D01*
X45283D02*
X45230Y11029D01*
X45123D01*
X45070Y10976D01*
Y10923D01*
X45123Y10869D01*
X45176D01*
X45123D01*
X45070Y10816D01*
Y10763D01*
X45123Y10709D01*
X45230D01*
X45283Y10763D01*
X49429Y17643D02*
X49483Y17589D01*
Y17483D01*
X49429Y17429D01*
X49216D01*
X49163Y17483D01*
Y17589D01*
X49216Y17643D01*
X49163Y17749D02*
Y17856D01*
Y17803D01*
X49483D01*
X49429Y17749D01*
X49483Y18229D02*
Y18016D01*
X49323D01*
X49376Y18122D01*
Y18176D01*
X49323Y18229D01*
X49216D01*
X49163Y18176D01*
Y18069D01*
X49216Y18016D01*
X48549Y18853D02*
X48603Y18799D01*
Y18693D01*
X48549Y18639D01*
X48336D01*
X48283Y18693D01*
Y18799D01*
X48336Y18853D01*
X48283Y18959D02*
Y19066D01*
Y19013D01*
X48603D01*
X48549Y18959D01*
X48603Y19439D02*
X48549Y19332D01*
X48443Y19226D01*
X48336D01*
X48283Y19279D01*
Y19386D01*
X48336Y19439D01*
X48389D01*
X48443Y19386D01*
Y19226D01*
X46899Y17853D02*
X46953Y17799D01*
Y17693D01*
X46899Y17639D01*
X46686D01*
X46633Y17693D01*
Y17799D01*
X46686Y17853D01*
X46633Y18173D02*
Y17959D01*
X46846Y18173D01*
X46899D01*
X46953Y18119D01*
Y18013D01*
X46899Y17959D01*
X46953Y18492D02*
Y18279D01*
X46793D01*
X46846Y18386D01*
Y18439D01*
X46793Y18492D01*
X46686D01*
X46633Y18439D01*
Y18332D01*
X46686Y18279D01*
X47689Y15243D02*
X47743Y15189D01*
Y15083D01*
X47689Y15029D01*
X47476D01*
X47423Y15083D01*
Y15189D01*
X47476Y15243D01*
X47423Y15563D02*
Y15349D01*
X47636Y15563D01*
X47689D01*
X47743Y15509D01*
Y15403D01*
X47689Y15349D01*
X47743Y15882D02*
X47689Y15776D01*
X47583Y15669D01*
X47476D01*
X47423Y15722D01*
Y15829D01*
X47476Y15882D01*
X47529D01*
X47583Y15829D01*
Y15669D01*
X46449Y17853D02*
X46503Y17799D01*
Y17693D01*
X46449Y17639D01*
X46236D01*
X46183Y17693D01*
Y17799D01*
X46236Y17853D01*
X46183Y18173D02*
Y17959D01*
X46396Y18173D01*
X46449D01*
X46503Y18119D01*
Y18013D01*
X46449Y17959D01*
X46503Y18279D02*
Y18492D01*
X46449D01*
X46236Y18279D01*
X46183D01*
X45649Y16576D02*
X45703Y16629D01*
X45809D01*
X45863Y16576D01*
Y16363D01*
X45809Y16309D01*
X45703D01*
X45649Y16363D01*
X45330Y16309D02*
X45543D01*
X45330Y16523D01*
Y16576D01*
X45383Y16629D01*
X45489D01*
X45543Y16576D01*
X45223D02*
X45170Y16629D01*
X45063D01*
X45010Y16576D01*
Y16523D01*
X45063Y16469D01*
X45010Y16416D01*
Y16363D01*
X45063Y16309D01*
X45170D01*
X45223Y16363D01*
Y16416D01*
X45170Y16469D01*
X45223Y16523D01*
Y16576D01*
X45170Y16469D02*
X45063D01*
X45649Y16076D02*
X45703Y16129D01*
X45809D01*
X45863Y16076D01*
Y15863D01*
X45809Y15809D01*
X45703D01*
X45649Y15863D01*
X45330Y15809D02*
X45543D01*
X45330Y16023D01*
Y16076D01*
X45383Y16129D01*
X45489D01*
X45543Y16076D01*
X45223Y15863D02*
X45170Y15809D01*
X45063D01*
X45010Y15863D01*
Y16076D01*
X45063Y16129D01*
X45170D01*
X45223Y16076D01*
Y16023D01*
X45170Y15969D01*
X45010D01*
X51169Y17216D02*
X51223Y17269D01*
X51329D01*
X51383Y17216D01*
Y17003D01*
X51329Y16949D01*
X51223D01*
X51169Y17003D01*
X51063Y17216D02*
X51009Y17269D01*
X50903D01*
X50850Y17216D01*
Y17163D01*
X50903Y17109D01*
X50956D01*
X50903D01*
X50850Y17056D01*
Y17003D01*
X50903Y16949D01*
X51009D01*
X51063Y17003D01*
X50743Y17216D02*
X50690Y17269D01*
X50583D01*
X50530Y17216D01*
Y17003D01*
X50583Y16949D01*
X50690D01*
X50743Y17003D01*
Y17216D01*
X51149Y16766D02*
X51203Y16819D01*
X51309D01*
X51363Y16766D01*
Y16553D01*
X51309Y16499D01*
X51203D01*
X51149Y16553D01*
X51043Y16766D02*
X50989Y16819D01*
X50883D01*
X50830Y16766D01*
Y16713D01*
X50883Y16659D01*
X50936D01*
X50883D01*
X50830Y16606D01*
Y16553D01*
X50883Y16499D01*
X50989D01*
X51043Y16553D01*
X50723Y16499D02*
X50616D01*
X50670D01*
Y16819D01*
X50723Y16766D01*
X49409Y13753D02*
X49463Y13699D01*
Y13593D01*
X49409Y13539D01*
X49196D01*
X49143Y13593D01*
Y13699D01*
X49196Y13753D01*
X49409Y13859D02*
X49463Y13913D01*
Y14019D01*
X49409Y14073D01*
X49356D01*
X49303Y14019D01*
Y13966D01*
Y14019D01*
X49249Y14073D01*
X49196D01*
X49143Y14019D01*
Y13913D01*
X49196Y13859D01*
X49409Y14179D02*
X49463Y14232D01*
Y14339D01*
X49409Y14392D01*
X49356D01*
X49303Y14339D01*
Y14286D01*
Y14339D01*
X49249Y14392D01*
X49196D01*
X49143Y14339D01*
Y14232D01*
X49196Y14179D01*
X49879Y16046D02*
X49933Y16099D01*
X50039D01*
X50093Y16046D01*
Y15833D01*
X50039Y15779D01*
X49933D01*
X49879Y15833D01*
X49773Y16046D02*
X49719Y16099D01*
X49613D01*
X49560Y16046D01*
Y15993D01*
X49613Y15939D01*
X49666D01*
X49613D01*
X49560Y15886D01*
Y15833D01*
X49613Y15779D01*
X49719D01*
X49773Y15833D01*
X49293Y15779D02*
Y16099D01*
X49453Y15939D01*
X49240D01*
X48589Y13723D02*
X48643Y13669D01*
Y13563D01*
X48589Y13509D01*
X48376D01*
X48323Y13563D01*
Y13669D01*
X48376Y13723D01*
X48589Y13829D02*
X48643Y13883D01*
Y13989D01*
X48589Y14043D01*
X48536D01*
X48483Y13989D01*
Y13936D01*
Y13989D01*
X48429Y14043D01*
X48376D01*
X48323Y13989D01*
Y13883D01*
X48376Y13829D01*
X48643Y14362D02*
Y14149D01*
X48483D01*
X48536Y14256D01*
Y14309D01*
X48483Y14362D01*
X48376D01*
X48323Y14309D01*
Y14202D01*
X48376Y14149D01*
X49499Y16526D02*
X49553Y16579D01*
X49659D01*
X49713Y16526D01*
Y16313D01*
X49659Y16259D01*
X49553D01*
X49499Y16313D01*
X49393Y16526D02*
X49339Y16579D01*
X49233D01*
X49180Y16526D01*
Y16473D01*
X49233Y16419D01*
X49286D01*
X49233D01*
X49180Y16366D01*
Y16313D01*
X49233Y16259D01*
X49339D01*
X49393Y16313D01*
X48860Y16579D02*
X48966Y16526D01*
X49073Y16419D01*
Y16313D01*
X49020Y16259D01*
X48913D01*
X48860Y16313D01*
Y16366D01*
X48913Y16419D01*
X49073D01*
X46179Y14876D02*
X46233Y14929D01*
X46339D01*
X46393Y14876D01*
Y14663D01*
X46339Y14609D01*
X46233D01*
X46179Y14663D01*
X46073Y14876D02*
X46019Y14929D01*
X45913D01*
X45860Y14876D01*
Y14823D01*
X45913Y14769D01*
X45966D01*
X45913D01*
X45860Y14716D01*
Y14663D01*
X45913Y14609D01*
X46019D01*
X46073Y14663D01*
X45753Y14929D02*
X45540D01*
Y14876D01*
X45753Y14663D01*
Y14609D01*
X46279Y15596D02*
X46333Y15649D01*
X46439D01*
X46493Y15596D01*
Y15383D01*
X46439Y15329D01*
X46333D01*
X46279Y15383D01*
X46173Y15596D02*
X46119Y15649D01*
X46013D01*
X45960Y15596D01*
Y15543D01*
X46013Y15489D01*
X46066D01*
X46013D01*
X45960Y15436D01*
Y15383D01*
X46013Y15329D01*
X46119D01*
X46173Y15383D01*
X45853Y15596D02*
X45800Y15649D01*
X45693D01*
X45640Y15596D01*
Y15543D01*
X45693Y15489D01*
X45640Y15436D01*
Y15383D01*
X45693Y15329D01*
X45800D01*
X45853Y15383D01*
Y15436D01*
X45800Y15489D01*
X45853Y15543D01*
Y15596D01*
X45800Y15489D02*
X45693D01*
X47659Y18853D02*
X47713Y18799D01*
Y18693D01*
X47659Y18639D01*
X47446D01*
X47393Y18693D01*
Y18799D01*
X47446Y18853D01*
X47659Y18959D02*
X47713Y19013D01*
Y19119D01*
X47659Y19173D01*
X47606D01*
X47553Y19119D01*
Y19066D01*
Y19119D01*
X47499Y19173D01*
X47446D01*
X47393Y19119D01*
Y19013D01*
X47446Y18959D01*
Y19279D02*
X47393Y19332D01*
Y19439D01*
X47446Y19492D01*
X47659D01*
X47713Y19439D01*
Y19332D01*
X47659Y19279D01*
X47606D01*
X47553Y19332D01*
Y19492D01*
X48089Y18853D02*
X48143Y18799D01*
Y18693D01*
X48089Y18639D01*
X47876D01*
X47823Y18693D01*
Y18799D01*
X47876Y18853D01*
X47823Y19119D02*
X48143D01*
X47983Y18959D01*
Y19173D01*
X48089Y19279D02*
X48143Y19332D01*
Y19439D01*
X48089Y19492D01*
X47876D01*
X47823Y19439D01*
Y19332D01*
X47876Y19279D01*
X48089D01*
X47209Y18853D02*
X47263Y18799D01*
Y18693D01*
X47209Y18639D01*
X46996D01*
X46943Y18693D01*
Y18799D01*
X46996Y18853D01*
X46943Y19119D02*
X47263D01*
X47103Y18959D01*
Y19173D01*
X46943Y19279D02*
Y19386D01*
Y19332D01*
X47263D01*
X47209Y19279D01*
X47699Y16996D02*
X47753Y17049D01*
X47859D01*
X47913Y16996D01*
Y16783D01*
X47859Y16729D01*
X47753D01*
X47699Y16783D01*
X47433Y16729D02*
Y17049D01*
X47593Y16889D01*
X47380D01*
X47060Y16729D02*
X47273D01*
X47060Y16943D01*
Y16996D01*
X47113Y17049D01*
X47220D01*
X47273Y16996D01*
X47399Y16436D02*
X47453Y16489D01*
X47559D01*
X47613Y16436D01*
Y16223D01*
X47559Y16169D01*
X47453D01*
X47399Y16223D01*
X47080Y16489D02*
X47293D01*
Y16329D01*
X47186Y16383D01*
X47133D01*
X47080Y16329D01*
Y16223D01*
X47133Y16169D01*
X47239D01*
X47293Y16223D01*
X46760Y16169D02*
X46973D01*
X46760Y16383D01*
Y16436D01*
X46813Y16489D01*
X46920D01*
X46973Y16436D01*
X48659Y27706D02*
X48713Y27759D01*
X48819D01*
X48873Y27706D01*
Y27493D01*
X48819Y27439D01*
X48713D01*
X48659Y27493D01*
X48553Y27706D02*
X48499Y27759D01*
X48393D01*
X48340Y27706D01*
Y27653D01*
X48393Y27599D01*
X48446D01*
X48393D01*
X48340Y27546D01*
Y27493D01*
X48393Y27439D01*
X48499D01*
X48553Y27493D01*
X48020Y27439D02*
X48233D01*
X48020Y27653D01*
Y27706D01*
X48073Y27759D01*
X48180D01*
X48233Y27706D01*
X46679Y30163D02*
X46733Y30109D01*
Y30003D01*
X46679Y29949D01*
X46466D01*
X46413Y30003D01*
Y30109D01*
X46466Y30163D01*
X46413Y30429D02*
X46733D01*
X46573Y30269D01*
Y30483D01*
X46679Y30589D02*
X46733Y30642D01*
Y30749D01*
X46679Y30802D01*
X46626D01*
X46573Y30749D01*
Y30696D01*
Y30749D01*
X46519Y30802D01*
X46466D01*
X46413Y30749D01*
Y30642D01*
X46466Y30589D01*
X51559Y29253D02*
X51613Y29199D01*
Y29093D01*
X51559Y29039D01*
X51346D01*
X51293Y29093D01*
Y29199D01*
X51346Y29253D01*
X51613Y29573D02*
Y29359D01*
X51453D01*
X51506Y29466D01*
Y29519D01*
X51453Y29573D01*
X51346D01*
X51293Y29519D01*
Y29413D01*
X51346Y29359D01*
X51559Y29679D02*
X51613Y29732D01*
Y29839D01*
X51559Y29892D01*
X51506D01*
X51453Y29839D01*
Y29786D01*
Y29839D01*
X51399Y29892D01*
X51346D01*
X51293Y29839D01*
Y29732D01*
X51346Y29679D01*
X48759Y26816D02*
X48813Y26869D01*
X48919D01*
X48973Y26816D01*
Y26603D01*
X48919Y26549D01*
X48813D01*
X48759Y26603D01*
X48440Y26869D02*
X48653D01*
Y26709D01*
X48546Y26763D01*
X48493D01*
X48440Y26709D01*
Y26603D01*
X48493Y26549D01*
X48599D01*
X48653Y26603D01*
X48173Y26549D02*
Y26869D01*
X48333Y26709D01*
X48120D01*
X50349Y29193D02*
X50403Y29139D01*
Y29033D01*
X50349Y28979D01*
X50136D01*
X50083Y29033D01*
Y29139D01*
X50136Y29193D01*
X50403Y29513D02*
Y29299D01*
X50243D01*
X50296Y29406D01*
Y29459D01*
X50243Y29513D01*
X50136D01*
X50083Y29459D01*
Y29353D01*
X50136Y29299D01*
X50403Y29832D02*
Y29619D01*
X50243D01*
X50296Y29726D01*
Y29779D01*
X50243Y29832D01*
X50136D01*
X50083Y29779D01*
Y29672D01*
X50136Y29619D01*
X52089Y27766D02*
X52143Y27819D01*
X52249D01*
X52303Y27766D01*
Y27553D01*
X52249Y27499D01*
X52143D01*
X52089Y27553D01*
X51770Y27819D02*
X51983D01*
Y27659D01*
X51876Y27713D01*
X51823D01*
X51770Y27659D01*
Y27553D01*
X51823Y27499D01*
X51929D01*
X51983Y27553D01*
X51450Y27819D02*
X51556Y27766D01*
X51663Y27659D01*
Y27553D01*
X51610Y27499D01*
X51503D01*
X51450Y27553D01*
Y27606D01*
X51503Y27659D01*
X51663D01*
X49869Y29193D02*
X49923Y29139D01*
Y29033D01*
X49869Y28979D01*
X49656D01*
X49603Y29033D01*
Y29139D01*
X49656Y29193D01*
X49923Y29513D02*
Y29299D01*
X49763D01*
X49816Y29406D01*
Y29459D01*
X49763Y29513D01*
X49656D01*
X49603Y29459D01*
Y29353D01*
X49656Y29299D01*
Y29619D02*
X49603Y29672D01*
Y29779D01*
X49656Y29832D01*
X49869D01*
X49923Y29779D01*
Y29672D01*
X49869Y29619D01*
X49816D01*
X49763Y29672D01*
Y29832D01*
X48638Y30323D02*
X48691Y30269D01*
Y30163D01*
X48638Y30110D01*
X48425D01*
X48372Y30163D01*
Y30269D01*
X48425Y30323D01*
X48691Y30643D02*
X48638Y30536D01*
X48532Y30429D01*
X48425D01*
X48372Y30483D01*
Y30589D01*
X48425Y30643D01*
X48478D01*
X48532Y30589D01*
Y30429D01*
X48638Y30749D02*
X48691Y30803D01*
Y30909D01*
X48638Y30963D01*
X48425D01*
X48372Y30909D01*
Y30803D01*
X48425Y30749D01*
X48638D01*
X49393Y4069D02*
X49073D01*
Y4229D01*
X49126Y4283D01*
X49339D01*
X49393Y4229D01*
Y4069D01*
X49073Y4603D02*
Y4389D01*
X49286Y4603D01*
X49339D01*
X49393Y4549D01*
Y4443D01*
X49339Y4389D01*
X47889Y29069D02*
X48103D01*
Y28909D01*
X47996D01*
X48103D01*
Y28749D01*
X47783Y29069D02*
Y28749D01*
X47570D01*
X47463D02*
X47356D01*
X47410D01*
Y29069D01*
X47463Y29016D01*
X47196Y28803D02*
X47143Y28749D01*
X47036D01*
X46983Y28803D01*
Y29016D01*
X47036Y29069D01*
X47143D01*
X47196Y29016D01*
Y28963D01*
X47143Y28909D01*
X46983D01*
X56353Y5639D02*
X56673D01*
Y5799D01*
X56619Y5853D01*
X56513D01*
X56459Y5799D01*
Y5639D01*
Y5746D02*
X56353Y5853D01*
Y5959D02*
Y6066D01*
Y6013D01*
X56673D01*
X56619Y5959D01*
X56406Y6226D02*
X56353Y6279D01*
Y6386D01*
X56406Y6439D01*
X56619D01*
X56673Y6386D01*
Y6279D01*
X56619Y6226D01*
X56566D01*
X56513Y6279D01*
Y6439D01*
X49593Y4069D02*
X49913D01*
Y4229D01*
X49859Y4283D01*
X49753D01*
X49699Y4229D01*
Y4069D01*
Y4176D02*
X49593Y4283D01*
Y4603D02*
Y4389D01*
X49806Y4603D01*
X49859D01*
X49913Y4549D01*
Y4443D01*
X49859Y4389D01*
Y4709D02*
X49913Y4762D01*
Y4869D01*
X49859Y4922D01*
X49646D01*
X49593Y4869D01*
Y4762D01*
X49646Y4709D01*
X49859D01*
X52769Y4265D02*
X52823Y4319D01*
X52929D01*
X52983Y4265D01*
Y4212D01*
X52929Y4159D01*
X52823D01*
X52769Y4105D01*
Y4052D01*
X52823Y3999D01*
X52929D01*
X52983Y4052D01*
X52663Y3999D02*
X52556D01*
X52609D01*
Y4319D01*
X52663Y4265D01*
X46089Y4145D02*
X46143Y4199D01*
X46249D01*
X46303Y4145D01*
Y4092D01*
X46249Y4039D01*
X46143D01*
X46089Y3985D01*
Y3932D01*
X46143Y3879D01*
X46249D01*
X46303Y3932D01*
X45770Y3879D02*
X45983D01*
X45770Y4092D01*
Y4145D01*
X45823Y4199D01*
X45929D01*
X45983Y4145D01*
X52693Y28459D02*
Y28779D01*
X52533D01*
X52479Y28726D01*
Y28619D01*
X52533Y28566D01*
X52693D01*
X52586D02*
X52479Y28459D01*
X52160D02*
X52373D01*
X52160Y28673D01*
Y28726D01*
X52213Y28779D01*
X52319D01*
X52373Y28726D01*
X52053D02*
X52000Y28779D01*
X51893D01*
X51840Y28726D01*
Y28673D01*
X51893Y28619D01*
X51946D01*
X51893D01*
X51840Y28566D01*
Y28513D01*
X51893Y28459D01*
X52000D01*
X52053Y28513D01*
X56163Y5639D02*
X55843D01*
Y5799D01*
X55896Y5853D01*
X56109D01*
X56163Y5799D01*
Y5639D01*
X55843Y5959D02*
Y6066D01*
Y6013D01*
X56163D01*
X56109Y5959D01*
Y6226D02*
X56163Y6279D01*
Y6386D01*
X56109Y6439D01*
X56056D01*
X56003Y6386D01*
Y6332D01*
Y6386D01*
X55949Y6439D01*
X55896D01*
X55843Y6386D01*
Y6279D01*
X55896Y6226D01*
X55293Y5639D02*
X55613D01*
Y5799D01*
X55559Y5853D01*
X55453D01*
X55399Y5799D01*
Y5639D01*
Y5746D02*
X55293Y5853D01*
Y6173D02*
Y5959D01*
X55506Y6173D01*
X55559D01*
X55613Y6119D01*
Y6013D01*
X55559Y5959D01*
X55293Y6439D02*
X55613D01*
X55453Y6279D01*
Y6492D01*
X48603Y4069D02*
X48923D01*
Y4229D01*
X48869Y4283D01*
X48763D01*
X48709Y4229D01*
Y4069D01*
Y4176D02*
X48603Y4283D01*
Y4603D02*
Y4389D01*
X48816Y4603D01*
X48869D01*
X48923Y4549D01*
Y4443D01*
X48869Y4389D01*
X48923Y4922D02*
Y4709D01*
X48763D01*
X48816Y4816D01*
Y4869D01*
X48763Y4922D01*
X48656D01*
X48603Y4869D01*
Y4762D01*
X48656Y4709D01*
X53529Y8886D02*
X53583Y8939D01*
X53689D01*
X53743Y8886D01*
Y8673D01*
X53689Y8619D01*
X53583D01*
X53529Y8673D01*
X53423Y8939D02*
X53210D01*
Y8886D01*
X53423Y8673D01*
Y8619D01*
X53103Y8673D02*
X53050Y8619D01*
X52943D01*
X52890Y8673D01*
Y8886D01*
X52943Y8939D01*
X53050D01*
X53103Y8886D01*
Y8833D01*
X53050Y8779D01*
X52890D01*
X47689Y14243D02*
X47743Y14189D01*
Y14083D01*
X47689Y14029D01*
X47476D01*
X47423Y14083D01*
Y14189D01*
X47476Y14243D01*
X47689Y14349D02*
X47743Y14403D01*
Y14509D01*
X47689Y14563D01*
X47636D01*
X47583Y14509D01*
X47529Y14563D01*
X47476D01*
X47423Y14509D01*
Y14403D01*
X47476Y14349D01*
X47529D01*
X47583Y14403D01*
X47636Y14349D01*
X47689D01*
X47583Y14403D02*
Y14509D01*
X47689Y14669D02*
X47743Y14722D01*
Y14829D01*
X47689Y14882D01*
X47476D01*
X47423Y14829D01*
Y14722D01*
X47476Y14669D01*
X47689D01*
X47129Y27923D02*
X47183Y27869D01*
Y27763D01*
X47129Y27709D01*
X46916D01*
X46863Y27763D01*
Y27869D01*
X46916Y27923D01*
X47129Y28029D02*
X47183Y28083D01*
Y28189D01*
X47129Y28243D01*
X47076D01*
X47023Y28189D01*
X46969Y28243D01*
X46916D01*
X46863Y28189D01*
Y28083D01*
X46916Y28029D01*
X46969D01*
X47023Y28083D01*
X47076Y28029D01*
X47129D01*
X47023Y28083D02*
Y28189D01*
X46863Y28562D02*
Y28349D01*
X47076Y28562D01*
X47129D01*
X47183Y28509D01*
Y28402D01*
X47129Y28349D01*
X47999Y30336D02*
X48053Y30389D01*
X48159D01*
X48213Y30336D01*
Y30123D01*
X48159Y30069D01*
X48053D01*
X47999Y30123D01*
X47893Y30336D02*
X47839Y30389D01*
X47733D01*
X47680Y30336D01*
Y30283D01*
X47733Y30229D01*
X47680Y30176D01*
Y30123D01*
X47733Y30069D01*
X47839D01*
X47893Y30123D01*
Y30176D01*
X47839Y30229D01*
X47893Y30283D01*
Y30336D01*
X47839Y30229D02*
X47733D01*
X47573Y30336D02*
X47520Y30389D01*
X47413D01*
X47360Y30336D01*
Y30283D01*
X47413Y30229D01*
X47466D01*
X47413D01*
X47360Y30176D01*
Y30123D01*
X47413Y30069D01*
X47520D01*
X47573Y30123D01*
X45179Y14406D02*
X45233Y14459D01*
X45339D01*
X45393Y14406D01*
Y14193D01*
X45339Y14139D01*
X45233D01*
X45179Y14193D01*
X45073Y14406D02*
X45019Y14459D01*
X44913D01*
X44860Y14406D01*
Y14353D01*
X44913Y14299D01*
X44860Y14246D01*
Y14193D01*
X44913Y14139D01*
X45019D01*
X45073Y14193D01*
Y14246D01*
X45019Y14299D01*
X45073Y14353D01*
Y14406D01*
X45019Y14299D02*
X44913D01*
X44540Y14459D02*
X44753D01*
Y14299D01*
X44646Y14353D01*
X44593D01*
X44540Y14299D01*
Y14193D01*
X44593Y14139D01*
X44700D01*
X44753Y14193D01*
X51289Y19473D02*
X51343Y19419D01*
Y19313D01*
X51289Y19259D01*
X51076D01*
X51023Y19313D01*
Y19419D01*
X51076Y19473D01*
X51289Y19579D02*
X51343Y19633D01*
Y19739D01*
X51289Y19793D01*
X51236D01*
X51183Y19739D01*
X51129Y19793D01*
X51076D01*
X51023Y19739D01*
Y19633D01*
X51076Y19579D01*
X51129D01*
X51183Y19633D01*
X51236Y19579D01*
X51289D01*
X51183Y19633D02*
Y19739D01*
X51343Y20112D02*
X51289Y20006D01*
X51183Y19899D01*
X51076D01*
X51023Y19952D01*
Y20059D01*
X51076Y20112D01*
X51129D01*
X51183Y20059D01*
Y19899D01*
X52219Y17136D02*
X52273Y17189D01*
X52379D01*
X52433Y17136D01*
Y16923D01*
X52379Y16869D01*
X52273D01*
X52219Y16923D01*
X52113Y17136D02*
X52059Y17189D01*
X51953D01*
X51900Y17136D01*
Y17083D01*
X51953Y17029D01*
X51900Y16976D01*
Y16923D01*
X51953Y16869D01*
X52059D01*
X52113Y16923D01*
Y16976D01*
X52059Y17029D01*
X52113Y17083D01*
Y17136D01*
X52059Y17029D02*
X51953D01*
X51793Y17189D02*
X51580D01*
Y17136D01*
X51793Y16923D01*
Y16869D01*
X47102Y12484D02*
X47156Y12431D01*
Y12324D01*
X47102Y12271D01*
X46889D01*
X46836Y12324D01*
Y12431D01*
X46889Y12484D01*
X47102Y12591D02*
X47156Y12644D01*
Y12750D01*
X47102Y12804D01*
X47049D01*
X46996Y12750D01*
X46942Y12804D01*
X46889D01*
X46836Y12750D01*
Y12644D01*
X46889Y12591D01*
X46942D01*
X46996Y12644D01*
X47049Y12591D01*
X47102D01*
X46996Y12644D02*
Y12750D01*
X47102Y12910D02*
X47156Y12964D01*
Y13070D01*
X47102Y13124D01*
X47049D01*
X46996Y13070D01*
X46942Y13124D01*
X46889D01*
X46836Y13070D01*
Y12964D01*
X46889Y12910D01*
X46942D01*
X46996Y12964D01*
X47049Y12910D01*
X47102D01*
X46996Y12964D02*
Y13070D01*
X50399Y18266D02*
X50453Y18319D01*
X50559D01*
X50613Y18266D01*
Y18053D01*
X50559Y17999D01*
X50453D01*
X50399Y18053D01*
X50293Y18266D02*
X50239Y18319D01*
X50133D01*
X50080Y18266D01*
Y18213D01*
X50133Y18159D01*
X50080Y18106D01*
Y18053D01*
X50133Y17999D01*
X50239D01*
X50293Y18053D01*
Y18106D01*
X50239Y18159D01*
X50293Y18213D01*
Y18266D01*
X50239Y18159D02*
X50133D01*
X49973Y18053D02*
X49920Y17999D01*
X49813D01*
X49760Y18053D01*
Y18266D01*
X49813Y18319D01*
X49920D01*
X49973Y18266D01*
Y18213D01*
X49920Y18159D01*
X49760D01*
X49349Y19756D02*
X49403Y19809D01*
X49509D01*
X49563Y19756D01*
Y19543D01*
X49509Y19489D01*
X49403D01*
X49349Y19543D01*
X49243D02*
X49189Y19489D01*
X49083D01*
X49030Y19543D01*
Y19756D01*
X49083Y19809D01*
X49189D01*
X49243Y19756D01*
Y19703D01*
X49189Y19649D01*
X49030D01*
X48923Y19756D02*
X48870Y19809D01*
X48763D01*
X48710Y19756D01*
Y19543D01*
X48763Y19489D01*
X48870D01*
X48923Y19543D01*
Y19756D01*
X50129Y6819D02*
X50343D01*
Y6659D01*
X50236D01*
X50343D01*
Y6499D01*
X50023Y6819D02*
Y6499D01*
X49810D01*
X49703Y6766D02*
X49650Y6819D01*
X49543D01*
X49490Y6766D01*
Y6713D01*
X49543Y6659D01*
X49490Y6606D01*
Y6553D01*
X49543Y6499D01*
X49650D01*
X49703Y6553D01*
Y6606D01*
X49650Y6659D01*
X49703Y6713D01*
Y6766D01*
X49650Y6659D02*
X49543D01*
X53923Y7393D02*
Y7179D01*
X53763D01*
Y7286D01*
Y7179D01*
X53603D01*
X53923Y7499D02*
X53603D01*
Y7713D01*
X53656Y7819D02*
X53603Y7872D01*
Y7979D01*
X53656Y8032D01*
X53869D01*
X53923Y7979D01*
Y7872D01*
X53869Y7819D01*
X53816D01*
X53763Y7872D01*
Y8032D01*
X45403Y12713D02*
Y12499D01*
X45243D01*
Y12606D01*
Y12499D01*
X45083D01*
X45403Y12819D02*
X45083D01*
Y13033D01*
Y13139D02*
Y13246D01*
Y13192D01*
X45403D01*
X45349Y13139D01*
X45083Y13406D02*
Y13512D01*
Y13459D01*
X45403D01*
X45349Y13406D01*
X52333Y18193D02*
Y17979D01*
X52173D01*
Y18086D01*
Y17979D01*
X52013D01*
X52333Y18299D02*
X52013D01*
Y18513D01*
Y18619D02*
Y18726D01*
Y18672D01*
X52333D01*
X52279Y18619D01*
X52013Y19099D02*
Y18886D01*
X52226Y19099D01*
X52279D01*
X52333Y19046D01*
Y18939D01*
X52279Y18886D01*
X51569Y17789D02*
X51783D01*
Y17629D01*
X51676D01*
X51783D01*
Y17469D01*
X51463Y17789D02*
Y17469D01*
X51250D01*
X51143D02*
X51036D01*
X51090D01*
Y17789D01*
X51143Y17736D01*
X50876D02*
X50823Y17789D01*
X50716D01*
X50663Y17736D01*
Y17683D01*
X50716Y17629D01*
X50770D01*
X50716D01*
X50663Y17576D01*
Y17523D01*
X50716Y17469D01*
X50823D01*
X50876Y17523D01*
X46433Y11733D02*
Y11519D01*
X46273D01*
Y11626D01*
Y11519D01*
X46113D01*
X46433Y11839D02*
X46113D01*
Y12053D01*
Y12159D02*
Y12266D01*
Y12212D01*
X46433D01*
X46379Y12159D01*
X46113Y12586D02*
X46433D01*
X46273Y12426D01*
Y12639D01*
X50529Y20239D02*
X50743D01*
Y20079D01*
X50636D01*
X50743D01*
Y19919D01*
X50423Y20239D02*
Y19919D01*
X50210D01*
X50103D02*
X49996D01*
X50050D01*
Y20239D01*
X50103Y20186D01*
X49623Y20239D02*
X49730Y20186D01*
X49836Y20079D01*
Y19973D01*
X49783Y19919D01*
X49676D01*
X49623Y19973D01*
Y20026D01*
X49676Y20079D01*
X49836D01*
X45169Y26063D02*
Y26276D01*
X45223Y26329D01*
X45329D01*
X45383Y26276D01*
Y26063D01*
X45329Y26009D01*
X45223D01*
X45276Y26116D02*
X45169Y26009D01*
X45223D02*
X45169Y26063D01*
X45063Y26009D02*
X44956D01*
X45009D01*
Y26329D01*
X45063Y26276D01*
X46143Y26399D02*
X46463D01*
Y26559D01*
X46409Y26613D01*
X46303D01*
X46249Y26559D01*
Y26399D01*
Y26506D02*
X46143Y26613D01*
X46409Y26719D02*
X46463Y26773D01*
Y26879D01*
X46409Y26933D01*
X46356D01*
X46303Y26879D01*
Y26826D01*
Y26879D01*
X46249Y26933D01*
X46196D01*
X46143Y26879D01*
Y26773D01*
X46196Y26719D01*
X46463Y27252D02*
X46409Y27146D01*
X46303Y27039D01*
X46196D01*
X46143Y27092D01*
Y27199D01*
X46196Y27252D01*
X46249D01*
X46303Y27199D01*
Y27039D01*
X47949Y28546D02*
X48003Y28599D01*
X48109D01*
X48163Y28546D01*
Y28333D01*
X48109Y28279D01*
X48003D01*
X47949Y28333D01*
X47843D02*
X47789Y28279D01*
X47683D01*
X47630Y28333D01*
Y28546D01*
X47683Y28599D01*
X47789D01*
X47843Y28546D01*
Y28493D01*
X47789Y28439D01*
X47630D01*
X47310Y28279D02*
X47523D01*
X47310Y28493D01*
Y28546D01*
X47363Y28599D01*
X47470D01*
X47523Y28546D01*
D12*
X12856Y30004D02*
G03*
X12856Y30004I-57J0D01*
G01*
X13172Y27307D02*
Y30417D01*
X14275D01*
Y30732D01*
X14826D01*
Y26992D02*
Y30732D01*
X14275Y26992D02*
X14826D01*
X14275Y26992D02*
Y27307D01*
X13172D02*
X14275D01*
X32967Y30004D02*
G03*
X32967Y30004I-57J0D01*
G01*
X33284Y27307D02*
Y30417D01*
X34386D01*
Y30732D01*
X34937D01*
Y26992D02*
Y30732D01*
X34386Y26992D02*
X34937D01*
X34386Y26992D02*
Y27307D01*
X33284D02*
X34386D01*
X53078Y30004D02*
G03*
X53078Y30004I-57J0D01*
G01*
X53395Y27307D02*
Y30417D01*
X54497D01*
Y30732D01*
X55049D01*
Y26992D02*
Y30732D01*
X54497Y26992D02*
X55049D01*
X54497Y26992D02*
Y27307D01*
X53395D02*
X54497D01*
D50*
X12832Y3729D02*
X14210D01*
X12832Y2587D02*
Y3729D01*
Y2587D02*
X13186D01*
Y2331D02*
Y2587D01*
Y2331D02*
X13856D01*
Y2587D01*
X14210D01*
Y3729D01*
X13186Y2587D02*
X13856D01*
X6726Y2597D02*
X7396D01*
X7750D02*
Y3738D01*
X7396Y2597D02*
X7750D01*
X7396Y2341D02*
Y2597D01*
X6726Y2341D02*
X7396D01*
X6726D02*
Y2597D01*
X6372D02*
X6726D01*
X6372D02*
Y3738D01*
X7750D01*
X10921Y30109D02*
X19611D01*
X10921Y23449D02*
Y30109D01*
Y23449D02*
X19611D01*
X32943Y3729D02*
X34321D01*
X32943Y2587D02*
Y3729D01*
Y2587D02*
X33298D01*
Y2331D02*
Y2587D01*
Y2331D02*
X33967D01*
Y2587D01*
X34321D01*
Y3729D01*
X33298Y2587D02*
X33967D01*
X26838Y2597D02*
X27507D01*
X27861D02*
Y3738D01*
X27507Y2597D02*
X27861D01*
X27507Y2341D02*
Y2597D01*
X26838Y2341D02*
X27507D01*
X26838D02*
Y2597D01*
X26483D02*
X26838D01*
X26483D02*
Y3738D01*
X27861D01*
X31033Y30109D02*
X39723D01*
X31033Y23449D02*
Y30109D01*
Y23449D02*
X39723D01*
X53055Y3729D02*
X54433D01*
X53055Y2587D02*
Y3729D01*
Y2587D02*
X53409D01*
Y2331D02*
Y2587D01*
Y2331D02*
X54078D01*
Y2587D01*
X54433D01*
Y3729D01*
X53409Y2587D02*
X54078D01*
X46949Y2597D02*
X47618D01*
X47973D02*
Y3738D01*
X47618Y2597D02*
X47973D01*
X47618Y2341D02*
Y2597D01*
X46949Y2341D02*
X47618D01*
X46949D02*
Y2597D01*
X46595D02*
X46949D01*
X46595D02*
Y3738D01*
X47973D01*
X51144Y30109D02*
X59834D01*
X51144Y23449D02*
Y30109D01*
Y23449D02*
X59834D01*
D53*
X12340Y22439D02*
X12660D01*
Y22599D01*
X12607Y22653D01*
X12500D01*
X12447Y22599D01*
Y22439D01*
Y22546D02*
X12340Y22653D01*
X12607Y22973D02*
X12660Y22919D01*
Y22813D01*
X12607Y22759D01*
X12553D01*
X12500Y22813D01*
Y22919D01*
X12447Y22973D01*
X12393D01*
X12340Y22919D01*
Y22813D01*
X12393Y22759D01*
X12660Y23079D02*
Y23292D01*
Y23186D01*
X12340D01*
X32451Y22439D02*
X32771D01*
Y22599D01*
X32718Y22653D01*
X32611D01*
X32558Y22599D01*
Y22439D01*
Y22546D02*
X32451Y22653D01*
X32718Y22973D02*
X32771Y22919D01*
Y22813D01*
X32718Y22759D01*
X32665D01*
X32611Y22813D01*
Y22919D01*
X32558Y22973D01*
X32505D01*
X32451Y22919D01*
Y22813D01*
X32505Y22759D01*
X32771Y23079D02*
Y23292D01*
Y23186D01*
X32451D01*
X52563Y22439D02*
X52883D01*
Y22599D01*
X52829Y22653D01*
X52723D01*
X52669Y22599D01*
Y22439D01*
Y22546D02*
X52563Y22653D01*
X52829Y22973D02*
X52883Y22919D01*
Y22813D01*
X52829Y22759D01*
X52776D01*
X52723Y22813D01*
Y22919D01*
X52669Y22973D01*
X52616D01*
X52563Y22919D01*
Y22813D01*
X52616Y22759D01*
X52883Y23079D02*
Y23292D01*
Y23186D01*
X52563D01*
D102*
X5849Y28761D02*
G03*
X5849Y28761I-49J0D01*
G01*
X11077Y6891D02*
G03*
X11077Y6891I-49J0D01*
G01*
X5265Y27392D02*
G03*
X5265Y27392I-49J0D01*
G01*
X25960Y28761D02*
G03*
X25960Y28761I-49J0D01*
G01*
X31189Y6891D02*
G03*
X31189Y6891I-49J0D01*
G01*
X25377Y27392D02*
G03*
X25377Y27392I-49J0D01*
G01*
X46072Y28761D02*
G03*
X46072Y28761I-49J0D01*
G01*
X51300Y6891D02*
G03*
X51300Y6891I-49J0D01*
G01*
X45488Y27392D02*
G03*
X45488Y27392I-49J0D01*
G01*
D105*
X9207Y3423D02*
G03*
X9207Y3423I-20J0D01*
G01*
X15654Y3418D02*
G03*
X15654Y3418I-20J0D01*
G01*
X29319Y3423D02*
G03*
X29319Y3423I-20J0D01*
G01*
X35765Y3418D02*
G03*
X35765Y3418I-20J0D01*
G01*
X49430Y3423D02*
G03*
X49430Y3423I-20J0D01*
G01*
X55877Y3418D02*
G03*
X55877Y3418I-20J0D01*
G01*
D106*
X4481Y29440D02*
X5701D01*
X4481Y29085D02*
X5701D01*
X4481D02*
Y29440D01*
X5701Y29085D02*
Y29440D01*
X11707Y6989D02*
Y8210D01*
X11353Y6989D02*
Y8210D01*
X11707D01*
X11353Y6989D02*
X11707D01*
X4891Y26575D02*
Y27244D01*
X4931Y26575D02*
Y27244D01*
X4891Y26575D02*
X4931D01*
X4891Y27244D02*
X4931D01*
X24592Y29440D02*
X25813D01*
X24592Y29085D02*
X25813D01*
X24592D02*
Y29440D01*
X25813Y29085D02*
Y29440D01*
X31819Y6989D02*
Y8210D01*
X31464Y6989D02*
Y8210D01*
X31819D01*
X31464Y6989D02*
X31819D01*
X25003Y26575D02*
Y27244D01*
X25042Y26575D02*
Y27244D01*
X25003Y26575D02*
X25042D01*
X25003Y27244D02*
X25042D01*
X44704Y29440D02*
X45924D01*
X44704Y29085D02*
X45924D01*
X44704D02*
Y29440D01*
X45924Y29085D02*
Y29440D01*
X51930Y6989D02*
Y8210D01*
X51576Y6989D02*
Y8210D01*
X51930D01*
X51576Y6989D02*
X51930D01*
X45114Y26575D02*
Y27244D01*
X45153Y26575D02*
Y27244D01*
X45114Y26575D02*
X45153D01*
X45114Y27244D02*
X45153D01*
M02*
