G04 Layer_Color=8421504*
%FSLAX24Y24*%
%MOIN*%
G70*
G01*
G75*
G04:AMPARAMS|DCode=11|XSize=78.7mil|YSize=78.7mil|CornerRadius=39.4mil|HoleSize=0mil|Usage=FLASHONLY|Rotation=90.000|XOffset=0mil|YOffset=0mil|HoleType=Round|Shape=RoundedRectangle|*
%AMROUNDEDRECTD11*
21,1,0.0787,0.0000,0,0,90.0*
21,1,0.0000,0.0787,0,0,90.0*
1,1,0.0787,0.0000,0.0000*
1,1,0.0787,0.0000,0.0000*
1,1,0.0787,0.0000,0.0000*
1,1,0.0787,0.0000,0.0000*
%
%ADD11ROUNDEDRECTD11*%
%ADD36C,0.0098*%
%ADD107C,0.0330*%
%ADD108R,0.0120X0.0102*%
%ADD109R,0.0512X0.0137*%
%ADD110R,0.0590X0.0571*%
%ADD111R,0.0126X0.0177*%
%ADD112R,0.0118X0.0090*%
%ADD113R,0.0728X0.0098*%
G04:AMPARAMS|DCode=114|XSize=20mil|YSize=22mil|CornerRadius=3.4mil|HoleSize=0mil|Usage=FLASHONLY|Rotation=270.000|XOffset=0mil|YOffset=0mil|HoleType=Round|Shape=RoundedRectangle|*
%AMROUNDEDRECTD114*
21,1,0.0200,0.0152,0,0,270.0*
21,1,0.0132,0.0220,0,0,270.0*
1,1,0.0068,-0.0076,-0.0066*
1,1,0.0068,-0.0076,0.0066*
1,1,0.0068,0.0076,0.0066*
1,1,0.0068,0.0076,-0.0066*
%
%ADD114ROUNDEDRECTD114*%
G04:AMPARAMS|DCode=115|XSize=27.1mil|YSize=37.4mil|CornerRadius=4.8mil|HoleSize=0mil|Usage=FLASHONLY|Rotation=180.000|XOffset=0mil|YOffset=0mil|HoleType=Round|Shape=RoundedRectangle|*
%AMROUNDEDRECTD115*
21,1,0.0271,0.0277,0,0,180.0*
21,1,0.0175,0.0374,0,0,180.0*
1,1,0.0097,-0.0087,0.0139*
1,1,0.0097,0.0087,0.0139*
1,1,0.0097,0.0087,-0.0139*
1,1,0.0097,-0.0087,-0.0139*
%
%ADD115ROUNDEDRECTD115*%
G04:AMPARAMS|DCode=116|XSize=27.1mil|YSize=37.4mil|CornerRadius=4.8mil|HoleSize=0mil|Usage=FLASHONLY|Rotation=90.000|XOffset=0mil|YOffset=0mil|HoleType=Round|Shape=RoundedRectangle|*
%AMROUNDEDRECTD116*
21,1,0.0271,0.0277,0,0,90.0*
21,1,0.0175,0.0374,0,0,90.0*
1,1,0.0097,0.0139,0.0087*
1,1,0.0097,0.0139,-0.0087*
1,1,0.0097,-0.0139,-0.0087*
1,1,0.0097,-0.0139,0.0087*
%
%ADD116ROUNDEDRECTD116*%
G04:AMPARAMS|DCode=117|XSize=20mil|YSize=22mil|CornerRadius=3.4mil|HoleSize=0mil|Usage=FLASHONLY|Rotation=0.000|XOffset=0mil|YOffset=0mil|HoleType=Round|Shape=RoundedRectangle|*
%AMROUNDEDRECTD117*
21,1,0.0200,0.0152,0,0,0.0*
21,1,0.0132,0.0220,0,0,0.0*
1,1,0.0068,0.0066,-0.0076*
1,1,0.0068,-0.0066,-0.0076*
1,1,0.0068,-0.0066,0.0076*
1,1,0.0068,0.0066,0.0076*
%
%ADD117ROUNDEDRECTD117*%
%ADD118O,0.0315X0.0078*%
%ADD119O,0.0078X0.0315*%
%ADD120R,0.2067X0.2067*%
%ADD121R,0.0315X0.0197*%
%ADD122O,0.0433X0.0078*%
%ADD123R,0.0590X0.1043*%
G04:AMPARAMS|DCode=124|XSize=50mil|YSize=58mil|CornerRadius=12mil|HoleSize=0mil|Usage=FLASHONLY|Rotation=90.000|XOffset=0mil|YOffset=0mil|HoleType=Round|Shape=RoundedRectangle|*
%AMROUNDEDRECTD124*
21,1,0.0500,0.0340,0,0,90.0*
21,1,0.0260,0.0580,0,0,90.0*
1,1,0.0240,0.0170,0.0130*
1,1,0.0240,0.0170,-0.0130*
1,1,0.0240,-0.0170,-0.0130*
1,1,0.0240,-0.0170,0.0130*
%
%ADD124ROUNDEDRECTD124*%
%ADD125R,0.0260X0.0180*%
%ADD126O,0.0630X0.0275*%
%ADD127R,0.1240X0.1909*%
%ADD128R,0.0334X0.0137*%
%ADD129R,0.0500X0.0400*%
G04:AMPARAMS|DCode=130|XSize=48mil|YSize=48mil|CornerRadius=24mil|HoleSize=0mil|Usage=FLASHONLY|Rotation=270.000|XOffset=0mil|YOffset=0mil|HoleType=Round|Shape=RoundedRectangle|*
%AMROUNDEDRECTD130*
21,1,0.0480,0.0000,0,0,270.0*
21,1,0.0000,0.0480,0,0,270.0*
1,1,0.0480,0.0000,0.0000*
1,1,0.0480,0.0000,0.0000*
1,1,0.0480,0.0000,0.0000*
1,1,0.0480,0.0000,0.0000*
%
%ADD130ROUNDEDRECTD130*%
%ADD131R,0.1397X0.1397*%
%ADD132O,0.0078X0.0275*%
%ADD133O,0.0275X0.0078*%
%ADD134R,0.1082X0.0275*%
%ADD135R,0.0098X0.0138*%
G04:AMPARAMS|DCode=136|XSize=48mil|YSize=48mil|CornerRadius=24mil|HoleSize=0mil|Usage=FLASHONLY|Rotation=180.000|XOffset=0mil|YOffset=0mil|HoleType=Round|Shape=RoundedRectangle|*
%AMROUNDEDRECTD136*
21,1,0.0480,0.0000,0,0,180.0*
21,1,0.0000,0.0480,0,0,180.0*
1,1,0.0480,0.0000,0.0000*
1,1,0.0480,0.0000,0.0000*
1,1,0.0480,0.0000,0.0000*
1,1,0.0480,0.0000,0.0000*
%
%ADD136ROUNDEDRECTD136*%
G36*
X41035Y26458D02*
X41056Y26449D01*
X41076Y26436D01*
X41084Y26427D01*
X41093Y26418D01*
Y26418D01*
X41101Y26410D01*
X41114Y26391D01*
X41123Y26369D01*
X41128Y26346D01*
Y26334D01*
Y25832D01*
X40537D01*
Y26334D01*
Y26346D01*
X40542Y26369D01*
X40551Y26391D01*
X40564Y26410D01*
X40572Y26418D01*
X40587Y26433D01*
Y26433D01*
X40594Y26440D01*
X40610Y26451D01*
X40629Y26458D01*
X40648Y26462D01*
X41012D01*
X41035Y26458D01*
D02*
G37*
G36*
X20923D02*
X20945Y26449D01*
X20964Y26436D01*
X20973Y26427D01*
X20982Y26418D01*
Y26418D01*
X20990Y26410D01*
X21003Y26391D01*
X21012Y26369D01*
X21017Y26346D01*
Y26334D01*
Y25832D01*
X20426D01*
Y26334D01*
Y26346D01*
X20431Y26369D01*
X20440Y26391D01*
X20453Y26410D01*
X20461Y26418D01*
X20475Y26433D01*
Y26433D01*
X20482Y26440D01*
X20499Y26451D01*
X20517Y26458D01*
X20537Y26462D01*
X20900D01*
X20923Y26458D01*
D02*
G37*
G36*
X812D02*
X834Y26449D01*
X853Y26436D01*
X861Y26427D01*
X870Y26418D01*
Y26418D01*
X879Y26410D01*
X892Y26391D01*
X901Y26369D01*
X905Y26346D01*
Y26334D01*
Y25832D01*
X315D01*
Y26334D01*
Y26346D01*
X319Y26369D01*
X328Y26391D01*
X341Y26410D01*
X350Y26418D01*
X364Y26433D01*
Y26433D01*
X371Y26440D01*
X387Y26451D01*
X406Y26458D01*
X425Y26462D01*
X789D01*
X812Y26458D01*
D02*
G37*
G36*
X41980Y26133D02*
X42001Y26124D01*
X42021Y26111D01*
X42029Y26103D01*
X42033Y26098D01*
X42033Y26098D01*
X42043Y26089D01*
X42058Y26067D01*
X42068Y26042D01*
X42073Y26016D01*
Y26003D01*
Y25799D01*
Y25786D01*
X42068Y25760D01*
X42058Y25736D01*
X42043Y25714D01*
X42033Y25704D01*
X42024Y25695D01*
X42002Y25680D01*
X41978Y25670D01*
X41952Y25665D01*
X41835D01*
X41812Y25670D01*
X41790Y25678D01*
X41771Y25691D01*
X41762Y25700D01*
X41758Y25704D01*
X41749Y25714D01*
X41734Y25736D01*
X41724Y25760D01*
X41719Y25786D01*
Y25799D01*
Y26017D01*
Y26027D01*
X41722Y26046D01*
X41730Y26065D01*
X41741Y26081D01*
X41748Y26088D01*
X41762Y26103D01*
X41771Y26111D01*
X41790Y26124D01*
X41812Y26133D01*
X41835Y26137D01*
X41957D01*
X41980Y26133D01*
D02*
G37*
G36*
X21868D02*
X21890Y26124D01*
X21909Y26111D01*
X21918Y26103D01*
X21922Y26098D01*
X21922Y26098D01*
X21932Y26089D01*
X21946Y26067D01*
X21956Y26042D01*
X21962Y26016D01*
Y26003D01*
Y25799D01*
Y25786D01*
X21956Y25760D01*
X21946Y25736D01*
X21932Y25714D01*
X21922Y25704D01*
X21913Y25695D01*
X21891Y25680D01*
X21866Y25670D01*
X21840Y25665D01*
X21723D01*
X21700Y25670D01*
X21679Y25678D01*
X21659Y25691D01*
X21651Y25700D01*
X21647Y25704D01*
X21637Y25714D01*
X21622Y25736D01*
X21612Y25760D01*
X21607Y25786D01*
Y25799D01*
Y26017D01*
Y26027D01*
X21611Y26046D01*
X21619Y26065D01*
X21630Y26081D01*
X21637Y26088D01*
X21651Y26103D01*
X21659Y26111D01*
X21679Y26124D01*
X21700Y26133D01*
X21723Y26137D01*
X21845D01*
X21868Y26133D01*
D02*
G37*
G36*
X1757D02*
X1778Y26124D01*
X1798Y26111D01*
X1806Y26103D01*
X1811Y26098D01*
X1811Y26098D01*
X1820Y26089D01*
X1835Y26067D01*
X1845Y26042D01*
X1850Y26016D01*
Y26003D01*
Y25799D01*
Y25786D01*
X1845Y25760D01*
X1835Y25736D01*
X1820Y25714D01*
X1811Y25704D01*
X1801Y25695D01*
X1779Y25680D01*
X1755Y25670D01*
X1729Y25665D01*
X1612D01*
X1589Y25670D01*
X1567Y25678D01*
X1548Y25691D01*
X1540Y25700D01*
X1535Y25704D01*
X1526Y25714D01*
X1511Y25736D01*
X1501Y25760D01*
X1496Y25786D01*
Y25799D01*
Y26017D01*
Y26027D01*
X1500Y26046D01*
X1507Y26065D01*
X1518Y26081D01*
X1525Y26088D01*
X1540Y26103D01*
X1548Y26111D01*
X1567Y26124D01*
X1589Y26133D01*
X1612Y26137D01*
X1734D01*
X1757Y26133D01*
D02*
G37*
G36*
X41980Y24164D02*
X42001Y24155D01*
X42021Y24142D01*
X42029Y24134D01*
X42033Y24130D01*
X42033Y24130D01*
X42043Y24120D01*
X42058Y24098D01*
X42068Y24074D01*
X42073Y24048D01*
Y24034D01*
Y23831D01*
Y23818D01*
X42068Y23792D01*
X42058Y23767D01*
X42043Y23745D01*
X42033Y23736D01*
X42024Y23726D01*
X42002Y23712D01*
X41978Y23702D01*
X41952Y23696D01*
X41835D01*
X41812Y23701D01*
X41790Y23710D01*
X41771Y23723D01*
X41762Y23731D01*
X41758Y23736D01*
X41749Y23745D01*
X41734Y23767D01*
X41724Y23792D01*
X41719Y23818D01*
Y23831D01*
Y24048D01*
Y24058D01*
X41722Y24078D01*
X41730Y24096D01*
X41741Y24113D01*
X41748Y24120D01*
X41762Y24134D01*
X41771Y24142D01*
X41790Y24155D01*
X41812Y24164D01*
X41835Y24169D01*
X41957D01*
X41980Y24164D01*
D02*
G37*
G36*
X21868D02*
X21890Y24155D01*
X21909Y24142D01*
X21918Y24134D01*
X21922Y24130D01*
X21922Y24130D01*
X21932Y24120D01*
X21946Y24098D01*
X21956Y24074D01*
X21962Y24048D01*
Y24034D01*
Y23831D01*
Y23818D01*
X21956Y23792D01*
X21946Y23767D01*
X21932Y23745D01*
X21922Y23736D01*
X21913Y23726D01*
X21891Y23712D01*
X21866Y23702D01*
X21840Y23696D01*
X21723D01*
X21700Y23701D01*
X21679Y23710D01*
X21659Y23723D01*
X21651Y23731D01*
X21647Y23736D01*
X21637Y23745D01*
X21622Y23767D01*
X21612Y23792D01*
X21607Y23818D01*
Y23831D01*
Y24048D01*
Y24058D01*
X21611Y24078D01*
X21619Y24096D01*
X21630Y24113D01*
X21637Y24120D01*
X21651Y24134D01*
X21659Y24142D01*
X21679Y24155D01*
X21700Y24164D01*
X21723Y24169D01*
X21845D01*
X21868Y24164D01*
D02*
G37*
G36*
X1757D02*
X1778Y24155D01*
X1798Y24142D01*
X1806Y24134D01*
X1811Y24130D01*
X1811Y24130D01*
X1820Y24120D01*
X1835Y24098D01*
X1845Y24074D01*
X1850Y24048D01*
Y24034D01*
Y23831D01*
Y23818D01*
X1845Y23792D01*
X1835Y23767D01*
X1820Y23745D01*
X1811Y23736D01*
X1801Y23726D01*
X1779Y23712D01*
X1755Y23702D01*
X1729Y23696D01*
X1612D01*
X1589Y23701D01*
X1567Y23710D01*
X1548Y23723D01*
X1540Y23731D01*
X1535Y23736D01*
X1526Y23745D01*
X1511Y23767D01*
X1501Y23792D01*
X1496Y23818D01*
Y23831D01*
Y24048D01*
Y24058D01*
X1500Y24078D01*
X1507Y24096D01*
X1518Y24113D01*
X1525Y24120D01*
X1540Y24134D01*
X1548Y24142D01*
X1567Y24155D01*
X1589Y24164D01*
X1612Y24169D01*
X1734D01*
X1757Y24164D01*
D02*
G37*
G36*
X41128Y23500D02*
Y23488D01*
X41123Y23465D01*
X41114Y23443D01*
X41101Y23424D01*
X41093Y23416D01*
X41084Y23406D01*
X41076Y23398D01*
X41056Y23385D01*
X41035Y23376D01*
X41012Y23372D01*
X40648D01*
X40629Y23376D01*
X40610Y23383D01*
X40594Y23394D01*
X40587Y23401D01*
X40572Y23416D01*
X40564Y23424D01*
X40551Y23443D01*
X40542Y23465D01*
X40537Y23488D01*
Y23500D01*
Y24002D01*
X41128D01*
Y23500D01*
D02*
G37*
G36*
X21017D02*
Y23488D01*
X21012Y23465D01*
X21003Y23443D01*
X20990Y23424D01*
X20982Y23416D01*
X20973Y23406D01*
X20964Y23398D01*
X20945Y23385D01*
X20923Y23376D01*
X20900Y23372D01*
X20537D01*
X20517Y23376D01*
X20499Y23383D01*
X20482Y23394D01*
X20475Y23401D01*
X20461Y23416D01*
X20453Y23424D01*
X20440Y23443D01*
X20431Y23465D01*
X20426Y23488D01*
Y23500D01*
Y24002D01*
X21017D01*
Y23500D01*
D02*
G37*
G36*
X905D02*
Y23488D01*
X901Y23465D01*
X892Y23443D01*
X879Y23424D01*
X870Y23416D01*
X861Y23406D01*
X853Y23398D01*
X834Y23385D01*
X812Y23376D01*
X789Y23372D01*
X425D01*
X406Y23376D01*
X387Y23383D01*
X371Y23394D01*
X364Y23401D01*
X350Y23416D01*
X341Y23424D01*
X328Y23443D01*
X319Y23465D01*
X315Y23488D01*
Y23500D01*
Y24002D01*
X905D01*
Y23500D01*
D02*
G37*
D11*
X3789Y1289D02*
D03*
X56151Y1319D02*
D03*
Y32519D02*
D03*
X3789D02*
D03*
D36*
X6105Y15906D02*
D03*
X6361D02*
D03*
X6873D02*
D03*
X7129D02*
D03*
X7385D02*
D03*
X7641D02*
D03*
X8152D02*
D03*
X8408D02*
D03*
X6361Y15650D02*
D03*
X8152D02*
D03*
X8408D02*
D03*
X6361Y15394D02*
D03*
X6617D02*
D03*
X6873D02*
D03*
X7129D02*
D03*
X7385D02*
D03*
X7641D02*
D03*
X7896D02*
D03*
X8152D02*
D03*
X8408D02*
D03*
X6105Y15138D02*
D03*
X6361D02*
D03*
X6617D02*
D03*
X6873D02*
D03*
X7129D02*
D03*
X7385D02*
D03*
X7641D02*
D03*
X7896D02*
D03*
X8152D02*
D03*
X8408D02*
D03*
Y16161D02*
D03*
X8152D02*
D03*
X7641D02*
D03*
X7385D02*
D03*
X7129D02*
D03*
X6873D02*
D03*
X8408Y16417D02*
D03*
X8152D02*
D03*
X7641D02*
D03*
X7385D02*
D03*
X7129D02*
D03*
X6873D02*
D03*
X6105D02*
D03*
X8408Y16673D02*
D03*
X8152D02*
D03*
X7641D02*
D03*
X7385D02*
D03*
X7129D02*
D03*
X6873D02*
D03*
X6361D02*
D03*
X6105D02*
D03*
X8408Y16929D02*
D03*
X8152D02*
D03*
X6361D02*
D03*
X6105D02*
D03*
X8408Y17185D02*
D03*
X8152D02*
D03*
X7896D02*
D03*
X7641D02*
D03*
X7385D02*
D03*
X7129D02*
D03*
X6873D02*
D03*
X6617D02*
D03*
X6361D02*
D03*
X6105D02*
D03*
X8408Y17441D02*
D03*
X8152D02*
D03*
X7896D02*
D03*
X7641D02*
D03*
X7385D02*
D03*
X7129D02*
D03*
X6873D02*
D03*
X6617D02*
D03*
X6361D02*
D03*
X6105D02*
D03*
Y15394D02*
D03*
Y15650D02*
D03*
X6361Y16161D02*
D03*
X6105D02*
D03*
X6361Y16417D02*
D03*
X26216Y15906D02*
D03*
X26472D02*
D03*
X26984D02*
D03*
X27240D02*
D03*
X27496D02*
D03*
X27752D02*
D03*
X28264D02*
D03*
X28520D02*
D03*
X26472Y15650D02*
D03*
X28264D02*
D03*
X28520D02*
D03*
X26472Y15394D02*
D03*
X26728D02*
D03*
X26984D02*
D03*
X27240D02*
D03*
X27496D02*
D03*
X27752D02*
D03*
X28008D02*
D03*
X28264D02*
D03*
X28520D02*
D03*
X26216Y15138D02*
D03*
X26472D02*
D03*
X26728D02*
D03*
X26984D02*
D03*
X27240D02*
D03*
X27496D02*
D03*
X27752D02*
D03*
X28008D02*
D03*
X28264D02*
D03*
X28520D02*
D03*
Y16161D02*
D03*
X28264D02*
D03*
X27752D02*
D03*
X27496D02*
D03*
X27240D02*
D03*
X26984D02*
D03*
X28520Y16417D02*
D03*
X28264D02*
D03*
X27752D02*
D03*
X27496D02*
D03*
X27240D02*
D03*
X26984D02*
D03*
X26216D02*
D03*
X28520Y16673D02*
D03*
X28264D02*
D03*
X27752D02*
D03*
X27496D02*
D03*
X27240D02*
D03*
X26984D02*
D03*
X26472D02*
D03*
X26216D02*
D03*
X28520Y16929D02*
D03*
X28264D02*
D03*
X26472D02*
D03*
X26216D02*
D03*
X28520Y17185D02*
D03*
X28264D02*
D03*
X28008D02*
D03*
X27752D02*
D03*
X27496D02*
D03*
X27240D02*
D03*
X26984D02*
D03*
X26728D02*
D03*
X26472D02*
D03*
X26216D02*
D03*
X28520Y17441D02*
D03*
X28264D02*
D03*
X28008D02*
D03*
X27752D02*
D03*
X27496D02*
D03*
X27240D02*
D03*
X26984D02*
D03*
X26728D02*
D03*
X26472D02*
D03*
X26216D02*
D03*
Y15394D02*
D03*
Y15650D02*
D03*
X26472Y16161D02*
D03*
X26216D02*
D03*
X26472Y16417D02*
D03*
X46328Y15906D02*
D03*
X46584D02*
D03*
X47096D02*
D03*
X47351D02*
D03*
X47607D02*
D03*
X47863D02*
D03*
X48375D02*
D03*
X48631D02*
D03*
X46584Y15650D02*
D03*
X48375D02*
D03*
X48631D02*
D03*
X46584Y15394D02*
D03*
X46840D02*
D03*
X47096D02*
D03*
X47351D02*
D03*
X47607D02*
D03*
X47863D02*
D03*
X48119D02*
D03*
X48375D02*
D03*
X48631D02*
D03*
X46328Y15138D02*
D03*
X46584D02*
D03*
X46840D02*
D03*
X47096D02*
D03*
X47351D02*
D03*
X47607D02*
D03*
X47863D02*
D03*
X48119D02*
D03*
X48375D02*
D03*
X48631D02*
D03*
Y16161D02*
D03*
X48375D02*
D03*
X47863D02*
D03*
X47607D02*
D03*
X47351D02*
D03*
X47096D02*
D03*
X48631Y16417D02*
D03*
X48375D02*
D03*
X47863D02*
D03*
X47607D02*
D03*
X47351D02*
D03*
X47096D02*
D03*
X46328D02*
D03*
X48631Y16673D02*
D03*
X48375D02*
D03*
X47863D02*
D03*
X47607D02*
D03*
X47351D02*
D03*
X47096D02*
D03*
X46584D02*
D03*
X46328D02*
D03*
X48631Y16929D02*
D03*
X48375D02*
D03*
X46584D02*
D03*
X46328D02*
D03*
X48631Y17185D02*
D03*
X48375D02*
D03*
X48119D02*
D03*
X47863D02*
D03*
X47607D02*
D03*
X47351D02*
D03*
X47096D02*
D03*
X46840D02*
D03*
X46584D02*
D03*
X46328D02*
D03*
X48631Y17441D02*
D03*
X48375D02*
D03*
X48119D02*
D03*
X47863D02*
D03*
X47607D02*
D03*
X47351D02*
D03*
X47096D02*
D03*
X46840D02*
D03*
X46584D02*
D03*
X46328D02*
D03*
Y15394D02*
D03*
Y15650D02*
D03*
X46584Y16161D02*
D03*
X46328D02*
D03*
X46584Y16417D02*
D03*
D107*
X1165Y6649D02*
G03*
X1165Y6649I-165J0D01*
G01*
X3114Y6885D02*
G03*
X3114Y6885I-165J0D01*
G01*
X1165Y12830D02*
G03*
X1165Y12830I-165J0D01*
G01*
X3114Y12594D02*
G03*
X3114Y12594I-165J0D01*
G01*
X21277Y6649D02*
G03*
X21277Y6649I-165J0D01*
G01*
X23225Y6885D02*
G03*
X23225Y6885I-165J0D01*
G01*
X21277Y12830D02*
G03*
X21277Y12830I-165J0D01*
G01*
X23225Y12594D02*
G03*
X23225Y12594I-165J0D01*
G01*
X41388Y6649D02*
G03*
X41388Y6649I-165J0D01*
G01*
X43337Y6885D02*
G03*
X43337Y6885I-165J0D01*
G01*
X41388Y12830D02*
G03*
X41388Y12830I-165J0D01*
G01*
X43337Y12594D02*
G03*
X43337Y12594I-165J0D01*
G01*
D108*
X2903Y25254D02*
D03*
X2903Y25057D02*
D03*
X2903Y24860D02*
D03*
X2637Y24860D02*
D03*
X2637Y25057D02*
D03*
X2637Y25254D02*
D03*
X23014Y25254D02*
D03*
X23014Y25057D02*
D03*
X23014Y24860D02*
D03*
X22748Y24860D02*
D03*
X22748Y25057D02*
D03*
X22748Y25254D02*
D03*
X43125Y25254D02*
D03*
X43125Y25057D02*
D03*
X43125Y24860D02*
D03*
X42860Y24860D02*
D03*
X42860Y25057D02*
D03*
X42860Y25254D02*
D03*
D109*
X1673Y24405D02*
D03*
Y24661D02*
D03*
Y24917D02*
D03*
Y25173D02*
D03*
Y25429D02*
D03*
X21784Y24405D02*
D03*
Y24661D02*
D03*
Y24917D02*
D03*
Y25173D02*
D03*
Y25429D02*
D03*
X41896Y24405D02*
D03*
Y24661D02*
D03*
Y24917D02*
D03*
Y25173D02*
D03*
Y25429D02*
D03*
D110*
X610Y25311D02*
D03*
Y24523D02*
D03*
X20721Y25311D02*
D03*
Y24523D02*
D03*
X40833Y25311D02*
D03*
Y24523D02*
D03*
D111*
X1928Y17264D02*
D03*
X1247Y14193D02*
D03*
Y17264D02*
D03*
X1928Y14193D02*
D03*
X22040Y17264D02*
D03*
X21359Y14193D02*
D03*
Y17264D02*
D03*
X22040Y14193D02*
D03*
X42151Y17264D02*
D03*
X41470Y14193D02*
D03*
Y17264D02*
D03*
X42151Y14193D02*
D03*
D112*
X1948Y16988D02*
D03*
Y16831D02*
D03*
Y16673D02*
D03*
Y16516D02*
D03*
Y16358D02*
D03*
Y16201D02*
D03*
Y16043D02*
D03*
Y15886D02*
D03*
Y15728D02*
D03*
Y15571D02*
D03*
Y15413D02*
D03*
Y15256D02*
D03*
Y15098D02*
D03*
Y14941D02*
D03*
Y14783D02*
D03*
Y14626D02*
D03*
Y14469D02*
D03*
X1227D02*
D03*
Y16988D02*
D03*
Y16831D02*
D03*
Y16673D02*
D03*
Y16516D02*
D03*
Y16358D02*
D03*
Y16201D02*
D03*
Y16043D02*
D03*
Y15886D02*
D03*
Y15728D02*
D03*
Y15571D02*
D03*
Y15413D02*
D03*
Y15256D02*
D03*
Y15098D02*
D03*
Y14941D02*
D03*
Y14783D02*
D03*
Y14626D02*
D03*
X22059Y16988D02*
D03*
Y16831D02*
D03*
Y16673D02*
D03*
Y16516D02*
D03*
Y16358D02*
D03*
Y16201D02*
D03*
Y16043D02*
D03*
Y15886D02*
D03*
Y15728D02*
D03*
Y15571D02*
D03*
Y15413D02*
D03*
Y15256D02*
D03*
Y15098D02*
D03*
Y14941D02*
D03*
Y14783D02*
D03*
Y14626D02*
D03*
Y14469D02*
D03*
X21339D02*
D03*
Y16988D02*
D03*
Y16831D02*
D03*
Y16673D02*
D03*
Y16516D02*
D03*
Y16358D02*
D03*
Y16201D02*
D03*
Y16043D02*
D03*
Y15886D02*
D03*
Y15728D02*
D03*
Y15571D02*
D03*
Y15413D02*
D03*
Y15256D02*
D03*
Y15098D02*
D03*
Y14941D02*
D03*
Y14783D02*
D03*
Y14626D02*
D03*
X42171Y16988D02*
D03*
Y16831D02*
D03*
Y16673D02*
D03*
Y16516D02*
D03*
Y16358D02*
D03*
Y16201D02*
D03*
Y16043D02*
D03*
Y15886D02*
D03*
Y15728D02*
D03*
Y15571D02*
D03*
Y15413D02*
D03*
Y15256D02*
D03*
Y15098D02*
D03*
Y14941D02*
D03*
Y14783D02*
D03*
Y14626D02*
D03*
Y14469D02*
D03*
X41450D02*
D03*
Y16988D02*
D03*
Y16831D02*
D03*
Y16673D02*
D03*
Y16516D02*
D03*
Y16358D02*
D03*
Y16201D02*
D03*
Y16043D02*
D03*
Y15886D02*
D03*
Y15728D02*
D03*
Y15571D02*
D03*
Y15413D02*
D03*
Y15256D02*
D03*
Y15098D02*
D03*
Y14941D02*
D03*
Y14783D02*
D03*
Y14626D02*
D03*
D113*
X3343Y11413D02*
D03*
Y11216D02*
D03*
Y11019D02*
D03*
Y10822D02*
D03*
Y10625D02*
D03*
Y10428D02*
D03*
Y10231D02*
D03*
Y10035D02*
D03*
Y9838D02*
D03*
Y9641D02*
D03*
Y9444D02*
D03*
Y9247D02*
D03*
Y9050D02*
D03*
Y8854D02*
D03*
Y8657D02*
D03*
Y8460D02*
D03*
Y8263D02*
D03*
Y8066D02*
D03*
Y7869D02*
D03*
X23454Y11413D02*
D03*
Y11216D02*
D03*
Y11019D02*
D03*
Y10822D02*
D03*
Y10625D02*
D03*
Y10428D02*
D03*
Y10231D02*
D03*
Y10035D02*
D03*
Y9838D02*
D03*
Y9641D02*
D03*
Y9444D02*
D03*
Y9247D02*
D03*
Y9050D02*
D03*
Y8854D02*
D03*
Y8657D02*
D03*
Y8460D02*
D03*
Y8263D02*
D03*
Y8066D02*
D03*
Y7869D02*
D03*
X43565Y11413D02*
D03*
Y11216D02*
D03*
Y11019D02*
D03*
Y10822D02*
D03*
Y10625D02*
D03*
Y10428D02*
D03*
Y10231D02*
D03*
Y10035D02*
D03*
Y9838D02*
D03*
Y9641D02*
D03*
Y9444D02*
D03*
Y9247D02*
D03*
Y9050D02*
D03*
Y8854D02*
D03*
Y8657D02*
D03*
Y8460D02*
D03*
Y8263D02*
D03*
Y8066D02*
D03*
Y7869D02*
D03*
D114*
X2990Y14546D02*
D03*
Y14169D02*
D03*
X2510Y14662D02*
D03*
Y15039D02*
D03*
Y15422D02*
D03*
Y15799D02*
D03*
X2500Y16556D02*
D03*
Y16179D02*
D03*
X6240Y10629D02*
D03*
Y11006D02*
D03*
X6290Y7059D02*
D03*
Y6682D02*
D03*
X5850Y6469D02*
D03*
Y6846D02*
D03*
X6750Y10629D02*
D03*
Y11006D02*
D03*
X781Y22629D02*
D03*
Y23006D02*
D03*
X1211Y22630D02*
D03*
Y23009D02*
D03*
X2321Y26702D02*
D03*
Y27079D02*
D03*
X10796Y24739D02*
D03*
Y25116D02*
D03*
X4831Y11009D02*
D03*
Y10632D02*
D03*
X7870Y10999D02*
D03*
Y10620D02*
D03*
X7470Y10999D02*
D03*
Y10620D02*
D03*
X3803Y22866D02*
D03*
Y22489D02*
D03*
X3813Y21460D02*
D03*
Y21837D02*
D03*
X4393Y20170D02*
D03*
Y20547D02*
D03*
X7169Y13956D02*
D03*
Y13579D02*
D03*
X12471Y27669D02*
D03*
Y28048D02*
D03*
X12061Y27669D02*
D03*
Y28048D02*
D03*
X11441Y21938D02*
D03*
Y21559D02*
D03*
X4671Y29339D02*
D03*
Y28962D02*
D03*
X23101Y14546D02*
D03*
Y14169D02*
D03*
X22621Y14662D02*
D03*
Y15039D02*
D03*
Y15422D02*
D03*
Y15799D02*
D03*
X22611Y16556D02*
D03*
Y16179D02*
D03*
X26351Y10629D02*
D03*
Y11006D02*
D03*
X26401Y7059D02*
D03*
Y6682D02*
D03*
X25961Y6469D02*
D03*
Y6846D02*
D03*
X26861Y10629D02*
D03*
Y11006D02*
D03*
X20892Y22629D02*
D03*
Y23006D02*
D03*
X21322Y22630D02*
D03*
Y23009D02*
D03*
X22432Y26702D02*
D03*
Y27079D02*
D03*
X30908Y24739D02*
D03*
Y25116D02*
D03*
X24943Y11009D02*
D03*
Y10632D02*
D03*
X27981Y10999D02*
D03*
Y10620D02*
D03*
X27581Y10999D02*
D03*
Y10620D02*
D03*
X23914Y22866D02*
D03*
Y22489D02*
D03*
X23924Y21460D02*
D03*
Y21837D02*
D03*
X24504Y20170D02*
D03*
Y20547D02*
D03*
X27281Y13956D02*
D03*
Y13579D02*
D03*
X32582Y27669D02*
D03*
Y28048D02*
D03*
X32172Y27669D02*
D03*
Y28048D02*
D03*
X31552Y21938D02*
D03*
Y21559D02*
D03*
X24782Y29339D02*
D03*
Y28962D02*
D03*
X43213Y14546D02*
D03*
Y14169D02*
D03*
X42733Y14662D02*
D03*
Y15039D02*
D03*
Y15422D02*
D03*
Y15799D02*
D03*
X42723Y16556D02*
D03*
Y16179D02*
D03*
X46463Y10629D02*
D03*
Y11006D02*
D03*
X46513Y7059D02*
D03*
Y6682D02*
D03*
X46073Y6469D02*
D03*
Y6846D02*
D03*
X46973Y10629D02*
D03*
Y11006D02*
D03*
X41004Y22629D02*
D03*
Y23006D02*
D03*
X41434Y22630D02*
D03*
Y23009D02*
D03*
X42544Y26702D02*
D03*
Y27079D02*
D03*
X51019Y24739D02*
D03*
Y25116D02*
D03*
X45054Y11009D02*
D03*
Y10632D02*
D03*
X48093Y10999D02*
D03*
Y10620D02*
D03*
X47693Y10999D02*
D03*
Y10620D02*
D03*
X44026Y22866D02*
D03*
Y22489D02*
D03*
X44036Y21460D02*
D03*
Y21837D02*
D03*
X44616Y20170D02*
D03*
Y20547D02*
D03*
X47392Y13956D02*
D03*
Y13579D02*
D03*
X52694Y27669D02*
D03*
Y28048D02*
D03*
X52284Y27669D02*
D03*
Y28048D02*
D03*
X51664Y21938D02*
D03*
Y21559D02*
D03*
X44894Y29339D02*
D03*
Y28962D02*
D03*
D115*
X5649Y29219D02*
D03*
X5113D02*
D03*
X8669Y19119D02*
D03*
X9204D02*
D03*
X11486Y19549D02*
D03*
X10950D02*
D03*
X5129Y27947D02*
D03*
X4593D02*
D03*
X18239Y11959D02*
D03*
X17703D02*
D03*
X16091Y13769D02*
D03*
X16626D02*
D03*
X10950Y20119D02*
D03*
X11486D02*
D03*
X4490Y12607D02*
D03*
X3955D02*
D03*
X5274Y10717D02*
D03*
X5809D02*
D03*
X3569Y23989D02*
D03*
X3033D02*
D03*
X2763Y26606D02*
D03*
X3299D02*
D03*
Y27166D02*
D03*
X2763D02*
D03*
X17703Y10819D02*
D03*
X18239D02*
D03*
X16091Y14447D02*
D03*
X16626D02*
D03*
X14713Y14211D02*
D03*
X15249D02*
D03*
X16170Y17203D02*
D03*
X16705D02*
D03*
X5099Y27106D02*
D03*
X4563D02*
D03*
X17703Y11399D02*
D03*
X18239D02*
D03*
X25760Y29219D02*
D03*
X25225D02*
D03*
X28780Y19119D02*
D03*
X29316D02*
D03*
X31597Y19549D02*
D03*
X31061D02*
D03*
X25240Y27947D02*
D03*
X24705D02*
D03*
X38350Y11959D02*
D03*
X37815D02*
D03*
X36202Y13769D02*
D03*
X36738D02*
D03*
X31061Y20119D02*
D03*
X31597D02*
D03*
X24601Y12607D02*
D03*
X24066D02*
D03*
X25385Y10717D02*
D03*
X25920D02*
D03*
X23680Y23989D02*
D03*
X23145D02*
D03*
X22875Y26606D02*
D03*
X23410D02*
D03*
Y27166D02*
D03*
X22875D02*
D03*
X37815Y10819D02*
D03*
X38350D02*
D03*
X36202Y14447D02*
D03*
X36738D02*
D03*
X34824Y14211D02*
D03*
X35360D02*
D03*
X36281Y17203D02*
D03*
X36817D02*
D03*
X25210Y27106D02*
D03*
X24675D02*
D03*
X37815Y11399D02*
D03*
X38350D02*
D03*
X45872Y29219D02*
D03*
X45336D02*
D03*
X48892Y19119D02*
D03*
X49427D02*
D03*
X51708Y19549D02*
D03*
X51173D02*
D03*
X45352Y27947D02*
D03*
X44816D02*
D03*
X58462Y11959D02*
D03*
X57926D02*
D03*
X56314Y13769D02*
D03*
X56849D02*
D03*
X51173Y20119D02*
D03*
X51708D02*
D03*
X44713Y12607D02*
D03*
X44177D02*
D03*
X45496Y10717D02*
D03*
X46032D02*
D03*
X43792Y23989D02*
D03*
X43256D02*
D03*
X42986Y26606D02*
D03*
X43522D02*
D03*
Y27166D02*
D03*
X42986D02*
D03*
X57926Y10819D02*
D03*
X58462D02*
D03*
X56314Y14447D02*
D03*
X56849D02*
D03*
X54936Y14211D02*
D03*
X55471D02*
D03*
X56392Y17203D02*
D03*
X56928D02*
D03*
X45321Y27106D02*
D03*
X44786D02*
D03*
X57926Y11399D02*
D03*
X58461D02*
D03*
D116*
X14130Y7567D02*
D03*
Y7032D02*
D03*
X5461Y29752D02*
D03*
Y30287D02*
D03*
X13455Y14967D02*
D03*
Y14432D02*
D03*
X13151Y11372D02*
D03*
Y11907D02*
D03*
X15728Y20052D02*
D03*
Y20587D02*
D03*
X4891Y29752D02*
D03*
Y30287D02*
D03*
X13455Y15977D02*
D03*
Y15442D02*
D03*
X13151Y12372D02*
D03*
Y12907D02*
D03*
X16251Y9379D02*
D03*
Y8843D02*
D03*
X3323Y21499D02*
D03*
Y22034D02*
D03*
X14643Y12492D02*
D03*
Y13027D02*
D03*
X15935Y19567D02*
D03*
Y19032D02*
D03*
X12105Y19028D02*
D03*
Y19564D02*
D03*
X14666Y15502D02*
D03*
Y14967D02*
D03*
X17658Y14927D02*
D03*
Y15463D02*
D03*
X15666Y9379D02*
D03*
Y8843D02*
D03*
X13860Y9377D02*
D03*
Y8842D02*
D03*
X15081Y9379D02*
D03*
Y8843D02*
D03*
X14496D02*
D03*
Y9379D02*
D03*
X17410Y8997D02*
D03*
Y8462D02*
D03*
X15549Y10799D02*
D03*
Y11334D02*
D03*
X14919Y10799D02*
D03*
Y11334D02*
D03*
X14289Y10799D02*
D03*
Y11334D02*
D03*
X16811Y10802D02*
D03*
Y11337D02*
D03*
X13191Y27262D02*
D03*
Y27797D02*
D03*
X16836Y8843D02*
D03*
Y9379D02*
D03*
X34241Y7567D02*
D03*
Y7032D02*
D03*
X25572Y29752D02*
D03*
Y30287D02*
D03*
X33566Y14967D02*
D03*
Y14432D02*
D03*
X33262Y11372D02*
D03*
Y11907D02*
D03*
X35839Y20052D02*
D03*
Y20587D02*
D03*
X25002Y29752D02*
D03*
Y30287D02*
D03*
X33566Y15977D02*
D03*
Y15442D02*
D03*
X33262Y12372D02*
D03*
Y12907D02*
D03*
X36363Y9379D02*
D03*
Y8843D02*
D03*
X23434Y21499D02*
D03*
Y22034D02*
D03*
X34755Y12492D02*
D03*
Y13027D02*
D03*
X36046Y19567D02*
D03*
Y19032D02*
D03*
X32216Y19028D02*
D03*
Y19564D02*
D03*
X34777Y15502D02*
D03*
Y14967D02*
D03*
X37769Y14927D02*
D03*
Y15463D02*
D03*
X35778Y9379D02*
D03*
Y8843D02*
D03*
X33971Y9377D02*
D03*
Y8842D02*
D03*
X35193Y9379D02*
D03*
Y8843D02*
D03*
X34608D02*
D03*
Y9379D02*
D03*
X37521Y8997D02*
D03*
Y8462D02*
D03*
X35660Y10799D02*
D03*
Y11334D02*
D03*
X35030Y10799D02*
D03*
Y11334D02*
D03*
X34400Y10799D02*
D03*
Y11334D02*
D03*
X36922Y10802D02*
D03*
Y11337D02*
D03*
X33302Y27262D02*
D03*
Y27797D02*
D03*
X36948Y8843D02*
D03*
Y9379D02*
D03*
X54353Y7567D02*
D03*
Y7032D02*
D03*
X45684Y29752D02*
D03*
Y30287D02*
D03*
X53677Y14967D02*
D03*
Y14432D02*
D03*
X53374Y11372D02*
D03*
Y11907D02*
D03*
X55951Y20052D02*
D03*
Y20587D02*
D03*
X45114Y29752D02*
D03*
Y30287D02*
D03*
X53677Y15977D02*
D03*
Y15442D02*
D03*
X53374Y12372D02*
D03*
Y12907D02*
D03*
X56474Y9379D02*
D03*
Y8843D02*
D03*
X43546Y21499D02*
D03*
Y22034D02*
D03*
X54866Y12492D02*
D03*
Y13027D02*
D03*
X56157Y19567D02*
D03*
Y19032D02*
D03*
X52328Y19028D02*
D03*
Y19564D02*
D03*
X54889Y15502D02*
D03*
Y14967D02*
D03*
X57881Y14927D02*
D03*
Y15463D02*
D03*
X55889Y9379D02*
D03*
Y8843D02*
D03*
X54083Y9377D02*
D03*
Y8842D02*
D03*
X55304Y9379D02*
D03*
Y8843D02*
D03*
X54719D02*
D03*
Y9379D02*
D03*
X57633Y8997D02*
D03*
Y8462D02*
D03*
X55771Y10799D02*
D03*
Y11334D02*
D03*
X55141Y10799D02*
D03*
Y11334D02*
D03*
X54512Y10799D02*
D03*
Y11334D02*
D03*
X57034Y10802D02*
D03*
Y11337D02*
D03*
X53414Y27262D02*
D03*
Y27797D02*
D03*
X57059Y8843D02*
D03*
Y9379D02*
D03*
D117*
X13963Y9839D02*
D03*
X14340D02*
D03*
X12132Y28799D02*
D03*
X12511D02*
D03*
X12250Y29849D02*
D03*
X11871D02*
D03*
X11872Y29459D02*
D03*
X12251D02*
D03*
X16627Y16573D02*
D03*
X16249D02*
D03*
X17310Y16534D02*
D03*
X17689D02*
D03*
X7071Y28277D02*
D03*
X7450D02*
D03*
X7071Y28669D02*
D03*
X7450D02*
D03*
X10278Y24191D02*
D03*
X9901D02*
D03*
X9301Y25887D02*
D03*
X9680D02*
D03*
X5856Y7263D02*
D03*
X5479D02*
D03*
X6377Y13079D02*
D03*
X6754D02*
D03*
X6757Y13869D02*
D03*
X6380D02*
D03*
X4883Y19737D02*
D03*
X4504D02*
D03*
X4883Y19347D02*
D03*
X4504D02*
D03*
X6374Y13475D02*
D03*
X6753D02*
D03*
X4721Y26579D02*
D03*
X5098D02*
D03*
X1001Y27269D02*
D03*
X624D02*
D03*
X1001Y26879D02*
D03*
X624D02*
D03*
X34074Y9839D02*
D03*
X34451D02*
D03*
X32243Y28799D02*
D03*
X32622D02*
D03*
X32361Y29849D02*
D03*
X31982D02*
D03*
X31983Y29459D02*
D03*
X32362D02*
D03*
X36739Y16573D02*
D03*
X36360D02*
D03*
X37422Y16534D02*
D03*
X37801D02*
D03*
X27182Y28277D02*
D03*
X27561D02*
D03*
X27182Y28669D02*
D03*
X27561D02*
D03*
X30389Y24191D02*
D03*
X30012D02*
D03*
X29412Y25887D02*
D03*
X29791D02*
D03*
X25968Y7263D02*
D03*
X25591D02*
D03*
X26489Y13079D02*
D03*
X26866D02*
D03*
X26868Y13869D02*
D03*
X26491D02*
D03*
X24994Y19737D02*
D03*
X24615D02*
D03*
X24994Y19347D02*
D03*
X24615D02*
D03*
X26486Y13475D02*
D03*
X26865D02*
D03*
X24832Y26579D02*
D03*
X25209D02*
D03*
X21112Y27269D02*
D03*
X20735D02*
D03*
X21112Y26879D02*
D03*
X20735D02*
D03*
X54186Y9839D02*
D03*
X54563D02*
D03*
X52355Y28799D02*
D03*
X52734D02*
D03*
X52473Y29849D02*
D03*
X52094D02*
D03*
X52095Y29459D02*
D03*
X52474D02*
D03*
X56850Y16573D02*
D03*
X56471D02*
D03*
X57533Y16534D02*
D03*
X57912D02*
D03*
X47294Y28277D02*
D03*
X47673D02*
D03*
X47294Y28669D02*
D03*
X47673D02*
D03*
X50500Y24191D02*
D03*
X50124D02*
D03*
X49524Y25887D02*
D03*
X49903D02*
D03*
X46079Y7263D02*
D03*
X45702D02*
D03*
X46600Y13079D02*
D03*
X46977D02*
D03*
X46980Y13869D02*
D03*
X46603D02*
D03*
X45106Y19737D02*
D03*
X44727D02*
D03*
X45106Y19347D02*
D03*
X44727D02*
D03*
X46597Y13475D02*
D03*
X46976D02*
D03*
X44944Y26579D02*
D03*
X45321D02*
D03*
X41224Y27269D02*
D03*
X40847D02*
D03*
X41224Y26879D02*
D03*
X40847D02*
D03*
D118*
X8352Y28961D02*
D03*
Y28764D02*
D03*
Y28567D02*
D03*
Y28371D02*
D03*
Y28174D02*
D03*
Y27977D02*
D03*
Y27780D02*
D03*
Y27583D02*
D03*
Y27386D02*
D03*
Y27190D02*
D03*
Y26993D02*
D03*
X11010D02*
D03*
Y27190D02*
D03*
Y27386D02*
D03*
Y27583D02*
D03*
Y27780D02*
D03*
Y27977D02*
D03*
Y28174D02*
D03*
Y28371D02*
D03*
Y28567D02*
D03*
Y28764D02*
D03*
Y28961D02*
D03*
X28464D02*
D03*
Y28764D02*
D03*
Y28567D02*
D03*
Y28371D02*
D03*
Y28174D02*
D03*
Y27977D02*
D03*
Y27780D02*
D03*
Y27583D02*
D03*
Y27386D02*
D03*
Y27190D02*
D03*
Y26993D02*
D03*
X31121D02*
D03*
Y27190D02*
D03*
Y27386D02*
D03*
Y27583D02*
D03*
Y27780D02*
D03*
Y27977D02*
D03*
Y28174D02*
D03*
Y28371D02*
D03*
Y28567D02*
D03*
Y28764D02*
D03*
Y28961D02*
D03*
X48575D02*
D03*
Y28764D02*
D03*
Y28567D02*
D03*
Y28371D02*
D03*
Y28174D02*
D03*
Y27977D02*
D03*
Y27780D02*
D03*
Y27583D02*
D03*
Y27386D02*
D03*
Y27190D02*
D03*
Y26993D02*
D03*
X51233D02*
D03*
Y27190D02*
D03*
Y27386D02*
D03*
Y27583D02*
D03*
Y27780D02*
D03*
Y27977D02*
D03*
Y28174D02*
D03*
Y28371D02*
D03*
Y28567D02*
D03*
Y28764D02*
D03*
Y28961D02*
D03*
D119*
X8697Y26648D02*
D03*
X8894D02*
D03*
X9091D02*
D03*
X9287D02*
D03*
X9484D02*
D03*
X9681D02*
D03*
X9878D02*
D03*
X10075D02*
D03*
X10272D02*
D03*
X10468D02*
D03*
X10665D02*
D03*
Y29306D02*
D03*
X10468D02*
D03*
X10272D02*
D03*
X10075D02*
D03*
X9878D02*
D03*
X9681D02*
D03*
X9484D02*
D03*
X9287D02*
D03*
X9091D02*
D03*
X8894D02*
D03*
X8697D02*
D03*
X28808Y26648D02*
D03*
X29005D02*
D03*
X29202D02*
D03*
X29399D02*
D03*
X29596D02*
D03*
X29792D02*
D03*
X29989D02*
D03*
X30186D02*
D03*
X30383D02*
D03*
X30580D02*
D03*
X30777D02*
D03*
Y29306D02*
D03*
X30580D02*
D03*
X30383D02*
D03*
X30186D02*
D03*
X29989D02*
D03*
X29792D02*
D03*
X29596D02*
D03*
X29399D02*
D03*
X29202D02*
D03*
X29005D02*
D03*
X28808D02*
D03*
X48920Y26648D02*
D03*
X49116D02*
D03*
X49313D02*
D03*
X49510D02*
D03*
X49707D02*
D03*
X49904D02*
D03*
X50101D02*
D03*
X50297D02*
D03*
X50494D02*
D03*
X50691D02*
D03*
X50888D02*
D03*
Y29306D02*
D03*
X50691D02*
D03*
X50494D02*
D03*
X50297D02*
D03*
X50101D02*
D03*
X49904D02*
D03*
X49707D02*
D03*
X49510D02*
D03*
X49313D02*
D03*
X49116D02*
D03*
X48920D02*
D03*
D120*
X9681Y27977D02*
D03*
X29792D02*
D03*
X49904D02*
D03*
D121*
X16792Y7522D02*
D03*
Y7896D02*
D03*
Y8270D02*
D03*
X15748D02*
D03*
Y7522D02*
D03*
X36903D02*
D03*
Y7896D02*
D03*
Y8270D02*
D03*
X35860D02*
D03*
Y7522D02*
D03*
X57014D02*
D03*
Y7896D02*
D03*
Y8270D02*
D03*
X55971D02*
D03*
Y7522D02*
D03*
D122*
X17058Y15077D02*
D03*
Y15274D02*
D03*
Y15471D02*
D03*
Y15667D02*
D03*
Y15864D02*
D03*
X15345Y15077D02*
D03*
Y15274D02*
D03*
Y15471D02*
D03*
Y15667D02*
D03*
Y15864D02*
D03*
X15322Y12799D02*
D03*
Y12602D02*
D03*
Y12405D02*
D03*
Y12208D02*
D03*
Y12012D02*
D03*
X17035Y12799D02*
D03*
Y12602D02*
D03*
Y12405D02*
D03*
Y12208D02*
D03*
Y12012D02*
D03*
X37169Y15077D02*
D03*
Y15274D02*
D03*
Y15471D02*
D03*
Y15667D02*
D03*
Y15864D02*
D03*
X35456Y15077D02*
D03*
Y15274D02*
D03*
Y15471D02*
D03*
Y15667D02*
D03*
Y15864D02*
D03*
X35434Y12799D02*
D03*
Y12602D02*
D03*
Y12405D02*
D03*
Y12208D02*
D03*
Y12012D02*
D03*
X37146Y12799D02*
D03*
Y12602D02*
D03*
Y12405D02*
D03*
Y12208D02*
D03*
Y12012D02*
D03*
X57280Y15077D02*
D03*
Y15274D02*
D03*
Y15471D02*
D03*
Y15667D02*
D03*
Y15864D02*
D03*
X55568Y15077D02*
D03*
Y15274D02*
D03*
Y15471D02*
D03*
Y15667D02*
D03*
Y15864D02*
D03*
X55545Y12799D02*
D03*
Y12602D02*
D03*
Y12405D02*
D03*
Y12208D02*
D03*
Y12012D02*
D03*
X57258Y12799D02*
D03*
Y12602D02*
D03*
Y12405D02*
D03*
Y12208D02*
D03*
Y12012D02*
D03*
D123*
X15847Y6361D02*
D03*
X16693D02*
D03*
X35958D02*
D03*
X36805D02*
D03*
X56069D02*
D03*
X56916D02*
D03*
D124*
X17871Y12583D02*
D03*
Y13337D02*
D03*
X14806Y7327D02*
D03*
Y8081D02*
D03*
X13856Y11992D02*
D03*
Y12746D02*
D03*
X17930Y7045D02*
D03*
Y7799D02*
D03*
X3921Y27300D02*
D03*
Y26546D02*
D03*
X37983Y12583D02*
D03*
Y13337D02*
D03*
X34918Y7327D02*
D03*
Y8081D02*
D03*
X33967Y11992D02*
D03*
Y12746D02*
D03*
X38041Y7045D02*
D03*
Y7799D02*
D03*
X24032Y27300D02*
D03*
Y26546D02*
D03*
X58094Y12583D02*
D03*
Y13337D02*
D03*
X55029Y7327D02*
D03*
Y8081D02*
D03*
X54078Y11992D02*
D03*
Y12746D02*
D03*
X58153Y7045D02*
D03*
Y7799D02*
D03*
X44144Y27300D02*
D03*
Y26546D02*
D03*
D125*
X17372Y6361D02*
D03*
X17924D02*
D03*
X37484D02*
D03*
X38035D02*
D03*
X57595D02*
D03*
X58146D02*
D03*
D126*
X12912Y19569D02*
D03*
Y19069D02*
D03*
Y18569D02*
D03*
Y18069D02*
D03*
X15137Y19569D02*
D03*
Y19069D02*
D03*
Y18569D02*
D03*
Y18069D02*
D03*
X33024Y19569D02*
D03*
Y19069D02*
D03*
Y18569D02*
D03*
Y18069D02*
D03*
X35248Y19569D02*
D03*
Y19069D02*
D03*
Y18569D02*
D03*
Y18069D02*
D03*
X53135Y19569D02*
D03*
Y19069D02*
D03*
Y18569D02*
D03*
Y18069D02*
D03*
X55360Y19569D02*
D03*
Y19069D02*
D03*
Y18569D02*
D03*
Y18069D02*
D03*
D127*
X14025Y18819D02*
D03*
X34136D02*
D03*
X54247D02*
D03*
D128*
X4215Y25214D02*
D03*
Y24899D02*
D03*
X3545Y25214D02*
D03*
Y24899D02*
D03*
X24326Y25214D02*
D03*
Y24899D02*
D03*
X23657Y25214D02*
D03*
Y24899D02*
D03*
X44437Y25214D02*
D03*
Y24899D02*
D03*
X43768Y25214D02*
D03*
Y24899D02*
D03*
D129*
X10301Y24661D02*
D03*
X9389D02*
D03*
Y25396D02*
D03*
X10301D02*
D03*
X30413Y24661D02*
D03*
X29500D02*
D03*
Y25396D02*
D03*
X30413D02*
D03*
X50524Y24661D02*
D03*
X49611D02*
D03*
Y25396D02*
D03*
X50524D02*
D03*
D130*
X3031Y23149D02*
D03*
X3281Y25969D02*
D03*
X8051Y4959D02*
D03*
X13451Y10779D02*
D03*
X14823Y16573D02*
D03*
X6251Y30209D02*
D03*
X5121Y26009D02*
D03*
X17910Y9659D02*
D03*
X15910Y24569D02*
D03*
X16410Y27309D02*
D03*
X7630Y6309D02*
D03*
X10161Y22049D02*
D03*
X10181Y21039D02*
D03*
X6091Y23619D02*
D03*
X13790Y8189D02*
D03*
X15310Y27299D02*
D03*
X14160D02*
D03*
X790Y21009D02*
D03*
X16101Y25679D02*
D03*
X23142Y23149D02*
D03*
X23392Y25969D02*
D03*
X28162Y4959D02*
D03*
X33562Y10779D02*
D03*
X34935Y16573D02*
D03*
X26362Y30209D02*
D03*
X25232Y26009D02*
D03*
X38021Y9659D02*
D03*
X36021Y24569D02*
D03*
X36521Y27309D02*
D03*
X27741Y6309D02*
D03*
X30272Y22049D02*
D03*
X30292Y21039D02*
D03*
X26202Y23619D02*
D03*
X33901Y8189D02*
D03*
X35421Y27299D02*
D03*
X34271D02*
D03*
X20901Y21009D02*
D03*
X36212Y25679D02*
D03*
X43254Y23149D02*
D03*
X43504Y25969D02*
D03*
X48274Y4959D02*
D03*
X53674Y10779D02*
D03*
X55046Y16573D02*
D03*
X46474Y30209D02*
D03*
X45344Y26009D02*
D03*
X58133Y9659D02*
D03*
X56133Y24569D02*
D03*
X56633Y27309D02*
D03*
X47853Y6309D02*
D03*
X50384Y22049D02*
D03*
X50404Y21039D02*
D03*
X46314Y23619D02*
D03*
X54013Y8189D02*
D03*
X55533Y27299D02*
D03*
X54383D02*
D03*
X41013Y21009D02*
D03*
X56324Y25679D02*
D03*
D131*
X6350Y8949D02*
D03*
X26461D02*
D03*
X46573D02*
D03*
D132*
X7039Y8014D02*
D03*
X6842D02*
D03*
X6645D02*
D03*
X6448D02*
D03*
X6252D02*
D03*
X6055D02*
D03*
X5858D02*
D03*
X5661D02*
D03*
Y9884D02*
D03*
X5858D02*
D03*
X6055D02*
D03*
X6252D02*
D03*
X6448D02*
D03*
X6645D02*
D03*
X6842D02*
D03*
X7039D02*
D03*
X27150Y8014D02*
D03*
X26953D02*
D03*
X26757D02*
D03*
X26560D02*
D03*
X26363D02*
D03*
X26166D02*
D03*
X25969D02*
D03*
X25772D02*
D03*
Y9884D02*
D03*
X25969D02*
D03*
X26166D02*
D03*
X26363D02*
D03*
X26560D02*
D03*
X26757D02*
D03*
X26953D02*
D03*
X27150D02*
D03*
X47262Y8014D02*
D03*
X47065D02*
D03*
X46868D02*
D03*
X46671D02*
D03*
X46474D02*
D03*
X46277D02*
D03*
X46081D02*
D03*
X45884D02*
D03*
Y9884D02*
D03*
X46081D02*
D03*
X46277D02*
D03*
X46474D02*
D03*
X46671D02*
D03*
X46868D02*
D03*
X47065D02*
D03*
X47262D02*
D03*
D133*
X5415Y8260D02*
D03*
Y8457D02*
D03*
Y8654D02*
D03*
Y8851D02*
D03*
Y9048D02*
D03*
Y9245D02*
D03*
Y9441D02*
D03*
Y9638D02*
D03*
X7285D02*
D03*
Y9441D02*
D03*
Y9245D02*
D03*
Y9048D02*
D03*
Y8851D02*
D03*
Y8654D02*
D03*
Y8457D02*
D03*
Y8260D02*
D03*
X25526D02*
D03*
Y8457D02*
D03*
Y8654D02*
D03*
Y8851D02*
D03*
Y9048D02*
D03*
Y9245D02*
D03*
Y9441D02*
D03*
Y9638D02*
D03*
X27396D02*
D03*
Y9441D02*
D03*
Y9245D02*
D03*
Y9048D02*
D03*
Y8851D02*
D03*
Y8654D02*
D03*
Y8457D02*
D03*
Y8260D02*
D03*
X45638D02*
D03*
Y8457D02*
D03*
Y8654D02*
D03*
Y8851D02*
D03*
Y9048D02*
D03*
Y9245D02*
D03*
Y9441D02*
D03*
Y9638D02*
D03*
X47508D02*
D03*
Y9441D02*
D03*
Y9245D02*
D03*
Y9048D02*
D03*
Y8851D02*
D03*
Y8654D02*
D03*
Y8457D02*
D03*
Y8260D02*
D03*
D134*
X13102Y26179D02*
D03*
X14700D02*
D03*
X13102Y25679D02*
D03*
X14700D02*
D03*
X13102Y25179D02*
D03*
X14700D02*
D03*
X13102Y24679D02*
D03*
X14700D02*
D03*
X13102Y24179D02*
D03*
X14700D02*
D03*
X8529Y20384D02*
D03*
X6931D02*
D03*
X8529Y20884D02*
D03*
X6931D02*
D03*
X8529Y21384D02*
D03*
X6931D02*
D03*
X8529Y21884D02*
D03*
X6931D02*
D03*
X8529Y22384D02*
D03*
X6931D02*
D03*
X10990Y3959D02*
D03*
X9392D02*
D03*
X10990Y4459D02*
D03*
X9392D02*
D03*
X10990Y4959D02*
D03*
X9392D02*
D03*
X10990Y5459D02*
D03*
X9392D02*
D03*
X10990Y5959D02*
D03*
X9392D02*
D03*
X33213Y26179D02*
D03*
X34812D02*
D03*
X33213Y25679D02*
D03*
X34812D02*
D03*
X33213Y25179D02*
D03*
X34812D02*
D03*
X33213Y24679D02*
D03*
X34812D02*
D03*
X33213Y24179D02*
D03*
X34812D02*
D03*
X28641Y20384D02*
D03*
X27042D02*
D03*
X28641Y20884D02*
D03*
X27042D02*
D03*
X28641Y21384D02*
D03*
X27042D02*
D03*
X28641Y21884D02*
D03*
X27042D02*
D03*
X28641Y22384D02*
D03*
X27042D02*
D03*
X31102Y3959D02*
D03*
X29503D02*
D03*
X31102Y4459D02*
D03*
X29503D02*
D03*
X31102Y4959D02*
D03*
X29503D02*
D03*
X31102Y5459D02*
D03*
X29503D02*
D03*
X31102Y5959D02*
D03*
X29503D02*
D03*
X53325Y26179D02*
D03*
X54923D02*
D03*
X53325Y25679D02*
D03*
X54923D02*
D03*
X53325Y25179D02*
D03*
X54923D02*
D03*
X53325Y24679D02*
D03*
X54923D02*
D03*
X53325Y24179D02*
D03*
X54923D02*
D03*
X48752Y20384D02*
D03*
X47154D02*
D03*
X48752Y20884D02*
D03*
X47154D02*
D03*
X48752Y21384D02*
D03*
X47154D02*
D03*
X48752Y21884D02*
D03*
X47154D02*
D03*
X48752Y22384D02*
D03*
X47154D02*
D03*
X51213Y3959D02*
D03*
X49615D02*
D03*
X51213Y4459D02*
D03*
X49615D02*
D03*
X51213Y4959D02*
D03*
X49615D02*
D03*
X51213Y5459D02*
D03*
X49615D02*
D03*
X51213Y5959D02*
D03*
X49615D02*
D03*
D135*
X2528Y23929D02*
D03*
X2174D02*
D03*
X22640D02*
D03*
X22285D02*
D03*
X42751D02*
D03*
X42397D02*
D03*
D136*
X12920Y6279D02*
D03*
X33031D02*
D03*
X53143D02*
D03*
M02*
