G04 Layer_Color=128*
%FSLAX24Y24*%
%MOIN*%
G70*
G01*
G75*
G04:AMPARAMS|DCode=11|XSize=78.7mil|YSize=78.7mil|CornerRadius=39.4mil|HoleSize=0mil|Usage=FLASHONLY|Rotation=90.000|XOffset=0mil|YOffset=0mil|HoleType=Round|Shape=RoundedRectangle|*
%AMROUNDEDRECTD11*
21,1,0.0787,0.0000,0,0,90.0*
21,1,0.0000,0.0787,0,0,90.0*
1,1,0.0787,0.0000,0.0000*
1,1,0.0787,0.0000,0.0000*
1,1,0.0787,0.0000,0.0000*
1,1,0.0787,0.0000,0.0000*
%
%ADD11ROUNDEDRECTD11*%
G04:AMPARAMS|DCode=114|XSize=20mil|YSize=22mil|CornerRadius=3.4mil|HoleSize=0mil|Usage=FLASHONLY|Rotation=270.000|XOffset=0mil|YOffset=0mil|HoleType=Round|Shape=RoundedRectangle|*
%AMROUNDEDRECTD114*
21,1,0.0200,0.0152,0,0,270.0*
21,1,0.0132,0.0220,0,0,270.0*
1,1,0.0068,-0.0076,-0.0066*
1,1,0.0068,-0.0076,0.0066*
1,1,0.0068,0.0076,0.0066*
1,1,0.0068,0.0076,-0.0066*
%
%ADD114ROUNDEDRECTD114*%
G04:AMPARAMS|DCode=115|XSize=27.1mil|YSize=37.4mil|CornerRadius=4.8mil|HoleSize=0mil|Usage=FLASHONLY|Rotation=180.000|XOffset=0mil|YOffset=0mil|HoleType=Round|Shape=RoundedRectangle|*
%AMROUNDEDRECTD115*
21,1,0.0271,0.0277,0,0,180.0*
21,1,0.0175,0.0374,0,0,180.0*
1,1,0.0097,-0.0087,0.0139*
1,1,0.0097,0.0087,0.0139*
1,1,0.0097,0.0087,-0.0139*
1,1,0.0097,-0.0087,-0.0139*
%
%ADD115ROUNDEDRECTD115*%
G04:AMPARAMS|DCode=116|XSize=27.1mil|YSize=37.4mil|CornerRadius=4.8mil|HoleSize=0mil|Usage=FLASHONLY|Rotation=90.000|XOffset=0mil|YOffset=0mil|HoleType=Round|Shape=RoundedRectangle|*
%AMROUNDEDRECTD116*
21,1,0.0271,0.0277,0,0,90.0*
21,1,0.0175,0.0374,0,0,90.0*
1,1,0.0097,0.0139,0.0087*
1,1,0.0097,0.0139,-0.0087*
1,1,0.0097,-0.0139,-0.0087*
1,1,0.0097,-0.0139,0.0087*
%
%ADD116ROUNDEDRECTD116*%
G04:AMPARAMS|DCode=117|XSize=20mil|YSize=22mil|CornerRadius=3.4mil|HoleSize=0mil|Usage=FLASHONLY|Rotation=0.000|XOffset=0mil|YOffset=0mil|HoleType=Round|Shape=RoundedRectangle|*
%AMROUNDEDRECTD117*
21,1,0.0200,0.0152,0,0,0.0*
21,1,0.0132,0.0220,0,0,0.0*
1,1,0.0068,0.0066,-0.0076*
1,1,0.0068,-0.0066,-0.0076*
1,1,0.0068,-0.0066,0.0076*
1,1,0.0068,0.0066,0.0076*
%
%ADD117ROUNDEDRECTD117*%
G04:AMPARAMS|DCode=124|XSize=50mil|YSize=58mil|CornerRadius=12mil|HoleSize=0mil|Usage=FLASHONLY|Rotation=90.000|XOffset=0mil|YOffset=0mil|HoleType=Round|Shape=RoundedRectangle|*
%AMROUNDEDRECTD124*
21,1,0.0500,0.0340,0,0,90.0*
21,1,0.0260,0.0580,0,0,90.0*
1,1,0.0240,0.0170,0.0130*
1,1,0.0240,0.0170,-0.0130*
1,1,0.0240,-0.0170,-0.0130*
1,1,0.0240,-0.0170,0.0130*
%
%ADD124ROUNDEDRECTD124*%
%ADD187R,0.0531X0.0098*%
%ADD188R,0.0216X0.0315*%
%ADD189R,0.0315X0.0216*%
%ADD190R,0.0138X0.0098*%
%ADD191R,0.0531X0.0393*%
%ADD192R,0.0236X0.0118*%
G36*
X53936Y30496D02*
X53937Y30493D01*
X53938Y30491D01*
X53939Y30489D01*
X53941Y30487D01*
X53944Y30486D01*
X53946Y30486D01*
X54212D01*
Y29738D01*
X53326D01*
Y30486D01*
X53592D01*
X53595Y30486D01*
X53597Y30487D01*
X53599Y30489D01*
X53601Y30491D01*
X53602Y30493D01*
X53602Y30496D01*
Y30762D01*
X53936D01*
Y30496D01*
D02*
G37*
G36*
X33825D02*
X33825Y30493D01*
X33826Y30491D01*
X33828Y30489D01*
X33830Y30487D01*
X33832Y30486D01*
X33835Y30486D01*
X34100D01*
Y29738D01*
X33215D01*
Y30486D01*
X33481D01*
X33483Y30486D01*
X33486Y30487D01*
X33488Y30489D01*
X33489Y30491D01*
X33490Y30493D01*
X33491Y30496D01*
Y30762D01*
X33825D01*
Y30496D01*
D02*
G37*
G36*
X13713D02*
X13714Y30493D01*
X13715Y30491D01*
X13716Y30489D01*
X13719Y30487D01*
X13721Y30486D01*
X13724Y30486D01*
X13989D01*
Y29738D01*
X13104D01*
Y30486D01*
X13369D01*
X13372Y30486D01*
X13374Y30487D01*
X13376Y30489D01*
X13378Y30491D01*
X13379Y30493D01*
X13379Y30496D01*
Y30762D01*
X13713D01*
Y30496D01*
D02*
G37*
G36*
X54212Y27238D02*
X53946D01*
X53944Y27238D01*
X53941Y27237D01*
X53939Y27235D01*
X53938Y27233D01*
X53937Y27231D01*
X53936Y27228D01*
Y26963D01*
X53602D01*
Y27228D01*
X53602Y27231D01*
X53601Y27233D01*
X53599Y27235D01*
X53597Y27237D01*
X53595Y27238D01*
X53592Y27238D01*
X53326D01*
Y27986D01*
X54212D01*
Y27238D01*
D02*
G37*
G36*
X34100D02*
X33835D01*
X33832Y27238D01*
X33830Y27237D01*
X33828Y27235D01*
X33826Y27233D01*
X33825Y27231D01*
X33825Y27228D01*
Y26963D01*
X33491D01*
Y27228D01*
X33490Y27231D01*
X33489Y27233D01*
X33488Y27235D01*
X33486Y27237D01*
X33483Y27238D01*
X33481Y27238D01*
X33215D01*
Y27986D01*
X34100D01*
Y27238D01*
D02*
G37*
G36*
X13989D02*
X13724D01*
X13721Y27238D01*
X13719Y27237D01*
X13716Y27235D01*
X13715Y27233D01*
X13714Y27231D01*
X13713Y27228D01*
Y26963D01*
X13379D01*
Y27228D01*
X13379Y27231D01*
X13378Y27233D01*
X13376Y27235D01*
X13374Y27237D01*
X13372Y27238D01*
X13369Y27238D01*
X13104D01*
Y27986D01*
X13989D01*
Y27238D01*
D02*
G37*
D11*
X3789Y32519D02*
D03*
X56151D02*
D03*
Y1319D02*
D03*
X3789Y1289D02*
D03*
D114*
X10310Y3796D02*
D03*
Y3419D02*
D03*
X9237Y15046D02*
D03*
Y14669D02*
D03*
X4191Y26706D02*
D03*
Y27085D02*
D03*
X8777Y15639D02*
D03*
Y16018D02*
D03*
X8737Y17772D02*
D03*
Y18149D02*
D03*
X8347Y18146D02*
D03*
Y17769D02*
D03*
X6587Y17366D02*
D03*
Y16989D02*
D03*
X7747Y15576D02*
D03*
Y15199D02*
D03*
X6187Y16992D02*
D03*
Y17369D02*
D03*
X8827Y14672D02*
D03*
Y15049D02*
D03*
X8287Y14672D02*
D03*
Y15049D02*
D03*
X6477Y15626D02*
D03*
Y15249D02*
D03*
X7557Y17772D02*
D03*
Y18149D02*
D03*
X7957Y18146D02*
D03*
Y17769D02*
D03*
X6987Y17752D02*
D03*
Y18129D02*
D03*
X6977Y15492D02*
D03*
Y15869D02*
D03*
X6721Y29372D02*
D03*
Y29749D02*
D03*
X10751Y29364D02*
D03*
Y28987D02*
D03*
X9081Y29364D02*
D03*
Y28987D02*
D03*
X8601Y29364D02*
D03*
Y28987D02*
D03*
X8160Y29393D02*
D03*
Y29770D02*
D03*
X15880Y3405D02*
D03*
Y3784D02*
D03*
X9434Y3420D02*
D03*
Y3799D02*
D03*
X12191Y29398D02*
D03*
Y29019D02*
D03*
X15083Y3405D02*
D03*
Y3784D02*
D03*
X8636Y3420D02*
D03*
Y3799D02*
D03*
X7738Y14379D02*
D03*
Y14756D02*
D03*
X5641Y26706D02*
D03*
Y27085D02*
D03*
X30421Y3796D02*
D03*
Y3419D02*
D03*
X29348Y15046D02*
D03*
Y14669D02*
D03*
X24302Y26706D02*
D03*
Y27085D02*
D03*
X28888Y15639D02*
D03*
Y16018D02*
D03*
X28848Y17772D02*
D03*
Y18149D02*
D03*
X28458Y18146D02*
D03*
Y17769D02*
D03*
X26698Y17366D02*
D03*
Y16989D02*
D03*
X27858Y15576D02*
D03*
Y15199D02*
D03*
X26298Y16992D02*
D03*
Y17369D02*
D03*
X28938Y14672D02*
D03*
Y15049D02*
D03*
X28398Y14672D02*
D03*
Y15049D02*
D03*
X26588Y15626D02*
D03*
Y15249D02*
D03*
X27668Y17772D02*
D03*
Y18149D02*
D03*
X28068Y18146D02*
D03*
Y17769D02*
D03*
X27098Y17752D02*
D03*
Y18129D02*
D03*
X27088Y15492D02*
D03*
Y15869D02*
D03*
X26832Y29372D02*
D03*
Y29749D02*
D03*
X30862Y29364D02*
D03*
Y28987D02*
D03*
X29192Y29364D02*
D03*
Y28987D02*
D03*
X28712Y29364D02*
D03*
Y28987D02*
D03*
X28271Y29393D02*
D03*
Y29770D02*
D03*
X35992Y3405D02*
D03*
Y3784D02*
D03*
X29545Y3420D02*
D03*
Y3799D02*
D03*
X32302Y29398D02*
D03*
Y29019D02*
D03*
X35194Y3405D02*
D03*
Y3784D02*
D03*
X28748Y3420D02*
D03*
Y3799D02*
D03*
X27849Y14379D02*
D03*
Y14756D02*
D03*
X25752Y26706D02*
D03*
Y27085D02*
D03*
X50533Y3796D02*
D03*
Y3419D02*
D03*
X49459Y15046D02*
D03*
Y14669D02*
D03*
X44414Y26706D02*
D03*
Y27085D02*
D03*
X48999Y15639D02*
D03*
Y16018D02*
D03*
X48959Y17772D02*
D03*
Y18149D02*
D03*
X48569Y18146D02*
D03*
Y17769D02*
D03*
X46809Y17366D02*
D03*
Y16989D02*
D03*
X47969Y15576D02*
D03*
Y15199D02*
D03*
X46409Y16992D02*
D03*
Y17369D02*
D03*
X49049Y14672D02*
D03*
Y15049D02*
D03*
X48509Y14672D02*
D03*
Y15049D02*
D03*
X46699Y15626D02*
D03*
Y15249D02*
D03*
X47779Y17772D02*
D03*
Y18149D02*
D03*
X48179Y18146D02*
D03*
Y17769D02*
D03*
X47209Y17752D02*
D03*
Y18129D02*
D03*
X47199Y15492D02*
D03*
Y15869D02*
D03*
X46944Y29372D02*
D03*
Y29749D02*
D03*
X50974Y29364D02*
D03*
Y28987D02*
D03*
X49304Y29364D02*
D03*
Y28987D02*
D03*
X48824Y29364D02*
D03*
Y28987D02*
D03*
X48383Y29393D02*
D03*
Y29770D02*
D03*
X56103Y3405D02*
D03*
Y3784D02*
D03*
X49656Y3420D02*
D03*
Y3799D02*
D03*
X52414Y29398D02*
D03*
Y29019D02*
D03*
X55306Y3405D02*
D03*
Y3784D02*
D03*
X48859Y3420D02*
D03*
Y3799D02*
D03*
X47960Y14379D02*
D03*
Y14756D02*
D03*
X45864Y26706D02*
D03*
Y27085D02*
D03*
D115*
X10256Y19409D02*
D03*
X9720D02*
D03*
X9604Y17577D02*
D03*
X10140D02*
D03*
X9413Y7169D02*
D03*
X9949D02*
D03*
X8669Y19119D02*
D03*
X9204D02*
D03*
X10250Y18649D02*
D03*
X9714D02*
D03*
X9760Y17005D02*
D03*
X9224D02*
D03*
X5935Y14138D02*
D03*
X5399D02*
D03*
X12502Y8269D02*
D03*
X13038D02*
D03*
X7173Y29369D02*
D03*
X7709D02*
D03*
X4935Y30276D02*
D03*
X5470D02*
D03*
X4613Y28223D02*
D03*
X5149D02*
D03*
X30367Y19409D02*
D03*
X29831D02*
D03*
X29716Y17577D02*
D03*
X30251D02*
D03*
X29525Y7169D02*
D03*
X30060D02*
D03*
X28780Y19119D02*
D03*
X29316D02*
D03*
X30361Y18649D02*
D03*
X29826D02*
D03*
X29871Y17005D02*
D03*
X29336D02*
D03*
X26046Y14138D02*
D03*
X25510D02*
D03*
X32614Y8269D02*
D03*
X33149D02*
D03*
X27285Y29369D02*
D03*
X27820D02*
D03*
X25046Y30276D02*
D03*
X25581D02*
D03*
X24725Y28223D02*
D03*
X25260D02*
D03*
X50478Y19409D02*
D03*
X49943D02*
D03*
X49827Y17577D02*
D03*
X50363D02*
D03*
X49636Y7169D02*
D03*
X50172D02*
D03*
X48892Y19119D02*
D03*
X49427D02*
D03*
X50473Y18649D02*
D03*
X49937D02*
D03*
X49983Y17005D02*
D03*
X49447D02*
D03*
X46157Y14138D02*
D03*
X45622D02*
D03*
X52725Y8269D02*
D03*
X53260D02*
D03*
X47396Y29369D02*
D03*
X47932D02*
D03*
X45157Y30276D02*
D03*
X45693D02*
D03*
X44836Y28223D02*
D03*
X45372D02*
D03*
D116*
X6040Y12879D02*
D03*
Y13415D02*
D03*
X11478Y18763D02*
D03*
Y18228D02*
D03*
X5480Y13415D02*
D03*
Y12879D02*
D03*
X13060Y7757D02*
D03*
Y7222D02*
D03*
X6772Y13978D02*
D03*
Y13443D02*
D03*
X10906Y18228D02*
D03*
Y18763D02*
D03*
X12497Y7758D02*
D03*
Y7222D02*
D03*
X10513Y7173D02*
D03*
Y7708D02*
D03*
X1883Y11222D02*
D03*
Y11757D02*
D03*
X1333Y11222D02*
D03*
Y11757D02*
D03*
X26151Y12879D02*
D03*
Y13415D02*
D03*
X31589Y18763D02*
D03*
Y18228D02*
D03*
X25591Y13415D02*
D03*
Y12879D02*
D03*
X33171Y7757D02*
D03*
Y7222D02*
D03*
X26883Y13978D02*
D03*
Y13443D02*
D03*
X31017Y18228D02*
D03*
Y18763D02*
D03*
X32608Y7758D02*
D03*
Y7222D02*
D03*
X30625Y7173D02*
D03*
Y7708D02*
D03*
X21994Y11222D02*
D03*
Y11757D02*
D03*
X21444Y11222D02*
D03*
Y11757D02*
D03*
X46262Y12879D02*
D03*
Y13415D02*
D03*
X51700Y18763D02*
D03*
Y18228D02*
D03*
X45703Y13415D02*
D03*
Y12879D02*
D03*
X53283Y7757D02*
D03*
Y7222D02*
D03*
X46994Y13978D02*
D03*
Y13443D02*
D03*
X51128Y18228D02*
D03*
Y18763D02*
D03*
X52720Y7758D02*
D03*
Y7222D02*
D03*
X50736Y7173D02*
D03*
Y7708D02*
D03*
X42105Y11222D02*
D03*
Y11757D02*
D03*
X41555Y11222D02*
D03*
Y11757D02*
D03*
D117*
X15867Y4169D02*
D03*
X15490D02*
D03*
X7060Y10599D02*
D03*
X6683D02*
D03*
X5527Y11299D02*
D03*
X5150D02*
D03*
X5900Y16439D02*
D03*
X6277D02*
D03*
X6274Y16029D02*
D03*
X5897D02*
D03*
X8304Y17209D02*
D03*
X7927D02*
D03*
X7930Y16829D02*
D03*
X8307D02*
D03*
X8344Y15969D02*
D03*
X7967D02*
D03*
X7965Y16377D02*
D03*
X8342D02*
D03*
X6390Y14739D02*
D03*
X6767D02*
D03*
X7364Y17289D02*
D03*
X6987D02*
D03*
X8214Y27977D02*
D03*
X8591D02*
D03*
X8984Y26689D02*
D03*
X9361D02*
D03*
X11078Y27287D02*
D03*
X10701D02*
D03*
X7331Y29839D02*
D03*
X7708D02*
D03*
X8631Y28599D02*
D03*
X8254D02*
D03*
X35978Y4169D02*
D03*
X35601D02*
D03*
X27171Y10599D02*
D03*
X26794D02*
D03*
X25638Y11299D02*
D03*
X25261D02*
D03*
X26011Y16439D02*
D03*
X26388D02*
D03*
X26385Y16029D02*
D03*
X26008D02*
D03*
X28415Y17209D02*
D03*
X28038D02*
D03*
X28041Y16829D02*
D03*
X28418D02*
D03*
X28455Y15969D02*
D03*
X28078D02*
D03*
X28077Y16377D02*
D03*
X28454D02*
D03*
X26501Y14739D02*
D03*
X26878D02*
D03*
X27475Y17289D02*
D03*
X27098D02*
D03*
X28325Y27977D02*
D03*
X28702D02*
D03*
X29095Y26689D02*
D03*
X29472D02*
D03*
X31189Y27287D02*
D03*
X30812D02*
D03*
X27442Y29839D02*
D03*
X27819D02*
D03*
X28742Y28599D02*
D03*
X28365D02*
D03*
X56090Y4169D02*
D03*
X55713D02*
D03*
X47283Y10599D02*
D03*
X46906D02*
D03*
X45750Y11299D02*
D03*
X45373D02*
D03*
X46122Y16439D02*
D03*
X46499D02*
D03*
X46496Y16029D02*
D03*
X46119D02*
D03*
X48526Y17209D02*
D03*
X48149D02*
D03*
X48152Y16829D02*
D03*
X48529D02*
D03*
X48566Y15969D02*
D03*
X48189D02*
D03*
X48188Y16377D02*
D03*
X48565D02*
D03*
X46612Y14739D02*
D03*
X46989D02*
D03*
X47586Y17289D02*
D03*
X47209D02*
D03*
X48437Y27977D02*
D03*
X48814D02*
D03*
X49207Y26689D02*
D03*
X49584D02*
D03*
X51301Y27287D02*
D03*
X50924D02*
D03*
X47554Y29839D02*
D03*
X47931D02*
D03*
X48854Y28599D02*
D03*
X48477D02*
D03*
D124*
X6201Y27759D02*
D03*
Y28513D02*
D03*
X26312Y27759D02*
D03*
Y28513D02*
D03*
X46424Y27759D02*
D03*
Y28513D02*
D03*
D187*
X13054Y28173D02*
D03*
Y28370D02*
D03*
Y28567D02*
D03*
Y28764D02*
D03*
Y28961D02*
D03*
Y29157D02*
D03*
Y29354D02*
D03*
Y29551D02*
D03*
X33166Y28173D02*
D03*
Y28370D02*
D03*
Y28567D02*
D03*
Y28764D02*
D03*
Y28961D02*
D03*
Y29157D02*
D03*
Y29354D02*
D03*
Y29551D02*
D03*
X53277Y28173D02*
D03*
Y28370D02*
D03*
Y28567D02*
D03*
Y28764D02*
D03*
Y28961D02*
D03*
Y29157D02*
D03*
Y29354D02*
D03*
Y29551D02*
D03*
D188*
X5465Y29764D02*
D03*
X4717D02*
D03*
Y28761D02*
D03*
X5091D02*
D03*
X5465D02*
D03*
X25576Y29764D02*
D03*
X24828D02*
D03*
Y28761D02*
D03*
X25202D02*
D03*
X25576D02*
D03*
X45688Y29764D02*
D03*
X44940D02*
D03*
Y28761D02*
D03*
X45314D02*
D03*
X45688D02*
D03*
D189*
X12032Y7225D02*
D03*
Y7973D02*
D03*
X11028D02*
D03*
Y7599D02*
D03*
Y7225D02*
D03*
X32143D02*
D03*
Y7973D02*
D03*
X31139D02*
D03*
Y7599D02*
D03*
Y7225D02*
D03*
X52255D02*
D03*
Y7973D02*
D03*
X51251D02*
D03*
Y7599D02*
D03*
Y7225D02*
D03*
D190*
X9030Y3442D02*
D03*
Y3797D02*
D03*
X15477Y3438D02*
D03*
Y3792D02*
D03*
X29141Y3442D02*
D03*
Y3797D02*
D03*
X35588Y3438D02*
D03*
Y3792D02*
D03*
X49253Y3442D02*
D03*
Y3797D02*
D03*
X55700Y3438D02*
D03*
Y3792D02*
D03*
D191*
X12537Y2872D02*
D03*
X14505D02*
D03*
X12537Y3443D02*
D03*
X14505D02*
D03*
X8045Y3453D02*
D03*
X6077D02*
D03*
X8045Y2882D02*
D03*
X6077D02*
D03*
X32648Y2872D02*
D03*
X34617D02*
D03*
X32648Y3443D02*
D03*
X34617D02*
D03*
X28157Y3453D02*
D03*
X26188D02*
D03*
X28157Y2882D02*
D03*
X26188D02*
D03*
X52760Y2872D02*
D03*
X54728D02*
D03*
X52760Y3443D02*
D03*
X54728D02*
D03*
X48268Y3453D02*
D03*
X46300D02*
D03*
X48268Y2882D02*
D03*
X46300D02*
D03*
D192*
X4606Y27106D02*
D03*
Y26909D02*
D03*
Y26713D02*
D03*
X5216D02*
D03*
Y26909D02*
D03*
Y27106D02*
D03*
X24717D02*
D03*
Y26909D02*
D03*
Y26713D02*
D03*
X25328D02*
D03*
Y26909D02*
D03*
Y27106D02*
D03*
X44829D02*
D03*
Y26909D02*
D03*
Y26713D02*
D03*
X45439D02*
D03*
Y26909D02*
D03*
Y27106D02*
D03*
M02*
