G04 Layer_Color=8388736*
%FSLAX24Y24*%
%MOIN*%
G70*
G01*
G75*
%ADD137C,0.1220*%
%ADD138R,0.1555X0.2244*%
%ADD139R,0.2244X0.1555*%
G04:AMPARAMS|DCode=140|XSize=118.7mil|YSize=118.7mil|CornerRadius=59.4mil|HoleSize=0mil|Usage=FLASHONLY|Rotation=90.000|XOffset=0mil|YOffset=0mil|HoleType=Round|Shape=RoundedRectangle|*
%AMROUNDEDRECTD140*
21,1,0.1187,0.0000,0,0,90.0*
21,1,0.0000,0.1187,0,0,90.0*
1,1,0.1187,0.0000,0.0000*
1,1,0.1187,0.0000,0.0000*
1,1,0.1187,0.0000,0.0000*
1,1,0.1187,0.0000,0.0000*
%
%ADD140ROUNDEDRECTD140*%
%ADD141R,0.0592X0.0217*%
%ADD142R,0.0670X0.0651*%
%ADD143R,0.0206X0.0257*%
%ADD144R,0.0198X0.0170*%
%ADD145R,0.0188X0.0166*%
%ADD146R,0.0808X0.0178*%
G04:AMPARAMS|DCode=147|XSize=28mil|YSize=30mil|CornerRadius=7.4mil|HoleSize=0mil|Usage=FLASHONLY|Rotation=270.000|XOffset=0mil|YOffset=0mil|HoleType=Round|Shape=RoundedRectangle|*
%AMROUNDEDRECTD147*
21,1,0.0280,0.0152,0,0,270.0*
21,1,0.0132,0.0300,0,0,270.0*
1,1,0.0148,-0.0076,-0.0066*
1,1,0.0148,-0.0076,0.0066*
1,1,0.0148,0.0076,0.0066*
1,1,0.0148,0.0076,-0.0066*
%
%ADD147ROUNDEDRECTD147*%
G04:AMPARAMS|DCode=148|XSize=35.1mil|YSize=45.4mil|CornerRadius=8.8mil|HoleSize=0mil|Usage=FLASHONLY|Rotation=180.000|XOffset=0mil|YOffset=0mil|HoleType=Round|Shape=RoundedRectangle|*
%AMROUNDEDRECTD148*
21,1,0.0351,0.0277,0,0,180.0*
21,1,0.0175,0.0454,0,0,180.0*
1,1,0.0177,-0.0087,0.0139*
1,1,0.0177,0.0087,0.0139*
1,1,0.0177,0.0087,-0.0139*
1,1,0.0177,-0.0087,-0.0139*
%
%ADD148ROUNDEDRECTD148*%
G04:AMPARAMS|DCode=149|XSize=35.1mil|YSize=45.4mil|CornerRadius=8.8mil|HoleSize=0mil|Usage=FLASHONLY|Rotation=90.000|XOffset=0mil|YOffset=0mil|HoleType=Round|Shape=RoundedRectangle|*
%AMROUNDEDRECTD149*
21,1,0.0351,0.0277,0,0,90.0*
21,1,0.0175,0.0454,0,0,90.0*
1,1,0.0177,0.0139,0.0087*
1,1,0.0177,0.0139,-0.0087*
1,1,0.0177,-0.0139,-0.0087*
1,1,0.0177,-0.0139,0.0087*
%
%ADD149ROUNDEDRECTD149*%
G04:AMPARAMS|DCode=150|XSize=28mil|YSize=30mil|CornerRadius=7.4mil|HoleSize=0mil|Usage=FLASHONLY|Rotation=0.000|XOffset=0mil|YOffset=0mil|HoleType=Round|Shape=RoundedRectangle|*
%AMROUNDEDRECTD150*
21,1,0.0280,0.0152,0,0,0.0*
21,1,0.0132,0.0300,0,0,0.0*
1,1,0.0148,0.0066,-0.0076*
1,1,0.0148,-0.0066,-0.0076*
1,1,0.0148,-0.0066,0.0076*
1,1,0.0148,0.0066,0.0076*
%
%ADD150ROUNDEDRECTD150*%
G04:AMPARAMS|DCode=151|XSize=80mil|YSize=80mil|CornerRadius=40mil|HoleSize=0mil|Usage=FLASHONLY|Rotation=90.000|XOffset=0mil|YOffset=0mil|HoleType=Round|Shape=RoundedRectangle|*
%AMROUNDEDRECTD151*
21,1,0.0800,0.0000,0,0,90.0*
21,1,0.0000,0.0800,0,0,90.0*
1,1,0.0800,0.0000,0.0000*
1,1,0.0800,0.0000,0.0000*
1,1,0.0800,0.0000,0.0000*
1,1,0.0800,0.0000,0.0000*
%
%ADD151ROUNDEDRECTD151*%
%ADD152O,0.0395X0.0158*%
%ADD153O,0.0158X0.0395*%
%ADD154R,0.2147X0.2147*%
%ADD155R,0.0395X0.0277*%
%ADD156O,0.0513X0.0158*%
%ADD157R,0.0670X0.1123*%
G04:AMPARAMS|DCode=158|XSize=58mil|YSize=66mil|CornerRadius=16mil|HoleSize=0mil|Usage=FLASHONLY|Rotation=90.000|XOffset=0mil|YOffset=0mil|HoleType=Round|Shape=RoundedRectangle|*
%AMROUNDEDRECTD158*
21,1,0.0580,0.0340,0,0,90.0*
21,1,0.0260,0.0660,0,0,90.0*
1,1,0.0320,0.0170,0.0130*
1,1,0.0320,0.0170,-0.0130*
1,1,0.0320,-0.0170,-0.0130*
1,1,0.0320,-0.0170,0.0130*
%
%ADD158ROUNDEDRECTD158*%
%ADD159R,0.0340X0.0260*%
%ADD160O,0.0710X0.0355*%
%ADD161R,0.1320X0.1989*%
%ADD162C,0.0142*%
%ADD163R,0.0414X0.0217*%
%ADD164R,0.0580X0.0480*%
G04:AMPARAMS|DCode=165|XSize=56mil|YSize=56mil|CornerRadius=28mil|HoleSize=0mil|Usage=FLASHONLY|Rotation=270.000|XOffset=0mil|YOffset=0mil|HoleType=Round|Shape=RoundedRectangle|*
%AMROUNDEDRECTD165*
21,1,0.0560,0.0000,0,0,270.0*
21,1,0.0000,0.0560,0,0,270.0*
1,1,0.0560,0.0000,0.0000*
1,1,0.0560,0.0000,0.0000*
1,1,0.0560,0.0000,0.0000*
1,1,0.0560,0.0000,0.0000*
%
%ADD165ROUNDEDRECTD165*%
%ADD166R,0.1477X0.1477*%
%ADD167O,0.0158X0.0355*%
%ADD168O,0.0355X0.0158*%
%ADD169R,0.0651X0.0729*%
%ADD170R,0.1162X0.0355*%
%ADD171R,0.0178X0.0217*%
G04:AMPARAMS|DCode=172|XSize=56mil|YSize=56mil|CornerRadius=28mil|HoleSize=0mil|Usage=FLASHONLY|Rotation=180.000|XOffset=0mil|YOffset=0mil|HoleType=Round|Shape=RoundedRectangle|*
%AMROUNDEDRECTD172*
21,1,0.0560,0.0000,0,0,180.0*
21,1,0.0000,0.0560,0,0,180.0*
1,1,0.0560,0.0000,0.0000*
1,1,0.0560,0.0000,0.0000*
1,1,0.0560,0.0000,0.0000*
1,1,0.0560,0.0000,0.0000*
%
%ADD172ROUNDEDRECTD172*%
G04:AMPARAMS|DCode=173|XSize=55.2mil|YSize=42.6mil|CornerRadius=17.6mil|HoleSize=0mil|Usage=FLASHONLY|Rotation=270.000|XOffset=0mil|YOffset=0mil|HoleType=Round|Shape=RoundedRectangle|*
%AMROUNDEDRECTD173*
21,1,0.0552,0.0073,0,0,270.0*
21,1,0.0199,0.0426,0,0,270.0*
1,1,0.0353,-0.0037,-0.0100*
1,1,0.0353,-0.0037,0.0100*
1,1,0.0353,0.0037,0.0100*
1,1,0.0353,0.0037,-0.0100*
%
%ADD173ROUNDEDRECTD173*%
G04:AMPARAMS|DCode=174|XSize=67mil|YSize=41mil|CornerRadius=17mil|HoleSize=0mil|Usage=FLASHONLY|Rotation=0.000|XOffset=0mil|YOffset=0mil|HoleType=Round|Shape=RoundedRectangle|*
%AMROUNDEDRECTD174*
21,1,0.0670,0.0070,0,0,0.0*
21,1,0.0330,0.0410,0,0,0.0*
1,1,0.0340,0.0165,-0.0035*
1,1,0.0340,-0.0165,-0.0035*
1,1,0.0340,-0.0165,0.0035*
1,1,0.0340,0.0165,0.0035*
%
%ADD174ROUNDEDRECTD174*%
%ADD175C,0.0760*%
%ADD176C,0.0651*%
%ADD177P,0.0920X4X180.0*%
%ADD178P,0.0736X8X202.5*%
%ADD179R,0.0060X0.0060*%
G36*
X41177Y25783D02*
X40488Y25783D01*
X40488Y26295D01*
X41177Y26295D01*
X41177Y25783D01*
D02*
G37*
G36*
X21066D02*
X20377Y25783D01*
X20377Y26295D01*
X21066Y26295D01*
X21066Y25783D01*
D02*
G37*
G36*
X954D02*
X266Y25783D01*
X266Y26295D01*
X954Y26295D01*
X954Y25783D01*
D02*
G37*
G36*
X41177Y23539D02*
X40488Y23539D01*
X40488Y24051D01*
X41177Y24051D01*
X41177Y23539D01*
D02*
G37*
G36*
X21066D02*
X20377Y23539D01*
X20377Y24051D01*
X21066Y24051D01*
X21066Y23539D01*
D02*
G37*
G36*
X954D02*
X266Y23539D01*
X266Y24051D01*
X954Y24051D01*
X954Y23539D01*
D02*
G37*
D137*
X2550Y4199D02*
G03*
X2550Y4199I-610J0D01*
G01*
X2770Y29509D02*
G03*
X2770Y29509I-610J0D01*
G01*
X18481Y22159D02*
G03*
X18481Y22159I-610J0D01*
G01*
Y4269D02*
G03*
X18481Y4269I-610J0D01*
G01*
X22662Y4199D02*
G03*
X22662Y4199I-610J0D01*
G01*
X22882Y29509D02*
G03*
X22882Y29509I-610J0D01*
G01*
X38593Y22159D02*
G03*
X38593Y22159I-610J0D01*
G01*
Y4269D02*
G03*
X38593Y4269I-610J0D01*
G01*
X42773Y4199D02*
G03*
X42773Y4199I-610J0D01*
G01*
X42993Y29509D02*
G03*
X42993Y29509I-610J0D01*
G01*
X58704Y22159D02*
G03*
X58704Y22159I-610J0D01*
G01*
Y4269D02*
G03*
X58704Y4269I-610J0D01*
G01*
D138*
X6350Y8949D02*
D03*
X26461D02*
D03*
X46573D02*
D03*
D139*
X6350D02*
D03*
X26461D02*
D03*
X46573D02*
D03*
D140*
X3789Y1289D02*
D03*
X56151Y1319D02*
D03*
Y32519D02*
D03*
X3789D02*
D03*
D141*
X1673Y24405D02*
D03*
Y24661D02*
D03*
Y24917D02*
D03*
Y25173D02*
D03*
Y25429D02*
D03*
X21784Y24405D02*
D03*
Y24661D02*
D03*
Y24917D02*
D03*
Y25173D02*
D03*
Y25429D02*
D03*
X41896Y24405D02*
D03*
Y24661D02*
D03*
Y24917D02*
D03*
Y25173D02*
D03*
Y25429D02*
D03*
D142*
X610Y25311D02*
D03*
Y24523D02*
D03*
X20721Y25311D02*
D03*
Y24523D02*
D03*
X40833Y25311D02*
D03*
Y24523D02*
D03*
D143*
X1928Y17264D02*
D03*
X1247Y14193D02*
D03*
Y17264D02*
D03*
X1928Y14193D02*
D03*
X22040Y17264D02*
D03*
X21359Y14193D02*
D03*
Y17264D02*
D03*
X22040Y14193D02*
D03*
X42151Y17264D02*
D03*
X41470Y14193D02*
D03*
Y17264D02*
D03*
X42151Y14193D02*
D03*
D144*
X1948Y16988D02*
D03*
Y16831D02*
D03*
Y16673D02*
D03*
Y16516D02*
D03*
Y16358D02*
D03*
Y16201D02*
D03*
Y16043D02*
D03*
Y15886D02*
D03*
Y15728D02*
D03*
Y15571D02*
D03*
Y15413D02*
D03*
Y15256D02*
D03*
Y15098D02*
D03*
Y14941D02*
D03*
Y14783D02*
D03*
Y14626D02*
D03*
Y14469D02*
D03*
X1227D02*
D03*
Y16988D02*
D03*
Y16831D02*
D03*
Y16673D02*
D03*
Y16516D02*
D03*
Y16358D02*
D03*
Y16201D02*
D03*
Y16043D02*
D03*
Y15886D02*
D03*
Y15728D02*
D03*
Y15571D02*
D03*
Y15413D02*
D03*
Y15256D02*
D03*
Y15098D02*
D03*
Y14941D02*
D03*
Y14783D02*
D03*
Y14626D02*
D03*
X22059Y16988D02*
D03*
Y16831D02*
D03*
Y16673D02*
D03*
Y16516D02*
D03*
Y16358D02*
D03*
Y16201D02*
D03*
Y16043D02*
D03*
Y15886D02*
D03*
Y15728D02*
D03*
Y15571D02*
D03*
Y15413D02*
D03*
Y15256D02*
D03*
Y15098D02*
D03*
Y14941D02*
D03*
Y14783D02*
D03*
Y14626D02*
D03*
Y14469D02*
D03*
X21339D02*
D03*
Y16988D02*
D03*
Y16831D02*
D03*
Y16673D02*
D03*
Y16516D02*
D03*
Y16358D02*
D03*
Y16201D02*
D03*
Y16043D02*
D03*
Y15886D02*
D03*
Y15728D02*
D03*
Y15571D02*
D03*
Y15413D02*
D03*
Y15256D02*
D03*
Y15098D02*
D03*
Y14941D02*
D03*
Y14783D02*
D03*
Y14626D02*
D03*
X42171Y16988D02*
D03*
Y16831D02*
D03*
Y16673D02*
D03*
Y16516D02*
D03*
Y16358D02*
D03*
Y16201D02*
D03*
Y16043D02*
D03*
Y15886D02*
D03*
Y15728D02*
D03*
Y15571D02*
D03*
Y15413D02*
D03*
Y15256D02*
D03*
Y15098D02*
D03*
Y14941D02*
D03*
Y14783D02*
D03*
Y14626D02*
D03*
Y14469D02*
D03*
X41450D02*
D03*
Y16988D02*
D03*
Y16831D02*
D03*
Y16673D02*
D03*
Y16516D02*
D03*
Y16358D02*
D03*
Y16201D02*
D03*
Y16043D02*
D03*
Y15886D02*
D03*
Y15728D02*
D03*
Y15571D02*
D03*
Y15413D02*
D03*
Y15256D02*
D03*
Y15098D02*
D03*
Y14941D02*
D03*
Y14783D02*
D03*
Y14626D02*
D03*
D145*
X2637Y25254D02*
D03*
X2903D02*
D03*
X2637Y25057D02*
D03*
Y24860D02*
D03*
X2903Y25057D02*
D03*
Y24860D02*
D03*
X22748Y25254D02*
D03*
X23014D02*
D03*
X22748Y25057D02*
D03*
Y24860D02*
D03*
X23014Y25057D02*
D03*
Y24860D02*
D03*
X42860Y25254D02*
D03*
X43125D02*
D03*
X42860Y25057D02*
D03*
Y24860D02*
D03*
X43125Y25057D02*
D03*
Y24860D02*
D03*
D146*
X3343Y11413D02*
D03*
Y11216D02*
D03*
Y11019D02*
D03*
Y10822D02*
D03*
Y10625D02*
D03*
Y10428D02*
D03*
Y10231D02*
D03*
Y10035D02*
D03*
Y9838D02*
D03*
Y9641D02*
D03*
Y9444D02*
D03*
Y9247D02*
D03*
Y9050D02*
D03*
Y8854D02*
D03*
Y8657D02*
D03*
Y8460D02*
D03*
Y8263D02*
D03*
Y8066D02*
D03*
Y7869D02*
D03*
X23454Y11413D02*
D03*
Y11216D02*
D03*
Y11019D02*
D03*
Y10822D02*
D03*
Y10625D02*
D03*
Y10428D02*
D03*
Y10231D02*
D03*
Y10035D02*
D03*
Y9838D02*
D03*
Y9641D02*
D03*
Y9444D02*
D03*
Y9247D02*
D03*
Y9050D02*
D03*
Y8854D02*
D03*
Y8657D02*
D03*
Y8460D02*
D03*
Y8263D02*
D03*
Y8066D02*
D03*
Y7869D02*
D03*
X43565Y11413D02*
D03*
Y11216D02*
D03*
Y11019D02*
D03*
Y10822D02*
D03*
Y10625D02*
D03*
Y10428D02*
D03*
Y10231D02*
D03*
Y10035D02*
D03*
Y9838D02*
D03*
Y9641D02*
D03*
Y9444D02*
D03*
Y9247D02*
D03*
Y9050D02*
D03*
Y8854D02*
D03*
Y8657D02*
D03*
Y8460D02*
D03*
Y8263D02*
D03*
Y8066D02*
D03*
Y7869D02*
D03*
D147*
X2990Y14546D02*
D03*
Y14169D02*
D03*
X2510Y14662D02*
D03*
Y15039D02*
D03*
Y15422D02*
D03*
Y15799D02*
D03*
X2500Y16556D02*
D03*
Y16179D02*
D03*
X6240Y10629D02*
D03*
Y11006D02*
D03*
X6290Y7059D02*
D03*
Y6682D02*
D03*
X5850Y6469D02*
D03*
Y6846D02*
D03*
X6750Y10629D02*
D03*
Y11006D02*
D03*
X781Y22629D02*
D03*
Y23006D02*
D03*
X1211Y22630D02*
D03*
Y23009D02*
D03*
X2321Y26702D02*
D03*
Y27079D02*
D03*
X10796Y24739D02*
D03*
Y25116D02*
D03*
X4831Y11009D02*
D03*
Y10632D02*
D03*
X7870Y10999D02*
D03*
Y10620D02*
D03*
X7470Y10999D02*
D03*
Y10620D02*
D03*
X3803Y22866D02*
D03*
Y22489D02*
D03*
X3813Y21460D02*
D03*
Y21837D02*
D03*
X4393Y20170D02*
D03*
Y20547D02*
D03*
X7169Y13956D02*
D03*
Y13579D02*
D03*
X12471Y27669D02*
D03*
Y28048D02*
D03*
X12061Y27669D02*
D03*
Y28048D02*
D03*
X11441Y21938D02*
D03*
Y21559D02*
D03*
X4671Y29339D02*
D03*
Y28962D02*
D03*
X23101Y14546D02*
D03*
Y14169D02*
D03*
X22621Y14662D02*
D03*
Y15039D02*
D03*
Y15422D02*
D03*
Y15799D02*
D03*
X22611Y16556D02*
D03*
Y16179D02*
D03*
X26351Y10629D02*
D03*
Y11006D02*
D03*
X26401Y7059D02*
D03*
Y6682D02*
D03*
X25961Y6469D02*
D03*
Y6846D02*
D03*
X26861Y10629D02*
D03*
Y11006D02*
D03*
X20892Y22629D02*
D03*
Y23006D02*
D03*
X21322Y22630D02*
D03*
Y23009D02*
D03*
X22432Y26702D02*
D03*
Y27079D02*
D03*
X30908Y24739D02*
D03*
Y25116D02*
D03*
X24943Y11009D02*
D03*
Y10632D02*
D03*
X27981Y10999D02*
D03*
Y10620D02*
D03*
X27581Y10999D02*
D03*
Y10620D02*
D03*
X23914Y22866D02*
D03*
Y22489D02*
D03*
X23924Y21460D02*
D03*
Y21837D02*
D03*
X24504Y20170D02*
D03*
Y20547D02*
D03*
X27281Y13956D02*
D03*
Y13579D02*
D03*
X32582Y27669D02*
D03*
Y28048D02*
D03*
X32172Y27669D02*
D03*
Y28048D02*
D03*
X31552Y21938D02*
D03*
Y21559D02*
D03*
X24782Y29339D02*
D03*
Y28962D02*
D03*
X43213Y14546D02*
D03*
Y14169D02*
D03*
X42733Y14662D02*
D03*
Y15039D02*
D03*
Y15422D02*
D03*
Y15799D02*
D03*
X42723Y16556D02*
D03*
Y16179D02*
D03*
X46463Y10629D02*
D03*
Y11006D02*
D03*
X46513Y7059D02*
D03*
Y6682D02*
D03*
X46073Y6469D02*
D03*
Y6846D02*
D03*
X46973Y10629D02*
D03*
Y11006D02*
D03*
X41004Y22629D02*
D03*
Y23006D02*
D03*
X41434Y22630D02*
D03*
Y23009D02*
D03*
X42544Y26702D02*
D03*
Y27079D02*
D03*
X51019Y24739D02*
D03*
Y25116D02*
D03*
X45054Y11009D02*
D03*
Y10632D02*
D03*
X48093Y10999D02*
D03*
Y10620D02*
D03*
X47693Y10999D02*
D03*
Y10620D02*
D03*
X44026Y22866D02*
D03*
Y22489D02*
D03*
X44036Y21460D02*
D03*
Y21837D02*
D03*
X44616Y20170D02*
D03*
Y20547D02*
D03*
X47392Y13956D02*
D03*
Y13579D02*
D03*
X52694Y27669D02*
D03*
Y28048D02*
D03*
X52284Y27669D02*
D03*
Y28048D02*
D03*
X51664Y21938D02*
D03*
Y21559D02*
D03*
X44894Y29339D02*
D03*
Y28962D02*
D03*
D148*
X5649Y29219D02*
D03*
X5113D02*
D03*
X8669Y19119D02*
D03*
X9204D02*
D03*
X11486Y19549D02*
D03*
X10950D02*
D03*
X5129Y27947D02*
D03*
X4593D02*
D03*
X18239Y11959D02*
D03*
X17703D02*
D03*
X16091Y13769D02*
D03*
X16626D02*
D03*
X10950Y20119D02*
D03*
X11486D02*
D03*
X4490Y12607D02*
D03*
X3955D02*
D03*
X5274Y10717D02*
D03*
X5809D02*
D03*
X3569Y23989D02*
D03*
X3033D02*
D03*
X2763Y26606D02*
D03*
X3299D02*
D03*
Y27166D02*
D03*
X2763D02*
D03*
X17703Y10819D02*
D03*
X18239D02*
D03*
X16091Y14447D02*
D03*
X16626D02*
D03*
X14713Y14211D02*
D03*
X15249D02*
D03*
X16170Y17203D02*
D03*
X16705D02*
D03*
X5099Y27106D02*
D03*
X4563D02*
D03*
X17703Y11399D02*
D03*
X18239D02*
D03*
X25760Y29219D02*
D03*
X25225D02*
D03*
X28780Y19119D02*
D03*
X29316D02*
D03*
X31597Y19549D02*
D03*
X31061D02*
D03*
X25240Y27947D02*
D03*
X24705D02*
D03*
X38350Y11959D02*
D03*
X37815D02*
D03*
X36202Y13769D02*
D03*
X36738D02*
D03*
X31061Y20119D02*
D03*
X31597D02*
D03*
X24601Y12607D02*
D03*
X24066D02*
D03*
X25385Y10717D02*
D03*
X25920D02*
D03*
X23680Y23989D02*
D03*
X23145D02*
D03*
X22875Y26606D02*
D03*
X23410D02*
D03*
Y27166D02*
D03*
X22875D02*
D03*
X37815Y10819D02*
D03*
X38350D02*
D03*
X36202Y14447D02*
D03*
X36738D02*
D03*
X34824Y14211D02*
D03*
X35360D02*
D03*
X36281Y17203D02*
D03*
X36817D02*
D03*
X25210Y27106D02*
D03*
X24675D02*
D03*
X37815Y11399D02*
D03*
X38350D02*
D03*
X45872Y29219D02*
D03*
X45336D02*
D03*
X48892Y19119D02*
D03*
X49427D02*
D03*
X51708Y19549D02*
D03*
X51173D02*
D03*
X45352Y27947D02*
D03*
X44816D02*
D03*
X58462Y11959D02*
D03*
X57926D02*
D03*
X56314Y13769D02*
D03*
X56849D02*
D03*
X51173Y20119D02*
D03*
X51708D02*
D03*
X44713Y12607D02*
D03*
X44177D02*
D03*
X45496Y10717D02*
D03*
X46032D02*
D03*
X43792Y23989D02*
D03*
X43256D02*
D03*
X42986Y26606D02*
D03*
X43522D02*
D03*
Y27166D02*
D03*
X42986D02*
D03*
X57926Y10819D02*
D03*
X58462D02*
D03*
X56314Y14447D02*
D03*
X56849D02*
D03*
X54936Y14211D02*
D03*
X55471D02*
D03*
X56392Y17203D02*
D03*
X56928D02*
D03*
X45321Y27106D02*
D03*
X44786D02*
D03*
X57926Y11399D02*
D03*
X58461D02*
D03*
D149*
X14130Y7567D02*
D03*
Y7032D02*
D03*
X5461Y29752D02*
D03*
Y30287D02*
D03*
X13455Y14967D02*
D03*
Y14432D02*
D03*
X13151Y11372D02*
D03*
Y11907D02*
D03*
X15728Y20052D02*
D03*
Y20587D02*
D03*
X4891Y29752D02*
D03*
Y30287D02*
D03*
X13455Y15977D02*
D03*
Y15442D02*
D03*
X13151Y12372D02*
D03*
Y12907D02*
D03*
X16251Y9379D02*
D03*
Y8843D02*
D03*
X3323Y21499D02*
D03*
Y22034D02*
D03*
X14643Y12492D02*
D03*
Y13027D02*
D03*
X15935Y19567D02*
D03*
Y19032D02*
D03*
X12105Y19028D02*
D03*
Y19564D02*
D03*
X14666Y15502D02*
D03*
Y14967D02*
D03*
X17658Y14927D02*
D03*
Y15463D02*
D03*
X15666Y9379D02*
D03*
Y8843D02*
D03*
X13860Y9377D02*
D03*
Y8842D02*
D03*
X15081Y9379D02*
D03*
Y8843D02*
D03*
X14496D02*
D03*
Y9379D02*
D03*
X17410Y8997D02*
D03*
Y8462D02*
D03*
X15549Y10799D02*
D03*
Y11334D02*
D03*
X14919Y10799D02*
D03*
Y11334D02*
D03*
X14289Y10799D02*
D03*
Y11334D02*
D03*
X16811Y10802D02*
D03*
Y11337D02*
D03*
X13191Y27262D02*
D03*
Y27797D02*
D03*
X16836Y8843D02*
D03*
Y9379D02*
D03*
X34241Y7567D02*
D03*
Y7032D02*
D03*
X25572Y29752D02*
D03*
Y30287D02*
D03*
X33566Y14967D02*
D03*
Y14432D02*
D03*
X33262Y11372D02*
D03*
Y11907D02*
D03*
X35839Y20052D02*
D03*
Y20587D02*
D03*
X25002Y29752D02*
D03*
Y30287D02*
D03*
X33566Y15977D02*
D03*
Y15442D02*
D03*
X33262Y12372D02*
D03*
Y12907D02*
D03*
X36363Y9379D02*
D03*
Y8843D02*
D03*
X23434Y21499D02*
D03*
Y22034D02*
D03*
X34755Y12492D02*
D03*
Y13027D02*
D03*
X36046Y19567D02*
D03*
Y19032D02*
D03*
X32216Y19028D02*
D03*
Y19564D02*
D03*
X34777Y15502D02*
D03*
Y14967D02*
D03*
X37769Y14927D02*
D03*
Y15463D02*
D03*
X35778Y9379D02*
D03*
Y8843D02*
D03*
X33971Y9377D02*
D03*
Y8842D02*
D03*
X35193Y9379D02*
D03*
Y8843D02*
D03*
X34608D02*
D03*
Y9379D02*
D03*
X37521Y8997D02*
D03*
Y8462D02*
D03*
X35660Y10799D02*
D03*
Y11334D02*
D03*
X35030Y10799D02*
D03*
Y11334D02*
D03*
X34400Y10799D02*
D03*
Y11334D02*
D03*
X36922Y10802D02*
D03*
Y11337D02*
D03*
X33302Y27262D02*
D03*
Y27797D02*
D03*
X36948Y8843D02*
D03*
Y9379D02*
D03*
X54353Y7567D02*
D03*
Y7032D02*
D03*
X45684Y29752D02*
D03*
Y30287D02*
D03*
X53677Y14967D02*
D03*
Y14432D02*
D03*
X53374Y11372D02*
D03*
Y11907D02*
D03*
X55951Y20052D02*
D03*
Y20587D02*
D03*
X45114Y29752D02*
D03*
Y30287D02*
D03*
X53677Y15977D02*
D03*
Y15442D02*
D03*
X53374Y12372D02*
D03*
Y12907D02*
D03*
X56474Y9379D02*
D03*
Y8843D02*
D03*
X43546Y21499D02*
D03*
Y22034D02*
D03*
X54866Y12492D02*
D03*
Y13027D02*
D03*
X56157Y19567D02*
D03*
Y19032D02*
D03*
X52328Y19028D02*
D03*
Y19564D02*
D03*
X54889Y15502D02*
D03*
Y14967D02*
D03*
X57881Y14927D02*
D03*
Y15463D02*
D03*
X55889Y9379D02*
D03*
Y8843D02*
D03*
X54083Y9377D02*
D03*
Y8842D02*
D03*
X55304Y9379D02*
D03*
Y8843D02*
D03*
X54719D02*
D03*
Y9379D02*
D03*
X57633Y8997D02*
D03*
Y8462D02*
D03*
X55771Y10799D02*
D03*
Y11334D02*
D03*
X55141Y10799D02*
D03*
Y11334D02*
D03*
X54512Y10799D02*
D03*
Y11334D02*
D03*
X57034Y10802D02*
D03*
Y11337D02*
D03*
X53414Y27262D02*
D03*
Y27797D02*
D03*
X57059Y8843D02*
D03*
Y9379D02*
D03*
D150*
X13963Y9839D02*
D03*
X14340D02*
D03*
X12132Y28799D02*
D03*
X12511D02*
D03*
X12250Y29849D02*
D03*
X11871D02*
D03*
X11872Y29459D02*
D03*
X12251D02*
D03*
X16627Y16573D02*
D03*
X16249D02*
D03*
X17310Y16534D02*
D03*
X17689D02*
D03*
X7071Y28277D02*
D03*
X7450D02*
D03*
X7071Y28669D02*
D03*
X7450D02*
D03*
X10278Y24191D02*
D03*
X9901D02*
D03*
X9301Y25887D02*
D03*
X9680D02*
D03*
X5856Y7263D02*
D03*
X5479D02*
D03*
X6377Y13079D02*
D03*
X6754D02*
D03*
X6757Y13869D02*
D03*
X6380D02*
D03*
X4883Y19737D02*
D03*
X4504D02*
D03*
X4883Y19347D02*
D03*
X4504D02*
D03*
X6374Y13475D02*
D03*
X6753D02*
D03*
X4721Y26579D02*
D03*
X5098D02*
D03*
X1001Y27269D02*
D03*
X624D02*
D03*
X1001Y26879D02*
D03*
X624D02*
D03*
X34074Y9839D02*
D03*
X34451D02*
D03*
X32243Y28799D02*
D03*
X32622D02*
D03*
X32361Y29849D02*
D03*
X31982D02*
D03*
X31983Y29459D02*
D03*
X32362D02*
D03*
X36739Y16573D02*
D03*
X36360D02*
D03*
X37422Y16534D02*
D03*
X37801D02*
D03*
X27182Y28277D02*
D03*
X27561D02*
D03*
X27182Y28669D02*
D03*
X27561D02*
D03*
X30389Y24191D02*
D03*
X30012D02*
D03*
X29412Y25887D02*
D03*
X29791D02*
D03*
X25968Y7263D02*
D03*
X25591D02*
D03*
X26489Y13079D02*
D03*
X26866D02*
D03*
X26868Y13869D02*
D03*
X26491D02*
D03*
X24994Y19737D02*
D03*
X24615D02*
D03*
X24994Y19347D02*
D03*
X24615D02*
D03*
X26486Y13475D02*
D03*
X26865D02*
D03*
X24832Y26579D02*
D03*
X25209D02*
D03*
X21112Y27269D02*
D03*
X20735D02*
D03*
X21112Y26879D02*
D03*
X20735D02*
D03*
X54186Y9839D02*
D03*
X54563D02*
D03*
X52355Y28799D02*
D03*
X52734D02*
D03*
X52473Y29849D02*
D03*
X52094D02*
D03*
X52095Y29459D02*
D03*
X52474D02*
D03*
X56850Y16573D02*
D03*
X56471D02*
D03*
X57533Y16534D02*
D03*
X57912D02*
D03*
X47294Y28277D02*
D03*
X47673D02*
D03*
X47294Y28669D02*
D03*
X47673D02*
D03*
X50500Y24191D02*
D03*
X50124D02*
D03*
X49524Y25887D02*
D03*
X49903D02*
D03*
X46079Y7263D02*
D03*
X45702D02*
D03*
X46600Y13079D02*
D03*
X46977D02*
D03*
X46980Y13869D02*
D03*
X46603D02*
D03*
X45106Y19737D02*
D03*
X44727D02*
D03*
X45106Y19347D02*
D03*
X44727D02*
D03*
X46597Y13475D02*
D03*
X46976D02*
D03*
X44944Y26579D02*
D03*
X45321D02*
D03*
X41224Y27269D02*
D03*
X40847D02*
D03*
X41224Y26879D02*
D03*
X40847D02*
D03*
D151*
X18171Y30599D02*
D03*
X18791Y5909D02*
D03*
X710Y5419D02*
D03*
X38282Y30599D02*
D03*
X38902Y5909D02*
D03*
X20821Y5419D02*
D03*
X58394Y30599D02*
D03*
X59014Y5909D02*
D03*
X40933Y5419D02*
D03*
D152*
X8352Y28961D02*
D03*
Y28764D02*
D03*
Y28567D02*
D03*
Y28371D02*
D03*
Y28174D02*
D03*
Y27977D02*
D03*
Y27780D02*
D03*
Y27583D02*
D03*
Y27386D02*
D03*
Y27190D02*
D03*
Y26993D02*
D03*
X11010D02*
D03*
Y27190D02*
D03*
Y27386D02*
D03*
Y27583D02*
D03*
Y27780D02*
D03*
Y27977D02*
D03*
Y28174D02*
D03*
Y28371D02*
D03*
Y28567D02*
D03*
Y28764D02*
D03*
Y28961D02*
D03*
X28464D02*
D03*
Y28764D02*
D03*
Y28567D02*
D03*
Y28371D02*
D03*
Y28174D02*
D03*
Y27977D02*
D03*
Y27780D02*
D03*
Y27583D02*
D03*
Y27386D02*
D03*
Y27190D02*
D03*
Y26993D02*
D03*
X31121D02*
D03*
Y27190D02*
D03*
Y27386D02*
D03*
Y27583D02*
D03*
Y27780D02*
D03*
Y27977D02*
D03*
Y28174D02*
D03*
Y28371D02*
D03*
Y28567D02*
D03*
Y28764D02*
D03*
Y28961D02*
D03*
X48575D02*
D03*
Y28764D02*
D03*
Y28567D02*
D03*
Y28371D02*
D03*
Y28174D02*
D03*
Y27977D02*
D03*
Y27780D02*
D03*
Y27583D02*
D03*
Y27386D02*
D03*
Y27190D02*
D03*
Y26993D02*
D03*
X51233D02*
D03*
Y27190D02*
D03*
Y27386D02*
D03*
Y27583D02*
D03*
Y27780D02*
D03*
Y27977D02*
D03*
Y28174D02*
D03*
Y28371D02*
D03*
Y28567D02*
D03*
Y28764D02*
D03*
Y28961D02*
D03*
D153*
X8697Y26648D02*
D03*
X8894D02*
D03*
X9091D02*
D03*
X9287D02*
D03*
X9484D02*
D03*
X9681D02*
D03*
X9878D02*
D03*
X10075D02*
D03*
X10272D02*
D03*
X10468D02*
D03*
X10665D02*
D03*
Y29306D02*
D03*
X10468D02*
D03*
X10272D02*
D03*
X10075D02*
D03*
X9878D02*
D03*
X9681D02*
D03*
X9484D02*
D03*
X9287D02*
D03*
X9091D02*
D03*
X8894D02*
D03*
X8697D02*
D03*
X28808Y26648D02*
D03*
X29005D02*
D03*
X29202D02*
D03*
X29399D02*
D03*
X29596D02*
D03*
X29792D02*
D03*
X29989D02*
D03*
X30186D02*
D03*
X30383D02*
D03*
X30580D02*
D03*
X30777D02*
D03*
Y29306D02*
D03*
X30580D02*
D03*
X30383D02*
D03*
X30186D02*
D03*
X29989D02*
D03*
X29792D02*
D03*
X29596D02*
D03*
X29399D02*
D03*
X29202D02*
D03*
X29005D02*
D03*
X28808D02*
D03*
X48920Y26648D02*
D03*
X49116D02*
D03*
X49313D02*
D03*
X49510D02*
D03*
X49707D02*
D03*
X49904D02*
D03*
X50101D02*
D03*
X50297D02*
D03*
X50494D02*
D03*
X50691D02*
D03*
X50888D02*
D03*
Y29306D02*
D03*
X50691D02*
D03*
X50494D02*
D03*
X50297D02*
D03*
X50101D02*
D03*
X49904D02*
D03*
X49707D02*
D03*
X49510D02*
D03*
X49313D02*
D03*
X49116D02*
D03*
X48920D02*
D03*
D154*
X9681Y27977D02*
D03*
X29792D02*
D03*
X49904D02*
D03*
D155*
X16792Y7522D02*
D03*
Y7896D02*
D03*
Y8270D02*
D03*
X15748D02*
D03*
Y7522D02*
D03*
X36903D02*
D03*
Y7896D02*
D03*
Y8270D02*
D03*
X35860D02*
D03*
Y7522D02*
D03*
X57014D02*
D03*
Y7896D02*
D03*
Y8270D02*
D03*
X55971D02*
D03*
Y7522D02*
D03*
D156*
X17058Y15077D02*
D03*
Y15274D02*
D03*
Y15471D02*
D03*
Y15667D02*
D03*
Y15864D02*
D03*
X15345Y15077D02*
D03*
Y15274D02*
D03*
Y15471D02*
D03*
Y15667D02*
D03*
Y15864D02*
D03*
X15322Y12799D02*
D03*
Y12602D02*
D03*
Y12405D02*
D03*
Y12208D02*
D03*
Y12012D02*
D03*
X17035Y12799D02*
D03*
Y12602D02*
D03*
Y12405D02*
D03*
Y12208D02*
D03*
Y12012D02*
D03*
X37169Y15077D02*
D03*
Y15274D02*
D03*
Y15471D02*
D03*
Y15667D02*
D03*
Y15864D02*
D03*
X35456Y15077D02*
D03*
Y15274D02*
D03*
Y15471D02*
D03*
Y15667D02*
D03*
Y15864D02*
D03*
X35434Y12799D02*
D03*
Y12602D02*
D03*
Y12405D02*
D03*
Y12208D02*
D03*
Y12012D02*
D03*
X37146Y12799D02*
D03*
Y12602D02*
D03*
Y12405D02*
D03*
Y12208D02*
D03*
Y12012D02*
D03*
X57280Y15077D02*
D03*
Y15274D02*
D03*
Y15471D02*
D03*
Y15667D02*
D03*
Y15864D02*
D03*
X55568Y15077D02*
D03*
Y15274D02*
D03*
Y15471D02*
D03*
Y15667D02*
D03*
Y15864D02*
D03*
X55545Y12799D02*
D03*
Y12602D02*
D03*
Y12405D02*
D03*
Y12208D02*
D03*
Y12012D02*
D03*
X57258Y12799D02*
D03*
Y12602D02*
D03*
Y12405D02*
D03*
Y12208D02*
D03*
Y12012D02*
D03*
D157*
X15847Y6361D02*
D03*
X16693D02*
D03*
X35958D02*
D03*
X36805D02*
D03*
X56069D02*
D03*
X56916D02*
D03*
D158*
X17871Y12583D02*
D03*
Y13337D02*
D03*
X14806Y7327D02*
D03*
Y8081D02*
D03*
X13856Y11992D02*
D03*
Y12746D02*
D03*
X17930Y7045D02*
D03*
Y7799D02*
D03*
X3921Y27300D02*
D03*
Y26546D02*
D03*
X37983Y12583D02*
D03*
Y13337D02*
D03*
X34918Y7327D02*
D03*
Y8081D02*
D03*
X33967Y11992D02*
D03*
Y12746D02*
D03*
X38041Y7045D02*
D03*
Y7799D02*
D03*
X24032Y27300D02*
D03*
Y26546D02*
D03*
X58094Y12583D02*
D03*
Y13337D02*
D03*
X55029Y7327D02*
D03*
Y8081D02*
D03*
X54078Y11992D02*
D03*
Y12746D02*
D03*
X58153Y7045D02*
D03*
Y7799D02*
D03*
X44144Y27300D02*
D03*
Y26546D02*
D03*
D159*
X17372Y6361D02*
D03*
X17924D02*
D03*
X37484D02*
D03*
X38035D02*
D03*
X57595D02*
D03*
X58146D02*
D03*
D160*
X12912Y19569D02*
D03*
Y19069D02*
D03*
Y18569D02*
D03*
Y18069D02*
D03*
X15137Y19569D02*
D03*
Y19069D02*
D03*
Y18569D02*
D03*
Y18069D02*
D03*
X33024Y19569D02*
D03*
Y19069D02*
D03*
Y18569D02*
D03*
Y18069D02*
D03*
X35248Y19569D02*
D03*
Y19069D02*
D03*
Y18569D02*
D03*
Y18069D02*
D03*
X53135Y19569D02*
D03*
Y19069D02*
D03*
Y18569D02*
D03*
Y18069D02*
D03*
X55360Y19569D02*
D03*
Y19069D02*
D03*
Y18569D02*
D03*
Y18069D02*
D03*
D161*
X14025Y18819D02*
D03*
X34136D02*
D03*
X54247D02*
D03*
D162*
X6105Y15906D02*
D03*
X6361D02*
D03*
X6873D02*
D03*
X7129D02*
D03*
X7385D02*
D03*
X7641D02*
D03*
X8152D02*
D03*
X8408D02*
D03*
X6361Y15650D02*
D03*
X8152D02*
D03*
X8408D02*
D03*
X6361Y15394D02*
D03*
X6617D02*
D03*
X6873D02*
D03*
X7129D02*
D03*
X7385D02*
D03*
X7641D02*
D03*
X7896D02*
D03*
X8152D02*
D03*
X8408D02*
D03*
X6105Y15138D02*
D03*
X6361D02*
D03*
X6617D02*
D03*
X6873D02*
D03*
X7129D02*
D03*
X7385D02*
D03*
X7641D02*
D03*
X7896D02*
D03*
X8152D02*
D03*
X8408D02*
D03*
Y16161D02*
D03*
X8152D02*
D03*
X7641D02*
D03*
X7385D02*
D03*
X7129D02*
D03*
X6873D02*
D03*
X8408Y16417D02*
D03*
X8152D02*
D03*
X7641D02*
D03*
X7385D02*
D03*
X7129D02*
D03*
X6873D02*
D03*
X6105D02*
D03*
X8408Y16673D02*
D03*
X8152D02*
D03*
X7641D02*
D03*
X7385D02*
D03*
X7129D02*
D03*
X6873D02*
D03*
X6361D02*
D03*
X6105D02*
D03*
X8408Y16929D02*
D03*
X8152D02*
D03*
X6361D02*
D03*
X6105D02*
D03*
X8408Y17185D02*
D03*
X8152D02*
D03*
X7896D02*
D03*
X7641D02*
D03*
X7385D02*
D03*
X7129D02*
D03*
X6873D02*
D03*
X6617D02*
D03*
X6361D02*
D03*
X6105D02*
D03*
X8408Y17441D02*
D03*
X8152D02*
D03*
X7896D02*
D03*
X7641D02*
D03*
X7385D02*
D03*
X7129D02*
D03*
X6873D02*
D03*
X6617D02*
D03*
X6361D02*
D03*
X6105D02*
D03*
Y15394D02*
D03*
Y15650D02*
D03*
X6361Y16161D02*
D03*
X6105D02*
D03*
X6361Y16417D02*
D03*
X26216Y15906D02*
D03*
X26472D02*
D03*
X26984D02*
D03*
X27240D02*
D03*
X27496D02*
D03*
X27752D02*
D03*
X28264D02*
D03*
X28520D02*
D03*
X26472Y15650D02*
D03*
X28264D02*
D03*
X28520D02*
D03*
X26472Y15394D02*
D03*
X26728D02*
D03*
X26984D02*
D03*
X27240D02*
D03*
X27496D02*
D03*
X27752D02*
D03*
X28008D02*
D03*
X28264D02*
D03*
X28520D02*
D03*
X26216Y15138D02*
D03*
X26472D02*
D03*
X26728D02*
D03*
X26984D02*
D03*
X27240D02*
D03*
X27496D02*
D03*
X27752D02*
D03*
X28008D02*
D03*
X28264D02*
D03*
X28520D02*
D03*
Y16161D02*
D03*
X28264D02*
D03*
X27752D02*
D03*
X27496D02*
D03*
X27240D02*
D03*
X26984D02*
D03*
X28520Y16417D02*
D03*
X28264D02*
D03*
X27752D02*
D03*
X27496D02*
D03*
X27240D02*
D03*
X26984D02*
D03*
X26216D02*
D03*
X28520Y16673D02*
D03*
X28264D02*
D03*
X27752D02*
D03*
X27496D02*
D03*
X27240D02*
D03*
X26984D02*
D03*
X26472D02*
D03*
X26216D02*
D03*
X28520Y16929D02*
D03*
X28264D02*
D03*
X26472D02*
D03*
X26216D02*
D03*
X28520Y17185D02*
D03*
X28264D02*
D03*
X28008D02*
D03*
X27752D02*
D03*
X27496D02*
D03*
X27240D02*
D03*
X26984D02*
D03*
X26728D02*
D03*
X26472D02*
D03*
X26216D02*
D03*
X28520Y17441D02*
D03*
X28264D02*
D03*
X28008D02*
D03*
X27752D02*
D03*
X27496D02*
D03*
X27240D02*
D03*
X26984D02*
D03*
X26728D02*
D03*
X26472D02*
D03*
X26216D02*
D03*
Y15394D02*
D03*
Y15650D02*
D03*
X26472Y16161D02*
D03*
X26216D02*
D03*
X26472Y16417D02*
D03*
X46328Y15906D02*
D03*
X46584D02*
D03*
X47096D02*
D03*
X47351D02*
D03*
X47607D02*
D03*
X47863D02*
D03*
X48375D02*
D03*
X48631D02*
D03*
X46584Y15650D02*
D03*
X48375D02*
D03*
X48631D02*
D03*
X46584Y15394D02*
D03*
X46840D02*
D03*
X47096D02*
D03*
X47351D02*
D03*
X47607D02*
D03*
X47863D02*
D03*
X48119D02*
D03*
X48375D02*
D03*
X48631D02*
D03*
X46328Y15138D02*
D03*
X46584D02*
D03*
X46840D02*
D03*
X47096D02*
D03*
X47351D02*
D03*
X47607D02*
D03*
X47863D02*
D03*
X48119D02*
D03*
X48375D02*
D03*
X48631D02*
D03*
Y16161D02*
D03*
X48375D02*
D03*
X47863D02*
D03*
X47607D02*
D03*
X47351D02*
D03*
X47096D02*
D03*
X48631Y16417D02*
D03*
X48375D02*
D03*
X47863D02*
D03*
X47607D02*
D03*
X47351D02*
D03*
X47096D02*
D03*
X46328D02*
D03*
X48631Y16673D02*
D03*
X48375D02*
D03*
X47863D02*
D03*
X47607D02*
D03*
X47351D02*
D03*
X47096D02*
D03*
X46584D02*
D03*
X46328D02*
D03*
X48631Y16929D02*
D03*
X48375D02*
D03*
X46584D02*
D03*
X46328D02*
D03*
X48631Y17185D02*
D03*
X48375D02*
D03*
X48119D02*
D03*
X47863D02*
D03*
X47607D02*
D03*
X47351D02*
D03*
X47096D02*
D03*
X46840D02*
D03*
X46584D02*
D03*
X46328D02*
D03*
X48631Y17441D02*
D03*
X48375D02*
D03*
X48119D02*
D03*
X47863D02*
D03*
X47607D02*
D03*
X47351D02*
D03*
X47096D02*
D03*
X46840D02*
D03*
X46584D02*
D03*
X46328D02*
D03*
Y15394D02*
D03*
Y15650D02*
D03*
X46584Y16161D02*
D03*
X46328D02*
D03*
X46584Y16417D02*
D03*
D163*
X4215Y25214D02*
D03*
Y24899D02*
D03*
X3545Y25214D02*
D03*
Y24899D02*
D03*
X24326Y25214D02*
D03*
Y24899D02*
D03*
X23657Y25214D02*
D03*
Y24899D02*
D03*
X44437Y25214D02*
D03*
Y24899D02*
D03*
X43768Y25214D02*
D03*
Y24899D02*
D03*
D164*
X10301Y24661D02*
D03*
X9389D02*
D03*
Y25396D02*
D03*
X10301D02*
D03*
X30413Y24661D02*
D03*
X29500D02*
D03*
Y25396D02*
D03*
X30413D02*
D03*
X50524Y24661D02*
D03*
X49611D02*
D03*
Y25396D02*
D03*
X50524D02*
D03*
D165*
X3031Y23149D02*
D03*
X3281Y25969D02*
D03*
X8051Y4959D02*
D03*
X13451Y10779D02*
D03*
X14823Y16573D02*
D03*
X6251Y30209D02*
D03*
X5121Y26009D02*
D03*
X17910Y9659D02*
D03*
X15910Y24569D02*
D03*
X16410Y27309D02*
D03*
X7630Y6309D02*
D03*
X10161Y22049D02*
D03*
X10181Y21039D02*
D03*
X6091Y23619D02*
D03*
X13790Y8189D02*
D03*
X15310Y27299D02*
D03*
X14160D02*
D03*
X790Y21009D02*
D03*
X16101Y25679D02*
D03*
X23142Y23149D02*
D03*
X23392Y25969D02*
D03*
X28162Y4959D02*
D03*
X33562Y10779D02*
D03*
X34935Y16573D02*
D03*
X26362Y30209D02*
D03*
X25232Y26009D02*
D03*
X38021Y9659D02*
D03*
X36021Y24569D02*
D03*
X36521Y27309D02*
D03*
X27741Y6309D02*
D03*
X30272Y22049D02*
D03*
X30292Y21039D02*
D03*
X26202Y23619D02*
D03*
X33901Y8189D02*
D03*
X35421Y27299D02*
D03*
X34271D02*
D03*
X20901Y21009D02*
D03*
X36212Y25679D02*
D03*
X43254Y23149D02*
D03*
X43504Y25969D02*
D03*
X48274Y4959D02*
D03*
X53674Y10779D02*
D03*
X55046Y16573D02*
D03*
X46474Y30209D02*
D03*
X45344Y26009D02*
D03*
X58133Y9659D02*
D03*
X56133Y24569D02*
D03*
X56633Y27309D02*
D03*
X47853Y6309D02*
D03*
X50384Y22049D02*
D03*
X50404Y21039D02*
D03*
X46314Y23619D02*
D03*
X54013Y8189D02*
D03*
X55533Y27299D02*
D03*
X54383D02*
D03*
X41013Y21009D02*
D03*
X56324Y25679D02*
D03*
D166*
X6350Y8949D02*
D03*
X26461D02*
D03*
X46573D02*
D03*
D167*
X7039Y8014D02*
D03*
X6842D02*
D03*
X6645D02*
D03*
X6448D02*
D03*
X6252D02*
D03*
X6055D02*
D03*
X5858D02*
D03*
X5661D02*
D03*
Y9884D02*
D03*
X5858D02*
D03*
X6055D02*
D03*
X6252D02*
D03*
X6448D02*
D03*
X6645D02*
D03*
X6842D02*
D03*
X7039D02*
D03*
X27150Y8014D02*
D03*
X26953D02*
D03*
X26757D02*
D03*
X26560D02*
D03*
X26363D02*
D03*
X26166D02*
D03*
X25969D02*
D03*
X25772D02*
D03*
Y9884D02*
D03*
X25969D02*
D03*
X26166D02*
D03*
X26363D02*
D03*
X26560D02*
D03*
X26757D02*
D03*
X26953D02*
D03*
X27150D02*
D03*
X47262Y8014D02*
D03*
X47065D02*
D03*
X46868D02*
D03*
X46671D02*
D03*
X46474D02*
D03*
X46277D02*
D03*
X46081D02*
D03*
X45884D02*
D03*
Y9884D02*
D03*
X46081D02*
D03*
X46277D02*
D03*
X46474D02*
D03*
X46671D02*
D03*
X46868D02*
D03*
X47065D02*
D03*
X47262D02*
D03*
D168*
X5415Y8260D02*
D03*
Y8457D02*
D03*
Y8654D02*
D03*
Y8851D02*
D03*
Y9048D02*
D03*
Y9245D02*
D03*
Y9441D02*
D03*
Y9638D02*
D03*
X7285D02*
D03*
Y9441D02*
D03*
Y9245D02*
D03*
Y9048D02*
D03*
Y8851D02*
D03*
Y8654D02*
D03*
Y8457D02*
D03*
Y8260D02*
D03*
X25526D02*
D03*
Y8457D02*
D03*
Y8654D02*
D03*
Y8851D02*
D03*
Y9048D02*
D03*
Y9245D02*
D03*
Y9441D02*
D03*
Y9638D02*
D03*
X27396D02*
D03*
Y9441D02*
D03*
Y9245D02*
D03*
Y9048D02*
D03*
Y8851D02*
D03*
Y8654D02*
D03*
Y8457D02*
D03*
Y8260D02*
D03*
X45638D02*
D03*
Y8457D02*
D03*
Y8654D02*
D03*
Y8851D02*
D03*
Y9048D02*
D03*
Y9245D02*
D03*
Y9441D02*
D03*
Y9638D02*
D03*
X47508D02*
D03*
Y9441D02*
D03*
Y9245D02*
D03*
Y9048D02*
D03*
Y8851D02*
D03*
Y8654D02*
D03*
Y8457D02*
D03*
Y8260D02*
D03*
D169*
X3816Y20697D02*
D03*
Y19697D02*
D03*
X2950D02*
D03*
Y20697D02*
D03*
X23927D02*
D03*
Y19697D02*
D03*
X23061D02*
D03*
Y20697D02*
D03*
X44039D02*
D03*
Y19697D02*
D03*
X43173D02*
D03*
Y20697D02*
D03*
D170*
X13102Y26179D02*
D03*
X14700D02*
D03*
X13102Y25679D02*
D03*
X14700D02*
D03*
X13102Y25179D02*
D03*
X14700D02*
D03*
X13102Y24679D02*
D03*
X14700D02*
D03*
X13102Y24179D02*
D03*
X14700D02*
D03*
X8529Y20384D02*
D03*
X6931D02*
D03*
X8529Y20884D02*
D03*
X6931D02*
D03*
X8529Y21384D02*
D03*
X6931D02*
D03*
X8529Y21884D02*
D03*
X6931D02*
D03*
X8529Y22384D02*
D03*
X6931D02*
D03*
X10990Y3959D02*
D03*
X9392D02*
D03*
X10990Y4459D02*
D03*
X9392D02*
D03*
X10990Y4959D02*
D03*
X9392D02*
D03*
X10990Y5459D02*
D03*
X9392D02*
D03*
X10990Y5959D02*
D03*
X9392D02*
D03*
X33213Y26179D02*
D03*
X34812D02*
D03*
X33213Y25679D02*
D03*
X34812D02*
D03*
X33213Y25179D02*
D03*
X34812D02*
D03*
X33213Y24679D02*
D03*
X34812D02*
D03*
X33213Y24179D02*
D03*
X34812D02*
D03*
X28641Y20384D02*
D03*
X27042D02*
D03*
X28641Y20884D02*
D03*
X27042D02*
D03*
X28641Y21384D02*
D03*
X27042D02*
D03*
X28641Y21884D02*
D03*
X27042D02*
D03*
X28641Y22384D02*
D03*
X27042D02*
D03*
X31102Y3959D02*
D03*
X29503D02*
D03*
X31102Y4459D02*
D03*
X29503D02*
D03*
X31102Y4959D02*
D03*
X29503D02*
D03*
X31102Y5459D02*
D03*
X29503D02*
D03*
X31102Y5959D02*
D03*
X29503D02*
D03*
X53325Y26179D02*
D03*
X54923D02*
D03*
X53325Y25679D02*
D03*
X54923D02*
D03*
X53325Y25179D02*
D03*
X54923D02*
D03*
X53325Y24679D02*
D03*
X54923D02*
D03*
X53325Y24179D02*
D03*
X54923D02*
D03*
X48752Y20384D02*
D03*
X47154D02*
D03*
X48752Y20884D02*
D03*
X47154D02*
D03*
X48752Y21384D02*
D03*
X47154D02*
D03*
X48752Y21884D02*
D03*
X47154D02*
D03*
X48752Y22384D02*
D03*
X47154D02*
D03*
X51213Y3959D02*
D03*
X49615D02*
D03*
X51213Y4459D02*
D03*
X49615D02*
D03*
X51213Y4959D02*
D03*
X49615D02*
D03*
X51213Y5459D02*
D03*
X49615D02*
D03*
X51213Y5959D02*
D03*
X49615D02*
D03*
D171*
X2528Y23929D02*
D03*
X2174D02*
D03*
X22640D02*
D03*
X22285D02*
D03*
X42751D02*
D03*
X42397D02*
D03*
D172*
X12920Y6279D02*
D03*
X33031D02*
D03*
X53143D02*
D03*
D173*
X1673Y23933D02*
D03*
Y25901D02*
D03*
X21784Y23933D02*
D03*
Y25901D02*
D03*
X41896Y23933D02*
D03*
Y25901D02*
D03*
D174*
X610Y26295D02*
D03*
Y23539D02*
D03*
X20721Y26295D02*
D03*
Y23539D02*
D03*
X40833Y26295D02*
D03*
Y23539D02*
D03*
D175*
X1000Y6649D02*
D03*
Y12830D02*
D03*
X2949Y6885D02*
D03*
Y12594D02*
D03*
X21111Y6649D02*
D03*
Y12830D02*
D03*
X23060Y6885D02*
D03*
Y12594D02*
D03*
X41223Y6649D02*
D03*
Y12830D02*
D03*
X43172Y6885D02*
D03*
Y12594D02*
D03*
D176*
X13926Y5029D02*
D03*
X14633Y5736D02*
D03*
Y4322D02*
D03*
X34037Y5029D02*
D03*
X34744Y5736D02*
D03*
Y4322D02*
D03*
X54148Y5029D02*
D03*
X54856Y5736D02*
D03*
Y4322D02*
D03*
D177*
X15340Y5029D02*
D03*
X35451D02*
D03*
X55563D02*
D03*
D178*
X12521Y20979D02*
D03*
Y21979D02*
D03*
X13521Y20979D02*
D03*
Y21979D02*
D03*
X14521Y20979D02*
D03*
Y21979D02*
D03*
X32632Y20979D02*
D03*
Y21979D02*
D03*
X33632Y20979D02*
D03*
Y21979D02*
D03*
X34632Y20979D02*
D03*
Y21979D02*
D03*
X52744Y20979D02*
D03*
Y21979D02*
D03*
X53744Y20979D02*
D03*
Y21979D02*
D03*
X54744Y20979D02*
D03*
Y21979D02*
D03*
D179*
X13521Y2803D02*
D03*
Y3512D02*
D03*
X7061Y3522D02*
D03*
Y2813D02*
D03*
X33632Y2803D02*
D03*
Y3512D02*
D03*
X27172Y3522D02*
D03*
Y2813D02*
D03*
X53744Y2803D02*
D03*
Y3512D02*
D03*
X47284Y3522D02*
D03*
Y2813D02*
D03*
M02*
